<?xml version="1.0" encoding="us-ascii" standalone="no"?><svg xmlns="http://www.w3.org/2000/svg" xmlns:xlink="http://www.w3.org/1999/xlink" contentStyleType="text/css" height="1247px" preserveAspectRatio="none" style="width:1714px;height:1247px;background:#FFFFFF;" version="1.1" viewBox="0 0 1714 1247" width="1714px" zoomAndPan="magnify"><defs/><g><text fill="#000000" font-family="sans-serif" font-size="14" font-weight="bold" lengthAdjust="spacing" textLength="254" x="731" y="28.0059">UC_IniciarSesion: Sequence Diagram</text><rect fill="#FFFFFF" height="187.8" style="stroke:#181818;stroke-width:1.0;" width="10" x="203.5" y="151.1999"/><rect fill="#FFFFFF" height="88.8" style="stroke:#181818;stroke-width:1.0;" width="10" x="436.5" y="389.5999"/><rect fill="#FFFFFF" height="30" style="stroke:#181818;stroke-width:1.0;" width="10" x="436.5" y="1051.4001"/><rect fill="#FFFFFF" height="158.2" style="stroke:#181818;stroke-width:1.0;" width="10" x="603" y="180.7999"/><rect fill="#FFFFFF" height="29.6" style="stroke:#181818;stroke-width:1.0;" width="10" x="603" y="567.1999"/><rect fill="#FFFFFF" height="29.6" style="stroke:#181818;stroke-width:1.0;" width="10" x="603" y="829.0001"/><rect fill="#FFFFFF" height="648.0001" style="stroke:#181818;stroke-width:1.0;" width="10" x="750.5" y="507.9999"/><rect fill="#FFFFFF" height="618.4001" style="stroke:#181818;stroke-width:1.0;" width="10" x="1009.5" y="537.5999"/><rect fill="#FFFFFF" height="529.6001" style="stroke:#181818;stroke-width:1.0;" width="10" x="1273.5" y="626.4"/><rect fill="#FFFFFF" height="29.6" style="stroke:#181818;stroke-width:1.0;" width="10" x="1415.5" y="309.3998"/><rect fill="#FFFFFF" height="29.6" style="stroke:#181818;stroke-width:1.0;" width="10" x="1415.5" y="888.2001"/><rect fill="#FFFFFF" height="30" style="stroke:#181818;stroke-width:1.0;" width="10" x="1543.5" y="769.4"/><rect fill="#FFFFFF" height="30" style="stroke:#181818;stroke-width:1.0;" width="10" x="1543.5" y="1111.0001"/><rect fill="none" height="165.2" style="stroke:#000000;stroke-width:1.5;" width="1493" x="10" y="195.7999"/><rect fill="none" height="507.6001" style="stroke:#000000;stroke-width:1.5;" width="1697" x="10" y="641.4"/><line style="stroke:#181818;stroke-width:0.5;stroke-dasharray:5.0,5.0;" x1="47" x2="47" y1="119.5999" y2="1166.0001"/><line style="stroke:#181818;stroke-width:0.5;stroke-dasharray:5.0,5.0;" x1="208" x2="208" y1="119.5999" y2="1166.0001"/><line style="stroke:#181818;stroke-width:0.5;stroke-dasharray:5.0,5.0;" x1="441" x2="441" y1="119.5999" y2="1166.0001"/><line style="stroke:#181818;stroke-width:0.5;stroke-dasharray:5.0,5.0;" x1="608" x2="608" y1="119.5999" y2="1166.0001"/><line style="stroke:#181818;stroke-width:0.5;stroke-dasharray:5.0,5.0;" x1="755" x2="755" y1="119.5999" y2="1166.0001"/><line style="stroke:#181818;stroke-width:0.5;stroke-dasharray:5.0,5.0;" x1="1014" x2="1014" y1="119.5999" y2="1166.0001"/><line style="stroke:#181818;stroke-width:0.5;stroke-dasharray:5.0,5.0;" x1="1278" x2="1278" y1="119.5999" y2="1166.0001"/><line style="stroke:#181818;stroke-width:0.5;stroke-dasharray:5.0,5.0;" x1="1420" x2="1420" y1="119.5999" y2="1166.0001"/><line style="stroke:#181818;stroke-width:0.5;stroke-dasharray:5.0,5.0;" x1="1548" x2="1548" y1="119.5999" y2="1166.0001"/><line style="stroke:#181818;stroke-width:0.5;stroke-dasharray:5.0,5.0;" x1="1650" x2="1650" y1="119.5999" y2="1166.0001"/><text fill="#000000" font-family="sans-serif" font-size="14" lengthAdjust="spacing" textLength="49" x="20" y="115.8059">Usuario</text><ellipse cx="47.5" cy="51.2999" fill="#E2E2F0" rx="8" ry="8" style="stroke:#181818;stroke-width:0.5;"/><path d="M47.5,59.2999 L47.5,86.2999 M34.5,67.2999 L60.5,67.2999 M47.5,86.2999 L34.5,101.2999 M47.5,86.2999 L60.5,101.2999 " fill="none" style="stroke:#181818;stroke-width:0.5;"/><text fill="#000000" font-family="sans-serif" font-size="14" lengthAdjust="spacing" textLength="49" x="20" y="1178.006">Usuario</text><ellipse cx="47.5" cy="1190.3" fill="#E2E2F0" rx="8" ry="8" style="stroke:#181818;stroke-width:0.5;"/><path d="M47.5,1198.3 L47.5,1225.3 M34.5,1206.3 L60.5,1206.3 M47.5,1225.3 L34.5,1240.3 M47.5,1225.3 L60.5,1240.3 " fill="none" style="stroke:#181818;stroke-width:0.5;"/><rect fill="#E2E2F0" height="36" rx="2.5" ry="2.5" style="stroke:#181818;stroke-width:0.5;" width="189" x="114" y="82.5999"/><ellipse cx="132" cy="100.5999" fill="#DA70D6" rx="11" ry="11" style="stroke:#181818;stroke-width:1.0;"/><path d="M129.8594,101.9905 L131.4375,101.9905 C132.1094,102.2405 133.5938,103.9124 134.4688,105.4905 L134.5313,105.5999 L135.9063,105.5999 C136.2344,105.5999 136.5156,105.553 136.6563,105.4749 C136.9219,105.3186 137.0938,105.0217 137.0938,104.7092 C137.0938,104.4436 136.9375,104.1624 136.7188,104.0061 C136.5313,103.8655 136.3594,103.8342 135.9063,103.8342 L135.7188,103.8342 C135.0625,102.8499 134.3906,102.053 133.6563,101.4124 C134.8594,100.7874 135.4375,99.9905 135.4375,98.9592 C135.4375,97.2249 133.8906,96.0061 131.6406,96.0061 L127.8438,96.0061 C127.3906,96.0061 127.2656,96.0217 127.0938,96.1311 C126.8281,96.303 126.6563,96.5842 126.6563,96.8811 C126.6563,97.1624 126.8125,97.4436 127.0313,97.5999 C127.2188,97.7249 127.4063,97.7561 127.8438,97.7561 L128.0313,97.7561 L128.0313,103.8342 L127.8438,103.8342 C127.4219,103.8342 127.2656,103.8655 127.0938,103.9749 C126.8281,104.1155 126.6563,104.4124 126.6563,104.7092 C126.6563,105.2874 127.0625,105.5999 127.8438,105.5999 L130.3906,105.5999 C130.75,105.5999 131,105.553 131.1406,105.4749 C131.4063,105.3186 131.5781,105.0217 131.5781,104.7092 C131.5781,104.4436 131.4531,104.178 131.2031,104.0061 C131.0156,103.8655 130.875,103.8342 130.3906,103.8342 L129.8594,103.8342 L129.8594,101.9905 Z M129.8594,100.2405 L129.8594,97.7561 L131.7031,97.7561 C132.7344,97.7561 133.5,98.2405 133.5,98.8967 C133.5,99.678 132.4844,100.2405 131.0938,100.2405 L129.8594,100.2405 Z " fill="#000000"/><text fill="#000000" font-family="sans-serif" font-size="14" lengthAdjust="spacing" textLength="147" x="149" y="102.6058">LoginRouteComponent</text><rect fill="#E2E2F0" height="36" rx="2.5" ry="2.5" style="stroke:#181818;stroke-width:0.5;" width="189" x="114" y="1165.0001"/><ellipse cx="132" cy="1183.0001" fill="#DA70D6" rx="11" ry="11" style="stroke:#181818;stroke-width:1.0;"/><path d="M129.8594,1184.3907 L131.4375,1184.3907 C132.1094,1184.6407 133.5938,1186.3126 134.4688,1187.8907 L134.5313,1188.0001 L135.9063,1188.0001 C136.2344,1188.0001 136.5156,1187.9532 136.6563,1187.8751 C136.9219,1187.7188 137.0938,1187.4219 137.0938,1187.1094 C137.0938,1186.8438 136.9375,1186.5626 136.7188,1186.4063 C136.5313,1186.2657 136.3594,1186.2344 135.9063,1186.2344 L135.7188,1186.2344 C135.0625,1185.2501 134.3906,1184.4532 133.6563,1183.8126 C134.8594,1183.1876 135.4375,1182.3907 135.4375,1181.3594 C135.4375,1179.6251 133.8906,1178.4063 131.6406,1178.4063 L127.8438,1178.4063 C127.3906,1178.4063 127.2656,1178.4219 127.0938,1178.5313 C126.8281,1178.7032 126.6563,1178.9844 126.6563,1179.2813 C126.6563,1179.5626 126.8125,1179.8438 127.0313,1180.0001 C127.2188,1180.1251 127.4063,1180.1563 127.8438,1180.1563 L128.0313,1180.1563 L128.0313,1186.2344 L127.8438,1186.2344 C127.4219,1186.2344 127.2656,1186.2657 127.0938,1186.3751 C126.8281,1186.5157 126.6563,1186.8126 126.6563,1187.1094 C126.6563,1187.6876 127.0625,1188.0001 127.8438,1188.0001 L130.3906,1188.0001 C130.75,1188.0001 131,1187.9532 131.1406,1187.8751 C131.4063,1187.7188 131.5781,1187.4219 131.5781,1187.1094 C131.5781,1186.8438 131.4531,1186.5782 131.2031,1186.4063 C131.0156,1186.2657 130.875,1186.2344 130.3906,1186.2344 L129.8594,1186.2344 L129.8594,1184.3907 Z M129.8594,1182.6407 L129.8594,1180.1563 L131.7031,1180.1563 C132.7344,1180.1563 133.5,1180.6407 133.5,1181.2969 C133.5,1182.0782 132.4844,1182.6407 131.0938,1182.6407 L129.8594,1182.6407 Z " fill="#000000"/><text fill="#000000" font-family="sans-serif" font-size="14" lengthAdjust="spacing" textLength="147" x="149" y="1185.006">LoginRouteComponent</text><rect fill="#E2E2F0" height="36" rx="2.5" ry="2.5" style="stroke:#181818;stroke-width:0.5;" width="185" x="349" y="82.5999"/><ellipse cx="367" cy="100.5999" fill="#D3D3D3" rx="11" ry="11" style="stroke:#181818;stroke-width:1.0;"/><path d="M362,101.7561 C362,104.2561 364.1406,106.0686 367.0625,106.0686 C368.2969,106.0686 369.4688,105.7717 370.2188,105.2561 C370.8281,104.8342 371.1563,104.4124 371.1563,104.0061 C371.1563,103.5374 370.7344,103.1311 370.2344,103.1311 C370,103.1311 369.7813,103.2092 369.5781,103.4124 C369.1406,103.8499 369.1406,103.8499 368.9688,103.9436 C368.5156,104.178 367.875,104.3186 367.1094,104.3186 C365.1094,104.3186 363.8281,103.303 363.8281,101.7249 L363.8281,100.678 C363.8281,98.9749 365.0469,97.7717 366.75,97.7717 C367.3281,97.7717 367.9063,97.9124 368.375,98.1624 C368.8438,98.428 369.0156,98.6155 369.0781,98.9749 C369.2031,99.6467 369.4531,99.8967 369.9844,99.8967 C370.2656,99.8967 370.5469,99.7561 370.7344,99.5374 C370.8594,99.3655 370.9063,99.1936 370.9063,98.7561 L370.9063,97.3967 C370.9063,96.9749 370.8906,96.8342 370.7656,96.6624 C370.5938,96.4124 370.3125,96.2561 369.9844,96.2561 C369.6719,96.2561 369.4688,96.3655 369.25,96.6311 C368.0781,96.1311 367.6406,96.0217 366.6875,96.0217 C364.0156,96.0217 362,98.0374 362,100.6624 L362,101.7561 Z " fill="#000000"/><text fill="#000000" font-family="sans-serif" font-size="14" lengthAdjust="spacing" textLength="143" x="384" y="102.6058">ReusableForm (Login)</text><rect fill="#E2E2F0" height="36" rx="2.5" ry="2.5" style="stroke:#181818;stroke-width:0.5;" width="185" x="349" y="1165.0001"/><ellipse cx="367" cy="1183.0001" fill="#D3D3D3" rx="11" ry="11" style="stroke:#181818;stroke-width:1.0;"/><path d="M362,1184.1563 C362,1186.6563 364.1406,1188.4688 367.0625,1188.4688 C368.2969,1188.4688 369.4688,1188.1719 370.2188,1187.6563 C370.8281,1187.2344 371.1563,1186.8126 371.1563,1186.4063 C371.1563,1185.9376 370.7344,1185.5313 370.2344,1185.5313 C370,1185.5313 369.7813,1185.6094 369.5781,1185.8126 C369.1406,1186.2501 369.1406,1186.2501 368.9688,1186.3438 C368.5156,1186.5782 367.875,1186.7188 367.1094,1186.7188 C365.1094,1186.7188 363.8281,1185.7032 363.8281,1184.1251 L363.8281,1183.0782 C363.8281,1181.3751 365.0469,1180.1719 366.75,1180.1719 C367.3281,1180.1719 367.9063,1180.3126 368.375,1180.5626 C368.8438,1180.8282 369.0156,1181.0157 369.0781,1181.3751 C369.2031,1182.0469 369.4531,1182.2969 369.9844,1182.2969 C370.2656,1182.2969 370.5469,1182.1563 370.7344,1181.9376 C370.8594,1181.7657 370.9063,1181.5938 370.9063,1181.1563 L370.9063,1179.7969 C370.9063,1179.3751 370.8906,1179.2344 370.7656,1179.0626 C370.5938,1178.8126 370.3125,1178.6563 369.9844,1178.6563 C369.6719,1178.6563 369.4688,1178.7657 369.25,1179.0313 C368.0781,1178.5313 367.6406,1178.4219 366.6875,1178.4219 C364.0156,1178.4219 362,1180.4376 362,1183.0626 L362,1184.1563 Z " fill="#000000"/><text fill="#000000" font-family="sans-serif" font-size="14" lengthAdjust="spacing" textLength="143" x="384" y="1185.006">ReusableForm (Login)</text><rect fill="#E2E2F0" height="36" rx="2.5" ry="2.5" style="stroke:#181818;stroke-width:0.5;" width="128" x="544" y="82.5999"/><ellipse cx="562" cy="100.5999" fill="#ADD8E6" rx="11" ry="11" style="stroke:#181818;stroke-width:1.0;"/><path d="M565.8594,96.9124 C565.8594,96.4749 565.8438,96.3499 565.7344,96.178 C565.5781,95.928 565.2813,95.7717 564.9531,95.7717 C564.6094,95.7717 564.4219,95.9124 564.2656,96.2874 C563.7031,95.9592 562.9375,95.7717 562.0625,95.7717 C559.9219,95.7717 558.3281,97.0374 558.3281,98.6936 C558.3281,99.6467 558.875,100.5374 559.75,101.0061 C560.3125,101.3186 560.8438,101.4749 561.9844,101.6624 C563.1094,101.8655 563.375,101.928 563.75,102.0999 C564.0938,102.2717 564.3125,102.5686 564.3125,102.8811 C564.3125,103.5374 563.3594,104.053 562.1406,104.053 C561.0469,104.053 559.9844,103.5999 559.8281,103.053 C559.6875,102.6155 559.6875,102.6155 559.5625,102.4749 C559.3906,102.3186 559.1563,102.2405 558.9063,102.2405 C558.6094,102.2405 558.3438,102.3655 558.1563,102.5842 C558.0313,102.7561 557.9844,102.9436 557.9844,103.3655 L557.9844,104.4436 C557.9844,105.2092 558.2969,105.5842 558.9063,105.5842 C559.1875,105.5842 559.3438,105.4905 559.625,105.2092 C560.4844,105.6311 561.3281,105.8186 562.25,105.8186 C564.6094,105.8186 566.2188,104.6467 566.2188,102.9124 C566.2188,102.053 565.875,101.3655 565.1875,100.8342 C564.6563,100.428 563.9844,100.1936 562.4844,99.9436 C561.2031,99.6936 561.1406,99.678 560.8125,99.5061 C560.4688,99.3655 560.2344,99.0061 560.2344,98.678 C560.2344,98.0374 561.0469,97.5217 562.0781,97.5217 C563.125,97.5217 563.8906,97.9436 564.0313,98.5686 C564.1563,99.0999 564.1563,99.0999 564.2969,99.2405 C564.4531,99.3967 564.7031,99.4905 564.9531,99.4905 C565.25,99.4905 565.5,99.3655 565.6875,99.1467 C565.8281,98.9592 565.8594,98.8186 565.8594,98.3655 L565.8594,96.9124 Z " fill="#000000"/><text fill="#000000" font-family="sans-serif" font-size="14" lengthAdjust="spacing" textLength="86" x="579" y="102.6058">AuthManager</text><rect fill="#E2E2F0" height="36" rx="2.5" ry="2.5" style="stroke:#181818;stroke-width:0.5;" width="128" x="544" y="1165.0001"/><ellipse cx="562" cy="1183.0001" fill="#ADD8E6" rx="11" ry="11" style="stroke:#181818;stroke-width:1.0;"/><path d="M565.8594,1179.3126 C565.8594,1178.8751 565.8438,1178.7501 565.7344,1178.5782 C565.5781,1178.3282 565.2813,1178.1719 564.9531,1178.1719 C564.6094,1178.1719 564.4219,1178.3126 564.2656,1178.6876 C563.7031,1178.3594 562.9375,1178.1719 562.0625,1178.1719 C559.9219,1178.1719 558.3281,1179.4376 558.3281,1181.0938 C558.3281,1182.0469 558.875,1182.9376 559.75,1183.4063 C560.3125,1183.7188 560.8438,1183.8751 561.9844,1184.0626 C563.1094,1184.2657 563.375,1184.3282 563.75,1184.5001 C564.0938,1184.6719 564.3125,1184.9688 564.3125,1185.2813 C564.3125,1185.9376 563.3594,1186.4532 562.1406,1186.4532 C561.0469,1186.4532 559.9844,1186.0001 559.8281,1185.4532 C559.6875,1185.0157 559.6875,1185.0157 559.5625,1184.8751 C559.3906,1184.7188 559.1563,1184.6407 558.9063,1184.6407 C558.6094,1184.6407 558.3438,1184.7657 558.1563,1184.9844 C558.0313,1185.1563 557.9844,1185.3438 557.9844,1185.7657 L557.9844,1186.8438 C557.9844,1187.6094 558.2969,1187.9844 558.9063,1187.9844 C559.1875,1187.9844 559.3438,1187.8907 559.625,1187.6094 C560.4844,1188.0313 561.3281,1188.2188 562.25,1188.2188 C564.6094,1188.2188 566.2188,1187.0469 566.2188,1185.3126 C566.2188,1184.4532 565.875,1183.7657 565.1875,1183.2344 C564.6563,1182.8282 563.9844,1182.5938 562.4844,1182.3438 C561.2031,1182.0938 561.1406,1182.0782 560.8125,1181.9063 C560.4688,1181.7657 560.2344,1181.4063 560.2344,1181.0782 C560.2344,1180.4376 561.0469,1179.9219 562.0781,1179.9219 C563.125,1179.9219 563.8906,1180.3438 564.0313,1180.9688 C564.1563,1181.5001 564.1563,1181.5001 564.2969,1181.6407 C564.4531,1181.7969 564.7031,1181.8907 564.9531,1181.8907 C565.25,1181.8907 565.5,1181.7657 565.6875,1181.5469 C565.8281,1181.3594 565.8594,1181.2188 565.8594,1180.7657 L565.8594,1179.3126 Z " fill="#000000"/><text fill="#000000" font-family="sans-serif" font-size="14" lengthAdjust="spacing" textLength="86" x="579" y="1185.006">AuthManager</text><rect fill="#E2E2F0" height="47.5999" rx="2.5" ry="2.5" style="stroke:#181818;stroke-width:0.5;" width="147" x="682" y="71"/><ellipse cx="700" cy="89" fill="#FFFF00" rx="11" ry="11" style="stroke:#181818;stroke-width:1.0;"/><path d="M698.8594,90.0625 L700.1719,90.0625 L700.1719,90.1094 C700.1719,90.5 700.2031,90.6875 700.2969,90.8438 C700.4688,91.0938 700.7656,91.2656 701.0781,91.2656 C701.3594,91.2656 701.6406,91.125 701.8281,90.9063 C701.9531,90.7188 702,90.5625 702,90.1094 L702,88.2813 C702,87.8594 701.9844,87.7344 701.8594,87.5625 C701.7031,87.2969 701.4063,87.125 701.0781,87.125 C700.7813,87.125 700.5156,87.2656 700.3438,87.4844 C700.2031,87.6719 700.1719,87.8438 700.1719,88.2813 L700.1719,88.3281 L698.8594,88.3281 L698.8594,86.1563 L703.0781,86.1563 L703.0781,86.9219 C703.0781,87.3125 703.1094,87.4844 703.2188,87.6406 C703.3906,87.9063 703.6719,88.0625 704,88.0625 C704.2813,88.0625 704.5625,87.9375 704.75,87.7031 C704.8906,87.5156 704.9219,87.375 704.9219,86.9219 L704.9219,84.4063 L696.8438,84.4063 C696.4063,84.4063 696.2656,84.4219 696.0938,84.5313 C695.8281,84.7031 695.6563,84.9844 695.6563,85.2813 C695.6563,85.5625 695.8125,85.8438 696.0313,86 C696.2188,86.125 696.4063,86.1563 696.8438,86.1563 L697.0313,86.1563 L697.0313,92.25 L696.8438,92.25 C696.4219,92.25 696.2656,92.2813 696.0938,92.375 C695.8281,92.5313 695.6563,92.8281 695.6563,93.1094 C695.6563,93.6875 696.0625,94 696.8438,94 L700.5,94 C701.2813,94 701.6875,93.7188 701.6875,93.1094 C701.6875,92.8438 701.5469,92.5938 701.3125,92.4219 C701.125,92.2813 700.9531,92.25 700.5,92.25 L698.8594,92.25 L698.8594,90.0625 Z " fill="#000000"/><text fill="#000000" font-family="sans-serif" font-size="14" lengthAdjust="spacing" textLength="105" x="717" y="91.0059">user_backend.ts</text><text fill="#000000" font-family="sans-serif" font-size="14" lengthAdjust="spacing" textLength="71" x="734" y="107.8059">logInUser()</text><rect fill="#E2E2F0" height="47.5999" rx="2.5" ry="2.5" style="stroke:#181818;stroke-width:0.5;" width="147" x="682" y="1165.0001"/><ellipse cx="700" cy="1183.0001" fill="#FFFF00" rx="11" ry="11" style="stroke:#181818;stroke-width:1.0;"/><path d="M698.8594,1184.0626 L700.1719,1184.0626 L700.1719,1184.1094 C700.1719,1184.5001 700.2031,1184.6876 700.2969,1184.8438 C700.4688,1185.0938 700.7656,1185.2657 701.0781,1185.2657 C701.3594,1185.2657 701.6406,1185.1251 701.8281,1184.9063 C701.9531,1184.7188 702,1184.5626 702,1184.1094 L702,1182.2813 C702,1181.8594 701.9844,1181.7344 701.8594,1181.5626 C701.7031,1181.2969 701.4063,1181.1251 701.0781,1181.1251 C700.7813,1181.1251 700.5156,1181.2657 700.3438,1181.4844 C700.2031,1181.6719 700.1719,1181.8438 700.1719,1182.2813 L700.1719,1182.3282 L698.8594,1182.3282 L698.8594,1180.1563 L703.0781,1180.1563 L703.0781,1180.9219 C703.0781,1181.3126 703.1094,1181.4844 703.2188,1181.6407 C703.3906,1181.9063 703.6719,1182.0626 704,1182.0626 C704.2813,1182.0626 704.5625,1181.9376 704.75,1181.7032 C704.8906,1181.5157 704.9219,1181.3751 704.9219,1180.9219 L704.9219,1178.4063 L696.8438,1178.4063 C696.4063,1178.4063 696.2656,1178.4219 696.0938,1178.5313 C695.8281,1178.7032 695.6563,1178.9844 695.6563,1179.2813 C695.6563,1179.5626 695.8125,1179.8438 696.0313,1180.0001 C696.2188,1180.1251 696.4063,1180.1563 696.8438,1180.1563 L697.0313,1180.1563 L697.0313,1186.2501 L696.8438,1186.2501 C696.4219,1186.2501 696.2656,1186.2813 696.0938,1186.3751 C695.8281,1186.5313 695.6563,1186.8282 695.6563,1187.1094 C695.6563,1187.6876 696.0625,1188.0001 696.8438,1188.0001 L700.5,1188.0001 C701.2813,1188.0001 701.6875,1187.7188 701.6875,1187.1094 C701.6875,1186.8438 701.5469,1186.5938 701.3125,1186.4219 C701.125,1186.2813 700.9531,1186.2501 700.5,1186.2501 L698.8594,1186.2501 L698.8594,1184.0626 Z " fill="#000000"/><text fill="#000000" font-family="sans-serif" font-size="14" lengthAdjust="spacing" textLength="105" x="717" y="1185.006">user_backend.ts</text><text fill="#000000" font-family="sans-serif" font-size="14" lengthAdjust="spacing" textLength="71" x="734" y="1201.8059">logInUser()</text><rect fill="#E2E2F0" height="47.5999" rx="2.5" ry="2.5" style="stroke:#181818;stroke-width:0.5;" width="113" x="958" y="71"/><ellipse cx="976" cy="89" fill="#FFA500" rx="11" ry="11" style="stroke:#181818;stroke-width:1.0;"/><path d="M974.8594,90.0625 L976.1719,90.0625 L976.1719,90.1094 C976.1719,90.5 976.2031,90.6875 976.2969,90.8438 C976.4688,91.0938 976.7656,91.2656 977.0781,91.2656 C977.3594,91.2656 977.6406,91.125 977.8281,90.9063 C977.9531,90.7188 978,90.5625 978,90.1094 L978,88.2813 C978,87.8594 977.9844,87.7344 977.8594,87.5625 C977.7031,87.2969 977.4063,87.125 977.0781,87.125 C976.7813,87.125 976.5156,87.2656 976.3438,87.4844 C976.2031,87.6719 976.1719,87.8438 976.1719,88.2813 L976.1719,88.3281 L974.8594,88.3281 L974.8594,86.1563 L979.0781,86.1563 L979.0781,86.9219 C979.0781,87.3125 979.1094,87.4844 979.2188,87.6406 C979.3906,87.9063 979.6719,88.0625 980,88.0625 C980.2813,88.0625 980.5625,87.9375 980.75,87.7031 C980.8906,87.5156 980.9219,87.375 980.9219,86.9219 L980.9219,84.4063 L972.8438,84.4063 C972.4063,84.4063 972.2656,84.4219 972.0938,84.5313 C971.8281,84.7031 971.6563,84.9844 971.6563,85.2813 C971.6563,85.5625 971.8125,85.8438 972.0313,86 C972.2188,86.125 972.4063,86.1563 972.8438,86.1563 L973.0313,86.1563 L973.0313,92.25 L972.8438,92.25 C972.4219,92.25 972.2656,92.2813 972.0938,92.375 C971.8281,92.5313 971.6563,92.8281 971.6563,93.1094 C971.6563,93.6875 972.0625,94 972.8438,94 L976.5,94 C977.2813,94 977.6875,93.7188 977.6875,93.1094 C977.6875,92.8438 977.5469,92.5938 977.3125,92.4219 C977.125,92.2813 976.9531,92.25 976.5,92.25 L974.8594,92.25 L974.8594,90.0625 Z " fill="#000000"/><text fill="#000000" font-family="sans-serif" font-size="14" lengthAdjust="spacing" textLength="40" x="1008.5" y="91.0059">utils.ts</text><text fill="#000000" font-family="sans-serif" font-size="14" lengthAdjust="spacing" textLength="71" x="993" y="107.8059">fetchJson()</text><rect fill="#E2E2F0" height="47.5999" rx="2.5" ry="2.5" style="stroke:#181818;stroke-width:0.5;" width="113" x="958" y="1165.0001"/><ellipse cx="976" cy="1183.0001" fill="#FFA500" rx="11" ry="11" style="stroke:#181818;stroke-width:1.0;"/><path d="M974.8594,1184.0626 L976.1719,1184.0626 L976.1719,1184.1094 C976.1719,1184.5001 976.2031,1184.6876 976.2969,1184.8438 C976.4688,1185.0938 976.7656,1185.2657 977.0781,1185.2657 C977.3594,1185.2657 977.6406,1185.1251 977.8281,1184.9063 C977.9531,1184.7188 978,1184.5626 978,1184.1094 L978,1182.2813 C978,1181.8594 977.9844,1181.7344 977.8594,1181.5626 C977.7031,1181.2969 977.4063,1181.1251 977.0781,1181.1251 C976.7813,1181.1251 976.5156,1181.2657 976.3438,1181.4844 C976.2031,1181.6719 976.1719,1181.8438 976.1719,1182.2813 L976.1719,1182.3282 L974.8594,1182.3282 L974.8594,1180.1563 L979.0781,1180.1563 L979.0781,1180.9219 C979.0781,1181.3126 979.1094,1181.4844 979.2188,1181.6407 C979.3906,1181.9063 979.6719,1182.0626 980,1182.0626 C980.2813,1182.0626 980.5625,1181.9376 980.75,1181.7032 C980.8906,1181.5157 980.9219,1181.3751 980.9219,1180.9219 L980.9219,1178.4063 L972.8438,1178.4063 C972.4063,1178.4063 972.2656,1178.4219 972.0938,1178.5313 C971.8281,1178.7032 971.6563,1178.9844 971.6563,1179.2813 C971.6563,1179.5626 971.8125,1179.8438 972.0313,1180.0001 C972.2188,1180.1251 972.4063,1180.1563 972.8438,1180.1563 L973.0313,1180.1563 L973.0313,1186.2501 L972.8438,1186.2501 C972.4219,1186.2501 972.2656,1186.2813 972.0938,1186.3751 C971.8281,1186.5313 971.6563,1186.8282 971.6563,1187.1094 C971.6563,1187.6876 972.0625,1188.0001 972.8438,1188.0001 L976.5,1188.0001 C977.2813,1188.0001 977.6875,1187.7188 977.6875,1187.1094 C977.6875,1186.8438 977.5469,1186.5938 977.3125,1186.4219 C977.125,1186.2813 976.9531,1186.2501 976.5,1186.2501 L974.8594,1186.2501 L974.8594,1184.0626 Z " fill="#000000"/><text fill="#000000" font-family="sans-serif" font-size="14" lengthAdjust="spacing" textLength="40" x="1008.5" y="1185.006">utils.ts</text><text fill="#000000" font-family="sans-serif" font-size="14" lengthAdjust="spacing" textLength="71" x="993" y="1201.8059">fetchJson()</text><rect fill="#E2E2F0" height="36" rx="2.5" ry="2.5" style="stroke:#181818;stroke-width:0.5;" width="119" x="1219" y="82.5999"/><ellipse cx="1237" cy="100.5999" fill="#FF6347" rx="11" ry="11" style="stroke:#181818;stroke-width:1.0;"/><path d="M1240.8594,96.9124 C1240.8594,96.4749 1240.8438,96.3499 1240.7344,96.178 C1240.5781,95.928 1240.2813,95.7717 1239.9531,95.7717 C1239.6094,95.7717 1239.4219,95.9124 1239.2656,96.2874 C1238.7031,95.9592 1237.9375,95.7717 1237.0625,95.7717 C1234.9219,95.7717 1233.3281,97.0374 1233.3281,98.6936 C1233.3281,99.6467 1233.875,100.5374 1234.75,101.0061 C1235.3125,101.3186 1235.8438,101.4749 1236.9844,101.6624 C1238.1094,101.8655 1238.375,101.928 1238.75,102.0999 C1239.0938,102.2717 1239.3125,102.5686 1239.3125,102.8811 C1239.3125,103.5374 1238.3594,104.053 1237.1406,104.053 C1236.0469,104.053 1234.9844,103.5999 1234.8281,103.053 C1234.6875,102.6155 1234.6875,102.6155 1234.5625,102.4749 C1234.3906,102.3186 1234.1563,102.2405 1233.9063,102.2405 C1233.6094,102.2405 1233.3438,102.3655 1233.1563,102.5842 C1233.0313,102.7561 1232.9844,102.9436 1232.9844,103.3655 L1232.9844,104.4436 C1232.9844,105.2092 1233.2969,105.5842 1233.9063,105.5842 C1234.1875,105.5842 1234.3438,105.4905 1234.625,105.2092 C1235.4844,105.6311 1236.3281,105.8186 1237.25,105.8186 C1239.6094,105.8186 1241.2188,104.6467 1241.2188,102.9124 C1241.2188,102.053 1240.875,101.3655 1240.1875,100.8342 C1239.6563,100.428 1238.9844,100.1936 1237.4844,99.9436 C1236.2031,99.6936 1236.1406,99.678 1235.8125,99.5061 C1235.4688,99.3655 1235.2344,99.0061 1235.2344,98.678 C1235.2344,98.0374 1236.0469,97.5217 1237.0781,97.5217 C1238.125,97.5217 1238.8906,97.9436 1239.0313,98.5686 C1239.1563,99.0999 1239.1563,99.0999 1239.2969,99.2405 C1239.4531,99.3967 1239.7031,99.4905 1239.9531,99.4905 C1240.25,99.4905 1240.5,99.3655 1240.6875,99.1467 C1240.8281,98.9592 1240.8594,98.8186 1240.8594,98.3655 L1240.8594,96.9124 Z " fill="#000000"/><text fill="#000000" font-family="sans-serif" font-size="14" lengthAdjust="spacing" textLength="77" x="1254" y="102.6058">BackendAPI</text><rect fill="#E2E2F0" height="36" rx="2.5" ry="2.5" style="stroke:#181818;stroke-width:0.5;" width="119" x="1219" y="1165.0001"/><ellipse cx="1237" cy="1183.0001" fill="#FF6347" rx="11" ry="11" style="stroke:#181818;stroke-width:1.0;"/><path d="M1240.8594,1179.3126 C1240.8594,1178.8751 1240.8438,1178.7501 1240.7344,1178.5782 C1240.5781,1178.3282 1240.2813,1178.1719 1239.9531,1178.1719 C1239.6094,1178.1719 1239.4219,1178.3126 1239.2656,1178.6876 C1238.7031,1178.3594 1237.9375,1178.1719 1237.0625,1178.1719 C1234.9219,1178.1719 1233.3281,1179.4376 1233.3281,1181.0938 C1233.3281,1182.0469 1233.875,1182.9376 1234.75,1183.4063 C1235.3125,1183.7188 1235.8438,1183.8751 1236.9844,1184.0626 C1238.1094,1184.2657 1238.375,1184.3282 1238.75,1184.5001 C1239.0938,1184.6719 1239.3125,1184.9688 1239.3125,1185.2813 C1239.3125,1185.9376 1238.3594,1186.4532 1237.1406,1186.4532 C1236.0469,1186.4532 1234.9844,1186.0001 1234.8281,1185.4532 C1234.6875,1185.0157 1234.6875,1185.0157 1234.5625,1184.8751 C1234.3906,1184.7188 1234.1563,1184.6407 1233.9063,1184.6407 C1233.6094,1184.6407 1233.3438,1184.7657 1233.1563,1184.9844 C1233.0313,1185.1563 1232.9844,1185.3438 1232.9844,1185.7657 L1232.9844,1186.8438 C1232.9844,1187.6094 1233.2969,1187.9844 1233.9063,1187.9844 C1234.1875,1187.9844 1234.3438,1187.8907 1234.625,1187.6094 C1235.4844,1188.0313 1236.3281,1188.2188 1237.25,1188.2188 C1239.6094,1188.2188 1241.2188,1187.0469 1241.2188,1185.3126 C1241.2188,1184.4532 1240.875,1183.7657 1240.1875,1183.2344 C1239.6563,1182.8282 1238.9844,1182.5938 1237.4844,1182.3438 C1236.2031,1182.0938 1236.1406,1182.0782 1235.8125,1181.9063 C1235.4688,1181.7657 1235.2344,1181.4063 1235.2344,1181.0782 C1235.2344,1180.4376 1236.0469,1179.9219 1237.0781,1179.9219 C1238.125,1179.9219 1238.8906,1180.3438 1239.0313,1180.9688 C1239.1563,1181.5001 1239.1563,1181.5001 1239.2969,1181.6407 C1239.4531,1181.7969 1239.7031,1181.8907 1239.9531,1181.8907 C1240.25,1181.8907 1240.5,1181.7657 1240.6875,1181.5469 C1240.8281,1181.3594 1240.8594,1181.2188 1240.8594,1180.7657 L1240.8594,1179.3126 Z " fill="#000000"/><text fill="#000000" font-family="sans-serif" font-size="14" lengthAdjust="spacing" textLength="77" x="1254" y="1185.006">BackendAPI</text><rect fill="#E2E2F0" height="36" rx="2.5" ry="2.5" style="stroke:#181818;stroke-width:0.5;" width="145" x="1348" y="82.5999"/><ellipse cx="1366" cy="100.5999" fill="#90EE90" rx="11" ry="11" style="stroke:#181818;stroke-width:1.0;"/><path d="M1369.8594,96.9124 C1369.8594,96.4749 1369.8438,96.3499 1369.7344,96.178 C1369.5781,95.928 1369.2813,95.7717 1368.9531,95.7717 C1368.6094,95.7717 1368.4219,95.9124 1368.2656,96.2874 C1367.7031,95.9592 1366.9375,95.7717 1366.0625,95.7717 C1363.9219,95.7717 1362.3281,97.0374 1362.3281,98.6936 C1362.3281,99.6467 1362.875,100.5374 1363.75,101.0061 C1364.3125,101.3186 1364.8438,101.4749 1365.9844,101.6624 C1367.1094,101.8655 1367.375,101.928 1367.75,102.0999 C1368.0938,102.2717 1368.3125,102.5686 1368.3125,102.8811 C1368.3125,103.5374 1367.3594,104.053 1366.1406,104.053 C1365.0469,104.053 1363.9844,103.5999 1363.8281,103.053 C1363.6875,102.6155 1363.6875,102.6155 1363.5625,102.4749 C1363.3906,102.3186 1363.1563,102.2405 1362.9063,102.2405 C1362.6094,102.2405 1362.3438,102.3655 1362.1563,102.5842 C1362.0313,102.7561 1361.9844,102.9436 1361.9844,103.3655 L1361.9844,104.4436 C1361.9844,105.2092 1362.2969,105.5842 1362.9063,105.5842 C1363.1875,105.5842 1363.3438,105.4905 1363.625,105.2092 C1364.4844,105.6311 1365.3281,105.8186 1366.25,105.8186 C1368.6094,105.8186 1370.2188,104.6467 1370.2188,102.9124 C1370.2188,102.053 1369.875,101.3655 1369.1875,100.8342 C1368.6563,100.428 1367.9844,100.1936 1366.4844,99.9436 C1365.2031,99.6936 1365.1406,99.678 1364.8125,99.5061 C1364.4688,99.3655 1364.2344,99.0061 1364.2344,98.678 C1364.2344,98.0374 1365.0469,97.5217 1366.0781,97.5217 C1367.125,97.5217 1367.8906,97.9436 1368.0313,98.5686 C1368.1563,99.0999 1368.1563,99.0999 1368.2969,99.2405 C1368.4531,99.3967 1368.7031,99.4905 1368.9531,99.4905 C1369.25,99.4905 1369.5,99.3655 1369.6875,99.1467 C1369.8281,98.9592 1369.8594,98.8186 1369.8594,98.3655 L1369.8594,96.9124 Z " fill="#000000"/><text fill="#000000" font-family="sans-serif" font-size="14" lengthAdjust="spacing" textLength="103" x="1383" y="102.6058">TanStackRouter</text><rect fill="#E2E2F0" height="36" rx="2.5" ry="2.5" style="stroke:#181818;stroke-width:0.5;" width="145" x="1348" y="1165.0001"/><ellipse cx="1366" cy="1183.0001" fill="#90EE90" rx="11" ry="11" style="stroke:#181818;stroke-width:1.0;"/><path d="M1369.8594,1179.3126 C1369.8594,1178.8751 1369.8438,1178.7501 1369.7344,1178.5782 C1369.5781,1178.3282 1369.2813,1178.1719 1368.9531,1178.1719 C1368.6094,1178.1719 1368.4219,1178.3126 1368.2656,1178.6876 C1367.7031,1178.3594 1366.9375,1178.1719 1366.0625,1178.1719 C1363.9219,1178.1719 1362.3281,1179.4376 1362.3281,1181.0938 C1362.3281,1182.0469 1362.875,1182.9376 1363.75,1183.4063 C1364.3125,1183.7188 1364.8438,1183.8751 1365.9844,1184.0626 C1367.1094,1184.2657 1367.375,1184.3282 1367.75,1184.5001 C1368.0938,1184.6719 1368.3125,1184.9688 1368.3125,1185.2813 C1368.3125,1185.9376 1367.3594,1186.4532 1366.1406,1186.4532 C1365.0469,1186.4532 1363.9844,1186.0001 1363.8281,1185.4532 C1363.6875,1185.0157 1363.6875,1185.0157 1363.5625,1184.8751 C1363.3906,1184.7188 1363.1563,1184.6407 1362.9063,1184.6407 C1362.6094,1184.6407 1362.3438,1184.7657 1362.1563,1184.9844 C1362.0313,1185.1563 1361.9844,1185.3438 1361.9844,1185.7657 L1361.9844,1186.8438 C1361.9844,1187.6094 1362.2969,1187.9844 1362.9063,1187.9844 C1363.1875,1187.9844 1363.3438,1187.8907 1363.625,1187.6094 C1364.4844,1188.0313 1365.3281,1188.2188 1366.25,1188.2188 C1368.6094,1188.2188 1370.2188,1187.0469 1370.2188,1185.3126 C1370.2188,1184.4532 1369.875,1183.7657 1369.1875,1183.2344 C1368.6563,1182.8282 1367.9844,1182.5938 1366.4844,1182.3438 C1365.2031,1182.0938 1365.1406,1182.0782 1364.8125,1181.9063 C1364.4688,1181.7657 1364.2344,1181.4063 1364.2344,1181.0782 C1364.2344,1180.4376 1365.0469,1179.9219 1366.0781,1179.9219 C1367.125,1179.9219 1367.8906,1180.3438 1368.0313,1180.9688 C1368.1563,1181.5001 1368.1563,1181.5001 1368.2969,1181.6407 C1368.4531,1181.7969 1368.7031,1181.8907 1368.9531,1181.8907 C1369.25,1181.8907 1369.5,1181.7657 1369.6875,1181.5469 C1369.8281,1181.3594 1369.8594,1181.2188 1369.8594,1180.7657 L1369.8594,1179.3126 Z " fill="#000000"/><text fill="#000000" font-family="sans-serif" font-size="14" lengthAdjust="spacing" textLength="103" x="1383" y="1185.006">TanStackRouter</text><rect fill="#E2E2F0" height="36" rx="2.5" ry="2.5" style="stroke:#181818;stroke-width:0.5;" width="91" x="1503" y="82.5999"/><ellipse cx="1521" cy="100.5999" fill="#FFC0CB" rx="11" ry="11" style="stroke:#181818;stroke-width:1.0;"/><path d="M1516,101.7561 C1516,104.2561 1518.1406,106.0686 1521.0625,106.0686 C1522.2969,106.0686 1523.4688,105.7717 1524.2188,105.2561 C1524.8281,104.8342 1525.1563,104.4124 1525.1563,104.0061 C1525.1563,103.5374 1524.7344,103.1311 1524.2344,103.1311 C1524,103.1311 1523.7813,103.2092 1523.5781,103.4124 C1523.1406,103.8499 1523.1406,103.8499 1522.9688,103.9436 C1522.5156,104.178 1521.875,104.3186 1521.1094,104.3186 C1519.1094,104.3186 1517.8281,103.303 1517.8281,101.7249 L1517.8281,100.678 C1517.8281,98.9749 1519.0469,97.7717 1520.75,97.7717 C1521.3281,97.7717 1521.9063,97.9124 1522.375,98.1624 C1522.8438,98.428 1523.0156,98.6155 1523.0781,98.9749 C1523.2031,99.6467 1523.4531,99.8967 1523.9844,99.8967 C1524.2656,99.8967 1524.5469,99.7561 1524.7344,99.5374 C1524.8594,99.3655 1524.9063,99.1936 1524.9063,98.7561 L1524.9063,97.3967 C1524.9063,96.9749 1524.8906,96.8342 1524.7656,96.6624 C1524.5938,96.4124 1524.3125,96.2561 1523.9844,96.2561 C1523.6719,96.2561 1523.4688,96.3655 1523.25,96.6311 C1522.0781,96.1311 1521.6406,96.0217 1520.6875,96.0217 C1518.0156,96.0217 1516,98.0374 1516,100.6624 L1516,101.7561 Z " fill="#000000"/><text fill="#000000" font-family="sans-serif" font-size="14" lengthAdjust="spacing" textLength="49" x="1538" y="102.6058">Toaster</text><rect fill="#E2E2F0" height="36" rx="2.5" ry="2.5" style="stroke:#181818;stroke-width:0.5;" width="91" x="1503" y="1165.0001"/><ellipse cx="1521" cy="1183.0001" fill="#FFC0CB" rx="11" ry="11" style="stroke:#181818;stroke-width:1.0;"/><path d="M1516,1184.1563 C1516,1186.6563 1518.1406,1188.4688 1521.0625,1188.4688 C1522.2969,1188.4688 1523.4688,1188.1719 1524.2188,1187.6563 C1524.8281,1187.2344 1525.1563,1186.8126 1525.1563,1186.4063 C1525.1563,1185.9376 1524.7344,1185.5313 1524.2344,1185.5313 C1524,1185.5313 1523.7813,1185.6094 1523.5781,1185.8126 C1523.1406,1186.2501 1523.1406,1186.2501 1522.9688,1186.3438 C1522.5156,1186.5782 1521.875,1186.7188 1521.1094,1186.7188 C1519.1094,1186.7188 1517.8281,1185.7032 1517.8281,1184.1251 L1517.8281,1183.0782 C1517.8281,1181.3751 1519.0469,1180.1719 1520.75,1180.1719 C1521.3281,1180.1719 1521.9063,1180.3126 1522.375,1180.5626 C1522.8438,1180.8282 1523.0156,1181.0157 1523.0781,1181.3751 C1523.2031,1182.0469 1523.4531,1182.2969 1523.9844,1182.2969 C1524.2656,1182.2969 1524.5469,1182.1563 1524.7344,1181.9376 C1524.8594,1181.7657 1524.9063,1181.5938 1524.9063,1181.1563 L1524.9063,1179.7969 C1524.9063,1179.3751 1524.8906,1179.2344 1524.7656,1179.0626 C1524.5938,1178.8126 1524.3125,1178.6563 1523.9844,1178.6563 C1523.6719,1178.6563 1523.4688,1178.7657 1523.25,1179.0313 C1522.0781,1178.5313 1521.6406,1178.4219 1520.6875,1178.4219 C1518.0156,1178.4219 1516,1180.4376 1516,1183.0626 L1516,1184.1563 Z " fill="#000000"/><text fill="#000000" font-family="sans-serif" font-size="14" lengthAdjust="spacing" textLength="49" x="1538" y="1185.006">Toaster</text><rect fill="#E2E2F0" height="30.7999" rx="2.5" ry="2.5" style="stroke:#181818;stroke-width:0.5;" width="93" x="1604" y="87.7999"/><text fill="#000000" font-family="sans-serif" font-size="14" lengthAdjust="spacing" textLength="79" x="1611" y="107.8059">localStorage</text><rect fill="#E2E2F0" height="30.7999" rx="2.5" ry="2.5" style="stroke:#181818;stroke-width:0.5;" width="93" x="1604" y="1165.0001"/><text fill="#000000" font-family="sans-serif" font-size="14" lengthAdjust="spacing" textLength="79" x="1611" y="1185.006">localStorage</text><rect fill="#FFFFFF" height="187.8" style="stroke:#181818;stroke-width:1.0;" width="10" x="203.5" y="151.1999"/><rect fill="#FFFFFF" height="88.8" style="stroke:#181818;stroke-width:1.0;" width="10" x="436.5" y="389.5999"/><rect fill="#FFFFFF" height="30" style="stroke:#181818;stroke-width:1.0;" width="10" x="436.5" y="1051.4001"/><rect fill="#FFFFFF" height="158.2" style="stroke:#181818;stroke-width:1.0;" width="10" x="603" y="180.7999"/><rect fill="#FFFFFF" height="29.6" style="stroke:#181818;stroke-width:1.0;" width="10" x="603" y="567.1999"/><rect fill="#FFFFFF" height="29.6" style="stroke:#181818;stroke-width:1.0;" width="10" x="603" y="829.0001"/><rect fill="#FFFFFF" height="648.0001" style="stroke:#181818;stroke-width:1.0;" width="10" x="750.5" y="507.9999"/><rect fill="#FFFFFF" height="618.4001" style="stroke:#181818;stroke-width:1.0;" width="10" x="1009.5" y="537.5999"/><rect fill="#FFFFFF" height="529.6001" style="stroke:#181818;stroke-width:1.0;" width="10" x="1273.5" y="626.4"/><rect fill="#FFFFFF" height="29.6" style="stroke:#181818;stroke-width:1.0;" width="10" x="1415.5" y="309.3998"/><rect fill="#FFFFFF" height="29.6" style="stroke:#181818;stroke-width:1.0;" width="10" x="1415.5" y="888.2001"/><rect fill="#FFFFFF" height="30" style="stroke:#181818;stroke-width:1.0;" width="10" x="1543.5" y="769.4"/><rect fill="#FFFFFF" height="30" style="stroke:#181818;stroke-width:1.0;" width="10" x="1543.5" y="1111.0001"/><polygon fill="#181818" points="191.5,147.1999,201.5,151.1999,191.5,155.1999,195.5,151.1999" style="stroke:#181818;stroke-width:1.0;"/><line style="stroke:#181818;stroke-width:1.0;" x1="47.5" x2="197.5" y1="151.1999" y2="151.1999"/><text fill="#000000" font-family="sans-serif" font-size="13" lengthAdjust="spacing" textLength="137" x="54.5" y="145.6769">Navigates to /auth/login</text><polygon fill="#181818" points="591,176.7999,601,180.7999,591,184.7999,595,180.7999" style="stroke:#181818;stroke-width:1.0;"/><line style="stroke:#181818;stroke-width:1.0;" x1="213.5" x2="597" y1="180.7999" y2="180.7999"/><text fill="#000000" font-family="sans-serif" font-size="13" lengthAdjust="spacing" textLength="80" x="220.5" y="175.2769">getLogInInfo()</text><path d="M10,195.7999 L70,195.7999 L70,203.3999 L60,213.3999 L10,213.3999 L10,195.7999 " fill="#EEEEEE" style="stroke:#000000;stroke-width:1.5;"/><rect fill="none" height="165.2" style="stroke:#000000;stroke-width:1.5;" width="1493" x="10" y="195.7999"/><text fill="#000000" font-family="sans-serif" font-size="13" font-weight="bold" lengthAdjust="spacing" textLength="15" x="25" y="208.8769">alt</text><text fill="#000000" font-family="sans-serif" font-size="11" font-weight="bold" lengthAdjust="spacing" textLength="129" x="85" y="208.0188">[User not authenticated]</text><polygon fill="#181818" points="224.5,230.9999,214.5,234.9999,224.5,238.9999,220.5,234.9999" style="stroke:#181818;stroke-width:1.0;"/><line style="stroke:#181818;stroke-width:1.0;stroke-dasharray:2.0,2.0;" x1="218.5" x2="602" y1="234.9999" y2="234.9999"/><text fill="#000000" font-family="sans-serif" font-size="13" lengthAdjust="spacing" textLength="20" x="230.5" y="229.4769">null</text><line style="stroke:#000000;stroke-width:1.0;stroke-dasharray:2.0,2.0;" x1="10" x2="1503" y1="243.9999" y2="243.9999"/><text fill="#000000" font-family="sans-serif" font-size="11" font-weight="bold" lengthAdjust="spacing" textLength="149" x="15" y="254.2188">[User already authenticated]</text><polygon fill="#181818" points="224.5,275.7998,214.5,279.7998,224.5,283.7998,220.5,279.7998" style="stroke:#181818;stroke-width:1.0;"/><line style="stroke:#181818;stroke-width:1.0;stroke-dasharray:2.0,2.0;" x1="218.5" x2="602" y1="279.7998" y2="279.7998"/><text fill="#000000" font-family="sans-serif" font-size="13" lengthAdjust="spacing" textLength="71" x="230.5" y="274.2768">OnLogInInfo</text><polygon fill="#181818" points="1403.5,305.3998,1413.5,309.3998,1403.5,313.3998,1407.5,309.3998" style="stroke:#181818;stroke-width:1.0;"/><line style="stroke:#181818;stroke-width:1.0;" x1="213.5" x2="1409.5" y1="309.3998" y2="309.3998"/><text fill="#000000" font-family="sans-serif" font-size="13" lengthAdjust="spacing" textLength="137" x="220.5" y="303.8768">navigateToRol(user_rol)</text><polygon fill="#181818" points="58.5,334.9999,48.5,338.9999,58.5,342.9999,54.5,338.9999" style="stroke:#181818;stroke-width:1.0;"/><line style="stroke:#181818;stroke-width:1.0;stroke-dasharray:2.0,2.0;" x1="52.5" x2="1419.5" y1="338.9999" y2="338.9999"/><text fill="#000000" font-family="sans-serif" font-size="13" lengthAdjust="spacing" textLength="136" x="64.5" y="333.4768">Redirects to Dashboard</text><polygon fill="#181818" points="58.5,348.9999,48.5,352.9999,58.5,356.9999,54.5,352.9999" style="stroke:#181818;stroke-width:1.0;"/><line style="stroke:#181818;stroke-width:1.0;stroke-dasharray:2.0,2.0;" x1="52.5" x2="1419.5" y1="352.9999" y2="352.9999"/><polygon fill="#181818" points="424.5,385.5999,434.5,389.5999,424.5,393.5999,428.5,389.5999" style="stroke:#181818;stroke-width:1.0;"/><line style="stroke:#181818;stroke-width:1.0;" x1="208.5" x2="430.5" y1="389.5999" y2="389.5999"/><text fill="#000000" font-family="sans-serif" font-size="13" lengthAdjust="spacing" textLength="109" x="215.5" y="384.0769">Renders login form</text><polygon fill="#181818" points="424.5,415.1999,434.5,419.1999,424.5,423.1999,428.5,419.1999" style="stroke:#181818;stroke-width:1.0;"/><line style="stroke:#181818;stroke-width:1.0;" x1="47.5" x2="430.5" y1="419.1999" y2="419.1999"/><text fill="#000000" font-family="sans-serif" font-size="13" lengthAdjust="spacing" textLength="163" x="54.5" y="413.6769">Enters identifier &amp; password</text><polygon fill="#181818" points="424.5,444.7999,434.5,448.7999,424.5,452.7999,428.5,448.7999" style="stroke:#181818;stroke-width:1.0;"/><line style="stroke:#181818;stroke-width:1.0;" x1="47.5" x2="430.5" y1="448.7999" y2="448.7999"/><text fill="#000000" font-family="sans-serif" font-size="13" lengthAdjust="spacing" textLength="121" x="54.5" y="443.2769">Clicks "Login" button</text><polygon fill="#181818" points="219.5,474.3999,209.5,478.3999,219.5,482.3999,215.5,478.3999" style="stroke:#181818;stroke-width:1.0;"/><line style="stroke:#181818;stroke-width:1.0;" x1="213.5" x2="440.5" y1="478.3999" y2="478.3999"/><text fill="#000000" font-family="sans-serif" font-size="13" lengthAdjust="spacing" textLength="101" x="225.5" y="472.8769">onSubmit(values)</text><polygon fill="#181818" points="738.5,503.9999,748.5,507.9999,738.5,511.9999,742.5,507.9999" style="stroke:#181818;stroke-width:1.0;"/><line style="stroke:#181818;stroke-width:1.0;" x1="208.5" x2="744.5" y1="507.9999" y2="507.9999"/><text fill="#000000" font-family="sans-serif" font-size="13" lengthAdjust="spacing" textLength="126" x="215.5" y="502.4769">logInUser(credentials)</text><polygon fill="#181818" points="997.5,533.5999,1007.5,537.5999,997.5,541.5999,1001.5,537.5999" style="stroke:#181818;stroke-width:1.0;"/><line style="stroke:#181818;stroke-width:1.0;" x1="760.5" x2="1003.5" y1="537.5999" y2="537.5999"/><text fill="#000000" font-family="sans-serif" font-size="13" lengthAdjust="spacing" textLength="230" x="767.5" y="532.0769">fetchJson("/users/login", {POST, body})</text><polygon fill="#181818" points="624,563.1999,614,567.1999,624,571.1999,620,567.1999" style="stroke:#181818;stroke-width:1.0;"/><line style="stroke:#181818;stroke-width:1.0;" x1="618" x2="1008.5" y1="567.1999" y2="567.1999"/><text fill="#000000" font-family="sans-serif" font-size="13" lengthAdjust="spacing" textLength="230" x="630" y="561.6769">getToken() ' (will be null/empty for login)</text><polygon fill="#181818" points="997.5,592.8,1007.5,596.8,997.5,600.8,1001.5,596.8" style="stroke:#181818;stroke-width:1.0;"/><line style="stroke:#181818;stroke-width:1.0;stroke-dasharray:2.0,2.0;" x1="608" x2="1003.5" y1="596.8" y2="596.8"/><text fill="#000000" font-family="sans-serif" font-size="13" lengthAdjust="spacing" textLength="10" x="615" y="591.277">""</text><polygon fill="#181818" points="1261.5,622.4,1271.5,626.4,1261.5,630.4,1265.5,626.4" style="stroke:#181818;stroke-width:1.0;"/><line style="stroke:#181818;stroke-width:1.0;" x1="1019.5" x2="1267.5" y1="626.4" y2="626.4"/><text fill="#000000" font-family="sans-serif" font-size="13" lengthAdjust="spacing" textLength="182" x="1026.5" y="620.877">POST /users/login (credentials)</text><path d="M10,641.4 L70,641.4 L70,649 L60,659 L10,659 L10,641.4 " fill="#EEEEEE" style="stroke:#000000;stroke-width:1.5;"/><rect fill="none" height="507.6001" style="stroke:#000000;stroke-width:1.5;" width="1697" x="10" y="641.4"/><text fill="#000000" font-family="sans-serif" font-size="13" font-weight="bold" lengthAdjust="spacing" textLength="15" x="25" y="654.477">alt</text><text fill="#000000" font-family="sans-serif" font-size="11" font-weight="bold" lengthAdjust="spacing" textLength="99" x="85" y="653.6189">[Login successful]</text><polygon fill="#181818" points="1030.5,676.6,1020.5,680.6,1030.5,684.6,1026.5,680.6" style="stroke:#181818;stroke-width:1.0;"/><line style="stroke:#181818;stroke-width:1.0;stroke-dasharray:2.0,2.0;" x1="1024.5" x2="1272.5" y1="680.6" y2="680.6"/><text fill="#000000" font-family="sans-serif" font-size="13" lengthAdjust="spacing" textLength="230" x="1036.5" y="675.077">HTTP 200 OK (token, user_rol, user_id)</text><polygon fill="#181818" points="771.5,706.2,761.5,710.2,771.5,714.2,767.5,710.2" style="stroke:#181818;stroke-width:1.0;"/><line style="stroke:#181818;stroke-width:1.0;stroke-dasharray:2.0,2.0;" x1="765.5" x2="1008.5" y1="710.2" y2="710.2"/><text fill="#000000" font-family="sans-serif" font-size="13" lengthAdjust="spacing" textLength="144" x="777.5" y="704.677">{token, user_rol, user_id}</text><polygon fill="#181818" points="219.5,735.8,209.5,739.8,219.5,743.8,215.5,739.8" style="stroke:#181818;stroke-width:1.0;"/><line style="stroke:#181818;stroke-width:1.0;stroke-dasharray:2.0,2.0;" x1="213.5" x2="749.5" y1="739.8" y2="739.8"/><text fill="#000000" font-family="sans-serif" font-size="13" lengthAdjust="spacing" textLength="144" x="225.5" y="734.277">{token, user_rol, user_id}</text><polygon fill="#181818" points="1531.5,765.4,1541.5,769.4,1531.5,773.4,1535.5,769.4" style="stroke:#181818;stroke-width:1.0;"/><line style="stroke:#181818;stroke-width:1.0;" x1="208.5" x2="1537.5" y1="769.4" y2="769.4"/><text fill="#000000" font-family="sans-serif" font-size="13" lengthAdjust="spacing" textLength="198" x="215.5" y="763.877">toast.success("Login successful")</text><polygon fill="#181818" points="591,825.0001,601,829.0001,591,833.0001,595,829.0001" style="stroke:#181818;stroke-width:1.0;"/><line style="stroke:#181818;stroke-width:1.0;" x1="208.5" x2="597" y1="829.0001" y2="829.0001"/><text fill="#000000" font-family="sans-serif" font-size="13" lengthAdjust="spacing" textLength="171" x="215.5" y="823.4771">login(token, user_rol, user_id)</text><polygon fill="#181818" points="1638.5,854.6001,1648.5,858.6001,1638.5,862.6001,1642.5,858.6001" style="stroke:#181818;stroke-width:1.0;"/><line style="stroke:#181818;stroke-width:1.0;" x1="608" x2="1644.5" y1="858.6001" y2="858.6001"/><text fill="#000000" font-family="sans-serif" font-size="13" lengthAdjust="spacing" textLength="88" x="615" y="853.0771">Store Auth Info</text><polygon fill="#181818" points="1403.5,884.2001,1413.5,888.2001,1403.5,892.2001,1407.5,888.2001" style="stroke:#181818;stroke-width:1.0;"/><line style="stroke:#181818;stroke-width:1.0;" x1="208.5" x2="1409.5" y1="888.2001" y2="888.2001"/><text fill="#000000" font-family="sans-serif" font-size="13" lengthAdjust="spacing" textLength="137" x="215.5" y="882.6771">navigateToRol(user_rol)</text><polygon fill="#181818" points="58.5,913.8001,48.5,917.8001,58.5,921.8001,54.5,917.8001" style="stroke:#181818;stroke-width:1.0;"/><line style="stroke:#181818;stroke-width:1.0;stroke-dasharray:2.0,2.0;" x1="52.5" x2="1419.5" y1="917.8001" y2="917.8001"/><text fill="#000000" font-family="sans-serif" font-size="13" lengthAdjust="spacing" textLength="139" x="64.5" y="912.2771">Navigates to Dashboard</text><line style="stroke:#000000;stroke-width:1.0;stroke-dasharray:2.0,2.0;" x1="10" x2="1707" y1="926.8001" y2="926.8001"/><text fill="#000000" font-family="sans-serif" font-size="11" font-weight="bold" lengthAdjust="spacing" textLength="203" x="15" y="937.019">[Login failed (e.g., invalid credentials)]</text><polygon fill="#181818" points="1030.5,958.6,1020.5,962.6,1030.5,966.6,1026.5,962.6" style="stroke:#181818;stroke-width:1.0;"/><line style="stroke:#181818;stroke-width:1.0;stroke-dasharray:2.0,2.0;" x1="1024.5" x2="1272.5" y1="962.6" y2="962.6"/><text fill="#000000" font-family="sans-serif" font-size="13" lengthAdjust="spacing" textLength="225" x="1036.5" y="957.077">HTTP 401 Unauthorized (or other error)</text><polygon fill="#181818" points="771.5,988.2,761.5,992.2,771.5,996.2,767.5,992.2" style="stroke:#181818;stroke-width:1.0;"/><line style="stroke:#181818;stroke-width:1.0;" x1="765.5" x2="1008.5" y1="992.2" y2="992.2"/><text fill="#000000" font-family="sans-serif" font-size="13" lengthAdjust="spacing" textLength="70" x="777.5" y="986.677">throws Error</text><polygon fill="#181818" points="219.5,1017.8,209.5,1021.8,219.5,1025.8,215.5,1021.8" style="stroke:#181818;stroke-width:1.0;"/><line style="stroke:#181818;stroke-width:1.0;" x1="213.5" x2="749.5" y1="1021.8" y2="1021.8"/><text fill="#000000" font-family="sans-serif" font-size="13" lengthAdjust="spacing" textLength="70" x="225.5" y="1016.277">throws Error</text><polygon fill="#181818" points="424.5,1047.4001,434.5,1051.4001,424.5,1055.4001,428.5,1051.4001" style="stroke:#181818;stroke-width:1.0;"/><line style="stroke:#181818;stroke-width:1.0;" x1="208.5" x2="430.5" y1="1051.4001" y2="1051.4001"/><text fill="#000000" font-family="sans-serif" font-size="13" lengthAdjust="spacing" textLength="209" x="215.5" y="1045.8771">setError("root", "Invalid credentials")</text><polygon fill="#181818" points="1531.5,1107.0001,1541.5,1111.0001,1531.5,1115.0001,1535.5,1111.0001" style="stroke:#181818;stroke-width:1.0;"/><line style="stroke:#181818;stroke-width:1.0;" x1="208.5" x2="1537.5" y1="1111.0001" y2="1111.0001"/><text fill="#000000" font-family="sans-serif" font-size="13" lengthAdjust="spacing" textLength="182" x="215.5" y="1105.4771">toast.error("Invalid credentials")</text><!--SRC=[jLLBZzis4BxhLmnqQ6J0-sZHax5O8Dra4RTfr_3ZLY2WfR5CBCrnI6eNRf3_tY4fMo-lsqjk53NVFBzlwAHJ2Ak7BrCjSodC0gqaFO45VgrGvmWVf2YDs2M9o1qPI5Us4aPI2iB2og99zi8uXkw5Tf1-fbBgELKE7sYt9utQ1SjmFnCbmjrTDX-JoRUo6DtVTz5phAnOAtmaiuCiO4ODFDmo_66iPBbrfS73mCFxoct_59e3cG0CtwNni4M4hLM50rZ5XNnPY_mPTN7jxDzQKJdLlhniTAhqj_ZV-teS7r0fUXqwSbBPu663Bj_-RadN7Xxzzuf_HpmPeSjX8dMCzxDfJ7ysZQaxsWb70_Ebq0l7aD3nM74yjWhcFg4U8adO8wG-nzxkfNxsreal6QxkMwERm5_YHPR2eGL7S2EukJVA__Raa2_yex5EaWR8New3c429xhFlxbHlA1iroDeY4Sg5TeCc1pu4SqZcR54aS79prKjCLqebg2n6g506HN7ut_0dVKg9hJg9r_ta47NjIvgJoW9Z3AaHsvzAYBPyKuDyc93F1EPOI8Ev2vtx8EnsJSBub0eSmbjtnwvqBficG_H_TtLrH3DxaZFuxZGQFVdCT876GXWaRFYoDqrlrwD33VsedKVAmlTu8zdW9zWBQr-9Ipi7U50oVxRrcaXXNJb7EcaiUcCXlQZME-co5y6gjQEatuEOMgUqjb8dqEWuDnZI5CgsIDUoJjf8TjG8TWADcDCRFtaRQP-EuTliQR4SmvgAm_UMtnCuQTpqLR0a3fMDu1rahr8fM6EWyGtkzkxW1n57SaOYRHgtqqpJSwFlPi0RPG8-QMXN0c_qXys384EBmLPvZjPkAkMrn9xw2NnQBcVmo-qjFFq1cVFrZU6ebFh4Qv_1hPm6C_ls5l1xJVVJa7fqkG3ig_guyYOiHpvTrvLbQR_Gj2Fm6jPLu_6o7wCPTcZnnNwSqVjfoFUCpuLQyFCRw_IdQ0drnZed-1-pnpelmEKz5jPnxET6I8K5P7XTNez1QjQpBA13kGk4-lNsPrXflyl9o7-y7zO6yMOtWCQGwH6gpoUtDVHguQCtxJEeIw2UvPihqw8BDbbgY1nlWNGwBAdBd6PT3JTvVNsHe1ZZ_MUSYmpjlmqixjPdixDQb-q5UUu5-XS0]--></g></svg>