<?xml version="1.0" encoding="us-ascii" standalone="no"?><svg xmlns="http://www.w3.org/2000/svg" xmlns:xlink="http://www.w3.org/1999/xlink" contentStyleType="text/css" height="1200px" preserveAspectRatio="none" style="width:2279px;height:1200px;background:#FFFFFF;" version="1.1" viewBox="0 0 2279 1200" width="2279px" zoomAndPan="magnify"><defs/><g><text fill="#000000" font-family="sans-serif" font-size="14" font-weight="bold" lengthAdjust="spacing" textLength="556" x="860.75" y="28.0059">UC_GestionarCanchasCRUDAdmin (Ver Reservas de Cancha): Sequence Diagram</text><rect fill="#FFFFFF" height="949.8003" style="stroke:#181818;stroke-width:1.0;" width="10" x="352" y="151.1999"/><rect fill="#FFFFFF" height="831.4003" style="stroke:#181818;stroke-width:1.0;" width="10" x="700.5" y="269.5999"/><rect fill="#FFFFFF" height="640.8002" style="stroke:#181818;stroke-width:1.0;" width="10" x="1141.5" y="328.7999"/><rect fill="#FFFFFF" height="29.6" style="stroke:#181818;stroke-width:1.0;" width="10" x="1405.5" y="471.8"/><rect fill="#FFFFFF" height="29.6" style="stroke:#181818;stroke-width:1.0;" width="10" x="1405.5" y="531"/><rect fill="#FFFFFF" height="29.6" style="stroke:#181818;stroke-width:1.0;" width="10" x="1603" y="844.2001"/><rect fill="#FFFFFF" height="29.6" style="stroke:#181818;stroke-width:1.0;" width="10" x="1603" y="903.4001"/><rect fill="#FFFFFF" height="980.4003" style="stroke:#181818;stroke-width:1.0;" width="10" x="1753" y="129.5999"/><rect fill="#FFFFFF" height="29.6" style="stroke:#181818;stroke-width:1.0;" width="10" x="1899" y="671.6"/><rect fill="#FFFFFF" height="29.6" style="stroke:#181818;stroke-width:1.0;" width="10" x="2082" y="730.8"/><rect fill="#FFFFFF" height="700.0002" style="stroke:#181818;stroke-width:1.0;" width="10" x="2210" y="299.1999"/><rect fill="none" height="299.2" style="stroke:#000000;stroke-width:1.5;" width="1229" x="595.5" y="343.7999"/><rect fill="none" height="136.0001" style="stroke:#000000;stroke-width:1.5;" width="671" x="1030.5" y="805.0001"/><line style="stroke:#181818;stroke-width:0.5;stroke-dasharray:5.0,5.0;" x1="28" x2="28" y1="119.5999" y2="1119.0002"/><line style="stroke:#181818;stroke-width:0.5;stroke-dasharray:5.0,5.0;" x1="356.5" x2="356.5" y1="119.5999" y2="1119.0002"/><line style="stroke:#181818;stroke-width:0.5;stroke-dasharray:5.0,5.0;" x1="541.5" x2="541.5" y1="119.5999" y2="1119.0002"/><line style="stroke:#181818;stroke-width:0.5;stroke-dasharray:5.0,5.0;" x1="705.5" x2="705.5" y1="119.5999" y2="1119.0002"/><line style="stroke:#181818;stroke-width:0.5;stroke-dasharray:5.0,5.0;" x1="953.5" x2="953.5" y1="119.5999" y2="1119.0002"/><line style="stroke:#181818;stroke-width:0.5;stroke-dasharray:5.0,5.0;" x1="1146.5" x2="1146.5" y1="119.5999" y2="1119.0002"/><line style="stroke:#181818;stroke-width:0.5;stroke-dasharray:5.0,5.0;" x1="1410.5" x2="1410.5" y1="119.5999" y2="1119.0002"/><line style="stroke:#181818;stroke-width:0.5;stroke-dasharray:5.0,5.0;" x1="1607.5" x2="1607.5" y1="119.5999" y2="1119.0002"/><line style="stroke:#181818;stroke-width:0.5;stroke-dasharray:5.0,5.0;" x1="1757.5" x2="1757.5" y1="119.5999" y2="1119.0002"/><line style="stroke:#181818;stroke-width:0.5;stroke-dasharray:5.0,5.0;" x1="1904" x2="1904" y1="119.5999" y2="1119.0002"/><line style="stroke:#181818;stroke-width:0.5;stroke-dasharray:5.0,5.0;" x1="2086.5" x2="2086.5" y1="119.5999" y2="1119.0002"/><line style="stroke:#181818;stroke-width:0.5;stroke-dasharray:5.0,5.0;" x1="2214.5" x2="2214.5" y1="119.5999" y2="1119.0002"/><text fill="#000000" font-family="sans-serif" font-size="14" lengthAdjust="spacing" textLength="40" x="5" y="115.8059">Admin</text><ellipse cx="28" cy="51.2999" fill="#E2E2F0" rx="8" ry="8" style="stroke:#181818;stroke-width:0.5;"/><path d="M28,59.2999 L28,86.2999 M15,67.2999 L41,67.2999 M28,86.2999 L15,101.2999 M28,86.2999 L41,101.2999 " fill="none" style="stroke:#181818;stroke-width:0.5;"/><text fill="#000000" font-family="sans-serif" font-size="14" lengthAdjust="spacing" textLength="40" x="5" y="1131.0061">Admin</text><ellipse cx="28" cy="1143.3001" fill="#E2E2F0" rx="8" ry="8" style="stroke:#181818;stroke-width:0.5;"/><path d="M28,1151.3001 L28,1178.3001 M15,1159.3001 L41,1159.3001 M28,1178.3001 L15,1193.3001 M28,1178.3001 L41,1193.3001 " fill="none" style="stroke:#181818;stroke-width:0.5;"/><rect fill="#E2E2F0" height="36" rx="2.5" ry="2.5" style="stroke:#181818;stroke-width:0.5;" width="241" x="236.5" y="82.5999"/><ellipse cx="254.5" cy="100.5999" fill="#DA70D6" rx="11" ry="11" style="stroke:#181818;stroke-width:1.0;"/><path d="M252.3594,101.9905 L253.9375,101.9905 C254.6094,102.2405 256.0938,103.9124 256.9688,105.4905 L257.0313,105.5999 L258.4063,105.5999 C258.7344,105.5999 259.0156,105.553 259.1563,105.4749 C259.4219,105.3186 259.5938,105.0217 259.5938,104.7092 C259.5938,104.4436 259.4375,104.1624 259.2188,104.0061 C259.0313,103.8655 258.8594,103.8342 258.4063,103.8342 L258.2188,103.8342 C257.5625,102.8499 256.8906,102.053 256.1563,101.4124 C257.3594,100.7874 257.9375,99.9905 257.9375,98.9592 C257.9375,97.2249 256.3906,96.0061 254.1406,96.0061 L250.3438,96.0061 C249.8906,96.0061 249.7656,96.0217 249.5938,96.1311 C249.3281,96.303 249.1563,96.5842 249.1563,96.8811 C249.1563,97.1624 249.3125,97.4436 249.5313,97.5999 C249.7188,97.7249 249.9063,97.7561 250.3438,97.7561 L250.5313,97.7561 L250.5313,103.8342 L250.3438,103.8342 C249.9219,103.8342 249.7656,103.8655 249.5938,103.9749 C249.3281,104.1155 249.1563,104.4124 249.1563,104.7092 C249.1563,105.2874 249.5625,105.5999 250.3438,105.5999 L252.8906,105.5999 C253.25,105.5999 253.5,105.553 253.6406,105.4749 C253.9063,105.3186 254.0781,105.0217 254.0781,104.7092 C254.0781,104.4436 253.9531,104.178 253.7031,104.0061 C253.5156,103.8655 253.375,103.8342 252.8906,103.8342 L252.3594,103.8342 L252.3594,101.9905 Z M252.3594,100.2405 L252.3594,97.7561 L254.2031,97.7561 C255.2344,97.7561 256,98.2405 256,98.8967 C256,99.678 254.9844,100.2405 253.5938,100.2405 L252.3594,100.2405 Z " fill="#000000"/><text fill="#000000" font-family="sans-serif" font-size="14" lengthAdjust="spacing" textLength="199" x="271.5" y="102.6058">AdminCourtsManagementPage</text><rect fill="#E2E2F0" height="36" rx="2.5" ry="2.5" style="stroke:#181818;stroke-width:0.5;" width="241" x="236.5" y="1118.0002"/><ellipse cx="254.5" cy="1136.0002" fill="#DA70D6" rx="11" ry="11" style="stroke:#181818;stroke-width:1.0;"/><path d="M252.3594,1137.3908 L253.9375,1137.3908 C254.6094,1137.6408 256.0938,1139.3127 256.9688,1140.8908 L257.0313,1141.0002 L258.4063,1141.0002 C258.7344,1141.0002 259.0156,1140.9533 259.1563,1140.8752 C259.4219,1140.7189 259.5938,1140.4221 259.5938,1140.1096 C259.5938,1139.8439 259.4375,1139.5627 259.2188,1139.4064 C259.0313,1139.2658 258.8594,1139.2346 258.4063,1139.2346 L258.2188,1139.2346 C257.5625,1138.2502 256.8906,1137.4533 256.1563,1136.8127 C257.3594,1136.1877 257.9375,1135.3908 257.9375,1134.3596 C257.9375,1132.6252 256.3906,1131.4064 254.1406,1131.4064 L250.3438,1131.4064 C249.8906,1131.4064 249.7656,1131.4221 249.5938,1131.5314 C249.3281,1131.7033 249.1563,1131.9846 249.1563,1132.2814 C249.1563,1132.5627 249.3125,1132.8439 249.5313,1133.0002 C249.7188,1133.1252 249.9063,1133.1564 250.3438,1133.1564 L250.5313,1133.1564 L250.5313,1139.2346 L250.3438,1139.2346 C249.9219,1139.2346 249.7656,1139.2658 249.5938,1139.3752 C249.3281,1139.5158 249.1563,1139.8127 249.1563,1140.1096 C249.1563,1140.6877 249.5625,1141.0002 250.3438,1141.0002 L252.8906,1141.0002 C253.25,1141.0002 253.5,1140.9533 253.6406,1140.8752 C253.9063,1140.7189 254.0781,1140.4221 254.0781,1140.1096 C254.0781,1139.8439 253.9531,1139.5783 253.7031,1139.4064 C253.5156,1139.2658 253.375,1139.2346 252.8906,1139.2346 L252.3594,1139.2346 L252.3594,1137.3908 Z M252.3594,1135.6408 L252.3594,1133.1564 L254.2031,1133.1564 C255.2344,1133.1564 256,1133.6408 256,1134.2971 C256,1135.0783 254.9844,1135.6408 253.5938,1135.6408 L252.3594,1135.6408 Z " fill="#000000"/><text fill="#000000" font-family="sans-serif" font-size="14" lengthAdjust="spacing" textLength="199" x="271.5" y="1138.0061">AdminCourtsManagementPage</text><rect fill="#E2E2F0" height="36" rx="2.5" ry="2.5" style="stroke:#181818;stroke-width:0.5;" width="108" x="487.5" y="82.5999"/><ellipse cx="505.5" cy="100.5999" fill="#D3D3D3" rx="11" ry="11" style="stroke:#181818;stroke-width:1.0;"/><path d="M500.5,101.7561 C500.5,104.2561 502.6406,106.0686 505.5625,106.0686 C506.7969,106.0686 507.9688,105.7717 508.7188,105.2561 C509.3281,104.8342 509.6563,104.4124 509.6563,104.0061 C509.6563,103.5374 509.2344,103.1311 508.7344,103.1311 C508.5,103.1311 508.2813,103.2092 508.0781,103.4124 C507.6406,103.8499 507.6406,103.8499 507.4688,103.9436 C507.0156,104.178 506.375,104.3186 505.6094,104.3186 C503.6094,104.3186 502.3281,103.303 502.3281,101.7249 L502.3281,100.678 C502.3281,98.9749 503.5469,97.7717 505.25,97.7717 C505.8281,97.7717 506.4063,97.9124 506.875,98.1624 C507.3438,98.428 507.5156,98.6155 507.5781,98.9749 C507.7031,99.6467 507.9531,99.8967 508.4844,99.8967 C508.7656,99.8967 509.0469,99.7561 509.2344,99.5374 C509.3594,99.3655 509.4063,99.1936 509.4063,98.7561 L509.4063,97.3967 C509.4063,96.9749 509.3906,96.8342 509.2656,96.6624 C509.0938,96.4124 508.8125,96.2561 508.4844,96.2561 C508.1719,96.2561 507.9688,96.3655 507.75,96.6311 C506.5781,96.1311 506.1406,96.0217 505.1875,96.0217 C502.5156,96.0217 500.5,98.0374 500.5,100.6624 L500.5,101.7561 Z " fill="#000000"/><text fill="#000000" font-family="sans-serif" font-size="14" lengthAdjust="spacing" textLength="66" x="522.5" y="102.6058">CourtCard</text><rect fill="#E2E2F0" height="36" rx="2.5" ry="2.5" style="stroke:#181818;stroke-width:0.5;" width="108" x="487.5" y="1118.0002"/><ellipse cx="505.5" cy="1136.0002" fill="#D3D3D3" rx="11" ry="11" style="stroke:#181818;stroke-width:1.0;"/><path d="M500.5,1137.1564 C500.5,1139.6564 502.6406,1141.4689 505.5625,1141.4689 C506.7969,1141.4689 507.9688,1141.1721 508.7188,1140.6564 C509.3281,1140.2346 509.6563,1139.8127 509.6563,1139.4064 C509.6563,1138.9377 509.2344,1138.5314 508.7344,1138.5314 C508.5,1138.5314 508.2813,1138.6096 508.0781,1138.8127 C507.6406,1139.2502 507.6406,1139.2502 507.4688,1139.3439 C507.0156,1139.5783 506.375,1139.7189 505.6094,1139.7189 C503.6094,1139.7189 502.3281,1138.7033 502.3281,1137.1252 L502.3281,1136.0783 C502.3281,1134.3752 503.5469,1133.1721 505.25,1133.1721 C505.8281,1133.1721 506.4063,1133.3127 506.875,1133.5627 C507.3438,1133.8283 507.5156,1134.0158 507.5781,1134.3752 C507.7031,1135.0471 507.9531,1135.2971 508.4844,1135.2971 C508.7656,1135.2971 509.0469,1135.1564 509.2344,1134.9377 C509.3594,1134.7658 509.4063,1134.5939 509.4063,1134.1564 L509.4063,1132.7971 C509.4063,1132.3752 509.3906,1132.2346 509.2656,1132.0627 C509.0938,1131.8127 508.8125,1131.6564 508.4844,1131.6564 C508.1719,1131.6564 507.9688,1131.7658 507.75,1132.0314 C506.5781,1131.5314 506.1406,1131.4221 505.1875,1131.4221 C502.5156,1131.4221 500.5,1133.4377 500.5,1136.0627 L500.5,1137.1564 Z " fill="#000000"/><text fill="#000000" font-family="sans-serif" font-size="14" lengthAdjust="spacing" textLength="66" x="522.5" y="1138.0061">CourtCard</text><rect fill="#E2E2F0" height="36" rx="2.5" ry="2.5" style="stroke:#181818;stroke-width:0.5;" width="200" x="605.5" y="82.5999"/><ellipse cx="623.5" cy="100.5999" fill="#D3D3D3" rx="11" ry="11" style="stroke:#181818;stroke-width:1.0;"/><path d="M618.5,101.7561 C618.5,104.2561 620.6406,106.0686 623.5625,106.0686 C624.7969,106.0686 625.9688,105.7717 626.7188,105.2561 C627.3281,104.8342 627.6563,104.4124 627.6563,104.0061 C627.6563,103.5374 627.2344,103.1311 626.7344,103.1311 C626.5,103.1311 626.2813,103.2092 626.0781,103.4124 C625.6406,103.8499 625.6406,103.8499 625.4688,103.9436 C625.0156,104.178 624.375,104.3186 623.6094,104.3186 C621.6094,104.3186 620.3281,103.303 620.3281,101.7249 L620.3281,100.678 C620.3281,98.9749 621.5469,97.7717 623.25,97.7717 C623.8281,97.7717 624.4063,97.9124 624.875,98.1624 C625.3438,98.428 625.5156,98.6155 625.5781,98.9749 C625.7031,99.6467 625.9531,99.8967 626.4844,99.8967 C626.7656,99.8967 627.0469,99.7561 627.2344,99.5374 C627.3594,99.3655 627.4063,99.1936 627.4063,98.7561 L627.4063,97.3967 C627.4063,96.9749 627.3906,96.8342 627.2656,96.6624 C627.0938,96.4124 626.8125,96.2561 626.4844,96.2561 C626.1719,96.2561 625.9688,96.3655 625.75,96.6311 C624.5781,96.1311 624.1406,96.0217 623.1875,96.0217 C620.5156,96.0217 618.5,98.0374 618.5,100.6624 L618.5,101.7561 Z " fill="#000000"/><text fill="#000000" font-family="sans-serif" font-size="14" lengthAdjust="spacing" textLength="158" x="640.5" y="102.6058">CourtReservationsDialog</text><rect fill="#E2E2F0" height="36" rx="2.5" ry="2.5" style="stroke:#181818;stroke-width:0.5;" width="200" x="605.5" y="1118.0002"/><ellipse cx="623.5" cy="1136.0002" fill="#D3D3D3" rx="11" ry="11" style="stroke:#181818;stroke-width:1.0;"/><path d="M618.5,1137.1564 C618.5,1139.6564 620.6406,1141.4689 623.5625,1141.4689 C624.7969,1141.4689 625.9688,1141.1721 626.7188,1140.6564 C627.3281,1140.2346 627.6563,1139.8127 627.6563,1139.4064 C627.6563,1138.9377 627.2344,1138.5314 626.7344,1138.5314 C626.5,1138.5314 626.2813,1138.6096 626.0781,1138.8127 C625.6406,1139.2502 625.6406,1139.2502 625.4688,1139.3439 C625.0156,1139.5783 624.375,1139.7189 623.6094,1139.7189 C621.6094,1139.7189 620.3281,1138.7033 620.3281,1137.1252 L620.3281,1136.0783 C620.3281,1134.3752 621.5469,1133.1721 623.25,1133.1721 C623.8281,1133.1721 624.4063,1133.3127 624.875,1133.5627 C625.3438,1133.8283 625.5156,1134.0158 625.5781,1134.3752 C625.7031,1135.0471 625.9531,1135.2971 626.4844,1135.2971 C626.7656,1135.2971 627.0469,1135.1564 627.2344,1134.9377 C627.3594,1134.7658 627.4063,1134.5939 627.4063,1134.1564 L627.4063,1132.7971 C627.4063,1132.3752 627.3906,1132.2346 627.2656,1132.0627 C627.0938,1131.8127 626.8125,1131.6564 626.4844,1131.6564 C626.1719,1131.6564 625.9688,1131.7658 625.75,1132.0314 C624.5781,1131.5314 624.1406,1131.4221 623.1875,1131.4221 C620.5156,1131.4221 618.5,1133.4377 618.5,1136.0627 L618.5,1137.1564 Z " fill="#000000"/><text fill="#000000" font-family="sans-serif" font-size="14" lengthAdjust="spacing" textLength="158" x="640.5" y="1138.0061">CourtReservationsDialog</text><rect fill="#E2E2F0" height="36" rx="2.5" ry="2.5" style="stroke:#181818;stroke-width:0.5;" width="154" x="876.5" y="82.5999"/><ellipse cx="894.5" cy="100.5999" fill="#D3D3D3" rx="11" ry="11" style="stroke:#181818;stroke-width:1.0;"/><path d="M889.5,101.7561 C889.5,104.2561 891.6406,106.0686 894.5625,106.0686 C895.7969,106.0686 896.9688,105.7717 897.7188,105.2561 C898.3281,104.8342 898.6563,104.4124 898.6563,104.0061 C898.6563,103.5374 898.2344,103.1311 897.7344,103.1311 C897.5,103.1311 897.2813,103.2092 897.0781,103.4124 C896.6406,103.8499 896.6406,103.8499 896.4688,103.9436 C896.0156,104.178 895.375,104.3186 894.6094,104.3186 C892.6094,104.3186 891.3281,103.303 891.3281,101.7249 L891.3281,100.678 C891.3281,98.9749 892.5469,97.7717 894.25,97.7717 C894.8281,97.7717 895.4063,97.9124 895.875,98.1624 C896.3438,98.428 896.5156,98.6155 896.5781,98.9749 C896.7031,99.6467 896.9531,99.8967 897.4844,99.8967 C897.7656,99.8967 898.0469,99.7561 898.2344,99.5374 C898.3594,99.3655 898.4063,99.1936 898.4063,98.7561 L898.4063,97.3967 C898.4063,96.9749 898.3906,96.8342 898.2656,96.6624 C898.0938,96.4124 897.8125,96.2561 897.4844,96.2561 C897.1719,96.2561 896.9688,96.3655 896.75,96.6311 C895.5781,96.1311 895.1406,96.0217 894.1875,96.0217 C891.5156,96.0217 889.5,98.0374 889.5,100.6624 L889.5,101.7561 Z " fill="#000000"/><text fill="#000000" font-family="sans-serif" font-size="14" lengthAdjust="spacing" textLength="112" x="911.5" y="102.6058">Input (Date Filter)</text><rect fill="#E2E2F0" height="36" rx="2.5" ry="2.5" style="stroke:#181818;stroke-width:0.5;" width="154" x="876.5" y="1118.0002"/><ellipse cx="894.5" cy="1136.0002" fill="#D3D3D3" rx="11" ry="11" style="stroke:#181818;stroke-width:1.0;"/><path d="M889.5,1137.1564 C889.5,1139.6564 891.6406,1141.4689 894.5625,1141.4689 C895.7969,1141.4689 896.9688,1141.1721 897.7188,1140.6564 C898.3281,1140.2346 898.6563,1139.8127 898.6563,1139.4064 C898.6563,1138.9377 898.2344,1138.5314 897.7344,1138.5314 C897.5,1138.5314 897.2813,1138.6096 897.0781,1138.8127 C896.6406,1139.2502 896.6406,1139.2502 896.4688,1139.3439 C896.0156,1139.5783 895.375,1139.7189 894.6094,1139.7189 C892.6094,1139.7189 891.3281,1138.7033 891.3281,1137.1252 L891.3281,1136.0783 C891.3281,1134.3752 892.5469,1133.1721 894.25,1133.1721 C894.8281,1133.1721 895.4063,1133.3127 895.875,1133.5627 C896.3438,1133.8283 896.5156,1134.0158 896.5781,1134.3752 C896.7031,1135.0471 896.9531,1135.2971 897.4844,1135.2971 C897.7656,1135.2971 898.0469,1135.1564 898.2344,1134.9377 C898.3594,1134.7658 898.4063,1134.5939 898.4063,1134.1564 L898.4063,1132.7971 C898.4063,1132.3752 898.3906,1132.2346 898.2656,1132.0627 C898.0938,1131.8127 897.8125,1131.6564 897.4844,1131.6564 C897.1719,1131.6564 896.9688,1131.7658 896.75,1132.0314 C895.5781,1131.5314 895.1406,1131.4221 894.1875,1131.4221 C891.5156,1131.4221 889.5,1133.4377 889.5,1136.0627 L889.5,1137.1564 Z " fill="#000000"/><text fill="#000000" font-family="sans-serif" font-size="14" lengthAdjust="spacing" textLength="112" x="911.5" y="1138.0061">Input (Date Filter)</text><rect fill="#E2E2F0" height="47.5999" rx="2.5" ry="2.5" style="stroke:#181818;stroke-width:0.5;" width="212" x="1040.5" y="71"/><ellipse cx="1058.5" cy="89" fill="#FFFF00" rx="11" ry="11" style="stroke:#181818;stroke-width:1.0;"/><path d="M1057.3594,90.0625 L1058.6719,90.0625 L1058.6719,90.1094 C1058.6719,90.5 1058.7031,90.6875 1058.7969,90.8438 C1058.9688,91.0938 1059.2656,91.2656 1059.5781,91.2656 C1059.8594,91.2656 1060.1406,91.125 1060.3281,90.9063 C1060.4531,90.7188 1060.5,90.5625 1060.5,90.1094 L1060.5,88.2813 C1060.5,87.8594 1060.4844,87.7344 1060.3594,87.5625 C1060.2031,87.2969 1059.9063,87.125 1059.5781,87.125 C1059.2813,87.125 1059.0156,87.2656 1058.8438,87.4844 C1058.7031,87.6719 1058.6719,87.8438 1058.6719,88.2813 L1058.6719,88.3281 L1057.3594,88.3281 L1057.3594,86.1563 L1061.5781,86.1563 L1061.5781,86.9219 C1061.5781,87.3125 1061.6094,87.4844 1061.7188,87.6406 C1061.8906,87.9063 1062.1719,88.0625 1062.5,88.0625 C1062.7813,88.0625 1063.0625,87.9375 1063.25,87.7031 C1063.3906,87.5156 1063.4219,87.375 1063.4219,86.9219 L1063.4219,84.4063 L1055.3438,84.4063 C1054.9063,84.4063 1054.7656,84.4219 1054.5938,84.5313 C1054.3281,84.7031 1054.1563,84.9844 1054.1563,85.2813 C1054.1563,85.5625 1054.3125,85.8438 1054.5313,86 C1054.7188,86.125 1054.9063,86.1563 1055.3438,86.1563 L1055.5313,86.1563 L1055.5313,92.25 L1055.3438,92.25 C1054.9219,92.25 1054.7656,92.2813 1054.5938,92.375 C1054.3281,92.5313 1054.1563,92.8281 1054.1563,93.1094 C1054.1563,93.6875 1054.5625,94 1055.3438,94 L1059,94 C1059.7813,94 1060.1875,93.7188 1060.1875,93.1094 C1060.1875,92.8438 1060.0469,92.5938 1059.8125,92.4219 C1059.625,92.2813 1059.4531,92.25 1059,92.25 L1057.3594,92.25 L1057.3594,90.0625 Z " fill="#000000"/><text fill="#000000" font-family="sans-serif" font-size="14" lengthAdjust="spacing" textLength="109" x="1106" y="91.0059">court_backend.ts</text><text fill="#000000" font-family="sans-serif" font-size="14" lengthAdjust="spacing" textLength="170" x="1075.5" y="107.8059">getReservationsForCourt()</text><rect fill="#E2E2F0" height="47.5999" rx="2.5" ry="2.5" style="stroke:#181818;stroke-width:0.5;" width="212" x="1040.5" y="1118.0002"/><ellipse cx="1058.5" cy="1136.0002" fill="#FFFF00" rx="11" ry="11" style="stroke:#181818;stroke-width:1.0;"/><path d="M1057.3594,1137.0627 L1058.6719,1137.0627 L1058.6719,1137.1096 C1058.6719,1137.5002 1058.7031,1137.6877 1058.7969,1137.8439 C1058.9688,1138.0939 1059.2656,1138.2658 1059.5781,1138.2658 C1059.8594,1138.2658 1060.1406,1138.1252 1060.3281,1137.9064 C1060.4531,1137.7189 1060.5,1137.5627 1060.5,1137.1096 L1060.5,1135.2814 C1060.5,1134.8596 1060.4844,1134.7346 1060.3594,1134.5627 C1060.2031,1134.2971 1059.9063,1134.1252 1059.5781,1134.1252 C1059.2813,1134.1252 1059.0156,1134.2658 1058.8438,1134.4846 C1058.7031,1134.6721 1058.6719,1134.8439 1058.6719,1135.2814 L1058.6719,1135.3283 L1057.3594,1135.3283 L1057.3594,1133.1564 L1061.5781,1133.1564 L1061.5781,1133.9221 C1061.5781,1134.3127 1061.6094,1134.4846 1061.7188,1134.6408 C1061.8906,1134.9064 1062.1719,1135.0627 1062.5,1135.0627 C1062.7813,1135.0627 1063.0625,1134.9377 1063.25,1134.7033 C1063.3906,1134.5158 1063.4219,1134.3752 1063.4219,1133.9221 L1063.4219,1131.4064 L1055.3438,1131.4064 C1054.9063,1131.4064 1054.7656,1131.4221 1054.5938,1131.5314 C1054.3281,1131.7033 1054.1563,1131.9846 1054.1563,1132.2814 C1054.1563,1132.5627 1054.3125,1132.8439 1054.5313,1133.0002 C1054.7188,1133.1252 1054.9063,1133.1564 1055.3438,1133.1564 L1055.5313,1133.1564 L1055.5313,1139.2502 L1055.3438,1139.2502 C1054.9219,1139.2502 1054.7656,1139.2814 1054.5938,1139.3752 C1054.3281,1139.5314 1054.1563,1139.8283 1054.1563,1140.1096 C1054.1563,1140.6877 1054.5625,1141.0002 1055.3438,1141.0002 L1059,1141.0002 C1059.7813,1141.0002 1060.1875,1140.7189 1060.1875,1140.1096 C1060.1875,1139.8439 1060.0469,1139.5939 1059.8125,1139.4221 C1059.625,1139.2814 1059.4531,1139.2502 1059,1139.2502 L1057.3594,1139.2502 L1057.3594,1137.0627 Z " fill="#000000"/><text fill="#000000" font-family="sans-serif" font-size="14" lengthAdjust="spacing" textLength="109" x="1106" y="1138.0061">court_backend.ts</text><text fill="#000000" font-family="sans-serif" font-size="14" lengthAdjust="spacing" textLength="170" x="1075.5" y="1154.8061">getReservationsForCourt()</text><rect fill="#E2E2F0" height="47.5999" rx="2.5" ry="2.5" style="stroke:#181818;stroke-width:0.5;" width="208" x="1306.5" y="71"/><ellipse cx="1324.5" cy="89" fill="#90EE90" rx="11" ry="11" style="stroke:#181818;stroke-width:1.0;"/><path d="M1323.3594,90.0625 L1324.6719,90.0625 L1324.6719,90.1094 C1324.6719,90.5 1324.7031,90.6875 1324.7969,90.8438 C1324.9688,91.0938 1325.2656,91.2656 1325.5781,91.2656 C1325.8594,91.2656 1326.1406,91.125 1326.3281,90.9063 C1326.4531,90.7188 1326.5,90.5625 1326.5,90.1094 L1326.5,88.2813 C1326.5,87.8594 1326.4844,87.7344 1326.3594,87.5625 C1326.2031,87.2969 1325.9063,87.125 1325.5781,87.125 C1325.2813,87.125 1325.0156,87.2656 1324.8438,87.4844 C1324.7031,87.6719 1324.6719,87.8438 1324.6719,88.2813 L1324.6719,88.3281 L1323.3594,88.3281 L1323.3594,86.1563 L1327.5781,86.1563 L1327.5781,86.9219 C1327.5781,87.3125 1327.6094,87.4844 1327.7188,87.6406 C1327.8906,87.9063 1328.1719,88.0625 1328.5,88.0625 C1328.7813,88.0625 1329.0625,87.9375 1329.25,87.7031 C1329.3906,87.5156 1329.4219,87.375 1329.4219,86.9219 L1329.4219,84.4063 L1321.3438,84.4063 C1320.9063,84.4063 1320.7656,84.4219 1320.5938,84.5313 C1320.3281,84.7031 1320.1563,84.9844 1320.1563,85.2813 C1320.1563,85.5625 1320.3125,85.8438 1320.5313,86 C1320.7188,86.125 1320.9063,86.1563 1321.3438,86.1563 L1321.5313,86.1563 L1321.5313,92.25 L1321.3438,92.25 C1320.9219,92.25 1320.7656,92.2813 1320.5938,92.375 C1320.3281,92.5313 1320.1563,92.8281 1320.1563,93.1094 C1320.1563,93.6875 1320.5625,94 1321.3438,94 L1325,94 C1325.7813,94 1326.1875,93.7188 1326.1875,93.1094 C1326.1875,92.8438 1326.0469,92.5938 1325.8125,92.4219 C1325.625,92.2813 1325.4531,92.25 1325,92.25 L1323.3594,92.25 L1323.3594,90.0625 Z " fill="#000000"/><text fill="#000000" font-family="sans-serif" font-size="14" lengthAdjust="spacing" textLength="40" x="1404.5" y="91.0059">utils.ts</text><text fill="#000000" font-family="sans-serif" font-size="14" lengthAdjust="spacing" textLength="166" x="1341.5" y="107.8059">convertLocalToUtcString()</text><rect fill="#E2E2F0" height="47.5999" rx="2.5" ry="2.5" style="stroke:#181818;stroke-width:0.5;" width="208" x="1306.5" y="1118.0002"/><ellipse cx="1324.5" cy="1136.0002" fill="#90EE90" rx="11" ry="11" style="stroke:#181818;stroke-width:1.0;"/><path d="M1323.3594,1137.0627 L1324.6719,1137.0627 L1324.6719,1137.1096 C1324.6719,1137.5002 1324.7031,1137.6877 1324.7969,1137.8439 C1324.9688,1138.0939 1325.2656,1138.2658 1325.5781,1138.2658 C1325.8594,1138.2658 1326.1406,1138.1252 1326.3281,1137.9064 C1326.4531,1137.7189 1326.5,1137.5627 1326.5,1137.1096 L1326.5,1135.2814 C1326.5,1134.8596 1326.4844,1134.7346 1326.3594,1134.5627 C1326.2031,1134.2971 1325.9063,1134.1252 1325.5781,1134.1252 C1325.2813,1134.1252 1325.0156,1134.2658 1324.8438,1134.4846 C1324.7031,1134.6721 1324.6719,1134.8439 1324.6719,1135.2814 L1324.6719,1135.3283 L1323.3594,1135.3283 L1323.3594,1133.1564 L1327.5781,1133.1564 L1327.5781,1133.9221 C1327.5781,1134.3127 1327.6094,1134.4846 1327.7188,1134.6408 C1327.8906,1134.9064 1328.1719,1135.0627 1328.5,1135.0627 C1328.7813,1135.0627 1329.0625,1134.9377 1329.25,1134.7033 C1329.3906,1134.5158 1329.4219,1134.3752 1329.4219,1133.9221 L1329.4219,1131.4064 L1321.3438,1131.4064 C1320.9063,1131.4064 1320.7656,1131.4221 1320.5938,1131.5314 C1320.3281,1131.7033 1320.1563,1131.9846 1320.1563,1132.2814 C1320.1563,1132.5627 1320.3125,1132.8439 1320.5313,1133.0002 C1320.7188,1133.1252 1320.9063,1133.1564 1321.3438,1133.1564 L1321.5313,1133.1564 L1321.5313,1139.2502 L1321.3438,1139.2502 C1320.9219,1139.2502 1320.7656,1139.2814 1320.5938,1139.3752 C1320.3281,1139.5314 1320.1563,1139.8283 1320.1563,1140.1096 C1320.1563,1140.6877 1320.5625,1141.0002 1321.3438,1141.0002 L1325,1141.0002 C1325.7813,1141.0002 1326.1875,1140.7189 1326.1875,1140.1096 C1326.1875,1139.8439 1326.0469,1139.5939 1325.8125,1139.4221 C1325.625,1139.2814 1325.4531,1139.2502 1325,1139.2502 L1323.3594,1139.2502 L1323.3594,1137.0627 Z " fill="#000000"/><text fill="#000000" font-family="sans-serif" font-size="14" lengthAdjust="spacing" textLength="40" x="1404.5" y="1138.0061">utils.ts</text><text fill="#000000" font-family="sans-serif" font-size="14" lengthAdjust="spacing" textLength="166" x="1341.5" y="1154.8061">convertLocalToUtcString()</text><rect fill="#E2E2F0" height="47.5999" rx="2.5" ry="2.5" style="stroke:#181818;stroke-width:0.5;" width="167" x="1524.5" y="71"/><ellipse cx="1542.5" cy="89" fill="#90EE90" rx="11" ry="11" style="stroke:#181818;stroke-width:1.0;"/><path d="M1541.3594,90.0625 L1542.6719,90.0625 L1542.6719,90.1094 C1542.6719,90.5 1542.7031,90.6875 1542.7969,90.8438 C1542.9688,91.0938 1543.2656,91.2656 1543.5781,91.2656 C1543.8594,91.2656 1544.1406,91.125 1544.3281,90.9063 C1544.4531,90.7188 1544.5,90.5625 1544.5,90.1094 L1544.5,88.2813 C1544.5,87.8594 1544.4844,87.7344 1544.3594,87.5625 C1544.2031,87.2969 1543.9063,87.125 1543.5781,87.125 C1543.2813,87.125 1543.0156,87.2656 1542.8438,87.4844 C1542.7031,87.6719 1542.6719,87.8438 1542.6719,88.2813 L1542.6719,88.3281 L1541.3594,88.3281 L1541.3594,86.1563 L1545.5781,86.1563 L1545.5781,86.9219 C1545.5781,87.3125 1545.6094,87.4844 1545.7188,87.6406 C1545.8906,87.9063 1546.1719,88.0625 1546.5,88.0625 C1546.7813,88.0625 1547.0625,87.9375 1547.25,87.7031 C1547.3906,87.5156 1547.4219,87.375 1547.4219,86.9219 L1547.4219,84.4063 L1539.3438,84.4063 C1538.9063,84.4063 1538.7656,84.4219 1538.5938,84.5313 C1538.3281,84.7031 1538.1563,84.9844 1538.1563,85.2813 C1538.1563,85.5625 1538.3125,85.8438 1538.5313,86 C1538.7188,86.125 1538.9063,86.1563 1539.3438,86.1563 L1539.5313,86.1563 L1539.5313,92.25 L1539.3438,92.25 C1538.9219,92.25 1538.7656,92.2813 1538.5938,92.375 C1538.3281,92.5313 1538.1563,92.8281 1538.1563,93.1094 C1538.1563,93.6875 1538.5625,94 1539.3438,94 L1543,94 C1543.7813,94 1544.1875,93.7188 1544.1875,93.1094 C1544.1875,92.8438 1544.0469,92.5938 1543.8125,92.4219 C1543.625,92.2813 1543.4531,92.25 1543,92.25 L1541.3594,92.25 L1541.3594,90.0625 Z " fill="#000000"/><text fill="#000000" font-family="sans-serif" font-size="14" lengthAdjust="spacing" textLength="40" x="1602" y="91.0059">utils.ts</text><text fill="#000000" font-family="sans-serif" font-size="14" lengthAdjust="spacing" textLength="125" x="1559.5" y="107.8059">displayUtcAsLocal()</text><rect fill="#E2E2F0" height="47.5999" rx="2.5" ry="2.5" style="stroke:#181818;stroke-width:0.5;" width="167" x="1524.5" y="1118.0002"/><ellipse cx="1542.5" cy="1136.0002" fill="#90EE90" rx="11" ry="11" style="stroke:#181818;stroke-width:1.0;"/><path d="M1541.3594,1137.0627 L1542.6719,1137.0627 L1542.6719,1137.1096 C1542.6719,1137.5002 1542.7031,1137.6877 1542.7969,1137.8439 C1542.9688,1138.0939 1543.2656,1138.2658 1543.5781,1138.2658 C1543.8594,1138.2658 1544.1406,1138.1252 1544.3281,1137.9064 C1544.4531,1137.7189 1544.5,1137.5627 1544.5,1137.1096 L1544.5,1135.2814 C1544.5,1134.8596 1544.4844,1134.7346 1544.3594,1134.5627 C1544.2031,1134.2971 1543.9063,1134.1252 1543.5781,1134.1252 C1543.2813,1134.1252 1543.0156,1134.2658 1542.8438,1134.4846 C1542.7031,1134.6721 1542.6719,1134.8439 1542.6719,1135.2814 L1542.6719,1135.3283 L1541.3594,1135.3283 L1541.3594,1133.1564 L1545.5781,1133.1564 L1545.5781,1133.9221 C1545.5781,1134.3127 1545.6094,1134.4846 1545.7188,1134.6408 C1545.8906,1134.9064 1546.1719,1135.0627 1546.5,1135.0627 C1546.7813,1135.0627 1547.0625,1134.9377 1547.25,1134.7033 C1547.3906,1134.5158 1547.4219,1134.3752 1547.4219,1133.9221 L1547.4219,1131.4064 L1539.3438,1131.4064 C1538.9063,1131.4064 1538.7656,1131.4221 1538.5938,1131.5314 C1538.3281,1131.7033 1538.1563,1131.9846 1538.1563,1132.2814 C1538.1563,1132.5627 1538.3125,1132.8439 1538.5313,1133.0002 C1538.7188,1133.1252 1538.9063,1133.1564 1539.3438,1133.1564 L1539.5313,1133.1564 L1539.5313,1139.2502 L1539.3438,1139.2502 C1538.9219,1139.2502 1538.7656,1139.2814 1538.5938,1139.3752 C1538.3281,1139.5314 1538.1563,1139.8283 1538.1563,1140.1096 C1538.1563,1140.6877 1538.5625,1141.0002 1539.3438,1141.0002 L1543,1141.0002 C1543.7813,1141.0002 1544.1875,1140.7189 1544.1875,1140.1096 C1544.1875,1139.8439 1544.0469,1139.5939 1543.8125,1139.4221 C1543.625,1139.2814 1543.4531,1139.2502 1543,1139.2502 L1541.3594,1139.2502 L1541.3594,1137.0627 Z " fill="#000000"/><text fill="#000000" font-family="sans-serif" font-size="14" lengthAdjust="spacing" textLength="40" x="1602" y="1138.0061">utils.ts</text><text fill="#000000" font-family="sans-serif" font-size="14" lengthAdjust="spacing" textLength="125" x="1559.5" y="1154.8061">displayUtcAsLocal()</text><rect fill="#E2E2F0" height="47.5999" rx="2.5" ry="2.5" style="stroke:#181818;stroke-width:0.5;" width="113" x="1701.5" y="71"/><ellipse cx="1719.5" cy="89" fill="#FFA500" rx="11" ry="11" style="stroke:#181818;stroke-width:1.0;"/><path d="M1718.3594,90.0625 L1719.6719,90.0625 L1719.6719,90.1094 C1719.6719,90.5 1719.7031,90.6875 1719.7969,90.8438 C1719.9688,91.0938 1720.2656,91.2656 1720.5781,91.2656 C1720.8594,91.2656 1721.1406,91.125 1721.3281,90.9063 C1721.4531,90.7188 1721.5,90.5625 1721.5,90.1094 L1721.5,88.2813 C1721.5,87.8594 1721.4844,87.7344 1721.3594,87.5625 C1721.2031,87.2969 1720.9063,87.125 1720.5781,87.125 C1720.2813,87.125 1720.0156,87.2656 1719.8438,87.4844 C1719.7031,87.6719 1719.6719,87.8438 1719.6719,88.2813 L1719.6719,88.3281 L1718.3594,88.3281 L1718.3594,86.1563 L1722.5781,86.1563 L1722.5781,86.9219 C1722.5781,87.3125 1722.6094,87.4844 1722.7188,87.6406 C1722.8906,87.9063 1723.1719,88.0625 1723.5,88.0625 C1723.7813,88.0625 1724.0625,87.9375 1724.25,87.7031 C1724.3906,87.5156 1724.4219,87.375 1724.4219,86.9219 L1724.4219,84.4063 L1716.3438,84.4063 C1715.9063,84.4063 1715.7656,84.4219 1715.5938,84.5313 C1715.3281,84.7031 1715.1563,84.9844 1715.1563,85.2813 C1715.1563,85.5625 1715.3125,85.8438 1715.5313,86 C1715.7188,86.125 1715.9063,86.1563 1716.3438,86.1563 L1716.5313,86.1563 L1716.5313,92.25 L1716.3438,92.25 C1715.9219,92.25 1715.7656,92.2813 1715.5938,92.375 C1715.3281,92.5313 1715.1563,92.8281 1715.1563,93.1094 C1715.1563,93.6875 1715.5625,94 1716.3438,94 L1720,94 C1720.7813,94 1721.1875,93.7188 1721.1875,93.1094 C1721.1875,92.8438 1721.0469,92.5938 1720.8125,92.4219 C1720.625,92.2813 1720.4531,92.25 1720,92.25 L1718.3594,92.25 L1718.3594,90.0625 Z " fill="#000000"/><text fill="#000000" font-family="sans-serif" font-size="14" lengthAdjust="spacing" textLength="40" x="1752" y="91.0059">utils.ts</text><text fill="#000000" font-family="sans-serif" font-size="14" lengthAdjust="spacing" textLength="71" x="1736.5" y="107.8059">fetchJson()</text><rect fill="#E2E2F0" height="47.5999" rx="2.5" ry="2.5" style="stroke:#181818;stroke-width:0.5;" width="113" x="1701.5" y="1118.0002"/><ellipse cx="1719.5" cy="1136.0002" fill="#FFA500" rx="11" ry="11" style="stroke:#181818;stroke-width:1.0;"/><path d="M1718.3594,1137.0627 L1719.6719,1137.0627 L1719.6719,1137.1096 C1719.6719,1137.5002 1719.7031,1137.6877 1719.7969,1137.8439 C1719.9688,1138.0939 1720.2656,1138.2658 1720.5781,1138.2658 C1720.8594,1138.2658 1721.1406,1138.1252 1721.3281,1137.9064 C1721.4531,1137.7189 1721.5,1137.5627 1721.5,1137.1096 L1721.5,1135.2814 C1721.5,1134.8596 1721.4844,1134.7346 1721.3594,1134.5627 C1721.2031,1134.2971 1720.9063,1134.1252 1720.5781,1134.1252 C1720.2813,1134.1252 1720.0156,1134.2658 1719.8438,1134.4846 C1719.7031,1134.6721 1719.6719,1134.8439 1719.6719,1135.2814 L1719.6719,1135.3283 L1718.3594,1135.3283 L1718.3594,1133.1564 L1722.5781,1133.1564 L1722.5781,1133.9221 C1722.5781,1134.3127 1722.6094,1134.4846 1722.7188,1134.6408 C1722.8906,1134.9064 1723.1719,1135.0627 1723.5,1135.0627 C1723.7813,1135.0627 1724.0625,1134.9377 1724.25,1134.7033 C1724.3906,1134.5158 1724.4219,1134.3752 1724.4219,1133.9221 L1724.4219,1131.4064 L1716.3438,1131.4064 C1715.9063,1131.4064 1715.7656,1131.4221 1715.5938,1131.5314 C1715.3281,1131.7033 1715.1563,1131.9846 1715.1563,1132.2814 C1715.1563,1132.5627 1715.3125,1132.8439 1715.5313,1133.0002 C1715.7188,1133.1252 1715.9063,1133.1564 1716.3438,1133.1564 L1716.5313,1133.1564 L1716.5313,1139.2502 L1716.3438,1139.2502 C1715.9219,1139.2502 1715.7656,1139.2814 1715.5938,1139.3752 C1715.3281,1139.5314 1715.1563,1139.8283 1715.1563,1140.1096 C1715.1563,1140.6877 1715.5625,1141.0002 1716.3438,1141.0002 L1720,1141.0002 C1720.7813,1141.0002 1721.1875,1140.7189 1721.1875,1140.1096 C1721.1875,1139.8439 1721.0469,1139.5939 1720.8125,1139.4221 C1720.625,1139.2814 1720.4531,1139.2502 1720,1139.2502 L1718.3594,1139.2502 L1718.3594,1137.0627 Z " fill="#000000"/><text fill="#000000" font-family="sans-serif" font-size="14" lengthAdjust="spacing" textLength="40" x="1752" y="1138.0061">utils.ts</text><text fill="#000000" font-family="sans-serif" font-size="14" lengthAdjust="spacing" textLength="71" x="1736.5" y="1154.8061">fetchJson()</text><rect fill="#E2E2F0" height="36" rx="2.5" ry="2.5" style="stroke:#181818;stroke-width:0.5;" width="128" x="1840" y="82.5999"/><ellipse cx="1858" cy="100.5999" fill="#ADD8E6" rx="11" ry="11" style="stroke:#181818;stroke-width:1.0;"/><path d="M1861.8594,96.9124 C1861.8594,96.4749 1861.8438,96.3499 1861.7344,96.178 C1861.5781,95.928 1861.2813,95.7717 1860.9531,95.7717 C1860.6094,95.7717 1860.4219,95.9124 1860.2656,96.2874 C1859.7031,95.9592 1858.9375,95.7717 1858.0625,95.7717 C1855.9219,95.7717 1854.3281,97.0374 1854.3281,98.6936 C1854.3281,99.6467 1854.875,100.5374 1855.75,101.0061 C1856.3125,101.3186 1856.8438,101.4749 1857.9844,101.6624 C1859.1094,101.8655 1859.375,101.928 1859.75,102.0999 C1860.0938,102.2717 1860.3125,102.5686 1860.3125,102.8811 C1860.3125,103.5374 1859.3594,104.053 1858.1406,104.053 C1857.0469,104.053 1855.9844,103.5999 1855.8281,103.053 C1855.6875,102.6155 1855.6875,102.6155 1855.5625,102.4749 C1855.3906,102.3186 1855.1563,102.2405 1854.9063,102.2405 C1854.6094,102.2405 1854.3438,102.3655 1854.1563,102.5842 C1854.0313,102.7561 1853.9844,102.9436 1853.9844,103.3655 L1853.9844,104.4436 C1853.9844,105.2092 1854.2969,105.5842 1854.9063,105.5842 C1855.1875,105.5842 1855.3438,105.4905 1855.625,105.2092 C1856.4844,105.6311 1857.3281,105.8186 1858.25,105.8186 C1860.6094,105.8186 1862.2188,104.6467 1862.2188,102.9124 C1862.2188,102.053 1861.875,101.3655 1861.1875,100.8342 C1860.6563,100.428 1859.9844,100.1936 1858.4844,99.9436 C1857.2031,99.6936 1857.1406,99.678 1856.8125,99.5061 C1856.4688,99.3655 1856.2344,99.0061 1856.2344,98.678 C1856.2344,98.0374 1857.0469,97.5217 1858.0781,97.5217 C1859.125,97.5217 1859.8906,97.9436 1860.0313,98.5686 C1860.1563,99.0999 1860.1563,99.0999 1860.2969,99.2405 C1860.4531,99.3967 1860.7031,99.4905 1860.9531,99.4905 C1861.25,99.4905 1861.5,99.3655 1861.6875,99.1467 C1861.8281,98.9592 1861.8594,98.8186 1861.8594,98.3655 L1861.8594,96.9124 Z " fill="#000000"/><text fill="#000000" font-family="sans-serif" font-size="14" lengthAdjust="spacing" textLength="86" x="1875" y="102.6058">AuthManager</text><rect fill="#E2E2F0" height="36" rx="2.5" ry="2.5" style="stroke:#181818;stroke-width:0.5;" width="128" x="1840" y="1118.0002"/><ellipse cx="1858" cy="1136.0002" fill="#ADD8E6" rx="11" ry="11" style="stroke:#181818;stroke-width:1.0;"/><path d="M1861.8594,1132.3127 C1861.8594,1131.8752 1861.8438,1131.7502 1861.7344,1131.5783 C1861.5781,1131.3283 1861.2813,1131.1721 1860.9531,1131.1721 C1860.6094,1131.1721 1860.4219,1131.3127 1860.2656,1131.6877 C1859.7031,1131.3596 1858.9375,1131.1721 1858.0625,1131.1721 C1855.9219,1131.1721 1854.3281,1132.4377 1854.3281,1134.0939 C1854.3281,1135.0471 1854.875,1135.9377 1855.75,1136.4064 C1856.3125,1136.7189 1856.8438,1136.8752 1857.9844,1137.0627 C1859.1094,1137.2658 1859.375,1137.3283 1859.75,1137.5002 C1860.0938,1137.6721 1860.3125,1137.9689 1860.3125,1138.2814 C1860.3125,1138.9377 1859.3594,1139.4533 1858.1406,1139.4533 C1857.0469,1139.4533 1855.9844,1139.0002 1855.8281,1138.4533 C1855.6875,1138.0158 1855.6875,1138.0158 1855.5625,1137.8752 C1855.3906,1137.7189 1855.1563,1137.6408 1854.9063,1137.6408 C1854.6094,1137.6408 1854.3438,1137.7658 1854.1563,1137.9846 C1854.0313,1138.1564 1853.9844,1138.3439 1853.9844,1138.7658 L1853.9844,1139.8439 C1853.9844,1140.6096 1854.2969,1140.9846 1854.9063,1140.9846 C1855.1875,1140.9846 1855.3438,1140.8908 1855.625,1140.6096 C1856.4844,1141.0314 1857.3281,1141.2189 1858.25,1141.2189 C1860.6094,1141.2189 1862.2188,1140.0471 1862.2188,1138.3127 C1862.2188,1137.4533 1861.875,1136.7658 1861.1875,1136.2346 C1860.6563,1135.8283 1859.9844,1135.5939 1858.4844,1135.3439 C1857.2031,1135.0939 1857.1406,1135.0783 1856.8125,1134.9064 C1856.4688,1134.7658 1856.2344,1134.4064 1856.2344,1134.0783 C1856.2344,1133.4377 1857.0469,1132.9221 1858.0781,1132.9221 C1859.125,1132.9221 1859.8906,1133.3439 1860.0313,1133.9689 C1860.1563,1134.5002 1860.1563,1134.5002 1860.2969,1134.6408 C1860.4531,1134.7971 1860.7031,1134.8908 1860.9531,1134.8908 C1861.25,1134.8908 1861.5,1134.7658 1861.6875,1134.5471 C1861.8281,1134.3596 1861.8594,1134.2189 1861.8594,1133.7658 L1861.8594,1132.3127 Z " fill="#000000"/><text fill="#000000" font-family="sans-serif" font-size="14" lengthAdjust="spacing" textLength="86" x="1875" y="1138.0061">AuthManager</text><rect fill="#E2E2F0" height="36" rx="2.5" ry="2.5" style="stroke:#181818;stroke-width:0.5;" width="119" x="2027.5" y="82.5999"/><ellipse cx="2045.5" cy="100.5999" fill="#FF6347" rx="11" ry="11" style="stroke:#181818;stroke-width:1.0;"/><path d="M2049.3594,96.9124 C2049.3594,96.4749 2049.3438,96.3499 2049.2344,96.178 C2049.0781,95.928 2048.7813,95.7717 2048.4531,95.7717 C2048.1094,95.7717 2047.9219,95.9124 2047.7656,96.2874 C2047.2031,95.9592 2046.4375,95.7717 2045.5625,95.7717 C2043.4219,95.7717 2041.8281,97.0374 2041.8281,98.6936 C2041.8281,99.6467 2042.375,100.5374 2043.25,101.0061 C2043.8125,101.3186 2044.3438,101.4749 2045.4844,101.6624 C2046.6094,101.8655 2046.875,101.928 2047.25,102.0999 C2047.5938,102.2717 2047.8125,102.5686 2047.8125,102.8811 C2047.8125,103.5374 2046.8594,104.053 2045.6406,104.053 C2044.5469,104.053 2043.4844,103.5999 2043.3281,103.053 C2043.1875,102.6155 2043.1875,102.6155 2043.0625,102.4749 C2042.8906,102.3186 2042.6563,102.2405 2042.4063,102.2405 C2042.1094,102.2405 2041.8438,102.3655 2041.6563,102.5842 C2041.5313,102.7561 2041.4844,102.9436 2041.4844,103.3655 L2041.4844,104.4436 C2041.4844,105.2092 2041.7969,105.5842 2042.4063,105.5842 C2042.6875,105.5842 2042.8438,105.4905 2043.125,105.2092 C2043.9844,105.6311 2044.8281,105.8186 2045.75,105.8186 C2048.1094,105.8186 2049.7188,104.6467 2049.7188,102.9124 C2049.7188,102.053 2049.375,101.3655 2048.6875,100.8342 C2048.1563,100.428 2047.4844,100.1936 2045.9844,99.9436 C2044.7031,99.6936 2044.6406,99.678 2044.3125,99.5061 C2043.9688,99.3655 2043.7344,99.0061 2043.7344,98.678 C2043.7344,98.0374 2044.5469,97.5217 2045.5781,97.5217 C2046.625,97.5217 2047.3906,97.9436 2047.5313,98.5686 C2047.6563,99.0999 2047.6563,99.0999 2047.7969,99.2405 C2047.9531,99.3967 2048.2031,99.4905 2048.4531,99.4905 C2048.75,99.4905 2049,99.3655 2049.1875,99.1467 C2049.3281,98.9592 2049.3594,98.8186 2049.3594,98.3655 L2049.3594,96.9124 Z " fill="#000000"/><text fill="#000000" font-family="sans-serif" font-size="14" lengthAdjust="spacing" textLength="77" x="2062.5" y="102.6058">BackendAPI</text><rect fill="#E2E2F0" height="36" rx="2.5" ry="2.5" style="stroke:#181818;stroke-width:0.5;" width="119" x="2027.5" y="1118.0002"/><ellipse cx="2045.5" cy="1136.0002" fill="#FF6347" rx="11" ry="11" style="stroke:#181818;stroke-width:1.0;"/><path d="M2049.3594,1132.3127 C2049.3594,1131.8752 2049.3438,1131.7502 2049.2344,1131.5783 C2049.0781,1131.3283 2048.7813,1131.1721 2048.4531,1131.1721 C2048.1094,1131.1721 2047.9219,1131.3127 2047.7656,1131.6877 C2047.2031,1131.3596 2046.4375,1131.1721 2045.5625,1131.1721 C2043.4219,1131.1721 2041.8281,1132.4377 2041.8281,1134.0939 C2041.8281,1135.0471 2042.375,1135.9377 2043.25,1136.4064 C2043.8125,1136.7189 2044.3438,1136.8752 2045.4844,1137.0627 C2046.6094,1137.2658 2046.875,1137.3283 2047.25,1137.5002 C2047.5938,1137.6721 2047.8125,1137.9689 2047.8125,1138.2814 C2047.8125,1138.9377 2046.8594,1139.4533 2045.6406,1139.4533 C2044.5469,1139.4533 2043.4844,1139.0002 2043.3281,1138.4533 C2043.1875,1138.0158 2043.1875,1138.0158 2043.0625,1137.8752 C2042.8906,1137.7189 2042.6563,1137.6408 2042.4063,1137.6408 C2042.1094,1137.6408 2041.8438,1137.7658 2041.6563,1137.9846 C2041.5313,1138.1564 2041.4844,1138.3439 2041.4844,1138.7658 L2041.4844,1139.8439 C2041.4844,1140.6096 2041.7969,1140.9846 2042.4063,1140.9846 C2042.6875,1140.9846 2042.8438,1140.8908 2043.125,1140.6096 C2043.9844,1141.0314 2044.8281,1141.2189 2045.75,1141.2189 C2048.1094,1141.2189 2049.7188,1140.0471 2049.7188,1138.3127 C2049.7188,1137.4533 2049.375,1136.7658 2048.6875,1136.2346 C2048.1563,1135.8283 2047.4844,1135.5939 2045.9844,1135.3439 C2044.7031,1135.0939 2044.6406,1135.0783 2044.3125,1134.9064 C2043.9688,1134.7658 2043.7344,1134.4064 2043.7344,1134.0783 C2043.7344,1133.4377 2044.5469,1132.9221 2045.5781,1132.9221 C2046.625,1132.9221 2047.3906,1133.3439 2047.5313,1133.9689 C2047.6563,1134.5002 2047.6563,1134.5002 2047.7969,1134.6408 C2047.9531,1134.7971 2048.2031,1134.8908 2048.4531,1134.8908 C2048.75,1134.8908 2049,1134.7658 2049.1875,1134.5471 C2049.3281,1134.3596 2049.3594,1134.2189 2049.3594,1133.7658 L2049.3594,1132.3127 Z " fill="#000000"/><text fill="#000000" font-family="sans-serif" font-size="14" lengthAdjust="spacing" textLength="77" x="2062.5" y="1138.0061">BackendAPI</text><rect fill="#E2E2F0" height="36" rx="2.5" ry="2.5" style="stroke:#181818;stroke-width:0.5;" width="117" x="2156.5" y="82.5999"/><ellipse cx="2174.5" cy="100.5999" fill="#808080" rx="11" ry="11" style="stroke:#181818;stroke-width:1.0;"/><path d="M2178.3594,96.9124 C2178.3594,96.4749 2178.3438,96.3499 2178.2344,96.178 C2178.0781,95.928 2177.7813,95.7717 2177.4531,95.7717 C2177.1094,95.7717 2176.9219,95.9124 2176.7656,96.2874 C2176.2031,95.9592 2175.4375,95.7717 2174.5625,95.7717 C2172.4219,95.7717 2170.8281,97.0374 2170.8281,98.6936 C2170.8281,99.6467 2171.375,100.5374 2172.25,101.0061 C2172.8125,101.3186 2173.3438,101.4749 2174.4844,101.6624 C2175.6094,101.8655 2175.875,101.928 2176.25,102.0999 C2176.5938,102.2717 2176.8125,102.5686 2176.8125,102.8811 C2176.8125,103.5374 2175.8594,104.053 2174.6406,104.053 C2173.5469,104.053 2172.4844,103.5999 2172.3281,103.053 C2172.1875,102.6155 2172.1875,102.6155 2172.0625,102.4749 C2171.8906,102.3186 2171.6563,102.2405 2171.4063,102.2405 C2171.1094,102.2405 2170.8438,102.3655 2170.6563,102.5842 C2170.5313,102.7561 2170.4844,102.9436 2170.4844,103.3655 L2170.4844,104.4436 C2170.4844,105.2092 2170.7969,105.5842 2171.4063,105.5842 C2171.6875,105.5842 2171.8438,105.4905 2172.125,105.2092 C2172.9844,105.6311 2173.8281,105.8186 2174.75,105.8186 C2177.1094,105.8186 2178.7188,104.6467 2178.7188,102.9124 C2178.7188,102.053 2178.375,101.3655 2177.6875,100.8342 C2177.1563,100.428 2176.4844,100.1936 2174.9844,99.9436 C2173.7031,99.6936 2173.6406,99.678 2173.3125,99.5061 C2172.9688,99.3655 2172.7344,99.0061 2172.7344,98.678 C2172.7344,98.0374 2173.5469,97.5217 2174.5781,97.5217 C2175.625,97.5217 2176.3906,97.9436 2176.5313,98.5686 C2176.6563,99.0999 2176.6563,99.0999 2176.7969,99.2405 C2176.9531,99.3967 2177.2031,99.4905 2177.4531,99.4905 C2177.75,99.4905 2178,99.3655 2178.1875,99.1467 C2178.3281,98.9592 2178.3594,98.8186 2178.3594,98.3655 L2178.3594,96.9124 Z " fill="#000000"/><text fill="#000000" font-family="sans-serif" font-size="14" lengthAdjust="spacing" textLength="75" x="2191.5" y="102.6058">QueryClient</text><rect fill="#E2E2F0" height="36" rx="2.5" ry="2.5" style="stroke:#181818;stroke-width:0.5;" width="117" x="2156.5" y="1118.0002"/><ellipse cx="2174.5" cy="1136.0002" fill="#808080" rx="11" ry="11" style="stroke:#181818;stroke-width:1.0;"/><path d="M2178.3594,1132.3127 C2178.3594,1131.8752 2178.3438,1131.7502 2178.2344,1131.5783 C2178.0781,1131.3283 2177.7813,1131.1721 2177.4531,1131.1721 C2177.1094,1131.1721 2176.9219,1131.3127 2176.7656,1131.6877 C2176.2031,1131.3596 2175.4375,1131.1721 2174.5625,1131.1721 C2172.4219,1131.1721 2170.8281,1132.4377 2170.8281,1134.0939 C2170.8281,1135.0471 2171.375,1135.9377 2172.25,1136.4064 C2172.8125,1136.7189 2173.3438,1136.8752 2174.4844,1137.0627 C2175.6094,1137.2658 2175.875,1137.3283 2176.25,1137.5002 C2176.5938,1137.6721 2176.8125,1137.9689 2176.8125,1138.2814 C2176.8125,1138.9377 2175.8594,1139.4533 2174.6406,1139.4533 C2173.5469,1139.4533 2172.4844,1139.0002 2172.3281,1138.4533 C2172.1875,1138.0158 2172.1875,1138.0158 2172.0625,1137.8752 C2171.8906,1137.7189 2171.6563,1137.6408 2171.4063,1137.6408 C2171.1094,1137.6408 2170.8438,1137.7658 2170.6563,1137.9846 C2170.5313,1138.1564 2170.4844,1138.3439 2170.4844,1138.7658 L2170.4844,1139.8439 C2170.4844,1140.6096 2170.7969,1140.9846 2171.4063,1140.9846 C2171.6875,1140.9846 2171.8438,1140.8908 2172.125,1140.6096 C2172.9844,1141.0314 2173.8281,1141.2189 2174.75,1141.2189 C2177.1094,1141.2189 2178.7188,1140.0471 2178.7188,1138.3127 C2178.7188,1137.4533 2178.375,1136.7658 2177.6875,1136.2346 C2177.1563,1135.8283 2176.4844,1135.5939 2174.9844,1135.3439 C2173.7031,1135.0939 2173.6406,1135.0783 2173.3125,1134.9064 C2172.9688,1134.7658 2172.7344,1134.4064 2172.7344,1134.0783 C2172.7344,1133.4377 2173.5469,1132.9221 2174.5781,1132.9221 C2175.625,1132.9221 2176.3906,1133.3439 2176.5313,1133.9689 C2176.6563,1134.5002 2176.6563,1134.5002 2176.7969,1134.6408 C2176.9531,1134.7971 2177.2031,1134.8908 2177.4531,1134.8908 C2177.75,1134.8908 2178,1134.7658 2178.1875,1134.5471 C2178.3281,1134.3596 2178.3594,1134.2189 2178.3594,1133.7658 L2178.3594,1132.3127 Z " fill="#000000"/><text fill="#000000" font-family="sans-serif" font-size="14" lengthAdjust="spacing" textLength="75" x="2191.5" y="1138.0061">QueryClient</text><rect fill="#FFFFFF" height="949.8003" style="stroke:#181818;stroke-width:1.0;" width="10" x="352" y="151.1999"/><rect fill="#FFFFFF" height="831.4003" style="stroke:#181818;stroke-width:1.0;" width="10" x="700.5" y="269.5999"/><rect fill="#FFFFFF" height="640.8002" style="stroke:#181818;stroke-width:1.0;" width="10" x="1141.5" y="328.7999"/><rect fill="#FFFFFF" height="29.6" style="stroke:#181818;stroke-width:1.0;" width="10" x="1405.5" y="471.8"/><rect fill="#FFFFFF" height="29.6" style="stroke:#181818;stroke-width:1.0;" width="10" x="1405.5" y="531"/><rect fill="#FFFFFF" height="29.6" style="stroke:#181818;stroke-width:1.0;" width="10" x="1603" y="844.2001"/><rect fill="#FFFFFF" height="29.6" style="stroke:#181818;stroke-width:1.0;" width="10" x="1603" y="903.4001"/><rect fill="#FFFFFF" height="980.4003" style="stroke:#181818;stroke-width:1.0;" width="10" x="1753" y="129.5999"/><rect fill="#FFFFFF" height="29.6" style="stroke:#181818;stroke-width:1.0;" width="10" x="1899" y="671.6"/><rect fill="#FFFFFF" height="29.6" style="stroke:#181818;stroke-width:1.0;" width="10" x="2082" y="730.8"/><rect fill="#FFFFFF" height="700.0002" style="stroke:#181818;stroke-width:1.0;" width="10" x="2210" y="299.1999"/><polygon fill="#181818" points="340,147.1999,350,151.1999,340,155.1999,344,151.1999" style="stroke:#181818;stroke-width:1.0;"/><line style="stroke:#181818;stroke-width:1.0;" x1="28" x2="346" y1="151.1999" y2="151.1999"/><text fill="#000000" font-family="sans-serif" font-size="13" lengthAdjust="spacing" textLength="305" x="35" y="145.6769">Navigates to /dashboard_admin/courts_management</text><polygon fill="#181818" points="529.5,176.7999,539.5,180.7999,529.5,184.7999,533.5,180.7999" style="stroke:#181818;stroke-width:1.0;"/><line style="stroke:#181818;stroke-width:1.0;" x1="362" x2="535.5" y1="180.7999" y2="180.7999"/><text fill="#000000" font-family="sans-serif" font-size="13" lengthAdjust="spacing" textLength="121" x="369" y="175.2769">Renders Court Cards</text><polygon fill="#181818" points="529.5,206.3999,539.5,210.3999,529.5,214.3999,533.5,210.3999" style="stroke:#181818;stroke-width:1.0;"/><line style="stroke:#181818;stroke-width:1.0;" x1="28" x2="535.5" y1="210.3999" y2="210.3999"/><text fill="#000000" font-family="sans-serif" font-size="13" lengthAdjust="spacing" textLength="221" x="35" y="204.8769">Clicks "View Reservations" for a court</text><polygon fill="#181818" points="373,235.9999,363,239.9999,373,243.9999,369,239.9999" style="stroke:#181818;stroke-width:1.0;"/><line style="stroke:#181818;stroke-width:1.0;" x1="367" x2="540.5" y1="239.9999" y2="239.9999"/><text fill="#000000" font-family="sans-serif" font-size="13" lengthAdjust="spacing" textLength="155" x="379" y="234.4769">onViewReservations(court)</text><polygon fill="#181818" points="688.5,265.5999,698.5,269.5999,688.5,273.5999,692.5,269.5999" style="stroke:#181818;stroke-width:1.0;"/><line style="stroke:#181818;stroke-width:1.0;" x1="362" x2="694.5" y1="269.5999" y2="269.5999"/><text fill="#000000" font-family="sans-serif" font-size="13" lengthAdjust="spacing" textLength="300" x="369" y="264.0769">Opens dialog (selectedCourtForReservations=court)</text><polygon fill="#181818" points="2198,295.1999,2208,299.1999,2198,303.1999,2202,299.1999" style="stroke:#181818;stroke-width:1.0;"/><line style="stroke:#181818;stroke-width:1.0;" x1="710.5" x2="2204" y1="299.1999" y2="299.1999"/><text fill="#000000" font-family="sans-serif" font-size="13" lengthAdjust="spacing" textLength="404" x="717.5" y="293.6769">useQuery(['courtReservations', courtId, startDateFilter, endDateFilter])</text><polygon fill="#181818" points="1162.5,324.7999,1152.5,328.7999,1162.5,332.7999,1158.5,328.7999" style="stroke:#181818;stroke-width:1.0;"/><line style="stroke:#181818;stroke-width:1.0;" x1="1156.5" x2="2209" y1="328.7999" y2="328.7999"/><text fill="#000000" font-family="sans-serif" font-size="13" lengthAdjust="spacing" textLength="441" x="1168.5" y="323.2769">getReservationsForCourt(courtId, {start_datetime_filter, end_datetime_filter})</text><path d="M595.5,343.7999 L655.5,343.7999 L655.5,351.4 L645.5,361.4 L595.5,361.4 L595.5,343.7999 " fill="#EEEEEE" style="stroke:#000000;stroke-width:1.5;"/><rect fill="none" height="299.2" style="stroke:#000000;stroke-width:1.5;" width="1229" x="595.5" y="343.7999"/><text fill="#000000" font-family="sans-serif" font-size="13" font-weight="bold" lengthAdjust="spacing" textLength="15" x="610.5" y="356.877">alt</text><text fill="#000000" font-family="sans-serif" font-size="11" font-weight="bold" lengthAdjust="spacing" textLength="91" x="670.5" y="356.0189">[Filters provided]</text><polygon fill="#181818" points="941.5,379,951.5,383,941.5,387,945.5,383" style="stroke:#181818;stroke-width:1.0;"/><line style="stroke:#181818;stroke-width:1.0;" x1="710.5" x2="947.5" y1="383" y2="383"/><text fill="#000000" font-family="sans-serif" font-size="13" lengthAdjust="spacing" textLength="195" x="717.5" y="377.477">Admin enters/changes date filters</text><polygon fill="#181818" points="721.5,408.6,711.5,412.6,721.5,416.6,717.5,412.6" style="stroke:#181818;stroke-width:1.0;"/><line style="stroke:#181818;stroke-width:1.0;" x1="715.5" x2="952.5" y1="412.6" y2="412.6"/><text fill="#000000" font-family="sans-serif" font-size="13" lengthAdjust="spacing" textLength="219" x="727.5" y="407.077">Updates startDateFilter, endDateFilter</text><polygon fill="#181818" points="1129.5,438.2,1139.5,442.2,1129.5,446.2,1133.5,442.2" style="stroke:#181818;stroke-width:1.0;"/><line style="stroke:#181818;stroke-width:1.0;" x1="710.5" x2="1135.5" y1="442.2" y2="442.2"/><text fill="#000000" font-family="sans-serif" font-size="13" lengthAdjust="spacing" textLength="207" x="717.5" y="436.677">(Calls refetch via queryKey change)</text><polygon fill="#181818" points="1393.5,467.8,1403.5,471.8,1393.5,475.8,1397.5,471.8" style="stroke:#181818;stroke-width:1.0;"/><line style="stroke:#181818;stroke-width:1.0;" x1="1151.5" x2="1399.5" y1="471.8" y2="471.8"/><text fill="#000000" font-family="sans-serif" font-size="13" lengthAdjust="spacing" textLength="235" x="1158.5" y="466.277">convertLocalToUtcString(localFilterStart)</text><polygon fill="#181818" points="1162.5,497.4,1152.5,501.4,1162.5,505.4,1158.5,501.4" style="stroke:#181818;stroke-width:1.0;"/><line style="stroke:#181818;stroke-width:1.0;stroke-dasharray:2.0,2.0;" x1="1156.5" x2="1409.5" y1="501.4" y2="501.4"/><text fill="#000000" font-family="sans-serif" font-size="13" lengthAdjust="spacing" textLength="75" x="1168.5" y="495.877">utcFilterStart</text><polygon fill="#181818" points="1393.5,527,1403.5,531,1393.5,535,1397.5,531" style="stroke:#181818;stroke-width:1.0;"/><line style="stroke:#181818;stroke-width:1.0;" x1="1151.5" x2="1399.5" y1="531" y2="531"/><text fill="#000000" font-family="sans-serif" font-size="13" lengthAdjust="spacing" textLength="230" x="1158.5" y="525.477">convertLocalToUtcString(localFilterEnd)</text><polygon fill="#181818" points="1162.5,556.6001,1152.5,560.6001,1162.5,564.6001,1158.5,560.6001" style="stroke:#181818;stroke-width:1.0;"/><line style="stroke:#181818;stroke-width:1.0;stroke-dasharray:2.0,2.0;" x1="1156.5" x2="1409.5" y1="560.6001" y2="560.6001"/><text fill="#000000" font-family="sans-serif" font-size="13" lengthAdjust="spacing" textLength="70" x="1168.5" y="555.0771">utcFilterEnd</text><polygon fill="#181818" points="1741,586.2001,1751,590.2001,1741,594.2001,1745,590.2001" style="stroke:#181818;stroke-width:1.0;"/><line style="stroke:#181818;stroke-width:1.0;" x1="1151.5" x2="1747" y1="590.2001" y2="590.2001"/><text fill="#000000" font-family="sans-serif" font-size="13" lengthAdjust="spacing" textLength="572" x="1158.5" y="584.6771">fetchJson("/courts/{id}/reservations?start_datetime_filter={utcStart}&amp;end_datetime_filter={utcEnd}")</text><line style="stroke:#000000;stroke-width:1.0;stroke-dasharray:2.0,2.0;" x1="595.5" x2="1824.5" y1="599.2001" y2="599.2001"/><text fill="#000000" font-family="sans-serif" font-size="11" font-weight="bold" lengthAdjust="spacing" textLength="56" x="600.5" y="609.419">[No filters]</text><polygon fill="#181818" points="1741,631,1751,635,1741,639,1745,635" style="stroke:#181818;stroke-width:1.0;"/><line style="stroke:#181818;stroke-width:1.0;" x1="1151.5" x2="1747" y1="635" y2="635"/><text fill="#000000" font-family="sans-serif" font-size="13" lengthAdjust="spacing" textLength="212" x="1158.5" y="629.477">fetchJson("/courts/{id}/reservations")</text><polygon fill="#181818" points="1887,667.6,1897,671.6,1887,675.6,1891,671.6" style="stroke:#181818;stroke-width:1.0;"/><line style="stroke:#181818;stroke-width:1.0;" x1="1763" x2="1893" y1="671.6" y2="671.6"/><text fill="#000000" font-family="sans-serif" font-size="13" lengthAdjust="spacing" textLength="62" x="1770" y="666.077">getToken()</text><polygon fill="#181818" points="1774,697.2,1764,701.2,1774,705.2,1770,701.2" style="stroke:#181818;stroke-width:1.0;"/><line style="stroke:#181818;stroke-width:1.0;stroke-dasharray:2.0,2.0;" x1="1768" x2="1903" y1="701.2" y2="701.2"/><text fill="#000000" font-family="sans-serif" font-size="13" lengthAdjust="spacing" textLength="112" x="1780" y="695.677">"admin_token_xyz"</text><polygon fill="#181818" points="2070,726.8,2080,730.8,2070,734.8,2074,730.8" style="stroke:#181818;stroke-width:1.0;"/><line style="stroke:#181818;stroke-width:1.0;" x1="1763" x2="2076" y1="730.8" y2="730.8"/><text fill="#000000" font-family="sans-serif" font-size="13" lengthAdjust="spacing" textLength="218" x="1770" y="725.277">GET /courts/{id}/reservations?params</text><polygon fill="#181818" points="1774,756.4,1764,760.4,1774,764.4,1770,760.4" style="stroke:#181818;stroke-width:1.0;"/><line style="stroke:#181818;stroke-width:1.0;stroke-dasharray:2.0,2.0;" x1="1768" x2="2086" y1="760.4" y2="760.4"/><text fill="#000000" font-family="sans-serif" font-size="13" lengthAdjust="spacing" textLength="295" x="1780" y="754.877">HTTP 200 OK (CourtReservation[] with UTC dates)</text><polygon fill="#181818" points="1162.5,786.0001,1152.5,790.0001,1162.5,794.0001,1158.5,790.0001" style="stroke:#181818;stroke-width:1.0;"/><line style="stroke:#181818;stroke-width:1.0;stroke-dasharray:2.0,2.0;" x1="1156.5" x2="1752" y1="790.0001" y2="790.0001"/><text fill="#000000" font-family="sans-serif" font-size="13" lengthAdjust="spacing" textLength="146" x="1168.5" y="784.4771">CourtReservation[] (UTC)</text><path d="M1030.5,805.0001 L1103.5,805.0001 L1103.5,812.6001 L1093.5,822.6001 L1030.5,822.6001 L1030.5,805.0001 " fill="#EEEEEE" style="stroke:#000000;stroke-width:1.5;"/><rect fill="none" height="136.0001" style="stroke:#000000;stroke-width:1.5;" width="671" x="1030.5" y="805.0001"/><text fill="#000000" font-family="sans-serif" font-size="13" font-weight="bold" lengthAdjust="spacing" textLength="28" x="1045.5" y="818.0771">loop</text><text fill="#000000" font-family="sans-serif" font-size="11" font-weight="bold" lengthAdjust="spacing" textLength="113" x="1118.5" y="817.219">[for each reservation]</text><polygon fill="#181818" points="1591,840.2001,1601,844.2001,1591,848.2001,1595,844.2001" style="stroke:#181818;stroke-width:1.0;"/><line style="stroke:#181818;stroke-width:1.0;" x1="1151.5" x2="1597" y1="844.2001" y2="844.2001"/><text fill="#000000" font-family="sans-serif" font-size="13" lengthAdjust="spacing" textLength="338" x="1158.5" y="838.6771">displayUtcAsLocal(reservation.start_reservation_datetime)</text><polygon fill="#181818" points="1162.5,869.8001,1152.5,873.8001,1162.5,877.8001,1158.5,873.8001" style="stroke:#181818;stroke-width:1.0;"/><line style="stroke:#181818;stroke-width:1.0;stroke-dasharray:2.0,2.0;" x1="1156.5" x2="1607" y1="873.8001" y2="873.8001"/><text fill="#000000" font-family="sans-serif" font-size="13" lengthAdjust="spacing" textLength="117" x="1168.5" y="868.2771">local_start_datetime</text><polygon fill="#181818" points="1591,899.4001,1601,903.4001,1591,907.4001,1595,903.4001" style="stroke:#181818;stroke-width:1.0;"/><line style="stroke:#181818;stroke-width:1.0;" x1="1151.5" x2="1597" y1="903.4001" y2="903.4001"/><text fill="#000000" font-family="sans-serif" font-size="13" lengthAdjust="spacing" textLength="333" x="1158.5" y="897.8771">displayUtcAsLocal(reservation.end_reservation_datetime)</text><polygon fill="#181818" points="1162.5,929.0001,1152.5,933.0001,1162.5,937.0001,1158.5,933.0001" style="stroke:#181818;stroke-width:1.0;"/><line style="stroke:#181818;stroke-width:1.0;stroke-dasharray:2.0,2.0;" x1="1156.5" x2="1607" y1="933.0001" y2="933.0001"/><text fill="#000000" font-family="sans-serif" font-size="13" lengthAdjust="spacing" textLength="112" x="1168.5" y="927.4771">local_end_datetime</text><polygon fill="#181818" points="2198,965.6001,2208,969.6001,2198,973.6001,2202,969.6001" style="stroke:#181818;stroke-width:1.0;"/><line style="stroke:#181818;stroke-width:1.0;stroke-dasharray:2.0,2.0;" x1="1146.5" x2="2204" y1="969.6001" y2="969.6001"/><text fill="#000000" font-family="sans-serif" font-size="13" lengthAdjust="spacing" textLength="183" x="1153.5" y="964.0771">CourtReservation[] (local dates)</text><polygon fill="#181818" points="721.5,995.2002,711.5,999.2002,721.5,1003.2002,717.5,999.2002" style="stroke:#181818;stroke-width:1.0;"/><line style="stroke:#181818;stroke-width:1.0;stroke-dasharray:2.0,2.0;" x1="715.5" x2="2214" y1="999.2002" y2="999.2002"/><text fill="#000000" font-family="sans-serif" font-size="13" lengthAdjust="spacing" textLength="183" x="727.5" y="993.6772">CourtReservation[] (local dates)</text><line style="stroke:#181818;stroke-width:1.0;" x1="710.5" x2="752.5" y1="1028.8002" y2="1028.8002"/><line style="stroke:#181818;stroke-width:1.0;" x1="752.5" x2="752.5" y1="1028.8002" y2="1041.8002"/><line style="stroke:#181818;stroke-width:1.0;" x1="711.5" x2="752.5" y1="1041.8002" y2="1041.8002"/><polygon fill="#181818" points="721.5,1037.8002,711.5,1041.8002,721.5,1045.8002,717.5,1041.8002" style="stroke:#181818;stroke-width:1.0;"/><text fill="#000000" font-family="sans-serif" font-size="13" lengthAdjust="spacing" textLength="170" x="717.5" y="1023.2772">Renders table of reservations</text><polygon fill="#181818" points="688.5,1067.4002,698.5,1071.4002,688.5,1075.4002,692.5,1071.4002" style="stroke:#181818;stroke-width:1.0;"/><line style="stroke:#181818;stroke-width:1.0;" x1="28" x2="694.5" y1="1071.4002" y2="1071.4002"/><text fill="#000000" font-family="sans-serif" font-size="13" lengthAdjust="spacing" textLength="83" x="35" y="1065.8772">Clicks "Close"</text><polygon fill="#181818" points="368,1097.0002,358,1101.0002,368,1105.0002,364,1101.0002" style="stroke:#181818;stroke-width:1.0;"/><line style="stroke:#181818;stroke-width:1.0;" x1="362" x2="704.5" y1="1101.0002" y2="1101.0002"/><text fill="#000000" font-family="sans-serif" font-size="13" lengthAdjust="spacing" textLength="78" x="374" y="1095.4772">Closes dialog</text><!--SRC=[lLTRRzis57xNhpZmmo81ZbFiKMWpP4hJURsvYTsNhZ0OYP69qg9BKiwy8F-zXwHaKHSxAzRkAH5vlkzSU6xMJ7CAYsJvYYhDH45aGefqHLHolRYyoDQiWF0ZbN1D5PLReY2Zu2IY66xerv8MAOLBHd99ra50KYqaZ2nm12Xk_riWDjWGgLdADgJGbK0YIgdLMrAGdAvfeMVuruBinTjyRK_W-VFmUYnakc9PT7xUvh6I2P5PWpDVYwb19MFEyfNE9TqD0okdZDyANU0YjpJzuwVOfiMcr11U4atXYd5DPMIPp87xTX9FqAJ6gEKjIR_G8fjezLUHqvQHLq9QmyEeyVTt9-wB6JrNuntbNDptb9IQSMN9Kr5igTHlH4huN2nqUgCbA_AmiNs1iisrewtDfyKHweof3ISx15qeIz0XnOkvi1VVGNf7TRhwKucY8hiotuRDSGX9C5uz_4MfLox7fCj8yvrBWxbnUczvsOTLORsOJHrgDdK8BTP4YvxuXvBANS8Pfh6LzxuThdxmO5yHS7hUoVGOtf4jop562hI0iuoerQt0V5uI0pgp-Q6Mwtt5c7fZMvDrBQBW12QJ2RmH95F0cT8Wxi21xSL9qDPR6rALJemLK6HKLWa6vbWD6RwNHqVJBmf67nczRvNF2Ewm7n2dFF110ywBmk1zU6XnKT_SWHADuVs6OkvdxZDKbDDKqynYiN1yo8kATn- -FbyG3EX0pVx3nb0gQW_2JoTfjwESZ9tRqsmCIcEoDDrW31ZWvlEpPud77_YwwdWDbNiCX_h4te07Qy4oGnMQhUdohh6ZU_WOTT9gG6L0kAuwdOAD55kMqIm068vPjmt6RYoWSeC_ms62XOilPpGw6nHoTL67ddsnoMp578_nGUEEH3LC2ESA9BMT1xQCm5Vp9A_f3fpH4T8U9AWyxpJH60xrNMuEdBKtnXT3ld-9FbCLeWxzwN6NIfrw6f0YeyTL_0plNXRPJ_KD-V-ZPyreYQ4PEwEg0vyziEpnJ7gOtmRBwyL3QTp7cyTV1WhDNgEjZwCee5nHU2UyzF-HvXa569DzFFRue652sdeqsduo5wWvz7f1THlKKgSTGqPsI2srmIt_tlqp2hmNgC5jVJCpF5wzdCFXmEAK9MlbMJ6R1WRNrVx7V3w3NvyzW_UliMuxlVZJPxXdUWMBUMAxZ8fQjY6bPzVn91kW3f4s2hWG6plja7W5dW__ieYybIY6_lxa4KvSidad-ymQBAk6sIihJzqJ7jl2NROJVBYyMef-iC-cVlvVZ_sAVT9VKrw7FUxj3KDPPBKEfEV16TnQ3mvDn-_HvEyUmyDoK4MzBMfoYxybSTNq2xYpDmxRMAsF2HUAZe8ZSzhR5grmlUxvNWpiSjrerZJV0000]--></g></svg>