<?xml version="1.0" encoding="us-ascii" standalone="no"?><svg xmlns="http://www.w3.org/2000/svg" xmlns:xlink="http://www.w3.org/1999/xlink" contentStyleType="text/css" height="1111px" preserveAspectRatio="none" style="width:2280px;height:1111px;background:#FFFFFF;" version="1.1" viewBox="0 0 2280 1111" width="2280px" zoomAndPan="magnify"><defs/><g><text fill="#000000" font-family="sans-serif" font-size="14" font-weight="bold" lengthAdjust="spacing" textLength="408" x="934.9375" y="33.0059">UC_GestionarEntrenamientosCRUDAdmin: Activity Diagram</text><ellipse cx="1130.4375" cy="57.7999" fill="#222222" rx="10" ry="10" style="stroke:#222222;stroke-width:1.0;"/><rect fill="#F1F1F1" height="34.4001" rx="12.5" ry="12.5" style="stroke:#181818;stroke-width:0.5;" width="260" x="1000.4375" y="87.7999"/><text fill="#000000" font-family="sans-serif" font-size="12" lengthAdjust="spacing" textLength="240" x="1010.4375" y="108.948">Admin navega a Gesti&#243;n de Entrenamientos</text><rect fill="#F1F1F1" height="34.4001" rx="12.5" ry="12.5" style="stroke:#181818;stroke-width:0.5;" width="299" x="980.9375" y="142.2"/><text fill="#000000" font-family="sans-serif" font-size="12" lengthAdjust="spacing" textLength="279" x="990.9375" y="163.3481">Sistema muestra lista de entrenamientos existentes</text><polygon fill="#F1F1F1" points="197.5,196.6001,339.5,196.6001,351.5,208.6001,339.5,220.6001,197.5,220.6001,185.5,208.6001,197.5,196.6001" style="stroke:#181818;stroke-width:0.5;"/><text fill="#000000" font-family="sans-serif" font-size="11" lengthAdjust="spacing" textLength="142" x="197.5" y="212.2191">&#191;Qu&#233; desea hacer el Admin?</text><rect fill="#F1F1F1" height="34.4001" rx="12.5" ry="12.5" style="stroke:#181818;stroke-width:0.5;" width="151" x="193" y="240.6001"/><text fill="#000000" font-family="sans-serif" font-size="12" lengthAdjust="spacing" textLength="131" x="203" y="261.7482">-&gt;[Crear Entrenamiento]</text><rect fill="#F1F1F1" height="34.4001" rx="12.5" ry="12.5" style="stroke:#181818;stroke-width:0.5;" width="287" x="125" y="295.0002"/><text fill="#000000" font-family="sans-serif" font-size="12" lengthAdjust="spacing" textLength="267" x="135" y="316.1483">Admin hace clic en "Crear Nuevo Entrenamiento"</text><rect fill="#F1F1F1" height="34.4001" rx="12.5" ry="12.5" style="stroke:#181818;stroke-width:0.5;" width="243" x="147" y="349.4003"/><text fill="#000000" font-family="sans-serif" font-size="12" lengthAdjust="spacing" textLength="223" x="157" y="370.5484">Sistema muestra Formulario de Creaci&#243;n</text><rect fill="#F1F1F1" height="34.4001" rx="12.5" ry="12.5" style="stroke:#181818;stroke-width:0.5;" width="515" x="11" y="418.8004"/><text fill="#000000" font-family="sans-serif" font-size="12" lengthAdjust="spacing" textLength="495" x="21" y="439.9485">Admin ingresa datos (nombre, categor&#237;a, entrenador, cancha, fechas LOCALES, pago min.)</text><rect fill="#F1F1F1" height="34.4001" rx="12.5" ry="12.5" style="stroke:#181818;stroke-width:0.5;" width="146" x="195.5" y="488.2005"/><text fill="#000000" font-family="sans-serif" font-size="12" lengthAdjust="spacing" textLength="126" x="205.5" y="509.3486">Admin env&#237;a formulario</text><rect fill="#F1F1F1" height="34.4001" rx="12.5" ry="12.5" style="stroke:#181818;stroke-width:0.5;" width="179" x="179" y="557.6006"/><text fill="#000000" font-family="sans-serif" font-size="12" lengthAdjust="spacing" textLength="159" x="189" y="578.7487">Validar datos (frontend - Zod)</text><polygon fill="#F1F1F1" points="228.5,627.0007,308.5,627.0007,320.5,639.0007,308.5,651.0007,228.5,651.0007,216.5,639.0007,228.5,627.0007" style="stroke:#181818;stroke-width:0.5;"/><text fill="#000000" font-family="sans-serif" font-size="11" lengthAdjust="spacing" textLength="80" x="228.5" y="642.6197">Datos inv&#225;lidos?</text><text fill="#000000" font-family="sans-serif" font-size="11" lengthAdjust="spacing" textLength="9" x="207.5" y="636.0198">s&#237;</text><text fill="#000000" font-family="sans-serif" font-size="11" lengthAdjust="spacing" textLength="12" x="320.5" y="636.0198">no</text><rect fill="#F1F1F1" height="34.4001" rx="12.5" ry="12.5" style="stroke:#181818;stroke-width:0.5;" width="165" x="31.875" y="661.0007"/><text fill="#000000" font-family="sans-serif" font-size="12" lengthAdjust="spacing" textLength="145" x="41.875" y="682.1488">Mostrar error en formulario</text><rect fill="#F1F1F1" height="34.4001" rx="12.5" ry="12.5" style="stroke:#181818;stroke-width:0.5;" width="189" x="328.125" y="661.0007"/><text fill="#000000" font-family="sans-serif" font-size="12" lengthAdjust="spacing" textLength="169" x="338.125" y="682.1488">Convertir fechas locales a UTC</text><rect fill="#F1F1F1" height="34.4001" rx="12.5" ry="12.5" style="stroke:#181818;stroke-width:0.5;" width="314" x="265.625" y="717.1009"/><text fill="#000000" font-family="sans-serif" font-size="12" lengthAdjust="spacing" textLength="294" x="275.625" y="738.249">Sistema env&#237;a datos (con fechas UTC) al Backend API</text><polygon fill="#F1F1F1" points="378.125,786.501,467.125,786.501,479.125,798.501,467.125,810.501,378.125,810.501,366.125,798.501,378.125,786.501" style="stroke:#181818;stroke-width:0.5;"/><text fill="#000000" font-family="sans-serif" font-size="11" lengthAdjust="spacing" textLength="89" x="378.125" y="802.12">Creaci&#243;n Exitosa?</text><text fill="#000000" font-family="sans-serif" font-size="11" lengthAdjust="spacing" textLength="9" x="357.125" y="795.52">s&#237;</text><text fill="#000000" font-family="sans-serif" font-size="11" lengthAdjust="spacing" textLength="12" x="479.125" y="795.52">no</text><rect fill="#F1F1F1" height="34.4001" rx="12.5" ry="12.5" style="stroke:#181818;stroke-width:0.5;" width="131" x="263.375" y="820.501"/><text fill="#000000" font-family="sans-serif" font-size="12" lengthAdjust="spacing" textLength="111" x="273.375" y="841.6491">Mostrar &#233;xito (Toast)</text><rect fill="#F1F1F1" height="34.4001" rx="12.5" ry="12.5" style="stroke:#181818;stroke-width:0.5;" width="204" x="226.875" y="874.9011"/><text fill="#000000" font-family="sans-serif" font-size="12" lengthAdjust="spacing" textLength="184" x="236.875" y="896.0492">Actualizar lista de entrenamientos</text><rect fill="#F1F1F1" height="34.4001" rx="12.5" ry="12.5" style="stroke:#181818;stroke-width:0.5;" width="99" x="279.375" y="944.3012"/><text fill="#000000" font-family="sans-serif" font-size="12" lengthAdjust="spacing" textLength="79" x="289.375" y="965.4493">Cerrar di&#225;logo</text><rect fill="#F1F1F1" height="34.4001" rx="12.5" ry="12.5" style="stroke:#181818;stroke-width:0.5;" width="131" x="450.875" y="820.501"/><text fill="#000000" font-family="sans-serif" font-size="12" lengthAdjust="spacing" textLength="111" x="460.875" y="841.6491">Mostrar error (Toast)</text><polygon fill="#F1F1F1" points="422.625,984.7013,434.625,996.7013,422.625,1008.7013,410.625,996.7013,422.625,984.7013" style="stroke:#181818;stroke-width:0.5;"/><polygon fill="#F1F1F1" points="268.5,1014.7013,280.5,1026.7013,268.5,1038.7013,256.5,1026.7013,268.5,1014.7013" style="stroke:#181818;stroke-width:0.5;"/><polygon fill="#F1F1F1" points="780.625,196.6001,881.625,196.6001,893.625,208.6001,881.625,220.6001,780.625,220.6001,768.625,208.6001,780.625,196.6001" style="stroke:#181818;stroke-width:0.5;"/><text fill="#000000" font-family="sans-serif" font-size="11" lengthAdjust="spacing" textLength="101" x="780.625" y="212.2191">Editar Entrenamiento</text><rect fill="#F1F1F1" height="34.4001" rx="12.5" ry="12.5" style="stroke:#181818;stroke-width:0.5;" width="336" x="663.125" y="240.6001"/><text fill="#000000" font-family="sans-serif" font-size="12" lengthAdjust="spacing" textLength="316" x="673.125" y="261.7482">Admin selecciona un entrenamiento y hace clic en "Editar"</text><rect fill="#F1F1F1" height="34.4001" rx="12.5" ry="12.5" style="stroke:#181818;stroke-width:0.5;" width="392" x="635.125" y="295.0002"/><text fill="#000000" font-family="sans-serif" font-size="12" lengthAdjust="spacing" textLength="372" x="645.125" y="316.1483">Sistema muestra Formulario de Edici&#243;n con datos del entrenamiento</text><rect fill="#F1F1F1" height="34.4001" rx="12.5" ry="12.5" style="stroke:#181818;stroke-width:0.5;" width="137" x="762.625" y="349.4003"/><text fill="#000000" font-family="sans-serif" font-size="12" lengthAdjust="spacing" textLength="117" x="772.625" y="370.5484">Admin modifica datos</text><rect fill="#F1F1F1" height="34.4001" rx="12.5" ry="12.5" style="stroke:#181818;stroke-width:0.5;" width="146" x="758.125" y="418.8004"/><text fill="#000000" font-family="sans-serif" font-size="12" lengthAdjust="spacing" textLength="126" x="768.125" y="439.9485">Admin env&#237;a formulario</text><rect fill="#F1F1F1" height="34.4001" rx="12.5" ry="12.5" style="stroke:#181818;stroke-width:0.5;" width="179" x="741.625" y="488.2005"/><text fill="#000000" font-family="sans-serif" font-size="12" lengthAdjust="spacing" textLength="159" x="751.625" y="509.3486">Validar datos (frontend - Zod)</text><polygon fill="#F1F1F1" points="791.125,557.6006,871.125,557.6006,883.125,569.6006,871.125,581.6006,791.125,581.6006,779.125,569.6006,791.125,557.6006" style="stroke:#181818;stroke-width:0.5;"/><text fill="#000000" font-family="sans-serif" font-size="11" lengthAdjust="spacing" textLength="80" x="791.125" y="573.2196">Datos inv&#225;lidos?</text><text fill="#000000" font-family="sans-serif" font-size="11" lengthAdjust="spacing" textLength="9" x="770.125" y="566.6197">s&#237;</text><text fill="#000000" font-family="sans-serif" font-size="11" lengthAdjust="spacing" textLength="12" x="883.125" y="566.6197">no</text><rect fill="#F1F1F1" height="34.4001" rx="12.5" ry="12.5" style="stroke:#181818;stroke-width:0.5;" width="165" x="591.875" y="591.6006"/><text fill="#000000" font-family="sans-serif" font-size="12" lengthAdjust="spacing" textLength="145" x="601.875" y="612.7487">Mostrar error en formulario</text><rect fill="#F1F1F1" height="34.4001" rx="12.5" ry="12.5" style="stroke:#181818;stroke-width:0.5;" width="292" x="841.875" y="591.6006"/><text fill="#000000" font-family="sans-serif" font-size="12" lengthAdjust="spacing" textLength="272" x="851.875" y="612.7487">Convertir fechas locales (si se modificaron) a UTC</text><rect fill="#F1F1F1" height="34.4001" rx="12.5" ry="12.5" style="stroke:#181818;stroke-width:0.5;" width="386" x="794.875" y="661.0007"/><text fill="#000000" font-family="sans-serif" font-size="12" lengthAdjust="spacing" textLength="366" x="804.875" y="682.1488">Sistema env&#237;a datos actualizados (con fechas UTC) al Backend API</text><polygon fill="#F1F1F1" points="933.375,717.1009,1042.375,717.1009,1054.375,729.1009,1042.375,741.1009,933.375,741.1009,921.375,729.1009,933.375,717.1009" style="stroke:#181818;stroke-width:0.5;"/><text fill="#000000" font-family="sans-serif" font-size="11" lengthAdjust="spacing" textLength="109" x="933.375" y="732.7199">Actualizaci&#243;n Exitosa?</text><text fill="#000000" font-family="sans-serif" font-size="11" lengthAdjust="spacing" textLength="9" x="912.375" y="726.1199">s&#237;</text><text fill="#000000" font-family="sans-serif" font-size="11" lengthAdjust="spacing" textLength="12" x="1054.375" y="726.1199">no</text><rect fill="#F1F1F1" height="34.4001" rx="12.5" ry="12.5" style="stroke:#181818;stroke-width:0.5;" width="131" x="826.875" y="751.1009"/><text fill="#000000" font-family="sans-serif" font-size="12" lengthAdjust="spacing" textLength="111" x="836.875" y="772.249">Mostrar &#233;xito (Toast)</text><rect fill="#F1F1F1" height="34.4001" rx="12.5" ry="12.5" style="stroke:#181818;stroke-width:0.5;" width="211" x="786.875" y="820.501"/><text fill="#000000" font-family="sans-serif" font-size="12" lengthAdjust="spacing" textLength="191" x="796.875" y="841.6491">Actualizar entrenamiento en la lista</text><rect fill="#F1F1F1" height="34.4001" rx="12.5" ry="12.5" style="stroke:#181818;stroke-width:0.5;" width="99" x="842.875" y="874.9011"/><text fill="#000000" font-family="sans-serif" font-size="12" lengthAdjust="spacing" textLength="79" x="852.875" y="896.0492">Cerrar di&#225;logo</text><rect fill="#F1F1F1" height="34.4001" rx="12.5" ry="12.5" style="stroke:#181818;stroke-width:0.5;" width="131" x="1017.875" y="751.1009"/><text fill="#000000" font-family="sans-serif" font-size="12" lengthAdjust="spacing" textLength="111" x="1027.875" y="772.249">Mostrar error (Toast)</text><polygon fill="#F1F1F1" points="987.875,915.3012,999.875,927.3012,987.875,939.3012,975.875,927.3012,987.875,915.3012" style="stroke:#181818;stroke-width:0.5;"/><polygon fill="#F1F1F1" points="831.125,945.3012,843.125,957.3012,831.125,969.3012,819.125,957.3012,831.125,945.3012" style="stroke:#181818;stroke-width:0.5;"/><polygon fill="#F1F1F1" points="1498,196.6001,1609,196.6001,1621,208.6001,1609,220.6001,1498,220.6001,1486,208.6001,1498,196.6001" style="stroke:#181818;stroke-width:0.5;"/><text fill="#000000" font-family="sans-serif" font-size="11" lengthAdjust="spacing" textLength="111" x="1498" y="212.2191">Eliminar Entrenamiento</text><text fill="#000000" font-family="sans-serif" font-size="11" lengthAdjust="spacing" textLength="85" x="1621" y="205.6192">Ver Inscripciones</text><rect fill="#F1F1F1" height="34.4001" rx="12.5" ry="12.5" style="stroke:#181818;stroke-width:0.5;" width="349" x="1379" y="240.6001"/><text fill="#000000" font-family="sans-serif" font-size="12" lengthAdjust="spacing" textLength="329" x="1389" y="261.7482">Admin selecciona un entrenamiento y hace clic en "Eliminar"</text><rect fill="#F1F1F1" height="34.4001" rx="12.5" ry="12.5" style="stroke:#181818;stroke-width:0.5;" width="250" x="1428.5" y="295.0002"/><text fill="#000000" font-family="sans-serif" font-size="12" lengthAdjust="spacing" textLength="230" x="1438.5" y="316.1483">Sistema muestra Di&#225;logo de Confirmaci&#243;n</text><polygon fill="#F1F1F1" points="1485,349.4003,1622,349.4003,1634,361.4003,1622,373.4003,1485,373.4003,1473,361.4003,1485,349.4003" style="stroke:#181818;stroke-width:0.5;"/><text fill="#000000" font-family="sans-serif" font-size="11" lengthAdjust="spacing" textLength="137" x="1485" y="365.0193">Admin confirma eliminaci&#243;n?</text><text fill="#000000" font-family="sans-serif" font-size="11" lengthAdjust="spacing" textLength="9" x="1464" y="358.4194">s&#237;</text><text fill="#000000" font-family="sans-serif" font-size="11" lengthAdjust="spacing" textLength="12" x="1634" y="358.4194">no</text><rect fill="#F1F1F1" height="34.4001" rx="12.5" ry="12.5" style="stroke:#181818;stroke-width:0.5;" width="314" x="1268.125" y="383.4003"/><text fill="#000000" font-family="sans-serif" font-size="12" lengthAdjust="spacing" textLength="294" x="1278.125" y="404.5484">Sistema env&#237;a solicitud de eliminaci&#243;n al Backend API</text><polygon fill="#F1F1F1" points="1375.625,452.8004,1474.625,452.8004,1486.625,464.8004,1474.625,476.8004,1375.625,476.8004,1363.625,464.8004,1375.625,452.8004" style="stroke:#181818;stroke-width:0.5;"/><text fill="#000000" font-family="sans-serif" font-size="11" lengthAdjust="spacing" textLength="99" x="1375.625" y="468.4194">Eliminaci&#243;n Exitosa?</text><text fill="#000000" font-family="sans-serif" font-size="11" lengthAdjust="spacing" textLength="9" x="1354.625" y="461.8195">s&#237;</text><text fill="#000000" font-family="sans-serif" font-size="11" lengthAdjust="spacing" textLength="12" x="1486.625" y="461.8195">no</text><rect fill="#F1F1F1" height="34.4001" rx="12.5" ry="12.5" style="stroke:#181818;stroke-width:0.5;" width="131" x="1266.375" y="486.8004"/><text fill="#000000" font-family="sans-serif" font-size="12" lengthAdjust="spacing" textLength="111" x="1276.375" y="507.9485">Mostrar &#233;xito (Toast)</text><rect fill="#F1F1F1" height="34.4001" rx="12.5" ry="12.5" style="stroke:#181818;stroke-width:0.5;" width="202" x="1230.875" y="556.2005"/><text fill="#000000" font-family="sans-serif" font-size="12" lengthAdjust="spacing" textLength="182" x="1240.875" y="577.3486">Eliminar entrenamiento de la lista</text><rect fill="#F1F1F1" height="34.4001" rx="12.5" ry="12.5" style="stroke:#181818;stroke-width:0.5;" width="131" x="1452.875" y="486.8004"/><text fill="#000000" font-family="sans-serif" font-size="12" lengthAdjust="spacing" textLength="111" x="1462.875" y="507.9485">Mostrar error (Toast)</text><polygon fill="#F1F1F1" points="1425.125,596.6006,1437.125,608.6006,1425.125,620.6006,1413.125,608.6006,1425.125,596.6006" style="stroke:#181818;stroke-width:0.5;"/><rect fill="#F1F1F1" height="34.4001" rx="12.5" ry="12.5" style="stroke:#181818;stroke-width:0.5;" width="136" x="1613.875" y="383.4003"/><text fill="#000000" font-family="sans-serif" font-size="12" lengthAdjust="spacing" textLength="116" x="1623.875" y="404.5484">Cancelar eliminaci&#243;n</text><polygon fill="#F1F1F1" points="1553.5,626.6006,1565.5,638.6006,1553.5,650.6006,1541.5,638.6006,1553.5,626.6006" style="stroke:#181818;stroke-width:0.5;"/><rect fill="#F1F1F1" height="34.4001" rx="12.5" ry="12.5" style="stroke:#181818;stroke-width:0.5;" width="376" x="1826.875" y="520.5005"/><text fill="#000000" font-family="sans-serif" font-size="12" lengthAdjust="spacing" textLength="356" x="1836.875" y="541.6486">Admin selecciona un entrenamiento y hace clic en "Registrations"</text><rect fill="#F1F1F1" height="34.4001" rx="12.5" ry="12.5" style="stroke:#181818;stroke-width:0.5;" width="510" x="1759.875" y="589.9006"/><text fill="#000000" font-family="sans-serif" font-size="12" lengthAdjust="spacing" textLength="490" x="1769.875" y="611.0487">Sistema muestra Di&#225;logo de Gesti&#243;n de Inscripciones (AdminTrainingRegistrationsDialog)</text><rect fill="#F1F1F1" height="34.4001" rx="12.5" ry="12.5" style="stroke:#181818;stroke-width:0.5;" width="355" x="1837.375" y="659.3007"/><text fill="#000000" font-family="sans-serif" font-size="12" lengthAdjust="spacing" textLength="335" x="1847.375" y="680.4488">Admin puede ver qui&#233;n est&#225; inscrito y su estado de asistencia</text><rect fill="#F1F1F1" height="34.4001" rx="12.5" ry="12.5" style="stroke:#181818;stroke-width:0.5;" width="133" x="1948.375" y="715.4008"/><text fill="#000000" font-family="sans-serif" font-size="12" lengthAdjust="spacing" textLength="113" x="1958.375" y="736.5489">Admin cierra di&#225;logo</text><ellipse cx="1130.4375" cy="1089.7013" fill="none" rx="11" ry="11" style="stroke:#222222;stroke-width:1.0;"/><ellipse cx="1130.4375" cy="1089.7013" fill="#222222" rx="6" ry="6" style="stroke:#222222;stroke-width:1.0;"/><line style="stroke:#181818;stroke-width:1.0;" x1="1130.4375" x2="1130.4375" y1="67.7999" y2="87.7999"/><polygon fill="#181818" points="1126.4375,77.7999,1130.4375,87.7999,1134.4375,77.7999,1130.4375,81.7999" style="stroke:#181818;stroke-width:1.0;"/><line style="stroke:#181818;stroke-width:1.0;" x1="1130.4375" x2="1130.4375" y1="122.2" y2="142.2"/><polygon fill="#181818" points="1126.4375,132.2,1130.4375,142.2,1134.4375,132.2,1130.4375,136.2" style="stroke:#181818;stroke-width:1.0;"/><line style="stroke:#181818;stroke-width:1.0;" x1="268.5" x2="268.5" y1="275.0002" y2="295.0002"/><polygon fill="#181818" points="264.5,285.0002,268.5,295.0002,272.5,285.0002,268.5,289.0002" style="stroke:#181818;stroke-width:1.0;"/><line style="stroke:#181818;stroke-width:1.0;" x1="268.5" x2="268.5" y1="329.4003" y2="349.4003"/><polygon fill="#181818" points="264.5,339.4003,268.5,349.4003,272.5,339.4003,268.5,343.4003" style="stroke:#181818;stroke-width:1.0;"/><line style="stroke:#181818;stroke-width:1.0;" x1="268.5" x2="268.5" y1="383.8004" y2="418.8004"/><polygon fill="#181818" points="264.5,408.8004,268.5,418.8004,272.5,408.8004,268.5,412.8004" style="stroke:#181818;stroke-width:1.0;"/><line style="stroke:#181818;stroke-width:1.0;" x1="268.5" x2="268.5" y1="453.2005" y2="488.2005"/><polygon fill="#181818" points="264.5,478.2005,268.5,488.2005,272.5,478.2005,268.5,482.2005" style="stroke:#181818;stroke-width:1.0;"/><line style="stroke:#181818;stroke-width:1.0;" x1="268.5" x2="268.5" y1="522.6006" y2="557.6006"/><polygon fill="#181818" points="264.5,547.6006,268.5,557.6006,272.5,547.6006,268.5,551.6006" style="stroke:#181818;stroke-width:1.0;"/><line style="stroke:#181818;stroke-width:1.0;" x1="422.625" x2="422.625" y1="695.4008" y2="717.1009"/><polygon fill="#181818" points="418.625,707.1009,422.625,717.1009,426.625,707.1009,422.625,711.1009" style="stroke:#181818;stroke-width:1.0;"/><line style="stroke:#181818;stroke-width:1.0;" x1="328.875" x2="328.875" y1="854.9011" y2="874.9011"/><polygon fill="#181818" points="324.875,864.9011,328.875,874.9011,332.875,864.9011,328.875,868.9011" style="stroke:#181818;stroke-width:1.0;"/><line style="stroke:#181818;stroke-width:1.0;" x1="328.875" x2="328.875" y1="909.3012" y2="944.3012"/><polygon fill="#181818" points="324.875,934.3012,328.875,944.3012,332.875,934.3012,328.875,938.3012" style="stroke:#181818;stroke-width:1.0;"/><line style="stroke:#181818;stroke-width:1.0;" x1="366.125" x2="328.875" y1="798.501" y2="798.501"/><line style="stroke:#181818;stroke-width:1.0;" x1="328.875" x2="328.875" y1="798.501" y2="820.501"/><polygon fill="#181818" points="324.875,810.501,328.875,820.501,332.875,810.501,328.875,814.501" style="stroke:#181818;stroke-width:1.0;"/><line style="stroke:#181818;stroke-width:1.0;" x1="479.125" x2="516.375" y1="798.501" y2="798.501"/><line style="stroke:#181818;stroke-width:1.0;" x1="516.375" x2="516.375" y1="798.501" y2="820.501"/><polygon fill="#181818" points="512.375,810.501,516.375,820.501,520.375,810.501,516.375,814.501" style="stroke:#181818;stroke-width:1.0;"/><line style="stroke:#181818;stroke-width:1.0;" x1="328.875" x2="328.875" y1="978.7013" y2="996.7013"/><line style="stroke:#181818;stroke-width:1.0;" x1="328.875" x2="410.625" y1="996.7013" y2="996.7013"/><polygon fill="#181818" points="400.625,992.7013,410.625,996.7013,400.625,1000.7013,404.625,996.7013" style="stroke:#181818;stroke-width:1.0;"/><line style="stroke:#181818;stroke-width:1.0;" x1="516.375" x2="516.375" y1="854.9011" y2="996.7013"/><line style="stroke:#181818;stroke-width:1.0;" x1="516.375" x2="434.625" y1="996.7013" y2="996.7013"/><polygon fill="#181818" points="444.625,992.7013,434.625,996.7013,444.625,1000.7013,440.625,996.7013" style="stroke:#181818;stroke-width:1.0;"/><line style="stroke:#181818;stroke-width:1.0;" x1="422.625" x2="422.625" y1="751.501" y2="786.501"/><polygon fill="#181818" points="418.625,776.501,422.625,786.501,426.625,776.501,422.625,780.501" style="stroke:#181818;stroke-width:1.0;"/><line style="stroke:#181818;stroke-width:1.0;" x1="216.5" x2="114.375" y1="639.0007" y2="639.0007"/><line style="stroke:#181818;stroke-width:1.0;" x1="114.375" x2="114.375" y1="639.0007" y2="661.0007"/><polygon fill="#181818" points="110.375,651.0007,114.375,661.0007,118.375,651.0007,114.375,655.0007" style="stroke:#181818;stroke-width:1.0;"/><line style="stroke:#181818;stroke-width:1.0;" x1="320.5" x2="422.625" y1="639.0007" y2="639.0007"/><line style="stroke:#181818;stroke-width:1.0;" x1="422.625" x2="422.625" y1="639.0007" y2="661.0007"/><polygon fill="#181818" points="418.625,651.0007,422.625,661.0007,426.625,651.0007,422.625,655.0007" style="stroke:#181818;stroke-width:1.0;"/><line style="stroke:#181818;stroke-width:1.0;" x1="114.375" x2="114.375" y1="695.4008" y2="1026.7013"/><line style="stroke:#181818;stroke-width:1.0;" x1="114.375" x2="256.5" y1="1026.7013" y2="1026.7013"/><polygon fill="#181818" points="246.5,1022.7013,256.5,1026.7013,246.5,1030.7013,250.5,1026.7013" style="stroke:#181818;stroke-width:1.0;"/><line style="stroke:#181818;stroke-width:1.0;" x1="422.625" x2="422.625" y1="1008.7013" y2="1026.7013"/><line style="stroke:#181818;stroke-width:1.0;" x1="422.625" x2="280.5" y1="1026.7013" y2="1026.7013"/><polygon fill="#181818" points="290.5,1022.7013,280.5,1026.7013,290.5,1030.7013,286.5,1026.7013" style="stroke:#181818;stroke-width:1.0;"/><line style="stroke:#181818;stroke-width:1.0;" x1="268.5" x2="268.5" y1="592.0007" y2="627.0007"/><polygon fill="#181818" points="264.5,617.0007,268.5,627.0007,272.5,617.0007,268.5,621.0007" style="stroke:#181818;stroke-width:1.0;"/><line style="stroke:#181818;stroke-width:1.0;" x1="831.125" x2="831.125" y1="275.0002" y2="295.0002"/><polygon fill="#181818" points="827.125,285.0002,831.125,295.0002,835.125,285.0002,831.125,289.0002" style="stroke:#181818;stroke-width:1.0;"/><line style="stroke:#181818;stroke-width:1.0;" x1="831.125" x2="831.125" y1="329.4003" y2="349.4003"/><polygon fill="#181818" points="827.125,339.4003,831.125,349.4003,835.125,339.4003,831.125,343.4003" style="stroke:#181818;stroke-width:1.0;"/><line style="stroke:#181818;stroke-width:1.0;" x1="831.125" x2="831.125" y1="383.8004" y2="418.8004"/><polygon fill="#181818" points="827.125,408.8004,831.125,418.8004,835.125,408.8004,831.125,412.8004" style="stroke:#181818;stroke-width:1.0;"/><line style="stroke:#181818;stroke-width:1.0;" x1="831.125" x2="831.125" y1="453.2005" y2="488.2005"/><polygon fill="#181818" points="827.125,478.2005,831.125,488.2005,835.125,478.2005,831.125,482.2005" style="stroke:#181818;stroke-width:1.0;"/><line style="stroke:#181818;stroke-width:1.0;" x1="987.875" x2="987.875" y1="626.0007" y2="661.0007"/><polygon fill="#181818" points="983.875,651.0007,987.875,661.0007,991.875,651.0007,987.875,655.0007" style="stroke:#181818;stroke-width:1.0;"/><line style="stroke:#181818;stroke-width:1.0;" x1="892.375" x2="892.375" y1="785.501" y2="820.501"/><polygon fill="#181818" points="888.375,810.501,892.375,820.501,896.375,810.501,892.375,814.501" style="stroke:#181818;stroke-width:1.0;"/><line style="stroke:#181818;stroke-width:1.0;" x1="892.375" x2="892.375" y1="854.9011" y2="874.9011"/><polygon fill="#181818" points="888.375,864.9011,892.375,874.9011,896.375,864.9011,892.375,868.9011" style="stroke:#181818;stroke-width:1.0;"/><line style="stroke:#181818;stroke-width:1.0;" x1="921.375" x2="892.375" y1="729.1009" y2="729.1009"/><line style="stroke:#181818;stroke-width:1.0;" x1="892.375" x2="892.375" y1="729.1009" y2="751.1009"/><polygon fill="#181818" points="888.375,741.1009,892.375,751.1009,896.375,741.1009,892.375,745.1009" style="stroke:#181818;stroke-width:1.0;"/><line style="stroke:#181818;stroke-width:1.0;" x1="1054.375" x2="1083.375" y1="729.1009" y2="729.1009"/><line style="stroke:#181818;stroke-width:1.0;" x1="1083.375" x2="1083.375" y1="729.1009" y2="751.1009"/><polygon fill="#181818" points="1079.375,741.1009,1083.375,751.1009,1087.375,741.1009,1083.375,745.1009" style="stroke:#181818;stroke-width:1.0;"/><line style="stroke:#181818;stroke-width:1.0;" x1="892.375" x2="892.375" y1="909.3012" y2="927.3012"/><line style="stroke:#181818;stroke-width:1.0;" x1="892.375" x2="975.875" y1="927.3012" y2="927.3012"/><polygon fill="#181818" points="965.875,923.3012,975.875,927.3012,965.875,931.3012,969.875,927.3012" style="stroke:#181818;stroke-width:1.0;"/><line style="stroke:#181818;stroke-width:1.0;" x1="1083.375" x2="1083.375" y1="785.501" y2="927.3012"/><line style="stroke:#181818;stroke-width:1.0;" x1="1083.375" x2="999.875" y1="927.3012" y2="927.3012"/><polygon fill="#181818" points="1009.875,923.3012,999.875,927.3012,1009.875,931.3012,1005.875,927.3012" style="stroke:#181818;stroke-width:1.0;"/><line style="stroke:#181818;stroke-width:1.0;" x1="987.875" x2="987.875" y1="695.4008" y2="717.1009"/><polygon fill="#181818" points="983.875,707.1009,987.875,717.1009,991.875,707.1009,987.875,711.1009" style="stroke:#181818;stroke-width:1.0;"/><line style="stroke:#181818;stroke-width:1.0;" x1="779.125" x2="674.375" y1="569.6006" y2="569.6006"/><line style="stroke:#181818;stroke-width:1.0;" x1="674.375" x2="674.375" y1="569.6006" y2="591.6006"/><polygon fill="#181818" points="670.375,581.6006,674.375,591.6006,678.375,581.6006,674.375,585.6006" style="stroke:#181818;stroke-width:1.0;"/><line style="stroke:#181818;stroke-width:1.0;" x1="883.125" x2="987.875" y1="569.6006" y2="569.6006"/><line style="stroke:#181818;stroke-width:1.0;" x1="987.875" x2="987.875" y1="569.6006" y2="591.6006"/><polygon fill="#181818" points="983.875,581.6006,987.875,591.6006,991.875,581.6006,987.875,585.6006" style="stroke:#181818;stroke-width:1.0;"/><line style="stroke:#181818;stroke-width:1.0;" x1="674.375" x2="674.375" y1="626.0007" y2="957.3012"/><line style="stroke:#181818;stroke-width:1.0;" x1="674.375" x2="819.125" y1="957.3012" y2="957.3012"/><polygon fill="#181818" points="809.125,953.3012,819.125,957.3012,809.125,961.3012,813.125,957.3012" style="stroke:#181818;stroke-width:1.0;"/><line style="stroke:#181818;stroke-width:1.0;" x1="987.875" x2="987.875" y1="939.3012" y2="957.3012"/><line style="stroke:#181818;stroke-width:1.0;" x1="987.875" x2="843.125" y1="957.3012" y2="957.3012"/><polygon fill="#181818" points="853.125,953.3012,843.125,957.3012,853.125,961.3012,849.125,957.3012" style="stroke:#181818;stroke-width:1.0;"/><line style="stroke:#181818;stroke-width:1.0;" x1="831.125" x2="831.125" y1="522.6006" y2="557.6006"/><polygon fill="#181818" points="827.125,547.6006,831.125,557.6006,835.125,547.6006,831.125,551.6006" style="stroke:#181818;stroke-width:1.0;"/><line style="stroke:#181818;stroke-width:1.0;" x1="1553.5" x2="1553.5" y1="275.0002" y2="295.0002"/><polygon fill="#181818" points="1549.5,285.0002,1553.5,295.0002,1557.5,285.0002,1553.5,289.0002" style="stroke:#181818;stroke-width:1.0;"/><line style="stroke:#181818;stroke-width:1.0;" x1="1331.875" x2="1331.875" y1="521.2005" y2="556.2005"/><polygon fill="#181818" points="1327.875,546.2005,1331.875,556.2005,1335.875,546.2005,1331.875,550.2005" style="stroke:#181818;stroke-width:1.0;"/><line style="stroke:#181818;stroke-width:1.0;" x1="1363.625" x2="1331.875" y1="464.8004" y2="464.8004"/><line style="stroke:#181818;stroke-width:1.0;" x1="1331.875" x2="1331.875" y1="464.8004" y2="486.8004"/><polygon fill="#181818" points="1327.875,476.8004,1331.875,486.8004,1335.875,476.8004,1331.875,480.8004" style="stroke:#181818;stroke-width:1.0;"/><line style="stroke:#181818;stroke-width:1.0;" x1="1486.625" x2="1518.375" y1="464.8004" y2="464.8004"/><line style="stroke:#181818;stroke-width:1.0;" x1="1518.375" x2="1518.375" y1="464.8004" y2="486.8004"/><polygon fill="#181818" points="1514.375,476.8004,1518.375,486.8004,1522.375,476.8004,1518.375,480.8004" style="stroke:#181818;stroke-width:1.0;"/><line style="stroke:#181818;stroke-width:1.0;" x1="1331.875" x2="1331.875" y1="590.6006" y2="608.6006"/><line style="stroke:#181818;stroke-width:1.0;" x1="1331.875" x2="1413.125" y1="608.6006" y2="608.6006"/><polygon fill="#181818" points="1403.125,604.6006,1413.125,608.6006,1403.125,612.6006,1407.125,608.6006" style="stroke:#181818;stroke-width:1.0;"/><line style="stroke:#181818;stroke-width:1.0;" x1="1518.375" x2="1518.375" y1="521.2005" y2="608.6006"/><line style="stroke:#181818;stroke-width:1.0;" x1="1518.375" x2="1437.125" y1="608.6006" y2="608.6006"/><polygon fill="#181818" points="1447.125,604.6006,1437.125,608.6006,1447.125,612.6006,1443.125,608.6006" style="stroke:#181818;stroke-width:1.0;"/><line style="stroke:#181818;stroke-width:1.0;" x1="1425.125" x2="1425.125" y1="417.8004" y2="452.8004"/><polygon fill="#181818" points="1421.125,442.8004,1425.125,452.8004,1429.125,442.8004,1425.125,446.8004" style="stroke:#181818;stroke-width:1.0;"/><line style="stroke:#181818;stroke-width:1.0;" x1="1473" x2="1425.125" y1="361.4003" y2="361.4003"/><line style="stroke:#181818;stroke-width:1.0;" x1="1425.125" x2="1425.125" y1="361.4003" y2="383.4003"/><polygon fill="#181818" points="1421.125,373.4003,1425.125,383.4003,1429.125,373.4003,1425.125,377.4003" style="stroke:#181818;stroke-width:1.0;"/><line style="stroke:#181818;stroke-width:1.0;" x1="1634" x2="1681.875" y1="361.4003" y2="361.4003"/><line style="stroke:#181818;stroke-width:1.0;" x1="1681.875" x2="1681.875" y1="361.4003" y2="383.4003"/><polygon fill="#181818" points="1677.875,373.4003,1681.875,383.4003,1685.875,373.4003,1681.875,377.4003" style="stroke:#181818;stroke-width:1.0;"/><line style="stroke:#181818;stroke-width:1.0;" x1="1425.125" x2="1425.125" y1="620.6006" y2="638.6006"/><line style="stroke:#181818;stroke-width:1.0;" x1="1425.125" x2="1541.5" y1="638.6006" y2="638.6006"/><polygon fill="#181818" points="1531.5,634.6006,1541.5,638.6006,1531.5,642.6006,1535.5,638.6006" style="stroke:#181818;stroke-width:1.0;"/><line style="stroke:#181818;stroke-width:1.0;" x1="1681.875" x2="1681.875" y1="417.8004" y2="638.6006"/><line style="stroke:#181818;stroke-width:1.0;" x1="1681.875" x2="1565.5" y1="638.6006" y2="638.6006"/><polygon fill="#181818" points="1575.5,634.6006,1565.5,638.6006,1575.5,642.6006,1571.5,638.6006" style="stroke:#181818;stroke-width:1.0;"/><line style="stroke:#181818;stroke-width:1.0;" x1="1553.5" x2="1553.5" y1="329.4003" y2="349.4003"/><polygon fill="#181818" points="1549.5,339.4003,1553.5,349.4003,1557.5,339.4003,1553.5,343.4003" style="stroke:#181818;stroke-width:1.0;"/><line style="stroke:#181818;stroke-width:1.0;" x1="2014.875" x2="2014.875" y1="554.9006" y2="589.9006"/><polygon fill="#181818" points="2010.875,579.9006,2014.875,589.9006,2018.875,579.9006,2014.875,583.9006" style="stroke:#181818;stroke-width:1.0;"/><line style="stroke:#181818;stroke-width:1.0;" x1="2014.875" x2="2014.875" y1="624.3007" y2="659.3007"/><polygon fill="#181818" points="2010.875,649.3007,2014.875,659.3007,2018.875,649.3007,2014.875,653.3007" style="stroke:#181818;stroke-width:1.0;"/><line style="stroke:#181818;stroke-width:1.0;" x1="2014.875" x2="2014.875" y1="693.7008" y2="715.4008"/><polygon fill="#181818" points="2010.875,705.4008,2014.875,715.4008,2018.875,705.4008,2014.875,709.4008" style="stroke:#181818;stroke-width:1.0;"/><line style="stroke:#181818;stroke-width:1.0;" x1="268.5" x2="268.5" y1="220.6001" y2="240.6001"/><polygon fill="#181818" points="264.5,230.6001,268.5,240.6001,272.5,230.6001,268.5,234.6001" style="stroke:#181818;stroke-width:1.0;"/><line style="stroke:#181818;stroke-width:1.0;" x1="268.5" x2="268.5" y1="1038.7013" y2="1058.7013"/><polygon fill="#181818" points="264.5,1048.7013,268.5,1058.7013,272.5,1048.7013,268.5,1052.7013" style="stroke:#181818;stroke-width:1.0;"/><line style="stroke:#181818;stroke-width:1.0;" x1="831.125" x2="831.125" y1="220.6001" y2="240.6001"/><polygon fill="#181818" points="827.125,230.6001,831.125,240.6001,835.125,230.6001,831.125,234.6001" style="stroke:#181818;stroke-width:1.0;"/><line style="stroke:#181818;stroke-width:1.0;" x1="831.125" x2="831.125" y1="969.3012" y2="1058.7013"/><polygon fill="#181818" points="827.125,1048.7013,831.125,1058.7013,835.125,1048.7013,831.125,1052.7013" style="stroke:#181818;stroke-width:1.0;"/><line style="stroke:#181818;stroke-width:1.0;" x1="1553.5" x2="1553.5" y1="220.6001" y2="240.6001"/><polygon fill="#181818" points="1549.5,230.6001,1553.5,240.6001,1557.5,230.6001,1553.5,234.6001" style="stroke:#181818;stroke-width:1.0;"/><line style="stroke:#181818;stroke-width:1.0;" x1="1553.5" x2="1553.5" y1="650.6006" y2="1058.7013"/><polygon fill="#181818" points="1549.5,1048.7013,1553.5,1058.7013,1557.5,1048.7013,1553.5,1052.7013" style="stroke:#181818;stroke-width:1.0;"/><line style="stroke:#181818;stroke-width:1.0;" x1="351.5" x2="768.625" y1="208.6001" y2="208.6001"/><polygon fill="#181818" points="758.625,204.6001,768.625,208.6001,758.625,212.6001,762.625,208.6001" style="stroke:#181818;stroke-width:1.0;"/><line style="stroke:#181818;stroke-width:1.0;" x1="893.625" x2="1486" y1="208.6001" y2="208.6001"/><polygon fill="#181818" points="1476,204.6001,1486,208.6001,1476,212.6001,1480,208.6001" style="stroke:#181818;stroke-width:1.0;"/><line style="stroke:#181818;stroke-width:1.0;" x1="1130.4375" x2="1130.4375" y1="176.6001" y2="181.6001"/><line style="stroke:#181818;stroke-width:1.0;" x1="1130.4375" x2="268.5" y1="181.6001" y2="181.6001"/><line style="stroke:#181818;stroke-width:1.0;" x1="268.5" x2="268.5" y1="181.6001" y2="196.6001"/><polygon fill="#181818" points="264.5,186.6001,268.5,196.6001,272.5,186.6001,268.5,190.6001" style="stroke:#181818;stroke-width:1.0;"/><line style="stroke:#181818;stroke-width:1.0;" x1="1621" x2="2014.875" y1="208.6001" y2="208.6001"/><line style="stroke:#181818;stroke-width:1.0;" x1="2014.875" x2="2014.875" y1="208.6001" y2="520.5005"/><polygon fill="#181818" points="2010.875,510.5005,2014.875,520.5005,2018.875,510.5005,2014.875,514.5005" style="stroke:#181818;stroke-width:1.0;"/><line style="stroke:#181818;stroke-width:1.0;" x1="2014.875" x2="2014.875" y1="749.8009" y2="1058.7013"/><polygon fill="#181818" points="2010.875,1048.7013,2014.875,1058.7013,2018.875,1048.7013,2014.875,1052.7013" style="stroke:#181818;stroke-width:1.0;"/><line style="stroke:#181818;stroke-width:1.0;" x1="268.5" x2="2014.875" y1="1058.7013" y2="1058.7013"/><line style="stroke:#181818;stroke-width:1.0;" x1="1130.4375" x2="1130.4375" y1="1058.7013" y2="1078.7013"/><polygon fill="#181818" points="1126.4375,1068.7013,1130.4375,1078.7013,1134.4375,1068.7013,1130.4375,1072.7013" style="stroke:#181818;stroke-width:1.0;"/><!--SRC=[rLPBRjH04Dtx5AMinbB20J8IQF0CA5BuvRS08LIqQvmITlVGtHubt2RBBBBY04ZuObHxRCTs4XH8XCGg4tVLgrUlNdyy-vpWEFdqafndez4kjBUaiM3IthZau7W-ImlMkp1JdjVips7Ec5aieiXvj3xQhTT1uveo18GQgVgk8IKOWasZtKDsdWg4efGeYv3B_nWYQH09T1O2jIT9YdW9avy_tfNLfKGwGZX5HHOeXxhqinZyAUa8O6VdwOV44jfXuO-o1D3m3BcWSbPI4hOsqQzBMfjXpjPqapGc_CBOeipHiWciGxeApKxx9LXdbfoqXQ6LYJR5PqlReD1JPcnrXTjjkwcnuRjMf_9jIVB7mVwRPBQ_EDo65MO61Ez9F40dlHO8M7P4cjKJp3cLPfggIsj4Fft23hmtQGCHb9pNwome5v9WN2CVJ5nr5TTH0lRAX6v5OskD3KgDor7kABJMPIH6hybwjcqVkL6OanD771ybqpQirRFfeY6hZ6xJ93W6pE4vgY-1_kpjNfiSs7UAm-AC9HTlezzheBeCOJ0vCkXyFBqE43kNejWtYRd3XBtWH7G8qh9ePZBJhen5k27SgApqmyle-bSK049NYvJzsBMTgxl9Eyf9gR1BeTH3id0-ClO6yNukbjYDf64Ccucaiha61GOMB8omPzMCxxzsvyInwDfr9BJY-pWMM_UaVsRVpdMFxU6X6mGhRmxNV-dYdCK2Z-pZ1lCk9y-RPkhJsEWbsw9_8jUQrqLLioZjreXrqAtk6WtS6U72laph4wAN_9inB_fX3nnof-fGA24p7l431dbZlyYTH7b8x7Ko7GyT9YTo3-zffoolma39nV2tapwWZ0FPy0nnznbt_w4nuD2C_CWYQxcB1y3oU97yuOswAaaWv7o0hoLNbqBK-Uf23g60MJDrPVWccptKGbU_JHJZ04Lns5wztHKrIZblLhy0]--></g></svg>