<?xml version="1.0" encoding="us-ascii" standalone="no"?><svg xmlns="http://www.w3.org/2000/svg" xmlns:xlink="http://www.w3.org/1999/xlink" contentStyleType="text/css" height="1063px" preserveAspectRatio="none" style="width:2452px;height:1063px;background:#FFFFFF;" version="1.1" viewBox="0 0 2452 1063" width="2452px" zoomAndPan="magnify"><defs/><g><text fill="#000000" font-family="sans-serif" font-size="14" font-weight="bold" lengthAdjust="spacing" textLength="431" x="1011.5" y="28.0059">UC_ConsultarReportesUsuariosEntrenador: Sequence Diagram</text><rect fill="#FFFFFF" height="821.2002" style="stroke:#181818;stroke-width:1.0;" width="10" x="294.5" y="151.1999"/><rect fill="#FFFFFF" height="453.0001" style="stroke:#181818;stroke-width:1.0;" width="10" x="982" y="519.4"/><rect fill="#FFFFFF" height="482.6001" style="stroke:#181818;stroke-width:1.0;" width="10" x="1379" y="489.8"/><rect fill="#FFFFFF" height="30" style="stroke:#181818;stroke-width:1.0;" width="10" x="1661" y="780.8002"/><rect fill="#FFFFFF" height="29.6" style="stroke:#181818;stroke-width:1.0;" width="10" x="1824" y="460.2"/><rect fill="#FFFFFF" height="59.2" style="stroke:#181818;stroke-width:1.0;" width="10" x="1965" y="180.7999"/><rect fill="#FFFFFF" height="423.4001" style="stroke:#181818;stroke-width:1.0;" width="10" x="2090" y="549"/><rect fill="#FFFFFF" height="29.6" style="stroke:#181818;stroke-width:1.0;" width="10" x="2237" y="578.6001"/><rect fill="#FFFFFF" height="334.6" style="stroke:#181818;stroke-width:1.0;" width="10" x="2370.5" y="637.8001"/><rect fill="none" height="312.6" style="stroke:#000000;stroke-width:1.5;" width="1546.5" x="898.5" y="652.8001"/><line style="stroke:#181818;stroke-width:0.5;stroke-dasharray:5.0,5.0;" x1="43" x2="43" y1="119.5999" y2="982.4001"/><line style="stroke:#181818;stroke-width:0.5;stroke-dasharray:5.0,5.0;" x1="299" x2="299" y1="119.5999" y2="982.4001"/><line style="stroke:#181818;stroke-width:0.5;stroke-dasharray:5.0,5.0;" x1="577.5" x2="577.5" y1="119.5999" y2="982.4001"/><line style="stroke:#181818;stroke-width:0.5;stroke-dasharray:5.0,5.0;" x1="785.5" x2="785.5" y1="119.5999" y2="982.4001"/><line style="stroke:#181818;stroke-width:0.5;stroke-dasharray:5.0,5.0;" x1="986.5" x2="986.5" y1="119.5999" y2="982.4001"/><line style="stroke:#181818;stroke-width:0.5;stroke-dasharray:5.0,5.0;" x1="1148.5" x2="1148.5" y1="119.5999" y2="982.4001"/><line style="stroke:#181818;stroke-width:0.5;stroke-dasharray:5.0,5.0;" x1="1383.5" x2="1383.5" y1="119.5999" y2="982.4001"/><line style="stroke:#181818;stroke-width:0.5;stroke-dasharray:5.0,5.0;" x1="1665.5" x2="1665.5" y1="119.5999" y2="982.4001"/><line style="stroke:#181818;stroke-width:0.5;stroke-dasharray:5.0,5.0;" x1="1828.5" x2="1828.5" y1="119.5999" y2="982.4001"/><line style="stroke:#181818;stroke-width:0.5;stroke-dasharray:5.0,5.0;" x1="1969.5" x2="1969.5" y1="119.5999" y2="982.4001"/><line style="stroke:#181818;stroke-width:0.5;stroke-dasharray:5.0,5.0;" x1="2094.5" x2="2094.5" y1="119.5999" y2="982.4001"/><line style="stroke:#181818;stroke-width:0.5;stroke-dasharray:5.0,5.0;" x1="2242" x2="2242" y1="119.5999" y2="982.4001"/><line style="stroke:#181818;stroke-width:0.5;stroke-dasharray:5.0,5.0;" x1="2375" x2="2375" y1="119.5999" y2="982.4001"/><text fill="#000000" font-family="sans-serif" font-size="14" lengthAdjust="spacing" textLength="71" x="5" y="115.8059">Entrenador</text><ellipse cx="43.5" cy="51.2999" fill="#E2E2F0" rx="8" ry="8" style="stroke:#181818;stroke-width:0.5;"/><path d="M43.5,59.2999 L43.5,86.2999 M30.5,67.2999 L56.5,67.2999 M43.5,86.2999 L30.5,101.2999 M43.5,86.2999 L56.5,101.2999 " fill="none" style="stroke:#181818;stroke-width:0.5;"/><text fill="#000000" font-family="sans-serif" font-size="14" lengthAdjust="spacing" textLength="71" x="5" y="994.4061">Entrenador</text><ellipse cx="43.5" cy="1006.7" fill="#E2E2F0" rx="8" ry="8" style="stroke:#181818;stroke-width:0.5;"/><path d="M43.5,1014.7 L43.5,1041.7 M30.5,1022.7 L56.5,1022.7 M43.5,1041.7 L30.5,1056.7 M43.5,1041.7 L56.5,1056.7 " fill="none" style="stroke:#181818;stroke-width:0.5;"/><rect fill="#E2E2F0" height="36" rx="2.5" ry="2.5" style="stroke:#181818;stroke-width:0.5;" width="163" x="218" y="82.5999"/><ellipse cx="236" cy="100.5999" fill="#DA70D6" rx="11" ry="11" style="stroke:#181818;stroke-width:1.0;"/><path d="M233.8594,101.9905 L235.4375,101.9905 C236.1094,102.2405 237.5938,103.9124 238.4688,105.4905 L238.5313,105.5999 L239.9063,105.5999 C240.2344,105.5999 240.5156,105.553 240.6563,105.4749 C240.9219,105.3186 241.0938,105.0217 241.0938,104.7092 C241.0938,104.4436 240.9375,104.1624 240.7188,104.0061 C240.5313,103.8655 240.3594,103.8342 239.9063,103.8342 L239.7188,103.8342 C239.0625,102.8499 238.3906,102.053 237.6563,101.4124 C238.8594,100.7874 239.4375,99.9905 239.4375,98.9592 C239.4375,97.2249 237.8906,96.0061 235.6406,96.0061 L231.8438,96.0061 C231.3906,96.0061 231.2656,96.0217 231.0938,96.1311 C230.8281,96.303 230.6563,96.5842 230.6563,96.8811 C230.6563,97.1624 230.8125,97.4436 231.0313,97.5999 C231.2188,97.7249 231.4063,97.7561 231.8438,97.7561 L232.0313,97.7561 L232.0313,103.8342 L231.8438,103.8342 C231.4219,103.8342 231.2656,103.8655 231.0938,103.9749 C230.8281,104.1155 230.6563,104.4124 230.6563,104.7092 C230.6563,105.2874 231.0625,105.5999 231.8438,105.5999 L234.3906,105.5999 C234.75,105.5999 235,105.553 235.1406,105.4749 C235.4063,105.3186 235.5781,105.0217 235.5781,104.7092 C235.5781,104.4436 235.4531,104.178 235.2031,104.0061 C235.0156,103.8655 234.875,103.8342 234.3906,103.8342 L233.8594,103.8342 L233.8594,101.9905 Z M233.8594,100.2405 L233.8594,97.7561 L235.7031,97.7561 C236.7344,97.7561 237.5,98.2405 237.5,98.8967 C237.5,99.678 236.4844,100.2405 235.0938,100.2405 L233.8594,100.2405 Z " fill="#000000"/><text fill="#000000" font-family="sans-serif" font-size="14" lengthAdjust="spacing" textLength="121" x="253" y="102.6058">ReportSearchPage</text><rect fill="#E2E2F0" height="36" rx="2.5" ry="2.5" style="stroke:#181818;stroke-width:0.5;" width="163" x="218" y="981.4001"/><ellipse cx="236" cy="999.4001" fill="#DA70D6" rx="11" ry="11" style="stroke:#181818;stroke-width:1.0;"/><path d="M233.8594,1000.7907 L235.4375,1000.7907 C236.1094,1001.0407 237.5938,1002.7126 238.4688,1004.2907 L238.5313,1004.4001 L239.9063,1004.4001 C240.2344,1004.4001 240.5156,1004.3532 240.6563,1004.2751 C240.9219,1004.1189 241.0938,1003.822 241.0938,1003.5095 C241.0938,1003.2439 240.9375,1002.9626 240.7188,1002.8064 C240.5313,1002.6657 240.3594,1002.6345 239.9063,1002.6345 L239.7188,1002.6345 C239.0625,1001.6501 238.3906,1000.8532 237.6563,1000.2126 C238.8594,999.5876 239.4375,998.7907 239.4375,997.7595 C239.4375,996.0251 237.8906,994.8064 235.6406,994.8064 L231.8438,994.8064 C231.3906,994.8064 231.2656,994.822 231.0938,994.9314 C230.8281,995.1032 230.6563,995.3845 230.6563,995.6814 C230.6563,995.9626 230.8125,996.2439 231.0313,996.4001 C231.2188,996.5251 231.4063,996.5564 231.8438,996.5564 L232.0313,996.5564 L232.0313,1002.6345 L231.8438,1002.6345 C231.4219,1002.6345 231.2656,1002.6657 231.0938,1002.7751 C230.8281,1002.9157 230.6563,1003.2126 230.6563,1003.5095 C230.6563,1004.0876 231.0625,1004.4001 231.8438,1004.4001 L234.3906,1004.4001 C234.75,1004.4001 235,1004.3532 235.1406,1004.2751 C235.4063,1004.1189 235.5781,1003.822 235.5781,1003.5095 C235.5781,1003.2439 235.4531,1002.9782 235.2031,1002.8064 C235.0156,1002.6657 234.875,1002.6345 234.3906,1002.6345 L233.8594,1002.6345 L233.8594,1000.7907 Z M233.8594,999.0407 L233.8594,996.5564 L235.7031,996.5564 C236.7344,996.5564 237.5,997.0407 237.5,997.697 C237.5,998.4782 236.4844,999.0407 235.0938,999.0407 L233.8594,999.0407 Z " fill="#000000"/><text fill="#000000" font-family="sans-serif" font-size="14" lengthAdjust="spacing" textLength="121" x="253" y="1001.4061">ReportSearchPage</text><rect fill="#E2E2F0" height="36" rx="2.5" ry="2.5" style="stroke:#181818;stroke-width:0.5;" width="172" x="491.5" y="82.5999"/><ellipse cx="509.5" cy="100.5999" fill="#D3D3D3" rx="11" ry="11" style="stroke:#181818;stroke-width:1.0;"/><path d="M504.5,101.7561 C504.5,104.2561 506.6406,106.0686 509.5625,106.0686 C510.7969,106.0686 511.9688,105.7717 512.7188,105.2561 C513.3281,104.8342 513.6563,104.4124 513.6563,104.0061 C513.6563,103.5374 513.2344,103.1311 512.7344,103.1311 C512.5,103.1311 512.2813,103.2092 512.0781,103.4124 C511.6406,103.8499 511.6406,103.8499 511.4688,103.9436 C511.0156,104.178 510.375,104.3186 509.6094,104.3186 C507.6094,104.3186 506.3281,103.303 506.3281,101.7249 L506.3281,100.678 C506.3281,98.9749 507.5469,97.7717 509.25,97.7717 C509.8281,97.7717 510.4063,97.9124 510.875,98.1624 C511.3438,98.428 511.5156,98.6155 511.5781,98.9749 C511.7031,99.6467 511.9531,99.8967 512.4844,99.8967 C512.7656,99.8967 513.0469,99.7561 513.2344,99.5374 C513.3594,99.3655 513.4063,99.1936 513.4063,98.7561 L513.4063,97.3967 C513.4063,96.9749 513.3906,96.8342 513.2656,96.6624 C513.0938,96.4124 512.8125,96.2561 512.4844,96.2561 C512.1719,96.2561 511.9688,96.3655 511.75,96.6311 C510.5781,96.1311 510.1406,96.0217 509.1875,96.0217 C506.5156,96.0217 504.5,98.0374 504.5,100.6624 L504.5,101.7561 Z " fill="#000000"/><text fill="#000000" font-family="sans-serif" font-size="14" lengthAdjust="spacing" textLength="130" x="526.5" y="102.6058">Input (Email Search)</text><rect fill="#E2E2F0" height="36" rx="2.5" ry="2.5" style="stroke:#181818;stroke-width:0.5;" width="172" x="491.5" y="981.4001"/><ellipse cx="509.5" cy="999.4001" fill="#D3D3D3" rx="11" ry="11" style="stroke:#181818;stroke-width:1.0;"/><path d="M504.5,1000.5564 C504.5,1003.0564 506.6406,1004.8689 509.5625,1004.8689 C510.7969,1004.8689 511.9688,1004.572 512.7188,1004.0564 C513.3281,1003.6345 513.6563,1003.2126 513.6563,1002.8064 C513.6563,1002.3376 513.2344,1001.9314 512.7344,1001.9314 C512.5,1001.9314 512.2813,1002.0095 512.0781,1002.2126 C511.6406,1002.6501 511.6406,1002.6501 511.4688,1002.7439 C511.0156,1002.9782 510.375,1003.1189 509.6094,1003.1189 C507.6094,1003.1189 506.3281,1002.1032 506.3281,1000.5251 L506.3281,999.4782 C506.3281,997.7751 507.5469,996.572 509.25,996.572 C509.8281,996.572 510.4063,996.7126 510.875,996.9626 C511.3438,997.2282 511.5156,997.4157 511.5781,997.7751 C511.7031,998.447 511.9531,998.697 512.4844,998.697 C512.7656,998.697 513.0469,998.5564 513.2344,998.3376 C513.3594,998.1657 513.4063,997.9939 513.4063,997.5564 L513.4063,996.197 C513.4063,995.7751 513.3906,995.6345 513.2656,995.4626 C513.0938,995.2126 512.8125,995.0564 512.4844,995.0564 C512.1719,995.0564 511.9688,995.1657 511.75,995.4314 C510.5781,994.9314 510.1406,994.822 509.1875,994.822 C506.5156,994.822 504.5,996.8376 504.5,999.4626 L504.5,1000.5564 Z " fill="#000000"/><text fill="#000000" font-family="sans-serif" font-size="14" lengthAdjust="spacing" textLength="130" x="526.5" y="1001.4061">Input (Email Search)</text><rect fill="#E2E2F0" height="36" rx="2.5" ry="2.5" style="stroke:#181818;stroke-width:0.5;" width="225" x="673.5" y="82.5999"/><ellipse cx="691.5" cy="100.5999" fill="#D3D3D3" rx="11" ry="11" style="stroke:#181818;stroke-width:1.0;"/><path d="M686.5,101.7561 C686.5,104.2561 688.6406,106.0686 691.5625,106.0686 C692.7969,106.0686 693.9688,105.7717 694.7188,105.2561 C695.3281,104.8342 695.6563,104.4124 695.6563,104.0061 C695.6563,103.5374 695.2344,103.1311 694.7344,103.1311 C694.5,103.1311 694.2813,103.2092 694.0781,103.4124 C693.6406,103.8499 693.6406,103.8499 693.4688,103.9436 C693.0156,104.178 692.375,104.3186 691.6094,104.3186 C689.6094,104.3186 688.3281,103.303 688.3281,101.7249 L688.3281,100.678 C688.3281,98.9749 689.5469,97.7717 691.25,97.7717 C691.8281,97.7717 692.4063,97.9124 692.875,98.1624 C693.3438,98.428 693.5156,98.6155 693.5781,98.9749 C693.7031,99.6467 693.9531,99.8967 694.4844,99.8967 C694.7656,99.8967 695.0469,99.7561 695.2344,99.5374 C695.3594,99.3655 695.4063,99.1936 695.4063,98.7561 L695.4063,97.3967 C695.4063,96.9749 695.3906,96.8342 695.2656,96.6624 C695.0938,96.4124 694.8125,96.2561 694.4844,96.2561 C694.1719,96.2561 693.9688,96.3655 693.75,96.6311 C692.5781,96.1311 692.1406,96.0217 691.1875,96.0217 C688.5156,96.0217 686.5,98.0374 686.5,100.6624 L686.5,101.7561 Z " fill="#000000"/><text fill="#000000" font-family="sans-serif" font-size="14" lengthAdjust="spacing" textLength="183" x="708.5" y="102.6058">UsersTable (Search Results)</text><rect fill="#E2E2F0" height="36" rx="2.5" ry="2.5" style="stroke:#181818;stroke-width:0.5;" width="225" x="673.5" y="981.4001"/><ellipse cx="691.5" cy="999.4001" fill="#D3D3D3" rx="11" ry="11" style="stroke:#181818;stroke-width:1.0;"/><path d="M686.5,1000.5564 C686.5,1003.0564 688.6406,1004.8689 691.5625,1004.8689 C692.7969,1004.8689 693.9688,1004.572 694.7188,1004.0564 C695.3281,1003.6345 695.6563,1003.2126 695.6563,1002.8064 C695.6563,1002.3376 695.2344,1001.9314 694.7344,1001.9314 C694.5,1001.9314 694.2813,1002.0095 694.0781,1002.2126 C693.6406,1002.6501 693.6406,1002.6501 693.4688,1002.7439 C693.0156,1002.9782 692.375,1003.1189 691.6094,1003.1189 C689.6094,1003.1189 688.3281,1002.1032 688.3281,1000.5251 L688.3281,999.4782 C688.3281,997.7751 689.5469,996.572 691.25,996.572 C691.8281,996.572 692.4063,996.7126 692.875,996.9626 C693.3438,997.2282 693.5156,997.4157 693.5781,997.7751 C693.7031,998.447 693.9531,998.697 694.4844,998.697 C694.7656,998.697 695.0469,998.5564 695.2344,998.3376 C695.3594,998.1657 695.4063,997.9939 695.4063,997.5564 L695.4063,996.197 C695.4063,995.7751 695.3906,995.6345 695.2656,995.4626 C695.0938,995.2126 694.8125,995.0564 694.4844,995.0564 C694.1719,995.0564 693.9688,995.1657 693.75,995.4314 C692.5781,994.9314 692.1406,994.822 691.1875,994.822 C688.5156,994.822 686.5,996.8376 686.5,999.4626 L686.5,1000.5564 Z " fill="#000000"/><text fill="#000000" font-family="sans-serif" font-size="14" lengthAdjust="spacing" textLength="183" x="708.5" y="1001.4061">UsersTable (Search Results)</text><rect fill="#E2E2F0" height="47.5999" rx="2.5" ry="2.5" style="stroke:#181818;stroke-width:0.5;" width="157" x="908.5" y="71"/><ellipse cx="926.5" cy="89" fill="#FFFF00" rx="11" ry="11" style="stroke:#181818;stroke-width:1.0;"/><path d="M925.3594,90.0625 L926.6719,90.0625 L926.6719,90.1094 C926.6719,90.5 926.7031,90.6875 926.7969,90.8438 C926.9688,91.0938 927.2656,91.2656 927.5781,91.2656 C927.8594,91.2656 928.1406,91.125 928.3281,90.9063 C928.4531,90.7188 928.5,90.5625 928.5,90.1094 L928.5,88.2813 C928.5,87.8594 928.4844,87.7344 928.3594,87.5625 C928.2031,87.2969 927.9063,87.125 927.5781,87.125 C927.2813,87.125 927.0156,87.2656 926.8438,87.4844 C926.7031,87.6719 926.6719,87.8438 926.6719,88.2813 L926.6719,88.3281 L925.3594,88.3281 L925.3594,86.1563 L929.5781,86.1563 L929.5781,86.9219 C929.5781,87.3125 929.6094,87.4844 929.7188,87.6406 C929.8906,87.9063 930.1719,88.0625 930.5,88.0625 C930.7813,88.0625 931.0625,87.9375 931.25,87.7031 C931.3906,87.5156 931.4219,87.375 931.4219,86.9219 L931.4219,84.4063 L923.3438,84.4063 C922.9063,84.4063 922.7656,84.4219 922.5938,84.5313 C922.3281,84.7031 922.1563,84.9844 922.1563,85.2813 C922.1563,85.5625 922.3125,85.8438 922.5313,86 C922.7188,86.125 922.9063,86.1563 923.3438,86.1563 L923.5313,86.1563 L923.5313,92.25 L923.3438,92.25 C922.9219,92.25 922.7656,92.2813 922.5938,92.375 C922.3281,92.5313 922.1563,92.8281 922.1563,93.1094 C922.1563,93.6875 922.5625,94 923.3438,94 L927,94 C927.7813,94 928.1875,93.7188 928.1875,93.1094 C928.1875,92.8438 928.0469,92.5938 927.8125,92.4219 C927.625,92.2813 927.4531,92.25 927,92.25 L925.3594,92.25 L925.3594,90.0625 Z " fill="#000000"/><text fill="#000000" font-family="sans-serif" font-size="14" lengthAdjust="spacing" textLength="115" x="943.5" y="91.0059">report_backend.ts</text><text fill="#000000" font-family="sans-serif" font-size="14" lengthAdjust="spacing" textLength="103" x="949.5" y="107.8059">getUserReport()</text><rect fill="#E2E2F0" height="47.5999" rx="2.5" ry="2.5" style="stroke:#181818;stroke-width:0.5;" width="157" x="908.5" y="981.4001"/><ellipse cx="926.5" cy="999.4001" fill="#FFFF00" rx="11" ry="11" style="stroke:#181818;stroke-width:1.0;"/><path d="M925.3594,1000.4626 L926.6719,1000.4626 L926.6719,1000.5095 C926.6719,1000.9001 926.7031,1001.0876 926.7969,1001.2439 C926.9688,1001.4939 927.2656,1001.6657 927.5781,1001.6657 C927.8594,1001.6657 928.1406,1001.5251 928.3281,1001.3064 C928.4531,1001.1189 928.5,1000.9626 928.5,1000.5095 L928.5,998.6814 C928.5,998.2595 928.4844,998.1345 928.3594,997.9626 C928.2031,997.697 927.9063,997.5251 927.5781,997.5251 C927.2813,997.5251 927.0156,997.6657 926.8438,997.8845 C926.7031,998.072 926.6719,998.2439 926.6719,998.6814 L926.6719,998.7282 L925.3594,998.7282 L925.3594,996.5564 L929.5781,996.5564 L929.5781,997.322 C929.5781,997.7126 929.6094,997.8845 929.7188,998.0407 C929.8906,998.3064 930.1719,998.4626 930.5,998.4626 C930.7813,998.4626 931.0625,998.3376 931.25,998.1032 C931.3906,997.9157 931.4219,997.7751 931.4219,997.322 L931.4219,994.8064 L923.3438,994.8064 C922.9063,994.8064 922.7656,994.822 922.5938,994.9314 C922.3281,995.1032 922.1563,995.3845 922.1563,995.6814 C922.1563,995.9626 922.3125,996.2439 922.5313,996.4001 C922.7188,996.5251 922.9063,996.5564 923.3438,996.5564 L923.5313,996.5564 L923.5313,1002.6501 L923.3438,1002.6501 C922.9219,1002.6501 922.7656,1002.6814 922.5938,1002.7751 C922.3281,1002.9314 922.1563,1003.2282 922.1563,1003.5095 C922.1563,1004.0876 922.5625,1004.4001 923.3438,1004.4001 L927,1004.4001 C927.7813,1004.4001 928.1875,1004.1189 928.1875,1003.5095 C928.1875,1003.2439 928.0469,1002.9939 927.8125,1002.822 C927.625,1002.6814 927.4531,1002.6501 927,1002.6501 L925.3594,1002.6501 L925.3594,1000.4626 Z " fill="#000000"/><text fill="#000000" font-family="sans-serif" font-size="14" lengthAdjust="spacing" textLength="115" x="943.5" y="1001.4061">report_backend.ts</text><text fill="#000000" font-family="sans-serif" font-size="14" lengthAdjust="spacing" textLength="103" x="949.5" y="1018.206">getUserReport()</text><rect fill="#E2E2F0" height="47.5999" rx="2.5" ry="2.5" style="stroke:#181818;stroke-width:0.5;" width="147" x="1075.5" y="71"/><ellipse cx="1093.5" cy="89" fill="#FFFF00" rx="11" ry="11" style="stroke:#181818;stroke-width:1.0;"/><path d="M1092.3594,90.0625 L1093.6719,90.0625 L1093.6719,90.1094 C1093.6719,90.5 1093.7031,90.6875 1093.7969,90.8438 C1093.9688,91.0938 1094.2656,91.2656 1094.5781,91.2656 C1094.8594,91.2656 1095.1406,91.125 1095.3281,90.9063 C1095.4531,90.7188 1095.5,90.5625 1095.5,90.1094 L1095.5,88.2813 C1095.5,87.8594 1095.4844,87.7344 1095.3594,87.5625 C1095.2031,87.2969 1094.9063,87.125 1094.5781,87.125 C1094.2813,87.125 1094.0156,87.2656 1093.8438,87.4844 C1093.7031,87.6719 1093.6719,87.8438 1093.6719,88.2813 L1093.6719,88.3281 L1092.3594,88.3281 L1092.3594,86.1563 L1096.5781,86.1563 L1096.5781,86.9219 C1096.5781,87.3125 1096.6094,87.4844 1096.7188,87.6406 C1096.8906,87.9063 1097.1719,88.0625 1097.5,88.0625 C1097.7813,88.0625 1098.0625,87.9375 1098.25,87.7031 C1098.3906,87.5156 1098.4219,87.375 1098.4219,86.9219 L1098.4219,84.4063 L1090.3438,84.4063 C1089.9063,84.4063 1089.7656,84.4219 1089.5938,84.5313 C1089.3281,84.7031 1089.1563,84.9844 1089.1563,85.2813 C1089.1563,85.5625 1089.3125,85.8438 1089.5313,86 C1089.7188,86.125 1089.9063,86.1563 1090.3438,86.1563 L1090.5313,86.1563 L1090.5313,92.25 L1090.3438,92.25 C1089.9219,92.25 1089.7656,92.2813 1089.5938,92.375 C1089.3281,92.5313 1089.1563,92.8281 1089.1563,93.1094 C1089.1563,93.6875 1089.5625,94 1090.3438,94 L1094,94 C1094.7813,94 1095.1875,93.7188 1095.1875,93.1094 C1095.1875,92.8438 1095.0469,92.5938 1094.8125,92.4219 C1094.625,92.2813 1094.4531,92.25 1094,92.25 L1092.3594,92.25 L1092.3594,90.0625 Z " fill="#000000"/><text fill="#000000" font-family="sans-serif" font-size="14" lengthAdjust="spacing" textLength="105" x="1110.5" y="91.0059">user_backend.ts</text><text fill="#000000" font-family="sans-serif" font-size="14" lengthAdjust="spacing" textLength="82" x="1122" y="107.8059">getAllUsers()</text><rect fill="#E2E2F0" height="47.5999" rx="2.5" ry="2.5" style="stroke:#181818;stroke-width:0.5;" width="147" x="1075.5" y="981.4001"/><ellipse cx="1093.5" cy="999.4001" fill="#FFFF00" rx="11" ry="11" style="stroke:#181818;stroke-width:1.0;"/><path d="M1092.3594,1000.4626 L1093.6719,1000.4626 L1093.6719,1000.5095 C1093.6719,1000.9001 1093.7031,1001.0876 1093.7969,1001.2439 C1093.9688,1001.4939 1094.2656,1001.6657 1094.5781,1001.6657 C1094.8594,1001.6657 1095.1406,1001.5251 1095.3281,1001.3064 C1095.4531,1001.1189 1095.5,1000.9626 1095.5,1000.5095 L1095.5,998.6814 C1095.5,998.2595 1095.4844,998.1345 1095.3594,997.9626 C1095.2031,997.697 1094.9063,997.5251 1094.5781,997.5251 C1094.2813,997.5251 1094.0156,997.6657 1093.8438,997.8845 C1093.7031,998.072 1093.6719,998.2439 1093.6719,998.6814 L1093.6719,998.7282 L1092.3594,998.7282 L1092.3594,996.5564 L1096.5781,996.5564 L1096.5781,997.322 C1096.5781,997.7126 1096.6094,997.8845 1096.7188,998.0407 C1096.8906,998.3064 1097.1719,998.4626 1097.5,998.4626 C1097.7813,998.4626 1098.0625,998.3376 1098.25,998.1032 C1098.3906,997.9157 1098.4219,997.7751 1098.4219,997.322 L1098.4219,994.8064 L1090.3438,994.8064 C1089.9063,994.8064 1089.7656,994.822 1089.5938,994.9314 C1089.3281,995.1032 1089.1563,995.3845 1089.1563,995.6814 C1089.1563,995.9626 1089.3125,996.2439 1089.5313,996.4001 C1089.7188,996.5251 1089.9063,996.5564 1090.3438,996.5564 L1090.5313,996.5564 L1090.5313,1002.6501 L1090.3438,1002.6501 C1089.9219,1002.6501 1089.7656,1002.6814 1089.5938,1002.7751 C1089.3281,1002.9314 1089.1563,1003.2282 1089.1563,1003.5095 C1089.1563,1004.0876 1089.5625,1004.4001 1090.3438,1004.4001 L1094,1004.4001 C1094.7813,1004.4001 1095.1875,1004.1189 1095.1875,1003.5095 C1095.1875,1003.2439 1095.0469,1002.9939 1094.8125,1002.822 C1094.625,1002.6814 1094.4531,1002.6501 1094,1002.6501 L1092.3594,1002.6501 L1092.3594,1000.4626 Z " fill="#000000"/><text fill="#000000" font-family="sans-serif" font-size="14" lengthAdjust="spacing" textLength="105" x="1110.5" y="1001.4061">user_backend.ts</text><text fill="#000000" font-family="sans-serif" font-size="14" lengthAdjust="spacing" textLength="82" x="1122" y="1018.206">getAllUsers()</text><rect fill="#E2E2F0" height="36" rx="2.5" ry="2.5" style="stroke:#181818;stroke-width:0.5;" width="303" x="1232.5" y="82.5999"/><ellipse cx="1250.5" cy="100.5999" fill="#DA70D6" rx="11" ry="11" style="stroke:#181818;stroke-width:1.0;"/><path d="M1248.3594,101.9905 L1249.9375,101.9905 C1250.6094,102.2405 1252.0938,103.9124 1252.9688,105.4905 L1253.0313,105.5999 L1254.4063,105.5999 C1254.7344,105.5999 1255.0156,105.553 1255.1563,105.4749 C1255.4219,105.3186 1255.5938,105.0217 1255.5938,104.7092 C1255.5938,104.4436 1255.4375,104.1624 1255.2188,104.0061 C1255.0313,103.8655 1254.8594,103.8342 1254.4063,103.8342 L1254.2188,103.8342 C1253.5625,102.8499 1252.8906,102.053 1252.1563,101.4124 C1253.3594,100.7874 1253.9375,99.9905 1253.9375,98.9592 C1253.9375,97.2249 1252.3906,96.0061 1250.1406,96.0061 L1246.3438,96.0061 C1245.8906,96.0061 1245.7656,96.0217 1245.5938,96.1311 C1245.3281,96.303 1245.1563,96.5842 1245.1563,96.8811 C1245.1563,97.1624 1245.3125,97.4436 1245.5313,97.5999 C1245.7188,97.7249 1245.9063,97.7561 1246.3438,97.7561 L1246.5313,97.7561 L1246.5313,103.8342 L1246.3438,103.8342 C1245.9219,103.8342 1245.7656,103.8655 1245.5938,103.9749 C1245.3281,104.1155 1245.1563,104.4124 1245.1563,104.7092 C1245.1563,105.2874 1245.5625,105.5999 1246.3438,105.5999 L1248.8906,105.5999 C1249.25,105.5999 1249.5,105.553 1249.6406,105.4749 C1249.9063,105.3186 1250.0781,105.0217 1250.0781,104.7092 C1250.0781,104.4436 1249.9531,104.178 1249.7031,104.0061 C1249.5156,103.8655 1249.375,103.8342 1248.8906,103.8342 L1248.3594,103.8342 L1248.3594,101.9905 Z M1248.3594,100.2405 L1248.3594,97.7561 L1250.2031,97.7561 C1251.2344,97.7561 1252,98.2405 1252,98.8967 C1252,99.678 1250.9844,100.2405 1249.5938,100.2405 L1248.3594,100.2405 Z " fill="#000000"/><text fill="#000000" font-family="sans-serif" font-size="14" lengthAdjust="spacing" textLength="261" x="1267.5" y="102.6058">ReportPageComponent (Dynamic Route)</text><rect fill="#E2E2F0" height="36" rx="2.5" ry="2.5" style="stroke:#181818;stroke-width:0.5;" width="303" x="1232.5" y="981.4001"/><ellipse cx="1250.5" cy="999.4001" fill="#DA70D6" rx="11" ry="11" style="stroke:#181818;stroke-width:1.0;"/><path d="M1248.3594,1000.7907 L1249.9375,1000.7907 C1250.6094,1001.0407 1252.0938,1002.7126 1252.9688,1004.2907 L1253.0313,1004.4001 L1254.4063,1004.4001 C1254.7344,1004.4001 1255.0156,1004.3532 1255.1563,1004.2751 C1255.4219,1004.1189 1255.5938,1003.822 1255.5938,1003.5095 C1255.5938,1003.2439 1255.4375,1002.9626 1255.2188,1002.8064 C1255.0313,1002.6657 1254.8594,1002.6345 1254.4063,1002.6345 L1254.2188,1002.6345 C1253.5625,1001.6501 1252.8906,1000.8532 1252.1563,1000.2126 C1253.3594,999.5876 1253.9375,998.7907 1253.9375,997.7595 C1253.9375,996.0251 1252.3906,994.8064 1250.1406,994.8064 L1246.3438,994.8064 C1245.8906,994.8064 1245.7656,994.822 1245.5938,994.9314 C1245.3281,995.1032 1245.1563,995.3845 1245.1563,995.6814 C1245.1563,995.9626 1245.3125,996.2439 1245.5313,996.4001 C1245.7188,996.5251 1245.9063,996.5564 1246.3438,996.5564 L1246.5313,996.5564 L1246.5313,1002.6345 L1246.3438,1002.6345 C1245.9219,1002.6345 1245.7656,1002.6657 1245.5938,1002.7751 C1245.3281,1002.9157 1245.1563,1003.2126 1245.1563,1003.5095 C1245.1563,1004.0876 1245.5625,1004.4001 1246.3438,1004.4001 L1248.8906,1004.4001 C1249.25,1004.4001 1249.5,1004.3532 1249.6406,1004.2751 C1249.9063,1004.1189 1250.0781,1003.822 1250.0781,1003.5095 C1250.0781,1003.2439 1249.9531,1002.9782 1249.7031,1002.8064 C1249.5156,1002.6657 1249.375,1002.6345 1248.8906,1002.6345 L1248.3594,1002.6345 L1248.3594,1000.7907 Z M1248.3594,999.0407 L1248.3594,996.5564 L1250.2031,996.5564 C1251.2344,996.5564 1252,997.0407 1252,997.697 C1252,998.4782 1250.9844,999.0407 1249.5938,999.0407 L1248.3594,999.0407 Z " fill="#000000"/><text fill="#000000" font-family="sans-serif" font-size="14" lengthAdjust="spacing" textLength="261" x="1267.5" y="1001.4061">ReportPageComponent (Dynamic Route)</text><rect fill="#E2E2F0" height="36" rx="2.5" ry="2.5" style="stroke:#181818;stroke-width:0.5;" width="161" x="1585.5" y="82.5999"/><ellipse cx="1603.5" cy="100.5999" fill="#D3D3D3" rx="11" ry="11" style="stroke:#181818;stroke-width:1.0;"/><path d="M1598.5,101.7561 C1598.5,104.2561 1600.6406,106.0686 1603.5625,106.0686 C1604.7969,106.0686 1605.9688,105.7717 1606.7188,105.2561 C1607.3281,104.8342 1607.6563,104.4124 1607.6563,104.0061 C1607.6563,103.5374 1607.2344,103.1311 1606.7344,103.1311 C1606.5,103.1311 1606.2813,103.2092 1606.0781,103.4124 C1605.6406,103.8499 1605.6406,103.8499 1605.4688,103.9436 C1605.0156,104.178 1604.375,104.3186 1603.6094,104.3186 C1601.6094,104.3186 1600.3281,103.303 1600.3281,101.7249 L1600.3281,100.678 C1600.3281,98.9749 1601.5469,97.7717 1603.25,97.7717 C1603.8281,97.7717 1604.4063,97.9124 1604.875,98.1624 C1605.3438,98.428 1605.5156,98.6155 1605.5781,98.9749 C1605.7031,99.6467 1605.9531,99.8967 1606.4844,99.8967 C1606.7656,99.8967 1607.0469,99.7561 1607.2344,99.5374 C1607.3594,99.3655 1607.4063,99.1936 1607.4063,98.7561 L1607.4063,97.3967 C1607.4063,96.9749 1607.3906,96.8342 1607.2656,96.6624 C1607.0938,96.4124 1606.8125,96.2561 1606.4844,96.2561 C1606.1719,96.2561 1605.9688,96.3655 1605.75,96.6311 C1604.5781,96.1311 1604.1406,96.0217 1603.1875,96.0217 C1600.5156,96.0217 1598.5,98.0374 1598.5,100.6624 L1598.5,101.7561 Z " fill="#000000"/><text fill="#000000" font-family="sans-serif" font-size="14" lengthAdjust="spacing" textLength="119" x="1620.5" y="102.6058">UserReportDisplay</text><rect fill="#E2E2F0" height="36" rx="2.5" ry="2.5" style="stroke:#181818;stroke-width:0.5;" width="161" x="1585.5" y="981.4001"/><ellipse cx="1603.5" cy="999.4001" fill="#D3D3D3" rx="11" ry="11" style="stroke:#181818;stroke-width:1.0;"/><path d="M1598.5,1000.5564 C1598.5,1003.0564 1600.6406,1004.8689 1603.5625,1004.8689 C1604.7969,1004.8689 1605.9688,1004.572 1606.7188,1004.0564 C1607.3281,1003.6345 1607.6563,1003.2126 1607.6563,1002.8064 C1607.6563,1002.3376 1607.2344,1001.9314 1606.7344,1001.9314 C1606.5,1001.9314 1606.2813,1002.0095 1606.0781,1002.2126 C1605.6406,1002.6501 1605.6406,1002.6501 1605.4688,1002.7439 C1605.0156,1002.9782 1604.375,1003.1189 1603.6094,1003.1189 C1601.6094,1003.1189 1600.3281,1002.1032 1600.3281,1000.5251 L1600.3281,999.4782 C1600.3281,997.7751 1601.5469,996.572 1603.25,996.572 C1603.8281,996.572 1604.4063,996.7126 1604.875,996.9626 C1605.3438,997.2282 1605.5156,997.4157 1605.5781,997.7751 C1605.7031,998.447 1605.9531,998.697 1606.4844,998.697 C1606.7656,998.697 1607.0469,998.5564 1607.2344,998.3376 C1607.3594,998.1657 1607.4063,997.9939 1607.4063,997.5564 L1607.4063,996.197 C1607.4063,995.7751 1607.3906,995.6345 1607.2656,995.4626 C1607.0938,995.2126 1606.8125,995.0564 1606.4844,995.0564 C1606.1719,995.0564 1605.9688,995.1657 1605.75,995.4314 C1604.5781,994.9314 1604.1406,994.822 1603.1875,994.822 C1600.5156,994.822 1598.5,996.8376 1598.5,999.4626 L1598.5,1000.5564 Z " fill="#000000"/><text fill="#000000" font-family="sans-serif" font-size="14" lengthAdjust="spacing" textLength="119" x="1620.5" y="1001.4061">UserReportDisplay</text><rect fill="#E2E2F0" height="36" rx="2.5" ry="2.5" style="stroke:#181818;stroke-width:0.5;" width="145" x="1756.5" y="82.5999"/><ellipse cx="1774.5" cy="100.5999" fill="#90EE90" rx="11" ry="11" style="stroke:#181818;stroke-width:1.0;"/><path d="M1778.3594,96.9124 C1778.3594,96.4749 1778.3438,96.3499 1778.2344,96.178 C1778.0781,95.928 1777.7813,95.7717 1777.4531,95.7717 C1777.1094,95.7717 1776.9219,95.9124 1776.7656,96.2874 C1776.2031,95.9592 1775.4375,95.7717 1774.5625,95.7717 C1772.4219,95.7717 1770.8281,97.0374 1770.8281,98.6936 C1770.8281,99.6467 1771.375,100.5374 1772.25,101.0061 C1772.8125,101.3186 1773.3438,101.4749 1774.4844,101.6624 C1775.6094,101.8655 1775.875,101.928 1776.25,102.0999 C1776.5938,102.2717 1776.8125,102.5686 1776.8125,102.8811 C1776.8125,103.5374 1775.8594,104.053 1774.6406,104.053 C1773.5469,104.053 1772.4844,103.5999 1772.3281,103.053 C1772.1875,102.6155 1772.1875,102.6155 1772.0625,102.4749 C1771.8906,102.3186 1771.6563,102.2405 1771.4063,102.2405 C1771.1094,102.2405 1770.8438,102.3655 1770.6563,102.5842 C1770.5313,102.7561 1770.4844,102.9436 1770.4844,103.3655 L1770.4844,104.4436 C1770.4844,105.2092 1770.7969,105.5842 1771.4063,105.5842 C1771.6875,105.5842 1771.8438,105.4905 1772.125,105.2092 C1772.9844,105.6311 1773.8281,105.8186 1774.75,105.8186 C1777.1094,105.8186 1778.7188,104.6467 1778.7188,102.9124 C1778.7188,102.053 1778.375,101.3655 1777.6875,100.8342 C1777.1563,100.428 1776.4844,100.1936 1774.9844,99.9436 C1773.7031,99.6936 1773.6406,99.678 1773.3125,99.5061 C1772.9688,99.3655 1772.7344,99.0061 1772.7344,98.678 C1772.7344,98.0374 1773.5469,97.5217 1774.5781,97.5217 C1775.625,97.5217 1776.3906,97.9436 1776.5313,98.5686 C1776.6563,99.0999 1776.6563,99.0999 1776.7969,99.2405 C1776.9531,99.3967 1777.2031,99.4905 1777.4531,99.4905 C1777.75,99.4905 1778,99.3655 1778.1875,99.1467 C1778.3281,98.9592 1778.3594,98.8186 1778.3594,98.3655 L1778.3594,96.9124 Z " fill="#000000"/><text fill="#000000" font-family="sans-serif" font-size="14" lengthAdjust="spacing" textLength="103" x="1791.5" y="102.6058">TanStackRouter</text><rect fill="#E2E2F0" height="36" rx="2.5" ry="2.5" style="stroke:#181818;stroke-width:0.5;" width="145" x="1756.5" y="981.4001"/><ellipse cx="1774.5" cy="999.4001" fill="#90EE90" rx="11" ry="11" style="stroke:#181818;stroke-width:1.0;"/><path d="M1778.3594,995.7126 C1778.3594,995.2751 1778.3438,995.1501 1778.2344,994.9782 C1778.0781,994.7282 1777.7813,994.572 1777.4531,994.572 C1777.1094,994.572 1776.9219,994.7126 1776.7656,995.0876 C1776.2031,994.7595 1775.4375,994.572 1774.5625,994.572 C1772.4219,994.572 1770.8281,995.8376 1770.8281,997.4939 C1770.8281,998.447 1771.375,999.3376 1772.25,999.8064 C1772.8125,1000.1189 1773.3438,1000.2751 1774.4844,1000.4626 C1775.6094,1000.6657 1775.875,1000.7282 1776.25,1000.9001 C1776.5938,1001.072 1776.8125,1001.3689 1776.8125,1001.6814 C1776.8125,1002.3376 1775.8594,1002.8532 1774.6406,1002.8532 C1773.5469,1002.8532 1772.4844,1002.4001 1772.3281,1001.8532 C1772.1875,1001.4157 1772.1875,1001.4157 1772.0625,1001.2751 C1771.8906,1001.1189 1771.6563,1001.0407 1771.4063,1001.0407 C1771.1094,1001.0407 1770.8438,1001.1657 1770.6563,1001.3845 C1770.5313,1001.5564 1770.4844,1001.7439 1770.4844,1002.1657 L1770.4844,1003.2439 C1770.4844,1004.0095 1770.7969,1004.3845 1771.4063,1004.3845 C1771.6875,1004.3845 1771.8438,1004.2907 1772.125,1004.0095 C1772.9844,1004.4314 1773.8281,1004.6189 1774.75,1004.6189 C1777.1094,1004.6189 1778.7188,1003.447 1778.7188,1001.7126 C1778.7188,1000.8532 1778.375,1000.1657 1777.6875,999.6345 C1777.1563,999.2282 1776.4844,998.9939 1774.9844,998.7439 C1773.7031,998.4939 1773.6406,998.4782 1773.3125,998.3064 C1772.9688,998.1657 1772.7344,997.8064 1772.7344,997.4782 C1772.7344,996.8376 1773.5469,996.322 1774.5781,996.322 C1775.625,996.322 1776.3906,996.7439 1776.5313,997.3689 C1776.6563,997.9001 1776.6563,997.9001 1776.7969,998.0407 C1776.9531,998.197 1777.2031,998.2907 1777.4531,998.2907 C1777.75,998.2907 1778,998.1657 1778.1875,997.947 C1778.3281,997.7595 1778.3594,997.6189 1778.3594,997.1657 L1778.3594,995.7126 Z " fill="#000000"/><text fill="#000000" font-family="sans-serif" font-size="14" lengthAdjust="spacing" textLength="103" x="1791.5" y="1001.4061">TanStackRouter</text><rect fill="#E2E2F0" height="36" rx="2.5" ry="2.5" style="stroke:#181818;stroke-width:0.5;" width="117" x="1911.5" y="82.5999"/><ellipse cx="1929.5" cy="100.5999" fill="#808080" rx="11" ry="11" style="stroke:#181818;stroke-width:1.0;"/><path d="M1933.3594,96.9124 C1933.3594,96.4749 1933.3438,96.3499 1933.2344,96.178 C1933.0781,95.928 1932.7813,95.7717 1932.4531,95.7717 C1932.1094,95.7717 1931.9219,95.9124 1931.7656,96.2874 C1931.2031,95.9592 1930.4375,95.7717 1929.5625,95.7717 C1927.4219,95.7717 1925.8281,97.0374 1925.8281,98.6936 C1925.8281,99.6467 1926.375,100.5374 1927.25,101.0061 C1927.8125,101.3186 1928.3438,101.4749 1929.4844,101.6624 C1930.6094,101.8655 1930.875,101.928 1931.25,102.0999 C1931.5938,102.2717 1931.8125,102.5686 1931.8125,102.8811 C1931.8125,103.5374 1930.8594,104.053 1929.6406,104.053 C1928.5469,104.053 1927.4844,103.5999 1927.3281,103.053 C1927.1875,102.6155 1927.1875,102.6155 1927.0625,102.4749 C1926.8906,102.3186 1926.6563,102.2405 1926.4063,102.2405 C1926.1094,102.2405 1925.8438,102.3655 1925.6563,102.5842 C1925.5313,102.7561 1925.4844,102.9436 1925.4844,103.3655 L1925.4844,104.4436 C1925.4844,105.2092 1925.7969,105.5842 1926.4063,105.5842 C1926.6875,105.5842 1926.8438,105.4905 1927.125,105.2092 C1927.9844,105.6311 1928.8281,105.8186 1929.75,105.8186 C1932.1094,105.8186 1933.7188,104.6467 1933.7188,102.9124 C1933.7188,102.053 1933.375,101.3655 1932.6875,100.8342 C1932.1563,100.428 1931.4844,100.1936 1929.9844,99.9436 C1928.7031,99.6936 1928.6406,99.678 1928.3125,99.5061 C1927.9688,99.3655 1927.7344,99.0061 1927.7344,98.678 C1927.7344,98.0374 1928.5469,97.5217 1929.5781,97.5217 C1930.625,97.5217 1931.3906,97.9436 1931.5313,98.5686 C1931.6563,99.0999 1931.6563,99.0999 1931.7969,99.2405 C1931.9531,99.3967 1932.2031,99.4905 1932.4531,99.4905 C1932.75,99.4905 1933,99.3655 1933.1875,99.1467 C1933.3281,98.9592 1933.3594,98.8186 1933.3594,98.3655 L1933.3594,96.9124 Z " fill="#000000"/><text fill="#000000" font-family="sans-serif" font-size="14" lengthAdjust="spacing" textLength="75" x="1946.5" y="102.6058">QueryClient</text><rect fill="#E2E2F0" height="36" rx="2.5" ry="2.5" style="stroke:#181818;stroke-width:0.5;" width="117" x="1911.5" y="981.4001"/><ellipse cx="1929.5" cy="999.4001" fill="#808080" rx="11" ry="11" style="stroke:#181818;stroke-width:1.0;"/><path d="M1933.3594,995.7126 C1933.3594,995.2751 1933.3438,995.1501 1933.2344,994.9782 C1933.0781,994.7282 1932.7813,994.572 1932.4531,994.572 C1932.1094,994.572 1931.9219,994.7126 1931.7656,995.0876 C1931.2031,994.7595 1930.4375,994.572 1929.5625,994.572 C1927.4219,994.572 1925.8281,995.8376 1925.8281,997.4939 C1925.8281,998.447 1926.375,999.3376 1927.25,999.8064 C1927.8125,1000.1189 1928.3438,1000.2751 1929.4844,1000.4626 C1930.6094,1000.6657 1930.875,1000.7282 1931.25,1000.9001 C1931.5938,1001.072 1931.8125,1001.3689 1931.8125,1001.6814 C1931.8125,1002.3376 1930.8594,1002.8532 1929.6406,1002.8532 C1928.5469,1002.8532 1927.4844,1002.4001 1927.3281,1001.8532 C1927.1875,1001.4157 1927.1875,1001.4157 1927.0625,1001.2751 C1926.8906,1001.1189 1926.6563,1001.0407 1926.4063,1001.0407 C1926.1094,1001.0407 1925.8438,1001.1657 1925.6563,1001.3845 C1925.5313,1001.5564 1925.4844,1001.7439 1925.4844,1002.1657 L1925.4844,1003.2439 C1925.4844,1004.0095 1925.7969,1004.3845 1926.4063,1004.3845 C1926.6875,1004.3845 1926.8438,1004.2907 1927.125,1004.0095 C1927.9844,1004.4314 1928.8281,1004.6189 1929.75,1004.6189 C1932.1094,1004.6189 1933.7188,1003.447 1933.7188,1001.7126 C1933.7188,1000.8532 1933.375,1000.1657 1932.6875,999.6345 C1932.1563,999.2282 1931.4844,998.9939 1929.9844,998.7439 C1928.7031,998.4939 1928.6406,998.4782 1928.3125,998.3064 C1927.9688,998.1657 1927.7344,997.8064 1927.7344,997.4782 C1927.7344,996.8376 1928.5469,996.322 1929.5781,996.322 C1930.625,996.322 1931.3906,996.7439 1931.5313,997.3689 C1931.6563,997.9001 1931.6563,997.9001 1931.7969,998.0407 C1931.9531,998.197 1932.2031,998.2907 1932.4531,998.2907 C1932.75,998.2907 1933,998.1657 1933.1875,997.947 C1933.3281,997.7595 1933.3594,997.6189 1933.3594,997.1657 L1933.3594,995.7126 Z " fill="#000000"/><text fill="#000000" font-family="sans-serif" font-size="14" lengthAdjust="spacing" textLength="75" x="1946.5" y="1001.4061">QueryClient</text><rect fill="#E2E2F0" height="47.5999" rx="2.5" ry="2.5" style="stroke:#181818;stroke-width:0.5;" width="113" x="2038.5" y="71"/><ellipse cx="2056.5" cy="89" fill="#FFA500" rx="11" ry="11" style="stroke:#181818;stroke-width:1.0;"/><path d="M2055.3594,90.0625 L2056.6719,90.0625 L2056.6719,90.1094 C2056.6719,90.5 2056.7031,90.6875 2056.7969,90.8438 C2056.9688,91.0938 2057.2656,91.2656 2057.5781,91.2656 C2057.8594,91.2656 2058.1406,91.125 2058.3281,90.9063 C2058.4531,90.7188 2058.5,90.5625 2058.5,90.1094 L2058.5,88.2813 C2058.5,87.8594 2058.4844,87.7344 2058.3594,87.5625 C2058.2031,87.2969 2057.9063,87.125 2057.5781,87.125 C2057.2813,87.125 2057.0156,87.2656 2056.8438,87.4844 C2056.7031,87.6719 2056.6719,87.8438 2056.6719,88.2813 L2056.6719,88.3281 L2055.3594,88.3281 L2055.3594,86.1563 L2059.5781,86.1563 L2059.5781,86.9219 C2059.5781,87.3125 2059.6094,87.4844 2059.7188,87.6406 C2059.8906,87.9063 2060.1719,88.0625 2060.5,88.0625 C2060.7813,88.0625 2061.0625,87.9375 2061.25,87.7031 C2061.3906,87.5156 2061.4219,87.375 2061.4219,86.9219 L2061.4219,84.4063 L2053.3438,84.4063 C2052.9063,84.4063 2052.7656,84.4219 2052.5938,84.5313 C2052.3281,84.7031 2052.1563,84.9844 2052.1563,85.2813 C2052.1563,85.5625 2052.3125,85.8438 2052.5313,86 C2052.7188,86.125 2052.9063,86.1563 2053.3438,86.1563 L2053.5313,86.1563 L2053.5313,92.25 L2053.3438,92.25 C2052.9219,92.25 2052.7656,92.2813 2052.5938,92.375 C2052.3281,92.5313 2052.1563,92.8281 2052.1563,93.1094 C2052.1563,93.6875 2052.5625,94 2053.3438,94 L2057,94 C2057.7813,94 2058.1875,93.7188 2058.1875,93.1094 C2058.1875,92.8438 2058.0469,92.5938 2057.8125,92.4219 C2057.625,92.2813 2057.4531,92.25 2057,92.25 L2055.3594,92.25 L2055.3594,90.0625 Z " fill="#000000"/><text fill="#000000" font-family="sans-serif" font-size="14" lengthAdjust="spacing" textLength="40" x="2089" y="91.0059">utils.ts</text><text fill="#000000" font-family="sans-serif" font-size="14" lengthAdjust="spacing" textLength="71" x="2073.5" y="107.8059">fetchJson()</text><rect fill="#E2E2F0" height="47.5999" rx="2.5" ry="2.5" style="stroke:#181818;stroke-width:0.5;" width="113" x="2038.5" y="981.4001"/><ellipse cx="2056.5" cy="999.4001" fill="#FFA500" rx="11" ry="11" style="stroke:#181818;stroke-width:1.0;"/><path d="M2055.3594,1000.4626 L2056.6719,1000.4626 L2056.6719,1000.5095 C2056.6719,1000.9001 2056.7031,1001.0876 2056.7969,1001.2439 C2056.9688,1001.4939 2057.2656,1001.6657 2057.5781,1001.6657 C2057.8594,1001.6657 2058.1406,1001.5251 2058.3281,1001.3064 C2058.4531,1001.1189 2058.5,1000.9626 2058.5,1000.5095 L2058.5,998.6814 C2058.5,998.2595 2058.4844,998.1345 2058.3594,997.9626 C2058.2031,997.697 2057.9063,997.5251 2057.5781,997.5251 C2057.2813,997.5251 2057.0156,997.6657 2056.8438,997.8845 C2056.7031,998.072 2056.6719,998.2439 2056.6719,998.6814 L2056.6719,998.7282 L2055.3594,998.7282 L2055.3594,996.5564 L2059.5781,996.5564 L2059.5781,997.322 C2059.5781,997.7126 2059.6094,997.8845 2059.7188,998.0407 C2059.8906,998.3064 2060.1719,998.4626 2060.5,998.4626 C2060.7813,998.4626 2061.0625,998.3376 2061.25,998.1032 C2061.3906,997.9157 2061.4219,997.7751 2061.4219,997.322 L2061.4219,994.8064 L2053.3438,994.8064 C2052.9063,994.8064 2052.7656,994.822 2052.5938,994.9314 C2052.3281,995.1032 2052.1563,995.3845 2052.1563,995.6814 C2052.1563,995.9626 2052.3125,996.2439 2052.5313,996.4001 C2052.7188,996.5251 2052.9063,996.5564 2053.3438,996.5564 L2053.5313,996.5564 L2053.5313,1002.6501 L2053.3438,1002.6501 C2052.9219,1002.6501 2052.7656,1002.6814 2052.5938,1002.7751 C2052.3281,1002.9314 2052.1563,1003.2282 2052.1563,1003.5095 C2052.1563,1004.0876 2052.5625,1004.4001 2053.3438,1004.4001 L2057,1004.4001 C2057.7813,1004.4001 2058.1875,1004.1189 2058.1875,1003.5095 C2058.1875,1003.2439 2058.0469,1002.9939 2057.8125,1002.822 C2057.625,1002.6814 2057.4531,1002.6501 2057,1002.6501 L2055.3594,1002.6501 L2055.3594,1000.4626 Z " fill="#000000"/><text fill="#000000" font-family="sans-serif" font-size="14" lengthAdjust="spacing" textLength="40" x="2089" y="1001.4061">utils.ts</text><text fill="#000000" font-family="sans-serif" font-size="14" lengthAdjust="spacing" textLength="71" x="2073.5" y="1018.206">fetchJson()</text><rect fill="#E2E2F0" height="36" rx="2.5" ry="2.5" style="stroke:#181818;stroke-width:0.5;" width="128" x="2178" y="82.5999"/><ellipse cx="2196" cy="100.5999" fill="#ADD8E6" rx="11" ry="11" style="stroke:#181818;stroke-width:1.0;"/><path d="M2199.8594,96.9124 C2199.8594,96.4749 2199.8438,96.3499 2199.7344,96.178 C2199.5781,95.928 2199.2813,95.7717 2198.9531,95.7717 C2198.6094,95.7717 2198.4219,95.9124 2198.2656,96.2874 C2197.7031,95.9592 2196.9375,95.7717 2196.0625,95.7717 C2193.9219,95.7717 2192.3281,97.0374 2192.3281,98.6936 C2192.3281,99.6467 2192.875,100.5374 2193.75,101.0061 C2194.3125,101.3186 2194.8438,101.4749 2195.9844,101.6624 C2197.1094,101.8655 2197.375,101.928 2197.75,102.0999 C2198.0938,102.2717 2198.3125,102.5686 2198.3125,102.8811 C2198.3125,103.5374 2197.3594,104.053 2196.1406,104.053 C2195.0469,104.053 2193.9844,103.5999 2193.8281,103.053 C2193.6875,102.6155 2193.6875,102.6155 2193.5625,102.4749 C2193.3906,102.3186 2193.1563,102.2405 2192.9063,102.2405 C2192.6094,102.2405 2192.3438,102.3655 2192.1563,102.5842 C2192.0313,102.7561 2191.9844,102.9436 2191.9844,103.3655 L2191.9844,104.4436 C2191.9844,105.2092 2192.2969,105.5842 2192.9063,105.5842 C2193.1875,105.5842 2193.3438,105.4905 2193.625,105.2092 C2194.4844,105.6311 2195.3281,105.8186 2196.25,105.8186 C2198.6094,105.8186 2200.2188,104.6467 2200.2188,102.9124 C2200.2188,102.053 2199.875,101.3655 2199.1875,100.8342 C2198.6563,100.428 2197.9844,100.1936 2196.4844,99.9436 C2195.2031,99.6936 2195.1406,99.678 2194.8125,99.5061 C2194.4688,99.3655 2194.2344,99.0061 2194.2344,98.678 C2194.2344,98.0374 2195.0469,97.5217 2196.0781,97.5217 C2197.125,97.5217 2197.8906,97.9436 2198.0313,98.5686 C2198.1563,99.0999 2198.1563,99.0999 2198.2969,99.2405 C2198.4531,99.3967 2198.7031,99.4905 2198.9531,99.4905 C2199.25,99.4905 2199.5,99.3655 2199.6875,99.1467 C2199.8281,98.9592 2199.8594,98.8186 2199.8594,98.3655 L2199.8594,96.9124 Z " fill="#000000"/><text fill="#000000" font-family="sans-serif" font-size="14" lengthAdjust="spacing" textLength="86" x="2213" y="102.6058">AuthManager</text><rect fill="#E2E2F0" height="36" rx="2.5" ry="2.5" style="stroke:#181818;stroke-width:0.5;" width="128" x="2178" y="981.4001"/><ellipse cx="2196" cy="999.4001" fill="#ADD8E6" rx="11" ry="11" style="stroke:#181818;stroke-width:1.0;"/><path d="M2199.8594,995.7126 C2199.8594,995.2751 2199.8438,995.1501 2199.7344,994.9782 C2199.5781,994.7282 2199.2813,994.572 2198.9531,994.572 C2198.6094,994.572 2198.4219,994.7126 2198.2656,995.0876 C2197.7031,994.7595 2196.9375,994.572 2196.0625,994.572 C2193.9219,994.572 2192.3281,995.8376 2192.3281,997.4939 C2192.3281,998.447 2192.875,999.3376 2193.75,999.8064 C2194.3125,1000.1189 2194.8438,1000.2751 2195.9844,1000.4626 C2197.1094,1000.6657 2197.375,1000.7282 2197.75,1000.9001 C2198.0938,1001.072 2198.3125,1001.3689 2198.3125,1001.6814 C2198.3125,1002.3376 2197.3594,1002.8532 2196.1406,1002.8532 C2195.0469,1002.8532 2193.9844,1002.4001 2193.8281,1001.8532 C2193.6875,1001.4157 2193.6875,1001.4157 2193.5625,1001.2751 C2193.3906,1001.1189 2193.1563,1001.0407 2192.9063,1001.0407 C2192.6094,1001.0407 2192.3438,1001.1657 2192.1563,1001.3845 C2192.0313,1001.5564 2191.9844,1001.7439 2191.9844,1002.1657 L2191.9844,1003.2439 C2191.9844,1004.0095 2192.2969,1004.3845 2192.9063,1004.3845 C2193.1875,1004.3845 2193.3438,1004.2907 2193.625,1004.0095 C2194.4844,1004.4314 2195.3281,1004.6189 2196.25,1004.6189 C2198.6094,1004.6189 2200.2188,1003.447 2200.2188,1001.7126 C2200.2188,1000.8532 2199.875,1000.1657 2199.1875,999.6345 C2198.6563,999.2282 2197.9844,998.9939 2196.4844,998.7439 C2195.2031,998.4939 2195.1406,998.4782 2194.8125,998.3064 C2194.4688,998.1657 2194.2344,997.8064 2194.2344,997.4782 C2194.2344,996.8376 2195.0469,996.322 2196.0781,996.322 C2197.125,996.322 2197.8906,996.7439 2198.0313,997.3689 C2198.1563,997.9001 2198.1563,997.9001 2198.2969,998.0407 C2198.4531,998.197 2198.7031,998.2907 2198.9531,998.2907 C2199.25,998.2907 2199.5,998.1657 2199.6875,997.947 C2199.8281,997.7595 2199.8594,997.6189 2199.8594,997.1657 L2199.8594,995.7126 Z " fill="#000000"/><text fill="#000000" font-family="sans-serif" font-size="14" lengthAdjust="spacing" textLength="86" x="2213" y="1001.4061">AuthManager</text><rect fill="#E2E2F0" height="36" rx="2.5" ry="2.5" style="stroke:#181818;stroke-width:0.5;" width="119" x="2316" y="82.5999"/><ellipse cx="2334" cy="100.5999" fill="#FF6347" rx="11" ry="11" style="stroke:#181818;stroke-width:1.0;"/><path d="M2337.8594,96.9124 C2337.8594,96.4749 2337.8438,96.3499 2337.7344,96.178 C2337.5781,95.928 2337.2813,95.7717 2336.9531,95.7717 C2336.6094,95.7717 2336.4219,95.9124 2336.2656,96.2874 C2335.7031,95.9592 2334.9375,95.7717 2334.0625,95.7717 C2331.9219,95.7717 2330.3281,97.0374 2330.3281,98.6936 C2330.3281,99.6467 2330.875,100.5374 2331.75,101.0061 C2332.3125,101.3186 2332.8438,101.4749 2333.9844,101.6624 C2335.1094,101.8655 2335.375,101.928 2335.75,102.0999 C2336.0938,102.2717 2336.3125,102.5686 2336.3125,102.8811 C2336.3125,103.5374 2335.3594,104.053 2334.1406,104.053 C2333.0469,104.053 2331.9844,103.5999 2331.8281,103.053 C2331.6875,102.6155 2331.6875,102.6155 2331.5625,102.4749 C2331.3906,102.3186 2331.1563,102.2405 2330.9063,102.2405 C2330.6094,102.2405 2330.3438,102.3655 2330.1563,102.5842 C2330.0313,102.7561 2329.9844,102.9436 2329.9844,103.3655 L2329.9844,104.4436 C2329.9844,105.2092 2330.2969,105.5842 2330.9063,105.5842 C2331.1875,105.5842 2331.3438,105.4905 2331.625,105.2092 C2332.4844,105.6311 2333.3281,105.8186 2334.25,105.8186 C2336.6094,105.8186 2338.2188,104.6467 2338.2188,102.9124 C2338.2188,102.053 2337.875,101.3655 2337.1875,100.8342 C2336.6563,100.428 2335.9844,100.1936 2334.4844,99.9436 C2333.2031,99.6936 2333.1406,99.678 2332.8125,99.5061 C2332.4688,99.3655 2332.2344,99.0061 2332.2344,98.678 C2332.2344,98.0374 2333.0469,97.5217 2334.0781,97.5217 C2335.125,97.5217 2335.8906,97.9436 2336.0313,98.5686 C2336.1563,99.0999 2336.1563,99.0999 2336.2969,99.2405 C2336.4531,99.3967 2336.7031,99.4905 2336.9531,99.4905 C2337.25,99.4905 2337.5,99.3655 2337.6875,99.1467 C2337.8281,98.9592 2337.8594,98.8186 2337.8594,98.3655 L2337.8594,96.9124 Z " fill="#000000"/><text fill="#000000" font-family="sans-serif" font-size="14" lengthAdjust="spacing" textLength="77" x="2351" y="102.6058">BackendAPI</text><rect fill="#E2E2F0" height="36" rx="2.5" ry="2.5" style="stroke:#181818;stroke-width:0.5;" width="119" x="2316" y="981.4001"/><ellipse cx="2334" cy="999.4001" fill="#FF6347" rx="11" ry="11" style="stroke:#181818;stroke-width:1.0;"/><path d="M2337.8594,995.7126 C2337.8594,995.2751 2337.8438,995.1501 2337.7344,994.9782 C2337.5781,994.7282 2337.2813,994.572 2336.9531,994.572 C2336.6094,994.572 2336.4219,994.7126 2336.2656,995.0876 C2335.7031,994.7595 2334.9375,994.572 2334.0625,994.572 C2331.9219,994.572 2330.3281,995.8376 2330.3281,997.4939 C2330.3281,998.447 2330.875,999.3376 2331.75,999.8064 C2332.3125,1000.1189 2332.8438,1000.2751 2333.9844,1000.4626 C2335.1094,1000.6657 2335.375,1000.7282 2335.75,1000.9001 C2336.0938,1001.072 2336.3125,1001.3689 2336.3125,1001.6814 C2336.3125,1002.3376 2335.3594,1002.8532 2334.1406,1002.8532 C2333.0469,1002.8532 2331.9844,1002.4001 2331.8281,1001.8532 C2331.6875,1001.4157 2331.6875,1001.4157 2331.5625,1001.2751 C2331.3906,1001.1189 2331.1563,1001.0407 2330.9063,1001.0407 C2330.6094,1001.0407 2330.3438,1001.1657 2330.1563,1001.3845 C2330.0313,1001.5564 2329.9844,1001.7439 2329.9844,1002.1657 L2329.9844,1003.2439 C2329.9844,1004.0095 2330.2969,1004.3845 2330.9063,1004.3845 C2331.1875,1004.3845 2331.3438,1004.2907 2331.625,1004.0095 C2332.4844,1004.4314 2333.3281,1004.6189 2334.25,1004.6189 C2336.6094,1004.6189 2338.2188,1003.447 2338.2188,1001.7126 C2338.2188,1000.8532 2337.875,1000.1657 2337.1875,999.6345 C2336.6563,999.2282 2335.9844,998.9939 2334.4844,998.7439 C2333.2031,998.4939 2333.1406,998.4782 2332.8125,998.3064 C2332.4688,998.1657 2332.2344,997.8064 2332.2344,997.4782 C2332.2344,996.8376 2333.0469,996.322 2334.0781,996.322 C2335.125,996.322 2335.8906,996.7439 2336.0313,997.3689 C2336.1563,997.9001 2336.1563,997.9001 2336.2969,998.0407 C2336.4531,998.197 2336.7031,998.2907 2336.9531,998.2907 C2337.25,998.2907 2337.5,998.1657 2337.6875,997.947 C2337.8281,997.7595 2337.8594,997.6189 2337.8594,997.1657 L2337.8594,995.7126 Z " fill="#000000"/><text fill="#000000" font-family="sans-serif" font-size="14" lengthAdjust="spacing" textLength="77" x="2351" y="1001.4061">BackendAPI</text><rect fill="#FFFFFF" height="821.2002" style="stroke:#181818;stroke-width:1.0;" width="10" x="294.5" y="151.1999"/><rect fill="#FFFFFF" height="453.0001" style="stroke:#181818;stroke-width:1.0;" width="10" x="982" y="519.4"/><rect fill="#FFFFFF" height="482.6001" style="stroke:#181818;stroke-width:1.0;" width="10" x="1379" y="489.8"/><rect fill="#FFFFFF" height="30" style="stroke:#181818;stroke-width:1.0;" width="10" x="1661" y="780.8002"/><rect fill="#FFFFFF" height="29.6" style="stroke:#181818;stroke-width:1.0;" width="10" x="1824" y="460.2"/><rect fill="#FFFFFF" height="59.2" style="stroke:#181818;stroke-width:1.0;" width="10" x="1965" y="180.7999"/><rect fill="#FFFFFF" height="423.4001" style="stroke:#181818;stroke-width:1.0;" width="10" x="2090" y="549"/><rect fill="#FFFFFF" height="29.6" style="stroke:#181818;stroke-width:1.0;" width="10" x="2237" y="578.6001"/><rect fill="#FFFFFF" height="334.6" style="stroke:#181818;stroke-width:1.0;" width="10" x="2370.5" y="637.8001"/><polygon fill="#181818" points="282.5,147.1999,292.5,151.1999,282.5,155.1999,286.5,151.1999" style="stroke:#181818;stroke-width:1.0;"/><line style="stroke:#181818;stroke-width:1.0;" x1="43.5" x2="288.5" y1="151.1999" y2="151.1999"/><text fill="#000000" font-family="sans-serif" font-size="13" lengthAdjust="spacing" textLength="232" x="50.5" y="145.6769">Navigates to /dashboard_trainer/reports/</text><polygon fill="#181818" points="1953,176.7999,1963,180.7999,1953,184.7999,1957,180.7999" style="stroke:#181818;stroke-width:1.0;"/><line style="stroke:#181818;stroke-width:1.0;" x1="304.5" x2="1959" y1="180.7999" y2="180.7999"/><text fill="#000000" font-family="sans-serif" font-size="13" lengthAdjust="spacing" textLength="221" x="311.5" y="175.2769">useQuery(['allUsersForReportSearch'])</text><polygon fill="#181818" points="1160,206.3999,1150,210.3999,1160,214.3999,1156,210.3999" style="stroke:#181818;stroke-width:1.0;"/><line style="stroke:#181818;stroke-width:1.0;" x1="1154" x2="1964" y1="210.3999" y2="210.3999"/><text fill="#000000" font-family="sans-serif" font-size="13" lengthAdjust="spacing" textLength="75" x="1166" y="204.8769">getAllUsers()</text><polygon fill="#181818" points="1958,235.9999,1968,239.9999,1958,243.9999,1962,239.9999" style="stroke:#181818;stroke-width:1.0;"/><line style="stroke:#181818;stroke-width:1.0;stroke-dasharray:2.0,2.0;" x1="1149" x2="1964" y1="239.9999" y2="239.9999"/><text fill="#000000" font-family="sans-serif" font-size="13" lengthAdjust="spacing" textLength="57" x="1156" y="234.4769">UserInfo[]</text><polygon fill="#181818" points="315.5,265.5999,305.5,269.5999,315.5,273.5999,311.5,269.5999" style="stroke:#181818;stroke-width:1.0;"/><line style="stroke:#181818;stroke-width:1.0;stroke-dasharray:2.0,2.0;" x1="309.5" x2="1969" y1="269.5999" y2="269.5999"/><text fill="#000000" font-family="sans-serif" font-size="13" lengthAdjust="spacing" textLength="57" x="321.5" y="264.0769">UserInfo[]</text><polygon fill="#181818" points="565.5,295.1999,575.5,299.1999,565.5,303.1999,569.5,299.1999" style="stroke:#181818;stroke-width:1.0;"/><line style="stroke:#181818;stroke-width:1.0;" x1="43.5" x2="571.5" y1="299.1999" y2="299.1999"/><text fill="#000000" font-family="sans-serif" font-size="13" lengthAdjust="spacing" textLength="160" x="50.5" y="293.6769">Enters user email to search</text><polygon fill="#181818" points="315.5,324.7999,305.5,328.7999,315.5,332.7999,311.5,328.7999" style="stroke:#181818;stroke-width:1.0;"/><line style="stroke:#181818;stroke-width:1.0;" x1="309.5" x2="576.5" y1="328.7999" y2="328.7999"/><text fill="#000000" font-family="sans-serif" font-size="13" lengthAdjust="spacing" textLength="138" x="321.5" y="323.2769">onChange(searchValue)</text><line style="stroke:#181818;stroke-width:1.0;" x1="304.5" x2="346.5" y1="358.4" y2="358.4"/><line style="stroke:#181818;stroke-width:1.0;" x1="346.5" x2="346.5" y1="358.4" y2="371.4"/><line style="stroke:#181818;stroke-width:1.0;" x1="305.5" x2="346.5" y1="371.4" y2="371.4"/><polygon fill="#181818" points="315.5,367.4,305.5,371.4,315.5,375.4,311.5,371.4" style="stroke:#181818;stroke-width:1.0;"/><text fill="#000000" font-family="sans-serif" font-size="13" lengthAdjust="spacing" textLength="254" x="311.5" y="352.877">Filters users based on searchEmail (locally)</text><polygon fill="#181818" points="774,397,784,401,774,405,778,401" style="stroke:#181818;stroke-width:1.0;"/><line style="stroke:#181818;stroke-width:1.0;" x1="304.5" x2="780" y1="401" y2="401"/><text fill="#000000" font-family="sans-serif" font-size="13" lengthAdjust="spacing" textLength="127" x="311.5" y="395.477">Renders filtered users</text><polygon fill="#181818" points="774,426.6,784,430.6,774,434.6,778,430.6" style="stroke:#181818;stroke-width:1.0;"/><line style="stroke:#181818;stroke-width:1.0;" x1="43.5" x2="780" y1="430.6" y2="430.6"/><text fill="#000000" font-family="sans-serif" font-size="13" lengthAdjust="spacing" textLength="179" x="50.5" y="425.077">Clicks "View Report" for a user</text><polygon fill="#181818" points="1812,456.2,1822,460.2,1812,464.2,1816,460.2" style="stroke:#181818;stroke-width:1.0;"/><line style="stroke:#181818;stroke-width:1.0;" x1="786" x2="1818" y1="460.2" y2="460.2"/><text fill="#000000" font-family="sans-serif" font-size="13" lengthAdjust="spacing" textLength="256" x="793" y="454.677">Link to="/dashboard_trainer/reports/{userId}"</text><polygon fill="#181818" points="1400,485.8,1390,489.8,1400,493.8,1396,489.8" style="stroke:#181818;stroke-width:1.0;"/><line style="stroke:#181818;stroke-width:1.0;" x1="1394" x2="1828" y1="489.8" y2="489.8"/><text fill="#000000" font-family="sans-serif" font-size="13" lengthAdjust="spacing" textLength="375" x="1406" y="484.277">Navigates and loads component, triggers loader for $userId route</text><polygon fill="#181818" points="1003,515.4,993,519.4,1003,523.4,999,519.4" style="stroke:#181818;stroke-width:1.0;"/><line style="stroke:#181818;stroke-width:1.0;" x1="997" x2="1378" y1="519.4" y2="519.4"/><text fill="#000000" font-family="sans-serif" font-size="13" lengthAdjust="spacing" textLength="127" x="1009" y="513.877">getUserReport(userId)</text><polygon fill="#181818" points="2078,545,2088,549,2078,553,2082,549" style="stroke:#181818;stroke-width:1.0;"/><line style="stroke:#181818;stroke-width:1.0;" x1="992" x2="2084" y1="549" y2="549"/><text fill="#000000" font-family="sans-serif" font-size="13" lengthAdjust="spacing" textLength="196" x="999" y="543.477">fetchJson("/reports/user/{userId}")</text><polygon fill="#181818" points="2225,574.6001,2235,578.6001,2225,582.6001,2229,578.6001" style="stroke:#181818;stroke-width:1.0;"/><line style="stroke:#181818;stroke-width:1.0;" x1="2100" x2="2231" y1="578.6001" y2="578.6001"/><text fill="#000000" font-family="sans-serif" font-size="13" lengthAdjust="spacing" textLength="62" x="2107" y="573.0771">getToken()</text><polygon fill="#181818" points="2111,604.2001,2101,608.2001,2111,612.2001,2107,608.2001" style="stroke:#181818;stroke-width:1.0;"/><line style="stroke:#181818;stroke-width:1.0;stroke-dasharray:2.0,2.0;" x1="2105" x2="2241" y1="608.2001" y2="608.2001"/><text fill="#000000" font-family="sans-serif" font-size="13" lengthAdjust="spacing" textLength="113" x="2117" y="602.6771">"trainer_token_123"</text><polygon fill="#181818" points="2358.5,633.8001,2368.5,637.8001,2358.5,641.8001,2362.5,637.8001" style="stroke:#181818;stroke-width:1.0;"/><line style="stroke:#181818;stroke-width:1.0;" x1="2100" x2="2364.5" y1="637.8001" y2="637.8001"/><text fill="#000000" font-family="sans-serif" font-size="13" lengthAdjust="spacing" textLength="152" x="2107" y="632.2771">GET /reports/user/{userId}</text><path d="M898.5,652.8001 L958.5,652.8001 L958.5,660.4001 L948.5,670.4001 L898.5,670.4001 L898.5,652.8001 " fill="#EEEEEE" style="stroke:#000000;stroke-width:1.5;"/><rect fill="none" height="312.6" style="stroke:#000000;stroke-width:1.5;" width="1546.5" x="898.5" y="652.8001"/><text fill="#000000" font-family="sans-serif" font-size="13" font-weight="bold" lengthAdjust="spacing" textLength="15" x="913.5" y="665.8771">alt</text><text fill="#000000" font-family="sans-serif" font-size="11" font-weight="bold" lengthAdjust="spacing" textLength="79" x="973.5" y="665.019">[Report found]</text><polygon fill="#181818" points="2111,688.0001,2101,692.0001,2111,696.0001,2107,692.0001" style="stroke:#181818;stroke-width:1.0;"/><line style="stroke:#181818;stroke-width:1.0;stroke-dasharray:2.0,2.0;" x1="2105" x2="2369.5" y1="692.0001" y2="692.0001"/><text fill="#000000" font-family="sans-serif" font-size="13" lengthAdjust="spacing" textLength="161" x="2117" y="686.4771">HTTP 200 OK (Report data)</text><polygon fill="#181818" points="1003,717.6001,993,721.6001,1003,725.6001,999,721.6001" style="stroke:#181818;stroke-width:1.0;"/><line style="stroke:#181818;stroke-width:1.0;stroke-dasharray:2.0,2.0;" x1="997" x2="2089" y1="721.6001" y2="721.6001"/><text fill="#000000" font-family="sans-serif" font-size="13" lengthAdjust="spacing" textLength="38" x="1009" y="716.0771">Report</text><polygon fill="#181818" points="1367,747.2001,1377,751.2001,1367,755.2001,1371,751.2001" style="stroke:#181818;stroke-width:1.0;"/><line style="stroke:#181818;stroke-width:1.0;stroke-dasharray:2.0,2.0;" x1="992" x2="1373" y1="751.2001" y2="751.2001"/><text fill="#000000" font-family="sans-serif" font-size="13" lengthAdjust="spacing" textLength="67" x="999" y="745.6771">Report data</text><polygon fill="#181818" points="1649,776.8002,1659,780.8002,1649,784.8002,1653,780.8002" style="stroke:#181818;stroke-width:1.0;"/><line style="stroke:#181818;stroke-width:1.0;" x1="1389" x2="1655" y1="780.8002" y2="780.8002"/><text fill="#000000" font-family="sans-serif" font-size="13" lengthAdjust="spacing" textLength="253" x="1396" y="775.2772">Renders UserReportDisplay with report data</text><line style="stroke:#000000;stroke-width:1.0;stroke-dasharray:2.0,2.0;" x1="898.5" x2="2445" y1="819.8002" y2="819.8002"/><text fill="#000000" font-family="sans-serif" font-size="11" font-weight="bold" lengthAdjust="spacing" textLength="142" x="903.5" y="830.0191">[Report not found or error]</text><polygon fill="#181818" points="2111,851.6001,2101,855.6001,2111,859.6001,2107,855.6001" style="stroke:#181818;stroke-width:1.0;"/><line style="stroke:#181818;stroke-width:1.0;stroke-dasharray:2.0,2.0;" x1="2105" x2="2369.5" y1="855.6001" y2="855.6001"/><text fill="#000000" font-family="sans-serif" font-size="13" lengthAdjust="spacing" textLength="129" x="2117" y="850.0771">HTTP Error (e.g., 404)</text><polygon fill="#181818" points="1003,881.2001,993,885.2001,1003,889.2001,999,885.2001" style="stroke:#181818;stroke-width:1.0;"/><line style="stroke:#181818;stroke-width:1.0;" x1="997" x2="2089" y1="885.2001" y2="885.2001"/><text fill="#000000" font-family="sans-serif" font-size="13" lengthAdjust="spacing" textLength="70" x="1009" y="879.6771">throws Error</text><polygon fill="#181818" points="1367,910.8001,1377,914.8001,1367,918.8001,1371,914.8001" style="stroke:#181818;stroke-width:1.0;"/><line style="stroke:#181818;stroke-width:1.0;stroke-dasharray:2.0,2.0;" x1="992" x2="1373" y1="914.8001" y2="914.8001"/><text fill="#000000" font-family="sans-serif" font-size="13" lengthAdjust="spacing" textLength="70" x="999" y="909.2771">throws Error</text><line style="stroke:#181818;stroke-width:1.0;" x1="1389" x2="1431" y1="944.4001" y2="944.4001"/><line style="stroke:#181818;stroke-width:1.0;" x1="1431" x2="1431" y1="944.4001" y2="957.4001"/><line style="stroke:#181818;stroke-width:1.0;" x1="1390" x2="1431" y1="957.4001" y2="957.4001"/><polygon fill="#181818" points="1400,953.4001,1390,957.4001,1400,961.4001,1396,957.4001" style="stroke:#181818;stroke-width:1.0;"/><text fill="#000000" font-family="sans-serif" font-size="13" lengthAdjust="spacing" textLength="184" x="1396" y="938.8771">Renders ReportErrorComponent</text><!--SRC=[ZLPTRzis57tdhxWG1aG672Vh-YHq0L8dwRnrcvSuVUaAWvOOcGXDUYJLm2ZwttVvOOcIicHl8ddEkPU7XxGjjuB1_NmzLz8qmb9zo_PAMsRkJKCrL-PQMiqahPGku8xzqp1PChZYjDPqHmWjhTAGTQ0Cg86LfbmoJVPKMrxoFPKMiY1ynwWkjqjQCuzC9-7Tk_nsgl2BLvEBYpvx8VUDXVnwHxc0W9zu1JyJLf4_dmfURssjsM4aSM-ODYkwmGtdiU8jSvisazYB7mJ4ArhQzxtUqFAHoMfcpT-oPjPL23lA9ydstWUKqxoP7fWGwcaas21rA7SfXEyvYhdlZzpyBxbGsDayLxkzaWmdywk3f3jUmgrgB4iRTBWNtUysTiNDNj13GeuphpcselBEOkU-U8X9-7J4kvR8v8ZvLyFqOIuuxi7Jad7WFbkliLmOx-G3i-NsLwDazF76ZUznEJYeD4MpH_pBncv_fnAT2StwSPrskn7Dc1OFvtAv2Apb8Z2isb6h79p4sm6d5_tu5_07_SfhYfSFh8ApYfhjHb5ThMrWd8NKcJDtxVXN1FO4I4yDrLEZ2i24-OdyymcDmRfHEkMSV9bqoWcPf4AeEmnY0RsmaXEOpMRGskusWm30ggu9RVpo2HdAd8vQTeY5V52Vlv2AlTxPsD148BKzUJCAmBVBzUGw0-QV5-pN14SJu5XSoVdMHISFu4_KvM5q20FI3HTjEGCRQbY5Gh5UUDroeKhqwl2SLl925JYKbLDvy9eev4K70UinqAdoqK3sYREds5a63_Y2KyybFRYZXnjQm4Sk7z6NdxCNKldDIIogxraIJyydKQPrmxytQTmf7hzGj39G7f-hALZDwzhjpwqWtVNvGwW1sYcceOYL1XV35I8aATgsqCjkycu7_SbGAC99dungtMDIT8dFizOKfzSva-YsHD99eDxncV5zhHIMoHDIN2L7rEcWWooUoTewvlh7DpzbgKb7UhyYFb45VBXUmVDD9zMN2qA5ZPRWUJJe27Y1OIE_h5PBU7D-3d_-1dd4LzJI2UAJwiySHnWZR63rC3o9Q0lk7_7nXwcxAAEVCNZYTWkw9pKu-OZ4XJHjlIKcp74Af8h60AQLQQtqImvTEm3aR5RFfl3s_Et0dh4xTglLamcyrppwBtZVfTREO56Oz8JsdmDnoKzZX3b8XbsIHmuThyremL_CqMnuwVu5]--></g></svg>