<?xml version="1.0" encoding="us-ascii" standalone="no"?><svg xmlns="http://www.w3.org/2000/svg" xmlns:xlink="http://www.w3.org/1999/xlink" contentStyleType="text/css" height="752px" preserveAspectRatio="none" style="width:923px;height:752px;background:#FFFFFF;" version="1.1" viewBox="0 0 923 752" width="923px" zoomAndPan="magnify"><defs/><g><text fill="#000000" font-family="sans-serif" font-size="14" font-weight="bold" lengthAdjust="spacing" textLength="416" x="252" y="33.0059">UC_GestionarNivelesCategoriasEntrenador: Activity Diagram</text><ellipse cx="588.75" cy="57.7999" fill="#222222" rx="10" ry="10" style="stroke:#222222;stroke-width:1.0;"/><rect fill="#F1F1F1" height="34.4001" rx="12.5" ry="12.5" style="stroke:#181818;stroke-width:0.5;" width="386" x="395.75" y="87.7999"/><text fill="#000000" font-family="sans-serif" font-size="12" lengthAdjust="spacing" textLength="366" x="405.75" y="108.948">Entrenador navega a "Gestionar Niveles de Usuario en Categor&#237;as"</text><rect fill="#F1F1F1" height="34.4001" rx="12.5" ry="12.5" style="stroke:#181818;stroke-width:0.5;" width="242" x="467.75" y="142.2"/><text fill="#000000" font-family="sans-serif" font-size="12" lengthAdjust="spacing" textLength="222" x="477.75" y="163.3481">Sistema carga lista de todos los usuarios</text><rect fill="#F1F1F1" height="34.4001" rx="12.5" ry="12.5" style="stroke:#181818;stroke-width:0.5;" width="310" x="433.75" y="196.6001"/><text fill="#000000" font-family="sans-serif" font-size="12" lengthAdjust="spacing" textLength="290" x="443.75" y="217.7482">Entrenador busca o selecciona un Usuario espec&#237;fico</text><rect fill="#F1F1F1" height="34.4001" rx="12.5" ry="12.5" style="stroke:#181818;stroke-width:0.5;" width="554" x="311.75" y="251.0002"/><text fill="#000000" font-family="sans-serif" font-size="12" lengthAdjust="spacing" textLength="534" x="321.75" y="272.1483">Sistema muestra las categor&#237;as en las que el Usuario est&#225; registrado y su nivel actual en cada una</text><rect fill="#F1F1F1" height="34.4001" rx="12.5" ry="12.5" style="stroke:#181818;stroke-width:0.5;" width="574" x="301.75" y="305.4003"/><text fill="#000000" font-family="sans-serif" font-size="12" lengthAdjust="spacing" textLength="554" x="311.75" y="326.5484">Para una categor&#237;a espec&#237;fica del Usuario, Entrenador selecciona un nuevo Nivel desde un dropdown</text><polygon fill="#F1F1F1" points="490.75,359.8004,686.75,359.8004,698.75,371.8004,686.75,383.8004,490.75,383.8004,478.75,371.8004,490.75,359.8004" style="stroke:#181818;stroke-width:0.5;"/><text fill="#000000" font-family="sans-serif" font-size="11" lengthAdjust="spacing" textLength="196" x="490.75" y="375.4194">Nuevo Nivel es diferente al Nivel Actual?</text><text fill="#000000" font-family="sans-serif" font-size="11" lengthAdjust="spacing" textLength="9" x="469.75" y="368.8195">s&#237;</text><text fill="#000000" font-family="sans-serif" font-size="11" lengthAdjust="spacing" textLength="12" x="698.75" y="368.8195">no</text><rect fill="#F1F1F1" height="48.8002" rx="12.5" ry="12.5" style="stroke:#181818;stroke-width:0.5;" width="369" x="170.5" y="393.8004"/><text fill="#000000" font-family="sans-serif" font-size="12" lengthAdjust="spacing" textLength="349" x="180.5" y="414.9485">Sistema env&#237;a solicitud de actualizaci&#243;n de nivel al Backend API</text><text fill="#000000" font-family="sans-serif" font-size="12" lengthAdjust="spacing" textLength="214" x="180.5" y="429.3486">(ID Usuario, ID Categor&#237;a, Nuevo Nivel)</text><polygon fill="#F1F1F1" points="270,462.6006,440,462.6006,452,474.6006,440,486.6006,270,486.6006,258,474.6006,270,462.6006" style="stroke:#181818;stroke-width:0.5;"/><text fill="#000000" font-family="sans-serif" font-size="11" lengthAdjust="spacing" textLength="170" x="270" y="478.2196">Actualizaci&#243;n Exitosa en Backend?</text><text fill="#000000" font-family="sans-serif" font-size="11" lengthAdjust="spacing" textLength="9" x="249" y="471.6197">s&#237;</text><text fill="#000000" font-family="sans-serif" font-size="11" lengthAdjust="spacing" textLength="106" x="452" y="471.6197">no - error en backend</text><rect fill="#F1F1F1" height="34.4001" rx="12.5" ry="12.5" style="stroke:#181818;stroke-width:0.5;" width="332" x="11" y="496.6006"/><text fill="#000000" font-family="sans-serif" font-size="12" lengthAdjust="spacing" textLength="312" x="21" y="517.7487">Backend API actualiza el nivel del usuario en la categor&#237;a</text><rect fill="#F1F1F1" height="34.4001" rx="12.5" ry="12.5" style="stroke:#181818;stroke-width:0.5;" width="198" x="78" y="551.0007"/><text fill="#000000" font-family="sans-serif" font-size="12" lengthAdjust="spacing" textLength="178" x="88" y="572.1488">Mostrar mensaje de &#233;xito (Toast)</text><rect fill="#F1F1F1" height="34.4001" rx="12.5" ry="12.5" style="stroke:#181818;stroke-width:0.5;" width="237" x="58.5" y="605.4008"/><text fill="#000000" font-family="sans-serif" font-size="12" lengthAdjust="spacing" textLength="217" x="68.5" y="626.5489">Actualizar UI para reflejar el nuevo nivel</text><rect fill="#F1F1F1" height="34.4001" rx="12.5" ry="12.5" style="stroke:#181818;stroke-width:0.5;" width="161" x="452.5" y="496.6006"/><text fill="#000000" font-family="sans-serif" font-size="12" lengthAdjust="spacing" textLength="141" x="462.5" y="517.7487">Backend API retorna error</text><rect fill="#F1F1F1" height="34.4001" rx="12.5" ry="12.5" style="stroke:#181818;stroke-width:0.5;" width="198" x="434" y="551.0007"/><text fill="#000000" font-family="sans-serif" font-size="12" lengthAdjust="spacing" textLength="178" x="444" y="572.1488">Mostrar mensaje de error (Toast)</text><rect fill="#F1F1F1" height="34.4001" rx="12.5" ry="12.5" style="stroke:#181818;stroke-width:0.5;" width="340" x="363" y="605.4008"/><text fill="#000000" font-family="sans-serif" font-size="12" lengthAdjust="spacing" textLength="320" x="373" y="626.5489">Revertir selecci&#243;n del dropdown al nivel original (opcional)</text><polygon fill="#F1F1F1" points="355,645.8009,367,657.8009,355,669.8009,343,657.8009,355,645.8009" style="stroke:#181818;stroke-width:0.5;"/><rect fill="#F1F1F1" height="34.4001" rx="12.5" ry="12.5" style="stroke:#181818;stroke-width:0.5;" width="179" x="733" y="393.8004"/><text fill="#000000" font-family="sans-serif" font-size="12" lengthAdjust="spacing" textLength="159" x="743" y="414.9485">No se realiza ninguna acci&#243;n</text><polygon fill="#F1F1F1" points="588.75,675.8009,600.75,687.8009,588.75,699.8009,576.75,687.8009,588.75,675.8009" style="stroke:#181818;stroke-width:0.5;"/><ellipse cx="588.75" cy="730.8009" fill="none" rx="11" ry="11" style="stroke:#222222;stroke-width:1.0;"/><ellipse cx="588.75" cy="730.8009" fill="#222222" rx="6" ry="6" style="stroke:#222222;stroke-width:1.0;"/><line style="stroke:#181818;stroke-width:1.0;" x1="588.75" x2="588.75" y1="67.7999" y2="87.7999"/><polygon fill="#181818" points="584.75,77.7999,588.75,87.7999,592.75,77.7999,588.75,81.7999" style="stroke:#181818;stroke-width:1.0;"/><line style="stroke:#181818;stroke-width:1.0;" x1="588.75" x2="588.75" y1="122.2" y2="142.2"/><polygon fill="#181818" points="584.75,132.2,588.75,142.2,592.75,132.2,588.75,136.2" style="stroke:#181818;stroke-width:1.0;"/><line style="stroke:#181818;stroke-width:1.0;" x1="588.75" x2="588.75" y1="176.6001" y2="196.6001"/><polygon fill="#181818" points="584.75,186.6001,588.75,196.6001,592.75,186.6001,588.75,190.6001" style="stroke:#181818;stroke-width:1.0;"/><line style="stroke:#181818;stroke-width:1.0;" x1="588.75" x2="588.75" y1="231.0002" y2="251.0002"/><polygon fill="#181818" points="584.75,241.0002,588.75,251.0002,592.75,241.0002,588.75,245.0002" style="stroke:#181818;stroke-width:1.0;"/><line style="stroke:#181818;stroke-width:1.0;" x1="588.75" x2="588.75" y1="285.4003" y2="305.4003"/><polygon fill="#181818" points="584.75,295.4003,588.75,305.4003,592.75,295.4003,588.75,299.4003" style="stroke:#181818;stroke-width:1.0;"/><line style="stroke:#181818;stroke-width:1.0;" x1="177" x2="177" y1="531.0007" y2="551.0007"/><polygon fill="#181818" points="173,541.0007,177,551.0007,181,541.0007,177,545.0007" style="stroke:#181818;stroke-width:1.0;"/><line style="stroke:#181818;stroke-width:1.0;" x1="177" x2="177" y1="585.4008" y2="605.4008"/><polygon fill="#181818" points="173,595.4008,177,605.4008,181,595.4008,177,599.4008" style="stroke:#181818;stroke-width:1.0;"/><line style="stroke:#181818;stroke-width:1.0;" x1="533" x2="533" y1="531.0007" y2="551.0007"/><polygon fill="#181818" points="529,541.0007,533,551.0007,537,541.0007,533,545.0007" style="stroke:#181818;stroke-width:1.0;"/><line style="stroke:#181818;stroke-width:1.0;" x1="533" x2="533" y1="585.4008" y2="605.4008"/><polygon fill="#181818" points="529,595.4008,533,605.4008,537,595.4008,533,599.4008" style="stroke:#181818;stroke-width:1.0;"/><line style="stroke:#181818;stroke-width:1.0;" x1="258" x2="177" y1="474.6006" y2="474.6006"/><line style="stroke:#181818;stroke-width:1.0;" x1="177" x2="177" y1="474.6006" y2="496.6006"/><polygon fill="#181818" points="173,486.6006,177,496.6006,181,486.6006,177,490.6006" style="stroke:#181818;stroke-width:1.0;"/><line style="stroke:#181818;stroke-width:1.0;" x1="452" x2="533" y1="474.6006" y2="474.6006"/><line style="stroke:#181818;stroke-width:1.0;" x1="533" x2="533" y1="474.6006" y2="496.6006"/><polygon fill="#181818" points="529,486.6006,533,496.6006,537,486.6006,533,490.6006" style="stroke:#181818;stroke-width:1.0;"/><line style="stroke:#181818;stroke-width:1.0;" x1="177" x2="177" y1="639.8009" y2="657.8009"/><line style="stroke:#181818;stroke-width:1.0;" x1="177" x2="343" y1="657.8009" y2="657.8009"/><polygon fill="#181818" points="333,653.8009,343,657.8009,333,661.8009,337,657.8009" style="stroke:#181818;stroke-width:1.0;"/><line style="stroke:#181818;stroke-width:1.0;" x1="533" x2="533" y1="639.8009" y2="657.8009"/><line style="stroke:#181818;stroke-width:1.0;" x1="533" x2="367" y1="657.8009" y2="657.8009"/><polygon fill="#181818" points="377,653.8009,367,657.8009,377,661.8009,373,657.8009" style="stroke:#181818;stroke-width:1.0;"/><line style="stroke:#181818;stroke-width:1.0;" x1="355" x2="355" y1="442.6006" y2="462.6006"/><polygon fill="#181818" points="351,452.6006,355,462.6006,359,452.6006,355,456.6006" style="stroke:#181818;stroke-width:1.0;"/><line style="stroke:#181818;stroke-width:1.0;" x1="478.75" x2="355" y1="371.8004" y2="371.8004"/><line style="stroke:#181818;stroke-width:1.0;" x1="355" x2="355" y1="371.8004" y2="393.8004"/><polygon fill="#181818" points="351,383.8004,355,393.8004,359,383.8004,355,387.8004" style="stroke:#181818;stroke-width:1.0;"/><line style="stroke:#181818;stroke-width:1.0;" x1="698.75" x2="822.5" y1="371.8004" y2="371.8004"/><line style="stroke:#181818;stroke-width:1.0;" x1="822.5" x2="822.5" y1="371.8004" y2="393.8004"/><polygon fill="#181818" points="818.5,383.8004,822.5,393.8004,826.5,383.8004,822.5,387.8004" style="stroke:#181818;stroke-width:1.0;"/><line style="stroke:#181818;stroke-width:1.0;" x1="355" x2="355" y1="669.8009" y2="687.8009"/><line style="stroke:#181818;stroke-width:1.0;" x1="355" x2="576.75" y1="687.8009" y2="687.8009"/><polygon fill="#181818" points="566.75,683.8009,576.75,687.8009,566.75,691.8009,570.75,687.8009" style="stroke:#181818;stroke-width:1.0;"/><line style="stroke:#181818;stroke-width:1.0;" x1="822.5" x2="822.5" y1="428.2005" y2="687.8009"/><line style="stroke:#181818;stroke-width:1.0;" x1="822.5" x2="600.75" y1="687.8009" y2="687.8009"/><polygon fill="#181818" points="610.75,683.8009,600.75,687.8009,610.75,691.8009,606.75,687.8009" style="stroke:#181818;stroke-width:1.0;"/><line style="stroke:#181818;stroke-width:1.0;" x1="588.75" x2="588.75" y1="339.8004" y2="359.8004"/><polygon fill="#181818" points="584.75,349.8004,588.75,359.8004,592.75,349.8004,588.75,353.8004" style="stroke:#181818;stroke-width:1.0;"/><line style="stroke:#181818;stroke-width:1.0;" x1="588.75" x2="588.75" y1="699.8009" y2="719.8009"/><polygon fill="#181818" points="584.75,709.8009,588.75,719.8009,592.75,709.8009,588.75,713.8009" style="stroke:#181818;stroke-width:1.0;"/><!--SRC=[TPF1RjD048RlVefHJuvKNY0-eD1MLGv45T0R4fgknsRAPZVihWtbRJXoo8b7y8inutKS1y71aZtQ-VzlvbydJfRWyURJFSN4tc7OSK-MuWqcQdrWZ7Sk1N9O-x26ZKdSStg1MyOsuBueOiAGYlNv43ZigKL0k9erOHA5MhnYXu4za8F9OpXYlAgAzNkEYVO81eFqM_b2RKY-zX6iF5rkZTM5trCN3OA7A0x6g1zqxcmJ3sI6OyF6BopsdQ05CS4eTZE5GcdfQqT0Tg6HXfyGg6LjgZsyGEp0wKo09dLejT5WhSueDWyOnjU5zW94fvh5hs4nokK8hgFUvzL9HvHLIB4E_b3xRwugk85ojpYYw-M6H2iH25AkRaQ-roj8duMnZCDnLG3CYo3NArpqbWsdhjQ5vv7u1neUVZkjJADQU8Fc2xaQDW_RZwxStfwdaFTpdDUm05jLOgYmcqlTk- -SV5I4a-pVbCAvC3npQJPkMeiztOgStMBZLLPuwpMq07jo4Pz9nnb-gJMK7pp6j9hEpNG17hTmq0G3DPQUfQ1-uq2ZgpQGZGIby_0AA0I9JjoVCki_o0Cb7oJKyUZ_kRBI9TOxwYaadkz6JiJEzq1JoRkGdxLb9v-bFuntA6zU6BWfJhnZ-3lzMGGgBzEnQ_MkObQlYjmHap_y0G00]--></g></svg>