<?xml version="1.0" encoding="us-ascii" standalone="no"?><svg xmlns="http://www.w3.org/2000/svg" xmlns:xlink="http://www.w3.org/1999/xlink" contentStyleType="text/css" height="1541px" preserveAspectRatio="none" style="width:2392px;height:1541px;background:#FFFFFF;" version="1.1" viewBox="0 0 2392 1541" width="2392px" zoomAndPan="magnify"><defs/><g><text fill="#000000" font-family="sans-serif" font-size="14" font-weight="bold" lengthAdjust="spacing" textLength="622" x="886.25" y="28.0059">UC_GestionarEntrenamientosCRUDAdmin (Crear/Editar Entrenamiento): Sequence Diagram</text><rect fill="#FFFFFF" height="1245.6004" style="stroke:#181818;stroke-width:1.0;" width="10" x="756" y="205.3999"/><rect fill="#FFFFFF" height="629.0003" style="stroke:#181818;stroke-width:1.0;" width="10" x="761" y="813.0001"/><rect fill="#FFFFFF" height="88.8" style="stroke:#181818;stroke-width:1.0;" width="10" x="1022" y="234.9999"/><rect fill="#FFFFFF" height="88.8" style="stroke:#181818;stroke-width:1.0;" width="10" x="1022" y="872.2001"/><rect fill="#FFFFFF" height="296.0001" style="stroke:#181818;stroke-width:1.0;" width="10" x="1231.5" y="353.4"/><rect fill="#FFFFFF" height="296.0001" style="stroke:#181818;stroke-width:1.0;" width="10" x="1231.5" y="990.6001"/><rect fill="#FFFFFF" height="1008.8003" style="stroke:#181818;stroke-width:1.0;" width="10" x="1722" y="442.2"/><rect fill="#FFFFFF" height="371.6002" style="stroke:#181818;stroke-width:1.0;" width="10" x="1727" y="1079.4002"/><rect fill="#FFFFFF" height="29.6" style="stroke:#181818;stroke-width:1.0;" width="10" x="1873" y="471.8"/><rect fill="#FFFFFF" height="29.6" style="stroke:#181818;stroke-width:1.0;" width="10" x="1873" y="1109.0002"/><rect fill="#FFFFFF" height="29.6" style="stroke:#181818;stroke-width:1.0;" width="10" x="2083" y="531"/><rect fill="#FFFFFF" height="29.6" style="stroke:#181818;stroke-width:1.0;" width="10" x="2083" y="1168.2002"/><rect fill="#FFFFFF" height="29.6" style="stroke:#181818;stroke-width:1.0;" width="10" x="2211" y="1382.8003"/><rect fill="#FFFFFF" height="30" style="stroke:#181818;stroke-width:1.0;" width="10" x="2325" y="679.0001"/><rect fill="#FFFFFF" height="30" style="stroke:#181818;stroke-width:1.0;" width="10" x="2325" y="1316.2003"/><rect fill="none" height="1217.6004" style="stroke:#000000;stroke-width:1.5;" width="2375.5" x="10" y="136.5999"/><line style="stroke:#181818;stroke-width:0.5;stroke-dasharray:5.0,5.0;" x1="43" x2="43" y1="119.5999" y2="1460.0003"/><line style="stroke:#181818;stroke-width:0.5;stroke-dasharray:5.0,5.0;" x1="233.5" x2="233.5" y1="119.5999" y2="1460.0003"/><line style="stroke:#181818;stroke-width:0.5;stroke-dasharray:5.0,5.0;" x1="457.5" x2="457.5" y1="119.5999" y2="1460.0003"/><line style="stroke:#181818;stroke-width:0.5;stroke-dasharray:5.0,5.0;" x1="760.5" x2="760.5" y1="119.5999" y2="1460.0003"/><line style="stroke:#181818;stroke-width:0.5;stroke-dasharray:5.0,5.0;" x1="1027" x2="1027" y1="119.5999" y2="1460.0003"/><line style="stroke:#181818;stroke-width:0.5;stroke-dasharray:5.0,5.0;" x1="1236" x2="1236" y1="119.5999" y2="1460.0003"/><line style="stroke:#181818;stroke-width:0.5;stroke-dasharray:5.0,5.0;" x1="1556.5" x2="1556.5" y1="119.5999" y2="1460.0003"/><line style="stroke:#181818;stroke-width:0.5;stroke-dasharray:5.0,5.0;" x1="1726.5" x2="1726.5" y1="119.5999" y2="1460.0003"/><line style="stroke:#181818;stroke-width:0.5;stroke-dasharray:5.0,5.0;" x1="1878" x2="1878" y1="119.5999" y2="1460.0003"/><line style="stroke:#181818;stroke-width:0.5;stroke-dasharray:5.0,5.0;" x1="2087.5" x2="2087.5" y1="119.5999" y2="1460.0003"/><line style="stroke:#181818;stroke-width:0.5;stroke-dasharray:5.0,5.0;" x1="2215.5" x2="2215.5" y1="119.5999" y2="1460.0003"/><line style="stroke:#181818;stroke-width:0.5;stroke-dasharray:5.0,5.0;" x1="2329.5" x2="2329.5" y1="119.5999" y2="1460.0003"/><text fill="#000000" font-family="sans-serif" font-size="14" lengthAdjust="spacing" textLength="40" x="20" y="115.8059">Admin</text><ellipse cx="43" cy="51.2999" fill="#E2E2F0" rx="8" ry="8" style="stroke:#181818;stroke-width:0.5;"/><path d="M43,59.2999 L43,86.2999 M30,67.2999 L56,67.2999 M43,86.2999 L30,101.2999 M43,86.2999 L56,101.2999 " fill="none" style="stroke:#181818;stroke-width:0.5;"/><text fill="#000000" font-family="sans-serif" font-size="14" lengthAdjust="spacing" textLength="40" x="20" y="1472.0063">Admin</text><ellipse cx="43" cy="1484.3003" fill="#E2E2F0" rx="8" ry="8" style="stroke:#181818;stroke-width:0.5;"/><path d="M43,1492.3003 L43,1519.3003 M30,1500.3003 L56,1500.3003 M43,1519.3003 L30,1534.3003 M43,1519.3003 L56,1534.3003 " fill="none" style="stroke:#181818;stroke-width:0.5;"/><rect fill="#E2E2F0" height="36" rx="2.5" ry="2.5" style="stroke:#181818;stroke-width:0.5;" width="167" x="150.5" y="82.5999"/><ellipse cx="168.5" cy="100.5999" fill="#DA70D6" rx="11" ry="11" style="stroke:#181818;stroke-width:1.0;"/><path d="M166.3594,101.9905 L167.9375,101.9905 C168.6094,102.2405 170.0938,103.9124 170.9688,105.4905 L171.0313,105.5999 L172.4063,105.5999 C172.7344,105.5999 173.0156,105.553 173.1563,105.4749 C173.4219,105.3186 173.5938,105.0217 173.5938,104.7092 C173.5938,104.4436 173.4375,104.1624 173.2188,104.0061 C173.0313,103.8655 172.8594,103.8342 172.4063,103.8342 L172.2188,103.8342 C171.5625,102.8499 170.8906,102.053 170.1563,101.4124 C171.3594,100.7874 171.9375,99.9905 171.9375,98.9592 C171.9375,97.2249 170.3906,96.0061 168.1406,96.0061 L164.3438,96.0061 C163.8906,96.0061 163.7656,96.0217 163.5938,96.1311 C163.3281,96.303 163.1563,96.5842 163.1563,96.8811 C163.1563,97.1624 163.3125,97.4436 163.5313,97.5999 C163.7188,97.7249 163.9063,97.7561 164.3438,97.7561 L164.5313,97.7561 L164.5313,103.8342 L164.3438,103.8342 C163.9219,103.8342 163.7656,103.8655 163.5938,103.9749 C163.3281,104.1155 163.1563,104.4124 163.1563,104.7092 C163.1563,105.2874 163.5625,105.5999 164.3438,105.5999 L166.8906,105.5999 C167.25,105.5999 167.5,105.553 167.6406,105.4749 C167.9063,105.3186 168.0781,105.0217 168.0781,104.7092 C168.0781,104.4436 167.9531,104.178 167.7031,104.0061 C167.5156,103.8655 167.375,103.8342 166.8906,103.8342 L166.3594,103.8342 L166.3594,101.9905 Z M166.3594,100.2405 L166.3594,97.7561 L168.2031,97.7561 C169.2344,97.7561 170,98.2405 170,98.8967 C170,99.678 168.9844,100.2405 167.5938,100.2405 L166.3594,100.2405 Z " fill="#000000"/><text fill="#000000" font-family="sans-serif" font-size="14" lengthAdjust="spacing" textLength="125" x="185.5" y="102.6058">AdminTrainingPage</text><rect fill="#E2E2F0" height="36" rx="2.5" ry="2.5" style="stroke:#181818;stroke-width:0.5;" width="167" x="150.5" y="1459.0003"/><ellipse cx="168.5" cy="1477.0003" fill="#DA70D6" rx="11" ry="11" style="stroke:#181818;stroke-width:1.0;"/><path d="M166.3594,1478.391 L167.9375,1478.391 C168.6094,1478.641 170.0938,1480.3128 170.9688,1481.891 L171.0313,1482.0003 L172.4063,1482.0003 C172.7344,1482.0003 173.0156,1481.9535 173.1563,1481.8753 C173.4219,1481.7191 173.5938,1481.4222 173.5938,1481.1097 C173.5938,1480.8441 173.4375,1480.5628 173.2188,1480.4066 C173.0313,1480.266 172.8594,1480.2347 172.4063,1480.2347 L172.2188,1480.2347 C171.5625,1479.2503 170.8906,1478.4535 170.1563,1477.8128 C171.3594,1477.1878 171.9375,1476.391 171.9375,1475.3597 C171.9375,1473.6253 170.3906,1472.4066 168.1406,1472.4066 L164.3438,1472.4066 C163.8906,1472.4066 163.7656,1472.4222 163.5938,1472.5316 C163.3281,1472.7035 163.1563,1472.9847 163.1563,1473.2816 C163.1563,1473.5628 163.3125,1473.8441 163.5313,1474.0003 C163.7188,1474.1253 163.9063,1474.1566 164.3438,1474.1566 L164.5313,1474.1566 L164.5313,1480.2347 L164.3438,1480.2347 C163.9219,1480.2347 163.7656,1480.266 163.5938,1480.3753 C163.3281,1480.516 163.1563,1480.8128 163.1563,1481.1097 C163.1563,1481.6878 163.5625,1482.0003 164.3438,1482.0003 L166.8906,1482.0003 C167.25,1482.0003 167.5,1481.9535 167.6406,1481.8753 C167.9063,1481.7191 168.0781,1481.4222 168.0781,1481.1097 C168.0781,1480.8441 167.9531,1480.5785 167.7031,1480.4066 C167.5156,1480.266 167.375,1480.2347 166.8906,1480.2347 L166.3594,1480.2347 L166.3594,1478.391 Z M166.3594,1476.641 L166.3594,1474.1566 L168.2031,1474.1566 C169.2344,1474.1566 170,1474.641 170,1475.2972 C170,1476.0785 168.9844,1476.641 167.5938,1476.641 L166.3594,1476.641 Z " fill="#000000"/><text fill="#000000" font-family="sans-serif" font-size="14" lengthAdjust="spacing" textLength="125" x="185.5" y="1479.0063">AdminTrainingPage</text><rect fill="#E2E2F0" height="36" rx="2.5" ry="2.5" style="stroke:#181818;stroke-width:0.5;" width="261" x="327.5" y="82.5999"/><ellipse cx="345.5" cy="100.5999" fill="#D3D3D3" rx="11" ry="11" style="stroke:#181818;stroke-width:1.0;"/><path d="M340.5,101.7561 C340.5,104.2561 342.6406,106.0686 345.5625,106.0686 C346.7969,106.0686 347.9688,105.7717 348.7188,105.2561 C349.3281,104.8342 349.6563,104.4124 349.6563,104.0061 C349.6563,103.5374 349.2344,103.1311 348.7344,103.1311 C348.5,103.1311 348.2813,103.2092 348.0781,103.4124 C347.6406,103.8499 347.6406,103.8499 347.4688,103.9436 C347.0156,104.178 346.375,104.3186 345.6094,104.3186 C343.6094,104.3186 342.3281,103.303 342.3281,101.7249 L342.3281,100.678 C342.3281,98.9749 343.5469,97.7717 345.25,97.7717 C345.8281,97.7717 346.4063,97.9124 346.875,98.1624 C347.3438,98.428 347.5156,98.6155 347.5781,98.9749 C347.7031,99.6467 347.9531,99.8967 348.4844,99.8967 C348.7656,99.8967 349.0469,99.7561 349.2344,99.5374 C349.3594,99.3655 349.4063,99.1936 349.4063,98.7561 L349.4063,97.3967 C349.4063,96.9749 349.3906,96.8342 349.2656,96.6624 C349.0938,96.4124 348.8125,96.2561 348.4844,96.2561 C348.1719,96.2561 347.9688,96.3655 347.75,96.6311 C346.5781,96.1311 346.1406,96.0217 345.1875,96.0217 C342.5156,96.0217 340.5,98.0374 340.5,100.6624 L340.5,101.7561 Z " fill="#000000"/><text fill="#000000" font-family="sans-serif" font-size="14" lengthAdjust="spacing" textLength="219" x="362.5" y="102.6058">TrainingComponentCard (existing)</text><rect fill="#E2E2F0" height="36" rx="2.5" ry="2.5" style="stroke:#181818;stroke-width:0.5;" width="261" x="327.5" y="1459.0003"/><ellipse cx="345.5" cy="1477.0003" fill="#D3D3D3" rx="11" ry="11" style="stroke:#181818;stroke-width:1.0;"/><path d="M340.5,1478.1566 C340.5,1480.6566 342.6406,1482.4691 345.5625,1482.4691 C346.7969,1482.4691 347.9688,1482.1722 348.7188,1481.6566 C349.3281,1481.2347 349.6563,1480.8128 349.6563,1480.4066 C349.6563,1479.9378 349.2344,1479.5316 348.7344,1479.5316 C348.5,1479.5316 348.2813,1479.6097 348.0781,1479.8128 C347.6406,1480.2503 347.6406,1480.2503 347.4688,1480.3441 C347.0156,1480.5785 346.375,1480.7191 345.6094,1480.7191 C343.6094,1480.7191 342.3281,1479.7035 342.3281,1478.1253 L342.3281,1477.0785 C342.3281,1475.3753 343.5469,1474.1722 345.25,1474.1722 C345.8281,1474.1722 346.4063,1474.3128 346.875,1474.5628 C347.3438,1474.8285 347.5156,1475.016 347.5781,1475.3753 C347.7031,1476.0472 347.9531,1476.2972 348.4844,1476.2972 C348.7656,1476.2972 349.0469,1476.1566 349.2344,1475.9378 C349.3594,1475.766 349.4063,1475.5941 349.4063,1475.1566 L349.4063,1473.7972 C349.4063,1473.3753 349.3906,1473.2347 349.2656,1473.0628 C349.0938,1472.8128 348.8125,1472.6566 348.4844,1472.6566 C348.1719,1472.6566 347.9688,1472.766 347.75,1473.0316 C346.5781,1472.5316 346.1406,1472.4222 345.1875,1472.4222 C342.5156,1472.4222 340.5,1474.4378 340.5,1477.0628 L340.5,1478.1566 Z " fill="#000000"/><text fill="#000000" font-family="sans-serif" font-size="14" lengthAdjust="spacing" textLength="219" x="362.5" y="1479.0063">TrainingComponentCard (existing)</text><rect fill="#E2E2F0" height="36" rx="2.5" ry="2.5" style="stroke:#181818;stroke-width:0.5;" width="325" x="598.5" y="82.5999"/><ellipse cx="616.5" cy="100.5999" fill="#D3D3D3" rx="11" ry="11" style="stroke:#181818;stroke-width:1.0;"/><path d="M611.5,101.7561 C611.5,104.2561 613.6406,106.0686 616.5625,106.0686 C617.7969,106.0686 618.9688,105.7717 619.7188,105.2561 C620.3281,104.8342 620.6563,104.4124 620.6563,104.0061 C620.6563,103.5374 620.2344,103.1311 619.7344,103.1311 C619.5,103.1311 619.2813,103.2092 619.0781,103.4124 C618.6406,103.8499 618.6406,103.8499 618.4688,103.9436 C618.0156,104.178 617.375,104.3186 616.6094,104.3186 C614.6094,104.3186 613.3281,103.303 613.3281,101.7249 L613.3281,100.678 C613.3281,98.9749 614.5469,97.7717 616.25,97.7717 C616.8281,97.7717 617.4063,97.9124 617.875,98.1624 C618.3438,98.428 618.5156,98.6155 618.5781,98.9749 C618.7031,99.6467 618.9531,99.8967 619.4844,99.8967 C619.7656,99.8967 620.0469,99.7561 620.2344,99.5374 C620.3594,99.3655 620.4063,99.1936 620.4063,98.7561 L620.4063,97.3967 C620.4063,96.9749 620.3906,96.8342 620.2656,96.6624 C620.0938,96.4124 619.8125,96.2561 619.4844,96.2561 C619.1719,96.2561 618.9688,96.3655 618.75,96.6311 C617.5781,96.1311 617.1406,96.0217 616.1875,96.0217 C613.5156,96.0217 611.5,98.0374 611.5,100.6624 L611.5,101.7561 Z " fill="#000000"/><text fill="#000000" font-family="sans-serif" font-size="14" lengthAdjust="spacing" textLength="283" x="633.5" y="102.6058">TrainingCreationDialog or TrainingEditDialog</text><rect fill="#E2E2F0" height="36" rx="2.5" ry="2.5" style="stroke:#181818;stroke-width:0.5;" width="325" x="598.5" y="1459.0003"/><ellipse cx="616.5" cy="1477.0003" fill="#D3D3D3" rx="11" ry="11" style="stroke:#181818;stroke-width:1.0;"/><path d="M611.5,1478.1566 C611.5,1480.6566 613.6406,1482.4691 616.5625,1482.4691 C617.7969,1482.4691 618.9688,1482.1722 619.7188,1481.6566 C620.3281,1481.2347 620.6563,1480.8128 620.6563,1480.4066 C620.6563,1479.9378 620.2344,1479.5316 619.7344,1479.5316 C619.5,1479.5316 619.2813,1479.6097 619.0781,1479.8128 C618.6406,1480.2503 618.6406,1480.2503 618.4688,1480.3441 C618.0156,1480.5785 617.375,1480.7191 616.6094,1480.7191 C614.6094,1480.7191 613.3281,1479.7035 613.3281,1478.1253 L613.3281,1477.0785 C613.3281,1475.3753 614.5469,1474.1722 616.25,1474.1722 C616.8281,1474.1722 617.4063,1474.3128 617.875,1474.5628 C618.3438,1474.8285 618.5156,1475.016 618.5781,1475.3753 C618.7031,1476.0472 618.9531,1476.2972 619.4844,1476.2972 C619.7656,1476.2972 620.0469,1476.1566 620.2344,1475.9378 C620.3594,1475.766 620.4063,1475.5941 620.4063,1475.1566 L620.4063,1473.7972 C620.4063,1473.3753 620.3906,1473.2347 620.2656,1473.0628 C620.0938,1472.8128 619.8125,1472.6566 619.4844,1472.6566 C619.1719,1472.6566 618.9688,1472.766 618.75,1473.0316 C617.5781,1472.5316 617.1406,1472.4222 616.1875,1472.4222 C613.5156,1472.4222 611.5,1474.4378 611.5,1477.0628 L611.5,1478.1566 Z " fill="#000000"/><text fill="#000000" font-family="sans-serif" font-size="14" lengthAdjust="spacing" textLength="283" x="633.5" y="1479.0063">TrainingCreationDialog or TrainingEditDialog</text><rect fill="#E2E2F0" height="36" rx="2.5" ry="2.5" style="stroke:#181818;stroke-width:0.5;" width="128" x="963" y="82.5999"/><ellipse cx="981" cy="100.5999" fill="#D3D3D3" rx="11" ry="11" style="stroke:#181818;stroke-width:1.0;"/><path d="M976,101.7561 C976,104.2561 978.1406,106.0686 981.0625,106.0686 C982.2969,106.0686 983.4688,105.7717 984.2188,105.2561 C984.8281,104.8342 985.1563,104.4124 985.1563,104.0061 C985.1563,103.5374 984.7344,103.1311 984.2344,103.1311 C984,103.1311 983.7813,103.2092 983.5781,103.4124 C983.1406,103.8499 983.1406,103.8499 982.9688,103.9436 C982.5156,104.178 981.875,104.3186 981.1094,104.3186 C979.1094,104.3186 977.8281,103.303 977.8281,101.7249 L977.8281,100.678 C977.8281,98.9749 979.0469,97.7717 980.75,97.7717 C981.3281,97.7717 981.9063,97.9124 982.375,98.1624 C982.8438,98.428 983.0156,98.6155 983.0781,98.9749 C983.2031,99.6467 983.4531,99.8967 983.9844,99.8967 C984.2656,99.8967 984.5469,99.7561 984.7344,99.5374 C984.8594,99.3655 984.9063,99.1936 984.9063,98.7561 L984.9063,97.3967 C984.9063,96.9749 984.8906,96.8342 984.7656,96.6624 C984.5938,96.4124 984.3125,96.2561 983.9844,96.2561 C983.6719,96.2561 983.4688,96.3655 983.25,96.6311 C982.0781,96.1311 981.6406,96.0217 980.6875,96.0217 C978.0156,96.0217 976,98.0374 976,100.6624 L976,101.7561 Z " fill="#000000"/><text fill="#000000" font-family="sans-serif" font-size="14" lengthAdjust="spacing" textLength="86" x="998" y="102.6058">TrainingForm</text><rect fill="#E2E2F0" height="36" rx="2.5" ry="2.5" style="stroke:#181818;stroke-width:0.5;" width="128" x="963" y="1459.0003"/><ellipse cx="981" cy="1477.0003" fill="#D3D3D3" rx="11" ry="11" style="stroke:#181818;stroke-width:1.0;"/><path d="M976,1478.1566 C976,1480.6566 978.1406,1482.4691 981.0625,1482.4691 C982.2969,1482.4691 983.4688,1482.1722 984.2188,1481.6566 C984.8281,1481.2347 985.1563,1480.8128 985.1563,1480.4066 C985.1563,1479.9378 984.7344,1479.5316 984.2344,1479.5316 C984,1479.5316 983.7813,1479.6097 983.5781,1479.8128 C983.1406,1480.2503 983.1406,1480.2503 982.9688,1480.3441 C982.5156,1480.5785 981.875,1480.7191 981.1094,1480.7191 C979.1094,1480.7191 977.8281,1479.7035 977.8281,1478.1253 L977.8281,1477.0785 C977.8281,1475.3753 979.0469,1474.1722 980.75,1474.1722 C981.3281,1474.1722 981.9063,1474.3128 982.375,1474.5628 C982.8438,1474.8285 983.0156,1475.016 983.0781,1475.3753 C983.2031,1476.0472 983.4531,1476.2972 983.9844,1476.2972 C984.2656,1476.2972 984.5469,1476.1566 984.7344,1475.9378 C984.8594,1475.766 984.9063,1475.5941 984.9063,1475.1566 L984.9063,1473.7972 C984.9063,1473.3753 984.8906,1473.2347 984.7656,1473.0628 C984.5938,1472.8128 984.3125,1472.6566 983.9844,1472.6566 C983.6719,1472.6566 983.4688,1472.766 983.25,1473.0316 C982.0781,1472.5316 981.6406,1472.4222 980.6875,1472.4222 C978.0156,1472.4222 976,1474.4378 976,1477.0628 L976,1478.1566 Z " fill="#000000"/><text fill="#000000" font-family="sans-serif" font-size="14" lengthAdjust="spacing" textLength="86" x="998" y="1479.0063">TrainingForm</text><rect fill="#E2E2F0" height="47.5999" rx="2.5" ry="2.5" style="stroke:#181818;stroke-width:0.5;" width="271" x="1101" y="71"/><ellipse cx="1119" cy="89" fill="#FFFF00" rx="11" ry="11" style="stroke:#181818;stroke-width:1.0;"/><path d="M1117.8594,90.0625 L1119.1719,90.0625 L1119.1719,90.1094 C1119.1719,90.5 1119.2031,90.6875 1119.2969,90.8438 C1119.4688,91.0938 1119.7656,91.2656 1120.0781,91.2656 C1120.3594,91.2656 1120.6406,91.125 1120.8281,90.9063 C1120.9531,90.7188 1121,90.5625 1121,90.1094 L1121,88.2813 C1121,87.8594 1120.9844,87.7344 1120.8594,87.5625 C1120.7031,87.2969 1120.4063,87.125 1120.0781,87.125 C1119.7813,87.125 1119.5156,87.2656 1119.3438,87.4844 C1119.2031,87.6719 1119.1719,87.8438 1119.1719,88.2813 L1119.1719,88.3281 L1117.8594,88.3281 L1117.8594,86.1563 L1122.0781,86.1563 L1122.0781,86.9219 C1122.0781,87.3125 1122.1094,87.4844 1122.2188,87.6406 C1122.3906,87.9063 1122.6719,88.0625 1123,88.0625 C1123.2813,88.0625 1123.5625,87.9375 1123.75,87.7031 C1123.8906,87.5156 1123.9219,87.375 1123.9219,86.9219 L1123.9219,84.4063 L1115.8438,84.4063 C1115.4063,84.4063 1115.2656,84.4219 1115.0938,84.5313 C1114.8281,84.7031 1114.6563,84.9844 1114.6563,85.2813 C1114.6563,85.5625 1114.8125,85.8438 1115.0313,86 C1115.2188,86.125 1115.4063,86.1563 1115.8438,86.1563 L1116.0313,86.1563 L1116.0313,92.25 L1115.8438,92.25 C1115.4219,92.25 1115.2656,92.2813 1115.0938,92.375 C1114.8281,92.5313 1114.6563,92.8281 1114.6563,93.1094 C1114.6563,93.6875 1115.0625,94 1115.8438,94 L1119.5,94 C1120.2813,94 1120.6875,93.7188 1120.6875,93.1094 C1120.6875,92.8438 1120.5469,92.5938 1120.3125,92.4219 C1120.125,92.2813 1119.9531,92.25 1119.5,92.25 L1117.8594,92.25 L1117.8594,90.0625 Z " fill="#000000"/><text fill="#000000" font-family="sans-serif" font-size="14" lengthAdjust="spacing" textLength="124" x="1188.5" y="91.0059">training_backend.ts</text><text fill="#000000" font-family="sans-serif" font-size="14" lengthAdjust="spacing" textLength="229" x="1136" y="107.8059">createTraining() or updateTraining()</text><rect fill="#E2E2F0" height="47.5999" rx="2.5" ry="2.5" style="stroke:#181818;stroke-width:0.5;" width="271" x="1101" y="1459.0003"/><ellipse cx="1119" cy="1477.0003" fill="#FFFF00" rx="11" ry="11" style="stroke:#181818;stroke-width:1.0;"/><path d="M1117.8594,1478.0628 L1119.1719,1478.0628 L1119.1719,1478.1097 C1119.1719,1478.5003 1119.2031,1478.6878 1119.2969,1478.8441 C1119.4688,1479.0941 1119.7656,1479.266 1120.0781,1479.266 C1120.3594,1479.266 1120.6406,1479.1253 1120.8281,1478.9066 C1120.9531,1478.7191 1121,1478.5628 1121,1478.1097 L1121,1476.2816 C1121,1475.8597 1120.9844,1475.7347 1120.8594,1475.5628 C1120.7031,1475.2972 1120.4063,1475.1253 1120.0781,1475.1253 C1119.7813,1475.1253 1119.5156,1475.266 1119.3438,1475.4847 C1119.2031,1475.6722 1119.1719,1475.8441 1119.1719,1476.2816 L1119.1719,1476.3285 L1117.8594,1476.3285 L1117.8594,1474.1566 L1122.0781,1474.1566 L1122.0781,1474.9222 C1122.0781,1475.3128 1122.1094,1475.4847 1122.2188,1475.641 C1122.3906,1475.9066 1122.6719,1476.0628 1123,1476.0628 C1123.2813,1476.0628 1123.5625,1475.9378 1123.75,1475.7035 C1123.8906,1475.516 1123.9219,1475.3753 1123.9219,1474.9222 L1123.9219,1472.4066 L1115.8438,1472.4066 C1115.4063,1472.4066 1115.2656,1472.4222 1115.0938,1472.5316 C1114.8281,1472.7035 1114.6563,1472.9847 1114.6563,1473.2816 C1114.6563,1473.5628 1114.8125,1473.8441 1115.0313,1474.0003 C1115.2188,1474.1253 1115.4063,1474.1566 1115.8438,1474.1566 L1116.0313,1474.1566 L1116.0313,1480.2503 L1115.8438,1480.2503 C1115.4219,1480.2503 1115.2656,1480.2816 1115.0938,1480.3753 C1114.8281,1480.5316 1114.6563,1480.8285 1114.6563,1481.1097 C1114.6563,1481.6878 1115.0625,1482.0003 1115.8438,1482.0003 L1119.5,1482.0003 C1120.2813,1482.0003 1120.6875,1481.7191 1120.6875,1481.1097 C1120.6875,1480.8441 1120.5469,1480.5941 1120.3125,1480.4222 C1120.125,1480.2816 1119.9531,1480.2503 1119.5,1480.2503 L1117.8594,1480.2503 L1117.8594,1478.0628 Z " fill="#000000"/><text fill="#000000" font-family="sans-serif" font-size="14" lengthAdjust="spacing" textLength="124" x="1188.5" y="1479.0063">training_backend.ts</text><text fill="#000000" font-family="sans-serif" font-size="14" lengthAdjust="spacing" textLength="229" x="1136" y="1495.8062">createTraining() or updateTraining()</text><rect fill="#E2E2F0" height="47.5999" rx="2.5" ry="2.5" style="stroke:#181818;stroke-width:0.5;" width="208" x="1452.5" y="71"/><ellipse cx="1470.5" cy="89" fill="#90EE90" rx="11" ry="11" style="stroke:#181818;stroke-width:1.0;"/><path d="M1469.3594,90.0625 L1470.6719,90.0625 L1470.6719,90.1094 C1470.6719,90.5 1470.7031,90.6875 1470.7969,90.8438 C1470.9688,91.0938 1471.2656,91.2656 1471.5781,91.2656 C1471.8594,91.2656 1472.1406,91.125 1472.3281,90.9063 C1472.4531,90.7188 1472.5,90.5625 1472.5,90.1094 L1472.5,88.2813 C1472.5,87.8594 1472.4844,87.7344 1472.3594,87.5625 C1472.2031,87.2969 1471.9063,87.125 1471.5781,87.125 C1471.2813,87.125 1471.0156,87.2656 1470.8438,87.4844 C1470.7031,87.6719 1470.6719,87.8438 1470.6719,88.2813 L1470.6719,88.3281 L1469.3594,88.3281 L1469.3594,86.1563 L1473.5781,86.1563 L1473.5781,86.9219 C1473.5781,87.3125 1473.6094,87.4844 1473.7188,87.6406 C1473.8906,87.9063 1474.1719,88.0625 1474.5,88.0625 C1474.7813,88.0625 1475.0625,87.9375 1475.25,87.7031 C1475.3906,87.5156 1475.4219,87.375 1475.4219,86.9219 L1475.4219,84.4063 L1467.3438,84.4063 C1466.9063,84.4063 1466.7656,84.4219 1466.5938,84.5313 C1466.3281,84.7031 1466.1563,84.9844 1466.1563,85.2813 C1466.1563,85.5625 1466.3125,85.8438 1466.5313,86 C1466.7188,86.125 1466.9063,86.1563 1467.3438,86.1563 L1467.5313,86.1563 L1467.5313,92.25 L1467.3438,92.25 C1466.9219,92.25 1466.7656,92.2813 1466.5938,92.375 C1466.3281,92.5313 1466.1563,92.8281 1466.1563,93.1094 C1466.1563,93.6875 1466.5625,94 1467.3438,94 L1471,94 C1471.7813,94 1472.1875,93.7188 1472.1875,93.1094 C1472.1875,92.8438 1472.0469,92.5938 1471.8125,92.4219 C1471.625,92.2813 1471.4531,92.25 1471,92.25 L1469.3594,92.25 L1469.3594,90.0625 Z " fill="#000000"/><text fill="#000000" font-family="sans-serif" font-size="14" lengthAdjust="spacing" textLength="40" x="1550.5" y="91.0059">utils.ts</text><text fill="#000000" font-family="sans-serif" font-size="14" lengthAdjust="spacing" textLength="166" x="1487.5" y="107.8059">convertLocalToUtcString()</text><rect fill="#E2E2F0" height="47.5999" rx="2.5" ry="2.5" style="stroke:#181818;stroke-width:0.5;" width="208" x="1452.5" y="1459.0003"/><ellipse cx="1470.5" cy="1477.0003" fill="#90EE90" rx="11" ry="11" style="stroke:#181818;stroke-width:1.0;"/><path d="M1469.3594,1478.0628 L1470.6719,1478.0628 L1470.6719,1478.1097 C1470.6719,1478.5003 1470.7031,1478.6878 1470.7969,1478.8441 C1470.9688,1479.0941 1471.2656,1479.266 1471.5781,1479.266 C1471.8594,1479.266 1472.1406,1479.1253 1472.3281,1478.9066 C1472.4531,1478.7191 1472.5,1478.5628 1472.5,1478.1097 L1472.5,1476.2816 C1472.5,1475.8597 1472.4844,1475.7347 1472.3594,1475.5628 C1472.2031,1475.2972 1471.9063,1475.1253 1471.5781,1475.1253 C1471.2813,1475.1253 1471.0156,1475.266 1470.8438,1475.4847 C1470.7031,1475.6722 1470.6719,1475.8441 1470.6719,1476.2816 L1470.6719,1476.3285 L1469.3594,1476.3285 L1469.3594,1474.1566 L1473.5781,1474.1566 L1473.5781,1474.9222 C1473.5781,1475.3128 1473.6094,1475.4847 1473.7188,1475.641 C1473.8906,1475.9066 1474.1719,1476.0628 1474.5,1476.0628 C1474.7813,1476.0628 1475.0625,1475.9378 1475.25,1475.7035 C1475.3906,1475.516 1475.4219,1475.3753 1475.4219,1474.9222 L1475.4219,1472.4066 L1467.3438,1472.4066 C1466.9063,1472.4066 1466.7656,1472.4222 1466.5938,1472.5316 C1466.3281,1472.7035 1466.1563,1472.9847 1466.1563,1473.2816 C1466.1563,1473.5628 1466.3125,1473.8441 1466.5313,1474.0003 C1466.7188,1474.1253 1466.9063,1474.1566 1467.3438,1474.1566 L1467.5313,1474.1566 L1467.5313,1480.2503 L1467.3438,1480.2503 C1466.9219,1480.2503 1466.7656,1480.2816 1466.5938,1480.3753 C1466.3281,1480.5316 1466.1563,1480.8285 1466.1563,1481.1097 C1466.1563,1481.6878 1466.5625,1482.0003 1467.3438,1482.0003 L1471,1482.0003 C1471.7813,1482.0003 1472.1875,1481.7191 1472.1875,1481.1097 C1472.1875,1480.8441 1472.0469,1480.5941 1471.8125,1480.4222 C1471.625,1480.2816 1471.4531,1480.2503 1471,1480.2503 L1469.3594,1480.2503 L1469.3594,1478.0628 Z " fill="#000000"/><text fill="#000000" font-family="sans-serif" font-size="14" lengthAdjust="spacing" textLength="40" x="1550.5" y="1479.0063">utils.ts</text><text fill="#000000" font-family="sans-serif" font-size="14" lengthAdjust="spacing" textLength="166" x="1487.5" y="1495.8062">convertLocalToUtcString()</text><rect fill="#E2E2F0" height="47.5999" rx="2.5" ry="2.5" style="stroke:#181818;stroke-width:0.5;" width="113" x="1670.5" y="71"/><ellipse cx="1688.5" cy="89" fill="#FFA500" rx="11" ry="11" style="stroke:#181818;stroke-width:1.0;"/><path d="M1687.3594,90.0625 L1688.6719,90.0625 L1688.6719,90.1094 C1688.6719,90.5 1688.7031,90.6875 1688.7969,90.8438 C1688.9688,91.0938 1689.2656,91.2656 1689.5781,91.2656 C1689.8594,91.2656 1690.1406,91.125 1690.3281,90.9063 C1690.4531,90.7188 1690.5,90.5625 1690.5,90.1094 L1690.5,88.2813 C1690.5,87.8594 1690.4844,87.7344 1690.3594,87.5625 C1690.2031,87.2969 1689.9063,87.125 1689.5781,87.125 C1689.2813,87.125 1689.0156,87.2656 1688.8438,87.4844 C1688.7031,87.6719 1688.6719,87.8438 1688.6719,88.2813 L1688.6719,88.3281 L1687.3594,88.3281 L1687.3594,86.1563 L1691.5781,86.1563 L1691.5781,86.9219 C1691.5781,87.3125 1691.6094,87.4844 1691.7188,87.6406 C1691.8906,87.9063 1692.1719,88.0625 1692.5,88.0625 C1692.7813,88.0625 1693.0625,87.9375 1693.25,87.7031 C1693.3906,87.5156 1693.4219,87.375 1693.4219,86.9219 L1693.4219,84.4063 L1685.3438,84.4063 C1684.9063,84.4063 1684.7656,84.4219 1684.5938,84.5313 C1684.3281,84.7031 1684.1563,84.9844 1684.1563,85.2813 C1684.1563,85.5625 1684.3125,85.8438 1684.5313,86 C1684.7188,86.125 1684.9063,86.1563 1685.3438,86.1563 L1685.5313,86.1563 L1685.5313,92.25 L1685.3438,92.25 C1684.9219,92.25 1684.7656,92.2813 1684.5938,92.375 C1684.3281,92.5313 1684.1563,92.8281 1684.1563,93.1094 C1684.1563,93.6875 1684.5625,94 1685.3438,94 L1689,94 C1689.7813,94 1690.1875,93.7188 1690.1875,93.1094 C1690.1875,92.8438 1690.0469,92.5938 1689.8125,92.4219 C1689.625,92.2813 1689.4531,92.25 1689,92.25 L1687.3594,92.25 L1687.3594,90.0625 Z " fill="#000000"/><text fill="#000000" font-family="sans-serif" font-size="14" lengthAdjust="spacing" textLength="40" x="1721" y="91.0059">utils.ts</text><text fill="#000000" font-family="sans-serif" font-size="14" lengthAdjust="spacing" textLength="71" x="1705.5" y="107.8059">fetchJson()</text><rect fill="#E2E2F0" height="47.5999" rx="2.5" ry="2.5" style="stroke:#181818;stroke-width:0.5;" width="113" x="1670.5" y="1459.0003"/><ellipse cx="1688.5" cy="1477.0003" fill="#FFA500" rx="11" ry="11" style="stroke:#181818;stroke-width:1.0;"/><path d="M1687.3594,1478.0628 L1688.6719,1478.0628 L1688.6719,1478.1097 C1688.6719,1478.5003 1688.7031,1478.6878 1688.7969,1478.8441 C1688.9688,1479.0941 1689.2656,1479.266 1689.5781,1479.266 C1689.8594,1479.266 1690.1406,1479.1253 1690.3281,1478.9066 C1690.4531,1478.7191 1690.5,1478.5628 1690.5,1478.1097 L1690.5,1476.2816 C1690.5,1475.8597 1690.4844,1475.7347 1690.3594,1475.5628 C1690.2031,1475.2972 1689.9063,1475.1253 1689.5781,1475.1253 C1689.2813,1475.1253 1689.0156,1475.266 1688.8438,1475.4847 C1688.7031,1475.6722 1688.6719,1475.8441 1688.6719,1476.2816 L1688.6719,1476.3285 L1687.3594,1476.3285 L1687.3594,1474.1566 L1691.5781,1474.1566 L1691.5781,1474.9222 C1691.5781,1475.3128 1691.6094,1475.4847 1691.7188,1475.641 C1691.8906,1475.9066 1692.1719,1476.0628 1692.5,1476.0628 C1692.7813,1476.0628 1693.0625,1475.9378 1693.25,1475.7035 C1693.3906,1475.516 1693.4219,1475.3753 1693.4219,1474.9222 L1693.4219,1472.4066 L1685.3438,1472.4066 C1684.9063,1472.4066 1684.7656,1472.4222 1684.5938,1472.5316 C1684.3281,1472.7035 1684.1563,1472.9847 1684.1563,1473.2816 C1684.1563,1473.5628 1684.3125,1473.8441 1684.5313,1474.0003 C1684.7188,1474.1253 1684.9063,1474.1566 1685.3438,1474.1566 L1685.5313,1474.1566 L1685.5313,1480.2503 L1685.3438,1480.2503 C1684.9219,1480.2503 1684.7656,1480.2816 1684.5938,1480.3753 C1684.3281,1480.5316 1684.1563,1480.8285 1684.1563,1481.1097 C1684.1563,1481.6878 1684.5625,1482.0003 1685.3438,1482.0003 L1689,1482.0003 C1689.7813,1482.0003 1690.1875,1481.7191 1690.1875,1481.1097 C1690.1875,1480.8441 1690.0469,1480.5941 1689.8125,1480.4222 C1689.625,1480.2816 1689.4531,1480.2503 1689,1480.2503 L1687.3594,1480.2503 L1687.3594,1478.0628 Z " fill="#000000"/><text fill="#000000" font-family="sans-serif" font-size="14" lengthAdjust="spacing" textLength="40" x="1721" y="1479.0063">utils.ts</text><text fill="#000000" font-family="sans-serif" font-size="14" lengthAdjust="spacing" textLength="71" x="1705.5" y="1495.8062">fetchJson()</text><rect fill="#E2E2F0" height="36" rx="2.5" ry="2.5" style="stroke:#181818;stroke-width:0.5;" width="128" x="1814" y="82.5999"/><ellipse cx="1832" cy="100.5999" fill="#ADD8E6" rx="11" ry="11" style="stroke:#181818;stroke-width:1.0;"/><path d="M1835.8594,96.9124 C1835.8594,96.4749 1835.8438,96.3499 1835.7344,96.178 C1835.5781,95.928 1835.2813,95.7717 1834.9531,95.7717 C1834.6094,95.7717 1834.4219,95.9124 1834.2656,96.2874 C1833.7031,95.9592 1832.9375,95.7717 1832.0625,95.7717 C1829.9219,95.7717 1828.3281,97.0374 1828.3281,98.6936 C1828.3281,99.6467 1828.875,100.5374 1829.75,101.0061 C1830.3125,101.3186 1830.8438,101.4749 1831.9844,101.6624 C1833.1094,101.8655 1833.375,101.928 1833.75,102.0999 C1834.0938,102.2717 1834.3125,102.5686 1834.3125,102.8811 C1834.3125,103.5374 1833.3594,104.053 1832.1406,104.053 C1831.0469,104.053 1829.9844,103.5999 1829.8281,103.053 C1829.6875,102.6155 1829.6875,102.6155 1829.5625,102.4749 C1829.3906,102.3186 1829.1563,102.2405 1828.9063,102.2405 C1828.6094,102.2405 1828.3438,102.3655 1828.1563,102.5842 C1828.0313,102.7561 1827.9844,102.9436 1827.9844,103.3655 L1827.9844,104.4436 C1827.9844,105.2092 1828.2969,105.5842 1828.9063,105.5842 C1829.1875,105.5842 1829.3438,105.4905 1829.625,105.2092 C1830.4844,105.6311 1831.3281,105.8186 1832.25,105.8186 C1834.6094,105.8186 1836.2188,104.6467 1836.2188,102.9124 C1836.2188,102.053 1835.875,101.3655 1835.1875,100.8342 C1834.6563,100.428 1833.9844,100.1936 1832.4844,99.9436 C1831.2031,99.6936 1831.1406,99.678 1830.8125,99.5061 C1830.4688,99.3655 1830.2344,99.0061 1830.2344,98.678 C1830.2344,98.0374 1831.0469,97.5217 1832.0781,97.5217 C1833.125,97.5217 1833.8906,97.9436 1834.0313,98.5686 C1834.1563,99.0999 1834.1563,99.0999 1834.2969,99.2405 C1834.4531,99.3967 1834.7031,99.4905 1834.9531,99.4905 C1835.25,99.4905 1835.5,99.3655 1835.6875,99.1467 C1835.8281,98.9592 1835.8594,98.8186 1835.8594,98.3655 L1835.8594,96.9124 Z " fill="#000000"/><text fill="#000000" font-family="sans-serif" font-size="14" lengthAdjust="spacing" textLength="86" x="1849" y="102.6058">AuthManager</text><rect fill="#E2E2F0" height="36" rx="2.5" ry="2.5" style="stroke:#181818;stroke-width:0.5;" width="128" x="1814" y="1459.0003"/><ellipse cx="1832" cy="1477.0003" fill="#ADD8E6" rx="11" ry="11" style="stroke:#181818;stroke-width:1.0;"/><path d="M1835.8594,1473.3128 C1835.8594,1472.8753 1835.8438,1472.7503 1835.7344,1472.5785 C1835.5781,1472.3285 1835.2813,1472.1722 1834.9531,1472.1722 C1834.6094,1472.1722 1834.4219,1472.3128 1834.2656,1472.6878 C1833.7031,1472.3597 1832.9375,1472.1722 1832.0625,1472.1722 C1829.9219,1472.1722 1828.3281,1473.4378 1828.3281,1475.0941 C1828.3281,1476.0472 1828.875,1476.9378 1829.75,1477.4066 C1830.3125,1477.7191 1830.8438,1477.8753 1831.9844,1478.0628 C1833.1094,1478.266 1833.375,1478.3285 1833.75,1478.5003 C1834.0938,1478.6722 1834.3125,1478.9691 1834.3125,1479.2816 C1834.3125,1479.9378 1833.3594,1480.4535 1832.1406,1480.4535 C1831.0469,1480.4535 1829.9844,1480.0003 1829.8281,1479.4535 C1829.6875,1479.016 1829.6875,1479.016 1829.5625,1478.8753 C1829.3906,1478.7191 1829.1563,1478.641 1828.9063,1478.641 C1828.6094,1478.641 1828.3438,1478.766 1828.1563,1478.9847 C1828.0313,1479.1566 1827.9844,1479.3441 1827.9844,1479.766 L1827.9844,1480.8441 C1827.9844,1481.6097 1828.2969,1481.9847 1828.9063,1481.9847 C1829.1875,1481.9847 1829.3438,1481.891 1829.625,1481.6097 C1830.4844,1482.0316 1831.3281,1482.2191 1832.25,1482.2191 C1834.6094,1482.2191 1836.2188,1481.0472 1836.2188,1479.3128 C1836.2188,1478.4535 1835.875,1477.766 1835.1875,1477.2347 C1834.6563,1476.8285 1833.9844,1476.5941 1832.4844,1476.3441 C1831.2031,1476.0941 1831.1406,1476.0785 1830.8125,1475.9066 C1830.4688,1475.766 1830.2344,1475.4066 1830.2344,1475.0785 C1830.2344,1474.4378 1831.0469,1473.9222 1832.0781,1473.9222 C1833.125,1473.9222 1833.8906,1474.3441 1834.0313,1474.9691 C1834.1563,1475.5003 1834.1563,1475.5003 1834.2969,1475.641 C1834.4531,1475.7972 1834.7031,1475.891 1834.9531,1475.891 C1835.25,1475.891 1835.5,1475.766 1835.6875,1475.5472 C1835.8281,1475.3597 1835.8594,1475.2191 1835.8594,1474.766 L1835.8594,1473.3128 Z " fill="#000000"/><text fill="#000000" font-family="sans-serif" font-size="14" lengthAdjust="spacing" textLength="86" x="1849" y="1479.0063">AuthManager</text><rect fill="#E2E2F0" height="36" rx="2.5" ry="2.5" style="stroke:#181818;stroke-width:0.5;" width="119" x="2028.5" y="82.5999"/><ellipse cx="2046.5" cy="100.5999" fill="#FF6347" rx="11" ry="11" style="stroke:#181818;stroke-width:1.0;"/><path d="M2050.3594,96.9124 C2050.3594,96.4749 2050.3438,96.3499 2050.2344,96.178 C2050.0781,95.928 2049.7813,95.7717 2049.4531,95.7717 C2049.1094,95.7717 2048.9219,95.9124 2048.7656,96.2874 C2048.2031,95.9592 2047.4375,95.7717 2046.5625,95.7717 C2044.4219,95.7717 2042.8281,97.0374 2042.8281,98.6936 C2042.8281,99.6467 2043.375,100.5374 2044.25,101.0061 C2044.8125,101.3186 2045.3438,101.4749 2046.4844,101.6624 C2047.6094,101.8655 2047.875,101.928 2048.25,102.0999 C2048.5938,102.2717 2048.8125,102.5686 2048.8125,102.8811 C2048.8125,103.5374 2047.8594,104.053 2046.6406,104.053 C2045.5469,104.053 2044.4844,103.5999 2044.3281,103.053 C2044.1875,102.6155 2044.1875,102.6155 2044.0625,102.4749 C2043.8906,102.3186 2043.6563,102.2405 2043.4063,102.2405 C2043.1094,102.2405 2042.8438,102.3655 2042.6563,102.5842 C2042.5313,102.7561 2042.4844,102.9436 2042.4844,103.3655 L2042.4844,104.4436 C2042.4844,105.2092 2042.7969,105.5842 2043.4063,105.5842 C2043.6875,105.5842 2043.8438,105.4905 2044.125,105.2092 C2044.9844,105.6311 2045.8281,105.8186 2046.75,105.8186 C2049.1094,105.8186 2050.7188,104.6467 2050.7188,102.9124 C2050.7188,102.053 2050.375,101.3655 2049.6875,100.8342 C2049.1563,100.428 2048.4844,100.1936 2046.9844,99.9436 C2045.7031,99.6936 2045.6406,99.678 2045.3125,99.5061 C2044.9688,99.3655 2044.7344,99.0061 2044.7344,98.678 C2044.7344,98.0374 2045.5469,97.5217 2046.5781,97.5217 C2047.625,97.5217 2048.3906,97.9436 2048.5313,98.5686 C2048.6563,99.0999 2048.6563,99.0999 2048.7969,99.2405 C2048.9531,99.3967 2049.2031,99.4905 2049.4531,99.4905 C2049.75,99.4905 2050,99.3655 2050.1875,99.1467 C2050.3281,98.9592 2050.3594,98.8186 2050.3594,98.3655 L2050.3594,96.9124 Z " fill="#000000"/><text fill="#000000" font-family="sans-serif" font-size="14" lengthAdjust="spacing" textLength="77" x="2063.5" y="102.6058">BackendAPI</text><rect fill="#E2E2F0" height="36" rx="2.5" ry="2.5" style="stroke:#181818;stroke-width:0.5;" width="119" x="2028.5" y="1459.0003"/><ellipse cx="2046.5" cy="1477.0003" fill="#FF6347" rx="11" ry="11" style="stroke:#181818;stroke-width:1.0;"/><path d="M2050.3594,1473.3128 C2050.3594,1472.8753 2050.3438,1472.7503 2050.2344,1472.5785 C2050.0781,1472.3285 2049.7813,1472.1722 2049.4531,1472.1722 C2049.1094,1472.1722 2048.9219,1472.3128 2048.7656,1472.6878 C2048.2031,1472.3597 2047.4375,1472.1722 2046.5625,1472.1722 C2044.4219,1472.1722 2042.8281,1473.4378 2042.8281,1475.0941 C2042.8281,1476.0472 2043.375,1476.9378 2044.25,1477.4066 C2044.8125,1477.7191 2045.3438,1477.8753 2046.4844,1478.0628 C2047.6094,1478.266 2047.875,1478.3285 2048.25,1478.5003 C2048.5938,1478.6722 2048.8125,1478.9691 2048.8125,1479.2816 C2048.8125,1479.9378 2047.8594,1480.4535 2046.6406,1480.4535 C2045.5469,1480.4535 2044.4844,1480.0003 2044.3281,1479.4535 C2044.1875,1479.016 2044.1875,1479.016 2044.0625,1478.8753 C2043.8906,1478.7191 2043.6563,1478.641 2043.4063,1478.641 C2043.1094,1478.641 2042.8438,1478.766 2042.6563,1478.9847 C2042.5313,1479.1566 2042.4844,1479.3441 2042.4844,1479.766 L2042.4844,1480.8441 C2042.4844,1481.6097 2042.7969,1481.9847 2043.4063,1481.9847 C2043.6875,1481.9847 2043.8438,1481.891 2044.125,1481.6097 C2044.9844,1482.0316 2045.8281,1482.2191 2046.75,1482.2191 C2049.1094,1482.2191 2050.7188,1481.0472 2050.7188,1479.3128 C2050.7188,1478.4535 2050.375,1477.766 2049.6875,1477.2347 C2049.1563,1476.8285 2048.4844,1476.5941 2046.9844,1476.3441 C2045.7031,1476.0941 2045.6406,1476.0785 2045.3125,1475.9066 C2044.9688,1475.766 2044.7344,1475.4066 2044.7344,1475.0785 C2044.7344,1474.4378 2045.5469,1473.9222 2046.5781,1473.9222 C2047.625,1473.9222 2048.3906,1474.3441 2048.5313,1474.9691 C2048.6563,1475.5003 2048.6563,1475.5003 2048.7969,1475.641 C2048.9531,1475.7972 2049.2031,1475.891 2049.4531,1475.891 C2049.75,1475.891 2050,1475.766 2050.1875,1475.5472 C2050.3281,1475.3597 2050.3594,1475.2191 2050.3594,1474.766 L2050.3594,1473.3128 Z " fill="#000000"/><text fill="#000000" font-family="sans-serif" font-size="14" lengthAdjust="spacing" textLength="77" x="2063.5" y="1479.0063">BackendAPI</text><rect fill="#E2E2F0" height="36" rx="2.5" ry="2.5" style="stroke:#181818;stroke-width:0.5;" width="117" x="2157.5" y="82.5999"/><ellipse cx="2175.5" cy="100.5999" fill="#808080" rx="11" ry="11" style="stroke:#181818;stroke-width:1.0;"/><path d="M2179.3594,96.9124 C2179.3594,96.4749 2179.3438,96.3499 2179.2344,96.178 C2179.0781,95.928 2178.7813,95.7717 2178.4531,95.7717 C2178.1094,95.7717 2177.9219,95.9124 2177.7656,96.2874 C2177.2031,95.9592 2176.4375,95.7717 2175.5625,95.7717 C2173.4219,95.7717 2171.8281,97.0374 2171.8281,98.6936 C2171.8281,99.6467 2172.375,100.5374 2173.25,101.0061 C2173.8125,101.3186 2174.3438,101.4749 2175.4844,101.6624 C2176.6094,101.8655 2176.875,101.928 2177.25,102.0999 C2177.5938,102.2717 2177.8125,102.5686 2177.8125,102.8811 C2177.8125,103.5374 2176.8594,104.053 2175.6406,104.053 C2174.5469,104.053 2173.4844,103.5999 2173.3281,103.053 C2173.1875,102.6155 2173.1875,102.6155 2173.0625,102.4749 C2172.8906,102.3186 2172.6563,102.2405 2172.4063,102.2405 C2172.1094,102.2405 2171.8438,102.3655 2171.6563,102.5842 C2171.5313,102.7561 2171.4844,102.9436 2171.4844,103.3655 L2171.4844,104.4436 C2171.4844,105.2092 2171.7969,105.5842 2172.4063,105.5842 C2172.6875,105.5842 2172.8438,105.4905 2173.125,105.2092 C2173.9844,105.6311 2174.8281,105.8186 2175.75,105.8186 C2178.1094,105.8186 2179.7188,104.6467 2179.7188,102.9124 C2179.7188,102.053 2179.375,101.3655 2178.6875,100.8342 C2178.1563,100.428 2177.4844,100.1936 2175.9844,99.9436 C2174.7031,99.6936 2174.6406,99.678 2174.3125,99.5061 C2173.9688,99.3655 2173.7344,99.0061 2173.7344,98.678 C2173.7344,98.0374 2174.5469,97.5217 2175.5781,97.5217 C2176.625,97.5217 2177.3906,97.9436 2177.5313,98.5686 C2177.6563,99.0999 2177.6563,99.0999 2177.7969,99.2405 C2177.9531,99.3967 2178.2031,99.4905 2178.4531,99.4905 C2178.75,99.4905 2179,99.3655 2179.1875,99.1467 C2179.3281,98.9592 2179.3594,98.8186 2179.3594,98.3655 L2179.3594,96.9124 Z " fill="#000000"/><text fill="#000000" font-family="sans-serif" font-size="14" lengthAdjust="spacing" textLength="75" x="2192.5" y="102.6058">QueryClient</text><rect fill="#E2E2F0" height="36" rx="2.5" ry="2.5" style="stroke:#181818;stroke-width:0.5;" width="117" x="2157.5" y="1459.0003"/><ellipse cx="2175.5" cy="1477.0003" fill="#808080" rx="11" ry="11" style="stroke:#181818;stroke-width:1.0;"/><path d="M2179.3594,1473.3128 C2179.3594,1472.8753 2179.3438,1472.7503 2179.2344,1472.5785 C2179.0781,1472.3285 2178.7813,1472.1722 2178.4531,1472.1722 C2178.1094,1472.1722 2177.9219,1472.3128 2177.7656,1472.6878 C2177.2031,1472.3597 2176.4375,1472.1722 2175.5625,1472.1722 C2173.4219,1472.1722 2171.8281,1473.4378 2171.8281,1475.0941 C2171.8281,1476.0472 2172.375,1476.9378 2173.25,1477.4066 C2173.8125,1477.7191 2174.3438,1477.8753 2175.4844,1478.0628 C2176.6094,1478.266 2176.875,1478.3285 2177.25,1478.5003 C2177.5938,1478.6722 2177.8125,1478.9691 2177.8125,1479.2816 C2177.8125,1479.9378 2176.8594,1480.4535 2175.6406,1480.4535 C2174.5469,1480.4535 2173.4844,1480.0003 2173.3281,1479.4535 C2173.1875,1479.016 2173.1875,1479.016 2173.0625,1478.8753 C2172.8906,1478.7191 2172.6563,1478.641 2172.4063,1478.641 C2172.1094,1478.641 2171.8438,1478.766 2171.6563,1478.9847 C2171.5313,1479.1566 2171.4844,1479.3441 2171.4844,1479.766 L2171.4844,1480.8441 C2171.4844,1481.6097 2171.7969,1481.9847 2172.4063,1481.9847 C2172.6875,1481.9847 2172.8438,1481.891 2173.125,1481.6097 C2173.9844,1482.0316 2174.8281,1482.2191 2175.75,1482.2191 C2178.1094,1482.2191 2179.7188,1481.0472 2179.7188,1479.3128 C2179.7188,1478.4535 2179.375,1477.766 2178.6875,1477.2347 C2178.1563,1476.8285 2177.4844,1476.5941 2175.9844,1476.3441 C2174.7031,1476.0941 2174.6406,1476.0785 2174.3125,1475.9066 C2173.9688,1475.766 2173.7344,1475.4066 2173.7344,1475.0785 C2173.7344,1474.4378 2174.5469,1473.9222 2175.5781,1473.9222 C2176.625,1473.9222 2177.3906,1474.3441 2177.5313,1474.9691 C2177.6563,1475.5003 2177.6563,1475.5003 2177.7969,1475.641 C2177.9531,1475.7972 2178.2031,1475.891 2178.4531,1475.891 C2178.75,1475.891 2179,1475.766 2179.1875,1475.5472 C2179.3281,1475.3597 2179.3594,1475.2191 2179.3594,1474.766 L2179.3594,1473.3128 Z " fill="#000000"/><text fill="#000000" font-family="sans-serif" font-size="14" lengthAdjust="spacing" textLength="75" x="2192.5" y="1479.0063">QueryClient</text><rect fill="#E2E2F0" height="36" rx="2.5" ry="2.5" style="stroke:#181818;stroke-width:0.5;" width="91" x="2284.5" y="82.5999"/><ellipse cx="2302.5" cy="100.5999" fill="#FFC0CB" rx="11" ry="11" style="stroke:#181818;stroke-width:1.0;"/><path d="M2297.5,101.7561 C2297.5,104.2561 2299.6406,106.0686 2302.5625,106.0686 C2303.7969,106.0686 2304.9688,105.7717 2305.7188,105.2561 C2306.3281,104.8342 2306.6563,104.4124 2306.6563,104.0061 C2306.6563,103.5374 2306.2344,103.1311 2305.7344,103.1311 C2305.5,103.1311 2305.2813,103.2092 2305.0781,103.4124 C2304.6406,103.8499 2304.6406,103.8499 2304.4688,103.9436 C2304.0156,104.178 2303.375,104.3186 2302.6094,104.3186 C2300.6094,104.3186 2299.3281,103.303 2299.3281,101.7249 L2299.3281,100.678 C2299.3281,98.9749 2300.5469,97.7717 2302.25,97.7717 C2302.8281,97.7717 2303.4063,97.9124 2303.875,98.1624 C2304.3438,98.428 2304.5156,98.6155 2304.5781,98.9749 C2304.7031,99.6467 2304.9531,99.8967 2305.4844,99.8967 C2305.7656,99.8967 2306.0469,99.7561 2306.2344,99.5374 C2306.3594,99.3655 2306.4063,99.1936 2306.4063,98.7561 L2306.4063,97.3967 C2306.4063,96.9749 2306.3906,96.8342 2306.2656,96.6624 C2306.0938,96.4124 2305.8125,96.2561 2305.4844,96.2561 C2305.1719,96.2561 2304.9688,96.3655 2304.75,96.6311 C2303.5781,96.1311 2303.1406,96.0217 2302.1875,96.0217 C2299.5156,96.0217 2297.5,98.0374 2297.5,100.6624 L2297.5,101.7561 Z " fill="#000000"/><text fill="#000000" font-family="sans-serif" font-size="14" lengthAdjust="spacing" textLength="49" x="2319.5" y="102.6058">Toaster</text><rect fill="#E2E2F0" height="36" rx="2.5" ry="2.5" style="stroke:#181818;stroke-width:0.5;" width="91" x="2284.5" y="1459.0003"/><ellipse cx="2302.5" cy="1477.0003" fill="#FFC0CB" rx="11" ry="11" style="stroke:#181818;stroke-width:1.0;"/><path d="M2297.5,1478.1566 C2297.5,1480.6566 2299.6406,1482.4691 2302.5625,1482.4691 C2303.7969,1482.4691 2304.9688,1482.1722 2305.7188,1481.6566 C2306.3281,1481.2347 2306.6563,1480.8128 2306.6563,1480.4066 C2306.6563,1479.9378 2306.2344,1479.5316 2305.7344,1479.5316 C2305.5,1479.5316 2305.2813,1479.6097 2305.0781,1479.8128 C2304.6406,1480.2503 2304.6406,1480.2503 2304.4688,1480.3441 C2304.0156,1480.5785 2303.375,1480.7191 2302.6094,1480.7191 C2300.6094,1480.7191 2299.3281,1479.7035 2299.3281,1478.1253 L2299.3281,1477.0785 C2299.3281,1475.3753 2300.5469,1474.1722 2302.25,1474.1722 C2302.8281,1474.1722 2303.4063,1474.3128 2303.875,1474.5628 C2304.3438,1474.8285 2304.5156,1475.016 2304.5781,1475.3753 C2304.7031,1476.0472 2304.9531,1476.2972 2305.4844,1476.2972 C2305.7656,1476.2972 2306.0469,1476.1566 2306.2344,1475.9378 C2306.3594,1475.766 2306.4063,1475.5941 2306.4063,1475.1566 L2306.4063,1473.7972 C2306.4063,1473.3753 2306.3906,1473.2347 2306.2656,1473.0628 C2306.0938,1472.8128 2305.8125,1472.6566 2305.4844,1472.6566 C2305.1719,1472.6566 2304.9688,1472.766 2304.75,1473.0316 C2303.5781,1472.5316 2303.1406,1472.4222 2302.1875,1472.4222 C2299.5156,1472.4222 2297.5,1474.4378 2297.5,1477.0628 L2297.5,1478.1566 Z " fill="#000000"/><text fill="#000000" font-family="sans-serif" font-size="14" lengthAdjust="spacing" textLength="49" x="2319.5" y="1479.0063">Toaster</text><rect fill="#FFFFFF" height="1245.6004" style="stroke:#181818;stroke-width:1.0;" width="10" x="756" y="205.3999"/><rect fill="#FFFFFF" height="629.0003" style="stroke:#181818;stroke-width:1.0;" width="10" x="761" y="813.0001"/><rect fill="#FFFFFF" height="88.8" style="stroke:#181818;stroke-width:1.0;" width="10" x="1022" y="234.9999"/><rect fill="#FFFFFF" height="88.8" style="stroke:#181818;stroke-width:1.0;" width="10" x="1022" y="872.2001"/><rect fill="#FFFFFF" height="296.0001" style="stroke:#181818;stroke-width:1.0;" width="10" x="1231.5" y="353.4"/><rect fill="#FFFFFF" height="296.0001" style="stroke:#181818;stroke-width:1.0;" width="10" x="1231.5" y="990.6001"/><rect fill="#FFFFFF" height="1008.8003" style="stroke:#181818;stroke-width:1.0;" width="10" x="1722" y="442.2"/><rect fill="#FFFFFF" height="371.6002" style="stroke:#181818;stroke-width:1.0;" width="10" x="1727" y="1079.4002"/><rect fill="#FFFFFF" height="29.6" style="stroke:#181818;stroke-width:1.0;" width="10" x="1873" y="471.8"/><rect fill="#FFFFFF" height="29.6" style="stroke:#181818;stroke-width:1.0;" width="10" x="1873" y="1109.0002"/><rect fill="#FFFFFF" height="29.6" style="stroke:#181818;stroke-width:1.0;" width="10" x="2083" y="531"/><rect fill="#FFFFFF" height="29.6" style="stroke:#181818;stroke-width:1.0;" width="10" x="2083" y="1168.2002"/><rect fill="#FFFFFF" height="29.6" style="stroke:#181818;stroke-width:1.0;" width="10" x="2211" y="1382.8003"/><rect fill="#FFFFFF" height="30" style="stroke:#181818;stroke-width:1.0;" width="10" x="2325" y="679.0001"/><rect fill="#FFFFFF" height="30" style="stroke:#181818;stroke-width:1.0;" width="10" x="2325" y="1316.2003"/><path d="M10,136.5999 L70,136.5999 L70,144.1999 L60,154.1999 L10,154.1999 L10,136.5999 " fill="#EEEEEE" style="stroke:#000000;stroke-width:1.5;"/><rect fill="none" height="1217.6004" style="stroke:#000000;stroke-width:1.5;" width="2375.5" x="10" y="136.5999"/><text fill="#000000" font-family="sans-serif" font-size="13" font-weight="bold" lengthAdjust="spacing" textLength="15" x="25" y="149.6769">alt</text><text fill="#000000" font-family="sans-serif" font-size="11" font-weight="bold" lengthAdjust="spacing" textLength="115" x="85" y="148.8188">[Create New Training]</text><polygon fill="#181818" points="222,171.7999,232,175.7999,222,179.7999,226,175.7999" style="stroke:#181818;stroke-width:1.0;"/><line style="stroke:#181818;stroke-width:1.0;" x1="43" x2="228" y1="175.7999" y2="175.7999"/><text fill="#000000" font-family="sans-serif" font-size="13" lengthAdjust="spacing" textLength="167" x="50" y="170.2769">Clicks "Create New Training"</text><polygon fill="#181818" points="744,201.3999,754,205.3999,744,209.3999,748,205.3999" style="stroke:#181818;stroke-width:1.0;"/><line style="stroke:#181818;stroke-width:1.0;" x1="234" x2="750" y1="205.3999" y2="205.3999"/><text fill="#000000" font-family="sans-serif" font-size="13" lengthAdjust="spacing" textLength="172" x="241" y="199.8769">Opens TrainingCreationDialog</text><polygon fill="#181818" points="1010,230.9999,1020,234.9999,1010,238.9999,1014,234.9999" style="stroke:#181818;stroke-width:1.0;"/><line style="stroke:#181818;stroke-width:1.0;" x1="766" x2="1016" y1="234.9999" y2="234.9999"/><text fill="#000000" font-family="sans-serif" font-size="13" lengthAdjust="spacing" textLength="164" x="773" y="229.4769">Renders empty training form</text><polygon fill="#181818" points="1010,260.5999,1020,264.5999,1010,268.5999,1014,264.5999" style="stroke:#181818;stroke-width:1.0;"/><line style="stroke:#181818;stroke-width:1.0;" x1="43" x2="1016" y1="264.5999" y2="264.5999"/><text fill="#000000" font-family="sans-serif" font-size="13" lengthAdjust="spacing" textLength="473" x="50" y="259.0769">Enters new training details (name, category, trainer, court, dates (local), payment)</text><polygon fill="#181818" points="1010,290.1999,1020,294.1999,1010,298.1999,1014,294.1999" style="stroke:#181818;stroke-width:1.0;"/><line style="stroke:#181818;stroke-width:1.0;" x1="43" x2="1016" y1="294.1999" y2="294.1999"/><text fill="#000000" font-family="sans-serif" font-size="13" lengthAdjust="spacing" textLength="138" x="50" y="288.6769">Clicks "Create Training"</text><polygon fill="#181818" points="777,319.7999,767,323.7999,777,327.7999,773,323.7999" style="stroke:#181818;stroke-width:1.0;"/><line style="stroke:#181818;stroke-width:1.0;" x1="771" x2="1026" y1="323.7999" y2="323.7999"/><text fill="#000000" font-family="sans-serif" font-size="13" lengthAdjust="spacing" textLength="227" x="783" y="318.2769">onSubmit(formData: TrainingFormData)</text><polygon fill="#181818" points="1219.5,349.4,1229.5,353.4,1219.5,357.4,1223.5,353.4" style="stroke:#181818;stroke-width:1.0;"/><line style="stroke:#181818;stroke-width:1.0;" x1="766" x2="1225.5" y1="353.4" y2="353.4"/><text fill="#000000" font-family="sans-serif" font-size="13" lengthAdjust="spacing" textLength="222" x="773" y="347.877">createTraining(payloadFromFormData)</text><polygon fill="#181818" points="1544.5,379,1554.5,383,1544.5,387,1548.5,383" style="stroke:#181818;stroke-width:1.0;"/><line style="stroke:#181818;stroke-width:1.0;" x1="1241.5" x2="1550.5" y1="383" y2="383"/><text fill="#000000" font-family="sans-serif" font-size="13" lengthAdjust="spacing" textLength="291" x="1248.5" y="377.477">convertLocalToUtcString(formData.start_datetime)</text><polygon fill="#181818" points="1544.5,408.6,1554.5,412.6,1544.5,416.6,1548.5,412.6" style="stroke:#181818;stroke-width:1.0;"/><line style="stroke:#181818;stroke-width:1.0;" x1="1241.5" x2="1550.5" y1="412.6" y2="412.6"/><text fill="#000000" font-family="sans-serif" font-size="13" lengthAdjust="spacing" textLength="286" x="1248.5" y="407.077">convertLocalToUtcString(formData.end_datetime)</text><polygon fill="#181818" points="1710,438.2,1720,442.2,1710,446.2,1714,442.2" style="stroke:#181818;stroke-width:1.0;"/><line style="stroke:#181818;stroke-width:1.0;" x1="1241.5" x2="1716" y1="442.2" y2="442.2"/><text fill="#000000" font-family="sans-serif" font-size="13" lengthAdjust="spacing" textLength="289" x="1248.5" y="436.677">fetchJson("/trainings", {POST, body: utcPayload})</text><polygon fill="#181818" points="1861,467.8,1871,471.8,1861,475.8,1865,471.8" style="stroke:#181818;stroke-width:1.0;"/><line style="stroke:#181818;stroke-width:1.0;" x1="1732" x2="1867" y1="471.8" y2="471.8"/><text fill="#000000" font-family="sans-serif" font-size="13" lengthAdjust="spacing" textLength="62" x="1739" y="466.277">getToken()</text><polygon fill="#181818" points="1743,497.4,1733,501.4,1743,505.4,1739,501.4" style="stroke:#181818;stroke-width:1.0;"/><line style="stroke:#181818;stroke-width:1.0;stroke-dasharray:2.0,2.0;" x1="1737" x2="1877" y1="501.4" y2="501.4"/><text fill="#000000" font-family="sans-serif" font-size="13" lengthAdjust="spacing" textLength="112" x="1749" y="495.877">"admin_token_xyz"</text><polygon fill="#181818" points="2071,527,2081,531,2071,535,2075,531" style="stroke:#181818;stroke-width:1.0;"/><line style="stroke:#181818;stroke-width:1.0;" x1="1732" x2="2077" y1="531" y2="531"/><text fill="#000000" font-family="sans-serif" font-size="13" lengthAdjust="spacing" textLength="170" x="1739" y="525.477">POST /trainings (utcPayload)</text><polygon fill="#181818" points="1743,556.6001,1733,560.6001,1743,564.6001,1739,560.6001" style="stroke:#181818;stroke-width:1.0;"/><line style="stroke:#181818;stroke-width:1.0;stroke-dasharray:2.0,2.0;" x1="1737" x2="2087" y1="560.6001" y2="560.6001"/><text fill="#000000" font-family="sans-serif" font-size="13" lengthAdjust="spacing" textLength="272" x="1749" y="555.0771">HTTP 200 OK (Training object with UTC dates)</text><polygon fill="#181818" points="1252.5,586.2001,1242.5,590.2001,1252.5,594.2001,1248.5,590.2001" style="stroke:#181818;stroke-width:1.0;"/><line style="stroke:#181818;stroke-width:1.0;stroke-dasharray:2.0,2.0;" x1="1246.5" x2="1721" y1="590.2001" y2="590.2001"/><text fill="#000000" font-family="sans-serif" font-size="13" lengthAdjust="spacing" textLength="84" x="1258.5" y="584.6771">Training (UTC)</text><polygon fill="#181818" points="1544.5,615.8001,1554.5,619.8001,1544.5,623.8001,1548.5,619.8001" style="stroke:#181818;stroke-width:1.0;"/><line style="stroke:#181818;stroke-width:1.0;" x1="1241.5" x2="1550.5" y1="619.8001" y2="619.8001"/><text fill="#000000" font-family="sans-serif" font-size="13" lengthAdjust="spacing" textLength="227" x="1248.5" y="614.2771">displayUtcAsLocal(...) ' for start &amp; end '</text><polygon fill="#181818" points="777,645.4001,767,649.4001,777,653.4001,773,649.4001" style="stroke:#181818;stroke-width:1.0;"/><line style="stroke:#181818;stroke-width:1.0;stroke-dasharray:2.0,2.0;" x1="771" x2="1235.5" y1="649.4001" y2="649.4001"/><text fill="#000000" font-family="sans-serif" font-size="13" lengthAdjust="spacing" textLength="121" x="783" y="643.8771">Training (local dates)</text><polygon fill="#181818" points="2313,675.0001,2323,679.0001,2313,683.0001,2317,679.0001" style="stroke:#181818;stroke-width:1.0;"/><line style="stroke:#181818;stroke-width:1.0;" x1="766" x2="2319" y1="679.0001" y2="679.0001"/><text fill="#000000" font-family="sans-serif" font-size="13" lengthAdjust="spacing" textLength="205" x="773" y="673.4771">toast.success("Training created...")</text><line style="stroke:#000000;stroke-width:1.0;stroke-dasharray:2.0,2.0;" x1="10" x2="2385.5" y1="718.0001" y2="718.0001"/><text fill="#000000" font-family="sans-serif" font-size="11" font-weight="bold" lengthAdjust="spacing" textLength="122" x="15" y="728.219">[Edit Existing Training]</text><polygon fill="#181818" points="446,749.8,456,753.8,446,757.8,450,753.8" style="stroke:#181818;stroke-width:1.0;"/><line style="stroke:#181818;stroke-width:1.0;" x1="43" x2="452" y1="753.8" y2="753.8"/><text fill="#000000" font-family="sans-serif" font-size="13" lengthAdjust="spacing" textLength="204" x="50" y="748.277">Clicks "Edit" on an existing training</text><polygon fill="#181818" points="245,779.4,235,783.4,245,787.4,241,783.4" style="stroke:#181818;stroke-width:1.0;"/><line style="stroke:#181818;stroke-width:1.0;" x1="239" x2="457" y1="783.4" y2="783.4"/><text fill="#000000" font-family="sans-serif" font-size="13" lengthAdjust="spacing" textLength="111" x="251" y="777.877">handleEdit(training)</text><polygon fill="#181818" points="749,809.0001,759,813.0001,749,817.0001,753,813.0001" style="stroke:#181818;stroke-width:1.0;"/><line style="stroke:#181818;stroke-width:1.0;" x1="234" x2="755" y1="813.0001" y2="813.0001"/><text fill="#000000" font-family="sans-serif" font-size="13" lengthAdjust="spacing" textLength="239" x="241" y="807.4771">Opens TrainingEditDialog (with trainingId)</text><polygon fill="#181818" points="2204,838.6001,2214,842.6001,2204,846.6001,2208,842.6001" style="stroke:#181818;stroke-width:1.0;"/><line style="stroke:#181818;stroke-width:1.0;" x1="771" x2="2210" y1="842.6001" y2="842.6001"/><text fill="#000000" font-family="sans-serif" font-size="13" lengthAdjust="spacing" textLength="301" x="778" y="837.0771">useQuery(['training', trainingId]) ' to get trainingData '</text><polygon fill="#181818" points="1010,868.2001,1020,872.2001,1010,876.2001,1014,872.2001" style="stroke:#181818;stroke-width:1.0;"/><line style="stroke:#181818;stroke-width:1.0;" x1="771" x2="1016" y1="872.2001" y2="872.2001"/><text fill="#000000" font-family="sans-serif" font-size="13" lengthAdjust="spacing" textLength="181" x="778" y="866.6771">Renders training form, pre-filled</text><polygon fill="#181818" points="1010,897.8001,1020,901.8001,1010,905.8001,1014,901.8001" style="stroke:#181818;stroke-width:1.0;"/><line style="stroke:#181818;stroke-width:1.0;" x1="43" x2="1016" y1="901.8001" y2="901.8001"/><text fill="#000000" font-family="sans-serif" font-size="13" lengthAdjust="spacing" textLength="137" x="50" y="896.2771">Modifies training details</text><polygon fill="#181818" points="1010,927.4001,1020,931.4001,1010,935.4001,1014,931.4001" style="stroke:#181818;stroke-width:1.0;"/><line style="stroke:#181818;stroke-width:1.0;" x1="43" x2="1016" y1="931.4001" y2="931.4001"/><text fill="#000000" font-family="sans-serif" font-size="13" lengthAdjust="spacing" textLength="135" x="50" y="925.8771">Clicks "Save Changes"</text><polygon fill="#181818" points="782,957.0001,772,961.0001,782,965.0001,778,961.0001" style="stroke:#181818;stroke-width:1.0;"/><line style="stroke:#181818;stroke-width:1.0;" x1="776" x2="1026" y1="961.0001" y2="961.0001"/><text fill="#000000" font-family="sans-serif" font-size="13" lengthAdjust="spacing" textLength="227" x="788" y="955.4771">onSubmit(formData: TrainingFormData)</text><polygon fill="#181818" points="1219.5,986.6001,1229.5,990.6001,1219.5,994.6001,1223.5,990.6001" style="stroke:#181818;stroke-width:1.0;"/><line style="stroke:#181818;stroke-width:1.0;" x1="771" x2="1225.5" y1="990.6001" y2="990.6001"/><text fill="#000000" font-family="sans-serif" font-size="13" lengthAdjust="spacing" textLength="286" x="778" y="985.0771">updateTraining(trainingId, payloadFromFormData)</text><polygon fill="#181818" points="1544.5,1016.2002,1554.5,1020.2002,1544.5,1024.2002,1548.5,1020.2002" style="stroke:#181818;stroke-width:1.0;"/><line style="stroke:#181818;stroke-width:1.0;" x1="1241.5" x2="1550.5" y1="1020.2002" y2="1020.2002"/><text fill="#000000" font-family="sans-serif" font-size="13" lengthAdjust="spacing" textLength="291" x="1248.5" y="1014.6772">convertLocalToUtcString(formData.start_datetime)</text><polygon fill="#181818" points="1544.5,1045.8002,1554.5,1049.8002,1544.5,1053.8002,1548.5,1049.8002" style="stroke:#181818;stroke-width:1.0;"/><line style="stroke:#181818;stroke-width:1.0;" x1="1241.5" x2="1550.5" y1="1049.8002" y2="1049.8002"/><text fill="#000000" font-family="sans-serif" font-size="13" lengthAdjust="spacing" textLength="286" x="1248.5" y="1044.2772">convertLocalToUtcString(formData.end_datetime)</text><polygon fill="#181818" points="1715,1075.4002,1725,1079.4002,1715,1083.4002,1719,1079.4002" style="stroke:#181818;stroke-width:1.0;"/><line style="stroke:#181818;stroke-width:1.0;" x1="1241.5" x2="1721" y1="1079.4002" y2="1079.4002"/><text fill="#000000" font-family="sans-serif" font-size="13" lengthAdjust="spacing" textLength="344" x="1248.5" y="1073.8772">fetchJson("/trainings/{trainingId}", {PUT, body: utcPayload})</text><polygon fill="#181818" points="1861,1105.0002,1871,1109.0002,1861,1113.0002,1865,1109.0002" style="stroke:#181818;stroke-width:1.0;"/><line style="stroke:#181818;stroke-width:1.0;" x1="1737" x2="1867" y1="1109.0002" y2="1109.0002"/><text fill="#000000" font-family="sans-serif" font-size="13" lengthAdjust="spacing" textLength="62" x="1744" y="1103.4772">getToken()</text><polygon fill="#181818" points="1748,1134.6002,1738,1138.6002,1748,1142.6002,1744,1138.6002" style="stroke:#181818;stroke-width:1.0;"/><line style="stroke:#181818;stroke-width:1.0;stroke-dasharray:2.0,2.0;" x1="1742" x2="1877" y1="1138.6002" y2="1138.6002"/><text fill="#000000" font-family="sans-serif" font-size="13" lengthAdjust="spacing" textLength="112" x="1754" y="1133.0772">"admin_token_xyz"</text><polygon fill="#181818" points="2071,1164.2002,2081,1168.2002,2071,1172.2002,2075,1168.2002" style="stroke:#181818;stroke-width:1.0;"/><line style="stroke:#181818;stroke-width:1.0;" x1="1737" x2="2077" y1="1168.2002" y2="1168.2002"/><text fill="#000000" font-family="sans-serif" font-size="13" lengthAdjust="spacing" textLength="225" x="1744" y="1162.6772">PUT /trainings/{trainingId} (utcPayload)</text><polygon fill="#181818" points="1748,1193.8002,1738,1197.8002,1748,1201.8002,1744,1197.8002" style="stroke:#181818;stroke-width:1.0;"/><line style="stroke:#181818;stroke-width:1.0;stroke-dasharray:2.0,2.0;" x1="1742" x2="2087" y1="1197.8002" y2="1197.8002"/><text fill="#000000" font-family="sans-serif" font-size="13" lengthAdjust="spacing" textLength="322" x="1754" y="1192.2772">HTTP 200 OK (updated Training object with UTC dates)</text><polygon fill="#181818" points="1252.5,1223.4002,1242.5,1227.4002,1252.5,1231.4002,1248.5,1227.4002" style="stroke:#181818;stroke-width:1.0;"/><line style="stroke:#181818;stroke-width:1.0;stroke-dasharray:2.0,2.0;" x1="1246.5" x2="1726" y1="1227.4002" y2="1227.4002"/><text fill="#000000" font-family="sans-serif" font-size="13" lengthAdjust="spacing" textLength="84" x="1258.5" y="1221.8772">Training (UTC)</text><polygon fill="#181818" points="1544.5,1253.0003,1554.5,1257.0003,1544.5,1261.0003,1548.5,1257.0003" style="stroke:#181818;stroke-width:1.0;"/><line style="stroke:#181818;stroke-width:1.0;" x1="1241.5" x2="1550.5" y1="1257.0003" y2="1257.0003"/><text fill="#000000" font-family="sans-serif" font-size="13" lengthAdjust="spacing" textLength="227" x="1248.5" y="1251.4773">displayUtcAsLocal(...) ' for start &amp; end '</text><polygon fill="#181818" points="782,1282.6003,772,1286.6003,782,1290.6003,778,1286.6003" style="stroke:#181818;stroke-width:1.0;"/><line style="stroke:#181818;stroke-width:1.0;stroke-dasharray:2.0,2.0;" x1="776" x2="1235.5" y1="1286.6003" y2="1286.6003"/><text fill="#000000" font-family="sans-serif" font-size="13" lengthAdjust="spacing" textLength="175" x="788" y="1281.0773">Training (local dates, updated)</text><polygon fill="#181818" points="2313,1312.2003,2323,1316.2003,2313,1320.2003,2317,1316.2003" style="stroke:#181818;stroke-width:1.0;"/><line style="stroke:#181818;stroke-width:1.0;" x1="771" x2="2319" y1="1316.2003" y2="1316.2003"/><text fill="#000000" font-family="sans-serif" font-size="13" lengthAdjust="spacing" textLength="208" x="778" y="1310.6773">toast.success("Training updated...")</text><polygon fill="#181818" points="2199,1378.8003,2209,1382.8003,2199,1386.8003,2203,1382.8003" style="stroke:#181818;stroke-width:1.0;"/><line style="stroke:#181818;stroke-width:1.0;" x1="771" x2="2205" y1="1382.8003" y2="1382.8003"/><text fill="#000000" font-family="sans-serif" font-size="13" lengthAdjust="spacing" textLength="240" x="778" y="1377.2773">invalidateQueries({queryKey: ['trainings']})</text><polygon fill="#181818" points="245,1408.4003,235,1412.4003,245,1416.4003,241,1412.4003" style="stroke:#181818;stroke-width:1.0;"/><line style="stroke:#181818;stroke-width:1.0;" x1="239" x2="2215" y1="1412.4003" y2="1412.4003"/><text fill="#000000" font-family="sans-serif" font-size="13" lengthAdjust="spacing" textLength="180" x="251" y="1406.8773">Triggers refetch of trainings list</text><polygon fill="#181818" points="245,1438.0003,235,1442.0003,245,1446.0003,241,1442.0003" style="stroke:#181818;stroke-width:1.0;"/><line style="stroke:#181818;stroke-width:1.0;" x1="239" x2="755" y1="1442.0003" y2="1442.0003"/><text fill="#000000" font-family="sans-serif" font-size="13" lengthAdjust="spacing" textLength="78" x="251" y="1436.4773">Closes dialog</text><!--SRC=[xLVVRzis47xtNt7mGoq1YbFiKIW2P4woUMqMBxQVriAWfRFCHI9Taahg1ltVTwGawuVj96imOCFsPf5tt_6Etzr76svIXFbeyHDgmwLWwb8OXO9b78MHUdGxlpYFCox06obawlGoveOfQ5dv8KpnSuuYGhZWB54iw_LOPAI2ldFk0zFWViqrgjw6ASCZlc72b0OpnRZW8fcm19rnjN2TPCOkmhjttcqWLRJciNzsreQeZ4SosqX19nen5OE7NpZb91A_XUZs26qKf3nPcqJXzZWWfMohGacbCW7AfzgnPIXMM-1NKcMbyGj3M8yzYFduENTJMY-MBBf34G-D_YWYUroiW3pV7ZZVnAsrLgmV2sSRx2hOOfhAXxr8kU6fBk2bk4TbFiY8fJCvDz7Kg1hpWiBCoRO0gqwEuWd05Pfe_OkMeeIuijyrXbHC9BZdVvwRzJKJH0fLyCf-9yhwJ8kuopJVTojpFP-C2w_9kF0mCcD4uQxvRpcgxIYr_7RsZU_2x_2jIgPDUQxoTt6J6oxkh7MFfGOShH1-nOVTJVIWxWyuETldVmWKFBhJq3_WtIVtFOy6IeEM8TniK3JQeKLnmg6-vVSsmBvp8qe3iHE7k1l2BLKQbGRCDcOB5LbXHVl7Gip7nsgmGwMXOq45PRw3ZD4muXDuD8mmW8XW4wcsGM61YfPaham0jWt8BBNizGFOi6r6T-a_6xHJzaCbBssF5LoAQRxCkF5i-jGcB6pRqOezHep7wl9itQi-3g4p0YZBLBBuIici6MelK0dG25H1KfHTPnFyaH5GPJRK90vcOMjjU8R-wm79fGKtWE5m2FFPg7JLn5stD3WSgvuf8TJpfdzQ4KZt0tYSt4nd0Inbl0qXDz6agDgtLgbsGBHOWrA4Qlw4aA2PIGhijHpBVKkqqlAaSwu-imnS6Ekx-BBzsc-peGPenvrOUjgZGvqDUFNvswUOkFuYdsxqdsUp2VpmzYtSl0UlgY38vHyO6NZWPksgxTgdGzC2it6eWvJSGNg4ypmZOgutATiI5SwreuL7j-lJlHCbmD4Bte1rEtZXntgmFeGR00VJwJR3yROh9ti8nluQwZoAK6jl9-fb6yPqydwxtmhFJjno4LEDO1yMS5c-N9wL1_UOgMUKTUxJl04ce7hzx4Pb8ntdTbXbrap4ALeWhtBqlrzTwcSIU8vA5UOuzhzJQvf2JDsgqIrulmygw47GYFB9CiT8svgxLJjN77kAMVA1MaKt1CNkTWVA2-Mk9NIaCGfFLZnDCNw5w5tBcAyuwZt9Ux5oJTazmcXj7rFw7ofRdLTgVNzEgF-NiASbxFInBjWtfsVpVwsSpPjgrahijT9MS2o6_vJ41MLhnN-VrfK1_gBMsPWl6V1StBEKsmXsdUQWz_ZP6hn78dSzzFNW4_5x5wQ1qMlY7TQycU99OkUtGjTV85TGlwXIqj5U8uKczjFphVNdJMgQuN6XRKTcviNHtGhfJm00]--></g></svg>