<?xml version="1.0" encoding="us-ascii" standalone="no"?><svg xmlns="http://www.w3.org/2000/svg" xmlns:xlink="http://www.w3.org/1999/xlink" contentStyleType="text/css" height="1262px" preserveAspectRatio="none" style="width:1974px;height:1262px;background:#FFFFFF;" version="1.1" viewBox="0 0 1974 1262" width="1974px" zoomAndPan="magnify"><defs/><g><text fill="#000000" font-family="sans-serif" font-size="14" font-weight="bold" lengthAdjust="spacing" textLength="488" x="744" y="28.0059">UC_GestionarUsuariosCRUDAdmin (Editar Usuario): Sequence Diagram</text><rect fill="#FFFFFF" height="1020.4002" style="stroke:#181818;stroke-width:1.0;" width="10" x="341" y="151.1999"/><rect fill="#FFFFFF" height="961.2002" style="stroke:#181818;stroke-width:1.0;" width="10" x="501" y="210.3999"/><rect fill="#FFFFFF" height="872.4001" style="stroke:#181818;stroke-width:1.0;" width="10" x="636.5" y="299.1999"/><rect fill="#FFFFFF" height="88.8" style="stroke:#181818;stroke-width:1.0;" width="10" x="937.5" y="358.4"/><rect fill="#FFFFFF" height="588.4001" style="stroke:#181818;stroke-width:1.0;" width="10" x="1086" y="501.4"/><rect fill="#FFFFFF" height="29.6" style="stroke:#181818;stroke-width:1.0;" width="10" x="1233.5" y="560.6001"/><rect fill="#FFFFFF" height="558.8001" style="stroke:#181818;stroke-width:1.0;" width="10" x="1379.5" y="531"/><rect fill="#FFFFFF" height="470.0001" style="stroke:#181818;stroke-width:1.0;" width="10" x="1654.5" y="619.8001"/><rect fill="#FFFFFF" height="29.6" style="stroke:#181818;stroke-width:1.0;" width="10" x="1782.5" y="852.0002"/><rect fill="#FFFFFF" height="30" style="stroke:#181818;stroke-width:1.0;" width="10" x="1896.5" y="762.8002"/><rect fill="#FFFFFF" height="30" style="stroke:#181818;stroke-width:1.0;" width="10" x="1896.5" y="1044.8002"/><rect fill="#FFFFFF" height="30" style="stroke:#181818;stroke-width:1.0;" width="10" x="1896.5" y="1126.6001"/><rect fill="none" height="702.4001" style="stroke:#000000;stroke-width:1.5;" width="1724.5" x="242.5" y="462.2"/><rect fill="none" height="448.0001" style="stroke:#000000;stroke-width:1.5;" width="1704.5" x="252.5" y="634.8001"/><line style="stroke:#181818;stroke-width:0.5;stroke-dasharray:5.0,5.0;" x1="28" x2="28" y1="119.5999" y2="1181.6001"/><line style="stroke:#181818;stroke-width:0.5;stroke-dasharray:5.0,5.0;" x1="345.5" x2="345.5" y1="119.5999" y2="1181.6001"/><line style="stroke:#181818;stroke-width:0.5;stroke-dasharray:5.0,5.0;" x1="505.5" x2="505.5" y1="119.5999" y2="1181.6001"/><line style="stroke:#181818;stroke-width:0.5;stroke-dasharray:5.0,5.0;" x1="641.5" x2="641.5" y1="119.5999" y2="1181.6001"/><line style="stroke:#181818;stroke-width:0.5;stroke-dasharray:5.0,5.0;" x1="942.5" x2="942.5" y1="119.5999" y2="1181.6001"/><line style="stroke:#181818;stroke-width:0.5;stroke-dasharray:5.0,5.0;" x1="1090.5" x2="1090.5" y1="119.5999" y2="1181.6001"/><line style="stroke:#181818;stroke-width:0.5;stroke-dasharray:5.0,5.0;" x1="1238.5" x2="1238.5" y1="119.5999" y2="1181.6001"/><line style="stroke:#181818;stroke-width:0.5;stroke-dasharray:5.0,5.0;" x1="1384" x2="1384" y1="119.5999" y2="1181.6001"/><line style="stroke:#181818;stroke-width:0.5;stroke-dasharray:5.0,5.0;" x1="1659" x2="1659" y1="119.5999" y2="1181.6001"/><line style="stroke:#181818;stroke-width:0.5;stroke-dasharray:5.0,5.0;" x1="1787" x2="1787" y1="119.5999" y2="1181.6001"/><line style="stroke:#181818;stroke-width:0.5;stroke-dasharray:5.0,5.0;" x1="1901" x2="1901" y1="119.5999" y2="1181.6001"/><text fill="#000000" font-family="sans-serif" font-size="14" lengthAdjust="spacing" textLength="40" x="5" y="115.8059">Admin</text><ellipse cx="28" cy="51.2999" fill="#E2E2F0" rx="8" ry="8" style="stroke:#181818;stroke-width:0.5;"/><path d="M28,59.2999 L28,86.2999 M15,67.2999 L41,67.2999 M28,86.2999 L15,101.2999 M28,86.2999 L41,101.2999 " fill="none" style="stroke:#181818;stroke-width:0.5;"/><text fill="#000000" font-family="sans-serif" font-size="14" lengthAdjust="spacing" textLength="40" x="5" y="1193.606">Admin</text><ellipse cx="28" cy="1205.9" fill="#E2E2F0" rx="8" ry="8" style="stroke:#181818;stroke-width:0.5;"/><path d="M28,1213.9 L28,1240.9 M15,1221.9 L41,1221.9 M28,1240.9 L15,1255.9 M28,1240.9 L41,1255.9 " fill="none" style="stroke:#181818;stroke-width:0.5;"/><rect fill="#E2E2F0" height="36" rx="2.5" ry="2.5" style="stroke:#181818;stroke-width:0.5;" width="167" x="262.5" y="82.5999"/><ellipse cx="280.5" cy="100.5999" fill="#DA70D6" rx="11" ry="11" style="stroke:#181818;stroke-width:1.0;"/><path d="M278.3594,101.9905 L279.9375,101.9905 C280.6094,102.2405 282.0938,103.9124 282.9688,105.4905 L283.0313,105.5999 L284.4063,105.5999 C284.7344,105.5999 285.0156,105.553 285.1563,105.4749 C285.4219,105.3186 285.5938,105.0217 285.5938,104.7092 C285.5938,104.4436 285.4375,104.1624 285.2188,104.0061 C285.0313,103.8655 284.8594,103.8342 284.4063,103.8342 L284.2188,103.8342 C283.5625,102.8499 282.8906,102.053 282.1563,101.4124 C283.3594,100.7874 283.9375,99.9905 283.9375,98.9592 C283.9375,97.2249 282.3906,96.0061 280.1406,96.0061 L276.3438,96.0061 C275.8906,96.0061 275.7656,96.0217 275.5938,96.1311 C275.3281,96.303 275.1563,96.5842 275.1563,96.8811 C275.1563,97.1624 275.3125,97.4436 275.5313,97.5999 C275.7188,97.7249 275.9063,97.7561 276.3438,97.7561 L276.5313,97.7561 L276.5313,103.8342 L276.3438,103.8342 C275.9219,103.8342 275.7656,103.8655 275.5938,103.9749 C275.3281,104.1155 275.1563,104.4124 275.1563,104.7092 C275.1563,105.2874 275.5625,105.5999 276.3438,105.5999 L278.8906,105.5999 C279.25,105.5999 279.5,105.553 279.6406,105.4749 C279.9063,105.3186 280.0781,105.0217 280.0781,104.7092 C280.0781,104.4436 279.9531,104.178 279.7031,104.0061 C279.5156,103.8655 279.375,103.8342 278.8906,103.8342 L278.3594,103.8342 L278.3594,101.9905 Z M278.3594,100.2405 L278.3594,97.7561 L280.2031,97.7561 C281.2344,97.7561 282,98.2405 282,98.8967 C282,99.678 280.9844,100.2405 279.5938,100.2405 L278.3594,100.2405 Z " fill="#000000"/><text fill="#000000" font-family="sans-serif" font-size="14" lengthAdjust="spacing" textLength="125" x="297.5" y="102.6058">AdminUserListPage</text><rect fill="#E2E2F0" height="36" rx="2.5" ry="2.5" style="stroke:#181818;stroke-width:0.5;" width="167" x="262.5" y="1180.6001"/><ellipse cx="280.5" cy="1198.6001" fill="#DA70D6" rx="11" ry="11" style="stroke:#181818;stroke-width:1.0;"/><path d="M278.3594,1199.9907 L279.9375,1199.9907 C280.6094,1200.2407 282.0938,1201.9126 282.9688,1203.4907 L283.0313,1203.6001 L284.4063,1203.6001 C284.7344,1203.6001 285.0156,1203.5532 285.1563,1203.4751 C285.4219,1203.3188 285.5938,1203.022 285.5938,1202.7095 C285.5938,1202.4438 285.4375,1202.1626 285.2188,1202.0063 C285.0313,1201.8657 284.8594,1201.8345 284.4063,1201.8345 L284.2188,1201.8345 C283.5625,1200.8501 282.8906,1200.0532 282.1563,1199.4126 C283.3594,1198.7876 283.9375,1197.9907 283.9375,1196.9595 C283.9375,1195.2251 282.3906,1194.0063 280.1406,1194.0063 L276.3438,1194.0063 C275.8906,1194.0063 275.7656,1194.022 275.5938,1194.1313 C275.3281,1194.3032 275.1563,1194.5845 275.1563,1194.8813 C275.1563,1195.1626 275.3125,1195.4438 275.5313,1195.6001 C275.7188,1195.7251 275.9063,1195.7563 276.3438,1195.7563 L276.5313,1195.7563 L276.5313,1201.8345 L276.3438,1201.8345 C275.9219,1201.8345 275.7656,1201.8657 275.5938,1201.9751 C275.3281,1202.1157 275.1563,1202.4126 275.1563,1202.7095 C275.1563,1203.2876 275.5625,1203.6001 276.3438,1203.6001 L278.8906,1203.6001 C279.25,1203.6001 279.5,1203.5532 279.6406,1203.4751 C279.9063,1203.3188 280.0781,1203.022 280.0781,1202.7095 C280.0781,1202.4438 279.9531,1202.1782 279.7031,1202.0063 C279.5156,1201.8657 279.375,1201.8345 278.8906,1201.8345 L278.3594,1201.8345 L278.3594,1199.9907 Z M278.3594,1198.2407 L278.3594,1195.7563 L280.2031,1195.7563 C281.2344,1195.7563 282,1196.2407 282,1196.897 C282,1197.6782 280.9844,1198.2407 279.5938,1198.2407 L278.3594,1198.2407 Z " fill="#000000"/><text fill="#000000" font-family="sans-serif" font-size="14" lengthAdjust="spacing" textLength="125" x="297.5" y="1200.606">AdminUserListPage</text><rect fill="#E2E2F0" height="36" rx="2.5" ry="2.5" style="stroke:#181818;stroke-width:0.5;" width="115" x="448.5" y="82.5999"/><ellipse cx="466.5" cy="100.5999" fill="#D3D3D3" rx="11" ry="11" style="stroke:#181818;stroke-width:1.0;"/><path d="M461.5,101.7561 C461.5,104.2561 463.6406,106.0686 466.5625,106.0686 C467.7969,106.0686 468.9688,105.7717 469.7188,105.2561 C470.3281,104.8342 470.6563,104.4124 470.6563,104.0061 C470.6563,103.5374 470.2344,103.1311 469.7344,103.1311 C469.5,103.1311 469.2813,103.2092 469.0781,103.4124 C468.6406,103.8499 468.6406,103.8499 468.4688,103.9436 C468.0156,104.178 467.375,104.3186 466.6094,104.3186 C464.6094,104.3186 463.3281,103.303 463.3281,101.7249 L463.3281,100.678 C463.3281,98.9749 464.5469,97.7717 466.25,97.7717 C466.8281,97.7717 467.4063,97.9124 467.875,98.1624 C468.3438,98.428 468.5156,98.6155 468.5781,98.9749 C468.7031,99.6467 468.9531,99.8967 469.4844,99.8967 C469.7656,99.8967 470.0469,99.7561 470.2344,99.5374 C470.3594,99.3655 470.4063,99.1936 470.4063,98.7561 L470.4063,97.3967 C470.4063,96.9749 470.3906,96.8342 470.2656,96.6624 C470.0938,96.4124 469.8125,96.2561 469.4844,96.2561 C469.1719,96.2561 468.9688,96.3655 468.75,96.6311 C467.5781,96.1311 467.1406,96.0217 466.1875,96.0217 C463.5156,96.0217 461.5,98.0374 461.5,100.6624 L461.5,101.7561 Z " fill="#000000"/><text fill="#000000" font-family="sans-serif" font-size="14" lengthAdjust="spacing" textLength="73" x="483.5" y="102.6058">UsersTable</text><rect fill="#E2E2F0" height="36" rx="2.5" ry="2.5" style="stroke:#181818;stroke-width:0.5;" width="115" x="448.5" y="1180.6001"/><ellipse cx="466.5" cy="1198.6001" fill="#D3D3D3" rx="11" ry="11" style="stroke:#181818;stroke-width:1.0;"/><path d="M461.5,1199.7563 C461.5,1202.2563 463.6406,1204.0688 466.5625,1204.0688 C467.7969,1204.0688 468.9688,1203.772 469.7188,1203.2563 C470.3281,1202.8345 470.6563,1202.4126 470.6563,1202.0063 C470.6563,1201.5376 470.2344,1201.1313 469.7344,1201.1313 C469.5,1201.1313 469.2813,1201.2095 469.0781,1201.4126 C468.6406,1201.8501 468.6406,1201.8501 468.4688,1201.9438 C468.0156,1202.1782 467.375,1202.3188 466.6094,1202.3188 C464.6094,1202.3188 463.3281,1201.3032 463.3281,1199.7251 L463.3281,1198.6782 C463.3281,1196.9751 464.5469,1195.772 466.25,1195.772 C466.8281,1195.772 467.4063,1195.9126 467.875,1196.1626 C468.3438,1196.4282 468.5156,1196.6157 468.5781,1196.9751 C468.7031,1197.647 468.9531,1197.897 469.4844,1197.897 C469.7656,1197.897 470.0469,1197.7563 470.2344,1197.5376 C470.3594,1197.3657 470.4063,1197.1938 470.4063,1196.7563 L470.4063,1195.397 C470.4063,1194.9751 470.3906,1194.8345 470.2656,1194.6626 C470.0938,1194.4126 469.8125,1194.2563 469.4844,1194.2563 C469.1719,1194.2563 468.9688,1194.3657 468.75,1194.6313 C467.5781,1194.1313 467.1406,1194.022 466.1875,1194.022 C463.5156,1194.022 461.5,1196.0376 461.5,1198.6626 L461.5,1199.7563 Z " fill="#000000"/><text fill="#000000" font-family="sans-serif" font-size="14" lengthAdjust="spacing" textLength="73" x="483.5" y="1200.606">UsersTable</text><rect fill="#E2E2F0" height="36" rx="2.5" ry="2.5" style="stroke:#181818;stroke-width:0.5;" width="136" x="573.5" y="82.5999"/><ellipse cx="591.5" cy="100.5999" fill="#D3D3D3" rx="11" ry="11" style="stroke:#181818;stroke-width:1.0;"/><path d="M586.5,101.7561 C586.5,104.2561 588.6406,106.0686 591.5625,106.0686 C592.7969,106.0686 593.9688,105.7717 594.7188,105.2561 C595.3281,104.8342 595.6563,104.4124 595.6563,104.0061 C595.6563,103.5374 595.2344,103.1311 594.7344,103.1311 C594.5,103.1311 594.2813,103.2092 594.0781,103.4124 C593.6406,103.8499 593.6406,103.8499 593.4688,103.9436 C593.0156,104.178 592.375,104.3186 591.6094,104.3186 C589.6094,104.3186 588.3281,103.303 588.3281,101.7249 L588.3281,100.678 C588.3281,98.9749 589.5469,97.7717 591.25,97.7717 C591.8281,97.7717 592.4063,97.9124 592.875,98.1624 C593.3438,98.428 593.5156,98.6155 593.5781,98.9749 C593.7031,99.6467 593.9531,99.8967 594.4844,99.8967 C594.7656,99.8967 595.0469,99.7561 595.2344,99.5374 C595.3594,99.3655 595.4063,99.1936 595.4063,98.7561 L595.4063,97.3967 C595.4063,96.9749 595.3906,96.8342 595.2656,96.6624 C595.0938,96.4124 594.8125,96.2561 594.4844,96.2561 C594.1719,96.2561 593.9688,96.3655 593.75,96.6311 C592.5781,96.1311 592.1406,96.0217 591.1875,96.0217 C588.5156,96.0217 586.5,98.0374 586.5,100.6624 L586.5,101.7561 Z " fill="#000000"/><text fill="#000000" font-family="sans-serif" font-size="14" lengthAdjust="spacing" textLength="94" x="608.5" y="102.6058">UserEditDialog</text><rect fill="#E2E2F0" height="36" rx="2.5" ry="2.5" style="stroke:#181818;stroke-width:0.5;" width="136" x="573.5" y="1180.6001"/><ellipse cx="591.5" cy="1198.6001" fill="#D3D3D3" rx="11" ry="11" style="stroke:#181818;stroke-width:1.0;"/><path d="M586.5,1199.7563 C586.5,1202.2563 588.6406,1204.0688 591.5625,1204.0688 C592.7969,1204.0688 593.9688,1203.772 594.7188,1203.2563 C595.3281,1202.8345 595.6563,1202.4126 595.6563,1202.0063 C595.6563,1201.5376 595.2344,1201.1313 594.7344,1201.1313 C594.5,1201.1313 594.2813,1201.2095 594.0781,1201.4126 C593.6406,1201.8501 593.6406,1201.8501 593.4688,1201.9438 C593.0156,1202.1782 592.375,1202.3188 591.6094,1202.3188 C589.6094,1202.3188 588.3281,1201.3032 588.3281,1199.7251 L588.3281,1198.6782 C588.3281,1196.9751 589.5469,1195.772 591.25,1195.772 C591.8281,1195.772 592.4063,1195.9126 592.875,1196.1626 C593.3438,1196.4282 593.5156,1196.6157 593.5781,1196.9751 C593.7031,1197.647 593.9531,1197.897 594.4844,1197.897 C594.7656,1197.897 595.0469,1197.7563 595.2344,1197.5376 C595.3594,1197.3657 595.4063,1197.1938 595.4063,1196.7563 L595.4063,1195.397 C595.4063,1194.9751 595.3906,1194.8345 595.2656,1194.6626 C595.0938,1194.4126 594.8125,1194.2563 594.4844,1194.2563 C594.1719,1194.2563 593.9688,1194.3657 593.75,1194.6313 C592.5781,1194.1313 592.1406,1194.022 591.1875,1194.022 C588.5156,1194.022 586.5,1196.0376 586.5,1198.6626 L586.5,1199.7563 Z " fill="#000000"/><text fill="#000000" font-family="sans-serif" font-size="14" lengthAdjust="spacing" textLength="94" x="608.5" y="1200.606">UserEditDialog</text><rect fill="#E2E2F0" height="36" rx="2.5" ry="2.5" style="stroke:#181818;stroke-width:0.5;" width="130" x="877.5" y="82.5999"/><ellipse cx="895.5" cy="100.5999" fill="#D3D3D3" rx="11" ry="11" style="stroke:#181818;stroke-width:1.0;"/><path d="M890.5,101.7561 C890.5,104.2561 892.6406,106.0686 895.5625,106.0686 C896.7969,106.0686 897.9688,105.7717 898.7188,105.2561 C899.3281,104.8342 899.6563,104.4124 899.6563,104.0061 C899.6563,103.5374 899.2344,103.1311 898.7344,103.1311 C898.5,103.1311 898.2813,103.2092 898.0781,103.4124 C897.6406,103.8499 897.6406,103.8499 897.4688,103.9436 C897.0156,104.178 896.375,104.3186 895.6094,104.3186 C893.6094,104.3186 892.3281,103.303 892.3281,101.7249 L892.3281,100.678 C892.3281,98.9749 893.5469,97.7717 895.25,97.7717 C895.8281,97.7717 896.4063,97.9124 896.875,98.1624 C897.3438,98.428 897.5156,98.6155 897.5781,98.9749 C897.7031,99.6467 897.9531,99.8967 898.4844,99.8967 C898.7656,99.8967 899.0469,99.7561 899.2344,99.5374 C899.3594,99.3655 899.4063,99.1936 899.4063,98.7561 L899.4063,97.3967 C899.4063,96.9749 899.3906,96.8342 899.2656,96.6624 C899.0938,96.4124 898.8125,96.2561 898.4844,96.2561 C898.1719,96.2561 897.9688,96.3655 897.75,96.6311 C896.5781,96.1311 896.1406,96.0217 895.1875,96.0217 C892.5156,96.0217 890.5,98.0374 890.5,100.6624 L890.5,101.7561 Z " fill="#000000"/><text fill="#000000" font-family="sans-serif" font-size="14" lengthAdjust="spacing" textLength="88" x="912.5" y="102.6058">UserEditForm</text><rect fill="#E2E2F0" height="36" rx="2.5" ry="2.5" style="stroke:#181818;stroke-width:0.5;" width="130" x="877.5" y="1180.6001"/><ellipse cx="895.5" cy="1198.6001" fill="#D3D3D3" rx="11" ry="11" style="stroke:#181818;stroke-width:1.0;"/><path d="M890.5,1199.7563 C890.5,1202.2563 892.6406,1204.0688 895.5625,1204.0688 C896.7969,1204.0688 897.9688,1203.772 898.7188,1203.2563 C899.3281,1202.8345 899.6563,1202.4126 899.6563,1202.0063 C899.6563,1201.5376 899.2344,1201.1313 898.7344,1201.1313 C898.5,1201.1313 898.2813,1201.2095 898.0781,1201.4126 C897.6406,1201.8501 897.6406,1201.8501 897.4688,1201.9438 C897.0156,1202.1782 896.375,1202.3188 895.6094,1202.3188 C893.6094,1202.3188 892.3281,1201.3032 892.3281,1199.7251 L892.3281,1198.6782 C892.3281,1196.9751 893.5469,1195.772 895.25,1195.772 C895.8281,1195.772 896.4063,1195.9126 896.875,1196.1626 C897.3438,1196.4282 897.5156,1196.6157 897.5781,1196.9751 C897.7031,1197.647 897.9531,1197.897 898.4844,1197.897 C898.7656,1197.897 899.0469,1197.7563 899.2344,1197.5376 C899.3594,1197.3657 899.4063,1197.1938 899.4063,1196.7563 L899.4063,1195.397 C899.4063,1194.9751 899.3906,1194.8345 899.2656,1194.6626 C899.0938,1194.4126 898.8125,1194.2563 898.4844,1194.2563 C898.1719,1194.2563 897.9688,1194.3657 897.75,1194.6313 C896.5781,1194.1313 896.1406,1194.022 895.1875,1194.022 C892.5156,1194.022 890.5,1196.0376 890.5,1198.6626 L890.5,1199.7563 Z " fill="#000000"/><text fill="#000000" font-family="sans-serif" font-size="14" lengthAdjust="spacing" textLength="88" x="912.5" y="1200.606">UserEditForm</text><rect fill="#E2E2F0" height="47.5999" rx="2.5" ry="2.5" style="stroke:#181818;stroke-width:0.5;" width="147" x="1017.5" y="71"/><ellipse cx="1035.5" cy="89" fill="#FFFF00" rx="11" ry="11" style="stroke:#181818;stroke-width:1.0;"/><path d="M1034.3594,90.0625 L1035.6719,90.0625 L1035.6719,90.1094 C1035.6719,90.5 1035.7031,90.6875 1035.7969,90.8438 C1035.9688,91.0938 1036.2656,91.2656 1036.5781,91.2656 C1036.8594,91.2656 1037.1406,91.125 1037.3281,90.9063 C1037.4531,90.7188 1037.5,90.5625 1037.5,90.1094 L1037.5,88.2813 C1037.5,87.8594 1037.4844,87.7344 1037.3594,87.5625 C1037.2031,87.2969 1036.9063,87.125 1036.5781,87.125 C1036.2813,87.125 1036.0156,87.2656 1035.8438,87.4844 C1035.7031,87.6719 1035.6719,87.8438 1035.6719,88.2813 L1035.6719,88.3281 L1034.3594,88.3281 L1034.3594,86.1563 L1038.5781,86.1563 L1038.5781,86.9219 C1038.5781,87.3125 1038.6094,87.4844 1038.7188,87.6406 C1038.8906,87.9063 1039.1719,88.0625 1039.5,88.0625 C1039.7813,88.0625 1040.0625,87.9375 1040.25,87.7031 C1040.3906,87.5156 1040.4219,87.375 1040.4219,86.9219 L1040.4219,84.4063 L1032.3438,84.4063 C1031.9063,84.4063 1031.7656,84.4219 1031.5938,84.5313 C1031.3281,84.7031 1031.1563,84.9844 1031.1563,85.2813 C1031.1563,85.5625 1031.3125,85.8438 1031.5313,86 C1031.7188,86.125 1031.9063,86.1563 1032.3438,86.1563 L1032.5313,86.1563 L1032.5313,92.25 L1032.3438,92.25 C1031.9219,92.25 1031.7656,92.2813 1031.5938,92.375 C1031.3281,92.5313 1031.1563,92.8281 1031.1563,93.1094 C1031.1563,93.6875 1031.5625,94 1032.3438,94 L1036,94 C1036.7813,94 1037.1875,93.7188 1037.1875,93.1094 C1037.1875,92.8438 1037.0469,92.5938 1036.8125,92.4219 C1036.625,92.2813 1036.4531,92.25 1036,92.25 L1034.3594,92.25 L1034.3594,90.0625 Z " fill="#000000"/><text fill="#000000" font-family="sans-serif" font-size="14" lengthAdjust="spacing" textLength="105" x="1052.5" y="91.0059">user_backend.ts</text><text fill="#000000" font-family="sans-serif" font-size="14" lengthAdjust="spacing" textLength="84" x="1063" y="107.8059">updateUser()</text><rect fill="#E2E2F0" height="47.5999" rx="2.5" ry="2.5" style="stroke:#181818;stroke-width:0.5;" width="147" x="1017.5" y="1180.6001"/><ellipse cx="1035.5" cy="1198.6001" fill="#FFFF00" rx="11" ry="11" style="stroke:#181818;stroke-width:1.0;"/><path d="M1034.3594,1199.6626 L1035.6719,1199.6626 L1035.6719,1199.7095 C1035.6719,1200.1001 1035.7031,1200.2876 1035.7969,1200.4438 C1035.9688,1200.6938 1036.2656,1200.8657 1036.5781,1200.8657 C1036.8594,1200.8657 1037.1406,1200.7251 1037.3281,1200.5063 C1037.4531,1200.3188 1037.5,1200.1626 1037.5,1199.7095 L1037.5,1197.8813 C1037.5,1197.4595 1037.4844,1197.3345 1037.3594,1197.1626 C1037.2031,1196.897 1036.9063,1196.7251 1036.5781,1196.7251 C1036.2813,1196.7251 1036.0156,1196.8657 1035.8438,1197.0845 C1035.7031,1197.272 1035.6719,1197.4438 1035.6719,1197.8813 L1035.6719,1197.9282 L1034.3594,1197.9282 L1034.3594,1195.7563 L1038.5781,1195.7563 L1038.5781,1196.522 C1038.5781,1196.9126 1038.6094,1197.0845 1038.7188,1197.2407 C1038.8906,1197.5063 1039.1719,1197.6626 1039.5,1197.6626 C1039.7813,1197.6626 1040.0625,1197.5376 1040.25,1197.3032 C1040.3906,1197.1157 1040.4219,1196.9751 1040.4219,1196.522 L1040.4219,1194.0063 L1032.3438,1194.0063 C1031.9063,1194.0063 1031.7656,1194.022 1031.5938,1194.1313 C1031.3281,1194.3032 1031.1563,1194.5845 1031.1563,1194.8813 C1031.1563,1195.1626 1031.3125,1195.4438 1031.5313,1195.6001 C1031.7188,1195.7251 1031.9063,1195.7563 1032.3438,1195.7563 L1032.5313,1195.7563 L1032.5313,1201.8501 L1032.3438,1201.8501 C1031.9219,1201.8501 1031.7656,1201.8813 1031.5938,1201.9751 C1031.3281,1202.1313 1031.1563,1202.4282 1031.1563,1202.7095 C1031.1563,1203.2876 1031.5625,1203.6001 1032.3438,1203.6001 L1036,1203.6001 C1036.7813,1203.6001 1037.1875,1203.3188 1037.1875,1202.7095 C1037.1875,1202.4438 1037.0469,1202.1938 1036.8125,1202.022 C1036.625,1201.8813 1036.4531,1201.8501 1036,1201.8501 L1034.3594,1201.8501 L1034.3594,1199.6626 Z " fill="#000000"/><text fill="#000000" font-family="sans-serif" font-size="14" lengthAdjust="spacing" textLength="105" x="1052.5" y="1200.606">user_backend.ts</text><text fill="#000000" font-family="sans-serif" font-size="14" lengthAdjust="spacing" textLength="84" x="1063" y="1217.406">updateUser()</text><rect fill="#E2E2F0" height="36" rx="2.5" ry="2.5" style="stroke:#181818;stroke-width:0.5;" width="128" x="1174.5" y="82.5999"/><ellipse cx="1192.5" cy="100.5999" fill="#ADD8E6" rx="11" ry="11" style="stroke:#181818;stroke-width:1.0;"/><path d="M1196.3594,96.9124 C1196.3594,96.4749 1196.3438,96.3499 1196.2344,96.178 C1196.0781,95.928 1195.7813,95.7717 1195.4531,95.7717 C1195.1094,95.7717 1194.9219,95.9124 1194.7656,96.2874 C1194.2031,95.9592 1193.4375,95.7717 1192.5625,95.7717 C1190.4219,95.7717 1188.8281,97.0374 1188.8281,98.6936 C1188.8281,99.6467 1189.375,100.5374 1190.25,101.0061 C1190.8125,101.3186 1191.3438,101.4749 1192.4844,101.6624 C1193.6094,101.8655 1193.875,101.928 1194.25,102.0999 C1194.5938,102.2717 1194.8125,102.5686 1194.8125,102.8811 C1194.8125,103.5374 1193.8594,104.053 1192.6406,104.053 C1191.5469,104.053 1190.4844,103.5999 1190.3281,103.053 C1190.1875,102.6155 1190.1875,102.6155 1190.0625,102.4749 C1189.8906,102.3186 1189.6563,102.2405 1189.4063,102.2405 C1189.1094,102.2405 1188.8438,102.3655 1188.6563,102.5842 C1188.5313,102.7561 1188.4844,102.9436 1188.4844,103.3655 L1188.4844,104.4436 C1188.4844,105.2092 1188.7969,105.5842 1189.4063,105.5842 C1189.6875,105.5842 1189.8438,105.4905 1190.125,105.2092 C1190.9844,105.6311 1191.8281,105.8186 1192.75,105.8186 C1195.1094,105.8186 1196.7188,104.6467 1196.7188,102.9124 C1196.7188,102.053 1196.375,101.3655 1195.6875,100.8342 C1195.1563,100.428 1194.4844,100.1936 1192.9844,99.9436 C1191.7031,99.6936 1191.6406,99.678 1191.3125,99.5061 C1190.9688,99.3655 1190.7344,99.0061 1190.7344,98.678 C1190.7344,98.0374 1191.5469,97.5217 1192.5781,97.5217 C1193.625,97.5217 1194.3906,97.9436 1194.5313,98.5686 C1194.6563,99.0999 1194.6563,99.0999 1194.7969,99.2405 C1194.9531,99.3967 1195.2031,99.4905 1195.4531,99.4905 C1195.75,99.4905 1196,99.3655 1196.1875,99.1467 C1196.3281,98.9592 1196.3594,98.8186 1196.3594,98.3655 L1196.3594,96.9124 Z " fill="#000000"/><text fill="#000000" font-family="sans-serif" font-size="14" lengthAdjust="spacing" textLength="86" x="1209.5" y="102.6058">AuthManager</text><rect fill="#E2E2F0" height="36" rx="2.5" ry="2.5" style="stroke:#181818;stroke-width:0.5;" width="128" x="1174.5" y="1180.6001"/><ellipse cx="1192.5" cy="1198.6001" fill="#ADD8E6" rx="11" ry="11" style="stroke:#181818;stroke-width:1.0;"/><path d="M1196.3594,1194.9126 C1196.3594,1194.4751 1196.3438,1194.3501 1196.2344,1194.1782 C1196.0781,1193.9282 1195.7813,1193.772 1195.4531,1193.772 C1195.1094,1193.772 1194.9219,1193.9126 1194.7656,1194.2876 C1194.2031,1193.9595 1193.4375,1193.772 1192.5625,1193.772 C1190.4219,1193.772 1188.8281,1195.0376 1188.8281,1196.6938 C1188.8281,1197.647 1189.375,1198.5376 1190.25,1199.0063 C1190.8125,1199.3188 1191.3438,1199.4751 1192.4844,1199.6626 C1193.6094,1199.8657 1193.875,1199.9282 1194.25,1200.1001 C1194.5938,1200.272 1194.8125,1200.5688 1194.8125,1200.8813 C1194.8125,1201.5376 1193.8594,1202.0532 1192.6406,1202.0532 C1191.5469,1202.0532 1190.4844,1201.6001 1190.3281,1201.0532 C1190.1875,1200.6157 1190.1875,1200.6157 1190.0625,1200.4751 C1189.8906,1200.3188 1189.6563,1200.2407 1189.4063,1200.2407 C1189.1094,1200.2407 1188.8438,1200.3657 1188.6563,1200.5845 C1188.5313,1200.7563 1188.4844,1200.9438 1188.4844,1201.3657 L1188.4844,1202.4438 C1188.4844,1203.2095 1188.7969,1203.5845 1189.4063,1203.5845 C1189.6875,1203.5845 1189.8438,1203.4907 1190.125,1203.2095 C1190.9844,1203.6313 1191.8281,1203.8188 1192.75,1203.8188 C1195.1094,1203.8188 1196.7188,1202.647 1196.7188,1200.9126 C1196.7188,1200.0532 1196.375,1199.3657 1195.6875,1198.8345 C1195.1563,1198.4282 1194.4844,1198.1938 1192.9844,1197.9438 C1191.7031,1197.6938 1191.6406,1197.6782 1191.3125,1197.5063 C1190.9688,1197.3657 1190.7344,1197.0063 1190.7344,1196.6782 C1190.7344,1196.0376 1191.5469,1195.522 1192.5781,1195.522 C1193.625,1195.522 1194.3906,1195.9438 1194.5313,1196.5688 C1194.6563,1197.1001 1194.6563,1197.1001 1194.7969,1197.2407 C1194.9531,1197.397 1195.2031,1197.4907 1195.4531,1197.4907 C1195.75,1197.4907 1196,1197.3657 1196.1875,1197.147 C1196.3281,1196.9595 1196.3594,1196.8188 1196.3594,1196.3657 L1196.3594,1194.9126 Z " fill="#000000"/><text fill="#000000" font-family="sans-serif" font-size="14" lengthAdjust="spacing" textLength="86" x="1209.5" y="1200.606">AuthManager</text><rect fill="#E2E2F0" height="47.5999" rx="2.5" ry="2.5" style="stroke:#181818;stroke-width:0.5;" width="113" x="1328" y="71"/><ellipse cx="1346" cy="89" fill="#FFA500" rx="11" ry="11" style="stroke:#181818;stroke-width:1.0;"/><path d="M1344.8594,90.0625 L1346.1719,90.0625 L1346.1719,90.1094 C1346.1719,90.5 1346.2031,90.6875 1346.2969,90.8438 C1346.4688,91.0938 1346.7656,91.2656 1347.0781,91.2656 C1347.3594,91.2656 1347.6406,91.125 1347.8281,90.9063 C1347.9531,90.7188 1348,90.5625 1348,90.1094 L1348,88.2813 C1348,87.8594 1347.9844,87.7344 1347.8594,87.5625 C1347.7031,87.2969 1347.4063,87.125 1347.0781,87.125 C1346.7813,87.125 1346.5156,87.2656 1346.3438,87.4844 C1346.2031,87.6719 1346.1719,87.8438 1346.1719,88.2813 L1346.1719,88.3281 L1344.8594,88.3281 L1344.8594,86.1563 L1349.0781,86.1563 L1349.0781,86.9219 C1349.0781,87.3125 1349.1094,87.4844 1349.2188,87.6406 C1349.3906,87.9063 1349.6719,88.0625 1350,88.0625 C1350.2813,88.0625 1350.5625,87.9375 1350.75,87.7031 C1350.8906,87.5156 1350.9219,87.375 1350.9219,86.9219 L1350.9219,84.4063 L1342.8438,84.4063 C1342.4063,84.4063 1342.2656,84.4219 1342.0938,84.5313 C1341.8281,84.7031 1341.6563,84.9844 1341.6563,85.2813 C1341.6563,85.5625 1341.8125,85.8438 1342.0313,86 C1342.2188,86.125 1342.4063,86.1563 1342.8438,86.1563 L1343.0313,86.1563 L1343.0313,92.25 L1342.8438,92.25 C1342.4219,92.25 1342.2656,92.2813 1342.0938,92.375 C1341.8281,92.5313 1341.6563,92.8281 1341.6563,93.1094 C1341.6563,93.6875 1342.0625,94 1342.8438,94 L1346.5,94 C1347.2813,94 1347.6875,93.7188 1347.6875,93.1094 C1347.6875,92.8438 1347.5469,92.5938 1347.3125,92.4219 C1347.125,92.2813 1346.9531,92.25 1346.5,92.25 L1344.8594,92.25 L1344.8594,90.0625 Z " fill="#000000"/><text fill="#000000" font-family="sans-serif" font-size="14" lengthAdjust="spacing" textLength="40" x="1378.5" y="91.0059">utils.ts</text><text fill="#000000" font-family="sans-serif" font-size="14" lengthAdjust="spacing" textLength="71" x="1363" y="107.8059">fetchJson()</text><rect fill="#E2E2F0" height="47.5999" rx="2.5" ry="2.5" style="stroke:#181818;stroke-width:0.5;" width="113" x="1328" y="1180.6001"/><ellipse cx="1346" cy="1198.6001" fill="#FFA500" rx="11" ry="11" style="stroke:#181818;stroke-width:1.0;"/><path d="M1344.8594,1199.6626 L1346.1719,1199.6626 L1346.1719,1199.7095 C1346.1719,1200.1001 1346.2031,1200.2876 1346.2969,1200.4438 C1346.4688,1200.6938 1346.7656,1200.8657 1347.0781,1200.8657 C1347.3594,1200.8657 1347.6406,1200.7251 1347.8281,1200.5063 C1347.9531,1200.3188 1348,1200.1626 1348,1199.7095 L1348,1197.8813 C1348,1197.4595 1347.9844,1197.3345 1347.8594,1197.1626 C1347.7031,1196.897 1347.4063,1196.7251 1347.0781,1196.7251 C1346.7813,1196.7251 1346.5156,1196.8657 1346.3438,1197.0845 C1346.2031,1197.272 1346.1719,1197.4438 1346.1719,1197.8813 L1346.1719,1197.9282 L1344.8594,1197.9282 L1344.8594,1195.7563 L1349.0781,1195.7563 L1349.0781,1196.522 C1349.0781,1196.9126 1349.1094,1197.0845 1349.2188,1197.2407 C1349.3906,1197.5063 1349.6719,1197.6626 1350,1197.6626 C1350.2813,1197.6626 1350.5625,1197.5376 1350.75,1197.3032 C1350.8906,1197.1157 1350.9219,1196.9751 1350.9219,1196.522 L1350.9219,1194.0063 L1342.8438,1194.0063 C1342.4063,1194.0063 1342.2656,1194.022 1342.0938,1194.1313 C1341.8281,1194.3032 1341.6563,1194.5845 1341.6563,1194.8813 C1341.6563,1195.1626 1341.8125,1195.4438 1342.0313,1195.6001 C1342.2188,1195.7251 1342.4063,1195.7563 1342.8438,1195.7563 L1343.0313,1195.7563 L1343.0313,1201.8501 L1342.8438,1201.8501 C1342.4219,1201.8501 1342.2656,1201.8813 1342.0938,1201.9751 C1341.8281,1202.1313 1341.6563,1202.4282 1341.6563,1202.7095 C1341.6563,1203.2876 1342.0625,1203.6001 1342.8438,1203.6001 L1346.5,1203.6001 C1347.2813,1203.6001 1347.6875,1203.3188 1347.6875,1202.7095 C1347.6875,1202.4438 1347.5469,1202.1938 1347.3125,1202.022 C1347.125,1201.8813 1346.9531,1201.8501 1346.5,1201.8501 L1344.8594,1201.8501 L1344.8594,1199.6626 Z " fill="#000000"/><text fill="#000000" font-family="sans-serif" font-size="14" lengthAdjust="spacing" textLength="40" x="1378.5" y="1200.606">utils.ts</text><text fill="#000000" font-family="sans-serif" font-size="14" lengthAdjust="spacing" textLength="71" x="1363" y="1217.406">fetchJson()</text><rect fill="#E2E2F0" height="36" rx="2.5" ry="2.5" style="stroke:#181818;stroke-width:0.5;" width="119" x="1600" y="82.5999"/><ellipse cx="1618" cy="100.5999" fill="#FF6347" rx="11" ry="11" style="stroke:#181818;stroke-width:1.0;"/><path d="M1621.8594,96.9124 C1621.8594,96.4749 1621.8438,96.3499 1621.7344,96.178 C1621.5781,95.928 1621.2813,95.7717 1620.9531,95.7717 C1620.6094,95.7717 1620.4219,95.9124 1620.2656,96.2874 C1619.7031,95.9592 1618.9375,95.7717 1618.0625,95.7717 C1615.9219,95.7717 1614.3281,97.0374 1614.3281,98.6936 C1614.3281,99.6467 1614.875,100.5374 1615.75,101.0061 C1616.3125,101.3186 1616.8438,101.4749 1617.9844,101.6624 C1619.1094,101.8655 1619.375,101.928 1619.75,102.0999 C1620.0938,102.2717 1620.3125,102.5686 1620.3125,102.8811 C1620.3125,103.5374 1619.3594,104.053 1618.1406,104.053 C1617.0469,104.053 1615.9844,103.5999 1615.8281,103.053 C1615.6875,102.6155 1615.6875,102.6155 1615.5625,102.4749 C1615.3906,102.3186 1615.1563,102.2405 1614.9063,102.2405 C1614.6094,102.2405 1614.3438,102.3655 1614.1563,102.5842 C1614.0313,102.7561 1613.9844,102.9436 1613.9844,103.3655 L1613.9844,104.4436 C1613.9844,105.2092 1614.2969,105.5842 1614.9063,105.5842 C1615.1875,105.5842 1615.3438,105.4905 1615.625,105.2092 C1616.4844,105.6311 1617.3281,105.8186 1618.25,105.8186 C1620.6094,105.8186 1622.2188,104.6467 1622.2188,102.9124 C1622.2188,102.053 1621.875,101.3655 1621.1875,100.8342 C1620.6563,100.428 1619.9844,100.1936 1618.4844,99.9436 C1617.2031,99.6936 1617.1406,99.678 1616.8125,99.5061 C1616.4688,99.3655 1616.2344,99.0061 1616.2344,98.678 C1616.2344,98.0374 1617.0469,97.5217 1618.0781,97.5217 C1619.125,97.5217 1619.8906,97.9436 1620.0313,98.5686 C1620.1563,99.0999 1620.1563,99.0999 1620.2969,99.2405 C1620.4531,99.3967 1620.7031,99.4905 1620.9531,99.4905 C1621.25,99.4905 1621.5,99.3655 1621.6875,99.1467 C1621.8281,98.9592 1621.8594,98.8186 1621.8594,98.3655 L1621.8594,96.9124 Z " fill="#000000"/><text fill="#000000" font-family="sans-serif" font-size="14" lengthAdjust="spacing" textLength="77" x="1635" y="102.6058">BackendAPI</text><rect fill="#E2E2F0" height="36" rx="2.5" ry="2.5" style="stroke:#181818;stroke-width:0.5;" width="119" x="1600" y="1180.6001"/><ellipse cx="1618" cy="1198.6001" fill="#FF6347" rx="11" ry="11" style="stroke:#181818;stroke-width:1.0;"/><path d="M1621.8594,1194.9126 C1621.8594,1194.4751 1621.8438,1194.3501 1621.7344,1194.1782 C1621.5781,1193.9282 1621.2813,1193.772 1620.9531,1193.772 C1620.6094,1193.772 1620.4219,1193.9126 1620.2656,1194.2876 C1619.7031,1193.9595 1618.9375,1193.772 1618.0625,1193.772 C1615.9219,1193.772 1614.3281,1195.0376 1614.3281,1196.6938 C1614.3281,1197.647 1614.875,1198.5376 1615.75,1199.0063 C1616.3125,1199.3188 1616.8438,1199.4751 1617.9844,1199.6626 C1619.1094,1199.8657 1619.375,1199.9282 1619.75,1200.1001 C1620.0938,1200.272 1620.3125,1200.5688 1620.3125,1200.8813 C1620.3125,1201.5376 1619.3594,1202.0532 1618.1406,1202.0532 C1617.0469,1202.0532 1615.9844,1201.6001 1615.8281,1201.0532 C1615.6875,1200.6157 1615.6875,1200.6157 1615.5625,1200.4751 C1615.3906,1200.3188 1615.1563,1200.2407 1614.9063,1200.2407 C1614.6094,1200.2407 1614.3438,1200.3657 1614.1563,1200.5845 C1614.0313,1200.7563 1613.9844,1200.9438 1613.9844,1201.3657 L1613.9844,1202.4438 C1613.9844,1203.2095 1614.2969,1203.5845 1614.9063,1203.5845 C1615.1875,1203.5845 1615.3438,1203.4907 1615.625,1203.2095 C1616.4844,1203.6313 1617.3281,1203.8188 1618.25,1203.8188 C1620.6094,1203.8188 1622.2188,1202.647 1622.2188,1200.9126 C1622.2188,1200.0532 1621.875,1199.3657 1621.1875,1198.8345 C1620.6563,1198.4282 1619.9844,1198.1938 1618.4844,1197.9438 C1617.2031,1197.6938 1617.1406,1197.6782 1616.8125,1197.5063 C1616.4688,1197.3657 1616.2344,1197.0063 1616.2344,1196.6782 C1616.2344,1196.0376 1617.0469,1195.522 1618.0781,1195.522 C1619.125,1195.522 1619.8906,1195.9438 1620.0313,1196.5688 C1620.1563,1197.1001 1620.1563,1197.1001 1620.2969,1197.2407 C1620.4531,1197.397 1620.7031,1197.4907 1620.9531,1197.4907 C1621.25,1197.4907 1621.5,1197.3657 1621.6875,1197.147 C1621.8281,1196.9595 1621.8594,1196.8188 1621.8594,1196.3657 L1621.8594,1194.9126 Z " fill="#000000"/><text fill="#000000" font-family="sans-serif" font-size="14" lengthAdjust="spacing" textLength="77" x="1635" y="1200.606">BackendAPI</text><rect fill="#E2E2F0" height="36" rx="2.5" ry="2.5" style="stroke:#181818;stroke-width:0.5;" width="117" x="1729" y="82.5999"/><ellipse cx="1747" cy="100.5999" fill="#808080" rx="11" ry="11" style="stroke:#181818;stroke-width:1.0;"/><path d="M1750.8594,96.9124 C1750.8594,96.4749 1750.8438,96.3499 1750.7344,96.178 C1750.5781,95.928 1750.2813,95.7717 1749.9531,95.7717 C1749.6094,95.7717 1749.4219,95.9124 1749.2656,96.2874 C1748.7031,95.9592 1747.9375,95.7717 1747.0625,95.7717 C1744.9219,95.7717 1743.3281,97.0374 1743.3281,98.6936 C1743.3281,99.6467 1743.875,100.5374 1744.75,101.0061 C1745.3125,101.3186 1745.8438,101.4749 1746.9844,101.6624 C1748.1094,101.8655 1748.375,101.928 1748.75,102.0999 C1749.0938,102.2717 1749.3125,102.5686 1749.3125,102.8811 C1749.3125,103.5374 1748.3594,104.053 1747.1406,104.053 C1746.0469,104.053 1744.9844,103.5999 1744.8281,103.053 C1744.6875,102.6155 1744.6875,102.6155 1744.5625,102.4749 C1744.3906,102.3186 1744.1563,102.2405 1743.9063,102.2405 C1743.6094,102.2405 1743.3438,102.3655 1743.1563,102.5842 C1743.0313,102.7561 1742.9844,102.9436 1742.9844,103.3655 L1742.9844,104.4436 C1742.9844,105.2092 1743.2969,105.5842 1743.9063,105.5842 C1744.1875,105.5842 1744.3438,105.4905 1744.625,105.2092 C1745.4844,105.6311 1746.3281,105.8186 1747.25,105.8186 C1749.6094,105.8186 1751.2188,104.6467 1751.2188,102.9124 C1751.2188,102.053 1750.875,101.3655 1750.1875,100.8342 C1749.6563,100.428 1748.9844,100.1936 1747.4844,99.9436 C1746.2031,99.6936 1746.1406,99.678 1745.8125,99.5061 C1745.4688,99.3655 1745.2344,99.0061 1745.2344,98.678 C1745.2344,98.0374 1746.0469,97.5217 1747.0781,97.5217 C1748.125,97.5217 1748.8906,97.9436 1749.0313,98.5686 C1749.1563,99.0999 1749.1563,99.0999 1749.2969,99.2405 C1749.4531,99.3967 1749.7031,99.4905 1749.9531,99.4905 C1750.25,99.4905 1750.5,99.3655 1750.6875,99.1467 C1750.8281,98.9592 1750.8594,98.8186 1750.8594,98.3655 L1750.8594,96.9124 Z " fill="#000000"/><text fill="#000000" font-family="sans-serif" font-size="14" lengthAdjust="spacing" textLength="75" x="1764" y="102.6058">QueryClient</text><rect fill="#E2E2F0" height="36" rx="2.5" ry="2.5" style="stroke:#181818;stroke-width:0.5;" width="117" x="1729" y="1180.6001"/><ellipse cx="1747" cy="1198.6001" fill="#808080" rx="11" ry="11" style="stroke:#181818;stroke-width:1.0;"/><path d="M1750.8594,1194.9126 C1750.8594,1194.4751 1750.8438,1194.3501 1750.7344,1194.1782 C1750.5781,1193.9282 1750.2813,1193.772 1749.9531,1193.772 C1749.6094,1193.772 1749.4219,1193.9126 1749.2656,1194.2876 C1748.7031,1193.9595 1747.9375,1193.772 1747.0625,1193.772 C1744.9219,1193.772 1743.3281,1195.0376 1743.3281,1196.6938 C1743.3281,1197.647 1743.875,1198.5376 1744.75,1199.0063 C1745.3125,1199.3188 1745.8438,1199.4751 1746.9844,1199.6626 C1748.1094,1199.8657 1748.375,1199.9282 1748.75,1200.1001 C1749.0938,1200.272 1749.3125,1200.5688 1749.3125,1200.8813 C1749.3125,1201.5376 1748.3594,1202.0532 1747.1406,1202.0532 C1746.0469,1202.0532 1744.9844,1201.6001 1744.8281,1201.0532 C1744.6875,1200.6157 1744.6875,1200.6157 1744.5625,1200.4751 C1744.3906,1200.3188 1744.1563,1200.2407 1743.9063,1200.2407 C1743.6094,1200.2407 1743.3438,1200.3657 1743.1563,1200.5845 C1743.0313,1200.7563 1742.9844,1200.9438 1742.9844,1201.3657 L1742.9844,1202.4438 C1742.9844,1203.2095 1743.2969,1203.5845 1743.9063,1203.5845 C1744.1875,1203.5845 1744.3438,1203.4907 1744.625,1203.2095 C1745.4844,1203.6313 1746.3281,1203.8188 1747.25,1203.8188 C1749.6094,1203.8188 1751.2188,1202.647 1751.2188,1200.9126 C1751.2188,1200.0532 1750.875,1199.3657 1750.1875,1198.8345 C1749.6563,1198.4282 1748.9844,1198.1938 1747.4844,1197.9438 C1746.2031,1197.6938 1746.1406,1197.6782 1745.8125,1197.5063 C1745.4688,1197.3657 1745.2344,1197.0063 1745.2344,1196.6782 C1745.2344,1196.0376 1746.0469,1195.522 1747.0781,1195.522 C1748.125,1195.522 1748.8906,1195.9438 1749.0313,1196.5688 C1749.1563,1197.1001 1749.1563,1197.1001 1749.2969,1197.2407 C1749.4531,1197.397 1749.7031,1197.4907 1749.9531,1197.4907 C1750.25,1197.4907 1750.5,1197.3657 1750.6875,1197.147 C1750.8281,1196.9595 1750.8594,1196.8188 1750.8594,1196.3657 L1750.8594,1194.9126 Z " fill="#000000"/><text fill="#000000" font-family="sans-serif" font-size="14" lengthAdjust="spacing" textLength="75" x="1764" y="1200.606">QueryClient</text><rect fill="#E2E2F0" height="36" rx="2.5" ry="2.5" style="stroke:#181818;stroke-width:0.5;" width="91" x="1856" y="82.5999"/><ellipse cx="1874" cy="100.5999" fill="#FFC0CB" rx="11" ry="11" style="stroke:#181818;stroke-width:1.0;"/><path d="M1869,101.7561 C1869,104.2561 1871.1406,106.0686 1874.0625,106.0686 C1875.2969,106.0686 1876.4688,105.7717 1877.2188,105.2561 C1877.8281,104.8342 1878.1563,104.4124 1878.1563,104.0061 C1878.1563,103.5374 1877.7344,103.1311 1877.2344,103.1311 C1877,103.1311 1876.7813,103.2092 1876.5781,103.4124 C1876.1406,103.8499 1876.1406,103.8499 1875.9688,103.9436 C1875.5156,104.178 1874.875,104.3186 1874.1094,104.3186 C1872.1094,104.3186 1870.8281,103.303 1870.8281,101.7249 L1870.8281,100.678 C1870.8281,98.9749 1872.0469,97.7717 1873.75,97.7717 C1874.3281,97.7717 1874.9063,97.9124 1875.375,98.1624 C1875.8438,98.428 1876.0156,98.6155 1876.0781,98.9749 C1876.2031,99.6467 1876.4531,99.8967 1876.9844,99.8967 C1877.2656,99.8967 1877.5469,99.7561 1877.7344,99.5374 C1877.8594,99.3655 1877.9063,99.1936 1877.9063,98.7561 L1877.9063,97.3967 C1877.9063,96.9749 1877.8906,96.8342 1877.7656,96.6624 C1877.5938,96.4124 1877.3125,96.2561 1876.9844,96.2561 C1876.6719,96.2561 1876.4688,96.3655 1876.25,96.6311 C1875.0781,96.1311 1874.6406,96.0217 1873.6875,96.0217 C1871.0156,96.0217 1869,98.0374 1869,100.6624 L1869,101.7561 Z " fill="#000000"/><text fill="#000000" font-family="sans-serif" font-size="14" lengthAdjust="spacing" textLength="49" x="1891" y="102.6058">Toaster</text><rect fill="#E2E2F0" height="36" rx="2.5" ry="2.5" style="stroke:#181818;stroke-width:0.5;" width="91" x="1856" y="1180.6001"/><ellipse cx="1874" cy="1198.6001" fill="#FFC0CB" rx="11" ry="11" style="stroke:#181818;stroke-width:1.0;"/><path d="M1869,1199.7563 C1869,1202.2563 1871.1406,1204.0688 1874.0625,1204.0688 C1875.2969,1204.0688 1876.4688,1203.772 1877.2188,1203.2563 C1877.8281,1202.8345 1878.1563,1202.4126 1878.1563,1202.0063 C1878.1563,1201.5376 1877.7344,1201.1313 1877.2344,1201.1313 C1877,1201.1313 1876.7813,1201.2095 1876.5781,1201.4126 C1876.1406,1201.8501 1876.1406,1201.8501 1875.9688,1201.9438 C1875.5156,1202.1782 1874.875,1202.3188 1874.1094,1202.3188 C1872.1094,1202.3188 1870.8281,1201.3032 1870.8281,1199.7251 L1870.8281,1198.6782 C1870.8281,1196.9751 1872.0469,1195.772 1873.75,1195.772 C1874.3281,1195.772 1874.9063,1195.9126 1875.375,1196.1626 C1875.8438,1196.4282 1876.0156,1196.6157 1876.0781,1196.9751 C1876.2031,1197.647 1876.4531,1197.897 1876.9844,1197.897 C1877.2656,1197.897 1877.5469,1197.7563 1877.7344,1197.5376 C1877.8594,1197.3657 1877.9063,1197.1938 1877.9063,1196.7563 L1877.9063,1195.397 C1877.9063,1194.9751 1877.8906,1194.8345 1877.7656,1194.6626 C1877.5938,1194.4126 1877.3125,1194.2563 1876.9844,1194.2563 C1876.6719,1194.2563 1876.4688,1194.3657 1876.25,1194.6313 C1875.0781,1194.1313 1874.6406,1194.022 1873.6875,1194.022 C1871.0156,1194.022 1869,1196.0376 1869,1198.6626 L1869,1199.7563 Z " fill="#000000"/><text fill="#000000" font-family="sans-serif" font-size="14" lengthAdjust="spacing" textLength="49" x="1891" y="1200.606">Toaster</text><rect fill="#FFFFFF" height="1020.4002" style="stroke:#181818;stroke-width:1.0;" width="10" x="341" y="151.1999"/><rect fill="#FFFFFF" height="961.2002" style="stroke:#181818;stroke-width:1.0;" width="10" x="501" y="210.3999"/><rect fill="#FFFFFF" height="872.4001" style="stroke:#181818;stroke-width:1.0;" width="10" x="636.5" y="299.1999"/><rect fill="#FFFFFF" height="88.8" style="stroke:#181818;stroke-width:1.0;" width="10" x="937.5" y="358.4"/><rect fill="#FFFFFF" height="588.4001" style="stroke:#181818;stroke-width:1.0;" width="10" x="1086" y="501.4"/><rect fill="#FFFFFF" height="29.6" style="stroke:#181818;stroke-width:1.0;" width="10" x="1233.5" y="560.6001"/><rect fill="#FFFFFF" height="558.8001" style="stroke:#181818;stroke-width:1.0;" width="10" x="1379.5" y="531"/><rect fill="#FFFFFF" height="470.0001" style="stroke:#181818;stroke-width:1.0;" width="10" x="1654.5" y="619.8001"/><rect fill="#FFFFFF" height="29.6" style="stroke:#181818;stroke-width:1.0;" width="10" x="1782.5" y="852.0002"/><rect fill="#FFFFFF" height="30" style="stroke:#181818;stroke-width:1.0;" width="10" x="1896.5" y="762.8002"/><rect fill="#FFFFFF" height="30" style="stroke:#181818;stroke-width:1.0;" width="10" x="1896.5" y="1044.8002"/><rect fill="#FFFFFF" height="30" style="stroke:#181818;stroke-width:1.0;" width="10" x="1896.5" y="1126.6001"/><polygon fill="#181818" points="329,147.1999,339,151.1999,329,155.1999,333,151.1999" style="stroke:#181818;stroke-width:1.0;"/><line style="stroke:#181818;stroke-width:1.0;" x1="28" x2="335" y1="151.1999" y2="151.1999"/><text fill="#000000" font-family="sans-serif" font-size="13" lengthAdjust="spacing" textLength="294" x="35" y="145.6769">Navigates to /dashboard_admin/user_management</text><polygon fill="#181818" points="1775.5,176.7999,1785.5,180.7999,1775.5,184.7999,1779.5,180.7999" style="stroke:#181818;stroke-width:1.0;"/><line style="stroke:#181818;stroke-width:1.0;" x1="351" x2="1781.5" y1="180.7999" y2="180.7999"/><text fill="#000000" font-family="sans-serif" font-size="13" lengthAdjust="spacing" textLength="123" x="358" y="175.2769">useQuery(['allUsers'])</text><polygon fill="#181818" points="489,206.3999,499,210.3999,489,214.3999,493,210.3999" style="stroke:#181818;stroke-width:1.0;"/><line style="stroke:#181818;stroke-width:1.0;" x1="351" x2="495" y1="210.3999" y2="210.3999"/><text fill="#000000" font-family="sans-serif" font-size="13" lengthAdjust="spacing" textLength="131" x="358" y="204.8769">Renders table of users</text><polygon fill="#181818" points="489,235.9999,499,239.9999,489,243.9999,493,239.9999" style="stroke:#181818;stroke-width:1.0;"/><line style="stroke:#181818;stroke-width:1.0;" x1="28" x2="495" y1="239.9999" y2="239.9999"/><text fill="#000000" font-family="sans-serif" font-size="13" lengthAdjust="spacing" textLength="181" x="35" y="234.4769">Clicks "Edit" for a specific user</text><polygon fill="#181818" points="362,265.5999,352,269.5999,362,273.5999,358,269.5999" style="stroke:#181818;stroke-width:1.0;"/><line style="stroke:#181818;stroke-width:1.0;" x1="356" x2="500" y1="269.5999" y2="269.5999"/><text fill="#000000" font-family="sans-serif" font-size="13" lengthAdjust="spacing" textLength="108" x="368" y="264.0769">onEditUser(userId)</text><polygon fill="#181818" points="624.5,295.1999,634.5,299.1999,624.5,303.1999,628.5,299.1999" style="stroke:#181818;stroke-width:1.0;"/><line style="stroke:#181818;stroke-width:1.0;" x1="351" x2="630.5" y1="299.1999" y2="299.1999"/><text fill="#000000" font-family="sans-serif" font-size="13" lengthAdjust="spacing" textLength="203" x="358" y="293.6769">Opens dialog (isOpen=true, userId)</text><polygon fill="#181818" points="1775.5,324.7999,1785.5,328.7999,1775.5,332.7999,1779.5,328.7999" style="stroke:#181818;stroke-width:1.0;"/><line style="stroke:#181818;stroke-width:1.0;" x1="646.5" x2="1781.5" y1="328.7999" y2="328.7999"/><text fill="#000000" font-family="sans-serif" font-size="13" lengthAdjust="spacing" textLength="349" x="653.5" y="323.2769">useQuery(['user', userId]) ' To get current user data for form '</text><polygon fill="#181818" points="925.5,354.4,935.5,358.4,925.5,362.4,929.5,358.4" style="stroke:#181818;stroke-width:1.0;"/><line style="stroke:#181818;stroke-width:1.0;" x1="646.5" x2="931.5" y1="358.4" y2="358.4"/><text fill="#000000" font-family="sans-serif" font-size="13" lengthAdjust="spacing" textLength="272" x="653.5" y="352.877">Renders user edit form, pre-filled with userData</text><polygon fill="#181818" points="925.5,384,935.5,388,925.5,392,929.5,388" style="stroke:#181818;stroke-width:1.0;"/><line style="stroke:#181818;stroke-width:1.0;" x1="28" x2="931.5" y1="388" y2="388"/><text fill="#000000" font-family="sans-serif" font-size="13" lengthAdjust="spacing" textLength="355" x="35" y="382.477">Modifies user details (name, email, etc., optionally password)</text><polygon fill="#181818" points="925.5,413.6,935.5,417.6,925.5,421.6,929.5,417.6" style="stroke:#181818;stroke-width:1.0;"/><line style="stroke:#181818;stroke-width:1.0;" x1="28" x2="931.5" y1="417.6" y2="417.6"/><text fill="#000000" font-family="sans-serif" font-size="13" lengthAdjust="spacing" textLength="186" x="35" y="412.077">Clicks "Save Changes" (submit)</text><polygon fill="#181818" points="657.5,443.2,647.5,447.2,657.5,451.2,653.5,447.2" style="stroke:#181818;stroke-width:1.0;"/><line style="stroke:#181818;stroke-width:1.0;" x1="651.5" x2="941.5" y1="447.2" y2="447.2"/><text fill="#000000" font-family="sans-serif" font-size="13" lengthAdjust="spacing" textLength="116" x="663.5" y="441.677">onSubmit(formData)</text><path d="M242.5,462.2 L302.5,462.2 L302.5,469.8 L292.5,479.8 L242.5,479.8 L242.5,462.2 " fill="#EEEEEE" style="stroke:#000000;stroke-width:1.5;"/><rect fill="none" height="702.4001" style="stroke:#000000;stroke-width:1.5;" width="1724.5" x="242.5" y="462.2"/><text fill="#000000" font-family="sans-serif" font-size="13" font-weight="bold" lengthAdjust="spacing" textLength="15" x="257.5" y="475.277">alt</text><text fill="#000000" font-family="sans-serif" font-size="11" font-weight="bold" lengthAdjust="spacing" textLength="86" x="317.5" y="474.4189">[User ID is valid]</text><polygon fill="#181818" points="1074,497.4,1084,501.4,1074,505.4,1078,501.4" style="stroke:#181818;stroke-width:1.0;"/><line style="stroke:#181818;stroke-width:1.0;" x1="646.5" x2="1080" y1="501.4" y2="501.4"/><text fill="#000000" font-family="sans-serif" font-size="13" lengthAdjust="spacing" textLength="238" x="653.5" y="495.877">updateUser(userId, userCreationPayload)</text><polygon fill="#181818" points="1367.5,527,1377.5,531,1367.5,535,1371.5,531" style="stroke:#181818;stroke-width:1.0;"/><line style="stroke:#181818;stroke-width:1.0;" x1="1096" x2="1373.5" y1="531" y2="531"/><text fill="#000000" font-family="sans-serif" font-size="13" lengthAdjust="spacing" textLength="237" x="1103" y="525.477">fetchJson("/users/{userId}", {PUT, body})</text><polygon fill="#181818" points="1254.5,556.6001,1244.5,560.6001,1254.5,564.6001,1250.5,560.6001" style="stroke:#181818;stroke-width:1.0;"/><line style="stroke:#181818;stroke-width:1.0;" x1="1248.5" x2="1378.5" y1="560.6001" y2="560.6001"/><text fill="#000000" font-family="sans-serif" font-size="13" lengthAdjust="spacing" textLength="62" x="1260.5" y="555.0771">getToken()</text><polygon fill="#181818" points="1367.5,586.2001,1377.5,590.2001,1367.5,594.2001,1371.5,590.2001" style="stroke:#181818;stroke-width:1.0;"/><line style="stroke:#181818;stroke-width:1.0;stroke-dasharray:2.0,2.0;" x1="1238.5" x2="1373.5" y1="590.2001" y2="590.2001"/><text fill="#000000" font-family="sans-serif" font-size="13" lengthAdjust="spacing" textLength="112" x="1245.5" y="584.6771">"admin_token_xyz"</text><polygon fill="#181818" points="1642.5,615.8001,1652.5,619.8001,1642.5,623.8001,1646.5,619.8001" style="stroke:#181818;stroke-width:1.0;"/><line style="stroke:#181818;stroke-width:1.0;" x1="1389.5" x2="1648.5" y1="619.8001" y2="619.8001"/><text fill="#000000" font-family="sans-serif" font-size="13" lengthAdjust="spacing" textLength="246" x="1396.5" y="614.2771">PUT /users/{userId} (userCreationPayload)</text><path d="M252.5,634.8001 L312.5,634.8001 L312.5,642.4001 L302.5,652.4001 L252.5,652.4001 L252.5,634.8001 " fill="#EEEEEE" style="stroke:#000000;stroke-width:1.5;"/><rect fill="none" height="448.0001" style="stroke:#000000;stroke-width:1.5;" width="1704.5" x="252.5" y="634.8001"/><text fill="#000000" font-family="sans-serif" font-size="13" font-weight="bold" lengthAdjust="spacing" textLength="15" x="267.5" y="647.8771">alt</text><text fill="#000000" font-family="sans-serif" font-size="11" font-weight="bold" lengthAdjust="spacing" textLength="148" x="327.5" y="647.019">[User updated successfully]</text><polygon fill="#181818" points="1400.5,670.0001,1390.5,674.0001,1400.5,678.0001,1396.5,674.0001" style="stroke:#181818;stroke-width:1.0;"/><line style="stroke:#181818;stroke-width:1.0;stroke-dasharray:2.0,2.0;" x1="1394.5" x2="1653.5" y1="674.0001" y2="674.0001"/><text fill="#000000" font-family="sans-serif" font-size="13" lengthAdjust="spacing" textLength="143" x="1406.5" y="668.4771">HTTP 200 OK (UserInfo)</text><polygon fill="#181818" points="1107,699.6001,1097,703.6001,1107,707.6001,1103,703.6001" style="stroke:#181818;stroke-width:1.0;"/><line style="stroke:#181818;stroke-width:1.0;stroke-dasharray:2.0,2.0;" x1="1101" x2="1378.5" y1="703.6001" y2="703.6001"/><text fill="#000000" font-family="sans-serif" font-size="13" lengthAdjust="spacing" textLength="49" x="1113" y="698.0771">UserInfo</text><polygon fill="#181818" points="657.5,729.2001,647.5,733.2001,657.5,737.2001,653.5,733.2001" style="stroke:#181818;stroke-width:1.0;"/><line style="stroke:#181818;stroke-width:1.0;stroke-dasharray:2.0,2.0;" x1="651.5" x2="1085" y1="733.2001" y2="733.2001"/><text fill="#000000" font-family="sans-serif" font-size="13" lengthAdjust="spacing" textLength="49" x="663.5" y="727.6771">UserInfo</text><polygon fill="#181818" points="1884.5,758.8002,1894.5,762.8002,1884.5,766.8002,1888.5,762.8002" style="stroke:#181818;stroke-width:1.0;"/><line style="stroke:#181818;stroke-width:1.0;" x1="646.5" x2="1890.5" y1="762.8002" y2="762.8002"/><text fill="#000000" font-family="sans-serif" font-size="13" lengthAdjust="spacing" textLength="258" x="653.5" y="757.2772">toast.success("User updated successfully!")</text><polygon fill="#181818" points="1775.5,818.4002,1785.5,822.4002,1775.5,826.4002,1779.5,822.4002" style="stroke:#181818;stroke-width:1.0;"/><line style="stroke:#181818;stroke-width:1.0;" x1="646.5" x2="1781.5" y1="822.4002" y2="822.4002"/><text fill="#000000" font-family="sans-serif" font-size="13" lengthAdjust="spacing" textLength="238" x="653.5" y="816.8772">invalidateQueries({queryKey: ['allUsers']})</text><polygon fill="#181818" points="1770.5,848.0002,1780.5,852.0002,1770.5,856.0002,1774.5,852.0002" style="stroke:#181818;stroke-width:1.0;"/><line style="stroke:#181818;stroke-width:1.0;" x1="646.5" x2="1776.5" y1="852.0002" y2="852.0002"/><text fill="#000000" font-family="sans-serif" font-size="13" lengthAdjust="spacing" textLength="260" x="653.5" y="846.4772">invalidateQueries({queryKey: ['user', userId]})</text><polygon fill="#181818" points="362,877.6002,352,881.6002,362,885.6002,358,881.6002" style="stroke:#181818;stroke-width:1.0;"/><line style="stroke:#181818;stroke-width:1.0;" x1="356" x2="1786.5" y1="881.6002" y2="881.6002"/><text fill="#000000" font-family="sans-serif" font-size="13" lengthAdjust="spacing" textLength="163" x="368" y="876.0772">Triggers refetch of users list</text><polygon fill="#181818" points="362,907.2002,352,911.2002,362,915.2002,358,911.2002" style="stroke:#181818;stroke-width:1.0;"/><line style="stroke:#181818;stroke-width:1.0;" x1="356" x2="635.5" y1="911.2002" y2="911.2002"/><text fill="#000000" font-family="sans-serif" font-size="13" lengthAdjust="spacing" textLength="215" x="368" y="905.6772">Closes dialog (onOpenChange(false))</text><line style="stroke:#000000;stroke-width:1.0;stroke-dasharray:2.0,2.0;" x1="252.5" x2="1957" y1="920.2002" y2="920.2002"/><text fill="#000000" font-family="sans-serif" font-size="11" font-weight="bold" lengthAdjust="spacing" textLength="111" x="257.5" y="930.4191">[Error updating user]</text><polygon fill="#181818" points="1400.5,952.0001,1390.5,956.0001,1400.5,960.0001,1396.5,956.0001" style="stroke:#181818;stroke-width:1.0;"/><line style="stroke:#181818;stroke-width:1.0;stroke-dasharray:2.0,2.0;" x1="1394.5" x2="1653.5" y1="956.0001" y2="956.0001"/><text fill="#000000" font-family="sans-serif" font-size="13" lengthAdjust="spacing" textLength="66" x="1406.5" y="950.4771">HTTP Error</text><polygon fill="#181818" points="1107,981.6001,1097,985.6001,1107,989.6001,1103,985.6001" style="stroke:#181818;stroke-width:1.0;"/><line style="stroke:#181818;stroke-width:1.0;" x1="1101" x2="1378.5" y1="985.6001" y2="985.6001"/><text fill="#000000" font-family="sans-serif" font-size="13" lengthAdjust="spacing" textLength="70" x="1113" y="980.0771">throws Error</text><polygon fill="#181818" points="657.5,1011.2002,647.5,1015.2002,657.5,1019.2002,653.5,1015.2002" style="stroke:#181818;stroke-width:1.0;"/><line style="stroke:#181818;stroke-width:1.0;stroke-dasharray:2.0,2.0;" x1="651.5" x2="1085" y1="1015.2002" y2="1015.2002"/><text fill="#000000" font-family="sans-serif" font-size="13" lengthAdjust="spacing" textLength="70" x="663.5" y="1009.6772">throws Error</text><polygon fill="#181818" points="1884.5,1040.8002,1894.5,1044.8002,1884.5,1048.8002,1888.5,1044.8002" style="stroke:#181818;stroke-width:1.0;"/><line style="stroke:#181818;stroke-width:1.0;" x1="646.5" x2="1890.5" y1="1044.8002" y2="1044.8002"/><text fill="#000000" font-family="sans-serif" font-size="13" lengthAdjust="spacing" textLength="211" x="653.5" y="1039.2772">toast.error("Failed to update user...")</text><line style="stroke:#000000;stroke-width:1.0;stroke-dasharray:2.0,2.0;" x1="242.5" x2="1967" y1="1090.8002" y2="1090.8002"/><text fill="#000000" font-family="sans-serif" font-size="11" font-weight="bold" lengthAdjust="spacing" textLength="291" x="247.5" y="1101.0191">[User ID missing (should not happen with dialog flow)]</text><polygon fill="#181818" points="1884.5,1122.6001,1894.5,1126.6001,1884.5,1130.6001,1888.5,1126.6001" style="stroke:#181818;stroke-width:1.0;"/><line style="stroke:#181818;stroke-width:1.0;" x1="646.5" x2="1890.5" y1="1126.6001" y2="1126.6001"/><text fill="#000000" font-family="sans-serif" font-size="13" lengthAdjust="spacing" textLength="280" x="653.5" y="1121.0771">toast.error("Cannot update: User ID is missing.")</text><!--SRC=[hLRVRzis47xNNt7JYoN0SOez6bs0p6ash-tg9VRJLWIqHCj4AT8bgQHUaFzzTwHaIxAIjC0UWfZ7xxxxVPGJJd9OpUv-uzO9hPXPsOePeUtiPdLrcPT2GV8k5uuPg6_IATpohnLN6OShmGh3oYXYcTC6OgyG0xFWVwqiDz6E6ISoiMFArG0IVn3MBLZ1FRWjWBTlavknDjbMvEd5HLUTW7R9rlAe5uwhEUdDnb8KMrSOlXzKfK3GPQcBW_fHzFqKrzgK7G8IlAvU8VfkpR8lNEKJP_zHrIvdZXD9aXxuVWq08hiUxxcK-k64wR9osuzCORPCI3QT2qCwjy61jQpugGDEIEijRxZBjdzOhMh3rtHUuNKmgmrJnQb-xThbOXwiBkR1ejCbS_e4_bV5pNuc1LVEurlde3UOfQLcrjLnrRz3OdT2VI5qTEWXEBlejiuK_cJtei2aMd0QpdDcjslDJ7x7IEVSLw3qYIlH2-fQSO_e3alKeKGJRR-dW1nUaFmzObBw3XnzJgCHJ2OJ-A1P3YWcbB5UD3hXwtJj56umfGHs906z2RfTtnhuGF0j9lGn-s8XffQCOOC3oS3kU2Os8lEiKKVXD7jQaQflI8BFytJG-SxCJE7JZYiBkHT08YoTVt6cucDeM3h1jDMZw8JmfOmJtwYX_Pp225i42kuWgumXDDq0JXNpuUDVYGLerQQJZW0y5gdlHc-yZwNooXnll8Knx0m_smWfUGuFmctz_HLodyOTg0RAsB7pKUVe9AyDvTmn75n852infxp44_vpsMGCUkUtjfHxs35h7xJ1RBzCtdJ9BRldCDlIfDiO4bkjI-7Ig8SVBhbMjnwUKFmKQHhb_DbWcNHU1lCh41RkcHHv1F1SofiDY9K_BiXGyb3wcU6CmbwmlSIYfiZLiLqJr2OQEcG_hhaf75TWxFU2FNyCDfxYCJmkLiinh7M-V-gm7mXGU2H3vcO3JwaRbneD9Xt5-Xv53VAivq_iLzIT8zsxR_j_OyIsSdeawDfTK3dGM-W50SbhcK9LEZQr2Rd62QcoZ5kxgR2dy1wyYRwplo-N2_ZvpHluz1uIKf-hZKuzlENUIJqRf0TsQZFSPWVyGQ7VByqBCSLzZxycjVT9_6nCFyN1pqCUQWelR2My4JzhkhkaXF9jZPeanzbD7hyIu3tVJw7zL3ob_mzZTnK-zO9gKVcBDlNftbyQKHIqs0ptOt5uXK0Yg9-PFlTpSzmoC9FQykCReHMz4M7t91icBK_9Vuu_u9qnkgwSK4LujbviGw_GRxr-vxcjqG-sXVsExXlKUQq1EQ6J-1ftD3OUVeI47lHnu4lpWys7EV5xhBq8_DYs1EsTr5l2pIBqYMqsS2cifSmcTgihcOFI3hPiXmK9ZrTTf0rzU4O_5FICAI8B4K_RAx-s6S8VY78WTF9xu4qvV3ZqxWvVI3rvquJ_0G00]--></g></svg>