<?xml version="1.0" encoding="us-ascii" standalone="no"?><svg xmlns="http://www.w3.org/2000/svg" xmlns:xlink="http://www.w3.org/1999/xlink" contentStyleType="text/css" height="839px" preserveAspectRatio="none" style="width:1026px;height:839px;background:#FFFFFF;" version="1.1" viewBox="0 0 1026 839" width="1026px" zoomAndPan="magnify"><defs/><g><text fill="#000000" font-family="sans-serif" font-size="14" font-weight="bold" lengthAdjust="spacing" textLength="456" x="283.5" y="33.0059">UC_VerInscribirseCategoriasUsuario (Inscribirse): Activity Diagram</text><ellipse cx="613.125" cy="57.7999" fill="#222222" rx="10" ry="10" style="stroke:#222222;stroke-width:1.0;"/><rect fill="#F1F1F1" height="34.4001" rx="12.5" ry="12.5" style="stroke:#181818;stroke-width:0.5;" width="317" x="454.625" y="87.7999"/><text fill="#000000" font-family="sans-serif" font-size="12" lengthAdjust="spacing" textLength="297" x="464.625" y="108.948">Usuario navega a la p&#225;gina de Categor&#237;as del Usuario</text><rect fill="#F1F1F1" height="77.6004" rx="12.5" ry="12.5" style="stroke:#181818;stroke-width:0.5;" width="307" x="459.625" y="142.2"/><text fill="#000000" font-family="sans-serif" font-size="12" lengthAdjust="spacing" textLength="81" x="469.625" y="163.3481">Sistema carga:</text><text fill="#000000" font-family="sans-serif" font-size="12" lengthAdjust="spacing" textLength="186" x="475.625" y="177.7482">- Todas las categor&#237;as disponibles</text><text fill="#000000" font-family="sans-serif" font-size="12" lengthAdjust="spacing" textLength="281" x="475.625" y="192.1483">- Las categor&#237;as a las que el usuario ya est&#225; inscrito</text><text fill="#000000" font-family="sans-serif" font-size="12" lengthAdjust="spacing" textLength="184" x="475.625" y="206.5484">- Los requisitos de cada categor&#237;a</text><rect fill="#F1F1F1" height="48.8002" rx="12.5" ry="12.5" style="stroke:#181818;stroke-width:0.5;" width="400" x="413.125" y="239.8004"/><text fill="#000000" font-family="sans-serif" font-size="12" lengthAdjust="spacing" textLength="176" x="423.125" y="260.9485">Para cada categor&#237;a NO inscrita:</text><text fill="#000000" font-family="sans-serif" font-size="12" lengthAdjust="spacing" textLength="374" x="429.125" y="275.3486">:Sistema verifica la elegibilidad del usuario (llamada al Backend API)</text><rect fill="#F1F1F1" height="63.2003" rx="12.5" ry="12.5" style="stroke:#181818;stroke-width:0.5;" width="546" x="340.125" y="308.6006"/><text fill="#000000" font-family="sans-serif" font-size="12" lengthAdjust="spacing" textLength="94" x="350.125" y="329.7487">Sistema muestra:</text><text fill="#000000" font-family="sans-serif" font-size="12" lengthAdjust="spacing" textLength="520" x="356.125" y="344.1488">- Lista de "Categor&#237;as Disponibles" (con estado de elegibilidad y bot&#243;n "Registrarse" si elegible)</text><text fill="#000000" font-family="sans-serif" font-size="12" lengthAdjust="spacing" textLength="204" x="356.125" y="358.5489">- Lista de "Mis Categor&#237;as Asignadas"</text><polygon fill="#F1F1F1" points="481.125,391.8009,745.125,391.8009,757.125,403.8009,745.125,415.8009,481.125,415.8009,469.125,403.8009,481.125,391.8009" style="stroke:#181818;stroke-width:0.5;"/><text fill="#000000" font-family="sans-serif" font-size="11" lengthAdjust="spacing" textLength="264" x="481.125" y="407.4199">Usuario encuentra una Categor&#237;a Disponible y Elegible</text><text fill="#000000" font-family="sans-serif" font-size="11" lengthAdjust="spacing" textLength="9" x="460.125" y="400.82">s&#237;</text><text fill="#000000" font-family="sans-serif" font-size="11" lengthAdjust="spacing" textLength="12" x="757.125" y="400.82">no</text><rect fill="#F1F1F1" height="34.4001" rx="12.5" ry="12.5" style="stroke:#181818;stroke-width:0.5;" width="310" x="226.75" y="425.8009"/><text fill="#000000" font-family="sans-serif" font-size="12" lengthAdjust="spacing" textLength="290" x="236.75" y="446.949">Usuario hace clic en "Registrarse" para esa categor&#237;a</text><rect fill="#F1F1F1" height="48.8002" rx="12.5" ry="12.5" style="stroke:#181818;stroke-width:0.5;" width="369" x="197.25" y="480.201"/><text fill="#000000" font-family="sans-serif" font-size="12" lengthAdjust="spacing" textLength="349" x="207.25" y="501.3491">Sistema env&#237;a solicitud de registro a la categor&#237;a al Backend API</text><text fill="#000000" font-family="sans-serif" font-size="12" lengthAdjust="spacing" textLength="141" x="207.25" y="515.7492">(ID Categor&#237;a, ID Usuario)</text><polygon fill="#F1F1F1" points="308.25,549.0012,455.25,549.0012,467.25,561.0012,455.25,573.0012,308.25,573.0012,296.25,561.0012,308.25,549.0012" style="stroke:#181818;stroke-width:0.5;"/><text fill="#000000" font-family="sans-serif" font-size="11" lengthAdjust="spacing" textLength="147" x="308.25" y="564.6202">Registro Exitoso en Backend?</text><text fill="#000000" font-family="sans-serif" font-size="11" lengthAdjust="spacing" textLength="9" x="287.25" y="558.0203">s&#237;</text><text fill="#000000" font-family="sans-serif" font-size="11" lengthAdjust="spacing" textLength="106" x="467.25" y="558.0203">no - error en backend</text><rect fill="#F1F1F1" height="34.4001" rx="12.5" ry="12.5" style="stroke:#181818;stroke-width:0.5;" width="415" x="11" y="583.0012"/><text fill="#000000" font-family="sans-serif" font-size="12" lengthAdjust="spacing" textLength="395" x="21" y="604.1493">Backend API inscribe al usuario en la categor&#237;a (nivel inicial BEGGINER)</text><rect fill="#F1F1F1" height="34.4001" rx="12.5" ry="12.5" style="stroke:#181818;stroke-width:0.5;" width="198" x="119.5" y="637.4013"/><text fill="#000000" font-family="sans-serif" font-size="12" lengthAdjust="spacing" textLength="178" x="129.5" y="658.5494">Mostrar mensaje de &#233;xito (Toast)</text><rect fill="#F1F1F1" height="34.4001" rx="12.5" ry="12.5" style="stroke:#181818;stroke-width:0.5;" width="323" x="57" y="691.8014"/><text fill="#000000" font-family="sans-serif" font-size="12" lengthAdjust="spacing" textLength="303" x="67" y="712.9495">Actualizar listas de Categor&#237;as Disponibles y Asignadas</text><rect fill="#F1F1F1" height="34.4001" rx="12.5" ry="12.5" style="stroke:#181818;stroke-width:0.5;" width="161" x="464.5" y="583.0012"/><text fill="#000000" font-family="sans-serif" font-size="12" lengthAdjust="spacing" textLength="141" x="474.5" y="604.1493">Backend API retorna error</text><rect fill="#F1F1F1" height="34.4001" rx="12.5" ry="12.5" style="stroke:#181818;stroke-width:0.5;" width="198" x="446" y="637.4013"/><text fill="#000000" font-family="sans-serif" font-size="12" lengthAdjust="spacing" textLength="178" x="456" y="658.5494">Mostrar mensaje de error (Toast)</text><polygon fill="#F1F1F1" points="381.75,732.2015,393.75,744.2015,381.75,756.2015,369.75,744.2015,381.75,732.2015" style="stroke:#181818;stroke-width:0.5;"/><rect fill="#F1F1F1" height="34.4001" rx="12.5" ry="12.5" style="stroke:#181818;stroke-width:0.5;" width="341" x="674" y="425.8009"/><text fill="#000000" font-family="sans-serif" font-size="12" lengthAdjust="spacing" textLength="321" x="684" y="446.949">Usuario revisa otras categor&#237;as o sus categor&#237;as asignadas</text><polygon fill="#F1F1F1" points="613.125,762.2015,625.125,774.2015,613.125,786.2015,601.125,774.2015,613.125,762.2015" style="stroke:#181818;stroke-width:0.5;"/><ellipse cx="613.125" cy="817.2015" fill="none" rx="11" ry="11" style="stroke:#222222;stroke-width:1.0;"/><ellipse cx="613.125" cy="817.2015" fill="#222222" rx="6" ry="6" style="stroke:#222222;stroke-width:1.0;"/><line style="stroke:#181818;stroke-width:1.0;" x1="613.125" x2="613.125" y1="67.7999" y2="87.7999"/><polygon fill="#181818" points="609.125,77.7999,613.125,87.7999,617.125,77.7999,613.125,81.7999" style="stroke:#181818;stroke-width:1.0;"/><line style="stroke:#181818;stroke-width:1.0;" x1="613.125" x2="613.125" y1="122.2" y2="142.2"/><polygon fill="#181818" points="609.125,132.2,613.125,142.2,617.125,132.2,613.125,136.2" style="stroke:#181818;stroke-width:1.0;"/><line style="stroke:#181818;stroke-width:1.0;" x1="613.125" x2="613.125" y1="219.8004" y2="239.8004"/><polygon fill="#181818" points="609.125,229.8004,613.125,239.8004,617.125,229.8004,613.125,233.8004" style="stroke:#181818;stroke-width:1.0;"/><line style="stroke:#181818;stroke-width:1.0;" x1="613.125" x2="613.125" y1="288.6006" y2="308.6006"/><polygon fill="#181818" points="609.125,298.6006,613.125,308.6006,617.125,298.6006,613.125,302.6006" style="stroke:#181818;stroke-width:1.0;"/><line style="stroke:#181818;stroke-width:1.0;" x1="381.75" x2="381.75" y1="460.201" y2="480.201"/><polygon fill="#181818" points="377.75,470.201,381.75,480.201,385.75,470.201,381.75,474.201" style="stroke:#181818;stroke-width:1.0;"/><line style="stroke:#181818;stroke-width:1.0;" x1="218.5" x2="218.5" y1="617.4013" y2="637.4013"/><polygon fill="#181818" points="214.5,627.4013,218.5,637.4013,222.5,627.4013,218.5,631.4013" style="stroke:#181818;stroke-width:1.0;"/><line style="stroke:#181818;stroke-width:1.0;" x1="218.5" x2="218.5" y1="671.8014" y2="691.8014"/><polygon fill="#181818" points="214.5,681.8014,218.5,691.8014,222.5,681.8014,218.5,685.8014" style="stroke:#181818;stroke-width:1.0;"/><line style="stroke:#181818;stroke-width:1.0;" x1="545" x2="545" y1="617.4013" y2="637.4013"/><polygon fill="#181818" points="541,627.4013,545,637.4013,549,627.4013,545,631.4013" style="stroke:#181818;stroke-width:1.0;"/><line style="stroke:#181818;stroke-width:1.0;" x1="296.25" x2="218.5" y1="561.0012" y2="561.0012"/><line style="stroke:#181818;stroke-width:1.0;" x1="218.5" x2="218.5" y1="561.0012" y2="583.0012"/><polygon fill="#181818" points="214.5,573.0012,218.5,583.0012,222.5,573.0012,218.5,577.0012" style="stroke:#181818;stroke-width:1.0;"/><line style="stroke:#181818;stroke-width:1.0;" x1="467.25" x2="545" y1="561.0012" y2="561.0012"/><line style="stroke:#181818;stroke-width:1.0;" x1="545" x2="545" y1="561.0012" y2="583.0012"/><polygon fill="#181818" points="541,573.0012,545,583.0012,549,573.0012,545,577.0012" style="stroke:#181818;stroke-width:1.0;"/><line style="stroke:#181818;stroke-width:1.0;" x1="218.5" x2="218.5" y1="726.2015" y2="744.2015"/><line style="stroke:#181818;stroke-width:1.0;" x1="218.5" x2="369.75" y1="744.2015" y2="744.2015"/><polygon fill="#181818" points="359.75,740.2015,369.75,744.2015,359.75,748.2015,363.75,744.2015" style="stroke:#181818;stroke-width:1.0;"/><line style="stroke:#181818;stroke-width:1.0;" x1="545" x2="545" y1="671.8014" y2="744.2015"/><line style="stroke:#181818;stroke-width:1.0;" x1="545" x2="393.75" y1="744.2015" y2="744.2015"/><polygon fill="#181818" points="403.75,740.2015,393.75,744.2015,403.75,748.2015,399.75,744.2015" style="stroke:#181818;stroke-width:1.0;"/><line style="stroke:#181818;stroke-width:1.0;" x1="381.75" x2="381.75" y1="529.0012" y2="549.0012"/><polygon fill="#181818" points="377.75,539.0012,381.75,549.0012,385.75,539.0012,381.75,543.0012" style="stroke:#181818;stroke-width:1.0;"/><line style="stroke:#181818;stroke-width:1.0;" x1="469.125" x2="381.75" y1="403.8009" y2="403.8009"/><line style="stroke:#181818;stroke-width:1.0;" x1="381.75" x2="381.75" y1="403.8009" y2="425.8009"/><polygon fill="#181818" points="377.75,415.8009,381.75,425.8009,385.75,415.8009,381.75,419.8009" style="stroke:#181818;stroke-width:1.0;"/><line style="stroke:#181818;stroke-width:1.0;" x1="757.125" x2="844.5" y1="403.8009" y2="403.8009"/><line style="stroke:#181818;stroke-width:1.0;" x1="844.5" x2="844.5" y1="403.8009" y2="425.8009"/><polygon fill="#181818" points="840.5,415.8009,844.5,425.8009,848.5,415.8009,844.5,419.8009" style="stroke:#181818;stroke-width:1.0;"/><line style="stroke:#181818;stroke-width:1.0;" x1="381.75" x2="381.75" y1="756.2015" y2="774.2015"/><line style="stroke:#181818;stroke-width:1.0;" x1="381.75" x2="601.125" y1="774.2015" y2="774.2015"/><polygon fill="#181818" points="591.125,770.2015,601.125,774.2015,591.125,778.2015,595.125,774.2015" style="stroke:#181818;stroke-width:1.0;"/><line style="stroke:#181818;stroke-width:1.0;" x1="844.5" x2="844.5" y1="460.201" y2="774.2015"/><line style="stroke:#181818;stroke-width:1.0;" x1="844.5" x2="625.125" y1="774.2015" y2="774.2015"/><polygon fill="#181818" points="635.125,770.2015,625.125,774.2015,635.125,778.2015,631.125,774.2015" style="stroke:#181818;stroke-width:1.0;"/><line style="stroke:#181818;stroke-width:1.0;" x1="613.125" x2="613.125" y1="371.8009" y2="391.8009"/><polygon fill="#181818" points="609.125,381.8009,613.125,391.8009,617.125,381.8009,613.125,385.8009" style="stroke:#181818;stroke-width:1.0;"/><line style="stroke:#181818;stroke-width:1.0;" x1="613.125" x2="613.125" y1="786.2015" y2="806.2015"/><polygon fill="#181818" points="609.125,796.2015,613.125,806.2015,617.125,796.2015,613.125,800.2015" style="stroke:#181818;stroke-width:1.0;"/><!--SRC=[TLD1Rjim4Bph5GkVPA3zW7CetDW832Hfu2Oz5IZMqbhPbYOTBYNK_KsEFUJK9-XZNSgIJGljGGUHkpEpCyl0mH0yNN_xGdvbfV2yOIzqZO4gvndbIMhqx21FRgSpc1U16mu7M31M7dTP9W5zo6P3lSM6AWG4Wx1lNoks22L13zo-eUYlWRxyAfjzPWcqGoZGLpZB0Dx3eokrpEXNf6qiUsTvOqYwgjlHFNOTBpM1ujUzd0C2IMXVWRinWZksEW5FBpMBdaH12bHYWgQw7j3Z-1ZkFmr0dTIJ-8OyRxdefYP3bVfbkCIoctNGaXk3kmY81ZvYyODi2VE7rJGnOLUhMj_RSAk7dNcJrBt5sOO9v8MpSK0iNIoye3x0neNsZuN9MayZh4Ou0U6-pD1qH7F7SX7KNBYoAbWcLrd6MyY7aCaMDLb5X5hZFRSaufH-ET10U2OBkRHlaV6qAizOgF662yKRYTn7yqak8qdy9jj4Ed7QpQ6EFckW7O0xxbuIsgNTNss-MYIQtu7-zfAcaIGEkXwmbZ_ZXiI91umFet5KLOBUhyU68cjzickaABVSw6AmLVLHtVBcPdM_N7VqYdVdEYDWHrRmEyNXsjzH2EIF3YKCTVeOQpJyIqjD3576BotP5StZ56Ti9oEaEfmk07dlV1IvESxnZway1USrwgxq_ogFI8b8xUTjDd1TfE-fOGtOASRbEtOWzUXbduKV0IMu_Ly0]--></g></svg>