<?xml version="1.0" encoding="us-ascii" standalone="no"?><svg xmlns="http://www.w3.org/2000/svg" xmlns:xlink="http://www.w3.org/1999/xlink" contentStyleType="text/css" height="727px" preserveAspectRatio="none" style="width:924px;height:727px;background:#FFFFFF;" version="1.1" viewBox="0 0 924 727" width="924px" zoomAndPan="magnify"><defs/><g><text fill="#000000" font-family="sans-serif" font-size="14" font-weight="bold" lengthAdjust="spacing" textLength="490" x="215.5" y="33.0059">UC_VerInscribirseEntrenamientosUsuario (Inscribirse): Activity Diagram</text><ellipse cx="553.25" cy="57.7999" fill="#222222" rx="10" ry="10" style="stroke:#222222;stroke-width:1.0;"/><rect fill="#F1F1F1" height="34.4001" rx="12.5" ry="12.5" style="stroke:#181818;stroke-width:0.5;" width="343" x="381.75" y="87.7999"/><text fill="#000000" font-family="sans-serif" font-size="12" lengthAdjust="spacing" textLength="323" x="391.75" y="108.948">Usuario navega a la p&#225;gina de Entrenamientos del Usuario</text><rect fill="#F1F1F1" height="63.2003" rx="12.5" ry="12.5" style="stroke:#181818;stroke-width:0.5;" width="334" x="386.25" y="142.2"/><text fill="#000000" font-family="sans-serif" font-size="12" lengthAdjust="spacing" textLength="137" x="396.25" y="163.3481">Sistema carga y muestra:</text><text fill="#000000" font-family="sans-serif" font-size="12" lengthAdjust="spacing" textLength="147" x="402.25" y="177.7482">- Entrenamientos Elegibles</text><text fill="#000000" font-family="sans-serif" font-size="12" lengthAdjust="spacing" textLength="308" x="402.25" y="192.1483">- Entrenamientos Registrados (con estado de asistencia)</text><rect fill="#F1F1F1" height="34.4001" rx="12.5" ry="12.5" style="stroke:#181818;stroke-width:0.5;" width="263" x="421.75" y="225.4003"/><text fill="#000000" font-family="sans-serif" font-size="12" lengthAdjust="spacing" textLength="243" x="431.75" y="246.5484">Usuario identifica un Entrenamiento Elegible</text><rect fill="#F1F1F1" height="34.4001" rx="12.5" ry="12.5" style="stroke:#181818;stroke-width:0.5;" width="338" x="384.25" y="279.8004"/><text fill="#000000" font-family="sans-serif" font-size="12" lengthAdjust="spacing" textLength="318" x="394.25" y="300.9485">Usuario hace clic en "Registrarse" para ese entrenamiento</text><polygon fill="#F1F1F1" points="479.75,334.2005,626.75,334.2005,638.75,346.2005,626.75,358.2005,479.75,358.2005,467.75,346.2005,479.75,334.2005" style="stroke:#181818;stroke-width:0.5;"/><text fill="#000000" font-family="sans-serif" font-size="11" lengthAdjust="spacing" textLength="147" x="479.75" y="349.8195">Usuario autenticado y con ID?</text><text fill="#000000" font-family="sans-serif" font-size="11" lengthAdjust="spacing" textLength="9" x="458.75" y="343.2196">s&#237;</text><text fill="#000000" font-family="sans-serif" font-size="11" lengthAdjust="spacing" textLength="12" x="638.75" y="343.2196">no</text><rect fill="#F1F1F1" height="48.8002" rx="12.5" ry="12.5" style="stroke:#181818;stroke-width:0.5;" width="292" x="194.5" y="368.2005"/><text fill="#000000" font-family="sans-serif" font-size="12" lengthAdjust="spacing" textLength="272" x="204.5" y="389.3486">Sistema env&#237;a solicitud de registro al Backend API</text><text fill="#000000" font-family="sans-serif" font-size="12" lengthAdjust="spacing" textLength="167" x="204.5" y="403.7487">(ID Entrenamiento, ID Usuario)</text><polygon fill="#F1F1F1" points="267,437.0007,414,437.0007,426,449.0007,414,461.0007,267,461.0007,255,449.0007,267,437.0007" style="stroke:#181818;stroke-width:0.5;"/><text fill="#000000" font-family="sans-serif" font-size="11" lengthAdjust="spacing" textLength="147" x="267" y="452.6197">Registro Exitoso en Backend?</text><text fill="#000000" font-family="sans-serif" font-size="11" lengthAdjust="spacing" textLength="9" x="246" y="446.0198">s&#237;</text><text fill="#000000" font-family="sans-serif" font-size="11" lengthAdjust="spacing" textLength="127" x="426" y="446.0198">no - no elegible, error, etc.</text><rect fill="#F1F1F1" height="34.4001" rx="12.5" ry="12.5" style="stroke:#181818;stroke-width:0.5;" width="360" x="11" y="471.0007"/><text fill="#000000" font-family="sans-serif" font-size="12" lengthAdjust="spacing" textLength="340" x="21" y="492.1488">Backend API confirma registro y retorna datos de la inscripci&#243;n</text><rect fill="#F1F1F1" height="34.4001" rx="12.5" ry="12.5" style="stroke:#181818;stroke-width:0.5;" width="198" x="92" y="525.4008"/><text fill="#000000" font-family="sans-serif" font-size="12" lengthAdjust="spacing" textLength="178" x="102" y="546.5489">Mostrar mensaje de &#233;xito (Toast)</text><rect fill="#F1F1F1" height="34.4001" rx="12.5" ry="12.5" style="stroke:#181818;stroke-width:0.5;" width="337" x="22.5" y="579.8009"/><text fill="#000000" font-family="sans-serif" font-size="12" lengthAdjust="spacing" textLength="317" x="32.5" y="600.949">Actualizar lista de Entrenamientos Elegibles y Registrados</text><rect fill="#F1F1F1" height="34.4001" rx="12.5" ry="12.5" style="stroke:#181818;stroke-width:0.5;" width="161" x="409.5" y="471.0007"/><text fill="#000000" font-family="sans-serif" font-size="12" lengthAdjust="spacing" textLength="141" x="419.5" y="492.1488">Backend API retorna error</text><rect fill="#F1F1F1" height="34.4001" rx="12.5" ry="12.5" style="stroke:#181818;stroke-width:0.5;" width="198" x="391" y="525.4008"/><text fill="#000000" font-family="sans-serif" font-size="12" lengthAdjust="spacing" textLength="178" x="401" y="546.5489">Mostrar mensaje de error (Toast)</text><polygon fill="#F1F1F1" points="340.5,620.201,352.5,632.201,340.5,644.201,328.5,632.201,340.5,620.201" style="stroke:#181818;stroke-width:0.5;"/><rect fill="#F1F1F1" height="34.4001" rx="12.5" ry="12.5" style="stroke:#181818;stroke-width:0.5;" width="294" x="619" y="368.2005"/><text fill="#000000" font-family="sans-serif" font-size="12" lengthAdjust="spacing" textLength="274" x="629" y="389.3486">Mostrar mensaje de error "Usuario no identificado"</text><polygon fill="#F1F1F1" points="553.25,650.201,565.25,662.201,553.25,674.201,541.25,662.201,553.25,650.201" style="stroke:#181818;stroke-width:0.5;"/><ellipse cx="553.25" cy="705.201" fill="none" rx="11" ry="11" style="stroke:#222222;stroke-width:1.0;"/><ellipse cx="553.25" cy="705.201" fill="#222222" rx="6" ry="6" style="stroke:#222222;stroke-width:1.0;"/><line style="stroke:#181818;stroke-width:1.0;" x1="553.25" x2="553.25" y1="67.7999" y2="87.7999"/><polygon fill="#181818" points="549.25,77.7999,553.25,87.7999,557.25,77.7999,553.25,81.7999" style="stroke:#181818;stroke-width:1.0;"/><line style="stroke:#181818;stroke-width:1.0;" x1="553.25" x2="553.25" y1="122.2" y2="142.2"/><polygon fill="#181818" points="549.25,132.2,553.25,142.2,557.25,132.2,553.25,136.2" style="stroke:#181818;stroke-width:1.0;"/><line style="stroke:#181818;stroke-width:1.0;" x1="553.25" x2="553.25" y1="205.4003" y2="225.4003"/><polygon fill="#181818" points="549.25,215.4003,553.25,225.4003,557.25,215.4003,553.25,219.4003" style="stroke:#181818;stroke-width:1.0;"/><line style="stroke:#181818;stroke-width:1.0;" x1="553.25" x2="553.25" y1="259.8004" y2="279.8004"/><polygon fill="#181818" points="549.25,269.8004,553.25,279.8004,557.25,269.8004,553.25,273.8004" style="stroke:#181818;stroke-width:1.0;"/><line style="stroke:#181818;stroke-width:1.0;" x1="191" x2="191" y1="505.4008" y2="525.4008"/><polygon fill="#181818" points="187,515.4008,191,525.4008,195,515.4008,191,519.4008" style="stroke:#181818;stroke-width:1.0;"/><line style="stroke:#181818;stroke-width:1.0;" x1="191" x2="191" y1="559.8009" y2="579.8009"/><polygon fill="#181818" points="187,569.8009,191,579.8009,195,569.8009,191,573.8009" style="stroke:#181818;stroke-width:1.0;"/><line style="stroke:#181818;stroke-width:1.0;" x1="490" x2="490" y1="505.4008" y2="525.4008"/><polygon fill="#181818" points="486,515.4008,490,525.4008,494,515.4008,490,519.4008" style="stroke:#181818;stroke-width:1.0;"/><line style="stroke:#181818;stroke-width:1.0;" x1="255" x2="191" y1="449.0007" y2="449.0007"/><line style="stroke:#181818;stroke-width:1.0;" x1="191" x2="191" y1="449.0007" y2="471.0007"/><polygon fill="#181818" points="187,461.0007,191,471.0007,195,461.0007,191,465.0007" style="stroke:#181818;stroke-width:1.0;"/><line style="stroke:#181818;stroke-width:1.0;" x1="426" x2="490" y1="449.0007" y2="449.0007"/><line style="stroke:#181818;stroke-width:1.0;" x1="490" x2="490" y1="449.0007" y2="471.0007"/><polygon fill="#181818" points="486,461.0007,490,471.0007,494,461.0007,490,465.0007" style="stroke:#181818;stroke-width:1.0;"/><line style="stroke:#181818;stroke-width:1.0;" x1="191" x2="191" y1="614.201" y2="632.201"/><line style="stroke:#181818;stroke-width:1.0;" x1="191" x2="328.5" y1="632.201" y2="632.201"/><polygon fill="#181818" points="318.5,628.201,328.5,632.201,318.5,636.201,322.5,632.201" style="stroke:#181818;stroke-width:1.0;"/><line style="stroke:#181818;stroke-width:1.0;" x1="490" x2="490" y1="559.8009" y2="632.201"/><line style="stroke:#181818;stroke-width:1.0;" x1="490" x2="352.5" y1="632.201" y2="632.201"/><polygon fill="#181818" points="362.5,628.201,352.5,632.201,362.5,636.201,358.5,632.201" style="stroke:#181818;stroke-width:1.0;"/><line style="stroke:#181818;stroke-width:1.0;" x1="340.5" x2="340.5" y1="417.0007" y2="437.0007"/><polygon fill="#181818" points="336.5,427.0007,340.5,437.0007,344.5,427.0007,340.5,431.0007" style="stroke:#181818;stroke-width:1.0;"/><line style="stroke:#181818;stroke-width:1.0;" x1="467.75" x2="340.5" y1="346.2005" y2="346.2005"/><line style="stroke:#181818;stroke-width:1.0;" x1="340.5" x2="340.5" y1="346.2005" y2="368.2005"/><polygon fill="#181818" points="336.5,358.2005,340.5,368.2005,344.5,358.2005,340.5,362.2005" style="stroke:#181818;stroke-width:1.0;"/><line style="stroke:#181818;stroke-width:1.0;" x1="638.75" x2="766" y1="346.2005" y2="346.2005"/><line style="stroke:#181818;stroke-width:1.0;" x1="766" x2="766" y1="346.2005" y2="368.2005"/><polygon fill="#181818" points="762,358.2005,766,368.2005,770,358.2005,766,362.2005" style="stroke:#181818;stroke-width:1.0;"/><line style="stroke:#181818;stroke-width:1.0;" x1="340.5" x2="340.5" y1="644.201" y2="662.201"/><line style="stroke:#181818;stroke-width:1.0;" x1="340.5" x2="541.25" y1="662.201" y2="662.201"/><polygon fill="#181818" points="531.25,658.201,541.25,662.201,531.25,666.201,535.25,662.201" style="stroke:#181818;stroke-width:1.0;"/><line style="stroke:#181818;stroke-width:1.0;" x1="766" x2="766" y1="402.6006" y2="662.201"/><line style="stroke:#181818;stroke-width:1.0;" x1="766" x2="565.25" y1="662.201" y2="662.201"/><polygon fill="#181818" points="575.25,658.201,565.25,662.201,575.25,666.201,571.25,662.201" style="stroke:#181818;stroke-width:1.0;"/><line style="stroke:#181818;stroke-width:1.0;" x1="553.25" x2="553.25" y1="314.2005" y2="334.2005"/><polygon fill="#181818" points="549.25,324.2005,553.25,334.2005,557.25,324.2005,553.25,328.2005" style="stroke:#181818;stroke-width:1.0;"/><line style="stroke:#181818;stroke-width:1.0;" x1="553.25" x2="553.25" y1="674.201" y2="694.201"/><polygon fill="#181818" points="549.25,684.201,553.25,694.201,557.25,684.201,553.25,688.201" style="stroke:#181818;stroke-width:1.0;"/><!--SRC=[TLEzJkD04Exz5ADKjWJt07610acH0kd4aQjEGiDw4kPOxqQxu-Z2sr1UGSKZ-CMOTMBZeD3uRx-_-R6mM8BLpSDl2aiNJU173f4MJW8vh9cS-BYA3GRsa8yGnHHcHdZ7ieSvuoPWdMLHC4WsxV4ETxH1GB08s_PrmmwX8ZWLroyMZemoc_xYA5GZ60nAtKFTK9I0qmpWyYjpOMd3ZvRYkSCxFKlCIfzpunseZhwa01YJYJECHVcPbYibyfeDGkDErGQd4Vm93O6nR80SJ7etxSm4jXXGxKXFHY9bncl8UpesaknCYhI7b6yvlof0dbGjZ-rReJKDpI2tQzyGebSxbgPAHOI3eofPk4RpJAw2sS_b7vSlvwVfBrIwxx0M391otFNqnJ_MTlbKnL7cQmmDCZ98MTSSDDMGOA-FuaEQBXuccYREtR9i3RVlhZp8tFgkHr2JY_YN4h3zd_mXl_SOfJZYTBCQjFoYKAiMvxPccBswZqQT1CXgwtFdTIVqGaVW1L08FkXDp8ypPVKbTAZlytR7uxZAvtNMUtPZ-vOs6VwCyRfLVb9c1vaeVli1]--></g></svg>