<?xml version="1.0" encoding="us-ascii" standalone="no"?><svg xmlns="http://www.w3.org/2000/svg" xmlns:xlink="http://www.w3.org/1999/xlink" contentStyleType="text/css" height="901px" preserveAspectRatio="none" style="width:820px;height:901px;background:#FFFFFF;" version="1.1" viewBox="0 0 820 901" width="820px" zoomAndPan="magnify"><defs/><g><text fill="#000000" font-family="sans-serif" font-size="14" font-weight="bold" lengthAdjust="spacing" textLength="472" x="172.5" y="33.0059">UC_GestionarUsuariosCRUDAdmin (Editar Usuario): Activity Diagram</text><ellipse cx="371.5" cy="57.7999" fill="#222222" rx="10" ry="10" style="stroke:#222222;stroke-width:1.0;"/><rect fill="#F1F1F1" height="34.4001" rx="12.5" ry="12.5" style="stroke:#181818;stroke-width:0.5;" width="223" x="260" y="87.7999"/><text fill="#000000" font-family="sans-serif" font-size="12" lengthAdjust="spacing" textLength="203" x="270" y="108.948">Admin navega a Gesti&#243;n de Usuarios</text><rect fill="#F1F1F1" height="34.4001" rx="12.5" ry="12.5" style="stroke:#181818;stroke-width:0.5;" width="266" x="238.5" y="142.2"/><text fill="#000000" font-family="sans-serif" font-size="12" lengthAdjust="spacing" textLength="246" x="248.5" y="163.3481">Sistema muestra tabla con todos los usuarios</text><rect fill="#F1F1F1" height="34.4001" rx="12.5" ry="12.5" style="stroke:#181818;stroke-width:0.5;" width="300" x="221.5" y="196.6001"/><text fill="#000000" font-family="sans-serif" font-size="12" lengthAdjust="spacing" textLength="280" x="231.5" y="217.7482">Admin selecciona un Usuario y hace clic en "Editar"</text><rect fill="#F1F1F1" height="34.4001" rx="12.5" ry="12.5" style="stroke:#181818;stroke-width:0.5;" width="414" x="164.5" y="251.0002"/><text fill="#000000" font-family="sans-serif" font-size="12" lengthAdjust="spacing" textLength="394" x="174.5" y="272.1483">Sistema muestra Di&#225;logo de Edici&#243;n con datos del usuario pre-cargados</text><rect fill="#F1F1F1" height="34.4001" rx="12.5" ry="12.5" style="stroke:#181818;stroke-width:0.5;" width="491" x="126" y="305.4003"/><text fill="#000000" font-family="sans-serif" font-size="12" lengthAdjust="spacing" textLength="471" x="136" y="326.5484">Admin modifica los campos deseados (nombre, email, etc., opcionalmente contrase&#241;a)</text><rect fill="#F1F1F1" height="34.4001" rx="12.5" ry="12.5" style="stroke:#181818;stroke-width:0.5;" width="231" x="256" y="359.8004"/><text fill="#000000" font-family="sans-serif" font-size="12" lengthAdjust="spacing" textLength="211" x="266" y="380.9485">Admin hace clic en "Guardar Cambios"</text><rect fill="#F1F1F1" height="34.4001" rx="12.5" ry="12.5" style="stroke:#181818;stroke-width:0.5;" width="241" x="251" y="414.2005"/><text fill="#000000" font-family="sans-serif" font-size="12" lengthAdjust="spacing" textLength="221" x="261" y="435.3486">Validar datos de entrada (frontend - Zod)</text><polygon fill="#F1F1F1" points="331.5,468.6006,411.5,468.6006,423.5,480.6006,411.5,492.6006,331.5,492.6006,319.5,480.6006,331.5,468.6006" style="stroke:#181818;stroke-width:0.5;"/><text fill="#000000" font-family="sans-serif" font-size="11" lengthAdjust="spacing" textLength="80" x="331.5" y="484.2196">Datos inv&#225;lidos?</text><text fill="#000000" font-family="sans-serif" font-size="11" lengthAdjust="spacing" textLength="9" x="310.5" y="477.6197">s&#237;</text><text fill="#000000" font-family="sans-serif" font-size="11" lengthAdjust="spacing" textLength="12" x="423.5" y="477.6197">no</text><rect fill="#F1F1F1" height="34.4001" rx="12.5" ry="12.5" style="stroke:#181818;stroke-width:0.5;" width="292" x="11" y="502.6006"/><text fill="#000000" font-family="sans-serif" font-size="12" lengthAdjust="spacing" textLength="272" x="21" y="523.7487">Mostrar mensaje de error en formulario de edici&#243;n</text><rect fill="#F1F1F1" height="34.4001" rx="12.5" ry="12.5" style="stroke:#181818;stroke-width:0.5;" width="352" x="410" y="502.6006"/><text fill="#000000" font-family="sans-serif" font-size="12" lengthAdjust="spacing" textLength="332" x="420" y="523.7487">Sistema env&#237;a datos actualizados del usuario al Backend API</text><polygon fill="#F1F1F1" points="501,557.0007,671,557.0007,683,569.0007,671,581.0007,501,581.0007,489,569.0007,501,557.0007" style="stroke:#181818;stroke-width:0.5;"/><text fill="#000000" font-family="sans-serif" font-size="11" lengthAdjust="spacing" textLength="170" x="501" y="572.6197">Actualizaci&#243;n Exitosa en Backend?</text><text fill="#000000" font-family="sans-serif" font-size="11" lengthAdjust="spacing" textLength="9" x="480" y="566.0198">s&#237;</text><text fill="#000000" font-family="sans-serif" font-size="11" lengthAdjust="spacing" textLength="106" x="683" y="566.0198">no - error en backend</text><rect fill="#F1F1F1" height="34.4001" rx="12.5" ry="12.5" style="stroke:#181818;stroke-width:0.5;" width="258" x="333" y="591.0007"/><text fill="#000000" font-family="sans-serif" font-size="12" lengthAdjust="spacing" textLength="238" x="343" y="612.1488">Backend API actualiza los datos del usuario</text><rect fill="#F1F1F1" height="34.4001" rx="12.5" ry="12.5" style="stroke:#181818;stroke-width:0.5;" width="198" x="363" y="645.4008"/><text fill="#000000" font-family="sans-serif" font-size="12" lengthAdjust="spacing" textLength="178" x="373" y="666.5489">Mostrar mensaje de &#233;xito (Toast)</text><rect fill="#F1F1F1" height="34.4001" rx="12.5" ry="12.5" style="stroke:#181818;stroke-width:0.5;" width="159" x="382.5" y="699.8009"/><text fill="#000000" font-family="sans-serif" font-size="12" lengthAdjust="spacing" textLength="139" x="392.5" y="720.949">Cerrar di&#225;logo de edici&#243;n</text><rect fill="#F1F1F1" height="34.4001" rx="12.5" ry="12.5" style="stroke:#181818;stroke-width:0.5;" width="216" x="354" y="754.201"/><text fill="#000000" font-family="sans-serif" font-size="12" lengthAdjust="spacing" textLength="196" x="364" y="775.3491">Actualizar tabla de usuarios en la UI</text><rect fill="#F1F1F1" height="34.4001" rx="12.5" ry="12.5" style="stroke:#181818;stroke-width:0.5;" width="161" x="629.5" y="591.0007"/><text fill="#000000" font-family="sans-serif" font-size="12" lengthAdjust="spacing" textLength="141" x="639.5" y="612.1488">Backend API retorna error</text><rect fill="#F1F1F1" height="34.4001" rx="12.5" ry="12.5" style="stroke:#181818;stroke-width:0.5;" width="198" x="611" y="645.4008"/><text fill="#000000" font-family="sans-serif" font-size="12" lengthAdjust="spacing" textLength="178" x="621" y="666.5489">Mostrar mensaje de error (Toast)</text><polygon fill="#F1F1F1" points="586,794.6011,598,806.6011,586,818.6011,574,806.6011,586,794.6011" style="stroke:#181818;stroke-width:0.5;"/><polygon fill="#F1F1F1" points="371.5,824.6011,383.5,836.6011,371.5,848.6011,359.5,836.6011,371.5,824.6011" style="stroke:#181818;stroke-width:0.5;"/><ellipse cx="371.5" cy="879.6011" fill="none" rx="11" ry="11" style="stroke:#222222;stroke-width:1.0;"/><ellipse cx="371.5" cy="879.6011" fill="#222222" rx="6" ry="6" style="stroke:#222222;stroke-width:1.0;"/><line style="stroke:#181818;stroke-width:1.0;" x1="371.5" x2="371.5" y1="67.7999" y2="87.7999"/><polygon fill="#181818" points="367.5,77.7999,371.5,87.7999,375.5,77.7999,371.5,81.7999" style="stroke:#181818;stroke-width:1.0;"/><line style="stroke:#181818;stroke-width:1.0;" x1="371.5" x2="371.5" y1="122.2" y2="142.2"/><polygon fill="#181818" points="367.5,132.2,371.5,142.2,375.5,132.2,371.5,136.2" style="stroke:#181818;stroke-width:1.0;"/><line style="stroke:#181818;stroke-width:1.0;" x1="371.5" x2="371.5" y1="176.6001" y2="196.6001"/><polygon fill="#181818" points="367.5,186.6001,371.5,196.6001,375.5,186.6001,371.5,190.6001" style="stroke:#181818;stroke-width:1.0;"/><line style="stroke:#181818;stroke-width:1.0;" x1="371.5" x2="371.5" y1="231.0002" y2="251.0002"/><polygon fill="#181818" points="367.5,241.0002,371.5,251.0002,375.5,241.0002,371.5,245.0002" style="stroke:#181818;stroke-width:1.0;"/><line style="stroke:#181818;stroke-width:1.0;" x1="371.5" x2="371.5" y1="285.4003" y2="305.4003"/><polygon fill="#181818" points="367.5,295.4003,371.5,305.4003,375.5,295.4003,371.5,299.4003" style="stroke:#181818;stroke-width:1.0;"/><line style="stroke:#181818;stroke-width:1.0;" x1="371.5" x2="371.5" y1="339.8004" y2="359.8004"/><polygon fill="#181818" points="367.5,349.8004,371.5,359.8004,375.5,349.8004,371.5,353.8004" style="stroke:#181818;stroke-width:1.0;"/><line style="stroke:#181818;stroke-width:1.0;" x1="371.5" x2="371.5" y1="394.2005" y2="414.2005"/><polygon fill="#181818" points="367.5,404.2005,371.5,414.2005,375.5,404.2005,371.5,408.2005" style="stroke:#181818;stroke-width:1.0;"/><line style="stroke:#181818;stroke-width:1.0;" x1="462" x2="462" y1="625.4008" y2="645.4008"/><polygon fill="#181818" points="458,635.4008,462,645.4008,466,635.4008,462,639.4008" style="stroke:#181818;stroke-width:1.0;"/><line style="stroke:#181818;stroke-width:1.0;" x1="462" x2="462" y1="679.8009" y2="699.8009"/><polygon fill="#181818" points="458,689.8009,462,699.8009,466,689.8009,462,693.8009" style="stroke:#181818;stroke-width:1.0;"/><line style="stroke:#181818;stroke-width:1.0;" x1="462" x2="462" y1="734.201" y2="754.201"/><polygon fill="#181818" points="458,744.201,462,754.201,466,744.201,462,748.201" style="stroke:#181818;stroke-width:1.0;"/><line style="stroke:#181818;stroke-width:1.0;" x1="710" x2="710" y1="625.4008" y2="645.4008"/><polygon fill="#181818" points="706,635.4008,710,645.4008,714,635.4008,710,639.4008" style="stroke:#181818;stroke-width:1.0;"/><line style="stroke:#181818;stroke-width:1.0;" x1="489" x2="462" y1="569.0007" y2="569.0007"/><line style="stroke:#181818;stroke-width:1.0;" x1="462" x2="462" y1="569.0007" y2="591.0007"/><polygon fill="#181818" points="458,581.0007,462,591.0007,466,581.0007,462,585.0007" style="stroke:#181818;stroke-width:1.0;"/><line style="stroke:#181818;stroke-width:1.0;" x1="683" x2="710" y1="569.0007" y2="569.0007"/><line style="stroke:#181818;stroke-width:1.0;" x1="710" x2="710" y1="569.0007" y2="591.0007"/><polygon fill="#181818" points="706,581.0007,710,591.0007,714,581.0007,710,585.0007" style="stroke:#181818;stroke-width:1.0;"/><line style="stroke:#181818;stroke-width:1.0;" x1="462" x2="462" y1="788.6011" y2="806.6011"/><line style="stroke:#181818;stroke-width:1.0;" x1="462" x2="574" y1="806.6011" y2="806.6011"/><polygon fill="#181818" points="564,802.6011,574,806.6011,564,810.6011,568,806.6011" style="stroke:#181818;stroke-width:1.0;"/><line style="stroke:#181818;stroke-width:1.0;" x1="710" x2="710" y1="679.8009" y2="806.6011"/><line style="stroke:#181818;stroke-width:1.0;" x1="710" x2="598" y1="806.6011" y2="806.6011"/><polygon fill="#181818" points="608,802.6011,598,806.6011,608,810.6011,604,806.6011" style="stroke:#181818;stroke-width:1.0;"/><line style="stroke:#181818;stroke-width:1.0;" x1="586" x2="586" y1="537.0007" y2="557.0007"/><polygon fill="#181818" points="582,547.0007,586,557.0007,590,547.0007,586,551.0007" style="stroke:#181818;stroke-width:1.0;"/><line style="stroke:#181818;stroke-width:1.0;" x1="319.5" x2="157" y1="480.6006" y2="480.6006"/><line style="stroke:#181818;stroke-width:1.0;" x1="157" x2="157" y1="480.6006" y2="502.6006"/><polygon fill="#181818" points="153,492.6006,157,502.6006,161,492.6006,157,496.6006" style="stroke:#181818;stroke-width:1.0;"/><line style="stroke:#181818;stroke-width:1.0;" x1="423.5" x2="586" y1="480.6006" y2="480.6006"/><line style="stroke:#181818;stroke-width:1.0;" x1="586" x2="586" y1="480.6006" y2="502.6006"/><polygon fill="#181818" points="582,492.6006,586,502.6006,590,492.6006,586,496.6006" style="stroke:#181818;stroke-width:1.0;"/><line style="stroke:#181818;stroke-width:1.0;" x1="157" x2="157" y1="537.0007" y2="836.6011"/><line style="stroke:#181818;stroke-width:1.0;" x1="157" x2="359.5" y1="836.6011" y2="836.6011"/><polygon fill="#181818" points="349.5,832.6011,359.5,836.6011,349.5,840.6011,353.5,836.6011" style="stroke:#181818;stroke-width:1.0;"/><line style="stroke:#181818;stroke-width:1.0;" x1="586" x2="586" y1="818.6011" y2="836.6011"/><line style="stroke:#181818;stroke-width:1.0;" x1="586" x2="383.5" y1="836.6011" y2="836.6011"/><polygon fill="#181818" points="393.5,832.6011,383.5,836.6011,393.5,840.6011,389.5,836.6011" style="stroke:#181818;stroke-width:1.0;"/><line style="stroke:#181818;stroke-width:1.0;" x1="371.5" x2="371.5" y1="448.6006" y2="468.6006"/><polygon fill="#181818" points="367.5,458.6006,371.5,468.6006,375.5,458.6006,371.5,462.6006" style="stroke:#181818;stroke-width:1.0;"/><line style="stroke:#181818;stroke-width:1.0;" x1="371.5" x2="371.5" y1="848.6011" y2="868.6011"/><polygon fill="#181818" points="367.5,858.6011,371.5,868.6011,375.5,858.6011,371.5,862.6011" style="stroke:#181818;stroke-width:1.0;"/><!--SRC=[TP9DRjim48NtEiKWAmb8UW1xKRXs46HHe6ZhBhefnkJ8cOO_1aaPJM_JPHTP53s2BjOX9TbgwYua0TJZUzyyCd4o1DlrbpkAYRt3i8qT1lPn_NwxMMdB3kfRpGa3Z7-Q1QnKuYEd9zWmxWFQgeeYIDLYsE3mI7i4X6BQ_tQWQTeTbzNY0yT45i5syZyW9DmP1EKT9Azz12DFTvOFff4CAPKHeNEJ6pp10oe2PLW1ERWQKAykX6ou_s7ytcSMKQd2bJCr9idJPAPCE0IwKHZsg6VvrcjkMM6XKsWFPLEaB8BQURiBT0sIo4O-IRsw1dyelCQIIvIpX2DI_mkRa-lVz7UIhwNfDTgTp9x7-8I6yz94AJfnqGXr6yIGd8OR-EorM78BzQR8s1rbM1Qormsa1x6kO__SL02Bjpwt4K2O8dwbuXY23pc_zS5sfbIGbyUIbXMPI7d4OZ3rIfBnZ2CNgjG9wFTInhnADF06rMF6NBsxNuf1fbnDyk4KRh-nc6JBIVmIMt9dDkUuSXZ_7E1os75XrFvdZeBweyUOcb6tbW9omxCBSfwzA4wyORoh8fakQAQMbMqPRcfApkJKwcu0lp16eEI3tESY_J_qu3HZbltSLiCx9d_u0m00]--></g></svg>