<?xml version="1.0" encoding="us-ascii" standalone="no"?><svg xmlns="http://www.w3.org/2000/svg" xmlns:xlink="http://www.w3.org/1999/xlink" contentStyleType="text/css" height="1245px" preserveAspectRatio="none" style="width:2164px;height:1245px;background:#FFFFFF;" version="1.1" viewBox="0 0 2164 1245" width="2164px" zoomAndPan="magnify"><defs/><g><text fill="#000000" font-family="sans-serif" font-size="14" font-weight="bold" lengthAdjust="spacing" textLength="476" x="845" y="28.0059">UC_GestionarTorneosCRUDAdmin (Crear Torneo): Sequence Diagram</text><rect fill="#FFFFFF" height="1003.2003" style="stroke:#181818;stroke-width:1.0;" width="10" x="381" y="151.1999"/><rect fill="#FFFFFF" height="944.0003" style="stroke:#181818;stroke-width:1.0;" width="10" x="601" y="210.3999"/><rect fill="#FFFFFF" height="88.8" style="stroke:#181818;stroke-width:1.0;" width="10" x="827" y="239.9999"/><rect fill="#FFFFFF" height="796.0002" style="stroke:#181818;stroke-width:1.0;" width="10" x="1010" y="358.4"/><rect fill="#FFFFFF" height="29.6" style="stroke:#181818;stroke-width:1.0;" width="10" x="1330" y="388"/><rect fill="#FFFFFF" height="29.6" style="stroke:#181818;stroke-width:1.0;" width="10" x="1330" y="447.2"/><rect fill="#FFFFFF" height="29.6" style="stroke:#181818;stroke-width:1.0;" width="10" x="1330" y="708.6001"/><rect fill="#FFFFFF" height="29.6" style="stroke:#181818;stroke-width:1.0;" width="10" x="1330" y="767.8002"/><rect fill="#FFFFFF" height="648.0001" style="stroke:#181818;stroke-width:1.0;" width="10" x="1500.5" y="506.4"/><rect fill="#FFFFFF" height="29.6" style="stroke:#181818;stroke-width:1.0;" width="10" x="1646.5" y="536"/><rect fill="#FFFFFF" height="559.2001" style="stroke:#181818;stroke-width:1.0;" width="10" x="1854.5" y="595.2001"/><rect fill="#FFFFFF" height="30" style="stroke:#181818;stroke-width:1.0;" width="10" x="1982.5" y="916.2002"/><rect fill="#FFFFFF" height="30" style="stroke:#181818;stroke-width:1.0;" width="10" x="2096.5" y="856.6002"/><rect fill="#FFFFFF" height="30" style="stroke:#181818;stroke-width:1.0;" width="10" x="2096.5" y="1109.4002"/><rect fill="none" height="537.2001" style="stroke:#000000;stroke-width:1.5;" width="1883" x="274" y="610.2001"/><line style="stroke:#181818;stroke-width:0.5;stroke-dasharray:5.0,5.0;" x1="28" x2="28" y1="119.5999" y2="1164.4002"/><line style="stroke:#181818;stroke-width:0.5;stroke-dasharray:5.0,5.0;" x1="386" x2="386" y1="119.5999" y2="1164.4002"/><line style="stroke:#181818;stroke-width:0.5;stroke-dasharray:5.0,5.0;" x1="606" x2="606" y1="119.5999" y2="1164.4002"/><line style="stroke:#181818;stroke-width:0.5;stroke-dasharray:5.0,5.0;" x1="832" x2="832" y1="119.5999" y2="1164.4002"/><line style="stroke:#181818;stroke-width:0.5;stroke-dasharray:5.0,5.0;" x1="1015" x2="1015" y1="119.5999" y2="1164.4002"/><line style="stroke:#181818;stroke-width:0.5;stroke-dasharray:5.0,5.0;" x1="1335" x2="1335" y1="119.5999" y2="1164.4002"/><line style="stroke:#181818;stroke-width:0.5;stroke-dasharray:5.0,5.0;" x1="1505" x2="1505" y1="119.5999" y2="1164.4002"/><line style="stroke:#181818;stroke-width:0.5;stroke-dasharray:5.0,5.0;" x1="1651.5" x2="1651.5" y1="119.5999" y2="1164.4002"/><line style="stroke:#181818;stroke-width:0.5;stroke-dasharray:5.0,5.0;" x1="1859" x2="1859" y1="119.5999" y2="1164.4002"/><line style="stroke:#181818;stroke-width:0.5;stroke-dasharray:5.0,5.0;" x1="1987" x2="1987" y1="119.5999" y2="1164.4002"/><line style="stroke:#181818;stroke-width:0.5;stroke-dasharray:5.0,5.0;" x1="2101" x2="2101" y1="119.5999" y2="1164.4002"/><text fill="#000000" font-family="sans-serif" font-size="14" lengthAdjust="spacing" textLength="40" x="5" y="115.8059">Admin</text><ellipse cx="28" cy="51.2999" fill="#E2E2F0" rx="8" ry="8" style="stroke:#181818;stroke-width:0.5;"/><path d="M28,59.2999 L28,86.2999 M15,67.2999 L41,67.2999 M28,86.2999 L15,101.2999 M28,86.2999 L41,101.2999 " fill="none" style="stroke:#181818;stroke-width:0.5;"/><text fill="#000000" font-family="sans-serif" font-size="14" lengthAdjust="spacing" textLength="40" x="5" y="1176.4061">Admin</text><ellipse cx="28" cy="1188.7001" fill="#E2E2F0" rx="8" ry="8" style="stroke:#181818;stroke-width:0.5;"/><path d="M28,1196.7001 L28,1223.7001 M15,1204.7001 L41,1204.7001 M28,1223.7001 L15,1238.7001 M28,1223.7001 L41,1238.7001 " fill="none" style="stroke:#181818;stroke-width:0.5;"/><rect fill="#E2E2F0" height="36" rx="2.5" ry="2.5" style="stroke:#181818;stroke-width:0.5;" width="204" x="284" y="82.5999"/><ellipse cx="302" cy="100.5999" fill="#DA70D6" rx="11" ry="11" style="stroke:#181818;stroke-width:1.0;"/><path d="M299.8594,101.9905 L301.4375,101.9905 C302.1094,102.2405 303.5938,103.9124 304.4688,105.4905 L304.5313,105.5999 L305.9063,105.5999 C306.2344,105.5999 306.5156,105.553 306.6563,105.4749 C306.9219,105.3186 307.0938,105.0217 307.0938,104.7092 C307.0938,104.4436 306.9375,104.1624 306.7188,104.0061 C306.5313,103.8655 306.3594,103.8342 305.9063,103.8342 L305.7188,103.8342 C305.0625,102.8499 304.3906,102.053 303.6563,101.4124 C304.8594,100.7874 305.4375,99.9905 305.4375,98.9592 C305.4375,97.2249 303.8906,96.0061 301.6406,96.0061 L297.8438,96.0061 C297.3906,96.0061 297.2656,96.0217 297.0938,96.1311 C296.8281,96.303 296.6563,96.5842 296.6563,96.8811 C296.6563,97.1624 296.8125,97.4436 297.0313,97.5999 C297.2188,97.7249 297.4063,97.7561 297.8438,97.7561 L298.0313,97.7561 L298.0313,103.8342 L297.8438,103.8342 C297.4219,103.8342 297.2656,103.8655 297.0938,103.9749 C296.8281,104.1155 296.6563,104.4124 296.6563,104.7092 C296.6563,105.2874 297.0625,105.5999 297.8438,105.5999 L300.3906,105.5999 C300.75,105.5999 301,105.553 301.1406,105.4749 C301.4063,105.3186 301.5781,105.0217 301.5781,104.7092 C301.5781,104.4436 301.4531,104.178 301.2031,104.0061 C301.0156,103.8655 300.875,103.8342 300.3906,103.8342 L299.8594,103.8342 L299.8594,101.9905 Z M299.8594,100.2405 L299.8594,97.7561 L301.7031,97.7561 C302.7344,97.7561 303.5,98.2405 303.5,98.8967 C303.5,99.678 302.4844,100.2405 301.0938,100.2405 L299.8594,100.2405 Z " fill="#000000"/><text fill="#000000" font-family="sans-serif" font-size="14" lengthAdjust="spacing" textLength="162" x="319" y="102.6058">TournamentManagement</text><rect fill="#E2E2F0" height="36" rx="2.5" ry="2.5" style="stroke:#181818;stroke-width:0.5;" width="204" x="284" y="1163.4002"/><ellipse cx="302" cy="1181.4002" fill="#DA70D6" rx="11" ry="11" style="stroke:#181818;stroke-width:1.0;"/><path d="M299.8594,1182.7908 L301.4375,1182.7908 C302.1094,1183.0408 303.5938,1184.7127 304.4688,1186.2908 L304.5313,1186.4002 L305.9063,1186.4002 C306.2344,1186.4002 306.5156,1186.3533 306.6563,1186.2752 C306.9219,1186.1189 307.0938,1185.8221 307.0938,1185.5096 C307.0938,1185.2439 306.9375,1184.9627 306.7188,1184.8064 C306.5313,1184.6658 306.3594,1184.6346 305.9063,1184.6346 L305.7188,1184.6346 C305.0625,1183.6502 304.3906,1182.8533 303.6563,1182.2127 C304.8594,1181.5877 305.4375,1180.7908 305.4375,1179.7596 C305.4375,1178.0252 303.8906,1176.8064 301.6406,1176.8064 L297.8438,1176.8064 C297.3906,1176.8064 297.2656,1176.8221 297.0938,1176.9314 C296.8281,1177.1033 296.6563,1177.3846 296.6563,1177.6814 C296.6563,1177.9627 296.8125,1178.2439 297.0313,1178.4002 C297.2188,1178.5252 297.4063,1178.5564 297.8438,1178.5564 L298.0313,1178.5564 L298.0313,1184.6346 L297.8438,1184.6346 C297.4219,1184.6346 297.2656,1184.6658 297.0938,1184.7752 C296.8281,1184.9158 296.6563,1185.2127 296.6563,1185.5096 C296.6563,1186.0877 297.0625,1186.4002 297.8438,1186.4002 L300.3906,1186.4002 C300.75,1186.4002 301,1186.3533 301.1406,1186.2752 C301.4063,1186.1189 301.5781,1185.8221 301.5781,1185.5096 C301.5781,1185.2439 301.4531,1184.9783 301.2031,1184.8064 C301.0156,1184.6658 300.875,1184.6346 300.3906,1184.6346 L299.8594,1184.6346 L299.8594,1182.7908 Z M299.8594,1181.0408 L299.8594,1178.5564 L301.7031,1178.5564 C302.7344,1178.5564 303.5,1179.0408 303.5,1179.6971 C303.5,1180.4783 302.4844,1181.0408 301.0938,1181.0408 L299.8594,1181.0408 Z " fill="#000000"/><text fill="#000000" font-family="sans-serif" font-size="14" lengthAdjust="spacing" textLength="162" x="319" y="1183.4061">TournamentManagement</text><rect fill="#E2E2F0" height="36" rx="2.5" ry="2.5" style="stroke:#181818;stroke-width:0.5;" width="174" x="519" y="82.5999"/><ellipse cx="537" cy="100.5999" fill="#D3D3D3" rx="11" ry="11" style="stroke:#181818;stroke-width:1.0;"/><path d="M532,101.7561 C532,104.2561 534.1406,106.0686 537.0625,106.0686 C538.2969,106.0686 539.4688,105.7717 540.2188,105.2561 C540.8281,104.8342 541.1563,104.4124 541.1563,104.0061 C541.1563,103.5374 540.7344,103.1311 540.2344,103.1311 C540,103.1311 539.7813,103.2092 539.5781,103.4124 C539.1406,103.8499 539.1406,103.8499 538.9688,103.9436 C538.5156,104.178 537.875,104.3186 537.1094,104.3186 C535.1094,104.3186 533.8281,103.303 533.8281,101.7249 L533.8281,100.678 C533.8281,98.9749 535.0469,97.7717 536.75,97.7717 C537.3281,97.7717 537.9063,97.9124 538.375,98.1624 C538.8438,98.428 539.0156,98.6155 539.0781,98.9749 C539.2031,99.6467 539.4531,99.8967 539.9844,99.8967 C540.2656,99.8967 540.5469,99.7561 540.7344,99.5374 C540.8594,99.3655 540.9063,99.1936 540.9063,98.7561 L540.9063,97.3967 C540.9063,96.9749 540.8906,96.8342 540.7656,96.6624 C540.5938,96.4124 540.3125,96.2561 539.9844,96.2561 C539.6719,96.2561 539.4688,96.3655 539.25,96.6311 C538.0781,96.1311 537.6406,96.0217 536.6875,96.0217 C534.0156,96.0217 532,98.0374 532,100.6624 L532,101.7561 Z " fill="#000000"/><text fill="#000000" font-family="sans-serif" font-size="14" lengthAdjust="spacing" textLength="132" x="554" y="102.6058">TournamentCreation</text><rect fill="#E2E2F0" height="36" rx="2.5" ry="2.5" style="stroke:#181818;stroke-width:0.5;" width="174" x="519" y="1163.4002"/><ellipse cx="537" cy="1181.4002" fill="#D3D3D3" rx="11" ry="11" style="stroke:#181818;stroke-width:1.0;"/><path d="M532,1182.5564 C532,1185.0564 534.1406,1186.8689 537.0625,1186.8689 C538.2969,1186.8689 539.4688,1186.5721 540.2188,1186.0564 C540.8281,1185.6346 541.1563,1185.2127 541.1563,1184.8064 C541.1563,1184.3377 540.7344,1183.9314 540.2344,1183.9314 C540,1183.9314 539.7813,1184.0096 539.5781,1184.2127 C539.1406,1184.6502 539.1406,1184.6502 538.9688,1184.7439 C538.5156,1184.9783 537.875,1185.1189 537.1094,1185.1189 C535.1094,1185.1189 533.8281,1184.1033 533.8281,1182.5252 L533.8281,1181.4783 C533.8281,1179.7752 535.0469,1178.5721 536.75,1178.5721 C537.3281,1178.5721 537.9063,1178.7127 538.375,1178.9627 C538.8438,1179.2283 539.0156,1179.4158 539.0781,1179.7752 C539.2031,1180.4471 539.4531,1180.6971 539.9844,1180.6971 C540.2656,1180.6971 540.5469,1180.5564 540.7344,1180.3377 C540.8594,1180.1658 540.9063,1179.9939 540.9063,1179.5564 L540.9063,1178.1971 C540.9063,1177.7752 540.8906,1177.6346 540.7656,1177.4627 C540.5938,1177.2127 540.3125,1177.0564 539.9844,1177.0564 C539.6719,1177.0564 539.4688,1177.1658 539.25,1177.4314 C538.0781,1176.9314 537.6406,1176.8221 536.6875,1176.8221 C534.0156,1176.8221 532,1178.8377 532,1181.4627 L532,1182.5564 Z " fill="#000000"/><text fill="#000000" font-family="sans-serif" font-size="14" lengthAdjust="spacing" textLength="132" x="554" y="1183.4061">TournamentCreation</text><rect fill="#E2E2F0" height="36" rx="2.5" ry="2.5" style="stroke:#181818;stroke-width:0.5;" width="154" x="755" y="82.5999"/><ellipse cx="773" cy="100.5999" fill="#D3D3D3" rx="11" ry="11" style="stroke:#181818;stroke-width:1.0;"/><path d="M768,101.7561 C768,104.2561 770.1406,106.0686 773.0625,106.0686 C774.2969,106.0686 775.4688,105.7717 776.2188,105.2561 C776.8281,104.8342 777.1563,104.4124 777.1563,104.0061 C777.1563,103.5374 776.7344,103.1311 776.2344,103.1311 C776,103.1311 775.7813,103.2092 775.5781,103.4124 C775.1406,103.8499 775.1406,103.8499 774.9688,103.9436 C774.5156,104.178 773.875,104.3186 773.1094,104.3186 C771.1094,104.3186 769.8281,103.303 769.8281,101.7249 L769.8281,100.678 C769.8281,98.9749 771.0469,97.7717 772.75,97.7717 C773.3281,97.7717 773.9063,97.9124 774.375,98.1624 C774.8438,98.428 775.0156,98.6155 775.0781,98.9749 C775.2031,99.6467 775.4531,99.8967 775.9844,99.8967 C776.2656,99.8967 776.5469,99.7561 776.7344,99.5374 C776.8594,99.3655 776.9063,99.1936 776.9063,98.7561 L776.9063,97.3967 C776.9063,96.9749 776.8906,96.8342 776.7656,96.6624 C776.5938,96.4124 776.3125,96.2561 775.9844,96.2561 C775.6719,96.2561 775.4688,96.3655 775.25,96.6311 C774.0781,96.1311 773.6406,96.0217 772.6875,96.0217 C770.0156,96.0217 768,98.0374 768,100.6624 L768,101.7561 Z " fill="#000000"/><text fill="#000000" font-family="sans-serif" font-size="14" lengthAdjust="spacing" textLength="112" x="790" y="102.6058">TournamentForm</text><rect fill="#E2E2F0" height="36" rx="2.5" ry="2.5" style="stroke:#181818;stroke-width:0.5;" width="154" x="755" y="1163.4002"/><ellipse cx="773" cy="1181.4002" fill="#D3D3D3" rx="11" ry="11" style="stroke:#181818;stroke-width:1.0;"/><path d="M768,1182.5564 C768,1185.0564 770.1406,1186.8689 773.0625,1186.8689 C774.2969,1186.8689 775.4688,1186.5721 776.2188,1186.0564 C776.8281,1185.6346 777.1563,1185.2127 777.1563,1184.8064 C777.1563,1184.3377 776.7344,1183.9314 776.2344,1183.9314 C776,1183.9314 775.7813,1184.0096 775.5781,1184.2127 C775.1406,1184.6502 775.1406,1184.6502 774.9688,1184.7439 C774.5156,1184.9783 773.875,1185.1189 773.1094,1185.1189 C771.1094,1185.1189 769.8281,1184.1033 769.8281,1182.5252 L769.8281,1181.4783 C769.8281,1179.7752 771.0469,1178.5721 772.75,1178.5721 C773.3281,1178.5721 773.9063,1178.7127 774.375,1178.9627 C774.8438,1179.2283 775.0156,1179.4158 775.0781,1179.7752 C775.2031,1180.4471 775.4531,1180.6971 775.9844,1180.6971 C776.2656,1180.6971 776.5469,1180.5564 776.7344,1180.3377 C776.8594,1180.1658 776.9063,1179.9939 776.9063,1179.5564 L776.9063,1178.1971 C776.9063,1177.7752 776.8906,1177.6346 776.7656,1177.4627 C776.5938,1177.2127 776.3125,1177.0564 775.9844,1177.0564 C775.6719,1177.0564 775.4688,1177.1658 775.25,1177.4314 C774.0781,1176.9314 773.6406,1176.8221 772.6875,1176.8221 C770.0156,1176.8221 768,1178.8377 768,1181.4627 L768,1182.5564 Z " fill="#000000"/><text fill="#000000" font-family="sans-serif" font-size="14" lengthAdjust="spacing" textLength="112" x="790" y="1183.4061">TournamentForm</text><rect fill="#E2E2F0" height="47.5999" rx="2.5" ry="2.5" style="stroke:#181818;stroke-width:0.5;" width="192" x="919" y="71"/><ellipse cx="937" cy="89" fill="#FFFF00" rx="11" ry="11" style="stroke:#181818;stroke-width:1.0;"/><path d="M935.8594,90.0625 L937.1719,90.0625 L937.1719,90.1094 C937.1719,90.5 937.2031,90.6875 937.2969,90.8438 C937.4688,91.0938 937.7656,91.2656 938.0781,91.2656 C938.3594,91.2656 938.6406,91.125 938.8281,90.9063 C938.9531,90.7188 939,90.5625 939,90.1094 L939,88.2813 C939,87.8594 938.9844,87.7344 938.8594,87.5625 C938.7031,87.2969 938.4063,87.125 938.0781,87.125 C937.7813,87.125 937.5156,87.2656 937.3438,87.4844 C937.2031,87.6719 937.1719,87.8438 937.1719,88.2813 L937.1719,88.3281 L935.8594,88.3281 L935.8594,86.1563 L940.0781,86.1563 L940.0781,86.9219 C940.0781,87.3125 940.1094,87.4844 940.2188,87.6406 C940.3906,87.9063 940.6719,88.0625 941,88.0625 C941.2813,88.0625 941.5625,87.9375 941.75,87.7031 C941.8906,87.5156 941.9219,87.375 941.9219,86.9219 L941.9219,84.4063 L933.8438,84.4063 C933.4063,84.4063 933.2656,84.4219 933.0938,84.5313 C932.8281,84.7031 932.6563,84.9844 932.6563,85.2813 C932.6563,85.5625 932.8125,85.8438 933.0313,86 C933.2188,86.125 933.4063,86.1563 933.8438,86.1563 L934.0313,86.1563 L934.0313,92.25 L933.8438,92.25 C933.4219,92.25 933.2656,92.2813 933.0938,92.375 C932.8281,92.5313 932.6563,92.8281 932.6563,93.1094 C932.6563,93.6875 933.0625,94 933.8438,94 L937.5,94 C938.2813,94 938.6875,93.7188 938.6875,93.1094 C938.6875,92.8438 938.5469,92.5938 938.3125,92.4219 C938.125,92.2813 937.9531,92.25 937.5,92.25 L935.8594,92.25 L935.8594,90.0625 Z " fill="#000000"/><text fill="#000000" font-family="sans-serif" font-size="14" lengthAdjust="spacing" textLength="150" x="954" y="91.0059">tournament_backend.ts</text><text fill="#000000" font-family="sans-serif" font-size="14" lengthAdjust="spacing" textLength="128" x="965" y="107.8059">createTournament()</text><rect fill="#E2E2F0" height="47.5999" rx="2.5" ry="2.5" style="stroke:#181818;stroke-width:0.5;" width="192" x="919" y="1163.4002"/><ellipse cx="937" cy="1181.4002" fill="#FFFF00" rx="11" ry="11" style="stroke:#181818;stroke-width:1.0;"/><path d="M935.8594,1182.4627 L937.1719,1182.4627 L937.1719,1182.5096 C937.1719,1182.9002 937.2031,1183.0877 937.2969,1183.2439 C937.4688,1183.4939 937.7656,1183.6658 938.0781,1183.6658 C938.3594,1183.6658 938.6406,1183.5252 938.8281,1183.3064 C938.9531,1183.1189 939,1182.9627 939,1182.5096 L939,1180.6814 C939,1180.2596 938.9844,1180.1346 938.8594,1179.9627 C938.7031,1179.6971 938.4063,1179.5252 938.0781,1179.5252 C937.7813,1179.5252 937.5156,1179.6658 937.3438,1179.8846 C937.2031,1180.0721 937.1719,1180.2439 937.1719,1180.6814 L937.1719,1180.7283 L935.8594,1180.7283 L935.8594,1178.5564 L940.0781,1178.5564 L940.0781,1179.3221 C940.0781,1179.7127 940.1094,1179.8846 940.2188,1180.0408 C940.3906,1180.3064 940.6719,1180.4627 941,1180.4627 C941.2813,1180.4627 941.5625,1180.3377 941.75,1180.1033 C941.8906,1179.9158 941.9219,1179.7752 941.9219,1179.3221 L941.9219,1176.8064 L933.8438,1176.8064 C933.4063,1176.8064 933.2656,1176.8221 933.0938,1176.9314 C932.8281,1177.1033 932.6563,1177.3846 932.6563,1177.6814 C932.6563,1177.9627 932.8125,1178.2439 933.0313,1178.4002 C933.2188,1178.5252 933.4063,1178.5564 933.8438,1178.5564 L934.0313,1178.5564 L934.0313,1184.6502 L933.8438,1184.6502 C933.4219,1184.6502 933.2656,1184.6814 933.0938,1184.7752 C932.8281,1184.9314 932.6563,1185.2283 932.6563,1185.5096 C932.6563,1186.0877 933.0625,1186.4002 933.8438,1186.4002 L937.5,1186.4002 C938.2813,1186.4002 938.6875,1186.1189 938.6875,1185.5096 C938.6875,1185.2439 938.5469,1184.9939 938.3125,1184.8221 C938.125,1184.6814 937.9531,1184.6502 937.5,1184.6502 L935.8594,1184.6502 L935.8594,1182.4627 Z " fill="#000000"/><text fill="#000000" font-family="sans-serif" font-size="14" lengthAdjust="spacing" textLength="150" x="954" y="1183.4061">tournament_backend.ts</text><text fill="#000000" font-family="sans-serif" font-size="14" lengthAdjust="spacing" textLength="128" x="965" y="1200.2061">createTournament()</text><rect fill="#E2E2F0" height="47.5999" rx="2.5" ry="2.5" style="stroke:#181818;stroke-width:0.5;" width="208" x="1231" y="71"/><ellipse cx="1249" cy="89" fill="#90EE90" rx="11" ry="11" style="stroke:#181818;stroke-width:1.0;"/><path d="M1247.8594,90.0625 L1249.1719,90.0625 L1249.1719,90.1094 C1249.1719,90.5 1249.2031,90.6875 1249.2969,90.8438 C1249.4688,91.0938 1249.7656,91.2656 1250.0781,91.2656 C1250.3594,91.2656 1250.6406,91.125 1250.8281,90.9063 C1250.9531,90.7188 1251,90.5625 1251,90.1094 L1251,88.2813 C1251,87.8594 1250.9844,87.7344 1250.8594,87.5625 C1250.7031,87.2969 1250.4063,87.125 1250.0781,87.125 C1249.7813,87.125 1249.5156,87.2656 1249.3438,87.4844 C1249.2031,87.6719 1249.1719,87.8438 1249.1719,88.2813 L1249.1719,88.3281 L1247.8594,88.3281 L1247.8594,86.1563 L1252.0781,86.1563 L1252.0781,86.9219 C1252.0781,87.3125 1252.1094,87.4844 1252.2188,87.6406 C1252.3906,87.9063 1252.6719,88.0625 1253,88.0625 C1253.2813,88.0625 1253.5625,87.9375 1253.75,87.7031 C1253.8906,87.5156 1253.9219,87.375 1253.9219,86.9219 L1253.9219,84.4063 L1245.8438,84.4063 C1245.4063,84.4063 1245.2656,84.4219 1245.0938,84.5313 C1244.8281,84.7031 1244.6563,84.9844 1244.6563,85.2813 C1244.6563,85.5625 1244.8125,85.8438 1245.0313,86 C1245.2188,86.125 1245.4063,86.1563 1245.8438,86.1563 L1246.0313,86.1563 L1246.0313,92.25 L1245.8438,92.25 C1245.4219,92.25 1245.2656,92.2813 1245.0938,92.375 C1244.8281,92.5313 1244.6563,92.8281 1244.6563,93.1094 C1244.6563,93.6875 1245.0625,94 1245.8438,94 L1249.5,94 C1250.2813,94 1250.6875,93.7188 1250.6875,93.1094 C1250.6875,92.8438 1250.5469,92.5938 1250.3125,92.4219 C1250.125,92.2813 1249.9531,92.25 1249.5,92.25 L1247.8594,92.25 L1247.8594,90.0625 Z " fill="#000000"/><text fill="#000000" font-family="sans-serif" font-size="14" lengthAdjust="spacing" textLength="40" x="1329" y="91.0059">utils.ts</text><text fill="#000000" font-family="sans-serif" font-size="14" lengthAdjust="spacing" textLength="166" x="1266" y="107.8059">convertLocalToUtcString()</text><rect fill="#E2E2F0" height="47.5999" rx="2.5" ry="2.5" style="stroke:#181818;stroke-width:0.5;" width="208" x="1231" y="1163.4002"/><ellipse cx="1249" cy="1181.4002" fill="#90EE90" rx="11" ry="11" style="stroke:#181818;stroke-width:1.0;"/><path d="M1247.8594,1182.4627 L1249.1719,1182.4627 L1249.1719,1182.5096 C1249.1719,1182.9002 1249.2031,1183.0877 1249.2969,1183.2439 C1249.4688,1183.4939 1249.7656,1183.6658 1250.0781,1183.6658 C1250.3594,1183.6658 1250.6406,1183.5252 1250.8281,1183.3064 C1250.9531,1183.1189 1251,1182.9627 1251,1182.5096 L1251,1180.6814 C1251,1180.2596 1250.9844,1180.1346 1250.8594,1179.9627 C1250.7031,1179.6971 1250.4063,1179.5252 1250.0781,1179.5252 C1249.7813,1179.5252 1249.5156,1179.6658 1249.3438,1179.8846 C1249.2031,1180.0721 1249.1719,1180.2439 1249.1719,1180.6814 L1249.1719,1180.7283 L1247.8594,1180.7283 L1247.8594,1178.5564 L1252.0781,1178.5564 L1252.0781,1179.3221 C1252.0781,1179.7127 1252.1094,1179.8846 1252.2188,1180.0408 C1252.3906,1180.3064 1252.6719,1180.4627 1253,1180.4627 C1253.2813,1180.4627 1253.5625,1180.3377 1253.75,1180.1033 C1253.8906,1179.9158 1253.9219,1179.7752 1253.9219,1179.3221 L1253.9219,1176.8064 L1245.8438,1176.8064 C1245.4063,1176.8064 1245.2656,1176.8221 1245.0938,1176.9314 C1244.8281,1177.1033 1244.6563,1177.3846 1244.6563,1177.6814 C1244.6563,1177.9627 1244.8125,1178.2439 1245.0313,1178.4002 C1245.2188,1178.5252 1245.4063,1178.5564 1245.8438,1178.5564 L1246.0313,1178.5564 L1246.0313,1184.6502 L1245.8438,1184.6502 C1245.4219,1184.6502 1245.2656,1184.6814 1245.0938,1184.7752 C1244.8281,1184.9314 1244.6563,1185.2283 1244.6563,1185.5096 C1244.6563,1186.0877 1245.0625,1186.4002 1245.8438,1186.4002 L1249.5,1186.4002 C1250.2813,1186.4002 1250.6875,1186.1189 1250.6875,1185.5096 C1250.6875,1185.2439 1250.5469,1184.9939 1250.3125,1184.8221 C1250.125,1184.6814 1249.9531,1184.6502 1249.5,1184.6502 L1247.8594,1184.6502 L1247.8594,1182.4627 Z " fill="#000000"/><text fill="#000000" font-family="sans-serif" font-size="14" lengthAdjust="spacing" textLength="40" x="1329" y="1183.4061">utils.ts</text><text fill="#000000" font-family="sans-serif" font-size="14" lengthAdjust="spacing" textLength="166" x="1266" y="1200.2061">convertLocalToUtcString()</text><rect fill="#E2E2F0" height="47.5999" rx="2.5" ry="2.5" style="stroke:#181818;stroke-width:0.5;" width="113" x="1449" y="71"/><ellipse cx="1467" cy="89" fill="#FFA500" rx="11" ry="11" style="stroke:#181818;stroke-width:1.0;"/><path d="M1465.8594,90.0625 L1467.1719,90.0625 L1467.1719,90.1094 C1467.1719,90.5 1467.2031,90.6875 1467.2969,90.8438 C1467.4688,91.0938 1467.7656,91.2656 1468.0781,91.2656 C1468.3594,91.2656 1468.6406,91.125 1468.8281,90.9063 C1468.9531,90.7188 1469,90.5625 1469,90.1094 L1469,88.2813 C1469,87.8594 1468.9844,87.7344 1468.8594,87.5625 C1468.7031,87.2969 1468.4063,87.125 1468.0781,87.125 C1467.7813,87.125 1467.5156,87.2656 1467.3438,87.4844 C1467.2031,87.6719 1467.1719,87.8438 1467.1719,88.2813 L1467.1719,88.3281 L1465.8594,88.3281 L1465.8594,86.1563 L1470.0781,86.1563 L1470.0781,86.9219 C1470.0781,87.3125 1470.1094,87.4844 1470.2188,87.6406 C1470.3906,87.9063 1470.6719,88.0625 1471,88.0625 C1471.2813,88.0625 1471.5625,87.9375 1471.75,87.7031 C1471.8906,87.5156 1471.9219,87.375 1471.9219,86.9219 L1471.9219,84.4063 L1463.8438,84.4063 C1463.4063,84.4063 1463.2656,84.4219 1463.0938,84.5313 C1462.8281,84.7031 1462.6563,84.9844 1462.6563,85.2813 C1462.6563,85.5625 1462.8125,85.8438 1463.0313,86 C1463.2188,86.125 1463.4063,86.1563 1463.8438,86.1563 L1464.0313,86.1563 L1464.0313,92.25 L1463.8438,92.25 C1463.4219,92.25 1463.2656,92.2813 1463.0938,92.375 C1462.8281,92.5313 1462.6563,92.8281 1462.6563,93.1094 C1462.6563,93.6875 1463.0625,94 1463.8438,94 L1467.5,94 C1468.2813,94 1468.6875,93.7188 1468.6875,93.1094 C1468.6875,92.8438 1468.5469,92.5938 1468.3125,92.4219 C1468.125,92.2813 1467.9531,92.25 1467.5,92.25 L1465.8594,92.25 L1465.8594,90.0625 Z " fill="#000000"/><text fill="#000000" font-family="sans-serif" font-size="14" lengthAdjust="spacing" textLength="40" x="1499.5" y="91.0059">utils.ts</text><text fill="#000000" font-family="sans-serif" font-size="14" lengthAdjust="spacing" textLength="71" x="1484" y="107.8059">fetchJson()</text><rect fill="#E2E2F0" height="47.5999" rx="2.5" ry="2.5" style="stroke:#181818;stroke-width:0.5;" width="113" x="1449" y="1163.4002"/><ellipse cx="1467" cy="1181.4002" fill="#FFA500" rx="11" ry="11" style="stroke:#181818;stroke-width:1.0;"/><path d="M1465.8594,1182.4627 L1467.1719,1182.4627 L1467.1719,1182.5096 C1467.1719,1182.9002 1467.2031,1183.0877 1467.2969,1183.2439 C1467.4688,1183.4939 1467.7656,1183.6658 1468.0781,1183.6658 C1468.3594,1183.6658 1468.6406,1183.5252 1468.8281,1183.3064 C1468.9531,1183.1189 1469,1182.9627 1469,1182.5096 L1469,1180.6814 C1469,1180.2596 1468.9844,1180.1346 1468.8594,1179.9627 C1468.7031,1179.6971 1468.4063,1179.5252 1468.0781,1179.5252 C1467.7813,1179.5252 1467.5156,1179.6658 1467.3438,1179.8846 C1467.2031,1180.0721 1467.1719,1180.2439 1467.1719,1180.6814 L1467.1719,1180.7283 L1465.8594,1180.7283 L1465.8594,1178.5564 L1470.0781,1178.5564 L1470.0781,1179.3221 C1470.0781,1179.7127 1470.1094,1179.8846 1470.2188,1180.0408 C1470.3906,1180.3064 1470.6719,1180.4627 1471,1180.4627 C1471.2813,1180.4627 1471.5625,1180.3377 1471.75,1180.1033 C1471.8906,1179.9158 1471.9219,1179.7752 1471.9219,1179.3221 L1471.9219,1176.8064 L1463.8438,1176.8064 C1463.4063,1176.8064 1463.2656,1176.8221 1463.0938,1176.9314 C1462.8281,1177.1033 1462.6563,1177.3846 1462.6563,1177.6814 C1462.6563,1177.9627 1462.8125,1178.2439 1463.0313,1178.4002 C1463.2188,1178.5252 1463.4063,1178.5564 1463.8438,1178.5564 L1464.0313,1178.5564 L1464.0313,1184.6502 L1463.8438,1184.6502 C1463.4219,1184.6502 1463.2656,1184.6814 1463.0938,1184.7752 C1462.8281,1184.9314 1462.6563,1185.2283 1462.6563,1185.5096 C1462.6563,1186.0877 1463.0625,1186.4002 1463.8438,1186.4002 L1467.5,1186.4002 C1468.2813,1186.4002 1468.6875,1186.1189 1468.6875,1185.5096 C1468.6875,1185.2439 1468.5469,1184.9939 1468.3125,1184.8221 C1468.125,1184.6814 1467.9531,1184.6502 1467.5,1184.6502 L1465.8594,1184.6502 L1465.8594,1182.4627 Z " fill="#000000"/><text fill="#000000" font-family="sans-serif" font-size="14" lengthAdjust="spacing" textLength="40" x="1499.5" y="1183.4061">utils.ts</text><text fill="#000000" font-family="sans-serif" font-size="14" lengthAdjust="spacing" textLength="71" x="1484" y="1200.2061">fetchJson()</text><rect fill="#E2E2F0" height="36" rx="2.5" ry="2.5" style="stroke:#181818;stroke-width:0.5;" width="128" x="1587.5" y="82.5999"/><ellipse cx="1605.5" cy="100.5999" fill="#ADD8E6" rx="11" ry="11" style="stroke:#181818;stroke-width:1.0;"/><path d="M1609.3594,96.9124 C1609.3594,96.4749 1609.3438,96.3499 1609.2344,96.178 C1609.0781,95.928 1608.7813,95.7717 1608.4531,95.7717 C1608.1094,95.7717 1607.9219,95.9124 1607.7656,96.2874 C1607.2031,95.9592 1606.4375,95.7717 1605.5625,95.7717 C1603.4219,95.7717 1601.8281,97.0374 1601.8281,98.6936 C1601.8281,99.6467 1602.375,100.5374 1603.25,101.0061 C1603.8125,101.3186 1604.3438,101.4749 1605.4844,101.6624 C1606.6094,101.8655 1606.875,101.928 1607.25,102.0999 C1607.5938,102.2717 1607.8125,102.5686 1607.8125,102.8811 C1607.8125,103.5374 1606.8594,104.053 1605.6406,104.053 C1604.5469,104.053 1603.4844,103.5999 1603.3281,103.053 C1603.1875,102.6155 1603.1875,102.6155 1603.0625,102.4749 C1602.8906,102.3186 1602.6563,102.2405 1602.4063,102.2405 C1602.1094,102.2405 1601.8438,102.3655 1601.6563,102.5842 C1601.5313,102.7561 1601.4844,102.9436 1601.4844,103.3655 L1601.4844,104.4436 C1601.4844,105.2092 1601.7969,105.5842 1602.4063,105.5842 C1602.6875,105.5842 1602.8438,105.4905 1603.125,105.2092 C1603.9844,105.6311 1604.8281,105.8186 1605.75,105.8186 C1608.1094,105.8186 1609.7188,104.6467 1609.7188,102.9124 C1609.7188,102.053 1609.375,101.3655 1608.6875,100.8342 C1608.1563,100.428 1607.4844,100.1936 1605.9844,99.9436 C1604.7031,99.6936 1604.6406,99.678 1604.3125,99.5061 C1603.9688,99.3655 1603.7344,99.0061 1603.7344,98.678 C1603.7344,98.0374 1604.5469,97.5217 1605.5781,97.5217 C1606.625,97.5217 1607.3906,97.9436 1607.5313,98.5686 C1607.6563,99.0999 1607.6563,99.0999 1607.7969,99.2405 C1607.9531,99.3967 1608.2031,99.4905 1608.4531,99.4905 C1608.75,99.4905 1609,99.3655 1609.1875,99.1467 C1609.3281,98.9592 1609.3594,98.8186 1609.3594,98.3655 L1609.3594,96.9124 Z " fill="#000000"/><text fill="#000000" font-family="sans-serif" font-size="14" lengthAdjust="spacing" textLength="86" x="1622.5" y="102.6058">AuthManager</text><rect fill="#E2E2F0" height="36" rx="2.5" ry="2.5" style="stroke:#181818;stroke-width:0.5;" width="128" x="1587.5" y="1163.4002"/><ellipse cx="1605.5" cy="1181.4002" fill="#ADD8E6" rx="11" ry="11" style="stroke:#181818;stroke-width:1.0;"/><path d="M1609.3594,1177.7127 C1609.3594,1177.2752 1609.3438,1177.1502 1609.2344,1176.9783 C1609.0781,1176.7283 1608.7813,1176.5721 1608.4531,1176.5721 C1608.1094,1176.5721 1607.9219,1176.7127 1607.7656,1177.0877 C1607.2031,1176.7596 1606.4375,1176.5721 1605.5625,1176.5721 C1603.4219,1176.5721 1601.8281,1177.8377 1601.8281,1179.4939 C1601.8281,1180.4471 1602.375,1181.3377 1603.25,1181.8064 C1603.8125,1182.1189 1604.3438,1182.2752 1605.4844,1182.4627 C1606.6094,1182.6658 1606.875,1182.7283 1607.25,1182.9002 C1607.5938,1183.0721 1607.8125,1183.3689 1607.8125,1183.6814 C1607.8125,1184.3377 1606.8594,1184.8533 1605.6406,1184.8533 C1604.5469,1184.8533 1603.4844,1184.4002 1603.3281,1183.8533 C1603.1875,1183.4158 1603.1875,1183.4158 1603.0625,1183.2752 C1602.8906,1183.1189 1602.6563,1183.0408 1602.4063,1183.0408 C1602.1094,1183.0408 1601.8438,1183.1658 1601.6563,1183.3846 C1601.5313,1183.5564 1601.4844,1183.7439 1601.4844,1184.1658 L1601.4844,1185.2439 C1601.4844,1186.0096 1601.7969,1186.3846 1602.4063,1186.3846 C1602.6875,1186.3846 1602.8438,1186.2908 1603.125,1186.0096 C1603.9844,1186.4314 1604.8281,1186.6189 1605.75,1186.6189 C1608.1094,1186.6189 1609.7188,1185.4471 1609.7188,1183.7127 C1609.7188,1182.8533 1609.375,1182.1658 1608.6875,1181.6346 C1608.1563,1181.2283 1607.4844,1180.9939 1605.9844,1180.7439 C1604.7031,1180.4939 1604.6406,1180.4783 1604.3125,1180.3064 C1603.9688,1180.1658 1603.7344,1179.8064 1603.7344,1179.4783 C1603.7344,1178.8377 1604.5469,1178.3221 1605.5781,1178.3221 C1606.625,1178.3221 1607.3906,1178.7439 1607.5313,1179.3689 C1607.6563,1179.9002 1607.6563,1179.9002 1607.7969,1180.0408 C1607.9531,1180.1971 1608.2031,1180.2908 1608.4531,1180.2908 C1608.75,1180.2908 1609,1180.1658 1609.1875,1179.9471 C1609.3281,1179.7596 1609.3594,1179.6189 1609.3594,1179.1658 L1609.3594,1177.7127 Z " fill="#000000"/><text fill="#000000" font-family="sans-serif" font-size="14" lengthAdjust="spacing" textLength="86" x="1622.5" y="1183.4061">AuthManager</text><rect fill="#E2E2F0" height="36" rx="2.5" ry="2.5" style="stroke:#181818;stroke-width:0.5;" width="119" x="1800" y="82.5999"/><ellipse cx="1818" cy="100.5999" fill="#FF6347" rx="11" ry="11" style="stroke:#181818;stroke-width:1.0;"/><path d="M1821.8594,96.9124 C1821.8594,96.4749 1821.8438,96.3499 1821.7344,96.178 C1821.5781,95.928 1821.2813,95.7717 1820.9531,95.7717 C1820.6094,95.7717 1820.4219,95.9124 1820.2656,96.2874 C1819.7031,95.9592 1818.9375,95.7717 1818.0625,95.7717 C1815.9219,95.7717 1814.3281,97.0374 1814.3281,98.6936 C1814.3281,99.6467 1814.875,100.5374 1815.75,101.0061 C1816.3125,101.3186 1816.8438,101.4749 1817.9844,101.6624 C1819.1094,101.8655 1819.375,101.928 1819.75,102.0999 C1820.0938,102.2717 1820.3125,102.5686 1820.3125,102.8811 C1820.3125,103.5374 1819.3594,104.053 1818.1406,104.053 C1817.0469,104.053 1815.9844,103.5999 1815.8281,103.053 C1815.6875,102.6155 1815.6875,102.6155 1815.5625,102.4749 C1815.3906,102.3186 1815.1563,102.2405 1814.9063,102.2405 C1814.6094,102.2405 1814.3438,102.3655 1814.1563,102.5842 C1814.0313,102.7561 1813.9844,102.9436 1813.9844,103.3655 L1813.9844,104.4436 C1813.9844,105.2092 1814.2969,105.5842 1814.9063,105.5842 C1815.1875,105.5842 1815.3438,105.4905 1815.625,105.2092 C1816.4844,105.6311 1817.3281,105.8186 1818.25,105.8186 C1820.6094,105.8186 1822.2188,104.6467 1822.2188,102.9124 C1822.2188,102.053 1821.875,101.3655 1821.1875,100.8342 C1820.6563,100.428 1819.9844,100.1936 1818.4844,99.9436 C1817.2031,99.6936 1817.1406,99.678 1816.8125,99.5061 C1816.4688,99.3655 1816.2344,99.0061 1816.2344,98.678 C1816.2344,98.0374 1817.0469,97.5217 1818.0781,97.5217 C1819.125,97.5217 1819.8906,97.9436 1820.0313,98.5686 C1820.1563,99.0999 1820.1563,99.0999 1820.2969,99.2405 C1820.4531,99.3967 1820.7031,99.4905 1820.9531,99.4905 C1821.25,99.4905 1821.5,99.3655 1821.6875,99.1467 C1821.8281,98.9592 1821.8594,98.8186 1821.8594,98.3655 L1821.8594,96.9124 Z " fill="#000000"/><text fill="#000000" font-family="sans-serif" font-size="14" lengthAdjust="spacing" textLength="77" x="1835" y="102.6058">BackendAPI</text><rect fill="#E2E2F0" height="36" rx="2.5" ry="2.5" style="stroke:#181818;stroke-width:0.5;" width="119" x="1800" y="1163.4002"/><ellipse cx="1818" cy="1181.4002" fill="#FF6347" rx="11" ry="11" style="stroke:#181818;stroke-width:1.0;"/><path d="M1821.8594,1177.7127 C1821.8594,1177.2752 1821.8438,1177.1502 1821.7344,1176.9783 C1821.5781,1176.7283 1821.2813,1176.5721 1820.9531,1176.5721 C1820.6094,1176.5721 1820.4219,1176.7127 1820.2656,1177.0877 C1819.7031,1176.7596 1818.9375,1176.5721 1818.0625,1176.5721 C1815.9219,1176.5721 1814.3281,1177.8377 1814.3281,1179.4939 C1814.3281,1180.4471 1814.875,1181.3377 1815.75,1181.8064 C1816.3125,1182.1189 1816.8438,1182.2752 1817.9844,1182.4627 C1819.1094,1182.6658 1819.375,1182.7283 1819.75,1182.9002 C1820.0938,1183.0721 1820.3125,1183.3689 1820.3125,1183.6814 C1820.3125,1184.3377 1819.3594,1184.8533 1818.1406,1184.8533 C1817.0469,1184.8533 1815.9844,1184.4002 1815.8281,1183.8533 C1815.6875,1183.4158 1815.6875,1183.4158 1815.5625,1183.2752 C1815.3906,1183.1189 1815.1563,1183.0408 1814.9063,1183.0408 C1814.6094,1183.0408 1814.3438,1183.1658 1814.1563,1183.3846 C1814.0313,1183.5564 1813.9844,1183.7439 1813.9844,1184.1658 L1813.9844,1185.2439 C1813.9844,1186.0096 1814.2969,1186.3846 1814.9063,1186.3846 C1815.1875,1186.3846 1815.3438,1186.2908 1815.625,1186.0096 C1816.4844,1186.4314 1817.3281,1186.6189 1818.25,1186.6189 C1820.6094,1186.6189 1822.2188,1185.4471 1822.2188,1183.7127 C1822.2188,1182.8533 1821.875,1182.1658 1821.1875,1181.6346 C1820.6563,1181.2283 1819.9844,1180.9939 1818.4844,1180.7439 C1817.2031,1180.4939 1817.1406,1180.4783 1816.8125,1180.3064 C1816.4688,1180.1658 1816.2344,1179.8064 1816.2344,1179.4783 C1816.2344,1178.8377 1817.0469,1178.3221 1818.0781,1178.3221 C1819.125,1178.3221 1819.8906,1178.7439 1820.0313,1179.3689 C1820.1563,1179.9002 1820.1563,1179.9002 1820.2969,1180.0408 C1820.4531,1180.1971 1820.7031,1180.2908 1820.9531,1180.2908 C1821.25,1180.2908 1821.5,1180.1658 1821.6875,1179.9471 C1821.8281,1179.7596 1821.8594,1179.6189 1821.8594,1179.1658 L1821.8594,1177.7127 Z " fill="#000000"/><text fill="#000000" font-family="sans-serif" font-size="14" lengthAdjust="spacing" textLength="77" x="1835" y="1183.4061">BackendAPI</text><rect fill="#E2E2F0" height="36" rx="2.5" ry="2.5" style="stroke:#181818;stroke-width:0.5;" width="117" x="1929" y="82.5999"/><ellipse cx="1947" cy="100.5999" fill="#808080" rx="11" ry="11" style="stroke:#181818;stroke-width:1.0;"/><path d="M1950.8594,96.9124 C1950.8594,96.4749 1950.8438,96.3499 1950.7344,96.178 C1950.5781,95.928 1950.2813,95.7717 1949.9531,95.7717 C1949.6094,95.7717 1949.4219,95.9124 1949.2656,96.2874 C1948.7031,95.9592 1947.9375,95.7717 1947.0625,95.7717 C1944.9219,95.7717 1943.3281,97.0374 1943.3281,98.6936 C1943.3281,99.6467 1943.875,100.5374 1944.75,101.0061 C1945.3125,101.3186 1945.8438,101.4749 1946.9844,101.6624 C1948.1094,101.8655 1948.375,101.928 1948.75,102.0999 C1949.0938,102.2717 1949.3125,102.5686 1949.3125,102.8811 C1949.3125,103.5374 1948.3594,104.053 1947.1406,104.053 C1946.0469,104.053 1944.9844,103.5999 1944.8281,103.053 C1944.6875,102.6155 1944.6875,102.6155 1944.5625,102.4749 C1944.3906,102.3186 1944.1563,102.2405 1943.9063,102.2405 C1943.6094,102.2405 1943.3438,102.3655 1943.1563,102.5842 C1943.0313,102.7561 1942.9844,102.9436 1942.9844,103.3655 L1942.9844,104.4436 C1942.9844,105.2092 1943.2969,105.5842 1943.9063,105.5842 C1944.1875,105.5842 1944.3438,105.4905 1944.625,105.2092 C1945.4844,105.6311 1946.3281,105.8186 1947.25,105.8186 C1949.6094,105.8186 1951.2188,104.6467 1951.2188,102.9124 C1951.2188,102.053 1950.875,101.3655 1950.1875,100.8342 C1949.6563,100.428 1948.9844,100.1936 1947.4844,99.9436 C1946.2031,99.6936 1946.1406,99.678 1945.8125,99.5061 C1945.4688,99.3655 1945.2344,99.0061 1945.2344,98.678 C1945.2344,98.0374 1946.0469,97.5217 1947.0781,97.5217 C1948.125,97.5217 1948.8906,97.9436 1949.0313,98.5686 C1949.1563,99.0999 1949.1563,99.0999 1949.2969,99.2405 C1949.4531,99.3967 1949.7031,99.4905 1949.9531,99.4905 C1950.25,99.4905 1950.5,99.3655 1950.6875,99.1467 C1950.8281,98.9592 1950.8594,98.8186 1950.8594,98.3655 L1950.8594,96.9124 Z " fill="#000000"/><text fill="#000000" font-family="sans-serif" font-size="14" lengthAdjust="spacing" textLength="75" x="1964" y="102.6058">QueryClient</text><rect fill="#E2E2F0" height="36" rx="2.5" ry="2.5" style="stroke:#181818;stroke-width:0.5;" width="117" x="1929" y="1163.4002"/><ellipse cx="1947" cy="1181.4002" fill="#808080" rx="11" ry="11" style="stroke:#181818;stroke-width:1.0;"/><path d="M1950.8594,1177.7127 C1950.8594,1177.2752 1950.8438,1177.1502 1950.7344,1176.9783 C1950.5781,1176.7283 1950.2813,1176.5721 1949.9531,1176.5721 C1949.6094,1176.5721 1949.4219,1176.7127 1949.2656,1177.0877 C1948.7031,1176.7596 1947.9375,1176.5721 1947.0625,1176.5721 C1944.9219,1176.5721 1943.3281,1177.8377 1943.3281,1179.4939 C1943.3281,1180.4471 1943.875,1181.3377 1944.75,1181.8064 C1945.3125,1182.1189 1945.8438,1182.2752 1946.9844,1182.4627 C1948.1094,1182.6658 1948.375,1182.7283 1948.75,1182.9002 C1949.0938,1183.0721 1949.3125,1183.3689 1949.3125,1183.6814 C1949.3125,1184.3377 1948.3594,1184.8533 1947.1406,1184.8533 C1946.0469,1184.8533 1944.9844,1184.4002 1944.8281,1183.8533 C1944.6875,1183.4158 1944.6875,1183.4158 1944.5625,1183.2752 C1944.3906,1183.1189 1944.1563,1183.0408 1943.9063,1183.0408 C1943.6094,1183.0408 1943.3438,1183.1658 1943.1563,1183.3846 C1943.0313,1183.5564 1942.9844,1183.7439 1942.9844,1184.1658 L1942.9844,1185.2439 C1942.9844,1186.0096 1943.2969,1186.3846 1943.9063,1186.3846 C1944.1875,1186.3846 1944.3438,1186.2908 1944.625,1186.0096 C1945.4844,1186.4314 1946.3281,1186.6189 1947.25,1186.6189 C1949.6094,1186.6189 1951.2188,1185.4471 1951.2188,1183.7127 C1951.2188,1182.8533 1950.875,1182.1658 1950.1875,1181.6346 C1949.6563,1181.2283 1948.9844,1180.9939 1947.4844,1180.7439 C1946.2031,1180.4939 1946.1406,1180.4783 1945.8125,1180.3064 C1945.4688,1180.1658 1945.2344,1179.8064 1945.2344,1179.4783 C1945.2344,1178.8377 1946.0469,1178.3221 1947.0781,1178.3221 C1948.125,1178.3221 1948.8906,1178.7439 1949.0313,1179.3689 C1949.1563,1179.9002 1949.1563,1179.9002 1949.2969,1180.0408 C1949.4531,1180.1971 1949.7031,1180.2908 1949.9531,1180.2908 C1950.25,1180.2908 1950.5,1180.1658 1950.6875,1179.9471 C1950.8281,1179.7596 1950.8594,1179.6189 1950.8594,1179.1658 L1950.8594,1177.7127 Z " fill="#000000"/><text fill="#000000" font-family="sans-serif" font-size="14" lengthAdjust="spacing" textLength="75" x="1964" y="1183.4061">QueryClient</text><rect fill="#E2E2F0" height="36" rx="2.5" ry="2.5" style="stroke:#181818;stroke-width:0.5;" width="91" x="2056" y="82.5999"/><ellipse cx="2074" cy="100.5999" fill="#FFC0CB" rx="11" ry="11" style="stroke:#181818;stroke-width:1.0;"/><path d="M2069,101.7561 C2069,104.2561 2071.1406,106.0686 2074.0625,106.0686 C2075.2969,106.0686 2076.4688,105.7717 2077.2188,105.2561 C2077.8281,104.8342 2078.1563,104.4124 2078.1563,104.0061 C2078.1563,103.5374 2077.7344,103.1311 2077.2344,103.1311 C2077,103.1311 2076.7813,103.2092 2076.5781,103.4124 C2076.1406,103.8499 2076.1406,103.8499 2075.9688,103.9436 C2075.5156,104.178 2074.875,104.3186 2074.1094,104.3186 C2072.1094,104.3186 2070.8281,103.303 2070.8281,101.7249 L2070.8281,100.678 C2070.8281,98.9749 2072.0469,97.7717 2073.75,97.7717 C2074.3281,97.7717 2074.9063,97.9124 2075.375,98.1624 C2075.8438,98.428 2076.0156,98.6155 2076.0781,98.9749 C2076.2031,99.6467 2076.4531,99.8967 2076.9844,99.8967 C2077.2656,99.8967 2077.5469,99.7561 2077.7344,99.5374 C2077.8594,99.3655 2077.9063,99.1936 2077.9063,98.7561 L2077.9063,97.3967 C2077.9063,96.9749 2077.8906,96.8342 2077.7656,96.6624 C2077.5938,96.4124 2077.3125,96.2561 2076.9844,96.2561 C2076.6719,96.2561 2076.4688,96.3655 2076.25,96.6311 C2075.0781,96.1311 2074.6406,96.0217 2073.6875,96.0217 C2071.0156,96.0217 2069,98.0374 2069,100.6624 L2069,101.7561 Z " fill="#000000"/><text fill="#000000" font-family="sans-serif" font-size="14" lengthAdjust="spacing" textLength="49" x="2091" y="102.6058">Toaster</text><rect fill="#E2E2F0" height="36" rx="2.5" ry="2.5" style="stroke:#181818;stroke-width:0.5;" width="91" x="2056" y="1163.4002"/><ellipse cx="2074" cy="1181.4002" fill="#FFC0CB" rx="11" ry="11" style="stroke:#181818;stroke-width:1.0;"/><path d="M2069,1182.5564 C2069,1185.0564 2071.1406,1186.8689 2074.0625,1186.8689 C2075.2969,1186.8689 2076.4688,1186.5721 2077.2188,1186.0564 C2077.8281,1185.6346 2078.1563,1185.2127 2078.1563,1184.8064 C2078.1563,1184.3377 2077.7344,1183.9314 2077.2344,1183.9314 C2077,1183.9314 2076.7813,1184.0096 2076.5781,1184.2127 C2076.1406,1184.6502 2076.1406,1184.6502 2075.9688,1184.7439 C2075.5156,1184.9783 2074.875,1185.1189 2074.1094,1185.1189 C2072.1094,1185.1189 2070.8281,1184.1033 2070.8281,1182.5252 L2070.8281,1181.4783 C2070.8281,1179.7752 2072.0469,1178.5721 2073.75,1178.5721 C2074.3281,1178.5721 2074.9063,1178.7127 2075.375,1178.9627 C2075.8438,1179.2283 2076.0156,1179.4158 2076.0781,1179.7752 C2076.2031,1180.4471 2076.4531,1180.6971 2076.9844,1180.6971 C2077.2656,1180.6971 2077.5469,1180.5564 2077.7344,1180.3377 C2077.8594,1180.1658 2077.9063,1179.9939 2077.9063,1179.5564 L2077.9063,1178.1971 C2077.9063,1177.7752 2077.8906,1177.6346 2077.7656,1177.4627 C2077.5938,1177.2127 2077.3125,1177.0564 2076.9844,1177.0564 C2076.6719,1177.0564 2076.4688,1177.1658 2076.25,1177.4314 C2075.0781,1176.9314 2074.6406,1176.8221 2073.6875,1176.8221 C2071.0156,1176.8221 2069,1178.8377 2069,1181.4627 L2069,1182.5564 Z " fill="#000000"/><text fill="#000000" font-family="sans-serif" font-size="14" lengthAdjust="spacing" textLength="49" x="2091" y="1183.4061">Toaster</text><rect fill="#FFFFFF" height="1003.2003" style="stroke:#181818;stroke-width:1.0;" width="10" x="381" y="151.1999"/><rect fill="#FFFFFF" height="944.0003" style="stroke:#181818;stroke-width:1.0;" width="10" x="601" y="210.3999"/><rect fill="#FFFFFF" height="88.8" style="stroke:#181818;stroke-width:1.0;" width="10" x="827" y="239.9999"/><rect fill="#FFFFFF" height="796.0002" style="stroke:#181818;stroke-width:1.0;" width="10" x="1010" y="358.4"/><rect fill="#FFFFFF" height="29.6" style="stroke:#181818;stroke-width:1.0;" width="10" x="1330" y="388"/><rect fill="#FFFFFF" height="29.6" style="stroke:#181818;stroke-width:1.0;" width="10" x="1330" y="447.2"/><rect fill="#FFFFFF" height="29.6" style="stroke:#181818;stroke-width:1.0;" width="10" x="1330" y="708.6001"/><rect fill="#FFFFFF" height="29.6" style="stroke:#181818;stroke-width:1.0;" width="10" x="1330" y="767.8002"/><rect fill="#FFFFFF" height="648.0001" style="stroke:#181818;stroke-width:1.0;" width="10" x="1500.5" y="506.4"/><rect fill="#FFFFFF" height="29.6" style="stroke:#181818;stroke-width:1.0;" width="10" x="1646.5" y="536"/><rect fill="#FFFFFF" height="559.2001" style="stroke:#181818;stroke-width:1.0;" width="10" x="1854.5" y="595.2001"/><rect fill="#FFFFFF" height="30" style="stroke:#181818;stroke-width:1.0;" width="10" x="1982.5" y="916.2002"/><rect fill="#FFFFFF" height="30" style="stroke:#181818;stroke-width:1.0;" width="10" x="2096.5" y="856.6002"/><rect fill="#FFFFFF" height="30" style="stroke:#181818;stroke-width:1.0;" width="10" x="2096.5" y="1109.4002"/><polygon fill="#181818" points="369,147.1999,379,151.1999,369,155.1999,373,151.1999" style="stroke:#181818;stroke-width:1.0;"/><line style="stroke:#181818;stroke-width:1.0;" x1="28" x2="375" y1="151.1999" y2="151.1999"/><text fill="#000000" font-family="sans-serif" font-size="13" lengthAdjust="spacing" textLength="334" x="35" y="145.6769">Navigates to /dashboard_admin/tournament_management</text><polygon fill="#181818" points="369,176.7999,379,180.7999,369,184.7999,373,180.7999" style="stroke:#181818;stroke-width:1.0;"/><line style="stroke:#181818;stroke-width:1.0;" x1="28" x2="375" y1="180.7999" y2="180.7999"/><text fill="#000000" font-family="sans-serif" font-size="13" lengthAdjust="spacing" textLength="201" x="35" y="175.2769">Clicks "Create Tournament" button</text><polygon fill="#181818" points="589,206.3999,599,210.3999,589,214.3999,593,210.3999" style="stroke:#181818;stroke-width:1.0;"/><line style="stroke:#181818;stroke-width:1.0;" x1="391" x2="595" y1="210.3999" y2="210.3999"/><text fill="#000000" font-family="sans-serif" font-size="13" lengthAdjust="spacing" textLength="159" x="398" y="204.8769">Opens dialog (isOpen=true)</text><polygon fill="#181818" points="815,235.9999,825,239.9999,815,243.9999,819,239.9999" style="stroke:#181818;stroke-width:1.0;"/><line style="stroke:#181818;stroke-width:1.0;" x1="611" x2="821" y1="239.9999" y2="239.9999"/><text fill="#000000" font-family="sans-serif" font-size="13" lengthAdjust="spacing" textLength="197" x="618" y="234.4769">Renders tournament creation form</text><polygon fill="#181818" points="815,265.5999,825,269.5999,815,273.5999,819,269.5999" style="stroke:#181818;stroke-width:1.0;"/><line style="stroke:#181818;stroke-width:1.0;" x1="28" x2="821" y1="269.5999" y2="269.5999"/><text fill="#000000" font-family="sans-serif" font-size="13" lengthAdjust="spacing" textLength="447" x="35" y="264.0769">Enters tournament details (name, category, court, start/end datetimes (local))</text><polygon fill="#181818" points="815,295.1999,825,299.1999,815,303.1999,819,299.1999" style="stroke:#181818;stroke-width:1.0;"/><line style="stroke:#181818;stroke-width:1.0;" x1="28" x2="821" y1="299.1999" y2="299.1999"/><text fill="#000000" font-family="sans-serif" font-size="13" lengthAdjust="spacing" textLength="260" x="35" y="293.6769">Clicks "Create Tournament" (in DialogFooter)</text><polygon fill="#181818" points="622,324.7999,612,328.7999,622,332.7999,618,328.7999" style="stroke:#181818;stroke-width:1.0;"/><line style="stroke:#181818;stroke-width:1.0;" x1="616" x2="831" y1="328.7999" y2="328.7999"/><text fill="#000000" font-family="sans-serif" font-size="13" lengthAdjust="spacing" textLength="116" x="628" y="323.2769">onSubmit(formData)</text><polygon fill="#181818" points="998,354.4,1008,358.4,998,362.4,1002,358.4" style="stroke:#181818;stroke-width:1.0;"/><line style="stroke:#181818;stroke-width:1.0;" x1="611" x2="1004" y1="358.4" y2="358.4"/><text fill="#000000" font-family="sans-serif" font-size="13" lengthAdjust="spacing" textLength="158" x="618" y="352.877">createTournament(payload)</text><polygon fill="#181818" points="1318,384,1328,388,1318,392,1322,388" style="stroke:#181818;stroke-width:1.0;"/><line style="stroke:#181818;stroke-width:1.0;" x1="1020" x2="1324" y1="388" y2="388"/><text fill="#000000" font-family="sans-serif" font-size="13" lengthAdjust="spacing" textLength="291" x="1027" y="382.477">convertLocalToUtcString(formData.start_datetime)</text><polygon fill="#181818" points="1031,413.6,1021,417.6,1031,421.6,1027,417.6" style="stroke:#181818;stroke-width:1.0;"/><line style="stroke:#181818;stroke-width:1.0;stroke-dasharray:2.0,2.0;" x1="1025" x2="1334" y1="417.6" y2="417.6"/><text fill="#000000" font-family="sans-serif" font-size="13" lengthAdjust="spacing" textLength="108" x="1037" y="412.077">utc_start_datetime</text><polygon fill="#181818" points="1318,443.2,1328,447.2,1318,451.2,1322,447.2" style="stroke:#181818;stroke-width:1.0;"/><line style="stroke:#181818;stroke-width:1.0;" x1="1020" x2="1324" y1="447.2" y2="447.2"/><text fill="#000000" font-family="sans-serif" font-size="13" lengthAdjust="spacing" textLength="286" x="1027" y="441.677">convertLocalToUtcString(formData.end_datetime)</text><polygon fill="#181818" points="1031,472.8,1021,476.8,1031,480.8,1027,476.8" style="stroke:#181818;stroke-width:1.0;"/><line style="stroke:#181818;stroke-width:1.0;stroke-dasharray:2.0,2.0;" x1="1025" x2="1334" y1="476.8" y2="476.8"/><text fill="#000000" font-family="sans-serif" font-size="13" lengthAdjust="spacing" textLength="103" x="1037" y="471.277">utc_end_datetime</text><polygon fill="#181818" points="1488.5,502.4,1498.5,506.4,1488.5,510.4,1492.5,506.4" style="stroke:#181818;stroke-width:1.0;"/><line style="stroke:#181818;stroke-width:1.0;" x1="1020" x2="1494.5" y1="506.4" y2="506.4"/><text fill="#000000" font-family="sans-serif" font-size="13" lengthAdjust="spacing" textLength="312" x="1027" y="500.877">fetchJson("/tournaments", {POST, body: utcPayload})</text><polygon fill="#181818" points="1634.5,532,1644.5,536,1634.5,540,1638.5,536" style="stroke:#181818;stroke-width:1.0;"/><line style="stroke:#181818;stroke-width:1.0;" x1="1510.5" x2="1640.5" y1="536" y2="536"/><text fill="#000000" font-family="sans-serif" font-size="13" lengthAdjust="spacing" textLength="62" x="1517.5" y="530.477">getToken()</text><polygon fill="#181818" points="1521.5,561.6001,1511.5,565.6001,1521.5,569.6001,1517.5,565.6001" style="stroke:#181818;stroke-width:1.0;"/><line style="stroke:#181818;stroke-width:1.0;stroke-dasharray:2.0,2.0;" x1="1515.5" x2="1650.5" y1="565.6001" y2="565.6001"/><text fill="#000000" font-family="sans-serif" font-size="13" lengthAdjust="spacing" textLength="112" x="1527.5" y="560.0771">"admin_token_xyz"</text><polygon fill="#181818" points="1842.5,591.2001,1852.5,595.2001,1842.5,599.2001,1846.5,595.2001" style="stroke:#181818;stroke-width:1.0;"/><line style="stroke:#181818;stroke-width:1.0;" x1="1510.5" x2="1848.5" y1="595.2001" y2="595.2001"/><text fill="#000000" font-family="sans-serif" font-size="13" lengthAdjust="spacing" textLength="193" x="1517.5" y="589.6771">POST /tournaments (utcPayload)</text><path d="M274,610.2001 L334,610.2001 L334,617.8001 L324,627.8001 L274,627.8001 L274,610.2001 " fill="#EEEEEE" style="stroke:#000000;stroke-width:1.5;"/><rect fill="none" height="537.2001" style="stroke:#000000;stroke-width:1.5;" width="1883" x="274" y="610.2001"/><text fill="#000000" font-family="sans-serif" font-size="13" font-weight="bold" lengthAdjust="spacing" textLength="15" x="289" y="623.2771">alt</text><text fill="#000000" font-family="sans-serif" font-size="11" font-weight="bold" lengthAdjust="spacing" textLength="184" x="349" y="622.419">[Tournament created successfully]</text><polygon fill="#181818" points="1521.5,645.4001,1511.5,649.4001,1521.5,653.4001,1517.5,649.4001" style="stroke:#181818;stroke-width:1.0;"/><line style="stroke:#181818;stroke-width:1.0;stroke-dasharray:2.0,2.0;" x1="1515.5" x2="1853.5" y1="649.4001" y2="649.4001"/><text fill="#000000" font-family="sans-serif" font-size="13" lengthAdjust="spacing" textLength="320" x="1527.5" y="643.8771">HTTP 200 OK (Tournament object with UTC datetimes)</text><polygon fill="#181818" points="1031,675.0001,1021,679.0001,1031,683.0001,1027,679.0001" style="stroke:#181818;stroke-width:1.0;"/><line style="stroke:#181818;stroke-width:1.0;stroke-dasharray:2.0,2.0;" x1="1025" x2="1499.5" y1="679.0001" y2="679.0001"/><text fill="#000000" font-family="sans-serif" font-size="13" lengthAdjust="spacing" textLength="107" x="1037" y="673.4771">Tournament (UTC)</text><polygon fill="#181818" points="1318,704.6001,1328,708.6001,1318,712.6001,1322,708.6001" style="stroke:#181818;stroke-width:1.0;"/><line style="stroke:#181818;stroke-width:1.0;" x1="1020" x2="1324" y1="708.6001" y2="708.6001"/><text fill="#000000" font-family="sans-serif" font-size="13" lengthAdjust="spacing" textLength="272" x="1027" y="703.0771">displayUtcAsLocal(Tournament.start_datetime)</text><polygon fill="#181818" points="1031,734.2001,1021,738.2001,1031,742.2001,1027,738.2001" style="stroke:#181818;stroke-width:1.0;"/><line style="stroke:#181818;stroke-width:1.0;stroke-dasharray:2.0,2.0;" x1="1025" x2="1334" y1="738.2001" y2="738.2001"/><text fill="#000000" font-family="sans-serif" font-size="13" lengthAdjust="spacing" textLength="117" x="1037" y="732.6771">local_start_datetime</text><polygon fill="#181818" points="1318,763.8002,1328,767.8002,1318,771.8002,1322,767.8002" style="stroke:#181818;stroke-width:1.0;"/><line style="stroke:#181818;stroke-width:1.0;" x1="1020" x2="1324" y1="767.8002" y2="767.8002"/><text fill="#000000" font-family="sans-serif" font-size="13" lengthAdjust="spacing" textLength="267" x="1027" y="762.2772">displayUtcAsLocal(Tournament.end_datetime)</text><polygon fill="#181818" points="1031,793.4002,1021,797.4002,1031,801.4002,1027,797.4002" style="stroke:#181818;stroke-width:1.0;"/><line style="stroke:#181818;stroke-width:1.0;stroke-dasharray:2.0,2.0;" x1="1025" x2="1334" y1="797.4002" y2="797.4002"/><text fill="#000000" font-family="sans-serif" font-size="13" lengthAdjust="spacing" textLength="112" x="1037" y="791.8772">local_end_datetime</text><polygon fill="#181818" points="622,823.0002,612,827.0002,622,831.0002,618,827.0002" style="stroke:#181818;stroke-width:1.0;"/><line style="stroke:#181818;stroke-width:1.0;stroke-dasharray:2.0,2.0;" x1="616" x2="1009" y1="827.0002" y2="827.0002"/><text fill="#000000" font-family="sans-serif" font-size="13" lengthAdjust="spacing" textLength="108" x="628" y="821.4772">Tournament (local)</text><polygon fill="#181818" points="2084.5,852.6002,2094.5,856.6002,2084.5,860.6002,2088.5,856.6002" style="stroke:#181818;stroke-width:1.0;"/><line style="stroke:#181818;stroke-width:1.0;" x1="611" x2="2090.5" y1="856.6002" y2="856.6002"/><text fill="#000000" font-family="sans-serif" font-size="13" lengthAdjust="spacing" textLength="228" x="618" y="851.0772">toast.success("Tournament created...")</text><polygon fill="#181818" points="1970.5,912.2002,1980.5,916.2002,1970.5,920.2002,1974.5,916.2002" style="stroke:#181818;stroke-width:1.0;"/><line style="stroke:#181818;stroke-width:1.0;" x1="611" x2="1976.5" y1="916.2002" y2="916.2002"/><text fill="#000000" font-family="sans-serif" font-size="13" lengthAdjust="spacing" textLength="263" x="618" y="910.6772">invalidateQueries({queryKey: ['tournaments']})</text><polygon fill="#181818" points="402,971.8002,392,975.8002,402,979.8002,398,975.8002" style="stroke:#181818;stroke-width:1.0;"/><line style="stroke:#181818;stroke-width:1.0;" x1="396" x2="600" y1="975.8002" y2="975.8002"/><text fill="#000000" font-family="sans-serif" font-size="13" lengthAdjust="spacing" textLength="186" x="408" y="970.2772">Closes dialog (setIsOpen(false))</text><line style="stroke:#000000;stroke-width:1.0;stroke-dasharray:2.0,2.0;" x1="274" x2="2157" y1="984.8002" y2="984.8002"/><text fill="#000000" font-family="sans-serif" font-size="11" font-weight="bold" lengthAdjust="spacing" textLength="145" x="279" y="995.0191">[Error creating tournament]</text><polygon fill="#181818" points="1521.5,1016.6001,1511.5,1020.6001,1521.5,1024.6001,1517.5,1020.6001" style="stroke:#181818;stroke-width:1.0;"/><line style="stroke:#181818;stroke-width:1.0;stroke-dasharray:2.0,2.0;" x1="1515.5" x2="1853.5" y1="1020.6001" y2="1020.6001"/><text fill="#000000" font-family="sans-serif" font-size="13" lengthAdjust="spacing" textLength="66" x="1527.5" y="1015.0771">HTTP Error</text><polygon fill="#181818" points="1031,1046.2002,1021,1050.2002,1031,1054.2002,1027,1050.2002" style="stroke:#181818;stroke-width:1.0;"/><line style="stroke:#181818;stroke-width:1.0;" x1="1025" x2="1499.5" y1="1050.2002" y2="1050.2002"/><text fill="#000000" font-family="sans-serif" font-size="13" lengthAdjust="spacing" textLength="70" x="1037" y="1044.6772">throws Error</text><polygon fill="#181818" points="622,1075.8002,612,1079.8002,622,1083.8002,618,1079.8002" style="stroke:#181818;stroke-width:1.0;"/><line style="stroke:#181818;stroke-width:1.0;stroke-dasharray:2.0,2.0;" x1="616" x2="1009" y1="1079.8002" y2="1079.8002"/><text fill="#000000" font-family="sans-serif" font-size="13" lengthAdjust="spacing" textLength="70" x="628" y="1074.2772">throws Error</text><polygon fill="#181818" points="2084.5,1105.4002,2094.5,1109.4002,2084.5,1113.4002,2088.5,1109.4002" style="stroke:#181818;stroke-width:1.0;"/><line style="stroke:#181818;stroke-width:1.0;" x1="611" x2="2090.5" y1="1109.4002" y2="1109.4002"/><text fill="#000000" font-family="sans-serif" font-size="13" lengthAdjust="spacing" textLength="248" x="618" y="1103.8772">toast.error("Failed to create tournament...")</text><!--SRC=[fLTTS-8s57tthxZZ5ymC8Jjzz6mpav9DIxTjQ82dtGuZR67K68cLhfEbE_lVU-KFB1iRifCdBEcUSuzqFoHGOCfXELdzoWqA9PbUA2svCfF7vTrjl1CIWedcJ4CnFmnXphzaN4OSxWHBDDjv7ejGQV1pSn-OWVnhQRZszaoZYCIUIGH_eJ8jsOvB_9D9bd3xbTix2yaEPxG4xzy7ZoEbews8XpStVJnMcfNTOgccIM6g4iir6QKYsMAY-U4CtRtIknQLdRf4W4VhrPf5Jrp6OpIVPMHLy9eg6BQuVocCBVtzwC3JLBsSS6SeKbFGAVdCDVwX8fOkr1AZEMeXavBrZbmjoROWgxHoUOPmmp7Q_cwKB2dkxRZcK9h9X9_WRpFS5k7JHQpjED4MCo_yhjFi55RkzNOsBL2pQO50jMEeJip_phW-J59HPOWpBd0zaMG6IrtbTn6xlP1FrjexPYPStNIbNGX_iMUHq64QG0NNCJFRjM8wNZ6Bl7P2lJlci2q0yKoO3aPl0EFn6API82KZf8h5e3PGyvXyVV0QQRJ_wCc0dwUtwyo7TOQefDS1Qv2r2YE4XpsN1k9Y60XZnp-ZfW1sRQe9ztfv6pxp2WhXaQBFjN5s3b69WWsPTFcpqDw3ANa_I6pHnXmPvJW4TZo2Y3WJfG_qHJOu0eEKCzUsy69QGh6ZM0UfBQlXy8ApCn48g5KMsxzNYYGDlHRwV22Kd6VhdS30dWKLCnjwCUyzajUTVDLVGZXfHNjsiAdO6UKIvfqI4Vknpn1fJqEgTZ3E3tfL7RBZgoBnZcnNFS8pZ5PD6lTOZZnlbagGjmjrIJfbTkki-su8TK_sdLvZ_15ycptC5oDOg_YGUviL4Vpkg3qIUJKbyLSTEeI4uqAHsy01bQjUPNNLKkJdZM-55hVwUlZFTtTMWPl-gBU7OEM2kmS8QjMk_zdKOoawXrfcQmmcYo9kp2PBquC7EMzRtM-BnGn-UlSE7Zv2u52ezRyyGdWHk8NbOb9N-f287BKzqNIO0e9RqAKKYuNPf-n0kNLhyZnpv9nK0i1fSW1SJBAyIRNh0Q0hrTuek5aFRvBRg8e-iOCE0gbUODjuC3N2chCxBNpGlUVpRTSDT745U0sQhlPQl2j2kdBeQrmcQU2V9Z1Tx7xZy4fiynIgoGj-tHTG248-irJOpTjvmKtmxOir-CYfEtmQE6Kt-ETxGuF3qzJHN7ZT3TDud2Z3wwU4uJZDNnF1XgM6qytAwGS-Q4r_5OgBNoREhNskldDGiswx4mwtMhsOe_qFPqCl_d8QS8i9_7jwUL3degTZaGFE3dyi6-m5x3PQwfBEiExqdO-4wWRlN6mzuZfjghZ-3m00]--></g></svg>