<?xml version="1.0" encoding="us-ascii" standalone="no"?><svg xmlns="http://www.w3.org/2000/svg" xmlns:xlink="http://www.w3.org/1999/xlink" contentStyleType="text/css" height="1591px" preserveAspectRatio="none" style="width:2098px;height:1591px;background:#FFFFFF;" version="1.1" viewBox="0 0 2098 1591" width="2098px" zoomAndPan="magnify"><defs/><g><text fill="#000000" font-family="sans-serif" font-size="14" font-weight="bold" lengthAdjust="spacing" textLength="472" x="814" y="28.0059">UC_VerInscribirseCategoriasUsuario (Inscribirse): Sequence Diagram</text><rect fill="#FFFFFF" height="1348.6003" style="stroke:#181818;stroke-width:1.0;" width="10" x="303.5" y="151.1999"/><rect fill="#FFFFFF" height="83.8" style="stroke:#181818;stroke-width:1.0;" width="10" x="639.5" y="745.8"/><rect fill="#FFFFFF" height="559.2001" style="stroke:#181818;stroke-width:1.0;" width="10" x="843.5" y="918.4001"/><rect fill="#FFFFFF" height="313.2" style="stroke:#181818;stroke-width:1.0;" width="10" x="1040.5" y="366.4"/><rect fill="#FFFFFF" height="29.6" style="stroke:#181818;stroke-width:1.0;" width="10" x="1201.5" y="425.6"/><rect fill="#FFFFFF" height="29.6" style="stroke:#181818;stroke-width:1.0;" width="10" x="1201.5" y="859.2001"/><rect fill="#FFFFFF" height="29.6" style="stroke:#181818;stroke-width:1.0;" width="10" x="1201.5" y="977.6001"/><rect fill="#FFFFFF" height="262" style="stroke:#181818;stroke-width:1.0;" width="10" x="1377.5" y="396"/><rect fill="#FFFFFF" height="529.6001" style="stroke:#181818;stroke-width:1.0;" width="10" x="1377.5" y="948.0001"/><rect fill="#FFFFFF" height="173.2" style="stroke:#181818;stroke-width:1.0;" width="10" x="1778.5" y="484.8"/><rect fill="#FFFFFF" height="440.8001" style="stroke:#181818;stroke-width:1.0;" width="10" x="1778.5" y="1036.8002"/><rect fill="#FFFFFF" height="372.4001" style="stroke:#181818;stroke-width:1.0;" width="10" x="1906.5" y="336.7999"/><rect fill="#FFFFFF" height="30" style="stroke:#181818;stroke-width:1.0;" width="10" x="1906.5" y="1269.0003"/><rect fill="#FFFFFF" height="30" style="stroke:#181818;stroke-width:1.0;" width="10" x="2020.5" y="1179.8002"/><rect fill="#FFFFFF" height="30" style="stroke:#181818;stroke-width:1.0;" width="10" x="2020.5" y="1432.6002"/><rect fill="none" height="419.6001" style="stroke:#000000;stroke-width:1.5;" width="1800" x="180" y="297.5999"/><rect fill="none" height="151.2" style="stroke:#000000;stroke-width:1.5;" width="904.5" x="948.5" y="499.8"/><rect fill="none" height="732.0001" style="stroke:#000000;stroke-width:1.5;" width="2081" x="10" y="760.8"/><rect fill="none" height="418.8001" style="stroke:#000000;stroke-width:1.5;" width="1901" x="180" y="1051.8002"/><line style="stroke:#181818;stroke-width:0.5;stroke-dasharray:5.0,5.0;" x1="47" x2="47" y1="119.5999" y2="1509.8001"/><line style="stroke:#181818;stroke-width:0.5;stroke-dasharray:5.0,5.0;" x1="308" x2="308" y1="119.5999" y2="1509.8001"/><line style="stroke:#181818;stroke-width:0.5;stroke-dasharray:5.0,5.0;" x1="644.5" x2="644.5" y1="119.5999" y2="1509.8001"/><line style="stroke:#181818;stroke-width:0.5;stroke-dasharray:5.0,5.0;" x1="848.5" x2="848.5" y1="119.5999" y2="1509.8001"/><line style="stroke:#181818;stroke-width:0.5;stroke-dasharray:5.0,5.0;" x1="1045.5" x2="1045.5" y1="119.5999" y2="1509.8001"/><line style="stroke:#181818;stroke-width:0.5;stroke-dasharray:5.0,5.0;" x1="1206.5" x2="1206.5" y1="119.5999" y2="1509.8001"/><line style="stroke:#181818;stroke-width:0.5;stroke-dasharray:5.0,5.0;" x1="1382" x2="1382" y1="119.5999" y2="1509.8001"/><line style="stroke:#181818;stroke-width:0.5;stroke-dasharray:5.0,5.0;" x1="1783" x2="1783" y1="119.5999" y2="1509.8001"/><line style="stroke:#181818;stroke-width:0.5;stroke-dasharray:5.0,5.0;" x1="1911" x2="1911" y1="119.5999" y2="1509.8001"/><line style="stroke:#181818;stroke-width:0.5;stroke-dasharray:5.0,5.0;" x1="2025" x2="2025" y1="119.5999" y2="1509.8001"/><text fill="#000000" font-family="sans-serif" font-size="14" lengthAdjust="spacing" textLength="49" x="20" y="115.8059">Usuario</text><ellipse cx="47.5" cy="51.2999" fill="#E2E2F0" rx="8" ry="8" style="stroke:#181818;stroke-width:0.5;"/><path d="M47.5,59.2999 L47.5,86.2999 M34.5,67.2999 L60.5,67.2999 M47.5,86.2999 L34.5,101.2999 M47.5,86.2999 L60.5,101.2999 " fill="none" style="stroke:#181818;stroke-width:0.5;"/><text fill="#000000" font-family="sans-serif" font-size="14" lengthAdjust="spacing" textLength="49" x="20" y="1521.8061">Usuario</text><ellipse cx="47.5" cy="1534.1" fill="#E2E2F0" rx="8" ry="8" style="stroke:#181818;stroke-width:0.5;"/><path d="M47.5,1542.1 L47.5,1569.1 M34.5,1550.1 L60.5,1550.1 M47.5,1569.1 L34.5,1584.1 M47.5,1569.1 L60.5,1584.1 " fill="none" style="stroke:#181818;stroke-width:0.5;"/><rect fill="#E2E2F0" height="36" rx="2.5" ry="2.5" style="stroke:#181818;stroke-width:0.5;" width="237" x="190" y="82.5999"/><ellipse cx="208" cy="100.5999" fill="#DA70D6" rx="11" ry="11" style="stroke:#181818;stroke-width:1.0;"/><path d="M205.8594,101.9905 L207.4375,101.9905 C208.1094,102.2405 209.5938,103.9124 210.4688,105.4905 L210.5313,105.5999 L211.9063,105.5999 C212.2344,105.5999 212.5156,105.553 212.6563,105.4749 C212.9219,105.3186 213.0938,105.0217 213.0938,104.7092 C213.0938,104.4436 212.9375,104.1624 212.7188,104.0061 C212.5313,103.8655 212.3594,103.8342 211.9063,103.8342 L211.7188,103.8342 C211.0625,102.8499 210.3906,102.053 209.6563,101.4124 C210.8594,100.7874 211.4375,99.9905 211.4375,98.9592 C211.4375,97.2249 209.8906,96.0061 207.6406,96.0061 L203.8438,96.0061 C203.3906,96.0061 203.2656,96.0217 203.0938,96.1311 C202.8281,96.303 202.6563,96.5842 202.6563,96.8811 C202.6563,97.1624 202.8125,97.4436 203.0313,97.5999 C203.2188,97.7249 203.4063,97.7561 203.8438,97.7561 L204.0313,97.7561 L204.0313,103.8342 L203.8438,103.8342 C203.4219,103.8342 203.2656,103.8655 203.0938,103.9749 C202.8281,104.1155 202.6563,104.4124 202.6563,104.7092 C202.6563,105.2874 203.0625,105.5999 203.8438,105.5999 L206.3906,105.5999 C206.75,105.5999 207,105.553 207.1406,105.4749 C207.4063,105.3186 207.5781,105.0217 207.5781,104.7092 C207.5781,104.4436 207.4531,104.178 207.2031,104.0061 C207.0156,103.8655 206.875,103.8342 206.3906,103.8342 L205.8594,103.8342 L205.8594,101.9905 Z M205.8594,100.2405 L205.8594,97.7561 L207.7031,97.7561 C208.7344,97.7561 209.5,98.2405 209.5,98.8967 C209.5,99.678 208.4844,100.2405 207.0938,100.2405 L205.8594,100.2405 Z " fill="#000000"/><text fill="#000000" font-family="sans-serif" font-size="14" lengthAdjust="spacing" textLength="195" x="225" y="102.6058">UserCategoryPageComponent</text><rect fill="#E2E2F0" height="36" rx="2.5" ry="2.5" style="stroke:#181818;stroke-width:0.5;" width="237" x="190" y="1508.8001"/><ellipse cx="208" cy="1526.8001" fill="#DA70D6" rx="11" ry="11" style="stroke:#181818;stroke-width:1.0;"/><path d="M205.8594,1528.1907 L207.4375,1528.1907 C208.1094,1528.4407 209.5938,1530.1126 210.4688,1531.6907 L210.5313,1531.8001 L211.9063,1531.8001 C212.2344,1531.8001 212.5156,1531.7532 212.6563,1531.6751 C212.9219,1531.5189 213.0938,1531.222 213.0938,1530.9095 C213.0938,1530.6439 212.9375,1530.3626 212.7188,1530.2064 C212.5313,1530.0657 212.3594,1530.0345 211.9063,1530.0345 L211.7188,1530.0345 C211.0625,1529.0501 210.3906,1528.2532 209.6563,1527.6126 C210.8594,1526.9876 211.4375,1526.1907 211.4375,1525.1595 C211.4375,1523.4251 209.8906,1522.2064 207.6406,1522.2064 L203.8438,1522.2064 C203.3906,1522.2064 203.2656,1522.222 203.0938,1522.3314 C202.8281,1522.5032 202.6563,1522.7845 202.6563,1523.0814 C202.6563,1523.3626 202.8125,1523.6439 203.0313,1523.8001 C203.2188,1523.9251 203.4063,1523.9564 203.8438,1523.9564 L204.0313,1523.9564 L204.0313,1530.0345 L203.8438,1530.0345 C203.4219,1530.0345 203.2656,1530.0657 203.0938,1530.1751 C202.8281,1530.3157 202.6563,1530.6126 202.6563,1530.9095 C202.6563,1531.4876 203.0625,1531.8001 203.8438,1531.8001 L206.3906,1531.8001 C206.75,1531.8001 207,1531.7532 207.1406,1531.6751 C207.4063,1531.5189 207.5781,1531.222 207.5781,1530.9095 C207.5781,1530.6439 207.4531,1530.3782 207.2031,1530.2064 C207.0156,1530.0657 206.875,1530.0345 206.3906,1530.0345 L205.8594,1530.0345 L205.8594,1528.1907 Z M205.8594,1526.4407 L205.8594,1523.9564 L207.7031,1523.9564 C208.7344,1523.9564 209.5,1524.4407 209.5,1525.097 C209.5,1525.8782 208.4844,1526.4407 207.0938,1526.4407 L205.8594,1526.4407 Z " fill="#000000"/><text fill="#000000" font-family="sans-serif" font-size="14" lengthAdjust="spacing" textLength="195" x="225" y="1528.8061">UserCategoryPageComponent</text><rect fill="#E2E2F0" height="36" rx="2.5" ry="2.5" style="stroke:#181818;stroke-width:0.5;" width="188" x="550.5" y="82.5999"/><ellipse cx="568.5" cy="100.5999" fill="#D3D3D3" rx="11" ry="11" style="stroke:#181818;stroke-width:1.0;"/><path d="M563.5,101.7561 C563.5,104.2561 565.6406,106.0686 568.5625,106.0686 C569.7969,106.0686 570.9688,105.7717 571.7188,105.2561 C572.3281,104.8342 572.6563,104.4124 572.6563,104.0061 C572.6563,103.5374 572.2344,103.1311 571.7344,103.1311 C571.5,103.1311 571.2813,103.2092 571.0781,103.4124 C570.6406,103.8499 570.6406,103.8499 570.4688,103.9436 C570.0156,104.178 569.375,104.3186 568.6094,104.3186 C566.6094,104.3186 565.3281,103.303 565.3281,101.7249 L565.3281,100.678 C565.3281,98.9749 566.5469,97.7717 568.25,97.7717 C568.8281,97.7717 569.4063,97.9124 569.875,98.1624 C570.3438,98.428 570.5156,98.6155 570.5781,98.9749 C570.7031,99.6467 570.9531,99.8967 571.4844,99.8967 C571.7656,99.8967 572.0469,99.7561 572.2344,99.5374 C572.3594,99.3655 572.4063,99.1936 572.4063,98.7561 L572.4063,97.3967 C572.4063,96.9749 572.3906,96.8342 572.2656,96.6624 C572.0938,96.4124 571.8125,96.2561 571.4844,96.2561 C571.1719,96.2561 570.9688,96.3655 570.75,96.6311 C569.5781,96.1311 569.1406,96.0217 568.1875,96.0217 C565.5156,96.0217 563.5,98.0374 563.5,100.6624 L563.5,101.7561 Z " fill="#000000"/><text fill="#000000" font-family="sans-serif" font-size="14" lengthAdjust="spacing" textLength="146" x="585.5" y="102.6058">AvailableCategoryCard</text><rect fill="#E2E2F0" height="36" rx="2.5" ry="2.5" style="stroke:#181818;stroke-width:0.5;" width="188" x="550.5" y="1508.8001"/><ellipse cx="568.5" cy="1526.8001" fill="#D3D3D3" rx="11" ry="11" style="stroke:#181818;stroke-width:1.0;"/><path d="M563.5,1527.9564 C563.5,1530.4564 565.6406,1532.2689 568.5625,1532.2689 C569.7969,1532.2689 570.9688,1531.972 571.7188,1531.4564 C572.3281,1531.0345 572.6563,1530.6126 572.6563,1530.2064 C572.6563,1529.7376 572.2344,1529.3314 571.7344,1529.3314 C571.5,1529.3314 571.2813,1529.4095 571.0781,1529.6126 C570.6406,1530.0501 570.6406,1530.0501 570.4688,1530.1439 C570.0156,1530.3782 569.375,1530.5189 568.6094,1530.5189 C566.6094,1530.5189 565.3281,1529.5032 565.3281,1527.9251 L565.3281,1526.8782 C565.3281,1525.1751 566.5469,1523.972 568.25,1523.972 C568.8281,1523.972 569.4063,1524.1126 569.875,1524.3626 C570.3438,1524.6282 570.5156,1524.8157 570.5781,1525.1751 C570.7031,1525.847 570.9531,1526.097 571.4844,1526.097 C571.7656,1526.097 572.0469,1525.9564 572.2344,1525.7376 C572.3594,1525.5657 572.4063,1525.3939 572.4063,1524.9564 L572.4063,1523.597 C572.4063,1523.1751 572.3906,1523.0345 572.2656,1522.8626 C572.0938,1522.6126 571.8125,1522.4564 571.4844,1522.4564 C571.1719,1522.4564 570.9688,1522.5657 570.75,1522.8314 C569.5781,1522.3314 569.1406,1522.222 568.1875,1522.222 C565.5156,1522.222 563.5,1524.2376 563.5,1526.8626 L563.5,1527.9564 Z " fill="#000000"/><text fill="#000000" font-family="sans-serif" font-size="14" lengthAdjust="spacing" textLength="146" x="585.5" y="1528.8061">AvailableCategoryCard</text><rect fill="#E2E2F0" height="47.5999" rx="2.5" ry="2.5" style="stroke:#181818;stroke-width:0.5;" width="200" x="748.5" y="71"/><ellipse cx="766.5" cy="89" fill="#FFFF00" rx="11" ry="11" style="stroke:#181818;stroke-width:1.0;"/><path d="M765.3594,90.0625 L766.6719,90.0625 L766.6719,90.1094 C766.6719,90.5 766.7031,90.6875 766.7969,90.8438 C766.9688,91.0938 767.2656,91.2656 767.5781,91.2656 C767.8594,91.2656 768.1406,91.125 768.3281,90.9063 C768.4531,90.7188 768.5,90.5625 768.5,90.1094 L768.5,88.2813 C768.5,87.8594 768.4844,87.7344 768.3594,87.5625 C768.2031,87.2969 767.9063,87.125 767.5781,87.125 C767.2813,87.125 767.0156,87.2656 766.8438,87.4844 C766.7031,87.6719 766.6719,87.8438 766.6719,88.2813 L766.6719,88.3281 L765.3594,88.3281 L765.3594,86.1563 L769.5781,86.1563 L769.5781,86.9219 C769.5781,87.3125 769.6094,87.4844 769.7188,87.6406 C769.8906,87.9063 770.1719,88.0625 770.5,88.0625 C770.7813,88.0625 771.0625,87.9375 771.25,87.7031 C771.3906,87.5156 771.4219,87.375 771.4219,86.9219 L771.4219,84.4063 L763.3438,84.4063 C762.9063,84.4063 762.7656,84.4219 762.5938,84.5313 C762.3281,84.7031 762.1563,84.9844 762.1563,85.2813 C762.1563,85.5625 762.3125,85.8438 762.5313,86 C762.7188,86.125 762.9063,86.1563 763.3438,86.1563 L763.5313,86.1563 L763.5313,92.25 L763.3438,92.25 C762.9219,92.25 762.7656,92.2813 762.5938,92.375 C762.3281,92.5313 762.1563,92.8281 762.1563,93.1094 C762.1563,93.6875 762.5625,94 763.3438,94 L767,94 C767.7813,94 768.1875,93.7188 768.1875,93.1094 C768.1875,92.8438 768.0469,92.5938 767.8125,92.4219 C767.625,92.2813 767.4531,92.25 767,92.25 L765.3594,92.25 L765.3594,90.0625 Z " fill="#000000"/><text fill="#000000" font-family="sans-serif" font-size="14" lengthAdjust="spacing" textLength="132" x="796.5" y="91.0059">category_backend.ts</text><text fill="#000000" font-family="sans-serif" font-size="14" lengthAdjust="spacing" textLength="158" x="783.5" y="107.8059">registerUserInCategory()</text><rect fill="#E2E2F0" height="47.5999" rx="2.5" ry="2.5" style="stroke:#181818;stroke-width:0.5;" width="200" x="748.5" y="1508.8001"/><ellipse cx="766.5" cy="1526.8001" fill="#FFFF00" rx="11" ry="11" style="stroke:#181818;stroke-width:1.0;"/><path d="M765.3594,1527.8626 L766.6719,1527.8626 L766.6719,1527.9095 C766.6719,1528.3001 766.7031,1528.4876 766.7969,1528.6439 C766.9688,1528.8939 767.2656,1529.0657 767.5781,1529.0657 C767.8594,1529.0657 768.1406,1528.9251 768.3281,1528.7064 C768.4531,1528.5189 768.5,1528.3626 768.5,1527.9095 L768.5,1526.0814 C768.5,1525.6595 768.4844,1525.5345 768.3594,1525.3626 C768.2031,1525.097 767.9063,1524.9251 767.5781,1524.9251 C767.2813,1524.9251 767.0156,1525.0657 766.8438,1525.2845 C766.7031,1525.472 766.6719,1525.6439 766.6719,1526.0814 L766.6719,1526.1282 L765.3594,1526.1282 L765.3594,1523.9564 L769.5781,1523.9564 L769.5781,1524.722 C769.5781,1525.1126 769.6094,1525.2845 769.7188,1525.4407 C769.8906,1525.7064 770.1719,1525.8626 770.5,1525.8626 C770.7813,1525.8626 771.0625,1525.7376 771.25,1525.5032 C771.3906,1525.3157 771.4219,1525.1751 771.4219,1524.722 L771.4219,1522.2064 L763.3438,1522.2064 C762.9063,1522.2064 762.7656,1522.222 762.5938,1522.3314 C762.3281,1522.5032 762.1563,1522.7845 762.1563,1523.0814 C762.1563,1523.3626 762.3125,1523.6439 762.5313,1523.8001 C762.7188,1523.9251 762.9063,1523.9564 763.3438,1523.9564 L763.5313,1523.9564 L763.5313,1530.0501 L763.3438,1530.0501 C762.9219,1530.0501 762.7656,1530.0814 762.5938,1530.1751 C762.3281,1530.3314 762.1563,1530.6282 762.1563,1530.9095 C762.1563,1531.4876 762.5625,1531.8001 763.3438,1531.8001 L767,1531.8001 C767.7813,1531.8001 768.1875,1531.5189 768.1875,1530.9095 C768.1875,1530.6439 768.0469,1530.3939 767.8125,1530.222 C767.625,1530.0814 767.4531,1530.0501 767,1530.0501 L765.3594,1530.0501 L765.3594,1527.8626 Z " fill="#000000"/><text fill="#000000" font-family="sans-serif" font-size="14" lengthAdjust="spacing" textLength="132" x="796.5" y="1528.8061">category_backend.ts</text><text fill="#000000" font-family="sans-serif" font-size="14" lengthAdjust="spacing" textLength="158" x="783.5" y="1545.606">registerUserInCategory()</text><rect fill="#E2E2F0" height="47.5999" rx="2.5" ry="2.5" style="stroke:#181818;stroke-width:0.5;" width="174" x="958.5" y="71"/><ellipse cx="976.5" cy="89" fill="#FFFF00" rx="11" ry="11" style="stroke:#181818;stroke-width:1.0;"/><path d="M975.3594,90.0625 L976.6719,90.0625 L976.6719,90.1094 C976.6719,90.5 976.7031,90.6875 976.7969,90.8438 C976.9688,91.0938 977.2656,91.2656 977.5781,91.2656 C977.8594,91.2656 978.1406,91.125 978.3281,90.9063 C978.4531,90.7188 978.5,90.5625 978.5,90.1094 L978.5,88.2813 C978.5,87.8594 978.4844,87.7344 978.3594,87.5625 C978.2031,87.2969 977.9063,87.125 977.5781,87.125 C977.2813,87.125 977.0156,87.2656 976.8438,87.4844 C976.7031,87.6719 976.6719,87.8438 976.6719,88.2813 L976.6719,88.3281 L975.3594,88.3281 L975.3594,86.1563 L979.5781,86.1563 L979.5781,86.9219 C979.5781,87.3125 979.6094,87.4844 979.7188,87.6406 C979.8906,87.9063 980.1719,88.0625 980.5,88.0625 C980.7813,88.0625 981.0625,87.9375 981.25,87.7031 C981.3906,87.5156 981.4219,87.375 981.4219,86.9219 L981.4219,84.4063 L973.3438,84.4063 C972.9063,84.4063 972.7656,84.4219 972.5938,84.5313 C972.3281,84.7031 972.1563,84.9844 972.1563,85.2813 C972.1563,85.5625 972.3125,85.8438 972.5313,86 C972.7188,86.125 972.9063,86.1563 973.3438,86.1563 L973.5313,86.1563 L973.5313,92.25 L973.3438,92.25 C972.9219,92.25 972.7656,92.2813 972.5938,92.375 C972.3281,92.5313 972.1563,92.8281 972.1563,93.1094 C972.1563,93.6875 972.5625,94 973.3438,94 L977,94 C977.7813,94 978.1875,93.7188 978.1875,93.1094 C978.1875,92.8438 978.0469,92.5938 977.8125,92.4219 C977.625,92.2813 977.4531,92.25 977,92.25 L975.3594,92.25 L975.3594,90.0625 Z " fill="#000000"/><text fill="#000000" font-family="sans-serif" font-size="14" lengthAdjust="spacing" textLength="132" x="993.5" y="91.0059">category_backend.ts</text><text fill="#000000" font-family="sans-serif" font-size="14" lengthAdjust="spacing" textLength="131" x="994" y="107.8059">checkUserEligibility()</text><rect fill="#E2E2F0" height="47.5999" rx="2.5" ry="2.5" style="stroke:#181818;stroke-width:0.5;" width="174" x="958.5" y="1508.8001"/><ellipse cx="976.5" cy="1526.8001" fill="#FFFF00" rx="11" ry="11" style="stroke:#181818;stroke-width:1.0;"/><path d="M975.3594,1527.8626 L976.6719,1527.8626 L976.6719,1527.9095 C976.6719,1528.3001 976.7031,1528.4876 976.7969,1528.6439 C976.9688,1528.8939 977.2656,1529.0657 977.5781,1529.0657 C977.8594,1529.0657 978.1406,1528.9251 978.3281,1528.7064 C978.4531,1528.5189 978.5,1528.3626 978.5,1527.9095 L978.5,1526.0814 C978.5,1525.6595 978.4844,1525.5345 978.3594,1525.3626 C978.2031,1525.097 977.9063,1524.9251 977.5781,1524.9251 C977.2813,1524.9251 977.0156,1525.0657 976.8438,1525.2845 C976.7031,1525.472 976.6719,1525.6439 976.6719,1526.0814 L976.6719,1526.1282 L975.3594,1526.1282 L975.3594,1523.9564 L979.5781,1523.9564 L979.5781,1524.722 C979.5781,1525.1126 979.6094,1525.2845 979.7188,1525.4407 C979.8906,1525.7064 980.1719,1525.8626 980.5,1525.8626 C980.7813,1525.8626 981.0625,1525.7376 981.25,1525.5032 C981.3906,1525.3157 981.4219,1525.1751 981.4219,1524.722 L981.4219,1522.2064 L973.3438,1522.2064 C972.9063,1522.2064 972.7656,1522.222 972.5938,1522.3314 C972.3281,1522.5032 972.1563,1522.7845 972.1563,1523.0814 C972.1563,1523.3626 972.3125,1523.6439 972.5313,1523.8001 C972.7188,1523.9251 972.9063,1523.9564 973.3438,1523.9564 L973.5313,1523.9564 L973.5313,1530.0501 L973.3438,1530.0501 C972.9219,1530.0501 972.7656,1530.0814 972.5938,1530.1751 C972.3281,1530.3314 972.1563,1530.6282 972.1563,1530.9095 C972.1563,1531.4876 972.5625,1531.8001 973.3438,1531.8001 L977,1531.8001 C977.7813,1531.8001 978.1875,1531.5189 978.1875,1530.9095 C978.1875,1530.6439 978.0469,1530.3939 977.8125,1530.222 C977.625,1530.0814 977.4531,1530.0501 977,1530.0501 L975.3594,1530.0501 L975.3594,1527.8626 Z " fill="#000000"/><text fill="#000000" font-family="sans-serif" font-size="14" lengthAdjust="spacing" textLength="132" x="993.5" y="1528.8061">category_backend.ts</text><text fill="#000000" font-family="sans-serif" font-size="14" lengthAdjust="spacing" textLength="131" x="994" y="1545.606">checkUserEligibility()</text><rect fill="#E2E2F0" height="36" rx="2.5" ry="2.5" style="stroke:#181818;stroke-width:0.5;" width="128" x="1142.5" y="82.5999"/><ellipse cx="1160.5" cy="100.5999" fill="#ADD8E6" rx="11" ry="11" style="stroke:#181818;stroke-width:1.0;"/><path d="M1164.3594,96.9124 C1164.3594,96.4749 1164.3438,96.3499 1164.2344,96.178 C1164.0781,95.928 1163.7813,95.7717 1163.4531,95.7717 C1163.1094,95.7717 1162.9219,95.9124 1162.7656,96.2874 C1162.2031,95.9592 1161.4375,95.7717 1160.5625,95.7717 C1158.4219,95.7717 1156.8281,97.0374 1156.8281,98.6936 C1156.8281,99.6467 1157.375,100.5374 1158.25,101.0061 C1158.8125,101.3186 1159.3438,101.4749 1160.4844,101.6624 C1161.6094,101.8655 1161.875,101.928 1162.25,102.0999 C1162.5938,102.2717 1162.8125,102.5686 1162.8125,102.8811 C1162.8125,103.5374 1161.8594,104.053 1160.6406,104.053 C1159.5469,104.053 1158.4844,103.5999 1158.3281,103.053 C1158.1875,102.6155 1158.1875,102.6155 1158.0625,102.4749 C1157.8906,102.3186 1157.6563,102.2405 1157.4063,102.2405 C1157.1094,102.2405 1156.8438,102.3655 1156.6563,102.5842 C1156.5313,102.7561 1156.4844,102.9436 1156.4844,103.3655 L1156.4844,104.4436 C1156.4844,105.2092 1156.7969,105.5842 1157.4063,105.5842 C1157.6875,105.5842 1157.8438,105.4905 1158.125,105.2092 C1158.9844,105.6311 1159.8281,105.8186 1160.75,105.8186 C1163.1094,105.8186 1164.7188,104.6467 1164.7188,102.9124 C1164.7188,102.053 1164.375,101.3655 1163.6875,100.8342 C1163.1563,100.428 1162.4844,100.1936 1160.9844,99.9436 C1159.7031,99.6936 1159.6406,99.678 1159.3125,99.5061 C1158.9688,99.3655 1158.7344,99.0061 1158.7344,98.678 C1158.7344,98.0374 1159.5469,97.5217 1160.5781,97.5217 C1161.625,97.5217 1162.3906,97.9436 1162.5313,98.5686 C1162.6563,99.0999 1162.6563,99.0999 1162.7969,99.2405 C1162.9531,99.3967 1163.2031,99.4905 1163.4531,99.4905 C1163.75,99.4905 1164,99.3655 1164.1875,99.1467 C1164.3281,98.9592 1164.3594,98.8186 1164.3594,98.3655 L1164.3594,96.9124 Z " fill="#000000"/><text fill="#000000" font-family="sans-serif" font-size="14" lengthAdjust="spacing" textLength="86" x="1177.5" y="102.6058">AuthManager</text><rect fill="#E2E2F0" height="36" rx="2.5" ry="2.5" style="stroke:#181818;stroke-width:0.5;" width="128" x="1142.5" y="1508.8001"/><ellipse cx="1160.5" cy="1526.8001" fill="#ADD8E6" rx="11" ry="11" style="stroke:#181818;stroke-width:1.0;"/><path d="M1164.3594,1523.1126 C1164.3594,1522.6751 1164.3438,1522.5501 1164.2344,1522.3782 C1164.0781,1522.1282 1163.7813,1521.972 1163.4531,1521.972 C1163.1094,1521.972 1162.9219,1522.1126 1162.7656,1522.4876 C1162.2031,1522.1595 1161.4375,1521.972 1160.5625,1521.972 C1158.4219,1521.972 1156.8281,1523.2376 1156.8281,1524.8939 C1156.8281,1525.847 1157.375,1526.7376 1158.25,1527.2064 C1158.8125,1527.5189 1159.3438,1527.6751 1160.4844,1527.8626 C1161.6094,1528.0657 1161.875,1528.1282 1162.25,1528.3001 C1162.5938,1528.472 1162.8125,1528.7689 1162.8125,1529.0814 C1162.8125,1529.7376 1161.8594,1530.2532 1160.6406,1530.2532 C1159.5469,1530.2532 1158.4844,1529.8001 1158.3281,1529.2532 C1158.1875,1528.8157 1158.1875,1528.8157 1158.0625,1528.6751 C1157.8906,1528.5189 1157.6563,1528.4407 1157.4063,1528.4407 C1157.1094,1528.4407 1156.8438,1528.5657 1156.6563,1528.7845 C1156.5313,1528.9564 1156.4844,1529.1439 1156.4844,1529.5657 L1156.4844,1530.6439 C1156.4844,1531.4095 1156.7969,1531.7845 1157.4063,1531.7845 C1157.6875,1531.7845 1157.8438,1531.6907 1158.125,1531.4095 C1158.9844,1531.8314 1159.8281,1532.0189 1160.75,1532.0189 C1163.1094,1532.0189 1164.7188,1530.847 1164.7188,1529.1126 C1164.7188,1528.2532 1164.375,1527.5657 1163.6875,1527.0345 C1163.1563,1526.6282 1162.4844,1526.3939 1160.9844,1526.1439 C1159.7031,1525.8939 1159.6406,1525.8782 1159.3125,1525.7064 C1158.9688,1525.5657 1158.7344,1525.2064 1158.7344,1524.8782 C1158.7344,1524.2376 1159.5469,1523.722 1160.5781,1523.722 C1161.625,1523.722 1162.3906,1524.1439 1162.5313,1524.7689 C1162.6563,1525.3001 1162.6563,1525.3001 1162.7969,1525.4407 C1162.9531,1525.597 1163.2031,1525.6907 1163.4531,1525.6907 C1163.75,1525.6907 1164,1525.5657 1164.1875,1525.347 C1164.3281,1525.1595 1164.3594,1525.0189 1164.3594,1524.5657 L1164.3594,1523.1126 Z " fill="#000000"/><text fill="#000000" font-family="sans-serif" font-size="14" lengthAdjust="spacing" textLength="86" x="1177.5" y="1528.8061">AuthManager</text><rect fill="#E2E2F0" height="47.5999" rx="2.5" ry="2.5" style="stroke:#181818;stroke-width:0.5;" width="113" x="1326" y="71"/><ellipse cx="1344" cy="89" fill="#FFA500" rx="11" ry="11" style="stroke:#181818;stroke-width:1.0;"/><path d="M1342.8594,90.0625 L1344.1719,90.0625 L1344.1719,90.1094 C1344.1719,90.5 1344.2031,90.6875 1344.2969,90.8438 C1344.4688,91.0938 1344.7656,91.2656 1345.0781,91.2656 C1345.3594,91.2656 1345.6406,91.125 1345.8281,90.9063 C1345.9531,90.7188 1346,90.5625 1346,90.1094 L1346,88.2813 C1346,87.8594 1345.9844,87.7344 1345.8594,87.5625 C1345.7031,87.2969 1345.4063,87.125 1345.0781,87.125 C1344.7813,87.125 1344.5156,87.2656 1344.3438,87.4844 C1344.2031,87.6719 1344.1719,87.8438 1344.1719,88.2813 L1344.1719,88.3281 L1342.8594,88.3281 L1342.8594,86.1563 L1347.0781,86.1563 L1347.0781,86.9219 C1347.0781,87.3125 1347.1094,87.4844 1347.2188,87.6406 C1347.3906,87.9063 1347.6719,88.0625 1348,88.0625 C1348.2813,88.0625 1348.5625,87.9375 1348.75,87.7031 C1348.8906,87.5156 1348.9219,87.375 1348.9219,86.9219 L1348.9219,84.4063 L1340.8438,84.4063 C1340.4063,84.4063 1340.2656,84.4219 1340.0938,84.5313 C1339.8281,84.7031 1339.6563,84.9844 1339.6563,85.2813 C1339.6563,85.5625 1339.8125,85.8438 1340.0313,86 C1340.2188,86.125 1340.4063,86.1563 1340.8438,86.1563 L1341.0313,86.1563 L1341.0313,92.25 L1340.8438,92.25 C1340.4219,92.25 1340.2656,92.2813 1340.0938,92.375 C1339.8281,92.5313 1339.6563,92.8281 1339.6563,93.1094 C1339.6563,93.6875 1340.0625,94 1340.8438,94 L1344.5,94 C1345.2813,94 1345.6875,93.7188 1345.6875,93.1094 C1345.6875,92.8438 1345.5469,92.5938 1345.3125,92.4219 C1345.125,92.2813 1344.9531,92.25 1344.5,92.25 L1342.8594,92.25 L1342.8594,90.0625 Z " fill="#000000"/><text fill="#000000" font-family="sans-serif" font-size="14" lengthAdjust="spacing" textLength="40" x="1376.5" y="91.0059">utils.ts</text><text fill="#000000" font-family="sans-serif" font-size="14" lengthAdjust="spacing" textLength="71" x="1361" y="107.8059">fetchJson()</text><rect fill="#E2E2F0" height="47.5999" rx="2.5" ry="2.5" style="stroke:#181818;stroke-width:0.5;" width="113" x="1326" y="1508.8001"/><ellipse cx="1344" cy="1526.8001" fill="#FFA500" rx="11" ry="11" style="stroke:#181818;stroke-width:1.0;"/><path d="M1342.8594,1527.8626 L1344.1719,1527.8626 L1344.1719,1527.9095 C1344.1719,1528.3001 1344.2031,1528.4876 1344.2969,1528.6439 C1344.4688,1528.8939 1344.7656,1529.0657 1345.0781,1529.0657 C1345.3594,1529.0657 1345.6406,1528.9251 1345.8281,1528.7064 C1345.9531,1528.5189 1346,1528.3626 1346,1527.9095 L1346,1526.0814 C1346,1525.6595 1345.9844,1525.5345 1345.8594,1525.3626 C1345.7031,1525.097 1345.4063,1524.9251 1345.0781,1524.9251 C1344.7813,1524.9251 1344.5156,1525.0657 1344.3438,1525.2845 C1344.2031,1525.472 1344.1719,1525.6439 1344.1719,1526.0814 L1344.1719,1526.1282 L1342.8594,1526.1282 L1342.8594,1523.9564 L1347.0781,1523.9564 L1347.0781,1524.722 C1347.0781,1525.1126 1347.1094,1525.2845 1347.2188,1525.4407 C1347.3906,1525.7064 1347.6719,1525.8626 1348,1525.8626 C1348.2813,1525.8626 1348.5625,1525.7376 1348.75,1525.5032 C1348.8906,1525.3157 1348.9219,1525.1751 1348.9219,1524.722 L1348.9219,1522.2064 L1340.8438,1522.2064 C1340.4063,1522.2064 1340.2656,1522.222 1340.0938,1522.3314 C1339.8281,1522.5032 1339.6563,1522.7845 1339.6563,1523.0814 C1339.6563,1523.3626 1339.8125,1523.6439 1340.0313,1523.8001 C1340.2188,1523.9251 1340.4063,1523.9564 1340.8438,1523.9564 L1341.0313,1523.9564 L1341.0313,1530.0501 L1340.8438,1530.0501 C1340.4219,1530.0501 1340.2656,1530.0814 1340.0938,1530.1751 C1339.8281,1530.3314 1339.6563,1530.6282 1339.6563,1530.9095 C1339.6563,1531.4876 1340.0625,1531.8001 1340.8438,1531.8001 L1344.5,1531.8001 C1345.2813,1531.8001 1345.6875,1531.5189 1345.6875,1530.9095 C1345.6875,1530.6439 1345.5469,1530.3939 1345.3125,1530.222 C1345.125,1530.0814 1344.9531,1530.0501 1344.5,1530.0501 L1342.8594,1530.0501 L1342.8594,1527.8626 Z " fill="#000000"/><text fill="#000000" font-family="sans-serif" font-size="14" lengthAdjust="spacing" textLength="40" x="1376.5" y="1528.8061">utils.ts</text><text fill="#000000" font-family="sans-serif" font-size="14" lengthAdjust="spacing" textLength="71" x="1361" y="1545.606">fetchJson()</text><rect fill="#E2E2F0" height="36" rx="2.5" ry="2.5" style="stroke:#181818;stroke-width:0.5;" width="119" x="1724" y="82.5999"/><ellipse cx="1742" cy="100.5999" fill="#FF6347" rx="11" ry="11" style="stroke:#181818;stroke-width:1.0;"/><path d="M1745.8594,96.9124 C1745.8594,96.4749 1745.8438,96.3499 1745.7344,96.178 C1745.5781,95.928 1745.2813,95.7717 1744.9531,95.7717 C1744.6094,95.7717 1744.4219,95.9124 1744.2656,96.2874 C1743.7031,95.9592 1742.9375,95.7717 1742.0625,95.7717 C1739.9219,95.7717 1738.3281,97.0374 1738.3281,98.6936 C1738.3281,99.6467 1738.875,100.5374 1739.75,101.0061 C1740.3125,101.3186 1740.8438,101.4749 1741.9844,101.6624 C1743.1094,101.8655 1743.375,101.928 1743.75,102.0999 C1744.0938,102.2717 1744.3125,102.5686 1744.3125,102.8811 C1744.3125,103.5374 1743.3594,104.053 1742.1406,104.053 C1741.0469,104.053 1739.9844,103.5999 1739.8281,103.053 C1739.6875,102.6155 1739.6875,102.6155 1739.5625,102.4749 C1739.3906,102.3186 1739.1563,102.2405 1738.9063,102.2405 C1738.6094,102.2405 1738.3438,102.3655 1738.1563,102.5842 C1738.0313,102.7561 1737.9844,102.9436 1737.9844,103.3655 L1737.9844,104.4436 C1737.9844,105.2092 1738.2969,105.5842 1738.9063,105.5842 C1739.1875,105.5842 1739.3438,105.4905 1739.625,105.2092 C1740.4844,105.6311 1741.3281,105.8186 1742.25,105.8186 C1744.6094,105.8186 1746.2188,104.6467 1746.2188,102.9124 C1746.2188,102.053 1745.875,101.3655 1745.1875,100.8342 C1744.6563,100.428 1743.9844,100.1936 1742.4844,99.9436 C1741.2031,99.6936 1741.1406,99.678 1740.8125,99.5061 C1740.4688,99.3655 1740.2344,99.0061 1740.2344,98.678 C1740.2344,98.0374 1741.0469,97.5217 1742.0781,97.5217 C1743.125,97.5217 1743.8906,97.9436 1744.0313,98.5686 C1744.1563,99.0999 1744.1563,99.0999 1744.2969,99.2405 C1744.4531,99.3967 1744.7031,99.4905 1744.9531,99.4905 C1745.25,99.4905 1745.5,99.3655 1745.6875,99.1467 C1745.8281,98.9592 1745.8594,98.8186 1745.8594,98.3655 L1745.8594,96.9124 Z " fill="#000000"/><text fill="#000000" font-family="sans-serif" font-size="14" lengthAdjust="spacing" textLength="77" x="1759" y="102.6058">BackendAPI</text><rect fill="#E2E2F0" height="36" rx="2.5" ry="2.5" style="stroke:#181818;stroke-width:0.5;" width="119" x="1724" y="1508.8001"/><ellipse cx="1742" cy="1526.8001" fill="#FF6347" rx="11" ry="11" style="stroke:#181818;stroke-width:1.0;"/><path d="M1745.8594,1523.1126 C1745.8594,1522.6751 1745.8438,1522.5501 1745.7344,1522.3782 C1745.5781,1522.1282 1745.2813,1521.972 1744.9531,1521.972 C1744.6094,1521.972 1744.4219,1522.1126 1744.2656,1522.4876 C1743.7031,1522.1595 1742.9375,1521.972 1742.0625,1521.972 C1739.9219,1521.972 1738.3281,1523.2376 1738.3281,1524.8939 C1738.3281,1525.847 1738.875,1526.7376 1739.75,1527.2064 C1740.3125,1527.5189 1740.8438,1527.6751 1741.9844,1527.8626 C1743.1094,1528.0657 1743.375,1528.1282 1743.75,1528.3001 C1744.0938,1528.472 1744.3125,1528.7689 1744.3125,1529.0814 C1744.3125,1529.7376 1743.3594,1530.2532 1742.1406,1530.2532 C1741.0469,1530.2532 1739.9844,1529.8001 1739.8281,1529.2532 C1739.6875,1528.8157 1739.6875,1528.8157 1739.5625,1528.6751 C1739.3906,1528.5189 1739.1563,1528.4407 1738.9063,1528.4407 C1738.6094,1528.4407 1738.3438,1528.5657 1738.1563,1528.7845 C1738.0313,1528.9564 1737.9844,1529.1439 1737.9844,1529.5657 L1737.9844,1530.6439 C1737.9844,1531.4095 1738.2969,1531.7845 1738.9063,1531.7845 C1739.1875,1531.7845 1739.3438,1531.6907 1739.625,1531.4095 C1740.4844,1531.8314 1741.3281,1532.0189 1742.25,1532.0189 C1744.6094,1532.0189 1746.2188,1530.847 1746.2188,1529.1126 C1746.2188,1528.2532 1745.875,1527.5657 1745.1875,1527.0345 C1744.6563,1526.6282 1743.9844,1526.3939 1742.4844,1526.1439 C1741.2031,1525.8939 1741.1406,1525.8782 1740.8125,1525.7064 C1740.4688,1525.5657 1740.2344,1525.2064 1740.2344,1524.8782 C1740.2344,1524.2376 1741.0469,1523.722 1742.0781,1523.722 C1743.125,1523.722 1743.8906,1524.1439 1744.0313,1524.7689 C1744.1563,1525.3001 1744.1563,1525.3001 1744.2969,1525.4407 C1744.4531,1525.597 1744.7031,1525.6907 1744.9531,1525.6907 C1745.25,1525.6907 1745.5,1525.5657 1745.6875,1525.347 C1745.8281,1525.1595 1745.8594,1525.0189 1745.8594,1524.5657 L1745.8594,1523.1126 Z " fill="#000000"/><text fill="#000000" font-family="sans-serif" font-size="14" lengthAdjust="spacing" textLength="77" x="1759" y="1528.8061">BackendAPI</text><rect fill="#E2E2F0" height="36" rx="2.5" ry="2.5" style="stroke:#181818;stroke-width:0.5;" width="117" x="1853" y="82.5999"/><ellipse cx="1871" cy="100.5999" fill="#808080" rx="11" ry="11" style="stroke:#181818;stroke-width:1.0;"/><path d="M1874.8594,96.9124 C1874.8594,96.4749 1874.8438,96.3499 1874.7344,96.178 C1874.5781,95.928 1874.2813,95.7717 1873.9531,95.7717 C1873.6094,95.7717 1873.4219,95.9124 1873.2656,96.2874 C1872.7031,95.9592 1871.9375,95.7717 1871.0625,95.7717 C1868.9219,95.7717 1867.3281,97.0374 1867.3281,98.6936 C1867.3281,99.6467 1867.875,100.5374 1868.75,101.0061 C1869.3125,101.3186 1869.8438,101.4749 1870.9844,101.6624 C1872.1094,101.8655 1872.375,101.928 1872.75,102.0999 C1873.0938,102.2717 1873.3125,102.5686 1873.3125,102.8811 C1873.3125,103.5374 1872.3594,104.053 1871.1406,104.053 C1870.0469,104.053 1868.9844,103.5999 1868.8281,103.053 C1868.6875,102.6155 1868.6875,102.6155 1868.5625,102.4749 C1868.3906,102.3186 1868.1563,102.2405 1867.9063,102.2405 C1867.6094,102.2405 1867.3438,102.3655 1867.1563,102.5842 C1867.0313,102.7561 1866.9844,102.9436 1866.9844,103.3655 L1866.9844,104.4436 C1866.9844,105.2092 1867.2969,105.5842 1867.9063,105.5842 C1868.1875,105.5842 1868.3438,105.4905 1868.625,105.2092 C1869.4844,105.6311 1870.3281,105.8186 1871.25,105.8186 C1873.6094,105.8186 1875.2188,104.6467 1875.2188,102.9124 C1875.2188,102.053 1874.875,101.3655 1874.1875,100.8342 C1873.6563,100.428 1872.9844,100.1936 1871.4844,99.9436 C1870.2031,99.6936 1870.1406,99.678 1869.8125,99.5061 C1869.4688,99.3655 1869.2344,99.0061 1869.2344,98.678 C1869.2344,98.0374 1870.0469,97.5217 1871.0781,97.5217 C1872.125,97.5217 1872.8906,97.9436 1873.0313,98.5686 C1873.1563,99.0999 1873.1563,99.0999 1873.2969,99.2405 C1873.4531,99.3967 1873.7031,99.4905 1873.9531,99.4905 C1874.25,99.4905 1874.5,99.3655 1874.6875,99.1467 C1874.8281,98.9592 1874.8594,98.8186 1874.8594,98.3655 L1874.8594,96.9124 Z " fill="#000000"/><text fill="#000000" font-family="sans-serif" font-size="14" lengthAdjust="spacing" textLength="75" x="1888" y="102.6058">QueryClient</text><rect fill="#E2E2F0" height="36" rx="2.5" ry="2.5" style="stroke:#181818;stroke-width:0.5;" width="117" x="1853" y="1508.8001"/><ellipse cx="1871" cy="1526.8001" fill="#808080" rx="11" ry="11" style="stroke:#181818;stroke-width:1.0;"/><path d="M1874.8594,1523.1126 C1874.8594,1522.6751 1874.8438,1522.5501 1874.7344,1522.3782 C1874.5781,1522.1282 1874.2813,1521.972 1873.9531,1521.972 C1873.6094,1521.972 1873.4219,1522.1126 1873.2656,1522.4876 C1872.7031,1522.1595 1871.9375,1521.972 1871.0625,1521.972 C1868.9219,1521.972 1867.3281,1523.2376 1867.3281,1524.8939 C1867.3281,1525.847 1867.875,1526.7376 1868.75,1527.2064 C1869.3125,1527.5189 1869.8438,1527.6751 1870.9844,1527.8626 C1872.1094,1528.0657 1872.375,1528.1282 1872.75,1528.3001 C1873.0938,1528.472 1873.3125,1528.7689 1873.3125,1529.0814 C1873.3125,1529.7376 1872.3594,1530.2532 1871.1406,1530.2532 C1870.0469,1530.2532 1868.9844,1529.8001 1868.8281,1529.2532 C1868.6875,1528.8157 1868.6875,1528.8157 1868.5625,1528.6751 C1868.3906,1528.5189 1868.1563,1528.4407 1867.9063,1528.4407 C1867.6094,1528.4407 1867.3438,1528.5657 1867.1563,1528.7845 C1867.0313,1528.9564 1866.9844,1529.1439 1866.9844,1529.5657 L1866.9844,1530.6439 C1866.9844,1531.4095 1867.2969,1531.7845 1867.9063,1531.7845 C1868.1875,1531.7845 1868.3438,1531.6907 1868.625,1531.4095 C1869.4844,1531.8314 1870.3281,1532.0189 1871.25,1532.0189 C1873.6094,1532.0189 1875.2188,1530.847 1875.2188,1529.1126 C1875.2188,1528.2532 1874.875,1527.5657 1874.1875,1527.0345 C1873.6563,1526.6282 1872.9844,1526.3939 1871.4844,1526.1439 C1870.2031,1525.8939 1870.1406,1525.8782 1869.8125,1525.7064 C1869.4688,1525.5657 1869.2344,1525.2064 1869.2344,1524.8782 C1869.2344,1524.2376 1870.0469,1523.722 1871.0781,1523.722 C1872.125,1523.722 1872.8906,1524.1439 1873.0313,1524.7689 C1873.1563,1525.3001 1873.1563,1525.3001 1873.2969,1525.4407 C1873.4531,1525.597 1873.7031,1525.6907 1873.9531,1525.6907 C1874.25,1525.6907 1874.5,1525.5657 1874.6875,1525.347 C1874.8281,1525.1595 1874.8594,1525.0189 1874.8594,1524.5657 L1874.8594,1523.1126 Z " fill="#000000"/><text fill="#000000" font-family="sans-serif" font-size="14" lengthAdjust="spacing" textLength="75" x="1888" y="1528.8061">QueryClient</text><rect fill="#E2E2F0" height="36" rx="2.5" ry="2.5" style="stroke:#181818;stroke-width:0.5;" width="91" x="1980" y="82.5999"/><ellipse cx="1998" cy="100.5999" fill="#FFC0CB" rx="11" ry="11" style="stroke:#181818;stroke-width:1.0;"/><path d="M1993,101.7561 C1993,104.2561 1995.1406,106.0686 1998.0625,106.0686 C1999.2969,106.0686 2000.4688,105.7717 2001.2188,105.2561 C2001.8281,104.8342 2002.1563,104.4124 2002.1563,104.0061 C2002.1563,103.5374 2001.7344,103.1311 2001.2344,103.1311 C2001,103.1311 2000.7813,103.2092 2000.5781,103.4124 C2000.1406,103.8499 2000.1406,103.8499 1999.9688,103.9436 C1999.5156,104.178 1998.875,104.3186 1998.1094,104.3186 C1996.1094,104.3186 1994.8281,103.303 1994.8281,101.7249 L1994.8281,100.678 C1994.8281,98.9749 1996.0469,97.7717 1997.75,97.7717 C1998.3281,97.7717 1998.9063,97.9124 1999.375,98.1624 C1999.8438,98.428 2000.0156,98.6155 2000.0781,98.9749 C2000.2031,99.6467 2000.4531,99.8967 2000.9844,99.8967 C2001.2656,99.8967 2001.5469,99.7561 2001.7344,99.5374 C2001.8594,99.3655 2001.9063,99.1936 2001.9063,98.7561 L2001.9063,97.3967 C2001.9063,96.9749 2001.8906,96.8342 2001.7656,96.6624 C2001.5938,96.4124 2001.3125,96.2561 2000.9844,96.2561 C2000.6719,96.2561 2000.4688,96.3655 2000.25,96.6311 C1999.0781,96.1311 1998.6406,96.0217 1997.6875,96.0217 C1995.0156,96.0217 1993,98.0374 1993,100.6624 L1993,101.7561 Z " fill="#000000"/><text fill="#000000" font-family="sans-serif" font-size="14" lengthAdjust="spacing" textLength="49" x="2015" y="102.6058">Toaster</text><rect fill="#E2E2F0" height="36" rx="2.5" ry="2.5" style="stroke:#181818;stroke-width:0.5;" width="91" x="1980" y="1508.8001"/><ellipse cx="1998" cy="1526.8001" fill="#FFC0CB" rx="11" ry="11" style="stroke:#181818;stroke-width:1.0;"/><path d="M1993,1527.9564 C1993,1530.4564 1995.1406,1532.2689 1998.0625,1532.2689 C1999.2969,1532.2689 2000.4688,1531.972 2001.2188,1531.4564 C2001.8281,1531.0345 2002.1563,1530.6126 2002.1563,1530.2064 C2002.1563,1529.7376 2001.7344,1529.3314 2001.2344,1529.3314 C2001,1529.3314 2000.7813,1529.4095 2000.5781,1529.6126 C2000.1406,1530.0501 2000.1406,1530.0501 1999.9688,1530.1439 C1999.5156,1530.3782 1998.875,1530.5189 1998.1094,1530.5189 C1996.1094,1530.5189 1994.8281,1529.5032 1994.8281,1527.9251 L1994.8281,1526.8782 C1994.8281,1525.1751 1996.0469,1523.972 1997.75,1523.972 C1998.3281,1523.972 1998.9063,1524.1126 1999.375,1524.3626 C1999.8438,1524.6282 2000.0156,1524.8157 2000.0781,1525.1751 C2000.2031,1525.847 2000.4531,1526.097 2000.9844,1526.097 C2001.2656,1526.097 2001.5469,1525.9564 2001.7344,1525.7376 C2001.8594,1525.5657 2001.9063,1525.3939 2001.9063,1524.9564 L2001.9063,1523.597 C2001.9063,1523.1751 2001.8906,1523.0345 2001.7656,1522.8626 C2001.5938,1522.6126 2001.3125,1522.4564 2000.9844,1522.4564 C2000.6719,1522.4564 2000.4688,1522.5657 2000.25,1522.8314 C1999.0781,1522.3314 1998.6406,1522.222 1997.6875,1522.222 C1995.0156,1522.222 1993,1524.2376 1993,1526.8626 L1993,1527.9564 Z " fill="#000000"/><text fill="#000000" font-family="sans-serif" font-size="14" lengthAdjust="spacing" textLength="49" x="2015" y="1528.8061">Toaster</text><rect fill="#FFFFFF" height="1348.6003" style="stroke:#181818;stroke-width:1.0;" width="10" x="303.5" y="151.1999"/><rect fill="#FFFFFF" height="83.8" style="stroke:#181818;stroke-width:1.0;" width="10" x="639.5" y="745.8"/><rect fill="#FFFFFF" height="559.2001" style="stroke:#181818;stroke-width:1.0;" width="10" x="843.5" y="918.4001"/><rect fill="#FFFFFF" height="313.2" style="stroke:#181818;stroke-width:1.0;" width="10" x="1040.5" y="366.4"/><rect fill="#FFFFFF" height="29.6" style="stroke:#181818;stroke-width:1.0;" width="10" x="1201.5" y="425.6"/><rect fill="#FFFFFF" height="29.6" style="stroke:#181818;stroke-width:1.0;" width="10" x="1201.5" y="859.2001"/><rect fill="#FFFFFF" height="29.6" style="stroke:#181818;stroke-width:1.0;" width="10" x="1201.5" y="977.6001"/><rect fill="#FFFFFF" height="262" style="stroke:#181818;stroke-width:1.0;" width="10" x="1377.5" y="396"/><rect fill="#FFFFFF" height="529.6001" style="stroke:#181818;stroke-width:1.0;" width="10" x="1377.5" y="948.0001"/><rect fill="#FFFFFF" height="173.2" style="stroke:#181818;stroke-width:1.0;" width="10" x="1778.5" y="484.8"/><rect fill="#FFFFFF" height="440.8001" style="stroke:#181818;stroke-width:1.0;" width="10" x="1778.5" y="1036.8002"/><rect fill="#FFFFFF" height="372.4001" style="stroke:#181818;stroke-width:1.0;" width="10" x="1906.5" y="336.7999"/><rect fill="#FFFFFF" height="30" style="stroke:#181818;stroke-width:1.0;" width="10" x="1906.5" y="1269.0003"/><rect fill="#FFFFFF" height="30" style="stroke:#181818;stroke-width:1.0;" width="10" x="2020.5" y="1179.8002"/><rect fill="#FFFFFF" height="30" style="stroke:#181818;stroke-width:1.0;" width="10" x="2020.5" y="1432.6002"/><polygon fill="#181818" points="291.5,147.1999,301.5,151.1999,291.5,155.1999,295.5,151.1999" style="stroke:#181818;stroke-width:1.0;"/><line style="stroke:#181818;stroke-width:1.0;" x1="47.5" x2="297.5" y1="151.1999" y2="151.1999"/><text fill="#000000" font-family="sans-serif" font-size="13" lengthAdjust="spacing" textLength="237" x="54.5" y="145.6769">Navigates to /dashboard_user/categories</text><polygon fill="#181818" points="1899.5,176.7999,1909.5,180.7999,1899.5,184.7999,1903.5,180.7999" style="stroke:#181818;stroke-width:1.0;"/><line style="stroke:#181818;stroke-width:1.0;" x1="313.5" x2="1905.5" y1="180.7999" y2="180.7999"/><text fill="#000000" font-family="sans-serif" font-size="13" lengthAdjust="spacing" textLength="151" x="320.5" y="175.2769">useQuery(['allCategories'])</text><polygon fill="#181818" points="1899.5,206.3999,1909.5,210.3999,1899.5,214.3999,1903.5,210.3999" style="stroke:#181818;stroke-width:1.0;"/><line style="stroke:#181818;stroke-width:1.0;" x1="313.5" x2="1905.5" y1="210.3999" y2="210.3999"/><text fill="#000000" font-family="sans-serif" font-size="13" lengthAdjust="spacing" textLength="207" x="320.5" y="204.8769">useQuery(['userCategories', userId])</text><polygon fill="#181818" points="1899.5,235.9999,1909.5,239.9999,1899.5,243.9999,1903.5,239.9999" style="stroke:#181818;stroke-width:1.0;"/><line style="stroke:#181818;stroke-width:1.0;" x1="313.5" x2="1905.5" y1="239.9999" y2="239.9999"/><text fill="#000000" font-family="sans-serif" font-size="13" lengthAdjust="spacing" textLength="268" x="320.5" y="234.4769">useQueries (for requirements of all categories)</text><line style="stroke:#181818;stroke-width:1.0;" x1="313.5" x2="355.5" y1="269.5999" y2="269.5999"/><line style="stroke:#181818;stroke-width:1.0;" x1="355.5" x2="355.5" y1="269.5999" y2="282.5999"/><line style="stroke:#181818;stroke-width:1.0;" x1="314.5" x2="355.5" y1="282.5999" y2="282.5999"/><polygon fill="#181818" points="324.5,278.5999,314.5,282.5999,324.5,286.5999,320.5,282.5999" style="stroke:#181818;stroke-width:1.0;"/><text fill="#000000" font-family="sans-serif" font-size="13" lengthAdjust="spacing" textLength="207" x="320.5" y="264.0769">Determines 'potentiallyAvailableList'</text><path d="M180,297.5999 L253,297.5999 L253,305.1999 L243,315.1999 L180,315.1999 L180,297.5999 " fill="#EEEEEE" style="stroke:#000000;stroke-width:1.5;"/><rect fill="none" height="419.6001" style="stroke:#000000;stroke-width:1.5;" width="1800" x="180" y="297.5999"/><text fill="#000000" font-family="sans-serif" font-size="13" font-weight="bold" lengthAdjust="spacing" textLength="28" x="195" y="310.6769">loop</text><text fill="#000000" font-family="sans-serif" font-size="11" font-weight="bold" lengthAdjust="spacing" textLength="240" x="268" y="309.8188">[for each category in potentiallyAvailableList]</text><polygon fill="#181818" points="1894.5,332.7999,1904.5,336.7999,1894.5,340.7999,1898.5,336.7999" style="stroke:#181818;stroke-width:1.0;"/><line style="stroke:#181818;stroke-width:1.0;" x1="313.5" x2="1900.5" y1="336.7999" y2="336.7999"/><text fill="#000000" font-family="sans-serif" font-size="13" lengthAdjust="spacing" textLength="259" x="320.5" y="331.2769">useQuery(['categoryEligibility', catId, userId])</text><polygon fill="#181818" points="1061.5,362.4,1051.5,366.4,1061.5,370.4,1057.5,366.4" style="stroke:#181818;stroke-width:1.0;"/><line style="stroke:#181818;stroke-width:1.0;" x1="1055.5" x2="1905.5" y1="366.4" y2="366.4"/><text fill="#000000" font-family="sans-serif" font-size="13" lengthAdjust="spacing" textLength="195" x="1067.5" y="360.877">checkUserEligibility(catId, userId)</text><polygon fill="#181818" points="1365.5,392,1375.5,396,1365.5,400,1369.5,396" style="stroke:#181818;stroke-width:1.0;"/><line style="stroke:#181818;stroke-width:1.0;" x1="1050.5" x2="1371.5" y1="396" y2="396"/><text fill="#000000" font-family="sans-serif" font-size="13" lengthAdjust="spacing" textLength="308" x="1057.5" y="390.477">fetchJson("/categories/{catId}/users/{userId}/eligible")</text><polygon fill="#181818" points="1222.5,421.6,1212.5,425.6,1222.5,429.6,1218.5,425.6" style="stroke:#181818;stroke-width:1.0;"/><line style="stroke:#181818;stroke-width:1.0;" x1="1216.5" x2="1376.5" y1="425.6" y2="425.6"/><text fill="#000000" font-family="sans-serif" font-size="13" lengthAdjust="spacing" textLength="62" x="1228.5" y="420.077">getToken()</text><polygon fill="#181818" points="1365.5,451.2,1375.5,455.2,1365.5,459.2,1369.5,455.2" style="stroke:#181818;stroke-width:1.0;"/><line style="stroke:#181818;stroke-width:1.0;stroke-dasharray:2.0,2.0;" x1="1206.5" x2="1371.5" y1="455.2" y2="455.2"/><text fill="#000000" font-family="sans-serif" font-size="13" lengthAdjust="spacing" textLength="102" x="1213.5" y="449.677">"user_token_abc"</text><polygon fill="#181818" points="1766.5,480.8,1776.5,484.8,1766.5,488.8,1770.5,484.8" style="stroke:#181818;stroke-width:1.0;"/><line style="stroke:#181818;stroke-width:1.0;" x1="1387.5" x2="1772.5" y1="484.8" y2="484.8"/><text fill="#000000" font-family="sans-serif" font-size="13" lengthAdjust="spacing" textLength="264" x="1394.5" y="479.277">GET /categories/{catId}/users/{userId}/eligible</text><path d="M948.5,499.8 L1008.5,499.8 L1008.5,507.4 L998.5,517.4 L948.5,517.4 L948.5,499.8 " fill="#EEEEEE" style="stroke:#000000;stroke-width:1.5;"/><rect fill="none" height="151.2" style="stroke:#000000;stroke-width:1.5;" width="904.5" x="948.5" y="499.8"/><text fill="#000000" font-family="sans-serif" font-size="13" font-weight="bold" lengthAdjust="spacing" textLength="15" x="963.5" y="512.877">alt</text><text fill="#000000" font-family="sans-serif" font-size="11" font-weight="bold" lengthAdjust="spacing" textLength="47" x="1023.5" y="512.0189">[Eligible]</text><polygon fill="#181818" points="1398.5,535,1388.5,539,1398.5,543,1394.5,539" style="stroke:#181818;stroke-width:1.0;"/><line style="stroke:#181818;stroke-width:1.0;stroke-dasharray:2.0,2.0;" x1="1392.5" x2="1777.5" y1="539" y2="539"/><text fill="#000000" font-family="sans-serif" font-size="13" lengthAdjust="spacing" textLength="116" x="1404.5" y="533.477">HTTP 200 OK (true)</text><polygon fill="#181818" points="1061.5,564.6001,1051.5,568.6001,1061.5,572.6001,1057.5,568.6001" style="stroke:#181818;stroke-width:1.0;"/><line style="stroke:#181818;stroke-width:1.0;stroke-dasharray:2.0,2.0;" x1="1055.5" x2="1376.5" y1="568.6001" y2="568.6001"/><text fill="#000000" font-family="sans-serif" font-size="13" lengthAdjust="spacing" textLength="22" x="1067.5" y="563.0771">true</text><line style="stroke:#000000;stroke-width:1.0;stroke-dasharray:2.0,2.0;" x1="948.5" x2="1853" y1="577.6001" y2="577.6001"/><text fill="#000000" font-family="sans-serif" font-size="11" font-weight="bold" lengthAdjust="spacing" textLength="236" x="953.5" y="587.819">[Not Eligible (or error treated as not eligible)]</text><polygon fill="#181818" points="1398.5,609.4,1388.5,613.4,1398.5,617.4,1394.5,613.4" style="stroke:#181818;stroke-width:1.0;"/><line style="stroke:#181818;stroke-width:1.0;stroke-dasharray:2.0,2.0;" x1="1392.5" x2="1777.5" y1="613.4" y2="613.4"/><text fill="#000000" font-family="sans-serif" font-size="13" lengthAdjust="spacing" textLength="367" x="1404.5" y="607.877">HTTP Error (e.g., 400, 403, 404 meaning requirements not met)</text><polygon fill="#181818" points="1061.5,639,1051.5,643,1061.5,647,1057.5,643" style="stroke:#181818;stroke-width:1.0;"/><line style="stroke:#181818;stroke-width:1.0;" x1="1055.5" x2="1376.5" y1="643" y2="643"/><text fill="#000000" font-family="sans-serif" font-size="13" lengthAdjust="spacing" textLength="214" x="1067.5" y="637.477">throws Error(message from backend)</text><polygon fill="#181818" points="1894.5,675.6,1904.5,679.6,1894.5,683.6,1898.5,679.6" style="stroke:#181818;stroke-width:1.0;"/><line style="stroke:#181818;stroke-width:1.0;stroke-dasharray:2.0,2.0;" x1="1045.5" x2="1900.5" y1="679.6" y2="679.6"/><text fill="#000000" font-family="sans-serif" font-size="13" lengthAdjust="spacing" textLength="111" x="1052.5" y="674.077">true or throws Error</text><polygon fill="#181818" points="324.5,705.2,314.5,709.2,324.5,713.2,320.5,709.2" style="stroke:#181818;stroke-width:1.0;"/><line style="stroke:#181818;stroke-width:1.0;stroke-dasharray:2.0,2.0;" x1="318.5" x2="1910.5" y1="709.2" y2="709.2"/><text fill="#000000" font-family="sans-serif" font-size="13" lengthAdjust="spacing" textLength="142" x="330.5" y="703.677">EligibilityStatus for catId</text><polygon fill="#181818" points="627.5,741.8,637.5,745.8,627.5,749.8,631.5,745.8" style="stroke:#181818;stroke-width:1.0;"/><line style="stroke:#181818;stroke-width:1.0;" x1="313.5" x2="633.5" y1="745.8" y2="745.8"/><text fill="#000000" font-family="sans-serif" font-size="13" lengthAdjust="spacing" textLength="307" x="320.5" y="740.277">Renders available category card with eligibility status</text><path d="M10,760.8 L70,760.8 L70,768.4 L60,778.4 L10,778.4 L10,760.8 " fill="#EEEEEE" style="stroke:#000000;stroke-width:1.5;"/><rect fill="none" height="732.0001" style="stroke:#000000;stroke-width:1.5;" width="2081" x="10" y="760.8"/><text fill="#000000" font-family="sans-serif" font-size="13" font-weight="bold" lengthAdjust="spacing" textLength="15" x="25" y="773.877">alt</text><text fill="#000000" font-family="sans-serif" font-size="11" font-weight="bold" lengthAdjust="spacing" textLength="278" x="85" y="773.019">[User sees an eligible category and clicks "Register"]</text><polygon fill="#181818" points="627.5,796.0001,637.5,800.0001,627.5,804.0001,631.5,800.0001" style="stroke:#181818;stroke-width:1.0;"/><line style="stroke:#181818;stroke-width:1.0;" x1="47.5" x2="633.5" y1="800.0001" y2="800.0001"/><text fill="#000000" font-family="sans-serif" font-size="13" lengthAdjust="spacing" textLength="98" x="54.5" y="794.4771">Clicks "Register"</text><polygon fill="#181818" points="324.5,825.6001,314.5,829.6001,324.5,833.6001,320.5,829.6001" style="stroke:#181818;stroke-width:1.0;"/><line style="stroke:#181818;stroke-width:1.0;" x1="318.5" x2="643.5" y1="829.6001" y2="829.6001"/><text fill="#000000" font-family="sans-serif" font-size="13" lengthAdjust="spacing" textLength="131" x="330.5" y="824.0771">onRegister(categoryId)</text><polygon fill="#181818" points="1189.5,855.2001,1199.5,859.2001,1189.5,863.2001,1193.5,859.2001" style="stroke:#181818;stroke-width:1.0;"/><line style="stroke:#181818;stroke-width:1.0;" x1="313.5" x2="1195.5" y1="859.2001" y2="859.2001"/><text fill="#000000" font-family="sans-serif" font-size="13" lengthAdjust="spacing" textLength="398" x="320.5" y="853.6771">getUserId() ' (already has it from loader, but for pattern consistency) '</text><polygon fill="#181818" points="324.5,884.8001,314.5,888.8001,324.5,892.8001,320.5,888.8001" style="stroke:#181818;stroke-width:1.0;"/><line style="stroke:#181818;stroke-width:1.0;stroke-dasharray:2.0,2.0;" x1="318.5" x2="1205.5" y1="888.8001" y2="888.8001"/><text fill="#000000" font-family="sans-serif" font-size="13" lengthAdjust="spacing" textLength="36" x="330.5" y="883.2771">userId</text><polygon fill="#181818" points="831.5,914.4001,841.5,918.4001,831.5,922.4001,835.5,918.4001" style="stroke:#181818;stroke-width:1.0;"/><line style="stroke:#181818;stroke-width:1.0;" x1="313.5" x2="837.5" y1="918.4001" y2="918.4001"/><text fill="#000000" font-family="sans-serif" font-size="13" lengthAdjust="spacing" textLength="246" x="320.5" y="912.8771">registerUserInCategory(categoryId, userId)</text><polygon fill="#181818" points="1365.5,944.0001,1375.5,948.0001,1365.5,952.0001,1369.5,948.0001" style="stroke:#181818;stroke-width:1.0;"/><line style="stroke:#181818;stroke-width:1.0;" x1="853.5" x2="1371.5" y1="948.0001" y2="948.0001"/><text fill="#000000" font-family="sans-serif" font-size="13" lengthAdjust="spacing" textLength="316" x="860.5" y="942.4771">fetchJson("/categories/{catId}/users/{userId}", {POST})</text><polygon fill="#181818" points="1222.5,973.6001,1212.5,977.6001,1222.5,981.6001,1218.5,977.6001" style="stroke:#181818;stroke-width:1.0;"/><line style="stroke:#181818;stroke-width:1.0;" x1="1216.5" x2="1376.5" y1="977.6001" y2="977.6001"/><text fill="#000000" font-family="sans-serif" font-size="13" lengthAdjust="spacing" textLength="62" x="1228.5" y="972.0771">getToken()</text><polygon fill="#181818" points="1365.5,1003.2002,1375.5,1007.2002,1365.5,1011.2002,1369.5,1007.2002" style="stroke:#181818;stroke-width:1.0;"/><line style="stroke:#181818;stroke-width:1.0;stroke-dasharray:2.0,2.0;" x1="1206.5" x2="1371.5" y1="1007.2002" y2="1007.2002"/><text fill="#000000" font-family="sans-serif" font-size="13" lengthAdjust="spacing" textLength="102" x="1213.5" y="1001.6772">"user_token_abc"</text><polygon fill="#181818" points="1766.5,1032.8002,1776.5,1036.8002,1766.5,1040.8002,1770.5,1036.8002" style="stroke:#181818;stroke-width:1.0;"/><line style="stroke:#181818;stroke-width:1.0;" x1="1387.5" x2="1772.5" y1="1036.8002" y2="1036.8002"/><text fill="#000000" font-family="sans-serif" font-size="13" lengthAdjust="spacing" textLength="229" x="1394.5" y="1031.2772">POST /categories/{catId}/users/{userId}</text><path d="M180,1051.8002 L240,1051.8002 L240,1059.4002 L230,1069.4002 L180,1069.4002 L180,1051.8002 " fill="#EEEEEE" style="stroke:#000000;stroke-width:1.5;"/><rect fill="none" height="418.8001" style="stroke:#000000;stroke-width:1.5;" width="1901" x="180" y="1051.8002"/><text fill="#000000" font-family="sans-serif" font-size="13" font-weight="bold" lengthAdjust="spacing" textLength="15" x="195" y="1064.8772">alt</text><text fill="#000000" font-family="sans-serif" font-size="11" font-weight="bold" lengthAdjust="spacing" textLength="133" x="255" y="1064.0191">[Registration successful]</text><polygon fill="#181818" points="1398.5,1087.0002,1388.5,1091.0002,1398.5,1095.0002,1394.5,1091.0002" style="stroke:#181818;stroke-width:1.0;"/><line style="stroke:#181818;stroke-width:1.0;stroke-dasharray:2.0,2.0;" x1="1392.5" x2="1777.5" y1="1091.0002" y2="1091.0002"/><text fill="#000000" font-family="sans-serif" font-size="13" lengthAdjust="spacing" textLength="183" x="1404.5" y="1085.4772">HTTP 200 OK (message string)</text><polygon fill="#181818" points="864.5,1116.6002,854.5,1120.6002,864.5,1124.6002,860.5,1120.6002" style="stroke:#181818;stroke-width:1.0;"/><line style="stroke:#181818;stroke-width:1.0;stroke-dasharray:2.0,2.0;" x1="858.5" x2="1376.5" y1="1120.6002" y2="1120.6002"/><text fill="#000000" font-family="sans-serif" font-size="13" lengthAdjust="spacing" textLength="158" x="870.5" y="1115.0772">"Successfully registered..."</text><polygon fill="#181818" points="324.5,1146.2002,314.5,1150.2002,324.5,1154.2002,320.5,1150.2002" style="stroke:#181818;stroke-width:1.0;"/><line style="stroke:#181818;stroke-width:1.0;stroke-dasharray:2.0,2.0;" x1="318.5" x2="842.5" y1="1150.2002" y2="1150.2002"/><text fill="#000000" font-family="sans-serif" font-size="13" lengthAdjust="spacing" textLength="158" x="330.5" y="1144.6772">"Successfully registered..."</text><polygon fill="#181818" points="2008.5,1175.8002,2018.5,1179.8002,2008.5,1183.8002,2012.5,1179.8002" style="stroke:#181818;stroke-width:1.0;"/><line style="stroke:#181818;stroke-width:1.0;" x1="313.5" x2="2014.5" y1="1179.8002" y2="1179.8002"/><text fill="#000000" font-family="sans-serif" font-size="13" lengthAdjust="spacing" textLength="313" x="320.5" y="1174.2772">toast.success("Successfully registered for category!")</text><polygon fill="#181818" points="1899.5,1235.4002,1909.5,1239.4002,1899.5,1243.4002,1903.5,1239.4002" style="stroke:#181818;stroke-width:1.0;"/><line style="stroke:#181818;stroke-width:1.0;" x1="313.5" x2="1905.5" y1="1239.4002" y2="1239.4002"/><text fill="#000000" font-family="sans-serif" font-size="13" lengthAdjust="spacing" textLength="251" x="320.5" y="1233.8772">invalidateQueries(['userCategories', userId])</text><polygon fill="#181818" points="1894.5,1265.0003,1904.5,1269.0003,1894.5,1273.0003,1898.5,1269.0003" style="stroke:#181818;stroke-width:1.0;"/><line style="stroke:#181818;stroke-width:1.0;" x1="313.5" x2="1900.5" y1="1269.0003" y2="1269.0003"/><text fill="#000000" font-family="sans-serif" font-size="13" lengthAdjust="spacing" textLength="666" x="320.5" y="1263.4773">invalidateQueries(['categoryEligibility', categoryId, userId]) ' Re-check eligibility, though it should now be registered '</text><line style="stroke:#000000;stroke-width:1.0;stroke-dasharray:2.0,2.0;" x1="180" x2="2081" y1="1308.0003" y2="1308.0003"/><text fill="#000000" font-family="sans-serif" font-size="11" font-weight="bold" lengthAdjust="spacing" textLength="105" x="185" y="1318.2192">[Registration failed]</text><polygon fill="#181818" points="1398.5,1339.8002,1388.5,1343.8002,1398.5,1347.8002,1394.5,1343.8002" style="stroke:#181818;stroke-width:1.0;"/><line style="stroke:#181818;stroke-width:1.0;stroke-dasharray:2.0,2.0;" x1="1392.5" x2="1777.5" y1="1343.8002" y2="1343.8002"/><text fill="#000000" font-family="sans-serif" font-size="13" lengthAdjust="spacing" textLength="66" x="1404.5" y="1338.2772">HTTP Error</text><polygon fill="#181818" points="864.5,1369.4002,854.5,1373.4002,864.5,1377.4002,860.5,1373.4002" style="stroke:#181818;stroke-width:1.0;"/><line style="stroke:#181818;stroke-width:1.0;" x1="858.5" x2="1376.5" y1="1373.4002" y2="1373.4002"/><text fill="#000000" font-family="sans-serif" font-size="13" lengthAdjust="spacing" textLength="70" x="870.5" y="1367.8772">throws Error</text><polygon fill="#181818" points="324.5,1399.0002,314.5,1403.0002,324.5,1407.0002,320.5,1403.0002" style="stroke:#181818;stroke-width:1.0;"/><line style="stroke:#181818;stroke-width:1.0;stroke-dasharray:2.0,2.0;" x1="318.5" x2="842.5" y1="1403.0002" y2="1403.0002"/><text fill="#000000" font-family="sans-serif" font-size="13" lengthAdjust="spacing" textLength="70" x="330.5" y="1397.4772">throws Error</text><polygon fill="#181818" points="2008.5,1428.6002,2018.5,1432.6002,2008.5,1436.6002,2012.5,1432.6002" style="stroke:#181818;stroke-width:1.0;"/><line style="stroke:#181818;stroke-width:1.0;" x1="313.5" x2="2014.5" y1="1432.6002" y2="1432.6002"/><text fill="#000000" font-family="sans-serif" font-size="13" lengthAdjust="spacing" textLength="193" x="320.5" y="1427.0772">toast.error("Registration failed...")</text><line style="stroke:#000000;stroke-width:1.0;stroke-dasharray:2.0,2.0;" x1="10" x2="2091" y1="1478.6002" y2="1478.6002"/><text fill="#000000" font-family="sans-serif" font-size="11" font-weight="bold" lengthAdjust="spacing" textLength="308" x="15" y="1488.8191">[User sees a non-eligible category or card in loading state]</text><!--SRC=[rLTBR-Cs4BxxLqnriGmuJj3koLW4o7ftM_UnwoPEB-qYe2L69aAJBaabC1Rvxpj3IJOfoQdJddfnR7Bcc-4ylfauuII7szdT7zpCbSsCM0bZ-OmvNcWZcBsr9JD2GnhSZgPmm_ykkSeul1UiC6mp6B3CQGD9BPy0it1hkHbicN4Y4rkc7DroKsFl5gpWCxtPQiMLy_BX3RnzcrwFjSdM8XzTNiOmLuzCIBQIZP-x6JEvX_0tU4e7134RIr6iNM7uheEIrSftAvOzS9LFdFrB6Lu8wxWXJ-UgmKz7aOFlAWKoy76yurBgfzFGipNF7WZw0xg5mPJ2DTZ1oOoaNWI_AjtwDwOmJgPwDlqk3EdSL2zUoP9tr4edfFMEt7ENhN-sMjNMFzBlMxokp6h3LD7LhzzzjPXNLXVpogBJ6-PqH_ptacDgf6Zo6_okz7hJijIC4k0rwkzL9hT2FP3qW088PvTnlKpX4tiK1HvPS1hESsRNAurbS5UY-7cT3i4jLQfun9-H_Y02G_3GsIaWXZz8_nmoAMTxiE6NqUcQvQ7wINLCTsQUdmg1Ef3UOvCPR3vX-0PlBUXxG8_WyBxHO0YJoGJcIZZ19EJCCP2QvK8LaCQobGj32rbf31aBhq8p8myv77GyRUNWFSTqROH2LuTRxL0LNP2xVSF-Yiqr74Yjjq0luInRDpPt81GSqna0d1pc1Y_eA8mrdixp8EG0-pe8aF0un4KpdRwSGcyNH_WHV1i1xpgWQEZGWbCuj6SILExvLs_a-PoCuA_ArlCvzsYI9v7PFHuU7h3HK4CMKoYuMshiw3HIhE_ng94yQxcNaEKxHwftR9KbA9hp7ltOBBB557xyi8HNF2doQp6ddzBLuVEtu77R3lwqN2xW-uiB-FmBfCuW5NhHm9_-p98eId9fENpI1qEGKh4QWv_ES7Gc9tPIAD4uEdhPbmzUD-MJOZA6DnSNzF43VRo13MUAMZFgQeBUSDTnkz_hjT5FjhAHRhYrr27tHc-WdZq4WtzQQVBX30x2WkaMQAVZA5P00Gcinu0zXHyrLvS-0eqRnrnfFKlu4ecXmvQbbtLuALe4fd2DGbXWm1fIER1EHX9FmgthN7hhOBtvmwm8yN3PmIBqKyXoP3gczcLmW6Mu7sHIP0yMakjwgQ16QOPNoy5PZsWaqWsMLermsbYjc2TCSkHsbqGZBl0xJvwEO4Xp0kiyty4QwrougffeY70pXbNfV5wspA5n1PbMblnGsGvr_vbAMk-eUhwVGtfSRYzXKpYoins2qalBBPp0KeFyNqWv6SFNnUURvVF_W9F9pnD8kP-Bgneqp0cjm9PPXlnpNyhJgBaXAmH02kmZwMwsavkz4RdRvvxdkA0a7g2Jncx9lOWHWJHLrsoYo7lqRLA_D3s6r12N1_akgPws3r-DvW-3B3N7lHx4x2lK8vC2TxjcDNnnl_ntU4SNgLPRVI76kEPdVYyAMNICmq6NnPeOnE8tcUDWUu8L3mCrZ4CJBsD7IRyUqb7rtIFNyVo4GToTgjqoQusrayhggCwnAl8hHPhql88gyNL5yzeH7notgT27DfXlc3LrrXrnli9nDE7Utln_GMEJlp2202lbNUaSlbDOo8MbMPmJ4jO7XWx_SmY6C8uWf5ki47AgnryAwpS0]--></g></svg>