<?xml version="1.0" encoding="us-ascii" standalone="no"?><svg xmlns="http://www.w3.org/2000/svg" xmlns:xlink="http://www.w3.org/1999/xlink" contentStyleType="text/css" height="1245px" preserveAspectRatio="none" style="width:1452px;height:1245px;background:#FFFFFF;" version="1.1" viewBox="0 0 1452 1245" width="1452px" zoomAndPan="magnify"><defs/><g><text fill="#000000" font-family="sans-serif" font-size="14" font-weight="bold" lengthAdjust="spacing" textLength="468" x="493.25" y="28.0059">UC_GestionarMatriculaUsuario (Pagar Matr&#237;cula): Sequence Diagram</text><rect fill="#FFFFFF" height="237.8001" style="stroke:#181818;stroke-width:1.0;" width="10" x="263.5" y="151.1999"/><rect fill="#FFFFFF" height="66.2" style="stroke:#181818;stroke-width:1.0;" width="10" x="486.5" y="499.9999"/><rect fill="#FFFFFF" height="178.6001" style="stroke:#181818;stroke-width:1.0;" width="10" x="648.5" y="210.3999"/><rect fill="#FFFFFF" height="558.8001" style="stroke:#181818;stroke-width:1.0;" width="10" x="648.5" y="595.8"/><rect fill="#FFFFFF" height="29.6" style="stroke:#181818;stroke-width:1.0;" width="10" x="801" y="655"/><rect fill="#FFFFFF" height="529.2001" style="stroke:#181818;stroke-width:1.0;" width="10" x="937" y="625.4"/><rect fill="#FFFFFF" height="440.4001" style="stroke:#181818;stroke-width:1.0;" width="10" x="1143" y="714.2"/><rect fill="#FFFFFF" height="208.2001" style="stroke:#181818;stroke-width:1.0;" width="10" x="1271" y="180.7999"/><rect fill="#FFFFFF" height="29.6" style="stroke:#181818;stroke-width:1.0;" width="10" x="1271" y="946.4001"/><rect fill="#FFFFFF" height="30" style="stroke:#181818;stroke-width:1.0;" width="10" x="1385" y="857.2001"/><rect fill="#FFFFFF" height="30" style="stroke:#181818;stroke-width:1.0;" width="10" x="1385" y="1109.6001"/><rect fill="none" height="282.6" style="stroke:#000000;stroke-width:1.5;" width="1197" x="147.5" y="225.3999"/><rect fill="none" height="418.4001" style="stroke:#000000;stroke-width:1.5;" width="1298" x="147.5" y="729.2"/><line style="stroke:#181818;stroke-width:0.5;stroke-dasharray:5.0,5.0;" x1="32" x2="32" y1="119.5999" y2="1164.6001"/><line style="stroke:#181818;stroke-width:0.5;stroke-dasharray:5.0,5.0;" x1="268.5" x2="268.5" y1="119.5999" y2="1164.6001"/><line style="stroke:#181818;stroke-width:0.5;stroke-dasharray:5.0,5.0;" x1="491" x2="491" y1="119.5999" y2="1164.6001"/><line style="stroke:#181818;stroke-width:0.5;stroke-dasharray:5.0,5.0;" x1="653" x2="653" y1="119.5999" y2="1164.6001"/><line style="stroke:#181818;stroke-width:0.5;stroke-dasharray:5.0,5.0;" x1="806" x2="806" y1="119.5999" y2="1164.6001"/><line style="stroke:#181818;stroke-width:0.5;stroke-dasharray:5.0,5.0;" x1="941.5" x2="941.5" y1="119.5999" y2="1164.6001"/><line style="stroke:#181818;stroke-width:0.5;stroke-dasharray:5.0,5.0;" x1="1147.5" x2="1147.5" y1="119.5999" y2="1164.6001"/><line style="stroke:#181818;stroke-width:0.5;stroke-dasharray:5.0,5.0;" x1="1275.5" x2="1275.5" y1="119.5999" y2="1164.6001"/><line style="stroke:#181818;stroke-width:0.5;stroke-dasharray:5.0,5.0;" x1="1389.5" x2="1389.5" y1="119.5999" y2="1164.6001"/><text fill="#000000" font-family="sans-serif" font-size="14" lengthAdjust="spacing" textLength="49" x="5" y="115.8059">Usuario</text><ellipse cx="32.5" cy="51.2999" fill="#E2E2F0" rx="8" ry="8" style="stroke:#181818;stroke-width:0.5;"/><path d="M32.5,59.2999 L32.5,86.2999 M19.5,67.2999 L45.5,67.2999 M32.5,86.2999 L19.5,101.2999 M32.5,86.2999 L45.5,101.2999 " fill="none" style="stroke:#181818;stroke-width:0.5;"/><text fill="#000000" font-family="sans-serif" font-size="14" lengthAdjust="spacing" textLength="49" x="5" y="1176.606">Usuario</text><ellipse cx="32.5" cy="1188.9" fill="#E2E2F0" rx="8" ry="8" style="stroke:#181818;stroke-width:0.5;"/><path d="M32.5,1196.9 L32.5,1223.9 M19.5,1204.9 L45.5,1204.9 M32.5,1223.9 L19.5,1238.9 M32.5,1223.9 L45.5,1238.9 " fill="none" style="stroke:#181818;stroke-width:0.5;"/><rect fill="#E2E2F0" height="36" rx="2.5" ry="2.5" style="stroke:#181818;stroke-width:0.5;" width="222" x="157.5" y="82.5999"/><ellipse cx="175.5" cy="100.5999" fill="#DA70D6" rx="11" ry="11" style="stroke:#181818;stroke-width:1.0;"/><path d="M173.3594,101.9905 L174.9375,101.9905 C175.6094,102.2405 177.0938,103.9124 177.9688,105.4905 L178.0313,105.5999 L179.4063,105.5999 C179.7344,105.5999 180.0156,105.553 180.1563,105.4749 C180.4219,105.3186 180.5938,105.0217 180.5938,104.7092 C180.5938,104.4436 180.4375,104.1624 180.2188,104.0061 C180.0313,103.8655 179.8594,103.8342 179.4063,103.8342 L179.2188,103.8342 C178.5625,102.8499 177.8906,102.053 177.1563,101.4124 C178.3594,100.7874 178.9375,99.9905 178.9375,98.9592 C178.9375,97.2249 177.3906,96.0061 175.1406,96.0061 L171.3438,96.0061 C170.8906,96.0061 170.7656,96.0217 170.5938,96.1311 C170.3281,96.303 170.1563,96.5842 170.1563,96.8811 C170.1563,97.1624 170.3125,97.4436 170.5313,97.5999 C170.7188,97.7249 170.9063,97.7561 171.3438,97.7561 L171.5313,97.7561 L171.5313,103.8342 L171.3438,103.8342 C170.9219,103.8342 170.7656,103.8655 170.5938,103.9749 C170.3281,104.1155 170.1563,104.4124 170.1563,104.7092 C170.1563,105.2874 170.5625,105.5999 171.3438,105.5999 L173.8906,105.5999 C174.25,105.5999 174.5,105.553 174.6406,105.4749 C174.9063,105.3186 175.0781,105.0217 175.0781,104.7092 C175.0781,104.4436 174.9531,104.178 174.7031,104.0061 C174.5156,103.8655 174.375,103.8342 173.8906,103.8342 L173.3594,103.8342 L173.3594,101.9905 Z M173.3594,100.2405 L173.3594,97.7561 L175.2031,97.7561 C176.2344,97.7561 177,98.2405 177,98.8967 C177,99.678 175.9844,100.2405 174.5938,100.2405 L173.3594,100.2405 Z " fill="#000000"/><text fill="#000000" font-family="sans-serif" font-size="14" lengthAdjust="spacing" textLength="180" x="192.5" y="102.6058">UserTuitionPageComponent</text><rect fill="#E2E2F0" height="36" rx="2.5" ry="2.5" style="stroke:#181818;stroke-width:0.5;" width="222" x="157.5" y="1163.6001"/><ellipse cx="175.5" cy="1181.6001" fill="#DA70D6" rx="11" ry="11" style="stroke:#181818;stroke-width:1.0;"/><path d="M173.3594,1182.9907 L174.9375,1182.9907 C175.6094,1183.2407 177.0938,1184.9126 177.9688,1186.4907 L178.0313,1186.6001 L179.4063,1186.6001 C179.7344,1186.6001 180.0156,1186.5532 180.1563,1186.4751 C180.4219,1186.3188 180.5938,1186.022 180.5938,1185.7095 C180.5938,1185.4438 180.4375,1185.1626 180.2188,1185.0063 C180.0313,1184.8657 179.8594,1184.8345 179.4063,1184.8345 L179.2188,1184.8345 C178.5625,1183.8501 177.8906,1183.0532 177.1563,1182.4126 C178.3594,1181.7876 178.9375,1180.9907 178.9375,1179.9595 C178.9375,1178.2251 177.3906,1177.0063 175.1406,1177.0063 L171.3438,1177.0063 C170.8906,1177.0063 170.7656,1177.022 170.5938,1177.1313 C170.3281,1177.3032 170.1563,1177.5845 170.1563,1177.8813 C170.1563,1178.1626 170.3125,1178.4438 170.5313,1178.6001 C170.7188,1178.7251 170.9063,1178.7563 171.3438,1178.7563 L171.5313,1178.7563 L171.5313,1184.8345 L171.3438,1184.8345 C170.9219,1184.8345 170.7656,1184.8657 170.5938,1184.9751 C170.3281,1185.1157 170.1563,1185.4126 170.1563,1185.7095 C170.1563,1186.2876 170.5625,1186.6001 171.3438,1186.6001 L173.8906,1186.6001 C174.25,1186.6001 174.5,1186.5532 174.6406,1186.4751 C174.9063,1186.3188 175.0781,1186.022 175.0781,1185.7095 C175.0781,1185.4438 174.9531,1185.1782 174.7031,1185.0063 C174.5156,1184.8657 174.375,1184.8345 173.8906,1184.8345 L173.3594,1184.8345 L173.3594,1182.9907 Z M173.3594,1181.2407 L173.3594,1178.7563 L175.2031,1178.7563 C176.2344,1178.7563 177,1179.2407 177,1179.897 C177,1180.6782 175.9844,1181.2407 174.5938,1181.2407 L173.3594,1181.2407 Z " fill="#000000"/><text fill="#000000" font-family="sans-serif" font-size="14" lengthAdjust="spacing" textLength="180" x="192.5" y="1183.606">UserTuitionPageComponent</text><rect fill="#E2E2F0" height="36" rx="2.5" ry="2.5" style="stroke:#181818;stroke-width:0.5;" width="147" x="418" y="82.5999"/><ellipse cx="436" cy="100.5999" fill="#D3D3D3" rx="11" ry="11" style="stroke:#181818;stroke-width:1.0;"/><path d="M431,101.7561 C431,104.2561 433.1406,106.0686 436.0625,106.0686 C437.2969,106.0686 438.4688,105.7717 439.2188,105.2561 C439.8281,104.8342 440.1563,104.4124 440.1563,104.0061 C440.1563,103.5374 439.7344,103.1311 439.2344,103.1311 C439,103.1311 438.7813,103.2092 438.5781,103.4124 C438.1406,103.8499 438.1406,103.8499 437.9688,103.9436 C437.5156,104.178 436.875,104.3186 436.1094,104.3186 C434.1094,104.3186 432.8281,103.303 432.8281,101.7249 L432.8281,100.678 C432.8281,98.9749 434.0469,97.7717 435.75,97.7717 C436.3281,97.7717 436.9063,97.9124 437.375,98.1624 C437.8438,98.428 438.0156,98.6155 438.0781,98.9749 C438.2031,99.6467 438.4531,99.8967 438.9844,99.8967 C439.2656,99.8967 439.5469,99.7561 439.7344,99.5374 C439.8594,99.3655 439.9063,99.1936 439.9063,98.7561 L439.9063,97.3967 C439.9063,96.9749 439.8906,96.8342 439.7656,96.6624 C439.5938,96.4124 439.3125,96.2561 438.9844,96.2561 C438.6719,96.2561 438.4688,96.3655 438.25,96.6311 C437.0781,96.1311 436.6406,96.0217 435.6875,96.0217 C433.0156,96.0217 431,98.0374 431,100.6624 L431,101.7561 Z " fill="#000000"/><text fill="#000000" font-family="sans-serif" font-size="14" lengthAdjust="spacing" textLength="105" x="453" y="102.6058">PaymentOptions</text><rect fill="#E2E2F0" height="36" rx="2.5" ry="2.5" style="stroke:#181818;stroke-width:0.5;" width="147" x="418" y="1163.6001"/><ellipse cx="436" cy="1181.6001" fill="#D3D3D3" rx="11" ry="11" style="stroke:#181818;stroke-width:1.0;"/><path d="M431,1182.7563 C431,1185.2563 433.1406,1187.0688 436.0625,1187.0688 C437.2969,1187.0688 438.4688,1186.772 439.2188,1186.2563 C439.8281,1185.8345 440.1563,1185.4126 440.1563,1185.0063 C440.1563,1184.5376 439.7344,1184.1313 439.2344,1184.1313 C439,1184.1313 438.7813,1184.2095 438.5781,1184.4126 C438.1406,1184.8501 438.1406,1184.8501 437.9688,1184.9438 C437.5156,1185.1782 436.875,1185.3188 436.1094,1185.3188 C434.1094,1185.3188 432.8281,1184.3032 432.8281,1182.7251 L432.8281,1181.6782 C432.8281,1179.9751 434.0469,1178.772 435.75,1178.772 C436.3281,1178.772 436.9063,1178.9126 437.375,1179.1626 C437.8438,1179.4282 438.0156,1179.6157 438.0781,1179.9751 C438.2031,1180.647 438.4531,1180.897 438.9844,1180.897 C439.2656,1180.897 439.5469,1180.7563 439.7344,1180.5376 C439.8594,1180.3657 439.9063,1180.1938 439.9063,1179.7563 L439.9063,1178.397 C439.9063,1177.9751 439.8906,1177.8345 439.7656,1177.6626 C439.5938,1177.4126 439.3125,1177.2563 438.9844,1177.2563 C438.6719,1177.2563 438.4688,1177.3657 438.25,1177.6313 C437.0781,1177.1313 436.6406,1177.022 435.6875,1177.022 C433.0156,1177.022 431,1179.0376 431,1181.6626 L431,1182.7563 Z " fill="#000000"/><text fill="#000000" font-family="sans-serif" font-size="14" lengthAdjust="spacing" textLength="105" x="453" y="1183.606">PaymentOptions</text><rect fill="#E2E2F0" height="47.5999" rx="2.5" ry="2.5" style="stroke:#181818;stroke-width:0.5;" width="157" x="575" y="71"/><ellipse cx="593" cy="89" fill="#FFFF00" rx="11" ry="11" style="stroke:#181818;stroke-width:1.0;"/><path d="M591.8594,90.0625 L593.1719,90.0625 L593.1719,90.1094 C593.1719,90.5 593.2031,90.6875 593.2969,90.8438 C593.4688,91.0938 593.7656,91.2656 594.0781,91.2656 C594.3594,91.2656 594.6406,91.125 594.8281,90.9063 C594.9531,90.7188 595,90.5625 595,90.1094 L595,88.2813 C595,87.8594 594.9844,87.7344 594.8594,87.5625 C594.7031,87.2969 594.4063,87.125 594.0781,87.125 C593.7813,87.125 593.5156,87.2656 593.3438,87.4844 C593.2031,87.6719 593.1719,87.8438 593.1719,88.2813 L593.1719,88.3281 L591.8594,88.3281 L591.8594,86.1563 L596.0781,86.1563 L596.0781,86.9219 C596.0781,87.3125 596.1094,87.4844 596.2188,87.6406 C596.3906,87.9063 596.6719,88.0625 597,88.0625 C597.2813,88.0625 597.5625,87.9375 597.75,87.7031 C597.8906,87.5156 597.9219,87.375 597.9219,86.9219 L597.9219,84.4063 L589.8438,84.4063 C589.4063,84.4063 589.2656,84.4219 589.0938,84.5313 C588.8281,84.7031 588.6563,84.9844 588.6563,85.2813 C588.6563,85.5625 588.8125,85.8438 589.0313,86 C589.2188,86.125 589.4063,86.1563 589.8438,86.1563 L590.0313,86.1563 L590.0313,92.25 L589.8438,92.25 C589.4219,92.25 589.2656,92.2813 589.0938,92.375 C588.8281,92.5313 588.6563,92.8281 588.6563,93.1094 C588.6563,93.6875 589.0625,94 589.8438,94 L593.5,94 C594.2813,94 594.6875,93.7188 594.6875,93.1094 C594.6875,92.8438 594.5469,92.5938 594.3125,92.4219 C594.125,92.2813 593.9531,92.25 593.5,92.25 L591.8594,92.25 L591.8594,90.0625 Z " fill="#000000"/><text fill="#000000" font-family="sans-serif" font-size="14" lengthAdjust="spacing" textLength="115" x="610" y="91.0059">tuition_backend.ts</text><text fill="#000000" font-family="sans-serif" font-size="14" lengthAdjust="spacing" textLength="76" x="629.5" y="107.8059">payTuition()</text><rect fill="#E2E2F0" height="47.5999" rx="2.5" ry="2.5" style="stroke:#181818;stroke-width:0.5;" width="157" x="575" y="1163.6001"/><ellipse cx="593" cy="1181.6001" fill="#FFFF00" rx="11" ry="11" style="stroke:#181818;stroke-width:1.0;"/><path d="M591.8594,1182.6626 L593.1719,1182.6626 L593.1719,1182.7095 C593.1719,1183.1001 593.2031,1183.2876 593.2969,1183.4438 C593.4688,1183.6938 593.7656,1183.8657 594.0781,1183.8657 C594.3594,1183.8657 594.6406,1183.7251 594.8281,1183.5063 C594.9531,1183.3188 595,1183.1626 595,1182.7095 L595,1180.8813 C595,1180.4595 594.9844,1180.3345 594.8594,1180.1626 C594.7031,1179.897 594.4063,1179.7251 594.0781,1179.7251 C593.7813,1179.7251 593.5156,1179.8657 593.3438,1180.0845 C593.2031,1180.272 593.1719,1180.4438 593.1719,1180.8813 L593.1719,1180.9282 L591.8594,1180.9282 L591.8594,1178.7563 L596.0781,1178.7563 L596.0781,1179.522 C596.0781,1179.9126 596.1094,1180.0845 596.2188,1180.2407 C596.3906,1180.5063 596.6719,1180.6626 597,1180.6626 C597.2813,1180.6626 597.5625,1180.5376 597.75,1180.3032 C597.8906,1180.1157 597.9219,1179.9751 597.9219,1179.522 L597.9219,1177.0063 L589.8438,1177.0063 C589.4063,1177.0063 589.2656,1177.022 589.0938,1177.1313 C588.8281,1177.3032 588.6563,1177.5845 588.6563,1177.8813 C588.6563,1178.1626 588.8125,1178.4438 589.0313,1178.6001 C589.2188,1178.7251 589.4063,1178.7563 589.8438,1178.7563 L590.0313,1178.7563 L590.0313,1184.8501 L589.8438,1184.8501 C589.4219,1184.8501 589.2656,1184.8813 589.0938,1184.9751 C588.8281,1185.1313 588.6563,1185.4282 588.6563,1185.7095 C588.6563,1186.2876 589.0625,1186.6001 589.8438,1186.6001 L593.5,1186.6001 C594.2813,1186.6001 594.6875,1186.3188 594.6875,1185.7095 C594.6875,1185.4438 594.5469,1185.1938 594.3125,1185.022 C594.125,1184.8813 593.9531,1184.8501 593.5,1184.8501 L591.8594,1184.8501 L591.8594,1182.6626 Z " fill="#000000"/><text fill="#000000" font-family="sans-serif" font-size="14" lengthAdjust="spacing" textLength="115" x="610" y="1183.606">tuition_backend.ts</text><text fill="#000000" font-family="sans-serif" font-size="14" lengthAdjust="spacing" textLength="76" x="629.5" y="1200.406">payTuition()</text><rect fill="#E2E2F0" height="36" rx="2.5" ry="2.5" style="stroke:#181818;stroke-width:0.5;" width="128" x="742" y="82.5999"/><ellipse cx="760" cy="100.5999" fill="#ADD8E6" rx="11" ry="11" style="stroke:#181818;stroke-width:1.0;"/><path d="M763.8594,96.9124 C763.8594,96.4749 763.8438,96.3499 763.7344,96.178 C763.5781,95.928 763.2813,95.7717 762.9531,95.7717 C762.6094,95.7717 762.4219,95.9124 762.2656,96.2874 C761.7031,95.9592 760.9375,95.7717 760.0625,95.7717 C757.9219,95.7717 756.3281,97.0374 756.3281,98.6936 C756.3281,99.6467 756.875,100.5374 757.75,101.0061 C758.3125,101.3186 758.8438,101.4749 759.9844,101.6624 C761.1094,101.8655 761.375,101.928 761.75,102.0999 C762.0938,102.2717 762.3125,102.5686 762.3125,102.8811 C762.3125,103.5374 761.3594,104.053 760.1406,104.053 C759.0469,104.053 757.9844,103.5999 757.8281,103.053 C757.6875,102.6155 757.6875,102.6155 757.5625,102.4749 C757.3906,102.3186 757.1563,102.2405 756.9063,102.2405 C756.6094,102.2405 756.3438,102.3655 756.1563,102.5842 C756.0313,102.7561 755.9844,102.9436 755.9844,103.3655 L755.9844,104.4436 C755.9844,105.2092 756.2969,105.5842 756.9063,105.5842 C757.1875,105.5842 757.3438,105.4905 757.625,105.2092 C758.4844,105.6311 759.3281,105.8186 760.25,105.8186 C762.6094,105.8186 764.2188,104.6467 764.2188,102.9124 C764.2188,102.053 763.875,101.3655 763.1875,100.8342 C762.6563,100.428 761.9844,100.1936 760.4844,99.9436 C759.2031,99.6936 759.1406,99.678 758.8125,99.5061 C758.4688,99.3655 758.2344,99.0061 758.2344,98.678 C758.2344,98.0374 759.0469,97.5217 760.0781,97.5217 C761.125,97.5217 761.8906,97.9436 762.0313,98.5686 C762.1563,99.0999 762.1563,99.0999 762.2969,99.2405 C762.4531,99.3967 762.7031,99.4905 762.9531,99.4905 C763.25,99.4905 763.5,99.3655 763.6875,99.1467 C763.8281,98.9592 763.8594,98.8186 763.8594,98.3655 L763.8594,96.9124 Z " fill="#000000"/><text fill="#000000" font-family="sans-serif" font-size="14" lengthAdjust="spacing" textLength="86" x="777" y="102.6058">AuthManager</text><rect fill="#E2E2F0" height="36" rx="2.5" ry="2.5" style="stroke:#181818;stroke-width:0.5;" width="128" x="742" y="1163.6001"/><ellipse cx="760" cy="1181.6001" fill="#ADD8E6" rx="11" ry="11" style="stroke:#181818;stroke-width:1.0;"/><path d="M763.8594,1177.9126 C763.8594,1177.4751 763.8438,1177.3501 763.7344,1177.1782 C763.5781,1176.9282 763.2813,1176.772 762.9531,1176.772 C762.6094,1176.772 762.4219,1176.9126 762.2656,1177.2876 C761.7031,1176.9595 760.9375,1176.772 760.0625,1176.772 C757.9219,1176.772 756.3281,1178.0376 756.3281,1179.6938 C756.3281,1180.647 756.875,1181.5376 757.75,1182.0063 C758.3125,1182.3188 758.8438,1182.4751 759.9844,1182.6626 C761.1094,1182.8657 761.375,1182.9282 761.75,1183.1001 C762.0938,1183.272 762.3125,1183.5688 762.3125,1183.8813 C762.3125,1184.5376 761.3594,1185.0532 760.1406,1185.0532 C759.0469,1185.0532 757.9844,1184.6001 757.8281,1184.0532 C757.6875,1183.6157 757.6875,1183.6157 757.5625,1183.4751 C757.3906,1183.3188 757.1563,1183.2407 756.9063,1183.2407 C756.6094,1183.2407 756.3438,1183.3657 756.1563,1183.5845 C756.0313,1183.7563 755.9844,1183.9438 755.9844,1184.3657 L755.9844,1185.4438 C755.9844,1186.2095 756.2969,1186.5845 756.9063,1186.5845 C757.1875,1186.5845 757.3438,1186.4907 757.625,1186.2095 C758.4844,1186.6313 759.3281,1186.8188 760.25,1186.8188 C762.6094,1186.8188 764.2188,1185.647 764.2188,1183.9126 C764.2188,1183.0532 763.875,1182.3657 763.1875,1181.8345 C762.6563,1181.4282 761.9844,1181.1938 760.4844,1180.9438 C759.2031,1180.6938 759.1406,1180.6782 758.8125,1180.5063 C758.4688,1180.3657 758.2344,1180.0063 758.2344,1179.6782 C758.2344,1179.0376 759.0469,1178.522 760.0781,1178.522 C761.125,1178.522 761.8906,1178.9438 762.0313,1179.5688 C762.1563,1180.1001 762.1563,1180.1001 762.2969,1180.2407 C762.4531,1180.397 762.7031,1180.4907 762.9531,1180.4907 C763.25,1180.4907 763.5,1180.3657 763.6875,1180.147 C763.8281,1179.9595 763.8594,1179.8188 763.8594,1179.3657 L763.8594,1177.9126 Z " fill="#000000"/><text fill="#000000" font-family="sans-serif" font-size="14" lengthAdjust="spacing" textLength="86" x="777" y="1183.606">AuthManager</text><rect fill="#E2E2F0" height="47.5999" rx="2.5" ry="2.5" style="stroke:#181818;stroke-width:0.5;" width="113" x="885.5" y="71"/><ellipse cx="903.5" cy="89" fill="#FFA500" rx="11" ry="11" style="stroke:#181818;stroke-width:1.0;"/><path d="M902.3594,90.0625 L903.6719,90.0625 L903.6719,90.1094 C903.6719,90.5 903.7031,90.6875 903.7969,90.8438 C903.9688,91.0938 904.2656,91.2656 904.5781,91.2656 C904.8594,91.2656 905.1406,91.125 905.3281,90.9063 C905.4531,90.7188 905.5,90.5625 905.5,90.1094 L905.5,88.2813 C905.5,87.8594 905.4844,87.7344 905.3594,87.5625 C905.2031,87.2969 904.9063,87.125 904.5781,87.125 C904.2813,87.125 904.0156,87.2656 903.8438,87.4844 C903.7031,87.6719 903.6719,87.8438 903.6719,88.2813 L903.6719,88.3281 L902.3594,88.3281 L902.3594,86.1563 L906.5781,86.1563 L906.5781,86.9219 C906.5781,87.3125 906.6094,87.4844 906.7188,87.6406 C906.8906,87.9063 907.1719,88.0625 907.5,88.0625 C907.7813,88.0625 908.0625,87.9375 908.25,87.7031 C908.3906,87.5156 908.4219,87.375 908.4219,86.9219 L908.4219,84.4063 L900.3438,84.4063 C899.9063,84.4063 899.7656,84.4219 899.5938,84.5313 C899.3281,84.7031 899.1563,84.9844 899.1563,85.2813 C899.1563,85.5625 899.3125,85.8438 899.5313,86 C899.7188,86.125 899.9063,86.1563 900.3438,86.1563 L900.5313,86.1563 L900.5313,92.25 L900.3438,92.25 C899.9219,92.25 899.7656,92.2813 899.5938,92.375 C899.3281,92.5313 899.1563,92.8281 899.1563,93.1094 C899.1563,93.6875 899.5625,94 900.3438,94 L904,94 C904.7813,94 905.1875,93.7188 905.1875,93.1094 C905.1875,92.8438 905.0469,92.5938 904.8125,92.4219 C904.625,92.2813 904.4531,92.25 904,92.25 L902.3594,92.25 L902.3594,90.0625 Z " fill="#000000"/><text fill="#000000" font-family="sans-serif" font-size="14" lengthAdjust="spacing" textLength="40" x="936" y="91.0059">utils.ts</text><text fill="#000000" font-family="sans-serif" font-size="14" lengthAdjust="spacing" textLength="71" x="920.5" y="107.8059">fetchJson()</text><rect fill="#E2E2F0" height="47.5999" rx="2.5" ry="2.5" style="stroke:#181818;stroke-width:0.5;" width="113" x="885.5" y="1163.6001"/><ellipse cx="903.5" cy="1181.6001" fill="#FFA500" rx="11" ry="11" style="stroke:#181818;stroke-width:1.0;"/><path d="M902.3594,1182.6626 L903.6719,1182.6626 L903.6719,1182.7095 C903.6719,1183.1001 903.7031,1183.2876 903.7969,1183.4438 C903.9688,1183.6938 904.2656,1183.8657 904.5781,1183.8657 C904.8594,1183.8657 905.1406,1183.7251 905.3281,1183.5063 C905.4531,1183.3188 905.5,1183.1626 905.5,1182.7095 L905.5,1180.8813 C905.5,1180.4595 905.4844,1180.3345 905.3594,1180.1626 C905.2031,1179.897 904.9063,1179.7251 904.5781,1179.7251 C904.2813,1179.7251 904.0156,1179.8657 903.8438,1180.0845 C903.7031,1180.272 903.6719,1180.4438 903.6719,1180.8813 L903.6719,1180.9282 L902.3594,1180.9282 L902.3594,1178.7563 L906.5781,1178.7563 L906.5781,1179.522 C906.5781,1179.9126 906.6094,1180.0845 906.7188,1180.2407 C906.8906,1180.5063 907.1719,1180.6626 907.5,1180.6626 C907.7813,1180.6626 908.0625,1180.5376 908.25,1180.3032 C908.3906,1180.1157 908.4219,1179.9751 908.4219,1179.522 L908.4219,1177.0063 L900.3438,1177.0063 C899.9063,1177.0063 899.7656,1177.022 899.5938,1177.1313 C899.3281,1177.3032 899.1563,1177.5845 899.1563,1177.8813 C899.1563,1178.1626 899.3125,1178.4438 899.5313,1178.6001 C899.7188,1178.7251 899.9063,1178.7563 900.3438,1178.7563 L900.5313,1178.7563 L900.5313,1184.8501 L900.3438,1184.8501 C899.9219,1184.8501 899.7656,1184.8813 899.5938,1184.9751 C899.3281,1185.1313 899.1563,1185.4282 899.1563,1185.7095 C899.1563,1186.2876 899.5625,1186.6001 900.3438,1186.6001 L904,1186.6001 C904.7813,1186.6001 905.1875,1186.3188 905.1875,1185.7095 C905.1875,1185.4438 905.0469,1185.1938 904.8125,1185.022 C904.625,1184.8813 904.4531,1184.8501 904,1184.8501 L902.3594,1184.8501 L902.3594,1182.6626 Z " fill="#000000"/><text fill="#000000" font-family="sans-serif" font-size="14" lengthAdjust="spacing" textLength="40" x="936" y="1183.606">utils.ts</text><text fill="#000000" font-family="sans-serif" font-size="14" lengthAdjust="spacing" textLength="71" x="920.5" y="1200.406">fetchJson()</text><rect fill="#E2E2F0" height="36" rx="2.5" ry="2.5" style="stroke:#181818;stroke-width:0.5;" width="119" x="1088.5" y="82.5999"/><ellipse cx="1106.5" cy="100.5999" fill="#FF6347" rx="11" ry="11" style="stroke:#181818;stroke-width:1.0;"/><path d="M1110.3594,96.9124 C1110.3594,96.4749 1110.3438,96.3499 1110.2344,96.178 C1110.0781,95.928 1109.7813,95.7717 1109.4531,95.7717 C1109.1094,95.7717 1108.9219,95.9124 1108.7656,96.2874 C1108.2031,95.9592 1107.4375,95.7717 1106.5625,95.7717 C1104.4219,95.7717 1102.8281,97.0374 1102.8281,98.6936 C1102.8281,99.6467 1103.375,100.5374 1104.25,101.0061 C1104.8125,101.3186 1105.3438,101.4749 1106.4844,101.6624 C1107.6094,101.8655 1107.875,101.928 1108.25,102.0999 C1108.5938,102.2717 1108.8125,102.5686 1108.8125,102.8811 C1108.8125,103.5374 1107.8594,104.053 1106.6406,104.053 C1105.5469,104.053 1104.4844,103.5999 1104.3281,103.053 C1104.1875,102.6155 1104.1875,102.6155 1104.0625,102.4749 C1103.8906,102.3186 1103.6563,102.2405 1103.4063,102.2405 C1103.1094,102.2405 1102.8438,102.3655 1102.6563,102.5842 C1102.5313,102.7561 1102.4844,102.9436 1102.4844,103.3655 L1102.4844,104.4436 C1102.4844,105.2092 1102.7969,105.5842 1103.4063,105.5842 C1103.6875,105.5842 1103.8438,105.4905 1104.125,105.2092 C1104.9844,105.6311 1105.8281,105.8186 1106.75,105.8186 C1109.1094,105.8186 1110.7188,104.6467 1110.7188,102.9124 C1110.7188,102.053 1110.375,101.3655 1109.6875,100.8342 C1109.1563,100.428 1108.4844,100.1936 1106.9844,99.9436 C1105.7031,99.6936 1105.6406,99.678 1105.3125,99.5061 C1104.9688,99.3655 1104.7344,99.0061 1104.7344,98.678 C1104.7344,98.0374 1105.5469,97.5217 1106.5781,97.5217 C1107.625,97.5217 1108.3906,97.9436 1108.5313,98.5686 C1108.6563,99.0999 1108.6563,99.0999 1108.7969,99.2405 C1108.9531,99.3967 1109.2031,99.4905 1109.4531,99.4905 C1109.75,99.4905 1110,99.3655 1110.1875,99.1467 C1110.3281,98.9592 1110.3594,98.8186 1110.3594,98.3655 L1110.3594,96.9124 Z " fill="#000000"/><text fill="#000000" font-family="sans-serif" font-size="14" lengthAdjust="spacing" textLength="77" x="1123.5" y="102.6058">BackendAPI</text><rect fill="#E2E2F0" height="36" rx="2.5" ry="2.5" style="stroke:#181818;stroke-width:0.5;" width="119" x="1088.5" y="1163.6001"/><ellipse cx="1106.5" cy="1181.6001" fill="#FF6347" rx="11" ry="11" style="stroke:#181818;stroke-width:1.0;"/><path d="M1110.3594,1177.9126 C1110.3594,1177.4751 1110.3438,1177.3501 1110.2344,1177.1782 C1110.0781,1176.9282 1109.7813,1176.772 1109.4531,1176.772 C1109.1094,1176.772 1108.9219,1176.9126 1108.7656,1177.2876 C1108.2031,1176.9595 1107.4375,1176.772 1106.5625,1176.772 C1104.4219,1176.772 1102.8281,1178.0376 1102.8281,1179.6938 C1102.8281,1180.647 1103.375,1181.5376 1104.25,1182.0063 C1104.8125,1182.3188 1105.3438,1182.4751 1106.4844,1182.6626 C1107.6094,1182.8657 1107.875,1182.9282 1108.25,1183.1001 C1108.5938,1183.272 1108.8125,1183.5688 1108.8125,1183.8813 C1108.8125,1184.5376 1107.8594,1185.0532 1106.6406,1185.0532 C1105.5469,1185.0532 1104.4844,1184.6001 1104.3281,1184.0532 C1104.1875,1183.6157 1104.1875,1183.6157 1104.0625,1183.4751 C1103.8906,1183.3188 1103.6563,1183.2407 1103.4063,1183.2407 C1103.1094,1183.2407 1102.8438,1183.3657 1102.6563,1183.5845 C1102.5313,1183.7563 1102.4844,1183.9438 1102.4844,1184.3657 L1102.4844,1185.4438 C1102.4844,1186.2095 1102.7969,1186.5845 1103.4063,1186.5845 C1103.6875,1186.5845 1103.8438,1186.4907 1104.125,1186.2095 C1104.9844,1186.6313 1105.8281,1186.8188 1106.75,1186.8188 C1109.1094,1186.8188 1110.7188,1185.647 1110.7188,1183.9126 C1110.7188,1183.0532 1110.375,1182.3657 1109.6875,1181.8345 C1109.1563,1181.4282 1108.4844,1181.1938 1106.9844,1180.9438 C1105.7031,1180.6938 1105.6406,1180.6782 1105.3125,1180.5063 C1104.9688,1180.3657 1104.7344,1180.0063 1104.7344,1179.6782 C1104.7344,1179.0376 1105.5469,1178.522 1106.5781,1178.522 C1107.625,1178.522 1108.3906,1178.9438 1108.5313,1179.5688 C1108.6563,1180.1001 1108.6563,1180.1001 1108.7969,1180.2407 C1108.9531,1180.397 1109.2031,1180.4907 1109.4531,1180.4907 C1109.75,1180.4907 1110,1180.3657 1110.1875,1180.147 C1110.3281,1179.9595 1110.3594,1179.8188 1110.3594,1179.3657 L1110.3594,1177.9126 Z " fill="#000000"/><text fill="#000000" font-family="sans-serif" font-size="14" lengthAdjust="spacing" textLength="77" x="1123.5" y="1183.606">BackendAPI</text><rect fill="#E2E2F0" height="36" rx="2.5" ry="2.5" style="stroke:#181818;stroke-width:0.5;" width="117" x="1217.5" y="82.5999"/><ellipse cx="1235.5" cy="100.5999" fill="#808080" rx="11" ry="11" style="stroke:#181818;stroke-width:1.0;"/><path d="M1239.3594,96.9124 C1239.3594,96.4749 1239.3438,96.3499 1239.2344,96.178 C1239.0781,95.928 1238.7813,95.7717 1238.4531,95.7717 C1238.1094,95.7717 1237.9219,95.9124 1237.7656,96.2874 C1237.2031,95.9592 1236.4375,95.7717 1235.5625,95.7717 C1233.4219,95.7717 1231.8281,97.0374 1231.8281,98.6936 C1231.8281,99.6467 1232.375,100.5374 1233.25,101.0061 C1233.8125,101.3186 1234.3438,101.4749 1235.4844,101.6624 C1236.6094,101.8655 1236.875,101.928 1237.25,102.0999 C1237.5938,102.2717 1237.8125,102.5686 1237.8125,102.8811 C1237.8125,103.5374 1236.8594,104.053 1235.6406,104.053 C1234.5469,104.053 1233.4844,103.5999 1233.3281,103.053 C1233.1875,102.6155 1233.1875,102.6155 1233.0625,102.4749 C1232.8906,102.3186 1232.6563,102.2405 1232.4063,102.2405 C1232.1094,102.2405 1231.8438,102.3655 1231.6563,102.5842 C1231.5313,102.7561 1231.4844,102.9436 1231.4844,103.3655 L1231.4844,104.4436 C1231.4844,105.2092 1231.7969,105.5842 1232.4063,105.5842 C1232.6875,105.5842 1232.8438,105.4905 1233.125,105.2092 C1233.9844,105.6311 1234.8281,105.8186 1235.75,105.8186 C1238.1094,105.8186 1239.7188,104.6467 1239.7188,102.9124 C1239.7188,102.053 1239.375,101.3655 1238.6875,100.8342 C1238.1563,100.428 1237.4844,100.1936 1235.9844,99.9436 C1234.7031,99.6936 1234.6406,99.678 1234.3125,99.5061 C1233.9688,99.3655 1233.7344,99.0061 1233.7344,98.678 C1233.7344,98.0374 1234.5469,97.5217 1235.5781,97.5217 C1236.625,97.5217 1237.3906,97.9436 1237.5313,98.5686 C1237.6563,99.0999 1237.6563,99.0999 1237.7969,99.2405 C1237.9531,99.3967 1238.2031,99.4905 1238.4531,99.4905 C1238.75,99.4905 1239,99.3655 1239.1875,99.1467 C1239.3281,98.9592 1239.3594,98.8186 1239.3594,98.3655 L1239.3594,96.9124 Z " fill="#000000"/><text fill="#000000" font-family="sans-serif" font-size="14" lengthAdjust="spacing" textLength="75" x="1252.5" y="102.6058">QueryClient</text><rect fill="#E2E2F0" height="36" rx="2.5" ry="2.5" style="stroke:#181818;stroke-width:0.5;" width="117" x="1217.5" y="1163.6001"/><ellipse cx="1235.5" cy="1181.6001" fill="#808080" rx="11" ry="11" style="stroke:#181818;stroke-width:1.0;"/><path d="M1239.3594,1177.9126 C1239.3594,1177.4751 1239.3438,1177.3501 1239.2344,1177.1782 C1239.0781,1176.9282 1238.7813,1176.772 1238.4531,1176.772 C1238.1094,1176.772 1237.9219,1176.9126 1237.7656,1177.2876 C1237.2031,1176.9595 1236.4375,1176.772 1235.5625,1176.772 C1233.4219,1176.772 1231.8281,1178.0376 1231.8281,1179.6938 C1231.8281,1180.647 1232.375,1181.5376 1233.25,1182.0063 C1233.8125,1182.3188 1234.3438,1182.4751 1235.4844,1182.6626 C1236.6094,1182.8657 1236.875,1182.9282 1237.25,1183.1001 C1237.5938,1183.272 1237.8125,1183.5688 1237.8125,1183.8813 C1237.8125,1184.5376 1236.8594,1185.0532 1235.6406,1185.0532 C1234.5469,1185.0532 1233.4844,1184.6001 1233.3281,1184.0532 C1233.1875,1183.6157 1233.1875,1183.6157 1233.0625,1183.4751 C1232.8906,1183.3188 1232.6563,1183.2407 1232.4063,1183.2407 C1232.1094,1183.2407 1231.8438,1183.3657 1231.6563,1183.5845 C1231.5313,1183.7563 1231.4844,1183.9438 1231.4844,1184.3657 L1231.4844,1185.4438 C1231.4844,1186.2095 1231.7969,1186.5845 1232.4063,1186.5845 C1232.6875,1186.5845 1232.8438,1186.4907 1233.125,1186.2095 C1233.9844,1186.6313 1234.8281,1186.8188 1235.75,1186.8188 C1238.1094,1186.8188 1239.7188,1185.647 1239.7188,1183.9126 C1239.7188,1183.0532 1239.375,1182.3657 1238.6875,1181.8345 C1238.1563,1181.4282 1237.4844,1181.1938 1235.9844,1180.9438 C1234.7031,1180.6938 1234.6406,1180.6782 1234.3125,1180.5063 C1233.9688,1180.3657 1233.7344,1180.0063 1233.7344,1179.6782 C1233.7344,1179.0376 1234.5469,1178.522 1235.5781,1178.522 C1236.625,1178.522 1237.3906,1178.9438 1237.5313,1179.5688 C1237.6563,1180.1001 1237.6563,1180.1001 1237.7969,1180.2407 C1237.9531,1180.397 1238.2031,1180.4907 1238.4531,1180.4907 C1238.75,1180.4907 1239,1180.3657 1239.1875,1180.147 C1239.3281,1179.9595 1239.3594,1179.8188 1239.3594,1179.3657 L1239.3594,1177.9126 Z " fill="#000000"/><text fill="#000000" font-family="sans-serif" font-size="14" lengthAdjust="spacing" textLength="75" x="1252.5" y="1183.606">QueryClient</text><rect fill="#E2E2F0" height="36" rx="2.5" ry="2.5" style="stroke:#181818;stroke-width:0.5;" width="91" x="1344.5" y="82.5999"/><ellipse cx="1362.5" cy="100.5999" fill="#FFC0CB" rx="11" ry="11" style="stroke:#181818;stroke-width:1.0;"/><path d="M1357.5,101.7561 C1357.5,104.2561 1359.6406,106.0686 1362.5625,106.0686 C1363.7969,106.0686 1364.9688,105.7717 1365.7188,105.2561 C1366.3281,104.8342 1366.6563,104.4124 1366.6563,104.0061 C1366.6563,103.5374 1366.2344,103.1311 1365.7344,103.1311 C1365.5,103.1311 1365.2813,103.2092 1365.0781,103.4124 C1364.6406,103.8499 1364.6406,103.8499 1364.4688,103.9436 C1364.0156,104.178 1363.375,104.3186 1362.6094,104.3186 C1360.6094,104.3186 1359.3281,103.303 1359.3281,101.7249 L1359.3281,100.678 C1359.3281,98.9749 1360.5469,97.7717 1362.25,97.7717 C1362.8281,97.7717 1363.4063,97.9124 1363.875,98.1624 C1364.3438,98.428 1364.5156,98.6155 1364.5781,98.9749 C1364.7031,99.6467 1364.9531,99.8967 1365.4844,99.8967 C1365.7656,99.8967 1366.0469,99.7561 1366.2344,99.5374 C1366.3594,99.3655 1366.4063,99.1936 1366.4063,98.7561 L1366.4063,97.3967 C1366.4063,96.9749 1366.3906,96.8342 1366.2656,96.6624 C1366.0938,96.4124 1365.8125,96.2561 1365.4844,96.2561 C1365.1719,96.2561 1364.9688,96.3655 1364.75,96.6311 C1363.5781,96.1311 1363.1406,96.0217 1362.1875,96.0217 C1359.5156,96.0217 1357.5,98.0374 1357.5,100.6624 L1357.5,101.7561 Z " fill="#000000"/><text fill="#000000" font-family="sans-serif" font-size="14" lengthAdjust="spacing" textLength="49" x="1379.5" y="102.6058">Toaster</text><rect fill="#E2E2F0" height="36" rx="2.5" ry="2.5" style="stroke:#181818;stroke-width:0.5;" width="91" x="1344.5" y="1163.6001"/><ellipse cx="1362.5" cy="1181.6001" fill="#FFC0CB" rx="11" ry="11" style="stroke:#181818;stroke-width:1.0;"/><path d="M1357.5,1182.7563 C1357.5,1185.2563 1359.6406,1187.0688 1362.5625,1187.0688 C1363.7969,1187.0688 1364.9688,1186.772 1365.7188,1186.2563 C1366.3281,1185.8345 1366.6563,1185.4126 1366.6563,1185.0063 C1366.6563,1184.5376 1366.2344,1184.1313 1365.7344,1184.1313 C1365.5,1184.1313 1365.2813,1184.2095 1365.0781,1184.4126 C1364.6406,1184.8501 1364.6406,1184.8501 1364.4688,1184.9438 C1364.0156,1185.1782 1363.375,1185.3188 1362.6094,1185.3188 C1360.6094,1185.3188 1359.3281,1184.3032 1359.3281,1182.7251 L1359.3281,1181.6782 C1359.3281,1179.9751 1360.5469,1178.772 1362.25,1178.772 C1362.8281,1178.772 1363.4063,1178.9126 1363.875,1179.1626 C1364.3438,1179.4282 1364.5156,1179.6157 1364.5781,1179.9751 C1364.7031,1180.647 1364.9531,1180.897 1365.4844,1180.897 C1365.7656,1180.897 1366.0469,1180.7563 1366.2344,1180.5376 C1366.3594,1180.3657 1366.4063,1180.1938 1366.4063,1179.7563 L1366.4063,1178.397 C1366.4063,1177.9751 1366.3906,1177.8345 1366.2656,1177.6626 C1366.0938,1177.4126 1365.8125,1177.2563 1365.4844,1177.2563 C1365.1719,1177.2563 1364.9688,1177.3657 1364.75,1177.6313 C1363.5781,1177.1313 1363.1406,1177.022 1362.1875,1177.022 C1359.5156,1177.022 1357.5,1179.0376 1357.5,1181.6626 L1357.5,1182.7563 Z " fill="#000000"/><text fill="#000000" font-family="sans-serif" font-size="14" lengthAdjust="spacing" textLength="49" x="1379.5" y="1183.606">Toaster</text><rect fill="#FFFFFF" height="237.8001" style="stroke:#181818;stroke-width:1.0;" width="10" x="263.5" y="151.1999"/><rect fill="#FFFFFF" height="66.2" style="stroke:#181818;stroke-width:1.0;" width="10" x="486.5" y="499.9999"/><rect fill="#FFFFFF" height="178.6001" style="stroke:#181818;stroke-width:1.0;" width="10" x="648.5" y="210.3999"/><rect fill="#FFFFFF" height="558.8001" style="stroke:#181818;stroke-width:1.0;" width="10" x="648.5" y="595.8"/><rect fill="#FFFFFF" height="29.6" style="stroke:#181818;stroke-width:1.0;" width="10" x="801" y="655"/><rect fill="#FFFFFF" height="529.2001" style="stroke:#181818;stroke-width:1.0;" width="10" x="937" y="625.4"/><rect fill="#FFFFFF" height="440.4001" style="stroke:#181818;stroke-width:1.0;" width="10" x="1143" y="714.2"/><rect fill="#FFFFFF" height="208.2001" style="stroke:#181818;stroke-width:1.0;" width="10" x="1271" y="180.7999"/><rect fill="#FFFFFF" height="29.6" style="stroke:#181818;stroke-width:1.0;" width="10" x="1271" y="946.4001"/><rect fill="#FFFFFF" height="30" style="stroke:#181818;stroke-width:1.0;" width="10" x="1385" y="857.2001"/><rect fill="#FFFFFF" height="30" style="stroke:#181818;stroke-width:1.0;" width="10" x="1385" y="1109.6001"/><polygon fill="#181818" points="251.5,147.1999,261.5,151.1999,251.5,155.1999,255.5,151.1999" style="stroke:#181818;stroke-width:1.0;"/><line style="stroke:#181818;stroke-width:1.0;" x1="32.5" x2="257.5" y1="151.1999" y2="151.1999"/><text fill="#000000" font-family="sans-serif" font-size="13" lengthAdjust="spacing" textLength="212" x="39.5" y="145.6769">Navigates to /dashboard_user/tuition</text><polygon fill="#181818" points="1259,176.7999,1269,180.7999,1259,184.7999,1263,180.7999" style="stroke:#181818;stroke-width:1.0;"/><line style="stroke:#181818;stroke-width:1.0;" x1="273.5" x2="1265" y1="180.7999" y2="180.7999"/><text fill="#000000" font-family="sans-serif" font-size="13" lengthAdjust="spacing" textLength="217" x="280.5" y="175.2769">useQuery(['hasActiveTuition', userId])</text><polygon fill="#181818" points="669.5,206.3999,659.5,210.3999,669.5,214.3999,665.5,210.3999" style="stroke:#181818;stroke-width:1.0;"/><line style="stroke:#181818;stroke-width:1.0;" x1="663.5" x2="1270" y1="210.3999" y2="210.3999"/><text fill="#000000" font-family="sans-serif" font-size="13" lengthAdjust="spacing" textLength="141" x="675.5" y="204.8769">hasActiveTuition(userId)</text><path d="M147.5,225.3999 L207.5,225.3999 L207.5,232.9999 L197.5,242.9999 L147.5,242.9999 L147.5,225.3999 " fill="#EEEEEE" style="stroke:#000000;stroke-width:1.5;"/><rect fill="none" height="282.6" style="stroke:#000000;stroke-width:1.5;" width="1197" x="147.5" y="225.3999"/><text fill="#000000" font-family="sans-serif" font-size="13" font-weight="bold" lengthAdjust="spacing" textLength="15" x="162.5" y="238.4769">alt</text><text fill="#000000" font-family="sans-serif" font-size="11" font-weight="bold" lengthAdjust="spacing" textLength="100" x="222.5" y="237.6188">[Has active tuition]</text><polygon fill="#181818" points="1259,260.5999,1269,264.5999,1259,268.5999,1263,264.5999" style="stroke:#181818;stroke-width:1.0;"/><line style="stroke:#181818;stroke-width:1.0;stroke-dasharray:2.0,2.0;" x1="658.5" x2="1265" y1="264.5999" y2="264.5999"/><text fill="#000000" font-family="sans-serif" font-size="13" lengthAdjust="spacing" textLength="22" x="665.5" y="259.0769">true</text><polygon fill="#181818" points="669.5,290.1999,659.5,294.1999,669.5,298.1999,665.5,294.1999" style="stroke:#181818;stroke-width:1.0;"/><line style="stroke:#181818;stroke-width:1.0;" x1="663.5" x2="1270" y1="294.1999" y2="294.1999"/><text fill="#000000" font-family="sans-serif" font-size="13" lengthAdjust="spacing" textLength="264" x="675.5" y="288.6769">listUserTuitions(userId) ' if needed for details '</text><polygon fill="#181818" points="1259,319.7999,1269,323.7999,1259,327.7999,1263,323.7999" style="stroke:#181818;stroke-width:1.0;"/><line style="stroke:#181818;stroke-width:1.0;stroke-dasharray:2.0,2.0;" x1="658.5" x2="1265" y1="323.7999" y2="323.7999"/><text fill="#000000" font-family="sans-serif" font-size="13" lengthAdjust="spacing" textLength="47" x="665.5" y="318.2769">Tuition[]</text><polygon fill="#181818" points="284.5,349.4,274.5,353.4,284.5,357.4,280.5,353.4" style="stroke:#181818;stroke-width:1.0;"/><line style="stroke:#181818;stroke-width:1.0;stroke-dasharray:2.0,2.0;" x1="278.5" x2="1270" y1="353.4" y2="353.4"/><text fill="#000000" font-family="sans-serif" font-size="13" lengthAdjust="spacing" textLength="201" x="290.5" y="347.877">{hasActive: true, tuitions: Tuition[]}</text><line style="stroke:#181818;stroke-width:1.0;" x1="273.5" x2="315.5" y1="388" y2="388"/><line style="stroke:#181818;stroke-width:1.0;" x1="315.5" x2="315.5" y1="388" y2="401"/><line style="stroke:#181818;stroke-width:1.0;" x1="268.5" x2="315.5" y1="401" y2="401"/><polygon fill="#181818" points="278.5,397,268.5,401,278.5,405,274.5,401" style="stroke:#181818;stroke-width:1.0;"/><text fill="#000000" font-family="sans-serif" font-size="13" lengthAdjust="spacing" textLength="199" x="280.5" y="382.477">Renders TuitionDetails component</text><line style="stroke:#000000;stroke-width:1.0;stroke-dasharray:2.0,2.0;" x1="147.5" x2="1344.5" y1="405" y2="405"/><text fill="#000000" font-family="sans-serif" font-size="11" font-weight="bold" lengthAdjust="spacing" textLength="95" x="152.5" y="415.2189">[No active tuition]</text><polygon fill="#181818" points="1264,436.7999,1274,440.7999,1264,444.7999,1268,440.7999" style="stroke:#181818;stroke-width:1.0;"/><line style="stroke:#181818;stroke-width:1.0;stroke-dasharray:2.0,2.0;" x1="653.5" x2="1270" y1="440.7999" y2="440.7999"/><text fill="#000000" font-family="sans-serif" font-size="13" lengthAdjust="spacing" textLength="28" x="660.5" y="435.2769">false</text><polygon fill="#181818" points="279.5,466.3999,269.5,470.3999,279.5,474.3999,275.5,470.3999" style="stroke:#181818;stroke-width:1.0;"/><line style="stroke:#181818;stroke-width:1.0;stroke-dasharray:2.0,2.0;" x1="273.5" x2="1275" y1="470.3999" y2="470.3999"/><text fill="#000000" font-family="sans-serif" font-size="13" lengthAdjust="spacing" textLength="102" x="285.5" y="464.8769">{hasActive: false}</text><polygon fill="#181818" points="474.5,495.9999,484.5,499.9999,474.5,503.9999,478.5,499.9999" style="stroke:#181818;stroke-width:1.0;"/><line style="stroke:#181818;stroke-width:1.0;" x1="268.5" x2="480.5" y1="499.9999" y2="499.9999"/><text fill="#000000" font-family="sans-serif" font-size="13" lengthAdjust="spacing" textLength="148" x="275.5" y="494.4769">Renders payment options</text><polygon fill="#181818" points="474.5,532.5999,484.5,536.5999,474.5,540.5999,478.5,536.5999" style="stroke:#181818;stroke-width:1.0;"/><line style="stroke:#181818;stroke-width:1.0;" x1="32.5" x2="480.5" y1="536.5999" y2="536.5999"/><text fill="#000000" font-family="sans-serif" font-size="13" lengthAdjust="spacing" textLength="200" x="39.5" y="531.0769">Selects a payment plan (e.g., $20)</text><polygon fill="#181818" points="279.5,562.1999,269.5,566.1999,279.5,570.1999,275.5,566.1999" style="stroke:#181818;stroke-width:1.0;"/><line style="stroke:#181818;stroke-width:1.0;" x1="273.5" x2="490.5" y1="566.1999" y2="566.1999"/><text fill="#000000" font-family="sans-serif" font-size="13" lengthAdjust="spacing" textLength="128" x="285.5" y="560.6769">onSelectPlan(amount)</text><polygon fill="#181818" points="636.5,591.8,646.5,595.8,636.5,599.8,640.5,595.8" style="stroke:#181818;stroke-width:1.0;"/><line style="stroke:#181818;stroke-width:1.0;" x1="268.5" x2="642.5" y1="595.8" y2="595.8"/><text fill="#000000" font-family="sans-serif" font-size="13" lengthAdjust="spacing" textLength="111" x="275.5" y="590.277">payTuition(amount)</text><polygon fill="#181818" points="925,621.4,935,625.4,925,629.4,929,625.4" style="stroke:#181818;stroke-width:1.0;"/><line style="stroke:#181818;stroke-width:1.0;" x1="658.5" x2="931" y1="625.4" y2="625.4"/><text fill="#000000" font-family="sans-serif" font-size="13" lengthAdjust="spacing" textLength="253" x="665.5" y="619.877">fetchJson("/tuitions/pay/{amount}", {POST})</text><polygon fill="#181818" points="822,651,812,655,822,659,818,655" style="stroke:#181818;stroke-width:1.0;"/><line style="stroke:#181818;stroke-width:1.0;" x1="816" x2="936" y1="655" y2="655"/><text fill="#000000" font-family="sans-serif" font-size="13" lengthAdjust="spacing" textLength="62" x="828" y="649.477">getToken()</text><polygon fill="#181818" points="925,680.6,935,684.6,925,688.6,929,684.6" style="stroke:#181818;stroke-width:1.0;"/><line style="stroke:#181818;stroke-width:1.0;stroke-dasharray:2.0,2.0;" x1="806" x2="931" y1="684.6" y2="684.6"/><text fill="#000000" font-family="sans-serif" font-size="13" lengthAdjust="spacing" textLength="102" x="813" y="679.077">"user_token_abc"</text><polygon fill="#181818" points="1131,710.2,1141,714.2,1131,718.2,1135,714.2" style="stroke:#181818;stroke-width:1.0;"/><line style="stroke:#181818;stroke-width:1.0;" x1="947" x2="1137" y1="714.2" y2="714.2"/><text fill="#000000" font-family="sans-serif" font-size="13" lengthAdjust="spacing" textLength="166" x="954" y="708.677">POST /tuitions/pay/{amount}</text><path d="M147.5,729.2 L207.5,729.2 L207.5,736.8 L197.5,746.8 L147.5,746.8 L147.5,729.2 " fill="#EEEEEE" style="stroke:#000000;stroke-width:1.5;"/><rect fill="none" height="418.4001" style="stroke:#000000;stroke-width:1.5;" width="1298" x="147.5" y="729.2"/><text fill="#000000" font-family="sans-serif" font-size="13" font-weight="bold" lengthAdjust="spacing" textLength="15" x="162.5" y="742.277">alt</text><text fill="#000000" font-family="sans-serif" font-size="11" font-weight="bold" lengthAdjust="spacing" textLength="114" x="222.5" y="741.4189">[Payment successful]</text><polygon fill="#181818" points="958,764.4,948,768.4,958,772.4,954,768.4" style="stroke:#181818;stroke-width:1.0;"/><line style="stroke:#181818;stroke-width:1.0;stroke-dasharray:2.0,2.0;" x1="952" x2="1142" y1="768.4" y2="768.4"/><text fill="#000000" font-family="sans-serif" font-size="13" lengthAdjust="spacing" textLength="172" x="964" y="762.877">HTTP 200 OK (Tuition object)</text><polygon fill="#181818" points="669.5,794.0001,659.5,798.0001,669.5,802.0001,665.5,798.0001" style="stroke:#181818;stroke-width:1.0;"/><line style="stroke:#181818;stroke-width:1.0;stroke-dasharray:2.0,2.0;" x1="663.5" x2="936" y1="798.0001" y2="798.0001"/><text fill="#000000" font-family="sans-serif" font-size="13" lengthAdjust="spacing" textLength="39" x="675.5" y="792.4771">Tuition</text><polygon fill="#181818" points="279.5,823.6001,269.5,827.6001,279.5,831.6001,275.5,827.6001" style="stroke:#181818;stroke-width:1.0;"/><line style="stroke:#181818;stroke-width:1.0;stroke-dasharray:2.0,2.0;" x1="273.5" x2="647.5" y1="827.6001" y2="827.6001"/><text fill="#000000" font-family="sans-serif" font-size="13" lengthAdjust="spacing" textLength="39" x="285.5" y="822.0771">Tuition</text><polygon fill="#181818" points="1373,853.2001,1383,857.2001,1373,861.2001,1377,857.2001" style="stroke:#181818;stroke-width:1.0;"/><line style="stroke:#181818;stroke-width:1.0;" x1="268.5" x2="1379" y1="857.2001" y2="857.2001"/><text fill="#000000" font-family="sans-serif" font-size="13" lengthAdjust="spacing" textLength="244" x="275.5" y="851.6771">toast.success("Tuition paid successfully")</text><polygon fill="#181818" points="1264,912.8001,1274,916.8001,1264,920.8001,1268,916.8001" style="stroke:#181818;stroke-width:1.0;"/><line style="stroke:#181818;stroke-width:1.0;" x1="268.5" x2="1270" y1="916.8001" y2="916.8001"/><text fill="#000000" font-family="sans-serif" font-size="13" lengthAdjust="spacing" textLength="261" x="275.5" y="911.2771">invalidateQueries(['hasActiveTuition', userId])</text><polygon fill="#181818" points="1259,942.4001,1269,946.4001,1259,950.4001,1263,946.4001" style="stroke:#181818;stroke-width:1.0;"/><line style="stroke:#181818;stroke-width:1.0;" x1="268.5" x2="1265" y1="946.4001" y2="946.4001"/><text fill="#000000" font-family="sans-serif" font-size="13" lengthAdjust="spacing" textLength="235" x="275.5" y="940.8771">invalidateQueries(['userTuitions', userId])</text><polygon fill="#181818" points="279.5,972.0001,269.5,976.0001,279.5,980.0001,275.5,976.0001" style="stroke:#181818;stroke-width:1.0;"/><line style="stroke:#181818;stroke-width:1.0;" x1="273.5" x2="1275" y1="976.0001" y2="976.0001"/><text fill="#000000" font-family="sans-serif" font-size="13" lengthAdjust="spacing" textLength="289" x="285.5" y="970.4771">Triggers refetch, UI updates to show active tuition</text><line style="stroke:#000000;stroke-width:1.0;stroke-dasharray:2.0,2.0;" x1="147.5" x2="1445.5" y1="985.0001" y2="985.0001"/><text fill="#000000" font-family="sans-serif" font-size="11" font-weight="bold" lengthAdjust="spacing" textLength="86" x="152.5" y="995.219">[Payment failed]</text><polygon fill="#181818" points="958,1016.8,948,1020.8,958,1024.8,954,1020.8" style="stroke:#181818;stroke-width:1.0;"/><line style="stroke:#181818;stroke-width:1.0;stroke-dasharray:2.0,2.0;" x1="952" x2="1142" y1="1020.8" y2="1020.8"/><text fill="#000000" font-family="sans-serif" font-size="13" lengthAdjust="spacing" textLength="66" x="964" y="1015.277">HTTP Error</text><polygon fill="#181818" points="669.5,1046.4001,659.5,1050.4001,669.5,1054.4001,665.5,1050.4001" style="stroke:#181818;stroke-width:1.0;"/><line style="stroke:#181818;stroke-width:1.0;" x1="663.5" x2="936" y1="1050.4001" y2="1050.4001"/><text fill="#000000" font-family="sans-serif" font-size="13" lengthAdjust="spacing" textLength="70" x="675.5" y="1044.8771">throws Error</text><polygon fill="#181818" points="279.5,1076.0001,269.5,1080.0001,279.5,1084.0001,275.5,1080.0001" style="stroke:#181818;stroke-width:1.0;"/><line style="stroke:#181818;stroke-width:1.0;stroke-dasharray:2.0,2.0;" x1="273.5" x2="647.5" y1="1080.0001" y2="1080.0001"/><text fill="#000000" font-family="sans-serif" font-size="13" lengthAdjust="spacing" textLength="70" x="285.5" y="1074.4771">throws Error</text><polygon fill="#181818" points="1373,1105.6001,1383,1109.6001,1373,1113.6001,1377,1109.6001" style="stroke:#181818;stroke-width:1.0;"/><line style="stroke:#181818;stroke-width:1.0;" x1="268.5" x2="1379" y1="1109.6001" y2="1109.6001"/><text fill="#000000" font-family="sans-serif" font-size="13" lengthAdjust="spacing" textLength="198" x="275.5" y="1104.0771">toast.error("Error paying tuition...")</text><!--SRC=[dLNRRjiu47tNLmo40fO0nmdwQ1G1qdIxzIxQg8dzr1O6BOqbRcHHIr89Z22VrA_O7rjI8YNgugRjcqJEENFcIabbZh2vtlw9Gb9M4FwHI4xZAYSRKH5E6GGHIGa7VVxVTtqHBk4E_wsmY17UKP9oSl0y4al6mJSW7uY0ZK3kbOHB6jEI55BV8bzNL3jIf7ZD3YKhi92rkNC1Rzu4jtF6uumcuULbdoGYnuF2t9JQMjJG_j5cfV7NyvoccKmv7aSKid6rtP7u7eja8SNNeYH7eo08NJrl6njD-Nv-n3ndZoE-gqfc7qcXbFCQMl-dN6Fk6XcxlC8Hh98q5xNpFSeu-qkqlj_h_uswRjmoJefqZ3VIhg9LupLQDHubEn39HkQVA-J7wvpQX3l_3MuoLsj6X3HncUyclIKjxhMrfwiAPvUz0YxX4tcWAP4eG38uJuZ8TepmP5ifwtDJ0Dqrz44PkLZFSuaKhwjp2GfV7mHVPXaHLve03M0srxTybNmBEsO7xRbCdM1RuIKC2OE6BXpfD11l1el50jhgQL9T1HLnd65y3pKEmOHR6yyyaalueBBPl_HWgETi5Bla5IgxbyB8gP3Eg0aR1io0xg50J321lHhN12LHBQWq0PmE9KNPHc0HJIG_8TaOVFasr3rgcASs-qsWS-jKE2pFdK_R7dsMMoK3UJkzxupUsAuQXKzmiZbw5uCwJztLlOgvGFZ4VgEMUwAWlvIK6Z6HWD7swx9GDbV0cZk5RQCOeZmTvudKd4vCD_qJAkumnrYgHczrb3af8C15kfZ3gzSNeJT2ZJB0YeOcKj2075XLoD0LD8h3c-wFRZoSJM_vJeKthEAbivcNtR04ljreubondpyrlC_-79wYcxlri-EX9V0wAZrhvibOwd5RC-KkS43crhDMPmCblfxmhTImBTd5lfiWY-sxYtI1j3QObkxuZbRroZA91b75CGgnhtBLJffdAER3UXt1wuiBkFaR0fD1OBj_L1531N5qJ5Ld_QCHwhU6DPtO2UQXKfj4VosCvi2tSaf24oUI_EY7xd0O_63kpU7ONN-oQV50SfeeY3wdA5vugdw3hdAsUv_gn6gRVZ9i7ZbDKxqkEDOjFGSrY5MPsDTRPEnnlE5Ex8fw8zfUsQlbYycF-kGFpXdlTyL4KyYCiqVH6h_O6TFsfxe3jLdWrzPwEz0YjN6gT-uNEcEmGlNaEB_Tv9_UfzFFpFy0]--></g></svg>