<?xml version="1.0" encoding="us-ascii" standalone="no"?><svg xmlns="http://www.w3.org/2000/svg" xmlns:xlink="http://www.w3.org/1999/xlink" contentStyleType="text/css" height="860px" preserveAspectRatio="none" style="width:2086px;height:860px;background:#FFFFFF;" version="1.1" viewBox="0 0 2086 860" width="2086px" zoomAndPan="magnify"><defs/><g><text fill="#000000" font-family="sans-serif" font-size="14" font-weight="bold" lengthAdjust="spacing" textLength="526" x="781" y="28.0059">UC_GestionarCanchasCRUDAdmin (Crear/Editar Cancha): Sequence Diagram</text><rect fill="#FFFFFF" height="504.0002" style="stroke:#181818;stroke-width:1.0;" width="10" x="595" y="205.3999"/><rect fill="#FFFFFF" height="88.8" style="stroke:#181818;stroke-width:1.0;" width="10" x="829" y="234.9999"/><rect fill="#FFFFFF" height="207.2001" style="stroke:#181818;stroke-width:1.0;" width="10" x="1176" y="353.4"/><rect fill="#FFFFFF" height="387.2" style="stroke:#181818;stroke-width:1.0;" width="10" x="1497" y="383"/><rect fill="#FFFFFF" height="29.6" style="stroke:#181818;stroke-width:1.0;" width="10" x="1643" y="412.6"/><rect fill="#FFFFFF" height="29.6" style="stroke:#181818;stroke-width:1.0;" width="10" x="1776.5" y="471.8"/><rect fill="#FFFFFF" height="30" style="stroke:#181818;stroke-width:1.0;" width="10" x="1904.5" y="649.8001"/><rect fill="#FFFFFF" height="30" style="stroke:#181818;stroke-width:1.0;" width="10" x="2018.5" y="590.2001"/><rect fill="none" height="625.6002" style="stroke:#000000;stroke-width:1.5;" width="2069" x="10" y="136.5999"/><line style="stroke:#181818;stroke-width:0.5;stroke-dasharray:5.0,5.0;" x1="43" x2="43" y1="119.5999" y2="779.2"/><line style="stroke:#181818;stroke-width:0.5;stroke-dasharray:5.0,5.0;" x1="203.5" x2="203.5" y1="119.5999" y2="779.2"/><line style="stroke:#181818;stroke-width:0.5;stroke-dasharray:5.0,5.0;" x1="419.5" x2="419.5" y1="119.5999" y2="779.2"/><line style="stroke:#181818;stroke-width:0.5;stroke-dasharray:5.0,5.0;" x1="599.5" x2="599.5" y1="119.5999" y2="779.2"/><line style="stroke:#181818;stroke-width:0.5;stroke-dasharray:5.0,5.0;" x1="833.5" x2="833.5" y1="119.5999" y2="779.2"/><line style="stroke:#181818;stroke-width:0.5;stroke-dasharray:5.0,5.0;" x1="1180.5" x2="1180.5" y1="119.5999" y2="779.2"/><line style="stroke:#181818;stroke-width:0.5;stroke-dasharray:5.0,5.0;" x1="1501.5" x2="1501.5" y1="119.5999" y2="779.2"/><line style="stroke:#181818;stroke-width:0.5;stroke-dasharray:5.0,5.0;" x1="1648" x2="1648" y1="119.5999" y2="779.2"/><line style="stroke:#181818;stroke-width:0.5;stroke-dasharray:5.0,5.0;" x1="1781" x2="1781" y1="119.5999" y2="779.2"/><line style="stroke:#181818;stroke-width:0.5;stroke-dasharray:5.0,5.0;" x1="1909" x2="1909" y1="119.5999" y2="779.2"/><line style="stroke:#181818;stroke-width:0.5;stroke-dasharray:5.0,5.0;" x1="2023" x2="2023" y1="119.5999" y2="779.2"/><text fill="#000000" font-family="sans-serif" font-size="14" lengthAdjust="spacing" textLength="40" x="20" y="115.8059">Admin</text><ellipse cx="43" cy="51.2999" fill="#E2E2F0" rx="8" ry="8" style="stroke:#181818;stroke-width:0.5;"/><path d="M43,59.2999 L43,86.2999 M30,67.2999 L56,67.2999 M43,86.2999 L30,101.2999 M43,86.2999 L56,101.2999 " fill="none" style="stroke:#181818;stroke-width:0.5;"/><text fill="#000000" font-family="sans-serif" font-size="14" lengthAdjust="spacing" textLength="40" x="20" y="791.206">Admin</text><ellipse cx="43" cy="803.4999" fill="#E2E2F0" rx="8" ry="8" style="stroke:#181818;stroke-width:0.5;"/><path d="M43,811.4999 L43,838.4999 M30,819.4999 L56,819.4999 M43,838.4999 L30,853.4999 M43,838.4999 L56,853.4999 " fill="none" style="stroke:#181818;stroke-width:0.5;"/><rect fill="#E2E2F0" height="36" rx="2.5" ry="2.5" style="stroke:#181818;stroke-width:0.5;" width="241" x="83.5" y="82.5999"/><ellipse cx="101.5" cy="100.5999" fill="#DA70D6" rx="11" ry="11" style="stroke:#181818;stroke-width:1.0;"/><path d="M99.3594,101.9905 L100.9375,101.9905 C101.6094,102.2405 103.0938,103.9124 103.9688,105.4905 L104.0313,105.5999 L105.4063,105.5999 C105.7344,105.5999 106.0156,105.553 106.1563,105.4749 C106.4219,105.3186 106.5938,105.0217 106.5938,104.7092 C106.5938,104.4436 106.4375,104.1624 106.2188,104.0061 C106.0313,103.8655 105.8594,103.8342 105.4063,103.8342 L105.2188,103.8342 C104.5625,102.8499 103.8906,102.053 103.1563,101.4124 C104.3594,100.7874 104.9375,99.9905 104.9375,98.9592 C104.9375,97.2249 103.3906,96.0061 101.1406,96.0061 L97.3438,96.0061 C96.8906,96.0061 96.7656,96.0217 96.5938,96.1311 C96.3281,96.303 96.1563,96.5842 96.1563,96.8811 C96.1563,97.1624 96.3125,97.4436 96.5313,97.5999 C96.7188,97.7249 96.9063,97.7561 97.3438,97.7561 L97.5313,97.7561 L97.5313,103.8342 L97.3438,103.8342 C96.9219,103.8342 96.7656,103.8655 96.5938,103.9749 C96.3281,104.1155 96.1563,104.4124 96.1563,104.7092 C96.1563,105.2874 96.5625,105.5999 97.3438,105.5999 L99.8906,105.5999 C100.25,105.5999 100.5,105.553 100.6406,105.4749 C100.9063,105.3186 101.0781,105.0217 101.0781,104.7092 C101.0781,104.4436 100.9531,104.178 100.7031,104.0061 C100.5156,103.8655 100.375,103.8342 99.8906,103.8342 L99.3594,103.8342 L99.3594,101.9905 Z M99.3594,100.2405 L99.3594,97.7561 L101.2031,97.7561 C102.2344,97.7561 103,98.2405 103,98.8967 C103,99.678 101.9844,100.2405 100.5938,100.2405 L99.3594,100.2405 Z " fill="#000000"/><text fill="#000000" font-family="sans-serif" font-size="14" lengthAdjust="spacing" textLength="199" x="118.5" y="102.6058">AdminCourtsManagementPage</text><rect fill="#E2E2F0" height="36" rx="2.5" ry="2.5" style="stroke:#181818;stroke-width:0.5;" width="241" x="83.5" y="778.2"/><ellipse cx="101.5" cy="796.2" fill="#DA70D6" rx="11" ry="11" style="stroke:#181818;stroke-width:1.0;"/><path d="M99.3594,797.5906 L100.9375,797.5906 C101.6094,797.8406 103.0938,799.5125 103.9688,801.0906 L104.0313,801.2 L105.4063,801.2 C105.7344,801.2 106.0156,801.1531 106.1563,801.075 C106.4219,800.9188 106.5938,800.6219 106.5938,800.3094 C106.5938,800.0438 106.4375,799.7625 106.2188,799.6063 C106.0313,799.4656 105.8594,799.4344 105.4063,799.4344 L105.2188,799.4344 C104.5625,798.45 103.8906,797.6531 103.1563,797.0125 C104.3594,796.3875 104.9375,795.5906 104.9375,794.5594 C104.9375,792.825 103.3906,791.6063 101.1406,791.6063 L97.3438,791.6063 C96.8906,791.6063 96.7656,791.6219 96.5938,791.7313 C96.3281,791.9031 96.1563,792.1844 96.1563,792.4813 C96.1563,792.7625 96.3125,793.0438 96.5313,793.2 C96.7188,793.325 96.9063,793.3563 97.3438,793.3563 L97.5313,793.3563 L97.5313,799.4344 L97.3438,799.4344 C96.9219,799.4344 96.7656,799.4656 96.5938,799.575 C96.3281,799.7156 96.1563,800.0125 96.1563,800.3094 C96.1563,800.8875 96.5625,801.2 97.3438,801.2 L99.8906,801.2 C100.25,801.2 100.5,801.1531 100.6406,801.075 C100.9063,800.9188 101.0781,800.6219 101.0781,800.3094 C101.0781,800.0438 100.9531,799.7781 100.7031,799.6063 C100.5156,799.4656 100.375,799.4344 99.8906,799.4344 L99.3594,799.4344 L99.3594,797.5906 Z M99.3594,795.8406 L99.3594,793.3563 L101.2031,793.3563 C102.2344,793.3563 103,793.8406 103,794.4969 C103,795.2781 101.9844,795.8406 100.5938,795.8406 L99.3594,795.8406 Z " fill="#000000"/><text fill="#000000" font-family="sans-serif" font-size="14" lengthAdjust="spacing" textLength="199" x="118.5" y="798.206">AdminCourtsManagementPage</text><rect fill="#E2E2F0" height="36" rx="2.5" ry="2.5" style="stroke:#181818;stroke-width:0.5;" width="170" x="334.5" y="82.5999"/><ellipse cx="352.5" cy="100.5999" fill="#D3D3D3" rx="11" ry="11" style="stroke:#181818;stroke-width:1.0;"/><path d="M347.5,101.7561 C347.5,104.2561 349.6406,106.0686 352.5625,106.0686 C353.7969,106.0686 354.9688,105.7717 355.7188,105.2561 C356.3281,104.8342 356.6563,104.4124 356.6563,104.0061 C356.6563,103.5374 356.2344,103.1311 355.7344,103.1311 C355.5,103.1311 355.2813,103.2092 355.0781,103.4124 C354.6406,103.8499 354.6406,103.8499 354.4688,103.9436 C354.0156,104.178 353.375,104.3186 352.6094,104.3186 C350.6094,104.3186 349.3281,103.303 349.3281,101.7249 L349.3281,100.678 C349.3281,98.9749 350.5469,97.7717 352.25,97.7717 C352.8281,97.7717 353.4063,97.9124 353.875,98.1624 C354.3438,98.428 354.5156,98.6155 354.5781,98.9749 C354.7031,99.6467 354.9531,99.8967 355.4844,99.8967 C355.7656,99.8967 356.0469,99.7561 356.2344,99.5374 C356.3594,99.3655 356.4063,99.1936 356.4063,98.7561 L356.4063,97.3967 C356.4063,96.9749 356.3906,96.8342 356.2656,96.6624 C356.0938,96.4124 355.8125,96.2561 355.4844,96.2561 C355.1719,96.2561 354.9688,96.3655 354.75,96.6311 C353.5781,96.1311 353.1406,96.0217 352.1875,96.0217 C349.5156,96.0217 347.5,98.0374 347.5,100.6624 L347.5,101.7561 Z " fill="#000000"/><text fill="#000000" font-family="sans-serif" font-size="14" lengthAdjust="spacing" textLength="128" x="369.5" y="102.6058">CourtCard (existing)</text><rect fill="#E2E2F0" height="36" rx="2.5" ry="2.5" style="stroke:#181818;stroke-width:0.5;" width="170" x="334.5" y="778.2"/><ellipse cx="352.5" cy="796.2" fill="#D3D3D3" rx="11" ry="11" style="stroke:#181818;stroke-width:1.0;"/><path d="M347.5,797.3563 C347.5,799.8563 349.6406,801.6688 352.5625,801.6688 C353.7969,801.6688 354.9688,801.3719 355.7188,800.8563 C356.3281,800.4344 356.6563,800.0125 356.6563,799.6063 C356.6563,799.1375 356.2344,798.7313 355.7344,798.7313 C355.5,798.7313 355.2813,798.8094 355.0781,799.0125 C354.6406,799.45 354.6406,799.45 354.4688,799.5438 C354.0156,799.7781 353.375,799.9188 352.6094,799.9188 C350.6094,799.9188 349.3281,798.9031 349.3281,797.325 L349.3281,796.2781 C349.3281,794.575 350.5469,793.3719 352.25,793.3719 C352.8281,793.3719 353.4063,793.5125 353.875,793.7625 C354.3438,794.0281 354.5156,794.2156 354.5781,794.575 C354.7031,795.2469 354.9531,795.4969 355.4844,795.4969 C355.7656,795.4969 356.0469,795.3563 356.2344,795.1375 C356.3594,794.9656 356.4063,794.7938 356.4063,794.3563 L356.4063,792.9969 C356.4063,792.575 356.3906,792.4344 356.2656,792.2625 C356.0938,792.0125 355.8125,791.8563 355.4844,791.8563 C355.1719,791.8563 354.9688,791.9656 354.75,792.2313 C353.5781,791.7313 353.1406,791.6219 352.1875,791.6219 C349.5156,791.6219 347.5,793.6375 347.5,796.2625 L347.5,797.3563 Z " fill="#000000"/><text fill="#000000" font-family="sans-serif" font-size="14" lengthAdjust="spacing" textLength="128" x="369.5" y="798.206">CourtCard (existing)</text><rect fill="#E2E2F0" height="36" rx="2.5" ry="2.5" style="stroke:#181818;stroke-width:0.5;" width="171" x="514.5" y="82.5999"/><ellipse cx="532.5" cy="100.5999" fill="#D3D3D3" rx="11" ry="11" style="stroke:#181818;stroke-width:1.0;"/><path d="M527.5,101.7561 C527.5,104.2561 529.6406,106.0686 532.5625,106.0686 C533.7969,106.0686 534.9688,105.7717 535.7188,105.2561 C536.3281,104.8342 536.6563,104.4124 536.6563,104.0061 C536.6563,103.5374 536.2344,103.1311 535.7344,103.1311 C535.5,103.1311 535.2813,103.2092 535.0781,103.4124 C534.6406,103.8499 534.6406,103.8499 534.4688,103.9436 C534.0156,104.178 533.375,104.3186 532.6094,104.3186 C530.6094,104.3186 529.3281,103.303 529.3281,101.7249 L529.3281,100.678 C529.3281,98.9749 530.5469,97.7717 532.25,97.7717 C532.8281,97.7717 533.4063,97.9124 533.875,98.1624 C534.3438,98.428 534.5156,98.6155 534.5781,98.9749 C534.7031,99.6467 534.9531,99.8967 535.4844,99.8967 C535.7656,99.8967 536.0469,99.7561 536.2344,99.5374 C536.3594,99.3655 536.4063,99.1936 536.4063,98.7561 L536.4063,97.3967 C536.4063,96.9749 536.3906,96.8342 536.2656,96.6624 C536.0938,96.4124 535.8125,96.2561 535.4844,96.2561 C535.1719,96.2561 534.9688,96.3655 534.75,96.6311 C533.5781,96.1311 533.1406,96.0217 532.1875,96.0217 C529.5156,96.0217 527.5,98.0374 527.5,100.6624 L527.5,101.7561 Z " fill="#000000"/><text fill="#000000" font-family="sans-serif" font-size="14" lengthAdjust="spacing" textLength="129" x="549.5" y="102.6058">CourtCreationDialog</text><rect fill="#E2E2F0" height="36" rx="2.5" ry="2.5" style="stroke:#181818;stroke-width:0.5;" width="171" x="514.5" y="778.2"/><ellipse cx="532.5" cy="796.2" fill="#D3D3D3" rx="11" ry="11" style="stroke:#181818;stroke-width:1.0;"/><path d="M527.5,797.3563 C527.5,799.8563 529.6406,801.6688 532.5625,801.6688 C533.7969,801.6688 534.9688,801.3719 535.7188,800.8563 C536.3281,800.4344 536.6563,800.0125 536.6563,799.6063 C536.6563,799.1375 536.2344,798.7313 535.7344,798.7313 C535.5,798.7313 535.2813,798.8094 535.0781,799.0125 C534.6406,799.45 534.6406,799.45 534.4688,799.5438 C534.0156,799.7781 533.375,799.9188 532.6094,799.9188 C530.6094,799.9188 529.3281,798.9031 529.3281,797.325 L529.3281,796.2781 C529.3281,794.575 530.5469,793.3719 532.25,793.3719 C532.8281,793.3719 533.4063,793.5125 533.875,793.7625 C534.3438,794.0281 534.5156,794.2156 534.5781,794.575 C534.7031,795.2469 534.9531,795.4969 535.4844,795.4969 C535.7656,795.4969 536.0469,795.3563 536.2344,795.1375 C536.3594,794.9656 536.4063,794.7938 536.4063,794.3563 L536.4063,792.9969 C536.4063,792.575 536.3906,792.4344 536.2656,792.2625 C536.0938,792.0125 535.8125,791.8563 535.4844,791.8563 C535.1719,791.8563 534.9688,791.9656 534.75,792.2313 C533.5781,791.7313 533.1406,791.6219 532.1875,791.6219 C529.5156,791.6219 527.5,793.6375 527.5,796.2625 L527.5,797.3563 Z " fill="#000000"/><text fill="#000000" font-family="sans-serif" font-size="14" lengthAdjust="spacing" textLength="129" x="549.5" y="798.206">CourtCreationDialog</text><rect fill="#E2E2F0" height="36" rx="2.5" ry="2.5" style="stroke:#181818;stroke-width:0.5;" width="165" x="751.5" y="82.5999"/><ellipse cx="769.5" cy="100.5999" fill="#D3D3D3" rx="11" ry="11" style="stroke:#181818;stroke-width:1.0;"/><path d="M764.5,101.7561 C764.5,104.2561 766.6406,106.0686 769.5625,106.0686 C770.7969,106.0686 771.9688,105.7717 772.7188,105.2561 C773.3281,104.8342 773.6563,104.4124 773.6563,104.0061 C773.6563,103.5374 773.2344,103.1311 772.7344,103.1311 C772.5,103.1311 772.2813,103.2092 772.0781,103.4124 C771.6406,103.8499 771.6406,103.8499 771.4688,103.9436 C771.0156,104.178 770.375,104.3186 769.6094,104.3186 C767.6094,104.3186 766.3281,103.303 766.3281,101.7249 L766.3281,100.678 C766.3281,98.9749 767.5469,97.7717 769.25,97.7717 C769.8281,97.7717 770.4063,97.9124 770.875,98.1624 C771.3438,98.428 771.5156,98.6155 771.5781,98.9749 C771.7031,99.6467 771.9531,99.8967 772.4844,99.8967 C772.7656,99.8967 773.0469,99.7561 773.2344,99.5374 C773.3594,99.3655 773.4063,99.1936 773.4063,98.7561 L773.4063,97.3967 C773.4063,96.9749 773.3906,96.8342 773.2656,96.6624 C773.0938,96.4124 772.8125,96.2561 772.4844,96.2561 C772.1719,96.2561 771.9688,96.3655 771.75,96.6311 C770.5781,96.1311 770.1406,96.0217 769.1875,96.0217 C766.5156,96.0217 764.5,98.0374 764.5,100.6624 L764.5,101.7561 Z " fill="#000000"/><text fill="#000000" font-family="sans-serif" font-size="14" lengthAdjust="spacing" textLength="123" x="786.5" y="102.6058">CourtCreationForm</text><rect fill="#E2E2F0" height="36" rx="2.5" ry="2.5" style="stroke:#181818;stroke-width:0.5;" width="165" x="751.5" y="778.2"/><ellipse cx="769.5" cy="796.2" fill="#D3D3D3" rx="11" ry="11" style="stroke:#181818;stroke-width:1.0;"/><path d="M764.5,797.3563 C764.5,799.8563 766.6406,801.6688 769.5625,801.6688 C770.7969,801.6688 771.9688,801.3719 772.7188,800.8563 C773.3281,800.4344 773.6563,800.0125 773.6563,799.6063 C773.6563,799.1375 773.2344,798.7313 772.7344,798.7313 C772.5,798.7313 772.2813,798.8094 772.0781,799.0125 C771.6406,799.45 771.6406,799.45 771.4688,799.5438 C771.0156,799.7781 770.375,799.9188 769.6094,799.9188 C767.6094,799.9188 766.3281,798.9031 766.3281,797.325 L766.3281,796.2781 C766.3281,794.575 767.5469,793.3719 769.25,793.3719 C769.8281,793.3719 770.4063,793.5125 770.875,793.7625 C771.3438,794.0281 771.5156,794.2156 771.5781,794.575 C771.7031,795.2469 771.9531,795.4969 772.4844,795.4969 C772.7656,795.4969 773.0469,795.3563 773.2344,795.1375 C773.3594,794.9656 773.4063,794.7938 773.4063,794.3563 L773.4063,792.9969 C773.4063,792.575 773.3906,792.4344 773.2656,792.2625 C773.0938,792.0125 772.8125,791.8563 772.4844,791.8563 C772.1719,791.8563 771.9688,791.9656 771.75,792.2313 C770.5781,791.7313 770.1406,791.6219 769.1875,791.6219 C766.5156,791.6219 764.5,793.6375 764.5,796.2625 L764.5,797.3563 Z " fill="#000000"/><text fill="#000000" font-family="sans-serif" font-size="14" lengthAdjust="spacing" textLength="123" x="786.5" y="798.206">CourtCreationForm</text><rect fill="#E2E2F0" height="47.5999" rx="2.5" ry="2.5" style="stroke:#181818;stroke-width:0.5;" width="509" x="926.5" y="71"/><ellipse cx="944.5" cy="89" fill="#FFFF00" rx="11" ry="11" style="stroke:#181818;stroke-width:1.0;"/><path d="M943.3594,90.0625 L944.6719,90.0625 L944.6719,90.1094 C944.6719,90.5 944.7031,90.6875 944.7969,90.8438 C944.9688,91.0938 945.2656,91.2656 945.5781,91.2656 C945.8594,91.2656 946.1406,91.125 946.3281,90.9063 C946.4531,90.7188 946.5,90.5625 946.5,90.1094 L946.5,88.2813 C946.5,87.8594 946.4844,87.7344 946.3594,87.5625 C946.2031,87.2969 945.9063,87.125 945.5781,87.125 C945.2813,87.125 945.0156,87.2656 944.8438,87.4844 C944.7031,87.6719 944.6719,87.8438 944.6719,88.2813 L944.6719,88.3281 L943.3594,88.3281 L943.3594,86.1563 L947.5781,86.1563 L947.5781,86.9219 C947.5781,87.3125 947.6094,87.4844 947.7188,87.6406 C947.8906,87.9063 948.1719,88.0625 948.5,88.0625 C948.7813,88.0625 949.0625,87.9375 949.25,87.7031 C949.3906,87.5156 949.4219,87.375 949.4219,86.9219 L949.4219,84.4063 L941.3438,84.4063 C940.9063,84.4063 940.7656,84.4219 940.5938,84.5313 C940.3281,84.7031 940.1563,84.9844 940.1563,85.2813 C940.1563,85.5625 940.3125,85.8438 940.5313,86 C940.7188,86.125 940.9063,86.1563 941.3438,86.1563 L941.5313,86.1563 L941.5313,92.25 L941.3438,92.25 C940.9219,92.25 940.7656,92.2813 940.5938,92.375 C940.3281,92.5313 940.1563,92.8281 940.1563,93.1094 C940.1563,93.6875 940.5625,94 941.3438,94 L945,94 C945.7813,94 946.1875,93.7188 946.1875,93.1094 C946.1875,92.8438 946.0469,92.5938 945.8125,92.4219 C945.625,92.2813 945.4531,92.25 945,92.25 L943.3594,92.25 L943.3594,90.0625 Z " fill="#000000"/><text fill="#000000" font-family="sans-serif" font-size="14" lengthAdjust="spacing" textLength="109" x="1140.5" y="91.0059">court_backend.ts</text><text fill="#000000" font-family="sans-serif" font-size="14" lengthAdjust="spacing" textLength="467" x="961.5" y="107.8059">createCourt() or updateCourt() (N.B: update not implemented in backend)</text><rect fill="#E2E2F0" height="47.5999" rx="2.5" ry="2.5" style="stroke:#181818;stroke-width:0.5;" width="509" x="926.5" y="778.2"/><ellipse cx="944.5" cy="796.2" fill="#FFFF00" rx="11" ry="11" style="stroke:#181818;stroke-width:1.0;"/><path d="M943.3594,797.2625 L944.6719,797.2625 L944.6719,797.3094 C944.6719,797.7 944.7031,797.8875 944.7969,798.0438 C944.9688,798.2938 945.2656,798.4656 945.5781,798.4656 C945.8594,798.4656 946.1406,798.325 946.3281,798.1063 C946.4531,797.9188 946.5,797.7625 946.5,797.3094 L946.5,795.4813 C946.5,795.0594 946.4844,794.9344 946.3594,794.7625 C946.2031,794.4969 945.9063,794.325 945.5781,794.325 C945.2813,794.325 945.0156,794.4656 944.8438,794.6844 C944.7031,794.8719 944.6719,795.0438 944.6719,795.4813 L944.6719,795.5281 L943.3594,795.5281 L943.3594,793.3563 L947.5781,793.3563 L947.5781,794.1219 C947.5781,794.5125 947.6094,794.6844 947.7188,794.8406 C947.8906,795.1063 948.1719,795.2625 948.5,795.2625 C948.7813,795.2625 949.0625,795.1375 949.25,794.9031 C949.3906,794.7156 949.4219,794.575 949.4219,794.1219 L949.4219,791.6063 L941.3438,791.6063 C940.9063,791.6063 940.7656,791.6219 940.5938,791.7313 C940.3281,791.9031 940.1563,792.1844 940.1563,792.4813 C940.1563,792.7625 940.3125,793.0438 940.5313,793.2 C940.7188,793.325 940.9063,793.3563 941.3438,793.3563 L941.5313,793.3563 L941.5313,799.45 L941.3438,799.45 C940.9219,799.45 940.7656,799.4813 940.5938,799.575 C940.3281,799.7313 940.1563,800.0281 940.1563,800.3094 C940.1563,800.8875 940.5625,801.2 941.3438,801.2 L945,801.2 C945.7813,801.2 946.1875,800.9188 946.1875,800.3094 C946.1875,800.0438 946.0469,799.7938 945.8125,799.6219 C945.625,799.4813 945.4531,799.45 945,799.45 L943.3594,799.45 L943.3594,797.2625 Z " fill="#000000"/><text fill="#000000" font-family="sans-serif" font-size="14" lengthAdjust="spacing" textLength="109" x="1140.5" y="798.206">court_backend.ts</text><text fill="#000000" font-family="sans-serif" font-size="14" lengthAdjust="spacing" textLength="467" x="961.5" y="815.0059">createCourt() or updateCourt() (N.B: update not implemented in backend)</text><rect fill="#E2E2F0" height="47.5999" rx="2.5" ry="2.5" style="stroke:#181818;stroke-width:0.5;" width="113" x="1445.5" y="71"/><ellipse cx="1463.5" cy="89" fill="#FFA500" rx="11" ry="11" style="stroke:#181818;stroke-width:1.0;"/><path d="M1462.3594,90.0625 L1463.6719,90.0625 L1463.6719,90.1094 C1463.6719,90.5 1463.7031,90.6875 1463.7969,90.8438 C1463.9688,91.0938 1464.2656,91.2656 1464.5781,91.2656 C1464.8594,91.2656 1465.1406,91.125 1465.3281,90.9063 C1465.4531,90.7188 1465.5,90.5625 1465.5,90.1094 L1465.5,88.2813 C1465.5,87.8594 1465.4844,87.7344 1465.3594,87.5625 C1465.2031,87.2969 1464.9063,87.125 1464.5781,87.125 C1464.2813,87.125 1464.0156,87.2656 1463.8438,87.4844 C1463.7031,87.6719 1463.6719,87.8438 1463.6719,88.2813 L1463.6719,88.3281 L1462.3594,88.3281 L1462.3594,86.1563 L1466.5781,86.1563 L1466.5781,86.9219 C1466.5781,87.3125 1466.6094,87.4844 1466.7188,87.6406 C1466.8906,87.9063 1467.1719,88.0625 1467.5,88.0625 C1467.7813,88.0625 1468.0625,87.9375 1468.25,87.7031 C1468.3906,87.5156 1468.4219,87.375 1468.4219,86.9219 L1468.4219,84.4063 L1460.3438,84.4063 C1459.9063,84.4063 1459.7656,84.4219 1459.5938,84.5313 C1459.3281,84.7031 1459.1563,84.9844 1459.1563,85.2813 C1459.1563,85.5625 1459.3125,85.8438 1459.5313,86 C1459.7188,86.125 1459.9063,86.1563 1460.3438,86.1563 L1460.5313,86.1563 L1460.5313,92.25 L1460.3438,92.25 C1459.9219,92.25 1459.7656,92.2813 1459.5938,92.375 C1459.3281,92.5313 1459.1563,92.8281 1459.1563,93.1094 C1459.1563,93.6875 1459.5625,94 1460.3438,94 L1464,94 C1464.7813,94 1465.1875,93.7188 1465.1875,93.1094 C1465.1875,92.8438 1465.0469,92.5938 1464.8125,92.4219 C1464.625,92.2813 1464.4531,92.25 1464,92.25 L1462.3594,92.25 L1462.3594,90.0625 Z " fill="#000000"/><text fill="#000000" font-family="sans-serif" font-size="14" lengthAdjust="spacing" textLength="40" x="1496" y="91.0059">utils.ts</text><text fill="#000000" font-family="sans-serif" font-size="14" lengthAdjust="spacing" textLength="71" x="1480.5" y="107.8059">fetchJson()</text><rect fill="#E2E2F0" height="47.5999" rx="2.5" ry="2.5" style="stroke:#181818;stroke-width:0.5;" width="113" x="1445.5" y="778.2"/><ellipse cx="1463.5" cy="796.2" fill="#FFA500" rx="11" ry="11" style="stroke:#181818;stroke-width:1.0;"/><path d="M1462.3594,797.2625 L1463.6719,797.2625 L1463.6719,797.3094 C1463.6719,797.7 1463.7031,797.8875 1463.7969,798.0438 C1463.9688,798.2938 1464.2656,798.4656 1464.5781,798.4656 C1464.8594,798.4656 1465.1406,798.325 1465.3281,798.1063 C1465.4531,797.9188 1465.5,797.7625 1465.5,797.3094 L1465.5,795.4813 C1465.5,795.0594 1465.4844,794.9344 1465.3594,794.7625 C1465.2031,794.4969 1464.9063,794.325 1464.5781,794.325 C1464.2813,794.325 1464.0156,794.4656 1463.8438,794.6844 C1463.7031,794.8719 1463.6719,795.0438 1463.6719,795.4813 L1463.6719,795.5281 L1462.3594,795.5281 L1462.3594,793.3563 L1466.5781,793.3563 L1466.5781,794.1219 C1466.5781,794.5125 1466.6094,794.6844 1466.7188,794.8406 C1466.8906,795.1063 1467.1719,795.2625 1467.5,795.2625 C1467.7813,795.2625 1468.0625,795.1375 1468.25,794.9031 C1468.3906,794.7156 1468.4219,794.575 1468.4219,794.1219 L1468.4219,791.6063 L1460.3438,791.6063 C1459.9063,791.6063 1459.7656,791.6219 1459.5938,791.7313 C1459.3281,791.9031 1459.1563,792.1844 1459.1563,792.4813 C1459.1563,792.7625 1459.3125,793.0438 1459.5313,793.2 C1459.7188,793.325 1459.9063,793.3563 1460.3438,793.3563 L1460.5313,793.3563 L1460.5313,799.45 L1460.3438,799.45 C1459.9219,799.45 1459.7656,799.4813 1459.5938,799.575 C1459.3281,799.7313 1459.1563,800.0281 1459.1563,800.3094 C1459.1563,800.8875 1459.5625,801.2 1460.3438,801.2 L1464,801.2 C1464.7813,801.2 1465.1875,800.9188 1465.1875,800.3094 C1465.1875,800.0438 1465.0469,799.7938 1464.8125,799.6219 C1464.625,799.4813 1464.4531,799.45 1464,799.45 L1462.3594,799.45 L1462.3594,797.2625 Z " fill="#000000"/><text fill="#000000" font-family="sans-serif" font-size="14" lengthAdjust="spacing" textLength="40" x="1496" y="798.206">utils.ts</text><text fill="#000000" font-family="sans-serif" font-size="14" lengthAdjust="spacing" textLength="71" x="1480.5" y="815.0059">fetchJson()</text><rect fill="#E2E2F0" height="36" rx="2.5" ry="2.5" style="stroke:#181818;stroke-width:0.5;" width="128" x="1584" y="82.5999"/><ellipse cx="1602" cy="100.5999" fill="#ADD8E6" rx="11" ry="11" style="stroke:#181818;stroke-width:1.0;"/><path d="M1605.8594,96.9124 C1605.8594,96.4749 1605.8438,96.3499 1605.7344,96.178 C1605.5781,95.928 1605.2813,95.7717 1604.9531,95.7717 C1604.6094,95.7717 1604.4219,95.9124 1604.2656,96.2874 C1603.7031,95.9592 1602.9375,95.7717 1602.0625,95.7717 C1599.9219,95.7717 1598.3281,97.0374 1598.3281,98.6936 C1598.3281,99.6467 1598.875,100.5374 1599.75,101.0061 C1600.3125,101.3186 1600.8438,101.4749 1601.9844,101.6624 C1603.1094,101.8655 1603.375,101.928 1603.75,102.0999 C1604.0938,102.2717 1604.3125,102.5686 1604.3125,102.8811 C1604.3125,103.5374 1603.3594,104.053 1602.1406,104.053 C1601.0469,104.053 1599.9844,103.5999 1599.8281,103.053 C1599.6875,102.6155 1599.6875,102.6155 1599.5625,102.4749 C1599.3906,102.3186 1599.1563,102.2405 1598.9063,102.2405 C1598.6094,102.2405 1598.3438,102.3655 1598.1563,102.5842 C1598.0313,102.7561 1597.9844,102.9436 1597.9844,103.3655 L1597.9844,104.4436 C1597.9844,105.2092 1598.2969,105.5842 1598.9063,105.5842 C1599.1875,105.5842 1599.3438,105.4905 1599.625,105.2092 C1600.4844,105.6311 1601.3281,105.8186 1602.25,105.8186 C1604.6094,105.8186 1606.2188,104.6467 1606.2188,102.9124 C1606.2188,102.053 1605.875,101.3655 1605.1875,100.8342 C1604.6563,100.428 1603.9844,100.1936 1602.4844,99.9436 C1601.2031,99.6936 1601.1406,99.678 1600.8125,99.5061 C1600.4688,99.3655 1600.2344,99.0061 1600.2344,98.678 C1600.2344,98.0374 1601.0469,97.5217 1602.0781,97.5217 C1603.125,97.5217 1603.8906,97.9436 1604.0313,98.5686 C1604.1563,99.0999 1604.1563,99.0999 1604.2969,99.2405 C1604.4531,99.3967 1604.7031,99.4905 1604.9531,99.4905 C1605.25,99.4905 1605.5,99.3655 1605.6875,99.1467 C1605.8281,98.9592 1605.8594,98.8186 1605.8594,98.3655 L1605.8594,96.9124 Z " fill="#000000"/><text fill="#000000" font-family="sans-serif" font-size="14" lengthAdjust="spacing" textLength="86" x="1619" y="102.6058">AuthManager</text><rect fill="#E2E2F0" height="36" rx="2.5" ry="2.5" style="stroke:#181818;stroke-width:0.5;" width="128" x="1584" y="778.2"/><ellipse cx="1602" cy="796.2" fill="#ADD8E6" rx="11" ry="11" style="stroke:#181818;stroke-width:1.0;"/><path d="M1605.8594,792.5125 C1605.8594,792.075 1605.8438,791.95 1605.7344,791.7781 C1605.5781,791.5281 1605.2813,791.3719 1604.9531,791.3719 C1604.6094,791.3719 1604.4219,791.5125 1604.2656,791.8875 C1603.7031,791.5594 1602.9375,791.3719 1602.0625,791.3719 C1599.9219,791.3719 1598.3281,792.6375 1598.3281,794.2938 C1598.3281,795.2469 1598.875,796.1375 1599.75,796.6063 C1600.3125,796.9188 1600.8438,797.075 1601.9844,797.2625 C1603.1094,797.4656 1603.375,797.5281 1603.75,797.7 C1604.0938,797.8719 1604.3125,798.1688 1604.3125,798.4813 C1604.3125,799.1375 1603.3594,799.6531 1602.1406,799.6531 C1601.0469,799.6531 1599.9844,799.2 1599.8281,798.6531 C1599.6875,798.2156 1599.6875,798.2156 1599.5625,798.075 C1599.3906,797.9188 1599.1563,797.8406 1598.9063,797.8406 C1598.6094,797.8406 1598.3438,797.9656 1598.1563,798.1844 C1598.0313,798.3563 1597.9844,798.5438 1597.9844,798.9656 L1597.9844,800.0438 C1597.9844,800.8094 1598.2969,801.1844 1598.9063,801.1844 C1599.1875,801.1844 1599.3438,801.0906 1599.625,800.8094 C1600.4844,801.2313 1601.3281,801.4188 1602.25,801.4188 C1604.6094,801.4188 1606.2188,800.2469 1606.2188,798.5125 C1606.2188,797.6531 1605.875,796.9656 1605.1875,796.4344 C1604.6563,796.0281 1603.9844,795.7938 1602.4844,795.5438 C1601.2031,795.2938 1601.1406,795.2781 1600.8125,795.1063 C1600.4688,794.9656 1600.2344,794.6063 1600.2344,794.2781 C1600.2344,793.6375 1601.0469,793.1219 1602.0781,793.1219 C1603.125,793.1219 1603.8906,793.5438 1604.0313,794.1688 C1604.1563,794.7 1604.1563,794.7 1604.2969,794.8406 C1604.4531,794.9969 1604.7031,795.0906 1604.9531,795.0906 C1605.25,795.0906 1605.5,794.9656 1605.6875,794.7469 C1605.8281,794.5594 1605.8594,794.4188 1605.8594,793.9656 L1605.8594,792.5125 Z " fill="#000000"/><text fill="#000000" font-family="sans-serif" font-size="14" lengthAdjust="spacing" textLength="86" x="1619" y="798.206">AuthManager</text><rect fill="#E2E2F0" height="36" rx="2.5" ry="2.5" style="stroke:#181818;stroke-width:0.5;" width="119" x="1722" y="82.5999"/><ellipse cx="1740" cy="100.5999" fill="#FF6347" rx="11" ry="11" style="stroke:#181818;stroke-width:1.0;"/><path d="M1743.8594,96.9124 C1743.8594,96.4749 1743.8438,96.3499 1743.7344,96.178 C1743.5781,95.928 1743.2813,95.7717 1742.9531,95.7717 C1742.6094,95.7717 1742.4219,95.9124 1742.2656,96.2874 C1741.7031,95.9592 1740.9375,95.7717 1740.0625,95.7717 C1737.9219,95.7717 1736.3281,97.0374 1736.3281,98.6936 C1736.3281,99.6467 1736.875,100.5374 1737.75,101.0061 C1738.3125,101.3186 1738.8438,101.4749 1739.9844,101.6624 C1741.1094,101.8655 1741.375,101.928 1741.75,102.0999 C1742.0938,102.2717 1742.3125,102.5686 1742.3125,102.8811 C1742.3125,103.5374 1741.3594,104.053 1740.1406,104.053 C1739.0469,104.053 1737.9844,103.5999 1737.8281,103.053 C1737.6875,102.6155 1737.6875,102.6155 1737.5625,102.4749 C1737.3906,102.3186 1737.1563,102.2405 1736.9063,102.2405 C1736.6094,102.2405 1736.3438,102.3655 1736.1563,102.5842 C1736.0313,102.7561 1735.9844,102.9436 1735.9844,103.3655 L1735.9844,104.4436 C1735.9844,105.2092 1736.2969,105.5842 1736.9063,105.5842 C1737.1875,105.5842 1737.3438,105.4905 1737.625,105.2092 C1738.4844,105.6311 1739.3281,105.8186 1740.25,105.8186 C1742.6094,105.8186 1744.2188,104.6467 1744.2188,102.9124 C1744.2188,102.053 1743.875,101.3655 1743.1875,100.8342 C1742.6563,100.428 1741.9844,100.1936 1740.4844,99.9436 C1739.2031,99.6936 1739.1406,99.678 1738.8125,99.5061 C1738.4688,99.3655 1738.2344,99.0061 1738.2344,98.678 C1738.2344,98.0374 1739.0469,97.5217 1740.0781,97.5217 C1741.125,97.5217 1741.8906,97.9436 1742.0313,98.5686 C1742.1563,99.0999 1742.1563,99.0999 1742.2969,99.2405 C1742.4531,99.3967 1742.7031,99.4905 1742.9531,99.4905 C1743.25,99.4905 1743.5,99.3655 1743.6875,99.1467 C1743.8281,98.9592 1743.8594,98.8186 1743.8594,98.3655 L1743.8594,96.9124 Z " fill="#000000"/><text fill="#000000" font-family="sans-serif" font-size="14" lengthAdjust="spacing" textLength="77" x="1757" y="102.6058">BackendAPI</text><rect fill="#E2E2F0" height="36" rx="2.5" ry="2.5" style="stroke:#181818;stroke-width:0.5;" width="119" x="1722" y="778.2"/><ellipse cx="1740" cy="796.2" fill="#FF6347" rx="11" ry="11" style="stroke:#181818;stroke-width:1.0;"/><path d="M1743.8594,792.5125 C1743.8594,792.075 1743.8438,791.95 1743.7344,791.7781 C1743.5781,791.5281 1743.2813,791.3719 1742.9531,791.3719 C1742.6094,791.3719 1742.4219,791.5125 1742.2656,791.8875 C1741.7031,791.5594 1740.9375,791.3719 1740.0625,791.3719 C1737.9219,791.3719 1736.3281,792.6375 1736.3281,794.2938 C1736.3281,795.2469 1736.875,796.1375 1737.75,796.6063 C1738.3125,796.9188 1738.8438,797.075 1739.9844,797.2625 C1741.1094,797.4656 1741.375,797.5281 1741.75,797.7 C1742.0938,797.8719 1742.3125,798.1688 1742.3125,798.4813 C1742.3125,799.1375 1741.3594,799.6531 1740.1406,799.6531 C1739.0469,799.6531 1737.9844,799.2 1737.8281,798.6531 C1737.6875,798.2156 1737.6875,798.2156 1737.5625,798.075 C1737.3906,797.9188 1737.1563,797.8406 1736.9063,797.8406 C1736.6094,797.8406 1736.3438,797.9656 1736.1563,798.1844 C1736.0313,798.3563 1735.9844,798.5438 1735.9844,798.9656 L1735.9844,800.0438 C1735.9844,800.8094 1736.2969,801.1844 1736.9063,801.1844 C1737.1875,801.1844 1737.3438,801.0906 1737.625,800.8094 C1738.4844,801.2313 1739.3281,801.4188 1740.25,801.4188 C1742.6094,801.4188 1744.2188,800.2469 1744.2188,798.5125 C1744.2188,797.6531 1743.875,796.9656 1743.1875,796.4344 C1742.6563,796.0281 1741.9844,795.7938 1740.4844,795.5438 C1739.2031,795.2938 1739.1406,795.2781 1738.8125,795.1063 C1738.4688,794.9656 1738.2344,794.6063 1738.2344,794.2781 C1738.2344,793.6375 1739.0469,793.1219 1740.0781,793.1219 C1741.125,793.1219 1741.8906,793.5438 1742.0313,794.1688 C1742.1563,794.7 1742.1563,794.7 1742.2969,794.8406 C1742.4531,794.9969 1742.7031,795.0906 1742.9531,795.0906 C1743.25,795.0906 1743.5,794.9656 1743.6875,794.7469 C1743.8281,794.5594 1743.8594,794.4188 1743.8594,793.9656 L1743.8594,792.5125 Z " fill="#000000"/><text fill="#000000" font-family="sans-serif" font-size="14" lengthAdjust="spacing" textLength="77" x="1757" y="798.206">BackendAPI</text><rect fill="#E2E2F0" height="36" rx="2.5" ry="2.5" style="stroke:#181818;stroke-width:0.5;" width="117" x="1851" y="82.5999"/><ellipse cx="1869" cy="100.5999" fill="#808080" rx="11" ry="11" style="stroke:#181818;stroke-width:1.0;"/><path d="M1872.8594,96.9124 C1872.8594,96.4749 1872.8438,96.3499 1872.7344,96.178 C1872.5781,95.928 1872.2813,95.7717 1871.9531,95.7717 C1871.6094,95.7717 1871.4219,95.9124 1871.2656,96.2874 C1870.7031,95.9592 1869.9375,95.7717 1869.0625,95.7717 C1866.9219,95.7717 1865.3281,97.0374 1865.3281,98.6936 C1865.3281,99.6467 1865.875,100.5374 1866.75,101.0061 C1867.3125,101.3186 1867.8438,101.4749 1868.9844,101.6624 C1870.1094,101.8655 1870.375,101.928 1870.75,102.0999 C1871.0938,102.2717 1871.3125,102.5686 1871.3125,102.8811 C1871.3125,103.5374 1870.3594,104.053 1869.1406,104.053 C1868.0469,104.053 1866.9844,103.5999 1866.8281,103.053 C1866.6875,102.6155 1866.6875,102.6155 1866.5625,102.4749 C1866.3906,102.3186 1866.1563,102.2405 1865.9063,102.2405 C1865.6094,102.2405 1865.3438,102.3655 1865.1563,102.5842 C1865.0313,102.7561 1864.9844,102.9436 1864.9844,103.3655 L1864.9844,104.4436 C1864.9844,105.2092 1865.2969,105.5842 1865.9063,105.5842 C1866.1875,105.5842 1866.3438,105.4905 1866.625,105.2092 C1867.4844,105.6311 1868.3281,105.8186 1869.25,105.8186 C1871.6094,105.8186 1873.2188,104.6467 1873.2188,102.9124 C1873.2188,102.053 1872.875,101.3655 1872.1875,100.8342 C1871.6563,100.428 1870.9844,100.1936 1869.4844,99.9436 C1868.2031,99.6936 1868.1406,99.678 1867.8125,99.5061 C1867.4688,99.3655 1867.2344,99.0061 1867.2344,98.678 C1867.2344,98.0374 1868.0469,97.5217 1869.0781,97.5217 C1870.125,97.5217 1870.8906,97.9436 1871.0313,98.5686 C1871.1563,99.0999 1871.1563,99.0999 1871.2969,99.2405 C1871.4531,99.3967 1871.7031,99.4905 1871.9531,99.4905 C1872.25,99.4905 1872.5,99.3655 1872.6875,99.1467 C1872.8281,98.9592 1872.8594,98.8186 1872.8594,98.3655 L1872.8594,96.9124 Z " fill="#000000"/><text fill="#000000" font-family="sans-serif" font-size="14" lengthAdjust="spacing" textLength="75" x="1886" y="102.6058">QueryClient</text><rect fill="#E2E2F0" height="36" rx="2.5" ry="2.5" style="stroke:#181818;stroke-width:0.5;" width="117" x="1851" y="778.2"/><ellipse cx="1869" cy="796.2" fill="#808080" rx="11" ry="11" style="stroke:#181818;stroke-width:1.0;"/><path d="M1872.8594,792.5125 C1872.8594,792.075 1872.8438,791.95 1872.7344,791.7781 C1872.5781,791.5281 1872.2813,791.3719 1871.9531,791.3719 C1871.6094,791.3719 1871.4219,791.5125 1871.2656,791.8875 C1870.7031,791.5594 1869.9375,791.3719 1869.0625,791.3719 C1866.9219,791.3719 1865.3281,792.6375 1865.3281,794.2938 C1865.3281,795.2469 1865.875,796.1375 1866.75,796.6063 C1867.3125,796.9188 1867.8438,797.075 1868.9844,797.2625 C1870.1094,797.4656 1870.375,797.5281 1870.75,797.7 C1871.0938,797.8719 1871.3125,798.1688 1871.3125,798.4813 C1871.3125,799.1375 1870.3594,799.6531 1869.1406,799.6531 C1868.0469,799.6531 1866.9844,799.2 1866.8281,798.6531 C1866.6875,798.2156 1866.6875,798.2156 1866.5625,798.075 C1866.3906,797.9188 1866.1563,797.8406 1865.9063,797.8406 C1865.6094,797.8406 1865.3438,797.9656 1865.1563,798.1844 C1865.0313,798.3563 1864.9844,798.5438 1864.9844,798.9656 L1864.9844,800.0438 C1864.9844,800.8094 1865.2969,801.1844 1865.9063,801.1844 C1866.1875,801.1844 1866.3438,801.0906 1866.625,800.8094 C1867.4844,801.2313 1868.3281,801.4188 1869.25,801.4188 C1871.6094,801.4188 1873.2188,800.2469 1873.2188,798.5125 C1873.2188,797.6531 1872.875,796.9656 1872.1875,796.4344 C1871.6563,796.0281 1870.9844,795.7938 1869.4844,795.5438 C1868.2031,795.2938 1868.1406,795.2781 1867.8125,795.1063 C1867.4688,794.9656 1867.2344,794.6063 1867.2344,794.2781 C1867.2344,793.6375 1868.0469,793.1219 1869.0781,793.1219 C1870.125,793.1219 1870.8906,793.5438 1871.0313,794.1688 C1871.1563,794.7 1871.1563,794.7 1871.2969,794.8406 C1871.4531,794.9969 1871.7031,795.0906 1871.9531,795.0906 C1872.25,795.0906 1872.5,794.9656 1872.6875,794.7469 C1872.8281,794.5594 1872.8594,794.4188 1872.8594,793.9656 L1872.8594,792.5125 Z " fill="#000000"/><text fill="#000000" font-family="sans-serif" font-size="14" lengthAdjust="spacing" textLength="75" x="1886" y="798.206">QueryClient</text><rect fill="#E2E2F0" height="36" rx="2.5" ry="2.5" style="stroke:#181818;stroke-width:0.5;" width="91" x="1978" y="82.5999"/><ellipse cx="1996" cy="100.5999" fill="#FFC0CB" rx="11" ry="11" style="stroke:#181818;stroke-width:1.0;"/><path d="M1991,101.7561 C1991,104.2561 1993.1406,106.0686 1996.0625,106.0686 C1997.2969,106.0686 1998.4688,105.7717 1999.2188,105.2561 C1999.8281,104.8342 2000.1563,104.4124 2000.1563,104.0061 C2000.1563,103.5374 1999.7344,103.1311 1999.2344,103.1311 C1999,103.1311 1998.7813,103.2092 1998.5781,103.4124 C1998.1406,103.8499 1998.1406,103.8499 1997.9688,103.9436 C1997.5156,104.178 1996.875,104.3186 1996.1094,104.3186 C1994.1094,104.3186 1992.8281,103.303 1992.8281,101.7249 L1992.8281,100.678 C1992.8281,98.9749 1994.0469,97.7717 1995.75,97.7717 C1996.3281,97.7717 1996.9063,97.9124 1997.375,98.1624 C1997.8438,98.428 1998.0156,98.6155 1998.0781,98.9749 C1998.2031,99.6467 1998.4531,99.8967 1998.9844,99.8967 C1999.2656,99.8967 1999.5469,99.7561 1999.7344,99.5374 C1999.8594,99.3655 1999.9063,99.1936 1999.9063,98.7561 L1999.9063,97.3967 C1999.9063,96.9749 1999.8906,96.8342 1999.7656,96.6624 C1999.5938,96.4124 1999.3125,96.2561 1998.9844,96.2561 C1998.6719,96.2561 1998.4688,96.3655 1998.25,96.6311 C1997.0781,96.1311 1996.6406,96.0217 1995.6875,96.0217 C1993.0156,96.0217 1991,98.0374 1991,100.6624 L1991,101.7561 Z " fill="#000000"/><text fill="#000000" font-family="sans-serif" font-size="14" lengthAdjust="spacing" textLength="49" x="2013" y="102.6058">Toaster</text><rect fill="#E2E2F0" height="36" rx="2.5" ry="2.5" style="stroke:#181818;stroke-width:0.5;" width="91" x="1978" y="778.2"/><ellipse cx="1996" cy="796.2" fill="#FFC0CB" rx="11" ry="11" style="stroke:#181818;stroke-width:1.0;"/><path d="M1991,797.3563 C1991,799.8563 1993.1406,801.6688 1996.0625,801.6688 C1997.2969,801.6688 1998.4688,801.3719 1999.2188,800.8563 C1999.8281,800.4344 2000.1563,800.0125 2000.1563,799.6063 C2000.1563,799.1375 1999.7344,798.7313 1999.2344,798.7313 C1999,798.7313 1998.7813,798.8094 1998.5781,799.0125 C1998.1406,799.45 1998.1406,799.45 1997.9688,799.5438 C1997.5156,799.7781 1996.875,799.9188 1996.1094,799.9188 C1994.1094,799.9188 1992.8281,798.9031 1992.8281,797.325 L1992.8281,796.2781 C1992.8281,794.575 1994.0469,793.3719 1995.75,793.3719 C1996.3281,793.3719 1996.9063,793.5125 1997.375,793.7625 C1997.8438,794.0281 1998.0156,794.2156 1998.0781,794.575 C1998.2031,795.2469 1998.4531,795.4969 1998.9844,795.4969 C1999.2656,795.4969 1999.5469,795.3563 1999.7344,795.1375 C1999.8594,794.9656 1999.9063,794.7938 1999.9063,794.3563 L1999.9063,792.9969 C1999.9063,792.575 1999.8906,792.4344 1999.7656,792.2625 C1999.5938,792.0125 1999.3125,791.8563 1998.9844,791.8563 C1998.6719,791.8563 1998.4688,791.9656 1998.25,792.2313 C1997.0781,791.7313 1996.6406,791.6219 1995.6875,791.6219 C1993.0156,791.6219 1991,793.6375 1991,796.2625 L1991,797.3563 Z " fill="#000000"/><text fill="#000000" font-family="sans-serif" font-size="14" lengthAdjust="spacing" textLength="49" x="2013" y="798.206">Toaster</text><rect fill="#FFFFFF" height="504.0002" style="stroke:#181818;stroke-width:1.0;" width="10" x="595" y="205.3999"/><rect fill="#FFFFFF" height="88.8" style="stroke:#181818;stroke-width:1.0;" width="10" x="829" y="234.9999"/><rect fill="#FFFFFF" height="207.2001" style="stroke:#181818;stroke-width:1.0;" width="10" x="1176" y="353.4"/><rect fill="#FFFFFF" height="387.2" style="stroke:#181818;stroke-width:1.0;" width="10" x="1497" y="383"/><rect fill="#FFFFFF" height="29.6" style="stroke:#181818;stroke-width:1.0;" width="10" x="1643" y="412.6"/><rect fill="#FFFFFF" height="29.6" style="stroke:#181818;stroke-width:1.0;" width="10" x="1776.5" y="471.8"/><rect fill="#FFFFFF" height="30" style="stroke:#181818;stroke-width:1.0;" width="10" x="1904.5" y="649.8001"/><rect fill="#FFFFFF" height="30" style="stroke:#181818;stroke-width:1.0;" width="10" x="2018.5" y="590.2001"/><path d="M10,136.5999 L70,136.5999 L70,144.1999 L60,154.1999 L10,154.1999 L10,136.5999 " fill="#EEEEEE" style="stroke:#000000;stroke-width:1.5;"/><rect fill="none" height="625.6002" style="stroke:#000000;stroke-width:1.5;" width="2069" x="10" y="136.5999"/><text fill="#000000" font-family="sans-serif" font-size="13" font-weight="bold" lengthAdjust="spacing" textLength="15" x="25" y="149.6769">alt</text><text fill="#000000" font-family="sans-serif" font-size="11" font-weight="bold" lengthAdjust="spacing" textLength="101" x="85" y="148.8188">[Create New Court]</text><polygon fill="#181818" points="192,171.7999,202,175.7999,192,179.7999,196,175.7999" style="stroke:#181818;stroke-width:1.0;"/><line style="stroke:#181818;stroke-width:1.0;" x1="43" x2="198" y1="175.7999" y2="175.7999"/><text fill="#000000" font-family="sans-serif" font-size="13" lengthAdjust="spacing" textLength="137" x="50" y="170.2769">Clicks "Add New Court"</text><polygon fill="#181818" points="583,201.3999,593,205.3999,583,209.3999,587,205.3999" style="stroke:#181818;stroke-width:1.0;"/><line style="stroke:#181818;stroke-width:1.0;" x1="204" x2="589" y1="205.3999" y2="205.3999"/><text fill="#000000" font-family="sans-serif" font-size="13" lengthAdjust="spacing" textLength="76" x="211" y="199.8769">Opens dialog</text><polygon fill="#181818" points="817,230.9999,827,234.9999,817,238.9999,821,234.9999" style="stroke:#181818;stroke-width:1.0;"/><line style="stroke:#181818;stroke-width:1.0;" x1="605" x2="823" y1="234.9999" y2="234.9999"/><text fill="#000000" font-family="sans-serif" font-size="13" lengthAdjust="spacing" textLength="161" x="612" y="229.4769">Renders court creation form</text><polygon fill="#181818" points="817,260.5999,827,264.5999,817,268.5999,821,264.5999" style="stroke:#181818;stroke-width:1.0;"/><line style="stroke:#181818;stroke-width:1.0;" x1="43" x2="823" y1="264.5999" y2="264.5999"/><text fill="#000000" font-family="sans-serif" font-size="13" lengthAdjust="spacing" textLength="107" x="50" y="259.0769">Enters court name</text><polygon fill="#181818" points="817,290.1999,827,294.1999,817,298.1999,821,294.1999" style="stroke:#181818;stroke-width:1.0;"/><line style="stroke:#181818;stroke-width:1.0;" x1="43" x2="823" y1="294.1999" y2="294.1999"/><text fill="#000000" font-family="sans-serif" font-size="13" lengthAdjust="spacing" textLength="222" x="50" y="288.6769">Clicks "Create Court" (in DialogFooter)</text><polygon fill="#181818" points="616,319.7999,606,323.7999,616,327.7999,612,323.7999" style="stroke:#181818;stroke-width:1.0;"/><line style="stroke:#181818;stroke-width:1.0;" x1="610" x2="833" y1="323.7999" y2="323.7999"/><text fill="#000000" font-family="sans-serif" font-size="13" lengthAdjust="spacing" textLength="200" x="622" y="318.2769">onSubmit(formData: {court_name})</text><polygon fill="#181818" points="1164,349.4,1174,353.4,1164,357.4,1168,353.4" style="stroke:#181818;stroke-width:1.0;"/><line style="stroke:#181818;stroke-width:1.0;" x1="605" x2="1170" y1="353.4" y2="353.4"/><text fill="#000000" font-family="sans-serif" font-size="13" lengthAdjust="spacing" textLength="151" x="612" y="347.877">createCourt({court_name})</text><polygon fill="#181818" points="1485,379,1495,383,1485,387,1489,383" style="stroke:#181818;stroke-width:1.0;"/><line style="stroke:#181818;stroke-width:1.0;" x1="1186" x2="1491" y1="383" y2="383"/><text fill="#000000" font-family="sans-serif" font-size="13" lengthAdjust="spacing" textLength="203" x="1193" y="377.477">fetchJson("/courts", {POST, body})</text><polygon fill="#181818" points="1631,408.6,1641,412.6,1631,416.6,1635,412.6" style="stroke:#181818;stroke-width:1.0;"/><line style="stroke:#181818;stroke-width:1.0;" x1="1507" x2="1637" y1="412.6" y2="412.6"/><text fill="#000000" font-family="sans-serif" font-size="13" lengthAdjust="spacing" textLength="62" x="1514" y="407.077">getToken()</text><polygon fill="#181818" points="1518,438.2,1508,442.2,1518,446.2,1514,442.2" style="stroke:#181818;stroke-width:1.0;"/><line style="stroke:#181818;stroke-width:1.0;stroke-dasharray:2.0,2.0;" x1="1512" x2="1647" y1="442.2" y2="442.2"/><text fill="#000000" font-family="sans-serif" font-size="13" lengthAdjust="spacing" textLength="112" x="1524" y="436.677">"admin_token_xyz"</text><polygon fill="#181818" points="1764.5,467.8,1774.5,471.8,1764.5,475.8,1768.5,471.8" style="stroke:#181818;stroke-width:1.0;"/><line style="stroke:#181818;stroke-width:1.0;" x1="1507" x2="1770.5" y1="471.8" y2="471.8"/><text fill="#000000" font-family="sans-serif" font-size="13" lengthAdjust="spacing" textLength="168" x="1514" y="466.277">POST /courts ({court_name})</text><polygon fill="#181818" points="1518,497.4,1508,501.4,1518,505.4,1514,501.4" style="stroke:#181818;stroke-width:1.0;"/><line style="stroke:#181818;stroke-width:1.0;stroke-dasharray:2.0,2.0;" x1="1512" x2="1780.5" y1="501.4" y2="501.4"/><text fill="#000000" font-family="sans-serif" font-size="13" lengthAdjust="spacing" textLength="164" x="1524" y="495.877">HTTP 200 OK (Court object)</text><polygon fill="#181818" points="1197,527,1187,531,1197,535,1193,531" style="stroke:#181818;stroke-width:1.0;"/><line style="stroke:#181818;stroke-width:1.0;stroke-dasharray:2.0,2.0;" x1="1191" x2="1496" y1="531" y2="531"/><text fill="#000000" font-family="sans-serif" font-size="13" lengthAdjust="spacing" textLength="31" x="1203" y="525.477">Court</text><polygon fill="#181818" points="616,556.6001,606,560.6001,616,564.6001,612,560.6001" style="stroke:#181818;stroke-width:1.0;"/><line style="stroke:#181818;stroke-width:1.0;stroke-dasharray:2.0,2.0;" x1="610" x2="1180" y1="560.6001" y2="560.6001"/><text fill="#000000" font-family="sans-serif" font-size="13" lengthAdjust="spacing" textLength="31" x="622" y="555.0771">Court</text><polygon fill="#181818" points="2006.5,586.2001,2016.5,590.2001,2006.5,594.2001,2010.5,590.2001" style="stroke:#181818;stroke-width:1.0;"/><line style="stroke:#181818;stroke-width:1.0;" x1="605" x2="2012.5" y1="590.2001" y2="590.2001"/><text fill="#000000" font-family="sans-serif" font-size="13" lengthAdjust="spacing" textLength="190" x="612" y="584.6771">toast.success("Court created...")</text><polygon fill="#181818" points="1892.5,645.8001,1902.5,649.8001,1892.5,653.8001,1896.5,649.8001" style="stroke:#181818;stroke-width:1.0;"/><line style="stroke:#181818;stroke-width:1.0;" x1="605" x2="1898.5" y1="649.8001" y2="649.8001"/><text fill="#000000" font-family="sans-serif" font-size="13" lengthAdjust="spacing" textLength="242" x="612" y="644.2771">invalidateQueries({queryKey: ['allCourts']})</text><polygon fill="#181818" points="215,705.4001,205,709.4001,215,713.4001,211,709.4001" style="stroke:#181818;stroke-width:1.0;"/><line style="stroke:#181818;stroke-width:1.0;" x1="209" x2="599" y1="709.4001" y2="709.4001"/><text fill="#000000" font-family="sans-serif" font-size="13" lengthAdjust="spacing" textLength="78" x="221" y="703.8771">Closes dialog</text><line style="stroke:#000000;stroke-width:1.0;stroke-dasharray:2.0,2.0;" x1="10" x2="2079" y1="718.4001" y2="718.4001"/><text fill="#000000" font-family="sans-serif" font-size="11" font-weight="bold" lengthAdjust="spacing" textLength="627" x="15" y="728.619">[Edit Existing Court '(Note: Frontend has no edit UI, backend likely only supports name update if any via PUT /courts)']</text><polygon fill="#181818" points="407.5,750.2,417.5,754.2,407.5,758.2,411.5,754.2" style="stroke:#181818;stroke-width:1.0;"/><line style="stroke:#181818;stroke-width:1.0;" x1="43" x2="413.5" y1="754.2" y2="754.2"/><text fill="#000000" font-family="sans-serif" font-size="13" lengthAdjust="spacing" textLength="157" x="50" y="748.677">(Hypothetical) Clicks "Edit"</text><!--SRC=[bLPDR-Cs4BtxLmnqiGmupg97OH4WwyHTTx69czYdjWXeQIopeKWjIINh1llVE_oGBTdn5hqa5ZdlpUDyaPPRWR2QFlsAnd8bcPuocM-PcJwiRgwBYaj8fngPlhmjk6KQmlOeWqVyrg3C4MuuApMh1WEMMwKXyQW4c07_QsLG3sgcBSzvpQID1bFLQ6k-CibAh53Q1Vtt8B_njQpy2dpyc3wCbSwtl1XTNVLvlEMKwG9I_Cv9lYn71mgtiPexWkbOy79hIusxCnnqG7TuEebGPOV2hMDO_Lz4CwMh0utx-cybkJDzMhFy6MKniUPFcNltdY8T0OMsgOlEGdet-PJ5DP3A0gzguME91L3U8bKd99_2YbCo6-zG2FLw8gEnN1ZlVeCst_vcb4m3nSnzhsWxu9LciiGJ_7LZjo6hEjI0-owrmpo6qwz5SmgBqguNyu1Qp0F2gefPTMB-UuDwDnMS3kljEzy1zsw8bueP6tN5to4hDPVFpdh0X8MGTRZ3rn2r0HmA6IwkZWeq0tARFnjNriK1b12gRzWYUqMLmNsDqa3XFmb3FSHVdFiJsvQmXsz9Oubby411H6t0LnFaiHvXG_idx07qxl7sVBTKJNiwoIhykNaRYnZ340f8gHg3u9bIn3Tgpn9nPqAZv6EphhXDdVeRPba6Rw5Bd90VZgN0Tu_qqrYrNP11jy6EcVky4TFojXH4UUYA30uTarnwEfECuMrn_xWSmreLkpxn7acB1nQYR5icWnBjKf6dj0UC-ouJqVBYI4Z2N8gUhCC-VT_za_H3TI3e-rsu53gv4EN3-R2GiHD0a6FddvVB1VpouGFSVw6xmnUEMl-DkJrAM63eA3XDKDj__Q2VAPVM-BWcsjoTAufs4cHWtQ-9QV8SZKd3I8z5KamcawGNW0ZhEpmilkkgEwOocj4lJ70tljqwHvE-VNC6Nt2NmHz39aIu98T_zKFVOUbxxs-Sxu3Uy586E_FdE7Yz2OJ28BXt0Dp6-pOOmJ2zexxEOAOLpGlA4JqWw4e2TBQh-RYzYq3mPnGxwcpwOvgwLgx8N76rznZV09CxUE4C5gjz7Ow696qO1W-ygaOK895kEGO6QS8xOE9rnO4JZaDCXPzyO7Z51JrUh8hfX418uu9alex1Rhc1cjajqF_jhbPsYtHlC47A3JcY4MeiqRd7XdiPUVpf78nlZWpIpnsEqNuiEes9zqpbj5UreNku8stTM7Zb9CK5m1sXrdYnuK9WF8t31lrJjk-A41No9hhF11gz6w2u-FSHuJrlwzVmKZBRQ3muzw1HP7VD7MZNsCt6PHWAy-876VhEEgwQji06_m80]--></g></svg>