<?xml version="1.0" encoding="us-ascii" standalone="no"?><svg xmlns="http://www.w3.org/2000/svg" xmlns:xlink="http://www.w3.org/1999/xlink" contentStyleType="text/css" height="1170px" preserveAspectRatio="none" style="width:2281px;height:1170px;background:#FFFFFF;" version="1.1" viewBox="0 0 2281 1170" width="2281px" zoomAndPan="magnify"><defs/><g><text fill="#000000" font-family="sans-serif" font-size="14" font-weight="bold" lengthAdjust="spacing" textLength="432" x="925.75" y="28.0059">UC_GestionarNivelesCategoriasEntrenador: Sequence Diagram</text><rect fill="#FFFFFF" height="927.6002" style="stroke:#181818;stroke-width:1.0;" width="10" x="342.5" y="151.1999"/><rect fill="#FFFFFF" height="825.8001" style="stroke:#181818;stroke-width:1.0;" width="10" x="660.5" y="252.9999"/><rect fill="#FFFFFF" height="558.8001" style="stroke:#181818;stroke-width:1.0;" width="10" x="1185" y="497.8"/><rect fill="#FFFFFF" height="29.6" style="stroke:#181818;stroke-width:1.0;" width="10" x="1368" y="557"/><rect fill="#FFFFFF" height="529.2001" style="stroke:#181818;stroke-width:1.0;" width="10" x="1617" y="527.4"/><rect fill="#FFFFFF" height="440.4001" style="stroke:#181818;stroke-width:1.0;" width="10" x="1962" y="616.2001"/><rect fill="#FFFFFF" height="29.6" style="stroke:#181818;stroke-width:1.0;" width="10" x="2090" y="818.8002"/><rect fill="#FFFFFF" height="30" style="stroke:#181818;stroke-width:1.0;" width="10" x="2204" y="759.2001"/><rect fill="#FFFFFF" height="30" style="stroke:#181818;stroke-width:1.0;" width="10" x="2204" y="982.0001"/><rect fill="none" height="613.2001" style="stroke:#000000;stroke-width:1.5;" width="1751.5" x="523" y="458.6"/><rect fill="none" height="418.4001" style="stroke:#000000;stroke-width:1.5;" width="1731.5" x="533" y="631.2001"/><line style="stroke:#181818;stroke-width:0.5;stroke-dasharray:5.0,5.0;" x1="43" x2="43" y1="119.5999" y2="1088.8"/><line style="stroke:#181818;stroke-width:0.5;stroke-dasharray:5.0,5.0;" x1="347" x2="347" y1="119.5999" y2="1088.8"/><line style="stroke:#181818;stroke-width:0.5;stroke-dasharray:5.0,5.0;" x1="665" x2="665" y1="119.5999" y2="1088.8"/><line style="stroke:#181818;stroke-width:0.5;stroke-dasharray:5.0,5.0;" x1="1006" x2="1006" y1="119.5999" y2="1088.8"/><line style="stroke:#181818;stroke-width:0.5;stroke-dasharray:5.0,5.0;" x1="1190" x2="1190" y1="119.5999" y2="1088.8"/><line style="stroke:#181818;stroke-width:0.5;stroke-dasharray:5.0,5.0;" x1="1373" x2="1373" y1="119.5999" y2="1088.8"/><line style="stroke:#181818;stroke-width:0.5;stroke-dasharray:5.0,5.0;" x1="1621.5" x2="1621.5" y1="119.5999" y2="1088.8"/><line style="stroke:#181818;stroke-width:0.5;stroke-dasharray:5.0,5.0;" x1="1966.5" x2="1966.5" y1="119.5999" y2="1088.8"/><line style="stroke:#181818;stroke-width:0.5;stroke-dasharray:5.0,5.0;" x1="2094.5" x2="2094.5" y1="119.5999" y2="1088.8"/><line style="stroke:#181818;stroke-width:0.5;stroke-dasharray:5.0,5.0;" x1="2208.5" x2="2208.5" y1="119.5999" y2="1088.8"/><text fill="#000000" font-family="sans-serif" font-size="14" lengthAdjust="spacing" textLength="71" x="5" y="115.8059">Entrenador</text><ellipse cx="43.5" cy="51.2999" fill="#E2E2F0" rx="8" ry="8" style="stroke:#181818;stroke-width:0.5;"/><path d="M43.5,59.2999 L43.5,86.2999 M30.5,67.2999 L56.5,67.2999 M43.5,86.2999 L30.5,101.2999 M43.5,86.2999 L56.5,101.2999 " fill="none" style="stroke:#181818;stroke-width:0.5;"/><text fill="#000000" font-family="sans-serif" font-size="14" lengthAdjust="spacing" textLength="71" x="5" y="1100.806">Entrenador</text><ellipse cx="43.5" cy="1113.1" fill="#E2E2F0" rx="8" ry="8" style="stroke:#181818;stroke-width:0.5;"/><path d="M43.5,1121.1 L43.5,1148.1 M30.5,1129.1 L56.5,1129.1 M43.5,1148.1 L30.5,1163.1 M43.5,1148.1 L56.5,1163.1 " fill="none" style="stroke:#181818;stroke-width:0.5;"/><rect fill="#E2E2F0" height="36" rx="2.5" ry="2.5" style="stroke:#181818;stroke-width:0.5;" width="209" x="243" y="82.5999"/><ellipse cx="261" cy="100.5999" fill="#DA70D6" rx="11" ry="11" style="stroke:#181818;stroke-width:1.0;"/><path d="M258.8594,101.9905 L260.4375,101.9905 C261.1094,102.2405 262.5938,103.9124 263.4688,105.4905 L263.5313,105.5999 L264.9063,105.5999 C265.2344,105.5999 265.5156,105.553 265.6563,105.4749 C265.9219,105.3186 266.0938,105.0217 266.0938,104.7092 C266.0938,104.4436 265.9375,104.1624 265.7188,104.0061 C265.5313,103.8655 265.3594,103.8342 264.9063,103.8342 L264.7188,103.8342 C264.0625,102.8499 263.3906,102.053 262.6563,101.4124 C263.8594,100.7874 264.4375,99.9905 264.4375,98.9592 C264.4375,97.2249 262.8906,96.0061 260.6406,96.0061 L256.8438,96.0061 C256.3906,96.0061 256.2656,96.0217 256.0938,96.1311 C255.8281,96.303 255.6563,96.5842 255.6563,96.8811 C255.6563,97.1624 255.8125,97.4436 256.0313,97.5999 C256.2188,97.7249 256.4063,97.7561 256.8438,97.7561 L257.0313,97.7561 L257.0313,103.8342 L256.8438,103.8342 C256.4219,103.8342 256.2656,103.8655 256.0938,103.9749 C255.8281,104.1155 255.6563,104.4124 255.6563,104.7092 C255.6563,105.2874 256.0625,105.5999 256.8438,105.5999 L259.3906,105.5999 C259.75,105.5999 260,105.553 260.1406,105.4749 C260.4063,105.3186 260.5781,105.0217 260.5781,104.7092 C260.5781,104.4436 260.4531,104.178 260.2031,104.0061 C260.0156,103.8655 259.875,103.8342 259.3906,103.8342 L258.8594,103.8342 L258.8594,101.9905 Z M258.8594,100.2405 L258.8594,97.7561 L260.7031,97.7561 C261.7344,97.7561 262.5,98.2405 262.5,98.8967 C262.5,99.678 261.4844,100.2405 260.0938,100.2405 L258.8594,100.2405 Z " fill="#000000"/><text fill="#000000" font-family="sans-serif" font-size="14" lengthAdjust="spacing" textLength="167" x="278" y="102.6058">TrainerUserCategoryPage</text><rect fill="#E2E2F0" height="36" rx="2.5" ry="2.5" style="stroke:#181818;stroke-width:0.5;" width="209" x="243" y="1087.8"/><ellipse cx="261" cy="1105.8" fill="#DA70D6" rx="11" ry="11" style="stroke:#181818;stroke-width:1.0;"/><path d="M258.8594,1107.1907 L260.4375,1107.1907 C261.1094,1107.4407 262.5938,1109.1125 263.4688,1110.6907 L263.5313,1110.8 L264.9063,1110.8 C265.2344,1110.8 265.5156,1110.7532 265.6563,1110.675 C265.9219,1110.5188 266.0938,1110.2219 266.0938,1109.9094 C266.0938,1109.6438 265.9375,1109.3625 265.7188,1109.2063 C265.5313,1109.0657 265.3594,1109.0344 264.9063,1109.0344 L264.7188,1109.0344 C264.0625,1108.05 263.3906,1107.2532 262.6563,1106.6125 C263.8594,1105.9875 264.4375,1105.1907 264.4375,1104.1594 C264.4375,1102.425 262.8906,1101.2063 260.6406,1101.2063 L256.8438,1101.2063 C256.3906,1101.2063 256.2656,1101.2219 256.0938,1101.3313 C255.8281,1101.5032 255.6563,1101.7844 255.6563,1102.0813 C255.6563,1102.3625 255.8125,1102.6438 256.0313,1102.8 C256.2188,1102.925 256.4063,1102.9563 256.8438,1102.9563 L257.0313,1102.9563 L257.0313,1109.0344 L256.8438,1109.0344 C256.4219,1109.0344 256.2656,1109.0657 256.0938,1109.175 C255.8281,1109.3157 255.6563,1109.6125 255.6563,1109.9094 C255.6563,1110.4875 256.0625,1110.8 256.8438,1110.8 L259.3906,1110.8 C259.75,1110.8 260,1110.7532 260.1406,1110.675 C260.4063,1110.5188 260.5781,1110.2219 260.5781,1109.9094 C260.5781,1109.6438 260.4531,1109.3782 260.2031,1109.2063 C260.0156,1109.0657 259.875,1109.0344 259.3906,1109.0344 L258.8594,1109.0344 L258.8594,1107.1907 Z M258.8594,1105.4407 L258.8594,1102.9563 L260.7031,1102.9563 C261.7344,1102.9563 262.5,1103.4407 262.5,1104.0969 C262.5,1104.8782 261.4844,1105.4407 260.0938,1105.4407 L258.8594,1105.4407 Z " fill="#000000"/><text fill="#000000" font-family="sans-serif" font-size="14" lengthAdjust="spacing" textLength="167" x="278" y="1107.806">TrainerUserCategoryPage</text><rect fill="#E2E2F0" height="36" rx="2.5" ry="2.5" style="stroke:#181818;stroke-width:0.5;" width="245" x="543" y="82.5999"/><ellipse cx="561" cy="100.5999" fill="#D3D3D3" rx="11" ry="11" style="stroke:#181818;stroke-width:1.0;"/><path d="M556,101.7561 C556,104.2561 558.1406,106.0686 561.0625,106.0686 C562.2969,106.0686 563.4688,105.7717 564.2188,105.2561 C564.8281,104.8342 565.1563,104.4124 565.1563,104.0061 C565.1563,103.5374 564.7344,103.1311 564.2344,103.1311 C564,103.1311 563.7813,103.2092 563.5781,103.4124 C563.1406,103.8499 563.1406,103.8499 562.9688,103.9436 C562.5156,104.178 561.875,104.3186 561.1094,104.3186 C559.1094,104.3186 557.8281,103.303 557.8281,101.7249 L557.8281,100.678 C557.8281,98.9749 559.0469,97.7717 560.75,97.7717 C561.3281,97.7717 561.9063,97.9124 562.375,98.1624 C562.8438,98.428 563.0156,98.6155 563.0781,98.9749 C563.2031,99.6467 563.4531,99.8967 563.9844,99.8967 C564.2656,99.8967 564.5469,99.7561 564.7344,99.5374 C564.8594,99.3655 564.9063,99.1936 564.9063,98.7561 L564.9063,97.3967 C564.9063,96.9749 564.8906,96.8342 564.7656,96.6624 C564.5938,96.4124 564.3125,96.2561 563.9844,96.2561 C563.6719,96.2561 563.4688,96.3655 563.25,96.6311 C562.0781,96.1311 561.6406,96.0217 560.6875,96.0217 C558.0156,96.0217 556,98.0374 556,100.6624 L556,101.7561 Z " fill="#000000"/><text fill="#000000" font-family="sans-serif" font-size="14" lengthAdjust="spacing" textLength="203" x="578" y="102.6058">UserCategoryManagementCard</text><rect fill="#E2E2F0" height="36" rx="2.5" ry="2.5" style="stroke:#181818;stroke-width:0.5;" width="245" x="543" y="1087.8"/><ellipse cx="561" cy="1105.8" fill="#D3D3D3" rx="11" ry="11" style="stroke:#181818;stroke-width:1.0;"/><path d="M556,1106.9563 C556,1109.4563 558.1406,1111.2688 561.0625,1111.2688 C562.2969,1111.2688 563.4688,1110.9719 564.2188,1110.4563 C564.8281,1110.0344 565.1563,1109.6125 565.1563,1109.2063 C565.1563,1108.7375 564.7344,1108.3313 564.2344,1108.3313 C564,1108.3313 563.7813,1108.4094 563.5781,1108.6125 C563.1406,1109.05 563.1406,1109.05 562.9688,1109.1438 C562.5156,1109.3782 561.875,1109.5188 561.1094,1109.5188 C559.1094,1109.5188 557.8281,1108.5032 557.8281,1106.925 L557.8281,1105.8782 C557.8281,1104.175 559.0469,1102.9719 560.75,1102.9719 C561.3281,1102.9719 561.9063,1103.1125 562.375,1103.3625 C562.8438,1103.6282 563.0156,1103.8157 563.0781,1104.175 C563.2031,1104.8469 563.4531,1105.0969 563.9844,1105.0969 C564.2656,1105.0969 564.5469,1104.9563 564.7344,1104.7375 C564.8594,1104.5657 564.9063,1104.3938 564.9063,1103.9563 L564.9063,1102.5969 C564.9063,1102.175 564.8906,1102.0344 564.7656,1101.8625 C564.5938,1101.6125 564.3125,1101.4563 563.9844,1101.4563 C563.6719,1101.4563 563.4688,1101.5657 563.25,1101.8313 C562.0781,1101.3313 561.6406,1101.2219 560.6875,1101.2219 C558.0156,1101.2219 556,1103.2375 556,1105.8625 L556,1106.9563 Z " fill="#000000"/><text fill="#000000" font-family="sans-serif" font-size="14" lengthAdjust="spacing" textLength="203" x="578" y="1107.806">UserCategoryManagementCard</text><rect fill="#E2E2F0" height="36" rx="2.5" ry="2.5" style="stroke:#181818;stroke-width:0.5;" width="129" x="942" y="82.5999"/><ellipse cx="960" cy="100.5999" fill="#D3D3D3" rx="11" ry="11" style="stroke:#181818;stroke-width:1.0;"/><path d="M955,101.7561 C955,104.2561 957.1406,106.0686 960.0625,106.0686 C961.2969,106.0686 962.4688,105.7717 963.2188,105.2561 C963.8281,104.8342 964.1563,104.4124 964.1563,104.0061 C964.1563,103.5374 963.7344,103.1311 963.2344,103.1311 C963,103.1311 962.7813,103.2092 962.5781,103.4124 C962.1406,103.8499 962.1406,103.8499 961.9688,103.9436 C961.5156,104.178 960.875,104.3186 960.1094,104.3186 C958.1094,104.3186 956.8281,103.303 956.8281,101.7249 L956.8281,100.678 C956.8281,98.9749 958.0469,97.7717 959.75,97.7717 C960.3281,97.7717 960.9063,97.9124 961.375,98.1624 C961.8438,98.428 962.0156,98.6155 962.0781,98.9749 C962.2031,99.6467 962.4531,99.8967 962.9844,99.8967 C963.2656,99.8967 963.5469,99.7561 963.7344,99.5374 C963.8594,99.3655 963.9063,99.1936 963.9063,98.7561 L963.9063,97.3967 C963.9063,96.9749 963.8906,96.8342 963.7656,96.6624 C963.5938,96.4124 963.3125,96.2561 962.9844,96.2561 C962.6719,96.2561 962.4688,96.3655 962.25,96.6311 C961.0781,96.1311 960.6406,96.0217 959.6875,96.0217 C957.0156,96.0217 955,98.0374 955,100.6624 L955,101.7561 Z " fill="#000000"/><text fill="#000000" font-family="sans-serif" font-size="14" lengthAdjust="spacing" textLength="87" x="977" y="102.6058">Select (Level)</text><rect fill="#E2E2F0" height="36" rx="2.5" ry="2.5" style="stroke:#181818;stroke-width:0.5;" width="129" x="942" y="1087.8"/><ellipse cx="960" cy="1105.8" fill="#D3D3D3" rx="11" ry="11" style="stroke:#181818;stroke-width:1.0;"/><path d="M955,1106.9563 C955,1109.4563 957.1406,1111.2688 960.0625,1111.2688 C961.2969,1111.2688 962.4688,1110.9719 963.2188,1110.4563 C963.8281,1110.0344 964.1563,1109.6125 964.1563,1109.2063 C964.1563,1108.7375 963.7344,1108.3313 963.2344,1108.3313 C963,1108.3313 962.7813,1108.4094 962.5781,1108.6125 C962.1406,1109.05 962.1406,1109.05 961.9688,1109.1438 C961.5156,1109.3782 960.875,1109.5188 960.1094,1109.5188 C958.1094,1109.5188 956.8281,1108.5032 956.8281,1106.925 L956.8281,1105.8782 C956.8281,1104.175 958.0469,1102.9719 959.75,1102.9719 C960.3281,1102.9719 960.9063,1103.1125 961.375,1103.3625 C961.8438,1103.6282 962.0156,1103.8157 962.0781,1104.175 C962.2031,1104.8469 962.4531,1105.0969 962.9844,1105.0969 C963.2656,1105.0969 963.5469,1104.9563 963.7344,1104.7375 C963.8594,1104.5657 963.9063,1104.3938 963.9063,1103.9563 L963.9063,1102.5969 C963.9063,1102.175 963.8906,1102.0344 963.7656,1101.8625 C963.5938,1101.6125 963.3125,1101.4563 962.9844,1101.4563 C962.6719,1101.4563 962.4688,1101.5657 962.25,1101.8313 C961.0781,1101.3313 960.6406,1101.2219 959.6875,1101.2219 C957.0156,1101.2219 955,1103.2375 955,1105.8625 L955,1106.9563 Z " fill="#000000"/><text fill="#000000" font-family="sans-serif" font-size="14" lengthAdjust="spacing" textLength="87" x="977" y="1107.806">Select (Level)</text><rect fill="#E2E2F0" height="47.5999" rx="2.5" ry="2.5" style="stroke:#181818;stroke-width:0.5;" width="218" x="1081" y="71"/><ellipse cx="1099" cy="89" fill="#FFFF00" rx="11" ry="11" style="stroke:#181818;stroke-width:1.0;"/><path d="M1097.8594,90.0625 L1099.1719,90.0625 L1099.1719,90.1094 C1099.1719,90.5 1099.2031,90.6875 1099.2969,90.8438 C1099.4688,91.0938 1099.7656,91.2656 1100.0781,91.2656 C1100.3594,91.2656 1100.6406,91.125 1100.8281,90.9063 C1100.9531,90.7188 1101,90.5625 1101,90.1094 L1101,88.2813 C1101,87.8594 1100.9844,87.7344 1100.8594,87.5625 C1100.7031,87.2969 1100.4063,87.125 1100.0781,87.125 C1099.7813,87.125 1099.5156,87.2656 1099.3438,87.4844 C1099.2031,87.6719 1099.1719,87.8438 1099.1719,88.2813 L1099.1719,88.3281 L1097.8594,88.3281 L1097.8594,86.1563 L1102.0781,86.1563 L1102.0781,86.9219 C1102.0781,87.3125 1102.1094,87.4844 1102.2188,87.6406 C1102.3906,87.9063 1102.6719,88.0625 1103,88.0625 C1103.2813,88.0625 1103.5625,87.9375 1103.75,87.7031 C1103.8906,87.5156 1103.9219,87.375 1103.9219,86.9219 L1103.9219,84.4063 L1095.8438,84.4063 C1095.4063,84.4063 1095.2656,84.4219 1095.0938,84.5313 C1094.8281,84.7031 1094.6563,84.9844 1094.6563,85.2813 C1094.6563,85.5625 1094.8125,85.8438 1095.0313,86 C1095.2188,86.125 1095.4063,86.1563 1095.8438,86.1563 L1096.0313,86.1563 L1096.0313,92.25 L1095.8438,92.25 C1095.4219,92.25 1095.2656,92.2813 1095.0938,92.375 C1094.8281,92.5313 1094.6563,92.8281 1094.6563,93.1094 C1094.6563,93.6875 1095.0625,94 1095.8438,94 L1099.5,94 C1100.2813,94 1100.6875,93.7188 1100.6875,93.1094 C1100.6875,92.8438 1100.5469,92.5938 1100.3125,92.4219 C1100.125,92.2813 1099.9531,92.25 1099.5,92.25 L1097.8594,92.25 L1097.8594,90.0625 Z " fill="#000000"/><text fill="#000000" font-family="sans-serif" font-size="14" lengthAdjust="spacing" textLength="132" x="1138" y="91.0059">category_backend.ts</text><text fill="#000000" font-family="sans-serif" font-size="14" lengthAdjust="spacing" textLength="176" x="1116" y="107.8059">updateUserCategoryLevel()</text><rect fill="#E2E2F0" height="47.5999" rx="2.5" ry="2.5" style="stroke:#181818;stroke-width:0.5;" width="218" x="1081" y="1087.8"/><ellipse cx="1099" cy="1105.8" fill="#FFFF00" rx="11" ry="11" style="stroke:#181818;stroke-width:1.0;"/><path d="M1097.8594,1106.8625 L1099.1719,1106.8625 L1099.1719,1106.9094 C1099.1719,1107.3 1099.2031,1107.4875 1099.2969,1107.6438 C1099.4688,1107.8938 1099.7656,1108.0657 1100.0781,1108.0657 C1100.3594,1108.0657 1100.6406,1107.925 1100.8281,1107.7063 C1100.9531,1107.5188 1101,1107.3625 1101,1106.9094 L1101,1105.0813 C1101,1104.6594 1100.9844,1104.5344 1100.8594,1104.3625 C1100.7031,1104.0969 1100.4063,1103.925 1100.0781,1103.925 C1099.7813,1103.925 1099.5156,1104.0657 1099.3438,1104.2844 C1099.2031,1104.4719 1099.1719,1104.6438 1099.1719,1105.0813 L1099.1719,1105.1282 L1097.8594,1105.1282 L1097.8594,1102.9563 L1102.0781,1102.9563 L1102.0781,1103.7219 C1102.0781,1104.1125 1102.1094,1104.2844 1102.2188,1104.4407 C1102.3906,1104.7063 1102.6719,1104.8625 1103,1104.8625 C1103.2813,1104.8625 1103.5625,1104.7375 1103.75,1104.5032 C1103.8906,1104.3157 1103.9219,1104.175 1103.9219,1103.7219 L1103.9219,1101.2063 L1095.8438,1101.2063 C1095.4063,1101.2063 1095.2656,1101.2219 1095.0938,1101.3313 C1094.8281,1101.5032 1094.6563,1101.7844 1094.6563,1102.0813 C1094.6563,1102.3625 1094.8125,1102.6438 1095.0313,1102.8 C1095.2188,1102.925 1095.4063,1102.9563 1095.8438,1102.9563 L1096.0313,1102.9563 L1096.0313,1109.05 L1095.8438,1109.05 C1095.4219,1109.05 1095.2656,1109.0813 1095.0938,1109.175 C1094.8281,1109.3313 1094.6563,1109.6282 1094.6563,1109.9094 C1094.6563,1110.4875 1095.0625,1110.8 1095.8438,1110.8 L1099.5,1110.8 C1100.2813,1110.8 1100.6875,1110.5188 1100.6875,1109.9094 C1100.6875,1109.6438 1100.5469,1109.3938 1100.3125,1109.2219 C1100.125,1109.0813 1099.9531,1109.05 1099.5,1109.05 L1097.8594,1109.05 L1097.8594,1106.8625 Z " fill="#000000"/><text fill="#000000" font-family="sans-serif" font-size="14" lengthAdjust="spacing" textLength="132" x="1138" y="1107.806">category_backend.ts</text><text fill="#000000" font-family="sans-serif" font-size="14" lengthAdjust="spacing" textLength="176" x="1116" y="1124.6059">updateUserCategoryLevel()</text><rect fill="#E2E2F0" height="36" rx="2.5" ry="2.5" style="stroke:#181818;stroke-width:0.5;" width="128" x="1309" y="82.5999"/><ellipse cx="1327" cy="100.5999" fill="#ADD8E6" rx="11" ry="11" style="stroke:#181818;stroke-width:1.0;"/><path d="M1330.8594,96.9124 C1330.8594,96.4749 1330.8438,96.3499 1330.7344,96.178 C1330.5781,95.928 1330.2813,95.7717 1329.9531,95.7717 C1329.6094,95.7717 1329.4219,95.9124 1329.2656,96.2874 C1328.7031,95.9592 1327.9375,95.7717 1327.0625,95.7717 C1324.9219,95.7717 1323.3281,97.0374 1323.3281,98.6936 C1323.3281,99.6467 1323.875,100.5374 1324.75,101.0061 C1325.3125,101.3186 1325.8438,101.4749 1326.9844,101.6624 C1328.1094,101.8655 1328.375,101.928 1328.75,102.0999 C1329.0938,102.2717 1329.3125,102.5686 1329.3125,102.8811 C1329.3125,103.5374 1328.3594,104.053 1327.1406,104.053 C1326.0469,104.053 1324.9844,103.5999 1324.8281,103.053 C1324.6875,102.6155 1324.6875,102.6155 1324.5625,102.4749 C1324.3906,102.3186 1324.1563,102.2405 1323.9063,102.2405 C1323.6094,102.2405 1323.3438,102.3655 1323.1563,102.5842 C1323.0313,102.7561 1322.9844,102.9436 1322.9844,103.3655 L1322.9844,104.4436 C1322.9844,105.2092 1323.2969,105.5842 1323.9063,105.5842 C1324.1875,105.5842 1324.3438,105.4905 1324.625,105.2092 C1325.4844,105.6311 1326.3281,105.8186 1327.25,105.8186 C1329.6094,105.8186 1331.2188,104.6467 1331.2188,102.9124 C1331.2188,102.053 1330.875,101.3655 1330.1875,100.8342 C1329.6563,100.428 1328.9844,100.1936 1327.4844,99.9436 C1326.2031,99.6936 1326.1406,99.678 1325.8125,99.5061 C1325.4688,99.3655 1325.2344,99.0061 1325.2344,98.678 C1325.2344,98.0374 1326.0469,97.5217 1327.0781,97.5217 C1328.125,97.5217 1328.8906,97.9436 1329.0313,98.5686 C1329.1563,99.0999 1329.1563,99.0999 1329.2969,99.2405 C1329.4531,99.3967 1329.7031,99.4905 1329.9531,99.4905 C1330.25,99.4905 1330.5,99.3655 1330.6875,99.1467 C1330.8281,98.9592 1330.8594,98.8186 1330.8594,98.3655 L1330.8594,96.9124 Z " fill="#000000"/><text fill="#000000" font-family="sans-serif" font-size="14" lengthAdjust="spacing" textLength="86" x="1344" y="102.6058">AuthManager</text><rect fill="#E2E2F0" height="36" rx="2.5" ry="2.5" style="stroke:#181818;stroke-width:0.5;" width="128" x="1309" y="1087.8"/><ellipse cx="1327" cy="1105.8" fill="#ADD8E6" rx="11" ry="11" style="stroke:#181818;stroke-width:1.0;"/><path d="M1330.8594,1102.1125 C1330.8594,1101.675 1330.8438,1101.55 1330.7344,1101.3782 C1330.5781,1101.1282 1330.2813,1100.9719 1329.9531,1100.9719 C1329.6094,1100.9719 1329.4219,1101.1125 1329.2656,1101.4875 C1328.7031,1101.1594 1327.9375,1100.9719 1327.0625,1100.9719 C1324.9219,1100.9719 1323.3281,1102.2375 1323.3281,1103.8938 C1323.3281,1104.8469 1323.875,1105.7375 1324.75,1106.2063 C1325.3125,1106.5188 1325.8438,1106.675 1326.9844,1106.8625 C1328.1094,1107.0657 1328.375,1107.1282 1328.75,1107.3 C1329.0938,1107.4719 1329.3125,1107.7688 1329.3125,1108.0813 C1329.3125,1108.7375 1328.3594,1109.2532 1327.1406,1109.2532 C1326.0469,1109.2532 1324.9844,1108.8 1324.8281,1108.2532 C1324.6875,1107.8157 1324.6875,1107.8157 1324.5625,1107.675 C1324.3906,1107.5188 1324.1563,1107.4407 1323.9063,1107.4407 C1323.6094,1107.4407 1323.3438,1107.5657 1323.1563,1107.7844 C1323.0313,1107.9563 1322.9844,1108.1438 1322.9844,1108.5657 L1322.9844,1109.6438 C1322.9844,1110.4094 1323.2969,1110.7844 1323.9063,1110.7844 C1324.1875,1110.7844 1324.3438,1110.6907 1324.625,1110.4094 C1325.4844,1110.8313 1326.3281,1111.0188 1327.25,1111.0188 C1329.6094,1111.0188 1331.2188,1109.8469 1331.2188,1108.1125 C1331.2188,1107.2532 1330.875,1106.5657 1330.1875,1106.0344 C1329.6563,1105.6282 1328.9844,1105.3938 1327.4844,1105.1438 C1326.2031,1104.8938 1326.1406,1104.8782 1325.8125,1104.7063 C1325.4688,1104.5657 1325.2344,1104.2063 1325.2344,1103.8782 C1325.2344,1103.2375 1326.0469,1102.7219 1327.0781,1102.7219 C1328.125,1102.7219 1328.8906,1103.1438 1329.0313,1103.7688 C1329.1563,1104.3 1329.1563,1104.3 1329.2969,1104.4407 C1329.4531,1104.5969 1329.7031,1104.6907 1329.9531,1104.6907 C1330.25,1104.6907 1330.5,1104.5657 1330.6875,1104.3469 C1330.8281,1104.1594 1330.8594,1104.0188 1330.8594,1103.5657 L1330.8594,1102.1125 Z " fill="#000000"/><text fill="#000000" font-family="sans-serif" font-size="14" lengthAdjust="spacing" textLength="86" x="1344" y="1107.806">AuthManager</text><rect fill="#E2E2F0" height="47.5999" rx="2.5" ry="2.5" style="stroke:#181818;stroke-width:0.5;" width="113" x="1565.5" y="71"/><ellipse cx="1583.5" cy="89" fill="#FFA500" rx="11" ry="11" style="stroke:#181818;stroke-width:1.0;"/><path d="M1582.3594,90.0625 L1583.6719,90.0625 L1583.6719,90.1094 C1583.6719,90.5 1583.7031,90.6875 1583.7969,90.8438 C1583.9688,91.0938 1584.2656,91.2656 1584.5781,91.2656 C1584.8594,91.2656 1585.1406,91.125 1585.3281,90.9063 C1585.4531,90.7188 1585.5,90.5625 1585.5,90.1094 L1585.5,88.2813 C1585.5,87.8594 1585.4844,87.7344 1585.3594,87.5625 C1585.2031,87.2969 1584.9063,87.125 1584.5781,87.125 C1584.2813,87.125 1584.0156,87.2656 1583.8438,87.4844 C1583.7031,87.6719 1583.6719,87.8438 1583.6719,88.2813 L1583.6719,88.3281 L1582.3594,88.3281 L1582.3594,86.1563 L1586.5781,86.1563 L1586.5781,86.9219 C1586.5781,87.3125 1586.6094,87.4844 1586.7188,87.6406 C1586.8906,87.9063 1587.1719,88.0625 1587.5,88.0625 C1587.7813,88.0625 1588.0625,87.9375 1588.25,87.7031 C1588.3906,87.5156 1588.4219,87.375 1588.4219,86.9219 L1588.4219,84.4063 L1580.3438,84.4063 C1579.9063,84.4063 1579.7656,84.4219 1579.5938,84.5313 C1579.3281,84.7031 1579.1563,84.9844 1579.1563,85.2813 C1579.1563,85.5625 1579.3125,85.8438 1579.5313,86 C1579.7188,86.125 1579.9063,86.1563 1580.3438,86.1563 L1580.5313,86.1563 L1580.5313,92.25 L1580.3438,92.25 C1579.9219,92.25 1579.7656,92.2813 1579.5938,92.375 C1579.3281,92.5313 1579.1563,92.8281 1579.1563,93.1094 C1579.1563,93.6875 1579.5625,94 1580.3438,94 L1584,94 C1584.7813,94 1585.1875,93.7188 1585.1875,93.1094 C1585.1875,92.8438 1585.0469,92.5938 1584.8125,92.4219 C1584.625,92.2813 1584.4531,92.25 1584,92.25 L1582.3594,92.25 L1582.3594,90.0625 Z " fill="#000000"/><text fill="#000000" font-family="sans-serif" font-size="14" lengthAdjust="spacing" textLength="40" x="1616" y="91.0059">utils.ts</text><text fill="#000000" font-family="sans-serif" font-size="14" lengthAdjust="spacing" textLength="71" x="1600.5" y="107.8059">fetchJson()</text><rect fill="#E2E2F0" height="47.5999" rx="2.5" ry="2.5" style="stroke:#181818;stroke-width:0.5;" width="113" x="1565.5" y="1087.8"/><ellipse cx="1583.5" cy="1105.8" fill="#FFA500" rx="11" ry="11" style="stroke:#181818;stroke-width:1.0;"/><path d="M1582.3594,1106.8625 L1583.6719,1106.8625 L1583.6719,1106.9094 C1583.6719,1107.3 1583.7031,1107.4875 1583.7969,1107.6438 C1583.9688,1107.8938 1584.2656,1108.0657 1584.5781,1108.0657 C1584.8594,1108.0657 1585.1406,1107.925 1585.3281,1107.7063 C1585.4531,1107.5188 1585.5,1107.3625 1585.5,1106.9094 L1585.5,1105.0813 C1585.5,1104.6594 1585.4844,1104.5344 1585.3594,1104.3625 C1585.2031,1104.0969 1584.9063,1103.925 1584.5781,1103.925 C1584.2813,1103.925 1584.0156,1104.0657 1583.8438,1104.2844 C1583.7031,1104.4719 1583.6719,1104.6438 1583.6719,1105.0813 L1583.6719,1105.1282 L1582.3594,1105.1282 L1582.3594,1102.9563 L1586.5781,1102.9563 L1586.5781,1103.7219 C1586.5781,1104.1125 1586.6094,1104.2844 1586.7188,1104.4407 C1586.8906,1104.7063 1587.1719,1104.8625 1587.5,1104.8625 C1587.7813,1104.8625 1588.0625,1104.7375 1588.25,1104.5032 C1588.3906,1104.3157 1588.4219,1104.175 1588.4219,1103.7219 L1588.4219,1101.2063 L1580.3438,1101.2063 C1579.9063,1101.2063 1579.7656,1101.2219 1579.5938,1101.3313 C1579.3281,1101.5032 1579.1563,1101.7844 1579.1563,1102.0813 C1579.1563,1102.3625 1579.3125,1102.6438 1579.5313,1102.8 C1579.7188,1102.925 1579.9063,1102.9563 1580.3438,1102.9563 L1580.5313,1102.9563 L1580.5313,1109.05 L1580.3438,1109.05 C1579.9219,1109.05 1579.7656,1109.0813 1579.5938,1109.175 C1579.3281,1109.3313 1579.1563,1109.6282 1579.1563,1109.9094 C1579.1563,1110.4875 1579.5625,1110.8 1580.3438,1110.8 L1584,1110.8 C1584.7813,1110.8 1585.1875,1110.5188 1585.1875,1109.9094 C1585.1875,1109.6438 1585.0469,1109.3938 1584.8125,1109.2219 C1584.625,1109.0813 1584.4531,1109.05 1584,1109.05 L1582.3594,1109.05 L1582.3594,1106.8625 Z " fill="#000000"/><text fill="#000000" font-family="sans-serif" font-size="14" lengthAdjust="spacing" textLength="40" x="1616" y="1107.806">utils.ts</text><text fill="#000000" font-family="sans-serif" font-size="14" lengthAdjust="spacing" textLength="71" x="1600.5" y="1124.6059">fetchJson()</text><rect fill="#E2E2F0" height="36" rx="2.5" ry="2.5" style="stroke:#181818;stroke-width:0.5;" width="119" x="1907.5" y="82.5999"/><ellipse cx="1925.5" cy="100.5999" fill="#FF6347" rx="11" ry="11" style="stroke:#181818;stroke-width:1.0;"/><path d="M1929.3594,96.9124 C1929.3594,96.4749 1929.3438,96.3499 1929.2344,96.178 C1929.0781,95.928 1928.7813,95.7717 1928.4531,95.7717 C1928.1094,95.7717 1927.9219,95.9124 1927.7656,96.2874 C1927.2031,95.9592 1926.4375,95.7717 1925.5625,95.7717 C1923.4219,95.7717 1921.8281,97.0374 1921.8281,98.6936 C1921.8281,99.6467 1922.375,100.5374 1923.25,101.0061 C1923.8125,101.3186 1924.3438,101.4749 1925.4844,101.6624 C1926.6094,101.8655 1926.875,101.928 1927.25,102.0999 C1927.5938,102.2717 1927.8125,102.5686 1927.8125,102.8811 C1927.8125,103.5374 1926.8594,104.053 1925.6406,104.053 C1924.5469,104.053 1923.4844,103.5999 1923.3281,103.053 C1923.1875,102.6155 1923.1875,102.6155 1923.0625,102.4749 C1922.8906,102.3186 1922.6563,102.2405 1922.4063,102.2405 C1922.1094,102.2405 1921.8438,102.3655 1921.6563,102.5842 C1921.5313,102.7561 1921.4844,102.9436 1921.4844,103.3655 L1921.4844,104.4436 C1921.4844,105.2092 1921.7969,105.5842 1922.4063,105.5842 C1922.6875,105.5842 1922.8438,105.4905 1923.125,105.2092 C1923.9844,105.6311 1924.8281,105.8186 1925.75,105.8186 C1928.1094,105.8186 1929.7188,104.6467 1929.7188,102.9124 C1929.7188,102.053 1929.375,101.3655 1928.6875,100.8342 C1928.1563,100.428 1927.4844,100.1936 1925.9844,99.9436 C1924.7031,99.6936 1924.6406,99.678 1924.3125,99.5061 C1923.9688,99.3655 1923.7344,99.0061 1923.7344,98.678 C1923.7344,98.0374 1924.5469,97.5217 1925.5781,97.5217 C1926.625,97.5217 1927.3906,97.9436 1927.5313,98.5686 C1927.6563,99.0999 1927.6563,99.0999 1927.7969,99.2405 C1927.9531,99.3967 1928.2031,99.4905 1928.4531,99.4905 C1928.75,99.4905 1929,99.3655 1929.1875,99.1467 C1929.3281,98.9592 1929.3594,98.8186 1929.3594,98.3655 L1929.3594,96.9124 Z " fill="#000000"/><text fill="#000000" font-family="sans-serif" font-size="14" lengthAdjust="spacing" textLength="77" x="1942.5" y="102.6058">BackendAPI</text><rect fill="#E2E2F0" height="36" rx="2.5" ry="2.5" style="stroke:#181818;stroke-width:0.5;" width="119" x="1907.5" y="1087.8"/><ellipse cx="1925.5" cy="1105.8" fill="#FF6347" rx="11" ry="11" style="stroke:#181818;stroke-width:1.0;"/><path d="M1929.3594,1102.1125 C1929.3594,1101.675 1929.3438,1101.55 1929.2344,1101.3782 C1929.0781,1101.1282 1928.7813,1100.9719 1928.4531,1100.9719 C1928.1094,1100.9719 1927.9219,1101.1125 1927.7656,1101.4875 C1927.2031,1101.1594 1926.4375,1100.9719 1925.5625,1100.9719 C1923.4219,1100.9719 1921.8281,1102.2375 1921.8281,1103.8938 C1921.8281,1104.8469 1922.375,1105.7375 1923.25,1106.2063 C1923.8125,1106.5188 1924.3438,1106.675 1925.4844,1106.8625 C1926.6094,1107.0657 1926.875,1107.1282 1927.25,1107.3 C1927.5938,1107.4719 1927.8125,1107.7688 1927.8125,1108.0813 C1927.8125,1108.7375 1926.8594,1109.2532 1925.6406,1109.2532 C1924.5469,1109.2532 1923.4844,1108.8 1923.3281,1108.2532 C1923.1875,1107.8157 1923.1875,1107.8157 1923.0625,1107.675 C1922.8906,1107.5188 1922.6563,1107.4407 1922.4063,1107.4407 C1922.1094,1107.4407 1921.8438,1107.5657 1921.6563,1107.7844 C1921.5313,1107.9563 1921.4844,1108.1438 1921.4844,1108.5657 L1921.4844,1109.6438 C1921.4844,1110.4094 1921.7969,1110.7844 1922.4063,1110.7844 C1922.6875,1110.7844 1922.8438,1110.6907 1923.125,1110.4094 C1923.9844,1110.8313 1924.8281,1111.0188 1925.75,1111.0188 C1928.1094,1111.0188 1929.7188,1109.8469 1929.7188,1108.1125 C1929.7188,1107.2532 1929.375,1106.5657 1928.6875,1106.0344 C1928.1563,1105.6282 1927.4844,1105.3938 1925.9844,1105.1438 C1924.7031,1104.8938 1924.6406,1104.8782 1924.3125,1104.7063 C1923.9688,1104.5657 1923.7344,1104.2063 1923.7344,1103.8782 C1923.7344,1103.2375 1924.5469,1102.7219 1925.5781,1102.7219 C1926.625,1102.7219 1927.3906,1103.1438 1927.5313,1103.7688 C1927.6563,1104.3 1927.6563,1104.3 1927.7969,1104.4407 C1927.9531,1104.5969 1928.2031,1104.6907 1928.4531,1104.6907 C1928.75,1104.6907 1929,1104.5657 1929.1875,1104.3469 C1929.3281,1104.1594 1929.3594,1104.0188 1929.3594,1103.5657 L1929.3594,1102.1125 Z " fill="#000000"/><text fill="#000000" font-family="sans-serif" font-size="14" lengthAdjust="spacing" textLength="77" x="1942.5" y="1107.806">BackendAPI</text><rect fill="#E2E2F0" height="36" rx="2.5" ry="2.5" style="stroke:#181818;stroke-width:0.5;" width="117" x="2036.5" y="82.5999"/><ellipse cx="2054.5" cy="100.5999" fill="#808080" rx="11" ry="11" style="stroke:#181818;stroke-width:1.0;"/><path d="M2058.3594,96.9124 C2058.3594,96.4749 2058.3438,96.3499 2058.2344,96.178 C2058.0781,95.928 2057.7813,95.7717 2057.4531,95.7717 C2057.1094,95.7717 2056.9219,95.9124 2056.7656,96.2874 C2056.2031,95.9592 2055.4375,95.7717 2054.5625,95.7717 C2052.4219,95.7717 2050.8281,97.0374 2050.8281,98.6936 C2050.8281,99.6467 2051.375,100.5374 2052.25,101.0061 C2052.8125,101.3186 2053.3438,101.4749 2054.4844,101.6624 C2055.6094,101.8655 2055.875,101.928 2056.25,102.0999 C2056.5938,102.2717 2056.8125,102.5686 2056.8125,102.8811 C2056.8125,103.5374 2055.8594,104.053 2054.6406,104.053 C2053.5469,104.053 2052.4844,103.5999 2052.3281,103.053 C2052.1875,102.6155 2052.1875,102.6155 2052.0625,102.4749 C2051.8906,102.3186 2051.6563,102.2405 2051.4063,102.2405 C2051.1094,102.2405 2050.8438,102.3655 2050.6563,102.5842 C2050.5313,102.7561 2050.4844,102.9436 2050.4844,103.3655 L2050.4844,104.4436 C2050.4844,105.2092 2050.7969,105.5842 2051.4063,105.5842 C2051.6875,105.5842 2051.8438,105.4905 2052.125,105.2092 C2052.9844,105.6311 2053.8281,105.8186 2054.75,105.8186 C2057.1094,105.8186 2058.7188,104.6467 2058.7188,102.9124 C2058.7188,102.053 2058.375,101.3655 2057.6875,100.8342 C2057.1563,100.428 2056.4844,100.1936 2054.9844,99.9436 C2053.7031,99.6936 2053.6406,99.678 2053.3125,99.5061 C2052.9688,99.3655 2052.7344,99.0061 2052.7344,98.678 C2052.7344,98.0374 2053.5469,97.5217 2054.5781,97.5217 C2055.625,97.5217 2056.3906,97.9436 2056.5313,98.5686 C2056.6563,99.0999 2056.6563,99.0999 2056.7969,99.2405 C2056.9531,99.3967 2057.2031,99.4905 2057.4531,99.4905 C2057.75,99.4905 2058,99.3655 2058.1875,99.1467 C2058.3281,98.9592 2058.3594,98.8186 2058.3594,98.3655 L2058.3594,96.9124 Z " fill="#000000"/><text fill="#000000" font-family="sans-serif" font-size="14" lengthAdjust="spacing" textLength="75" x="2071.5" y="102.6058">QueryClient</text><rect fill="#E2E2F0" height="36" rx="2.5" ry="2.5" style="stroke:#181818;stroke-width:0.5;" width="117" x="2036.5" y="1087.8"/><ellipse cx="2054.5" cy="1105.8" fill="#808080" rx="11" ry="11" style="stroke:#181818;stroke-width:1.0;"/><path d="M2058.3594,1102.1125 C2058.3594,1101.675 2058.3438,1101.55 2058.2344,1101.3782 C2058.0781,1101.1282 2057.7813,1100.9719 2057.4531,1100.9719 C2057.1094,1100.9719 2056.9219,1101.1125 2056.7656,1101.4875 C2056.2031,1101.1594 2055.4375,1100.9719 2054.5625,1100.9719 C2052.4219,1100.9719 2050.8281,1102.2375 2050.8281,1103.8938 C2050.8281,1104.8469 2051.375,1105.7375 2052.25,1106.2063 C2052.8125,1106.5188 2053.3438,1106.675 2054.4844,1106.8625 C2055.6094,1107.0657 2055.875,1107.1282 2056.25,1107.3 C2056.5938,1107.4719 2056.8125,1107.7688 2056.8125,1108.0813 C2056.8125,1108.7375 2055.8594,1109.2532 2054.6406,1109.2532 C2053.5469,1109.2532 2052.4844,1108.8 2052.3281,1108.2532 C2052.1875,1107.8157 2052.1875,1107.8157 2052.0625,1107.675 C2051.8906,1107.5188 2051.6563,1107.4407 2051.4063,1107.4407 C2051.1094,1107.4407 2050.8438,1107.5657 2050.6563,1107.7844 C2050.5313,1107.9563 2050.4844,1108.1438 2050.4844,1108.5657 L2050.4844,1109.6438 C2050.4844,1110.4094 2050.7969,1110.7844 2051.4063,1110.7844 C2051.6875,1110.7844 2051.8438,1110.6907 2052.125,1110.4094 C2052.9844,1110.8313 2053.8281,1111.0188 2054.75,1111.0188 C2057.1094,1111.0188 2058.7188,1109.8469 2058.7188,1108.1125 C2058.7188,1107.2532 2058.375,1106.5657 2057.6875,1106.0344 C2057.1563,1105.6282 2056.4844,1105.3938 2054.9844,1105.1438 C2053.7031,1104.8938 2053.6406,1104.8782 2053.3125,1104.7063 C2052.9688,1104.5657 2052.7344,1104.2063 2052.7344,1103.8782 C2052.7344,1103.2375 2053.5469,1102.7219 2054.5781,1102.7219 C2055.625,1102.7219 2056.3906,1103.1438 2056.5313,1103.7688 C2056.6563,1104.3 2056.6563,1104.3 2056.7969,1104.4407 C2056.9531,1104.5969 2057.2031,1104.6907 2057.4531,1104.6907 C2057.75,1104.6907 2058,1104.5657 2058.1875,1104.3469 C2058.3281,1104.1594 2058.3594,1104.0188 2058.3594,1103.5657 L2058.3594,1102.1125 Z " fill="#000000"/><text fill="#000000" font-family="sans-serif" font-size="14" lengthAdjust="spacing" textLength="75" x="2071.5" y="1107.806">QueryClient</text><rect fill="#E2E2F0" height="36" rx="2.5" ry="2.5" style="stroke:#181818;stroke-width:0.5;" width="91" x="2163.5" y="82.5999"/><ellipse cx="2181.5" cy="100.5999" fill="#FFC0CB" rx="11" ry="11" style="stroke:#181818;stroke-width:1.0;"/><path d="M2176.5,101.7561 C2176.5,104.2561 2178.6406,106.0686 2181.5625,106.0686 C2182.7969,106.0686 2183.9688,105.7717 2184.7188,105.2561 C2185.3281,104.8342 2185.6563,104.4124 2185.6563,104.0061 C2185.6563,103.5374 2185.2344,103.1311 2184.7344,103.1311 C2184.5,103.1311 2184.2813,103.2092 2184.0781,103.4124 C2183.6406,103.8499 2183.6406,103.8499 2183.4688,103.9436 C2183.0156,104.178 2182.375,104.3186 2181.6094,104.3186 C2179.6094,104.3186 2178.3281,103.303 2178.3281,101.7249 L2178.3281,100.678 C2178.3281,98.9749 2179.5469,97.7717 2181.25,97.7717 C2181.8281,97.7717 2182.4063,97.9124 2182.875,98.1624 C2183.3438,98.428 2183.5156,98.6155 2183.5781,98.9749 C2183.7031,99.6467 2183.9531,99.8967 2184.4844,99.8967 C2184.7656,99.8967 2185.0469,99.7561 2185.2344,99.5374 C2185.3594,99.3655 2185.4063,99.1936 2185.4063,98.7561 L2185.4063,97.3967 C2185.4063,96.9749 2185.3906,96.8342 2185.2656,96.6624 C2185.0938,96.4124 2184.8125,96.2561 2184.4844,96.2561 C2184.1719,96.2561 2183.9688,96.3655 2183.75,96.6311 C2182.5781,96.1311 2182.1406,96.0217 2181.1875,96.0217 C2178.5156,96.0217 2176.5,98.0374 2176.5,100.6624 L2176.5,101.7561 Z " fill="#000000"/><text fill="#000000" font-family="sans-serif" font-size="14" lengthAdjust="spacing" textLength="49" x="2198.5" y="102.6058">Toaster</text><rect fill="#E2E2F0" height="36" rx="2.5" ry="2.5" style="stroke:#181818;stroke-width:0.5;" width="91" x="2163.5" y="1087.8"/><ellipse cx="2181.5" cy="1105.8" fill="#FFC0CB" rx="11" ry="11" style="stroke:#181818;stroke-width:1.0;"/><path d="M2176.5,1106.9563 C2176.5,1109.4563 2178.6406,1111.2688 2181.5625,1111.2688 C2182.7969,1111.2688 2183.9688,1110.9719 2184.7188,1110.4563 C2185.3281,1110.0344 2185.6563,1109.6125 2185.6563,1109.2063 C2185.6563,1108.7375 2185.2344,1108.3313 2184.7344,1108.3313 C2184.5,1108.3313 2184.2813,1108.4094 2184.0781,1108.6125 C2183.6406,1109.05 2183.6406,1109.05 2183.4688,1109.1438 C2183.0156,1109.3782 2182.375,1109.5188 2181.6094,1109.5188 C2179.6094,1109.5188 2178.3281,1108.5032 2178.3281,1106.925 L2178.3281,1105.8782 C2178.3281,1104.175 2179.5469,1102.9719 2181.25,1102.9719 C2181.8281,1102.9719 2182.4063,1103.1125 2182.875,1103.3625 C2183.3438,1103.6282 2183.5156,1103.8157 2183.5781,1104.175 C2183.7031,1104.8469 2183.9531,1105.0969 2184.4844,1105.0969 C2184.7656,1105.0969 2185.0469,1104.9563 2185.2344,1104.7375 C2185.3594,1104.5657 2185.4063,1104.3938 2185.4063,1103.9563 L2185.4063,1102.5969 C2185.4063,1102.175 2185.3906,1102.0344 2185.2656,1101.8625 C2185.0938,1101.6125 2184.8125,1101.4563 2184.4844,1101.4563 C2184.1719,1101.4563 2183.9688,1101.5657 2183.75,1101.8313 C2182.5781,1101.3313 2182.1406,1101.2219 2181.1875,1101.2219 C2178.5156,1101.2219 2176.5,1103.2375 2176.5,1105.8625 L2176.5,1106.9563 Z " fill="#000000"/><text fill="#000000" font-family="sans-serif" font-size="14" lengthAdjust="spacing" textLength="49" x="2198.5" y="1107.806">Toaster</text><rect fill="#FFFFFF" height="927.6002" style="stroke:#181818;stroke-width:1.0;" width="10" x="342.5" y="151.1999"/><rect fill="#FFFFFF" height="825.8001" style="stroke:#181818;stroke-width:1.0;" width="10" x="660.5" y="252.9999"/><rect fill="#FFFFFF" height="558.8001" style="stroke:#181818;stroke-width:1.0;" width="10" x="1185" y="497.8"/><rect fill="#FFFFFF" height="29.6" style="stroke:#181818;stroke-width:1.0;" width="10" x="1368" y="557"/><rect fill="#FFFFFF" height="529.2001" style="stroke:#181818;stroke-width:1.0;" width="10" x="1617" y="527.4"/><rect fill="#FFFFFF" height="440.4001" style="stroke:#181818;stroke-width:1.0;" width="10" x="1962" y="616.2001"/><rect fill="#FFFFFF" height="29.6" style="stroke:#181818;stroke-width:1.0;" width="10" x="2090" y="818.8002"/><rect fill="#FFFFFF" height="30" style="stroke:#181818;stroke-width:1.0;" width="10" x="2204" y="759.2001"/><rect fill="#FFFFFF" height="30" style="stroke:#181818;stroke-width:1.0;" width="10" x="2204" y="982.0001"/><polygon fill="#181818" points="330.5,147.1999,340.5,151.1999,330.5,155.1999,334.5,151.1999" style="stroke:#181818;stroke-width:1.0;"/><line style="stroke:#181818;stroke-width:1.0;" x1="43.5" x2="336.5" y1="151.1999" y2="151.1999"/><text fill="#000000" font-family="sans-serif" font-size="13" lengthAdjust="spacing" textLength="280" x="50.5" y="145.6769">Navigates to /dashboard_trainer/user_categories</text><polygon fill="#181818" points="2083,176.7999,2093,180.7999,2083,184.7999,2087,180.7999" style="stroke:#181818;stroke-width:1.0;"/><line style="stroke:#181818;stroke-width:1.0;" x1="352.5" x2="2089" y1="180.7999" y2="180.7999"/><text fill="#000000" font-family="sans-serif" font-size="13" lengthAdjust="spacing" textLength="267" x="359.5" y="175.2769">useQuery(['allUsersForTrainerCategoryMgmt'])</text><line style="stroke:#181818;stroke-width:1.0;" x1="352.5" x2="394.5" y1="210.3999" y2="210.3999"/><line style="stroke:#181818;stroke-width:1.0;" x1="394.5" x2="394.5" y1="210.3999" y2="223.3999"/><line style="stroke:#181818;stroke-width:1.0;" x1="353.5" x2="394.5" y1="223.3999" y2="223.3999"/><polygon fill="#181818" points="363.5,219.3999,353.5,223.3999,363.5,227.3999,359.5,223.3999" style="stroke:#181818;stroke-width:1.0;"/><text fill="#000000" font-family="sans-serif" font-size="13" lengthAdjust="spacing" textLength="294" x="359.5" y="204.8769">Filters/Searches for a specific user (e.g., by email)</text><polygon fill="#181818" points="648.5,248.9999,658.5,252.9999,648.5,256.9999,652.5,252.9999" style="stroke:#181818;stroke-width:1.0;"/><line style="stroke:#181818;stroke-width:1.0;" x1="352.5" x2="654.5" y1="252.9999" y2="252.9999"/><text fill="#000000" font-family="sans-serif" font-size="13" lengthAdjust="spacing" textLength="178" x="359.5" y="247.4769">Renders card for selected user</text><polygon fill="#181818" points="2083,278.5999,2093,282.5999,2083,286.5999,2087,282.5999" style="stroke:#181818;stroke-width:1.0;"/><line style="stroke:#181818;stroke-width:1.0;" x1="670.5" x2="2089" y1="282.5999" y2="282.5999"/><text fill="#000000" font-family="sans-serif" font-size="13" lengthAdjust="spacing" textLength="242" x="677.5" y="277.0769">useQuery(['userCategories', user.id_user])</text><polygon fill="#181818" points="2083,308.1999,2093,312.1999,2083,316.1999,2087,312.1999" style="stroke:#181818;stroke-width:1.0;"/><line style="stroke:#181818;stroke-width:1.0;" x1="670.5" x2="2089" y1="312.1999" y2="312.1999"/><text fill="#000000" font-family="sans-serif" font-size="13" lengthAdjust="spacing" textLength="151" x="677.5" y="306.6769">useQuery(['allCategories'])</text><polygon fill="#181818" points="994.5,337.7999,1004.5,341.7999,994.5,345.7999,998.5,341.7999" style="stroke:#181818;stroke-width:1.0;"/><line style="stroke:#181818;stroke-width:1.0;" x1="670.5" x2="1000.5" y1="341.7999" y2="341.7999"/><text fill="#000000" font-family="sans-serif" font-size="13" lengthAdjust="spacing" textLength="299" x="677.5" y="336.2769">Renders level select dropdown for a user's category</text><polygon fill="#181818" points="994.5,367.4,1004.5,371.4,994.5,375.4,998.5,371.4" style="stroke:#181818;stroke-width:1.0;"/><line style="stroke:#181818;stroke-width:1.0;" x1="43.5" x2="1000.5" y1="371.4" y2="371.4"/><text fill="#000000" font-family="sans-serif" font-size="13" lengthAdjust="spacing" textLength="300" x="50.5" y="365.877">Selects a new LevelName for the user in a category</text><polygon fill="#181818" points="681.5,397,671.5,401,681.5,405,677.5,401" style="stroke:#181818;stroke-width:1.0;"/><line style="stroke:#181818;stroke-width:1.0;" x1="675.5" x2="1005.5" y1="401" y2="401"/><text fill="#000000" font-family="sans-serif" font-size="13" lengthAdjust="spacing" textLength="153" x="687.5" y="395.477">onValueChange(newLevel)</text><line style="stroke:#181818;stroke-width:1.0;" x1="670.5" x2="712.5" y1="430.6" y2="430.6"/><line style="stroke:#181818;stroke-width:1.0;" x1="712.5" x2="712.5" y1="430.6" y2="443.6"/><line style="stroke:#181818;stroke-width:1.0;" x1="671.5" x2="712.5" y1="443.6" y2="443.6"/><polygon fill="#181818" points="681.5,439.6,671.5,443.6,681.5,447.6,677.5,443.6" style="stroke:#181818;stroke-width:1.0;"/><text fill="#000000" font-family="sans-serif" font-size="13" lengthAdjust="spacing" textLength="244" x="677.5" y="425.077">handleLevelChange(categoryId, newLevel)</text><path d="M523,458.6 L583,458.6 L583,466.2 L573,476.2 L523,476.2 L523,458.6 " fill="#EEEEEE" style="stroke:#000000;stroke-width:1.5;"/><rect fill="none" height="613.2001" style="stroke:#000000;stroke-width:1.5;" width="1751.5" x="523" y="458.6"/><text fill="#000000" font-family="sans-serif" font-size="13" font-weight="bold" lengthAdjust="spacing" textLength="15" x="538" y="471.677">alt</text><text fill="#000000" font-family="sans-serif" font-size="11" font-weight="bold" lengthAdjust="spacing" textLength="214" x="598" y="470.8189">[New level is different from current level]</text><polygon fill="#181818" points="1173,493.8,1183,497.8,1173,501.8,1177,497.8" style="stroke:#181818;stroke-width:1.0;"/><line style="stroke:#181818;stroke-width:1.0;" x1="670.5" x2="1179" y1="497.8" y2="497.8"/><text fill="#000000" font-family="sans-serif" font-size="13" lengthAdjust="spacing" textLength="324" x="677.5" y="492.277">updateUserCategoryLevel(categoryId, userId, newLevel)</text><polygon fill="#181818" points="1605,523.4,1615,527.4,1605,531.4,1609,527.4" style="stroke:#181818;stroke-width:1.0;"/><line style="stroke:#181818;stroke-width:1.0;" x1="1195" x2="1611" y1="527.4" y2="527.4"/><text fill="#000000" font-family="sans-serif" font-size="13" lengthAdjust="spacing" textLength="403" x="1202" y="521.877">fetchJson("/categories/{catId}/user/{userId}/level/{levelName}", {PUT})</text><polygon fill="#181818" points="1389,553,1379,557,1389,561,1385,557" style="stroke:#181818;stroke-width:1.0;"/><line style="stroke:#181818;stroke-width:1.0;" x1="1383" x2="1616" y1="557" y2="557"/><text fill="#000000" font-family="sans-serif" font-size="13" lengthAdjust="spacing" textLength="62" x="1395" y="551.477">getToken()</text><polygon fill="#181818" points="1605,582.6001,1615,586.6001,1605,590.6001,1609,586.6001" style="stroke:#181818;stroke-width:1.0;"/><line style="stroke:#181818;stroke-width:1.0;stroke-dasharray:2.0,2.0;" x1="1373" x2="1611" y1="586.6001" y2="586.6001"/><text fill="#000000" font-family="sans-serif" font-size="13" lengthAdjust="spacing" textLength="113" x="1380" y="581.0771">"trainer_token_123"</text><polygon fill="#181818" points="1950,612.2001,1960,616.2001,1950,620.2001,1954,616.2001" style="stroke:#181818;stroke-width:1.0;"/><line style="stroke:#181818;stroke-width:1.0;" x1="1627" x2="1956" y1="616.2001" y2="616.2001"/><text fill="#000000" font-family="sans-serif" font-size="13" lengthAdjust="spacing" textLength="316" x="1634" y="610.6771">PUT /categories/{catId}/user/{userId}/level/{levelName}</text><path d="M533,631.2001 L593,631.2001 L593,638.8001 L583,648.8001 L533,648.8001 L533,631.2001 " fill="#EEEEEE" style="stroke:#000000;stroke-width:1.5;"/><rect fill="none" height="418.4001" style="stroke:#000000;stroke-width:1.5;" width="1731.5" x="533" y="631.2001"/><text fill="#000000" font-family="sans-serif" font-size="13" font-weight="bold" lengthAdjust="spacing" textLength="15" x="548" y="644.2771">alt</text><text fill="#000000" font-family="sans-serif" font-size="11" font-weight="bold" lengthAdjust="spacing" textLength="152" x="608" y="643.419">[Level updated successfully]</text><polygon fill="#181818" points="1638,666.4001,1628,670.4001,1638,674.4001,1634,670.4001" style="stroke:#181818;stroke-width:1.0;"/><line style="stroke:#181818;stroke-width:1.0;stroke-dasharray:2.0,2.0;" x1="1632" x2="1961" y1="670.4001" y2="670.4001"/><text fill="#000000" font-family="sans-serif" font-size="13" lengthAdjust="spacing" textLength="190" x="1644" y="664.8771">HTTP 200 OK (message or void)</text><polygon fill="#181818" points="1206,696.0001,1196,700.0001,1206,704.0001,1202,700.0001" style="stroke:#181818;stroke-width:1.0;"/><line style="stroke:#181818;stroke-width:1.0;stroke-dasharray:2.0,2.0;" x1="1200" x2="1616" y1="700.0001" y2="700.0001"/><text fill="#000000" font-family="sans-serif" font-size="13" lengthAdjust="spacing" textLength="157" x="1212" y="694.4771">(void or success message)</text><polygon fill="#181818" points="681.5,725.6001,671.5,729.6001,681.5,733.6001,677.5,729.6001" style="stroke:#181818;stroke-width:1.0;"/><line style="stroke:#181818;stroke-width:1.0;stroke-dasharray:2.0,2.0;" x1="675.5" x2="1184" y1="729.6001" y2="729.6001"/><text fill="#000000" font-family="sans-serif" font-size="13" lengthAdjust="spacing" textLength="157" x="687.5" y="724.0771">(void or success message)</text><polygon fill="#181818" points="2192,755.2001,2202,759.2001,2192,763.2001,2196,759.2001" style="stroke:#181818;stroke-width:1.0;"/><line style="stroke:#181818;stroke-width:1.0;" x1="670.5" x2="2198" y1="759.2001" y2="759.2001"/><text fill="#000000" font-family="sans-serif" font-size="13" lengthAdjust="spacing" textLength="193" x="677.5" y="753.6771">toast.success("Level updated...")</text><polygon fill="#181818" points="2078,814.8002,2088,818.8002,2078,822.8002,2082,818.8002" style="stroke:#181818;stroke-width:1.0;"/><line style="stroke:#181818;stroke-width:1.0;" x1="670.5" x2="2084" y1="818.8002" y2="818.8002"/><text fill="#000000" font-family="sans-serif" font-size="13" lengthAdjust="spacing" textLength="322" x="677.5" y="813.2772">invalidateQueries({queryKey: ['userCategories', userId]})</text><polygon fill="#181818" points="681.5,844.4002,671.5,848.4002,681.5,852.4002,677.5,848.4002" style="stroke:#181818;stroke-width:1.0;"/><line style="stroke:#181818;stroke-width:1.0;" x1="675.5" x2="2094" y1="848.4002" y2="848.4002"/><text fill="#000000" font-family="sans-serif" font-size="13" lengthAdjust="spacing" textLength="279" x="687.5" y="842.8772">Triggers refetch of user's categories, UI updates</text><line style="stroke:#000000;stroke-width:1.0;stroke-dasharray:2.0,2.0;" x1="533" x2="2264.5" y1="857.4002" y2="857.4002"/><text fill="#000000" font-family="sans-serif" font-size="11" font-weight="bold" lengthAdjust="spacing" textLength="112" x="538" y="867.6191">[Error updating level]</text><polygon fill="#181818" points="1638,889.2001,1628,893.2001,1638,897.2001,1634,893.2001" style="stroke:#181818;stroke-width:1.0;"/><line style="stroke:#181818;stroke-width:1.0;stroke-dasharray:2.0,2.0;" x1="1632" x2="1961" y1="893.2001" y2="893.2001"/><text fill="#000000" font-family="sans-serif" font-size="13" lengthAdjust="spacing" textLength="66" x="1644" y="887.6771">HTTP Error</text><polygon fill="#181818" points="1206,918.8001,1196,922.8001,1206,926.8001,1202,922.8001" style="stroke:#181818;stroke-width:1.0;"/><line style="stroke:#181818;stroke-width:1.0;" x1="1200" x2="1616" y1="922.8001" y2="922.8001"/><text fill="#000000" font-family="sans-serif" font-size="13" lengthAdjust="spacing" textLength="70" x="1212" y="917.2771">throws Error</text><polygon fill="#181818" points="681.5,948.4001,671.5,952.4001,681.5,956.4001,677.5,952.4001" style="stroke:#181818;stroke-width:1.0;"/><line style="stroke:#181818;stroke-width:1.0;stroke-dasharray:2.0,2.0;" x1="675.5" x2="1184" y1="952.4001" y2="952.4001"/><text fill="#000000" font-family="sans-serif" font-size="13" lengthAdjust="spacing" textLength="70" x="687.5" y="946.8771">throws Error</text><polygon fill="#181818" points="2192,978.0001,2202,982.0001,2192,986.0001,2196,982.0001" style="stroke:#181818;stroke-width:1.0;"/><line style="stroke:#181818;stroke-width:1.0;" x1="670.5" x2="2198" y1="982.0001" y2="982.0001"/><text fill="#000000" font-family="sans-serif" font-size="13" lengthAdjust="spacing" textLength="213" x="677.5" y="976.4771">toast.error("Failed to update level...")</text><polygon fill="#181818" points="994.5,1037.6001,1004.5,1041.6001,994.5,1045.6001,998.5,1041.6001" style="stroke:#181818;stroke-width:1.0;"/><line style="stroke:#181818;stroke-width:1.0;" x1="670.5" x2="1000.5" y1="1041.6001" y2="1041.6001"/><text fill="#000000" font-family="sans-serif" font-size="13" lengthAdjust="spacing" textLength="312" x="677.5" y="1036.0771">Reverts selection to original level (selectedRole state)</text><line style="stroke:#000000;stroke-width:1.0;stroke-dasharray:2.0,2.0;" x1="523" x2="2274.5" y1="1057.6001" y2="1057.6001"/><text fill="#000000" font-family="sans-serif" font-size="11" font-weight="bold" lengthAdjust="spacing" textLength="157" x="528" y="1067.8191">[New level is same as current]</text><!--SRC=[dLRTZnet47_dhnZnmfv484tVK7HIIdCjJKhe7TUN94A-tM6nOcnYUpaXnF_UyGUttbqkr_Pfr-Fv_URJOrjk1SBzTFKR6ikLP7hEzoZGJ9d5KcdEp7jfDKfMA3s1E_nUeSmHVkMir6pRwx7SAWtzMgaFpC1ICovHztPCMvxp7PCM-b5uRr17ziE2bPW2IEv4yFPjTZjKEj_mukhwkacJulzaajItAEsKwS8pnMstTZJJeU3bnfOQ3nscEmeqjv1zH0hvogFzRvI_WCwZ3wi7bdz3MOoi-IAhNK7Yr4NFc0Nsi-oNW70MReO7548zTkZVLNOJmWifzUjIEynTyEf1LDY1LPOBurrPeyqtVnWbe_4RjxwdxM1MQIRBBZwwzcun2rONis3HgYspggF-LuNwC1MSAk3ratN0NKpTKZ5ZOrpnFsHxn-KtfzsB_G2lhjkjCO4vs_EICcd0AXWNp6mU55LxPOFYkABihs9rE1hNednFonPJhqLCfbBl9q0yNf1z7Z0XN4tDZT8rAdHWkRM3hrUz0On68_YeM06axB3QUD7WWfrEI3TSK0xC-0uPDJr5jgP3nS3iCEThddiwo71KZeRmS03SCYwkBX2dpJ-1MogaSoDtIyTeV6DZuVdgl2IeNihmeunKTOjJZWT3JpdYnSfzAH__beUIbT0q4-ce1ixzypum6TARY5nSactndEsMuVH0rnaHJXhJ0OLMkq8zofZqfjL3enURRE67l0A9Zs5lJfvu7hl1K3KkQV-9B2Ner4l9lncTwUd6dSoCECDWQeVK195o8T1hHk3PsAmOGatIOyB2dFmCiNC31L-lKRkAhBNQGbvfl_3xFO2MrVRieYe-C-jI-ou5JJy0dlgkHKbRRIDajnvR4wX7MdzSjy3uIF-pukGF_lWOJ9x6FexnKPpBSkeFuRYuNvuQFZpHax0sHNRFytO29Tgb8dUo1Z3ka-Yi-QhbRJyEf9LrwDLFRtxkatQ15oYQbcdcJe0yXVyHPCF5nSmjgUu-zx5W1PWgpz6OTIN4WHJ0Msnx__jokO0thr_3fm-GqV4oRiHGO-yLtSaUbJXziJyof-eWqHv4be3kbBhJsS_ZFK6hFy_to8Hk1VeRHL3MRyHECw8VxDUtGW1wOLASi_YIhUOqutBF17VqJawroexVdS87F4pWcKavAxwUMduaf7uZDTB9pLBpidIJJAC_5A3MtN4vXFjP3DoqmsjQGs4GtcjDoVRwN9PFS-07xU4HxLwur0fsezMZIVHVhdu7yaAzqIbc_Hkw6Qd5wMKG0WzX_FUoNx3Olahsg6duXqk4dixE9gMzv9A9E6IpyuLxg-YLRImPS5w4MPSE0dzG4q4wbH9nUs3wiZLckd7t3xsguZ0d-03coaVjF6G4eplIOHFQzFvFKz5uNlm3]--></g></svg>