<?xml version="1.0" encoding="us-ascii" standalone="no"?><svg xmlns="http://www.w3.org/2000/svg" xmlns:xlink="http://www.w3.org/1999/xlink" contentStyleType="text/css" height="1043px" preserveAspectRatio="none" style="width:2090px;height:1043px;background:#FFFFFF;" version="1.1" viewBox="0 0 2090 1043" width="2090px" zoomAndPan="magnify"><defs/><g><text fill="#000000" font-family="sans-serif" font-size="14" font-weight="bold" lengthAdjust="spacing" textLength="374" x="856.625" y="33.0059">UC_GestionarCategoriasCRUDAdmin: Activity Diagram</text><ellipse cx="1035.125" cy="57.7999" fill="#222222" rx="10" ry="10" style="stroke:#222222;stroke-width:1.0;"/><rect fill="#F1F1F1" height="34.4001" rx="12.5" ry="12.5" style="stroke:#181818;stroke-width:0.5;" width="234" x="918.125" y="87.7999"/><text fill="#000000" font-family="sans-serif" font-size="12" lengthAdjust="spacing" textLength="214" x="928.125" y="108.948">Admin navega a Gesti&#243;n de Categor&#237;as</text><rect fill="#F1F1F1" height="34.4001" rx="12.5" ry="12.5" style="stroke:#181818;stroke-width:0.5;" width="271" x="899.625" y="142.2"/><text fill="#000000" font-family="sans-serif" font-size="12" lengthAdjust="spacing" textLength="251" x="909.625" y="163.3481">Sistema muestra lista de categor&#237;as existentes</text><polygon fill="#F1F1F1" points="166.125,196.6001,308.125,196.6001,320.125,208.6001,308.125,220.6001,166.125,220.6001,154.125,208.6001,166.125,196.6001" style="stroke:#181818;stroke-width:0.5;"/><text fill="#000000" font-family="sans-serif" font-size="11" lengthAdjust="spacing" textLength="142" x="166.125" y="212.2191">&#191;Qu&#233; desea hacer el Admin?</text><rect fill="#F1F1F1" height="34.4001" rx="12.5" ry="12.5" style="stroke:#181818;stroke-width:0.5;" width="125" x="174.625" y="240.6001"/><text fill="#000000" font-family="sans-serif" font-size="12" lengthAdjust="spacing" textLength="105" x="184.625" y="261.7482">-&gt;[Crear Categor&#237;a]</text><rect fill="#F1F1F1" height="34.4001" rx="12.5" ry="12.5" style="stroke:#181818;stroke-width:0.5;" width="266" x="104.125" y="295.0002"/><text fill="#000000" font-family="sans-serif" font-size="12" lengthAdjust="spacing" textLength="246" x="114.125" y="316.1483">Admin hace clic en "A&#241;adir Nueva Categor&#237;a"</text><rect fill="#F1F1F1" height="34.4001" rx="12.5" ry="12.5" style="stroke:#181818;stroke-width:0.5;" width="317" x="78.625" y="349.4003"/><text fill="#000000" font-family="sans-serif" font-size="12" lengthAdjust="spacing" textLength="297" x="88.625" y="370.5484">Sistema muestra Formulario de Creaci&#243;n de Categor&#237;a</text><rect fill="#F1F1F1" height="34.4001" rx="12.5" ry="12.5" style="stroke:#181818;stroke-width:0.5;" width="310" x="82.125" y="418.8004"/><text fill="#000000" font-family="sans-serif" font-size="12" lengthAdjust="spacing" textLength="290" x="92.125" y="439.9485">Admin ingresa datos (nombre, edad_min, edad_max)</text><rect fill="#F1F1F1" height="34.4001" rx="12.5" ry="12.5" style="stroke:#181818;stroke-width:0.5;" width="146" x="164.125" y="488.2005"/><text fill="#000000" font-family="sans-serif" font-size="12" lengthAdjust="spacing" textLength="126" x="174.125" y="509.3486">Admin env&#237;a formulario</text><rect fill="#F1F1F1" height="34.4001" rx="12.5" ry="12.5" style="stroke:#181818;stroke-width:0.5;" width="179" x="147.625" y="545.0007"/><text fill="#000000" font-family="sans-serif" font-size="12" lengthAdjust="spacing" textLength="159" x="157.625" y="566.1488">Validar datos (frontend - Zod)</text><polygon fill="#F1F1F1" points="197.125,614.4008,277.125,614.4008,289.125,626.4008,277.125,638.4008,197.125,638.4008,185.125,626.4008,197.125,614.4008" style="stroke:#181818;stroke-width:0.5;"/><text fill="#000000" font-family="sans-serif" font-size="11" lengthAdjust="spacing" textLength="80" x="197.125" y="630.0198">Datos inv&#225;lidos?</text><text fill="#000000" font-family="sans-serif" font-size="11" lengthAdjust="spacing" textLength="9" x="176.125" y="623.4199">s&#237;</text><text fill="#000000" font-family="sans-serif" font-size="11" lengthAdjust="spacing" textLength="12" x="289.125" y="623.4199">no</text><rect fill="#F1F1F1" height="34.4001" rx="12.5" ry="12.5" style="stroke:#181818;stroke-width:0.5;" width="165" x="11" y="648.4008"/><text fill="#000000" font-family="sans-serif" font-size="12" lengthAdjust="spacing" textLength="145" x="21" y="669.5489">Mostrar error en formulario</text><rect fill="#F1F1F1" height="34.4001" rx="12.5" ry="12.5" style="stroke:#181818;stroke-width:0.5;" width="329" x="216.25" y="648.4008"/><text fill="#000000" font-family="sans-serif" font-size="12" lengthAdjust="spacing" textLength="309" x="226.25" y="669.5489">Sistema env&#237;a datos al Backend API para crear categor&#237;a</text><polygon fill="#F1F1F1" points="336.25,717.8009,425.25,717.8009,437.25,729.8009,425.25,741.8009,336.25,741.8009,324.25,729.8009,336.25,717.8009" style="stroke:#181818;stroke-width:0.5;"/><text fill="#000000" font-family="sans-serif" font-size="11" lengthAdjust="spacing" textLength="89" x="336.25" y="733.4199">Creaci&#243;n Exitosa?</text><text fill="#000000" font-family="sans-serif" font-size="11" lengthAdjust="spacing" textLength="9" x="315.25" y="726.82">s&#237;</text><text fill="#000000" font-family="sans-serif" font-size="11" lengthAdjust="spacing" textLength="12" x="437.25" y="726.82">no</text><rect fill="#F1F1F1" height="34.4001" rx="12.5" ry="12.5" style="stroke:#181818;stroke-width:0.5;" width="131" x="228.5" y="751.8009"/><text fill="#000000" font-family="sans-serif" font-size="12" lengthAdjust="spacing" textLength="111" x="238.5" y="772.949">Mostrar &#233;xito (Toast)</text><rect fill="#F1F1F1" height="34.4001" rx="12.5" ry="12.5" style="stroke:#181818;stroke-width:0.5;" width="176" x="206" y="806.201"/><text fill="#000000" font-family="sans-serif" font-size="12" lengthAdjust="spacing" textLength="156" x="216" y="827.3491">Actualizar lista de categor&#237;as</text><rect fill="#F1F1F1" height="34.4001" rx="12.5" ry="12.5" style="stroke:#181818;stroke-width:0.5;" width="99" x="244.5" y="875.6011"/><text fill="#000000" font-family="sans-serif" font-size="12" lengthAdjust="spacing" textLength="79" x="254.5" y="896.7492">Cerrar di&#225;logo</text><rect fill="#F1F1F1" height="34.4001" rx="12.5" ry="12.5" style="stroke:#181818;stroke-width:0.5;" width="131" x="402" y="751.8009"/><text fill="#000000" font-family="sans-serif" font-size="12" lengthAdjust="spacing" textLength="111" x="412" y="772.949">Mostrar error (Toast)</text><polygon fill="#F1F1F1" points="380.75,916.0012,392.75,928.0012,380.75,940.0012,368.75,928.0012,380.75,916.0012" style="stroke:#181818;stroke-width:0.5;"/><polygon fill="#F1F1F1" points="237.125,946.0012,249.125,958.0012,237.125,970.0012,225.125,958.0012,237.125,946.0012" style="stroke:#181818;stroke-width:0.5;"/><polygon fill="#F1F1F1" points="744.5,196.6001,823.5,196.6001,835.5,208.6001,823.5,220.6001,744.5,220.6001,732.5,208.6001,744.5,196.6001" style="stroke:#181818;stroke-width:0.5;"/><text fill="#000000" font-family="sans-serif" font-size="11" lengthAdjust="spacing" textLength="79" x="744.5" y="212.2191">Editar Categor&#237;a</text><rect fill="#F1F1F1" height="34.4001" rx="12.5" ry="12.5" style="stroke:#181818;stroke-width:0.5;" width="315" x="626.5" y="240.6001"/><text fill="#000000" font-family="sans-serif" font-size="12" lengthAdjust="spacing" textLength="295" x="636.5" y="261.7482">Admin selecciona una categor&#237;a y hace clic en "Editar"</text><rect fill="#F1F1F1" height="34.4001" rx="12.5" ry="12.5" style="stroke:#181818;stroke-width:0.5;" width="374" x="597" y="295.0002"/><text fill="#000000" font-family="sans-serif" font-size="12" lengthAdjust="spacing" textLength="354" x="607" y="316.1483">Sistema muestra Formulario de Edici&#243;n con datos de la categor&#237;a</text><rect fill="#F1F1F1" height="34.4001" rx="12.5" ry="12.5" style="stroke:#181818;stroke-width:0.5;" width="137" x="715.5" y="349.4003"/><text fill="#000000" font-family="sans-serif" font-size="12" lengthAdjust="spacing" textLength="117" x="725.5" y="370.5484">Admin modifica datos</text><rect fill="#F1F1F1" height="34.4001" rx="12.5" ry="12.5" style="stroke:#181818;stroke-width:0.5;" width="146" x="711" y="418.8004"/><text fill="#000000" font-family="sans-serif" font-size="12" lengthAdjust="spacing" textLength="126" x="721" y="439.9485">Admin env&#237;a formulario</text><rect fill="#F1F1F1" height="34.4001" rx="12.5" ry="12.5" style="stroke:#181818;stroke-width:0.5;" width="179" x="694.5" y="488.2005"/><text fill="#000000" font-family="sans-serif" font-size="12" lengthAdjust="spacing" textLength="159" x="704.5" y="509.3486">Validar datos (frontend - Zod)</text><polygon fill="#F1F1F1" points="744,545.0007,824,545.0007,836,557.0007,824,569.0007,744,569.0007,732,557.0007,744,545.0007" style="stroke:#181818;stroke-width:0.5;"/><text fill="#000000" font-family="sans-serif" font-size="11" lengthAdjust="spacing" textLength="80" x="744" y="560.6197">Datos inv&#225;lidos?</text><text fill="#000000" font-family="sans-serif" font-size="11" lengthAdjust="spacing" textLength="9" x="723" y="554.0198">s&#237;</text><text fill="#000000" font-family="sans-serif" font-size="11" lengthAdjust="spacing" textLength="12" x="836" y="554.0198">no</text><rect fill="#F1F1F1" height="34.4001" rx="12.5" ry="12.5" style="stroke:#181818;stroke-width:0.5;" width="165" x="555.25" y="579.0007"/><text fill="#000000" font-family="sans-serif" font-size="12" lengthAdjust="spacing" textLength="145" x="565.25" y="600.1488">Mostrar error en formulario</text><rect fill="#F1F1F1" height="34.4001" rx="12.5" ry="12.5" style="stroke:#181818;stroke-width:0.5;" width="288" x="786.25" y="579.0007"/><text fill="#000000" font-family="sans-serif" font-size="12" lengthAdjust="spacing" textLength="268" x="796.25" y="600.1488">Sistema env&#237;a datos actualizados al Backend API</text><polygon fill="#F1F1F1" points="875.75,648.4008,984.75,648.4008,996.75,660.4008,984.75,672.4008,875.75,672.4008,863.75,660.4008,875.75,648.4008" style="stroke:#181818;stroke-width:0.5;"/><text fill="#000000" font-family="sans-serif" font-size="11" lengthAdjust="spacing" textLength="109" x="875.75" y="664.0198">Actualizaci&#243;n Exitosa?</text><text fill="#000000" font-family="sans-serif" font-size="11" lengthAdjust="spacing" textLength="9" x="854.75" y="657.4199">s&#237;</text><text fill="#000000" font-family="sans-serif" font-size="11" lengthAdjust="spacing" textLength="12" x="996.75" y="657.4199">no</text><rect fill="#F1F1F1" height="34.4001" rx="12.5" ry="12.5" style="stroke:#181818;stroke-width:0.5;" width="131" x="776.25" y="682.4008"/><text fill="#000000" font-family="sans-serif" font-size="12" lengthAdjust="spacing" textLength="111" x="786.25" y="703.5489">Mostrar &#233;xito (Toast)</text><rect fill="#F1F1F1" height="34.4001" rx="12.5" ry="12.5" style="stroke:#181818;stroke-width:0.5;" width="183" x="750.25" y="751.8009"/><text fill="#000000" font-family="sans-serif" font-size="12" lengthAdjust="spacing" textLength="163" x="760.25" y="772.949">Actualizar categor&#237;a en la lista</text><rect fill="#F1F1F1" height="34.4001" rx="12.5" ry="12.5" style="stroke:#181818;stroke-width:0.5;" width="99" x="792.25" y="806.201"/><text fill="#000000" font-family="sans-serif" font-size="12" lengthAdjust="spacing" textLength="79" x="802.25" y="827.3491">Cerrar di&#225;logo</text><rect fill="#F1F1F1" height="34.4001" rx="12.5" ry="12.5" style="stroke:#181818;stroke-width:0.5;" width="131" x="953.25" y="682.4008"/><text fill="#000000" font-family="sans-serif" font-size="12" lengthAdjust="spacing" textLength="111" x="963.25" y="703.5489">Mostrar error (Toast)</text><polygon fill="#F1F1F1" points="930.25,846.6011,942.25,858.6011,930.25,870.6011,918.25,858.6011,930.25,846.6011" style="stroke:#181818;stroke-width:0.5;"/><polygon fill="#F1F1F1" points="784,876.6011,796,888.6011,784,900.6011,772,888.6011,784,876.6011" style="stroke:#181818;stroke-width:0.5;"/><polygon fill="#F1F1F1" points="1397.875,196.6001,1486.875,196.6001,1498.875,208.6001,1486.875,220.6001,1397.875,220.6001,1385.875,208.6001,1397.875,196.6001" style="stroke:#181818;stroke-width:0.5;"/><text fill="#000000" font-family="sans-serif" font-size="11" lengthAdjust="spacing" textLength="89" x="1397.875" y="212.2191">Eliminar Categor&#237;a</text><text fill="#000000" font-family="sans-serif" font-size="11" lengthAdjust="spacing" textLength="102" x="1498.875" y="205.6192">Gestionar Requisitos</text><rect fill="#F1F1F1" height="34.4001" rx="12.5" ry="12.5" style="stroke:#181818;stroke-width:0.5;" width="328" x="1278.375" y="240.6001"/><text fill="#000000" font-family="sans-serif" font-size="12" lengthAdjust="spacing" textLength="308" x="1288.375" y="261.7482">Admin selecciona una categor&#237;a y hace clic en "Eliminar"</text><rect fill="#F1F1F1" height="34.4001" rx="12.5" ry="12.5" style="stroke:#181818;stroke-width:0.5;" width="250" x="1317.375" y="295.0002"/><text fill="#000000" font-family="sans-serif" font-size="12" lengthAdjust="spacing" textLength="230" x="1327.375" y="316.1483">Sistema muestra Di&#225;logo de Confirmaci&#243;n</text><polygon fill="#F1F1F1" points="1373.875,349.4003,1510.875,349.4003,1522.875,361.4003,1510.875,373.4003,1373.875,373.4003,1361.875,361.4003,1373.875,349.4003" style="stroke:#181818;stroke-width:0.5;"/><text fill="#000000" font-family="sans-serif" font-size="11" lengthAdjust="spacing" textLength="137" x="1373.875" y="365.0193">Admin confirma eliminaci&#243;n?</text><text fill="#000000" font-family="sans-serif" font-size="11" lengthAdjust="spacing" textLength="9" x="1352.875" y="358.4194">s&#237;</text><text fill="#000000" font-family="sans-serif" font-size="11" lengthAdjust="spacing" textLength="12" x="1522.875" y="358.4194">no</text><rect fill="#F1F1F1" height="34.4001" rx="12.5" ry="12.5" style="stroke:#181818;stroke-width:0.5;" width="314" x="1160.5" y="383.4003"/><text fill="#000000" font-family="sans-serif" font-size="12" lengthAdjust="spacing" textLength="294" x="1170.5" y="404.5484">Sistema env&#237;a solicitud de eliminaci&#243;n al Backend API</text><polygon fill="#F1F1F1" points="1268,452.8004,1367,452.8004,1379,464.8004,1367,476.8004,1268,476.8004,1256,464.8004,1268,452.8004" style="stroke:#181818;stroke-width:0.5;"/><text fill="#000000" font-family="sans-serif" font-size="11" lengthAdjust="spacing" textLength="99" x="1268" y="468.4194">Eliminaci&#243;n Exitosa?</text><text fill="#000000" font-family="sans-serif" font-size="11" lengthAdjust="spacing" textLength="9" x="1247" y="461.8195">s&#237;</text><text fill="#000000" font-family="sans-serif" font-size="11" lengthAdjust="spacing" textLength="12" x="1379" y="461.8195">no</text><rect fill="#F1F1F1" height="34.4001" rx="12.5" ry="12.5" style="stroke:#181818;stroke-width:0.5;" width="131" x="1165.75" y="486.8004"/><text fill="#000000" font-family="sans-serif" font-size="12" lengthAdjust="spacing" textLength="111" x="1175.75" y="507.9485">Mostrar &#233;xito (Toast)</text><rect fill="#F1F1F1" height="34.4001" rx="12.5" ry="12.5" style="stroke:#181818;stroke-width:0.5;" width="174" x="1144.25" y="543.6006"/><text fill="#000000" font-family="sans-serif" font-size="12" lengthAdjust="spacing" textLength="154" x="1154.25" y="564.7487">Eliminar categor&#237;a de la lista</text><rect fill="#F1F1F1" height="34.4001" rx="12.5" ry="12.5" style="stroke:#181818;stroke-width:0.5;" width="131" x="1338.25" y="486.8004"/><text fill="#000000" font-family="sans-serif" font-size="12" lengthAdjust="spacing" textLength="111" x="1348.25" y="507.9485">Mostrar error (Toast)</text><polygon fill="#F1F1F1" points="1317.5,584.0007,1329.5,596.0007,1317.5,608.0007,1305.5,596.0007,1317.5,584.0007" style="stroke:#181818;stroke-width:0.5;"/><rect fill="#F1F1F1" height="34.4001" rx="12.5" ry="12.5" style="stroke:#181818;stroke-width:0.5;" width="136" x="1499.25" y="383.4003"/><text fill="#000000" font-family="sans-serif" font-size="12" lengthAdjust="spacing" textLength="116" x="1509.25" y="404.5484">Cancelar eliminaci&#243;n</text><polygon fill="#F1F1F1" points="1442.375,614.0007,1454.375,626.0007,1442.375,638.0007,1430.375,626.0007,1442.375,614.0007" style="stroke:#181818;stroke-width:0.5;"/><rect fill="#F1F1F1" height="34.4001" rx="12.5" ry="12.5" style="stroke:#181818;stroke-width:0.5;" width="341" x="1691.75" y="542.6006"/><text fill="#000000" font-family="sans-serif" font-size="12" lengthAdjust="spacing" textLength="321" x="1701.75" y="563.7487">Admin selecciona una categor&#237;a y hace clic en "Requisitos"</text><rect fill="#F1F1F1" height="34.4001" rx="12.5" ry="12.5" style="stroke:#181818;stroke-width:0.5;" width="434" x="1645.25" y="612.0007"/><text fill="#000000" font-family="sans-serif" font-size="12" lengthAdjust="spacing" textLength="414" x="1655.25" y="633.1488">Ver UC_GestionarCategoriasCRUDAdmin (A&#241;adir Requisito) para el detalle</text><ellipse cx="1035.125" cy="1021.0012" fill="none" rx="11" ry="11" style="stroke:#222222;stroke-width:1.0;"/><ellipse cx="1035.125" cy="1021.0012" fill="#222222" rx="6" ry="6" style="stroke:#222222;stroke-width:1.0;"/><line style="stroke:#181818;stroke-width:1.0;" x1="1035.125" x2="1035.125" y1="67.7999" y2="87.7999"/><polygon fill="#181818" points="1031.125,77.7999,1035.125,87.7999,1039.125,77.7999,1035.125,81.7999" style="stroke:#181818;stroke-width:1.0;"/><line style="stroke:#181818;stroke-width:1.0;" x1="1035.125" x2="1035.125" y1="122.2" y2="142.2"/><polygon fill="#181818" points="1031.125,132.2,1035.125,142.2,1039.125,132.2,1035.125,136.2" style="stroke:#181818;stroke-width:1.0;"/><line style="stroke:#181818;stroke-width:1.0;" x1="237.125" x2="237.125" y1="275.0002" y2="295.0002"/><polygon fill="#181818" points="233.125,285.0002,237.125,295.0002,241.125,285.0002,237.125,289.0002" style="stroke:#181818;stroke-width:1.0;"/><line style="stroke:#181818;stroke-width:1.0;" x1="237.125" x2="237.125" y1="329.4003" y2="349.4003"/><polygon fill="#181818" points="233.125,339.4003,237.125,349.4003,241.125,339.4003,237.125,343.4003" style="stroke:#181818;stroke-width:1.0;"/><line style="stroke:#181818;stroke-width:1.0;" x1="237.125" x2="237.125" y1="383.8004" y2="418.8004"/><polygon fill="#181818" points="233.125,408.8004,237.125,418.8004,241.125,408.8004,237.125,412.8004" style="stroke:#181818;stroke-width:1.0;"/><line style="stroke:#181818;stroke-width:1.0;" x1="237.125" x2="237.125" y1="453.2005" y2="488.2005"/><polygon fill="#181818" points="233.125,478.2005,237.125,488.2005,241.125,478.2005,237.125,482.2005" style="stroke:#181818;stroke-width:1.0;"/><line style="stroke:#181818;stroke-width:1.0;" x1="237.125" x2="237.125" y1="522.6006" y2="545.0007"/><polygon fill="#181818" points="233.125,535.0007,237.125,545.0007,241.125,535.0007,237.125,539.0007" style="stroke:#181818;stroke-width:1.0;"/><line style="stroke:#181818;stroke-width:1.0;" x1="294" x2="294" y1="786.201" y2="806.201"/><polygon fill="#181818" points="290,796.201,294,806.201,298,796.201,294,800.201" style="stroke:#181818;stroke-width:1.0;"/><line style="stroke:#181818;stroke-width:1.0;" x1="294" x2="294" y1="840.6011" y2="875.6011"/><polygon fill="#181818" points="290,865.6011,294,875.6011,298,865.6011,294,869.6011" style="stroke:#181818;stroke-width:1.0;"/><line style="stroke:#181818;stroke-width:1.0;" x1="324.25" x2="294" y1="729.8009" y2="729.8009"/><line style="stroke:#181818;stroke-width:1.0;" x1="294" x2="294" y1="729.8009" y2="751.8009"/><polygon fill="#181818" points="290,741.8009,294,751.8009,298,741.8009,294,745.8009" style="stroke:#181818;stroke-width:1.0;"/><line style="stroke:#181818;stroke-width:1.0;" x1="437.25" x2="467.5" y1="729.8009" y2="729.8009"/><line style="stroke:#181818;stroke-width:1.0;" x1="467.5" x2="467.5" y1="729.8009" y2="751.8009"/><polygon fill="#181818" points="463.5,741.8009,467.5,751.8009,471.5,741.8009,467.5,745.8009" style="stroke:#181818;stroke-width:1.0;"/><line style="stroke:#181818;stroke-width:1.0;" x1="294" x2="294" y1="910.0012" y2="928.0012"/><line style="stroke:#181818;stroke-width:1.0;" x1="294" x2="368.75" y1="928.0012" y2="928.0012"/><polygon fill="#181818" points="358.75,924.0012,368.75,928.0012,358.75,932.0012,362.75,928.0012" style="stroke:#181818;stroke-width:1.0;"/><line style="stroke:#181818;stroke-width:1.0;" x1="467.5" x2="467.5" y1="786.201" y2="928.0012"/><line style="stroke:#181818;stroke-width:1.0;" x1="467.5" x2="392.75" y1="928.0012" y2="928.0012"/><polygon fill="#181818" points="402.75,924.0012,392.75,928.0012,402.75,932.0012,398.75,928.0012" style="stroke:#181818;stroke-width:1.0;"/><line style="stroke:#181818;stroke-width:1.0;" x1="380.75" x2="380.75" y1="682.8009" y2="717.8009"/><polygon fill="#181818" points="376.75,707.8009,380.75,717.8009,384.75,707.8009,380.75,711.8009" style="stroke:#181818;stroke-width:1.0;"/><line style="stroke:#181818;stroke-width:1.0;" x1="185.125" x2="93.5" y1="626.4008" y2="626.4008"/><line style="stroke:#181818;stroke-width:1.0;" x1="93.5" x2="93.5" y1="626.4008" y2="648.4008"/><polygon fill="#181818" points="89.5,638.4008,93.5,648.4008,97.5,638.4008,93.5,642.4008" style="stroke:#181818;stroke-width:1.0;"/><line style="stroke:#181818;stroke-width:1.0;" x1="289.125" x2="380.75" y1="626.4008" y2="626.4008"/><line style="stroke:#181818;stroke-width:1.0;" x1="380.75" x2="380.75" y1="626.4008" y2="648.4008"/><polygon fill="#181818" points="376.75,638.4008,380.75,648.4008,384.75,638.4008,380.75,642.4008" style="stroke:#181818;stroke-width:1.0;"/><line style="stroke:#181818;stroke-width:1.0;" x1="93.5" x2="93.5" y1="682.8009" y2="958.0012"/><line style="stroke:#181818;stroke-width:1.0;" x1="93.5" x2="225.125" y1="958.0012" y2="958.0012"/><polygon fill="#181818" points="215.125,954.0012,225.125,958.0012,215.125,962.0012,219.125,958.0012" style="stroke:#181818;stroke-width:1.0;"/><line style="stroke:#181818;stroke-width:1.0;" x1="380.75" x2="380.75" y1="940.0012" y2="958.0012"/><line style="stroke:#181818;stroke-width:1.0;" x1="380.75" x2="249.125" y1="958.0012" y2="958.0012"/><polygon fill="#181818" points="259.125,954.0012,249.125,958.0012,259.125,962.0012,255.125,958.0012" style="stroke:#181818;stroke-width:1.0;"/><line style="stroke:#181818;stroke-width:1.0;" x1="237.125" x2="237.125" y1="579.4008" y2="614.4008"/><polygon fill="#181818" points="233.125,604.4008,237.125,614.4008,241.125,604.4008,237.125,608.4008" style="stroke:#181818;stroke-width:1.0;"/><line style="stroke:#181818;stroke-width:1.0;" x1="784" x2="784" y1="275.0002" y2="295.0002"/><polygon fill="#181818" points="780,285.0002,784,295.0002,788,285.0002,784,289.0002" style="stroke:#181818;stroke-width:1.0;"/><line style="stroke:#181818;stroke-width:1.0;" x1="784" x2="784" y1="329.4003" y2="349.4003"/><polygon fill="#181818" points="780,339.4003,784,349.4003,788,339.4003,784,343.4003" style="stroke:#181818;stroke-width:1.0;"/><line style="stroke:#181818;stroke-width:1.0;" x1="784" x2="784" y1="383.8004" y2="418.8004"/><polygon fill="#181818" points="780,408.8004,784,418.8004,788,408.8004,784,412.8004" style="stroke:#181818;stroke-width:1.0;"/><line style="stroke:#181818;stroke-width:1.0;" x1="784" x2="784" y1="453.2005" y2="488.2005"/><polygon fill="#181818" points="780,478.2005,784,488.2005,788,478.2005,784,482.2005" style="stroke:#181818;stroke-width:1.0;"/><line style="stroke:#181818;stroke-width:1.0;" x1="841.75" x2="841.75" y1="716.8009" y2="751.8009"/><polygon fill="#181818" points="837.75,741.8009,841.75,751.8009,845.75,741.8009,841.75,745.8009" style="stroke:#181818;stroke-width:1.0;"/><line style="stroke:#181818;stroke-width:1.0;" x1="841.75" x2="841.75" y1="786.201" y2="806.201"/><polygon fill="#181818" points="837.75,796.201,841.75,806.201,845.75,796.201,841.75,800.201" style="stroke:#181818;stroke-width:1.0;"/><line style="stroke:#181818;stroke-width:1.0;" x1="863.75" x2="841.75" y1="660.4008" y2="660.4008"/><line style="stroke:#181818;stroke-width:1.0;" x1="841.75" x2="841.75" y1="660.4008" y2="682.4008"/><polygon fill="#181818" points="837.75,672.4008,841.75,682.4008,845.75,672.4008,841.75,676.4008" style="stroke:#181818;stroke-width:1.0;"/><line style="stroke:#181818;stroke-width:1.0;" x1="996.75" x2="1018.75" y1="660.4008" y2="660.4008"/><line style="stroke:#181818;stroke-width:1.0;" x1="1018.75" x2="1018.75" y1="660.4008" y2="682.4008"/><polygon fill="#181818" points="1014.75,672.4008,1018.75,682.4008,1022.75,672.4008,1018.75,676.4008" style="stroke:#181818;stroke-width:1.0;"/><line style="stroke:#181818;stroke-width:1.0;" x1="841.75" x2="841.75" y1="840.6011" y2="858.6011"/><line style="stroke:#181818;stroke-width:1.0;" x1="841.75" x2="918.25" y1="858.6011" y2="858.6011"/><polygon fill="#181818" points="908.25,854.6011,918.25,858.6011,908.25,862.6011,912.25,858.6011" style="stroke:#181818;stroke-width:1.0;"/><line style="stroke:#181818;stroke-width:1.0;" x1="1018.75" x2="1018.75" y1="716.8009" y2="858.6011"/><line style="stroke:#181818;stroke-width:1.0;" x1="1018.75" x2="942.25" y1="858.6011" y2="858.6011"/><polygon fill="#181818" points="952.25,854.6011,942.25,858.6011,952.25,862.6011,948.25,858.6011" style="stroke:#181818;stroke-width:1.0;"/><line style="stroke:#181818;stroke-width:1.0;" x1="930.25" x2="930.25" y1="613.4008" y2="648.4008"/><polygon fill="#181818" points="926.25,638.4008,930.25,648.4008,934.25,638.4008,930.25,642.4008" style="stroke:#181818;stroke-width:1.0;"/><line style="stroke:#181818;stroke-width:1.0;" x1="732" x2="637.75" y1="557.0007" y2="557.0007"/><line style="stroke:#181818;stroke-width:1.0;" x1="637.75" x2="637.75" y1="557.0007" y2="579.0007"/><polygon fill="#181818" points="633.75,569.0007,637.75,579.0007,641.75,569.0007,637.75,573.0007" style="stroke:#181818;stroke-width:1.0;"/><line style="stroke:#181818;stroke-width:1.0;" x1="836" x2="930.25" y1="557.0007" y2="557.0007"/><line style="stroke:#181818;stroke-width:1.0;" x1="930.25" x2="930.25" y1="557.0007" y2="579.0007"/><polygon fill="#181818" points="926.25,569.0007,930.25,579.0007,934.25,569.0007,930.25,573.0007" style="stroke:#181818;stroke-width:1.0;"/><line style="stroke:#181818;stroke-width:1.0;" x1="637.75" x2="637.75" y1="613.4008" y2="888.6011"/><line style="stroke:#181818;stroke-width:1.0;" x1="637.75" x2="772" y1="888.6011" y2="888.6011"/><polygon fill="#181818" points="762,884.6011,772,888.6011,762,892.6011,766,888.6011" style="stroke:#181818;stroke-width:1.0;"/><line style="stroke:#181818;stroke-width:1.0;" x1="930.25" x2="930.25" y1="870.6011" y2="888.6011"/><line style="stroke:#181818;stroke-width:1.0;" x1="930.25" x2="796" y1="888.6011" y2="888.6011"/><polygon fill="#181818" points="806,884.6011,796,888.6011,806,892.6011,802,888.6011" style="stroke:#181818;stroke-width:1.0;"/><line style="stroke:#181818;stroke-width:1.0;" x1="784" x2="784" y1="522.6006" y2="545.0007"/><polygon fill="#181818" points="780,535.0007,784,545.0007,788,535.0007,784,539.0007" style="stroke:#181818;stroke-width:1.0;"/><line style="stroke:#181818;stroke-width:1.0;" x1="1442.375" x2="1442.375" y1="275.0002" y2="295.0002"/><polygon fill="#181818" points="1438.375,285.0002,1442.375,295.0002,1446.375,285.0002,1442.375,289.0002" style="stroke:#181818;stroke-width:1.0;"/><line style="stroke:#181818;stroke-width:1.0;" x1="1231.25" x2="1231.25" y1="521.2005" y2="543.6006"/><polygon fill="#181818" points="1227.25,533.6006,1231.25,543.6006,1235.25,533.6006,1231.25,537.6006" style="stroke:#181818;stroke-width:1.0;"/><line style="stroke:#181818;stroke-width:1.0;" x1="1256" x2="1231.25" y1="464.8004" y2="464.8004"/><line style="stroke:#181818;stroke-width:1.0;" x1="1231.25" x2="1231.25" y1="464.8004" y2="486.8004"/><polygon fill="#181818" points="1227.25,476.8004,1231.25,486.8004,1235.25,476.8004,1231.25,480.8004" style="stroke:#181818;stroke-width:1.0;"/><line style="stroke:#181818;stroke-width:1.0;" x1="1379" x2="1403.75" y1="464.8004" y2="464.8004"/><line style="stroke:#181818;stroke-width:1.0;" x1="1403.75" x2="1403.75" y1="464.8004" y2="486.8004"/><polygon fill="#181818" points="1399.75,476.8004,1403.75,486.8004,1407.75,476.8004,1403.75,480.8004" style="stroke:#181818;stroke-width:1.0;"/><line style="stroke:#181818;stroke-width:1.0;" x1="1231.25" x2="1231.25" y1="578.0007" y2="596.0007"/><line style="stroke:#181818;stroke-width:1.0;" x1="1231.25" x2="1305.5" y1="596.0007" y2="596.0007"/><polygon fill="#181818" points="1295.5,592.0007,1305.5,596.0007,1295.5,600.0007,1299.5,596.0007" style="stroke:#181818;stroke-width:1.0;"/><line style="stroke:#181818;stroke-width:1.0;" x1="1403.75" x2="1403.75" y1="521.2005" y2="596.0007"/><line style="stroke:#181818;stroke-width:1.0;" x1="1403.75" x2="1329.5" y1="596.0007" y2="596.0007"/><polygon fill="#181818" points="1339.5,592.0007,1329.5,596.0007,1339.5,600.0007,1335.5,596.0007" style="stroke:#181818;stroke-width:1.0;"/><line style="stroke:#181818;stroke-width:1.0;" x1="1317.5" x2="1317.5" y1="417.8004" y2="452.8004"/><polygon fill="#181818" points="1313.5,442.8004,1317.5,452.8004,1321.5,442.8004,1317.5,446.8004" style="stroke:#181818;stroke-width:1.0;"/><line style="stroke:#181818;stroke-width:1.0;" x1="1361.875" x2="1317.5" y1="361.4003" y2="361.4003"/><line style="stroke:#181818;stroke-width:1.0;" x1="1317.5" x2="1317.5" y1="361.4003" y2="383.4003"/><polygon fill="#181818" points="1313.5,373.4003,1317.5,383.4003,1321.5,373.4003,1317.5,377.4003" style="stroke:#181818;stroke-width:1.0;"/><line style="stroke:#181818;stroke-width:1.0;" x1="1522.875" x2="1567.25" y1="361.4003" y2="361.4003"/><line style="stroke:#181818;stroke-width:1.0;" x1="1567.25" x2="1567.25" y1="361.4003" y2="383.4003"/><polygon fill="#181818" points="1563.25,373.4003,1567.25,383.4003,1571.25,373.4003,1567.25,377.4003" style="stroke:#181818;stroke-width:1.0;"/><line style="stroke:#181818;stroke-width:1.0;" x1="1317.5" x2="1317.5" y1="608.0007" y2="626.0007"/><line style="stroke:#181818;stroke-width:1.0;" x1="1317.5" x2="1430.375" y1="626.0007" y2="626.0007"/><polygon fill="#181818" points="1420.375,622.0007,1430.375,626.0007,1420.375,630.0007,1424.375,626.0007" style="stroke:#181818;stroke-width:1.0;"/><line style="stroke:#181818;stroke-width:1.0;" x1="1567.25" x2="1567.25" y1="417.8004" y2="626.0007"/><line style="stroke:#181818;stroke-width:1.0;" x1="1567.25" x2="1454.375" y1="626.0007" y2="626.0007"/><polygon fill="#181818" points="1464.375,622.0007,1454.375,626.0007,1464.375,630.0007,1460.375,626.0007" style="stroke:#181818;stroke-width:1.0;"/><line style="stroke:#181818;stroke-width:1.0;" x1="1442.375" x2="1442.375" y1="329.4003" y2="349.4003"/><polygon fill="#181818" points="1438.375,339.4003,1442.375,349.4003,1446.375,339.4003,1442.375,343.4003" style="stroke:#181818;stroke-width:1.0;"/><line style="stroke:#181818;stroke-width:1.0;" x1="1862.25" x2="1862.25" y1="577.0007" y2="612.0007"/><polygon fill="#181818" points="1858.25,602.0007,1862.25,612.0007,1866.25,602.0007,1862.25,606.0007" style="stroke:#181818;stroke-width:1.0;"/><line style="stroke:#181818;stroke-width:1.0;" x1="237.125" x2="237.125" y1="220.6001" y2="240.6001"/><polygon fill="#181818" points="233.125,230.6001,237.125,240.6001,241.125,230.6001,237.125,234.6001" style="stroke:#181818;stroke-width:1.0;"/><line style="stroke:#181818;stroke-width:1.0;" x1="237.125" x2="237.125" y1="970.0012" y2="990.0012"/><polygon fill="#181818" points="233.125,980.0012,237.125,990.0012,241.125,980.0012,237.125,984.0012" style="stroke:#181818;stroke-width:1.0;"/><line style="stroke:#181818;stroke-width:1.0;" x1="784" x2="784" y1="220.6001" y2="240.6001"/><polygon fill="#181818" points="780,230.6001,784,240.6001,788,230.6001,784,234.6001" style="stroke:#181818;stroke-width:1.0;"/><line style="stroke:#181818;stroke-width:1.0;" x1="784" x2="784" y1="900.6011" y2="990.0012"/><polygon fill="#181818" points="780,980.0012,784,990.0012,788,980.0012,784,984.0012" style="stroke:#181818;stroke-width:1.0;"/><line style="stroke:#181818;stroke-width:1.0;" x1="1442.375" x2="1442.375" y1="220.6001" y2="240.6001"/><polygon fill="#181818" points="1438.375,230.6001,1442.375,240.6001,1446.375,230.6001,1442.375,234.6001" style="stroke:#181818;stroke-width:1.0;"/><line style="stroke:#181818;stroke-width:1.0;" x1="1442.375" x2="1442.375" y1="638.0007" y2="990.0012"/><polygon fill="#181818" points="1438.375,980.0012,1442.375,990.0012,1446.375,980.0012,1442.375,984.0012" style="stroke:#181818;stroke-width:1.0;"/><line style="stroke:#181818;stroke-width:1.0;" x1="320.125" x2="732.5" y1="208.6001" y2="208.6001"/><polygon fill="#181818" points="722.5,204.6001,732.5,208.6001,722.5,212.6001,726.5,208.6001" style="stroke:#181818;stroke-width:1.0;"/><line style="stroke:#181818;stroke-width:1.0;" x1="835.5" x2="1385.875" y1="208.6001" y2="208.6001"/><polygon fill="#181818" points="1375.875,204.6001,1385.875,208.6001,1375.875,212.6001,1379.875,208.6001" style="stroke:#181818;stroke-width:1.0;"/><line style="stroke:#181818;stroke-width:1.0;" x1="1035.125" x2="1035.125" y1="176.6001" y2="181.6001"/><line style="stroke:#181818;stroke-width:1.0;" x1="1035.125" x2="237.125" y1="181.6001" y2="181.6001"/><line style="stroke:#181818;stroke-width:1.0;" x1="237.125" x2="237.125" y1="181.6001" y2="196.6001"/><polygon fill="#181818" points="233.125,186.6001,237.125,196.6001,241.125,186.6001,237.125,190.6001" style="stroke:#181818;stroke-width:1.0;"/><line style="stroke:#181818;stroke-width:1.0;" x1="1498.875" x2="1862.25" y1="208.6001" y2="208.6001"/><line style="stroke:#181818;stroke-width:1.0;" x1="1862.25" x2="1862.25" y1="208.6001" y2="542.6006"/><polygon fill="#181818" points="1858.25,532.6006,1862.25,542.6006,1866.25,532.6006,1862.25,536.6006" style="stroke:#181818;stroke-width:1.0;"/><line style="stroke:#181818;stroke-width:1.0;" x1="1862.25" x2="1862.25" y1="646.4008" y2="990.0012"/><polygon fill="#181818" points="1858.25,980.0012,1862.25,990.0012,1866.25,980.0012,1862.25,984.0012" style="stroke:#181818;stroke-width:1.0;"/><line style="stroke:#181818;stroke-width:1.0;" x1="237.125" x2="1862.25" y1="990.0012" y2="990.0012"/><line style="stroke:#181818;stroke-width:1.0;" x1="1035.125" x2="1035.125" y1="990.0012" y2="1010.0012"/><polygon fill="#181818" points="1031.125,1000.0012,1035.125,1010.0012,1039.125,1000.0012,1035.125,1004.0012" style="stroke:#181818;stroke-width:1.0;"/><!--SRC=[rLLDRzD04BtxLunwIYJw1n8959o0E82Wq1v0g1fs9-cAzMxPNKSf_uPZ3pqWVW0I_cETjJUsuuGFqGg9GwJ4E_FcpNiltg229ZZDpv-I3yeQT3a6MbcdqESdf_EPB9IPm4m4jLRX2kOALmwBBFC1NSWczJaONDCA0Q56gRuPa0G9gBf1FyqchvKFL20K9PSu1Cs_CPQ9hWne4wjC8Ex8r196Fxw_AgjhBlE4S8627926UkYZCOGBCXd0yV73TxaZTBsHx_avGA8N6q5e9O0C7CsghoYLWnSbhR7NSZHjUePCdrXNb1gTilLMF4ZihpZjprDcvSZpTXYiXv6nnGT73u0aodC-ttx3pNYdZSoQaM3PpakdPwYLvEqItD9PLiX8E8QtLYQ8ADQyFbUCyeKRh4yAmSXND-EwYi6UsxWKo-YSTL6FuJZIdYBdjcEhHwBNi40DZr5yZ3HcBv_19R9GelP033Hfk7MoBJQA0V0GkHwzwZgMmUYDHH_6qww0arYo7f-vvb24UfKvhnXLKoo7NTdjoN2_FKq6Ctb5jSowRra4Y2ijf0excMi3sJhgIPCGyMy59Nywdd0r26K3zcSHvDf6Ic5DieEVQjoJFh4eBFDM8bdt_qPkwxpSory_QMr0xZjkFVSOIATNsByCd5RisVr5Bi7zB7Jpj4VzehDcgLpHQDhPtumKwP0thH7heeD96FZgBNDHePHnHB_v5_Ok-cLtDBSLjATIyq_QiVOE1Ww3dQCHf6DZRutfq6mOjRSndD2dKlcuvlZlREu0jaQVyItwcnkVhKstPDi-RbxoVFrA2gWryHMTEFjWBsy1]--></g></svg>