<?xml version="1.0" encoding="us-ascii" standalone="no"?><svg xmlns="http://www.w3.org/2000/svg" xmlns:xlink="http://www.w3.org/1999/xlink" contentStyleType="text/css" height="1086px" preserveAspectRatio="none" style="width:1643px;height:1086px;background:#FFFFFF;" version="1.1" viewBox="0 0 1643 1086" width="1643px" zoomAndPan="magnify"><defs/><g><text fill="#000000" font-family="sans-serif" font-size="14" font-weight="bold" lengthAdjust="spacing" textLength="360" x="640.25" y="33.0059">UC_GestionarCanchasCRUDAdmin: Activity Diagram</text><ellipse cx="816.5" cy="57.7999" fill="#222222" rx="10" ry="10" style="stroke:#222222;stroke-width:1.0;"/><rect fill="#F1F1F1" height="34.4001" rx="12.5" ry="12.5" style="stroke:#181818;stroke-width:0.5;" width="223" x="705" y="87.7999"/><text fill="#000000" font-family="sans-serif" font-size="12" lengthAdjust="spacing" textLength="203" x="715" y="108.948">Admin navega a Gesti&#243;n de Canchas</text><rect fill="#F1F1F1" height="34.4001" rx="12.5" ry="12.5" style="stroke:#181818;stroke-width:0.5;" width="260" x="686.5" y="142.2"/><text fill="#000000" font-family="sans-serif" font-size="12" lengthAdjust="spacing" textLength="240" x="696.5" y="163.3481">Sistema muestra lista de canchas existentes</text><polygon fill="#F1F1F1" points="162,196.6001,304,196.6001,316,208.6001,304,220.6001,162,220.6001,150,208.6001,162,196.6001" style="stroke:#181818;stroke-width:0.5;"/><text fill="#000000" font-family="sans-serif" font-size="11" lengthAdjust="spacing" textLength="142" x="162" y="212.2191">&#191;Qu&#233; desea hacer el Admin?</text><rect fill="#F1F1F1" height="34.4001" rx="12.5" ry="12.5" style="stroke:#181818;stroke-width:0.5;" width="114" x="176" y="240.6001"/><text fill="#000000" font-family="sans-serif" font-size="12" lengthAdjust="spacing" textLength="94" x="186" y="261.7482">-&gt;[Crear Cancha]</text><rect fill="#F1F1F1" height="34.4001" rx="12.5" ry="12.5" style="stroke:#181818;stroke-width:0.5;" width="255" x="105.5" y="310.0002"/><text fill="#000000" font-family="sans-serif" font-size="12" lengthAdjust="spacing" textLength="235" x="115.5" y="331.1483">Admin hace clic en "A&#241;adir Nueva Cancha"</text><rect fill="#F1F1F1" height="34.4001" rx="12.5" ry="12.5" style="stroke:#181818;stroke-width:0.5;" width="306" x="80" y="379.4003"/><text fill="#000000" font-family="sans-serif" font-size="12" lengthAdjust="spacing" textLength="286" x="90" y="400.5484">Sistema muestra Formulario de Creaci&#243;n de Cancha</text><rect fill="#F1F1F1" height="34.4001" rx="12.5" ry="12.5" style="stroke:#181818;stroke-width:0.5;" width="217" x="124.5" y="448.8004"/><text fill="#000000" font-family="sans-serif" font-size="12" lengthAdjust="spacing" textLength="197" x="134.5" y="469.9485">Admin ingresa nombre de la cancha</text><rect fill="#F1F1F1" height="34.4001" rx="12.5" ry="12.5" style="stroke:#181818;stroke-width:0.5;" width="146" x="160" y="518.2005"/><text fill="#000000" font-family="sans-serif" font-size="12" lengthAdjust="spacing" textLength="126" x="170" y="539.3486">Admin env&#237;a formulario</text><rect fill="#F1F1F1" height="34.4001" rx="12.5" ry="12.5" style="stroke:#181818;stroke-width:0.5;" width="276" x="95" y="587.6006"/><text fill="#000000" font-family="sans-serif" font-size="12" lengthAdjust="spacing" textLength="256" x="105" y="608.7487">Validar datos (frontend - Zod: nombre no vac&#237;o)</text><polygon fill="#F1F1F1" points="193,657.0007,273,657.0007,285,669.0007,273,681.0007,193,681.0007,181,669.0007,193,657.0007" style="stroke:#181818;stroke-width:0.5;"/><text fill="#000000" font-family="sans-serif" font-size="11" lengthAdjust="spacing" textLength="80" x="193" y="672.6197">Datos inv&#225;lidos?</text><text fill="#000000" font-family="sans-serif" font-size="11" lengthAdjust="spacing" textLength="9" x="172" y="666.0198">s&#237;</text><text fill="#000000" font-family="sans-serif" font-size="11" lengthAdjust="spacing" textLength="12" x="285" y="666.0198">no</text><rect fill="#F1F1F1" height="34.4001" rx="12.5" ry="12.5" style="stroke:#181818;stroke-width:0.5;" width="165" x="11" y="691.0007"/><text fill="#000000" font-family="sans-serif" font-size="12" lengthAdjust="spacing" textLength="145" x="21" y="712.1488">Mostrar error en formulario</text><rect fill="#F1F1F1" height="34.4001" rx="12.5" ry="12.5" style="stroke:#181818;stroke-width:0.5;" width="318" x="213.5" y="691.0007"/><text fill="#000000" font-family="sans-serif" font-size="12" lengthAdjust="spacing" textLength="298" x="223.5" y="712.1488">Sistema env&#237;a datos al Backend API para crear cancha</text><polygon fill="#F1F1F1" points="328,760.4008,417,760.4008,429,772.4008,417,784.4008,328,784.4008,316,772.4008,328,760.4008" style="stroke:#181818;stroke-width:0.5;"/><text fill="#000000" font-family="sans-serif" font-size="11" lengthAdjust="spacing" textLength="89" x="328" y="776.0198">Creaci&#243;n Exitosa?</text><text fill="#000000" font-family="sans-serif" font-size="11" lengthAdjust="spacing" textLength="9" x="307" y="769.4199">s&#237;</text><text fill="#000000" font-family="sans-serif" font-size="11" lengthAdjust="spacing" textLength="12" x="429" y="769.4199">no</text><rect fill="#F1F1F1" height="34.4001" rx="12.5" ry="12.5" style="stroke:#181818;stroke-width:0.5;" width="131" x="223" y="794.4008"/><text fill="#000000" font-family="sans-serif" font-size="12" lengthAdjust="spacing" textLength="111" x="233" y="815.5489">Mostrar &#233;xito (Toast)</text><rect fill="#F1F1F1" height="34.4001" rx="12.5" ry="12.5" style="stroke:#181818;stroke-width:0.5;" width="165" x="206" y="849.8009"/><text fill="#000000" font-family="sans-serif" font-size="12" lengthAdjust="spacing" textLength="145" x="216" y="870.949">Actualizar lista de canchas</text><rect fill="#F1F1F1" height="34.4001" rx="12.5" ry="12.5" style="stroke:#181818;stroke-width:0.5;" width="99" x="239" y="919.201"/><text fill="#000000" font-family="sans-serif" font-size="12" lengthAdjust="spacing" textLength="79" x="249" y="940.3491">Cerrar di&#225;logo</text><rect fill="#F1F1F1" height="34.4001" rx="12.5" ry="12.5" style="stroke:#181818;stroke-width:0.5;" width="131" x="391" y="794.4008"/><text fill="#000000" font-family="sans-serif" font-size="12" lengthAdjust="spacing" textLength="111" x="401" y="815.5489">Mostrar error (Toast)</text><polygon fill="#F1F1F1" points="372.5,959.6011,384.5,971.6011,372.5,983.6011,360.5,971.6011,372.5,959.6011" style="stroke:#181818;stroke-width:0.5;"/><polygon fill="#F1F1F1" points="233,989.6011,245,1001.6011,233,1013.6011,221,1001.6011,233,989.6011" style="stroke:#181818;stroke-width:0.5;"/><polygon fill="#F1F1F1" points="790.5,196.6001,869.5,196.6001,881.5,208.6001,869.5,220.6001,790.5,220.6001,778.5,208.6001,790.5,196.6001" style="stroke:#181818;stroke-width:0.5;"/><text fill="#000000" font-family="sans-serif" font-size="11" lengthAdjust="spacing" textLength="79" x="790.5" y="212.2191">Eliminar Cancha</text><text fill="#000000" font-family="sans-serif" font-size="11" lengthAdjust="spacing" textLength="124" x="881.5" y="205.6192">Ver Reservas de Cancha</text><rect fill="#F1F1F1" height="34.4001" rx="12.5" ry="12.5" style="stroke:#181818;stroke-width:0.5;" width="317" x="671.5" y="240.6001"/><text fill="#000000" font-family="sans-serif" font-size="12" lengthAdjust="spacing" textLength="297" x="681.5" y="261.7482">Admin selecciona una cancha y hace clic en "Eliminar"</text><rect fill="#F1F1F1" height="34.4001" rx="12.5" ry="12.5" style="stroke:#181818;stroke-width:0.5;" width="250" x="705" y="310.0002"/><text fill="#000000" font-family="sans-serif" font-size="12" lengthAdjust="spacing" textLength="230" x="715" y="331.1483">Sistema muestra Di&#225;logo de Confirmaci&#243;n</text><polygon fill="#F1F1F1" points="761.5,379.4003,898.5,379.4003,910.5,391.4003,898.5,403.4003,761.5,403.4003,749.5,391.4003,761.5,379.4003" style="stroke:#181818;stroke-width:0.5;"/><text fill="#000000" font-family="sans-serif" font-size="11" lengthAdjust="spacing" textLength="137" x="761.5" y="395.0193">Admin confirma eliminaci&#243;n?</text><text fill="#000000" font-family="sans-serif" font-size="11" lengthAdjust="spacing" textLength="9" x="740.5" y="388.4194">s&#237;</text><text fill="#000000" font-family="sans-serif" font-size="11" lengthAdjust="spacing" textLength="12" x="910.5" y="388.4194">no</text><rect fill="#F1F1F1" height="34.4001" rx="12.5" ry="12.5" style="stroke:#181818;stroke-width:0.5;" width="314" x="549.5" y="413.4003"/><text fill="#000000" font-family="sans-serif" font-size="12" lengthAdjust="spacing" textLength="294" x="559.5" y="434.5484">Sistema env&#237;a solicitud de eliminaci&#243;n al Backend API</text><polygon fill="#F1F1F1" points="657,482.8004,756,482.8004,768,494.8004,756,506.8004,657,506.8004,645,494.8004,657,482.8004" style="stroke:#181818;stroke-width:0.5;"/><text fill="#000000" font-family="sans-serif" font-size="11" lengthAdjust="spacing" textLength="99" x="657" y="498.4194">Eliminaci&#243;n Exitosa?</text><text fill="#000000" font-family="sans-serif" font-size="11" lengthAdjust="spacing" textLength="9" x="636" y="491.8195">s&#237;</text><text fill="#000000" font-family="sans-serif" font-size="11" lengthAdjust="spacing" textLength="12" x="768" y="491.8195">no</text><rect fill="#F1F1F1" height="34.4001" rx="12.5" ry="12.5" style="stroke:#181818;stroke-width:0.5;" width="131" x="557.5" y="516.8004"/><text fill="#000000" font-family="sans-serif" font-size="12" lengthAdjust="spacing" textLength="111" x="567.5" y="537.9485">Mostrar &#233;xito (Toast)</text><rect fill="#F1F1F1" height="34.4001" rx="12.5" ry="12.5" style="stroke:#181818;stroke-width:0.5;" width="163" x="541.5" y="586.2005"/><text fill="#000000" font-family="sans-serif" font-size="12" lengthAdjust="spacing" textLength="143" x="551.5" y="607.3486">Eliminar cancha de la lista</text><rect fill="#F1F1F1" height="34.4001" rx="12.5" ry="12.5" style="stroke:#181818;stroke-width:0.5;" width="131" x="724.5" y="516.8004"/><text fill="#000000" font-family="sans-serif" font-size="12" lengthAdjust="spacing" textLength="111" x="734.5" y="537.9485">Mostrar error (Toast)</text><polygon fill="#F1F1F1" points="706.5,626.6006,718.5,638.6006,706.5,650.6006,694.5,638.6006,706.5,626.6006" style="stroke:#181818;stroke-width:0.5;"/><rect fill="#F1F1F1" height="34.4001" rx="12.5" ry="12.5" style="stroke:#181818;stroke-width:0.5;" width="136" x="885.5" y="413.4003"/><text fill="#000000" font-family="sans-serif" font-size="12" lengthAdjust="spacing" textLength="116" x="895.5" y="434.5484">Cancelar eliminaci&#243;n</text><polygon fill="#F1F1F1" points="830,656.6006,842,668.6006,830,680.6006,818,668.6006,830,656.6006" style="stroke:#181818;stroke-width:0.5;"/><rect fill="#F1F1F1" height="34.4001" rx="12.5" ry="12.5" style="stroke:#181818;stroke-width:0.5;" width="346" x="1188.75" y="275.6001"/><text fill="#000000" font-family="sans-serif" font-size="12" lengthAdjust="spacing" textLength="326" x="1198.75" y="296.7482">Admin selecciona una cancha y hace clic en "Ver Reservas"</text><rect fill="#F1F1F1" height="34.4001" rx="12.5" ry="12.5" style="stroke:#181818;stroke-width:0.5;" width="323" x="1200.25" y="345.0002"/><text fill="#000000" font-family="sans-serif" font-size="12" lengthAdjust="spacing" textLength="303" x="1210.25" y="366.1483">Sistema muestra Di&#225;logo de Reservas para esa cancha</text><rect fill="#F1F1F1" height="34.4001" rx="12.5" ry="12.5" style="stroke:#181818;stroke-width:0.5;" width="368" x="1177.75" y="414.4003"/><text fill="#000000" font-family="sans-serif" font-size="12" lengthAdjust="spacing" textLength="348" x="1187.75" y="435.5484">Admin (opcionalmente) ingresa filtros de fecha/hora (LOCALES)</text><rect fill="#F1F1F1" height="34.4001" rx="12.5" ry="12.5" style="stroke:#181818;stroke-width:0.5;" width="300" x="1211.75" y="483.8004"/><text fill="#000000" font-family="sans-serif" font-size="12" lengthAdjust="spacing" textLength="280" x="1221.75" y="504.9485">Admin (opcionalmente) hace clic en "Aplicar Filtros"</text><rect fill="#F1F1F1" height="34.4001" rx="12.5" ry="12.5" style="stroke:#181818;stroke-width:0.5;" width="328" x="1197.75" y="553.2005"/><text fill="#000000" font-family="sans-serif" font-size="12" lengthAdjust="spacing" textLength="308" x="1207.75" y="574.3486">Convertir fechas/horas de filtro locales a UTC (si existen)</text><rect fill="#F1F1F1" height="34.4001" rx="12.5" ry="12.5" style="stroke:#181818;stroke-width:0.5;" width="487" x="1118.25" y="622.6006"/><text fill="#000000" font-family="sans-serif" font-size="12" lengthAdjust="spacing" textLength="467" x="1128.25" y="643.7487">Sistema solicita al Backend API las reservas de la cancha (con filtros UTC opcionales)</text><polygon fill="#F1F1F1" points="1274.75,692.0007,1448.75,692.0007,1460.75,704.0007,1448.75,716.0007,1274.75,716.0007,1262.75,704.0007,1274.75,692.0007" style="stroke:#181818;stroke-width:0.5;"/><text fill="#000000" font-family="sans-serif" font-size="11" lengthAdjust="spacing" textLength="174" x="1274.75" y="707.6197">Reservas Cargadas Exitosamente?</text><text fill="#000000" font-family="sans-serif" font-size="11" lengthAdjust="spacing" textLength="9" x="1253.75" y="701.0198">s&#237;</text><text fill="#000000" font-family="sans-serif" font-size="11" lengthAdjust="spacing" textLength="92" x="1460.75" y="701.0198">no - error al cargar</text><rect fill="#F1F1F1" height="34.4001" rx="12.5" ry="12.5" style="stroke:#181818;stroke-width:0.5;" width="322" x="1045.5" y="726.0007"/><text fill="#000000" font-family="sans-serif" font-size="12" lengthAdjust="spacing" textLength="302" x="1055.5" y="747.1488">Backend API retorna lista de reservas (con fechas UTC)</text><rect fill="#F1F1F1" height="34.4001" rx="12.5" ry="12.5" style="stroke:#181818;stroke-width:0.5;" width="275" x="1069" y="795.4008"/><text fill="#000000" font-family="sans-serif" font-size="12" lengthAdjust="spacing" textLength="255" x="1079" y="816.5489">Convertir fechas UTC de las reservas a locales</text><rect fill="#F1F1F1" height="34.4001" rx="12.5" ry="12.5" style="stroke:#181818;stroke-width:0.5;" width="350" x="1031.5" y="850.8009"/><text fill="#000000" font-family="sans-serif" font-size="12" lengthAdjust="spacing" textLength="330" x="1041.5" y="871.949">Sistema muestra la tabla de reservas (con fechas LOCALES)</text><rect fill="#F1F1F1" height="34.4001" rx="12.5" ry="12.5" style="stroke:#181818;stroke-width:0.5;" width="231" x="1401.5" y="726.0007"/><text fill="#000000" font-family="sans-serif" font-size="12" lengthAdjust="spacing" textLength="211" x="1411.5" y="747.1488">Mostrar mensaje de error en el di&#225;logo</text><polygon fill="#F1F1F1" points="1361.75,891.201,1373.75,903.201,1361.75,915.201,1349.75,903.201,1361.75,891.201" style="stroke:#181818;stroke-width:0.5;"/><rect fill="#F1F1F1" height="34.4001" rx="12.5" ry="12.5" style="stroke:#181818;stroke-width:0.5;" width="200" x="1261.75" y="950.201"/><text fill="#000000" font-family="sans-serif" font-size="12" lengthAdjust="spacing" textLength="180" x="1271.75" y="971.3491">Admin cierra di&#225;logo de reservas</text><ellipse cx="816.5" cy="1064.6011" fill="none" rx="11" ry="11" style="stroke:#222222;stroke-width:1.0;"/><ellipse cx="816.5" cy="1064.6011" fill="#222222" rx="6" ry="6" style="stroke:#222222;stroke-width:1.0;"/><line style="stroke:#181818;stroke-width:1.0;" x1="816.5" x2="816.5" y1="67.7999" y2="87.7999"/><polygon fill="#181818" points="812.5,77.7999,816.5,87.7999,820.5,77.7999,816.5,81.7999" style="stroke:#181818;stroke-width:1.0;"/><line style="stroke:#181818;stroke-width:1.0;" x1="816.5" x2="816.5" y1="122.2" y2="142.2"/><polygon fill="#181818" points="812.5,132.2,816.5,142.2,820.5,132.2,816.5,136.2" style="stroke:#181818;stroke-width:1.0;"/><line style="stroke:#181818;stroke-width:1.0;" x1="233" x2="233" y1="275.0002" y2="310.0002"/><polygon fill="#181818" points="229,300.0002,233,310.0002,237,300.0002,233,304.0002" style="stroke:#181818;stroke-width:1.0;"/><line style="stroke:#181818;stroke-width:1.0;" x1="233" x2="233" y1="344.4003" y2="379.4003"/><polygon fill="#181818" points="229,369.4003,233,379.4003,237,369.4003,233,373.4003" style="stroke:#181818;stroke-width:1.0;"/><line style="stroke:#181818;stroke-width:1.0;" x1="233" x2="233" y1="413.8004" y2="448.8004"/><polygon fill="#181818" points="229,438.8004,233,448.8004,237,438.8004,233,442.8004" style="stroke:#181818;stroke-width:1.0;"/><line style="stroke:#181818;stroke-width:1.0;" x1="233" x2="233" y1="483.2005" y2="518.2005"/><polygon fill="#181818" points="229,508.2005,233,518.2005,237,508.2005,233,512.2005" style="stroke:#181818;stroke-width:1.0;"/><line style="stroke:#181818;stroke-width:1.0;" x1="233" x2="233" y1="552.6006" y2="587.6006"/><polygon fill="#181818" points="229,577.6006,233,587.6006,237,577.6006,233,581.6006" style="stroke:#181818;stroke-width:1.0;"/><line style="stroke:#181818;stroke-width:1.0;" x1="288.5" x2="288.5" y1="828.8009" y2="849.8009"/><polygon fill="#181818" points="284.5,839.8009,288.5,849.8009,292.5,839.8009,288.5,843.8009" style="stroke:#181818;stroke-width:1.0;"/><line style="stroke:#181818;stroke-width:1.0;" x1="288.5" x2="288.5" y1="884.201" y2="919.201"/><polygon fill="#181818" points="284.5,909.201,288.5,919.201,292.5,909.201,288.5,913.201" style="stroke:#181818;stroke-width:1.0;"/><line style="stroke:#181818;stroke-width:1.0;" x1="316" x2="288.5" y1="772.4008" y2="772.4008"/><line style="stroke:#181818;stroke-width:1.0;" x1="288.5" x2="288.5" y1="772.4008" y2="794.4008"/><polygon fill="#181818" points="284.5,784.4008,288.5,794.4008,292.5,784.4008,288.5,788.4008" style="stroke:#181818;stroke-width:1.0;"/><line style="stroke:#181818;stroke-width:1.0;" x1="429" x2="456.5" y1="772.4008" y2="772.4008"/><line style="stroke:#181818;stroke-width:1.0;" x1="456.5" x2="456.5" y1="772.4008" y2="794.4008"/><polygon fill="#181818" points="452.5,784.4008,456.5,794.4008,460.5,784.4008,456.5,788.4008" style="stroke:#181818;stroke-width:1.0;"/><line style="stroke:#181818;stroke-width:1.0;" x1="288.5" x2="288.5" y1="953.6011" y2="971.6011"/><line style="stroke:#181818;stroke-width:1.0;" x1="288.5" x2="360.5" y1="971.6011" y2="971.6011"/><polygon fill="#181818" points="350.5,967.6011,360.5,971.6011,350.5,975.6011,354.5,971.6011" style="stroke:#181818;stroke-width:1.0;"/><line style="stroke:#181818;stroke-width:1.0;" x1="456.5" x2="456.5" y1="828.8009" y2="971.6011"/><line style="stroke:#181818;stroke-width:1.0;" x1="456.5" x2="384.5" y1="971.6011" y2="971.6011"/><polygon fill="#181818" points="394.5,967.6011,384.5,971.6011,394.5,975.6011,390.5,971.6011" style="stroke:#181818;stroke-width:1.0;"/><line style="stroke:#181818;stroke-width:1.0;" x1="372.5" x2="372.5" y1="725.4008" y2="760.4008"/><polygon fill="#181818" points="368.5,750.4008,372.5,760.4008,376.5,750.4008,372.5,754.4008" style="stroke:#181818;stroke-width:1.0;"/><line style="stroke:#181818;stroke-width:1.0;" x1="181" x2="93.5" y1="669.0007" y2="669.0007"/><line style="stroke:#181818;stroke-width:1.0;" x1="93.5" x2="93.5" y1="669.0007" y2="691.0007"/><polygon fill="#181818" points="89.5,681.0007,93.5,691.0007,97.5,681.0007,93.5,685.0007" style="stroke:#181818;stroke-width:1.0;"/><line style="stroke:#181818;stroke-width:1.0;" x1="285" x2="372.5" y1="669.0007" y2="669.0007"/><line style="stroke:#181818;stroke-width:1.0;" x1="372.5" x2="372.5" y1="669.0007" y2="691.0007"/><polygon fill="#181818" points="368.5,681.0007,372.5,691.0007,376.5,681.0007,372.5,685.0007" style="stroke:#181818;stroke-width:1.0;"/><line style="stroke:#181818;stroke-width:1.0;" x1="93.5" x2="93.5" y1="725.4008" y2="1001.6011"/><line style="stroke:#181818;stroke-width:1.0;" x1="93.5" x2="221" y1="1001.6011" y2="1001.6011"/><polygon fill="#181818" points="211,997.6011,221,1001.6011,211,1005.6011,215,1001.6011" style="stroke:#181818;stroke-width:1.0;"/><line style="stroke:#181818;stroke-width:1.0;" x1="372.5" x2="372.5" y1="983.6011" y2="1001.6011"/><line style="stroke:#181818;stroke-width:1.0;" x1="372.5" x2="245" y1="1001.6011" y2="1001.6011"/><polygon fill="#181818" points="255,997.6011,245,1001.6011,255,1005.6011,251,1001.6011" style="stroke:#181818;stroke-width:1.0;"/><line style="stroke:#181818;stroke-width:1.0;" x1="233" x2="233" y1="622.0007" y2="657.0007"/><polygon fill="#181818" points="229,647.0007,233,657.0007,237,647.0007,233,651.0007" style="stroke:#181818;stroke-width:1.0;"/><line style="stroke:#181818;stroke-width:1.0;" x1="830" x2="830" y1="275.0002" y2="310.0002"/><polygon fill="#181818" points="826,300.0002,830,310.0002,834,300.0002,830,304.0002" style="stroke:#181818;stroke-width:1.0;"/><line style="stroke:#181818;stroke-width:1.0;" x1="623" x2="623" y1="551.2005" y2="586.2005"/><polygon fill="#181818" points="619,576.2005,623,586.2005,627,576.2005,623,580.2005" style="stroke:#181818;stroke-width:1.0;"/><line style="stroke:#181818;stroke-width:1.0;" x1="645" x2="623" y1="494.8004" y2="494.8004"/><line style="stroke:#181818;stroke-width:1.0;" x1="623" x2="623" y1="494.8004" y2="516.8004"/><polygon fill="#181818" points="619,506.8004,623,516.8004,627,506.8004,623,510.8004" style="stroke:#181818;stroke-width:1.0;"/><line style="stroke:#181818;stroke-width:1.0;" x1="768" x2="790" y1="494.8004" y2="494.8004"/><line style="stroke:#181818;stroke-width:1.0;" x1="790" x2="790" y1="494.8004" y2="516.8004"/><polygon fill="#181818" points="786,506.8004,790,516.8004,794,506.8004,790,510.8004" style="stroke:#181818;stroke-width:1.0;"/><line style="stroke:#181818;stroke-width:1.0;" x1="623" x2="623" y1="620.6006" y2="638.6006"/><line style="stroke:#181818;stroke-width:1.0;" x1="623" x2="694.5" y1="638.6006" y2="638.6006"/><polygon fill="#181818" points="684.5,634.6006,694.5,638.6006,684.5,642.6006,688.5,638.6006" style="stroke:#181818;stroke-width:1.0;"/><line style="stroke:#181818;stroke-width:1.0;" x1="790" x2="790" y1="551.2005" y2="638.6006"/><line style="stroke:#181818;stroke-width:1.0;" x1="790" x2="718.5" y1="638.6006" y2="638.6006"/><polygon fill="#181818" points="728.5,634.6006,718.5,638.6006,728.5,642.6006,724.5,638.6006" style="stroke:#181818;stroke-width:1.0;"/><line style="stroke:#181818;stroke-width:1.0;" x1="706.5" x2="706.5" y1="447.8004" y2="482.8004"/><polygon fill="#181818" points="702.5,472.8004,706.5,482.8004,710.5,472.8004,706.5,476.8004" style="stroke:#181818;stroke-width:1.0;"/><line style="stroke:#181818;stroke-width:1.0;" x1="749.5" x2="706.5" y1="391.4003" y2="391.4003"/><line style="stroke:#181818;stroke-width:1.0;" x1="706.5" x2="706.5" y1="391.4003" y2="413.4003"/><polygon fill="#181818" points="702.5,403.4003,706.5,413.4003,710.5,403.4003,706.5,407.4003" style="stroke:#181818;stroke-width:1.0;"/><line style="stroke:#181818;stroke-width:1.0;" x1="910.5" x2="953.5" y1="391.4003" y2="391.4003"/><line style="stroke:#181818;stroke-width:1.0;" x1="953.5" x2="953.5" y1="391.4003" y2="413.4003"/><polygon fill="#181818" points="949.5,403.4003,953.5,413.4003,957.5,403.4003,953.5,407.4003" style="stroke:#181818;stroke-width:1.0;"/><line style="stroke:#181818;stroke-width:1.0;" x1="706.5" x2="706.5" y1="650.6006" y2="668.6006"/><line style="stroke:#181818;stroke-width:1.0;" x1="706.5" x2="818" y1="668.6006" y2="668.6006"/><polygon fill="#181818" points="808,664.6006,818,668.6006,808,672.6006,812,668.6006" style="stroke:#181818;stroke-width:1.0;"/><line style="stroke:#181818;stroke-width:1.0;" x1="953.5" x2="953.5" y1="447.8004" y2="668.6006"/><line style="stroke:#181818;stroke-width:1.0;" x1="953.5" x2="842" y1="668.6006" y2="668.6006"/><polygon fill="#181818" points="852,664.6006,842,668.6006,852,672.6006,848,668.6006" style="stroke:#181818;stroke-width:1.0;"/><line style="stroke:#181818;stroke-width:1.0;" x1="830" x2="830" y1="344.4003" y2="379.4003"/><polygon fill="#181818" points="826,369.4003,830,379.4003,834,369.4003,830,373.4003" style="stroke:#181818;stroke-width:1.0;"/><line style="stroke:#181818;stroke-width:1.0;" x1="1361.75" x2="1361.75" y1="310.0002" y2="345.0002"/><polygon fill="#181818" points="1357.75,335.0002,1361.75,345.0002,1365.75,335.0002,1361.75,339.0002" style="stroke:#181818;stroke-width:1.0;"/><line style="stroke:#181818;stroke-width:1.0;" x1="1361.75" x2="1361.75" y1="379.4003" y2="414.4003"/><polygon fill="#181818" points="1357.75,404.4003,1361.75,414.4003,1365.75,404.4003,1361.75,408.4003" style="stroke:#181818;stroke-width:1.0;"/><line style="stroke:#181818;stroke-width:1.0;" x1="1361.75" x2="1361.75" y1="448.8004" y2="483.8004"/><polygon fill="#181818" points="1357.75,473.8004,1361.75,483.8004,1365.75,473.8004,1361.75,477.8004" style="stroke:#181818;stroke-width:1.0;"/><line style="stroke:#181818;stroke-width:1.0;" x1="1361.75" x2="1361.75" y1="518.2005" y2="553.2005"/><polygon fill="#181818" points="1357.75,543.2005,1361.75,553.2005,1365.75,543.2005,1361.75,547.2005" style="stroke:#181818;stroke-width:1.0;"/><line style="stroke:#181818;stroke-width:1.0;" x1="1361.75" x2="1361.75" y1="587.6006" y2="622.6006"/><polygon fill="#181818" points="1357.75,612.6006,1361.75,622.6006,1365.75,612.6006,1361.75,616.6006" style="stroke:#181818;stroke-width:1.0;"/><line style="stroke:#181818;stroke-width:1.0;" x1="1206.5" x2="1206.5" y1="760.4008" y2="795.4008"/><polygon fill="#181818" points="1202.5,785.4008,1206.5,795.4008,1210.5,785.4008,1206.5,789.4008" style="stroke:#181818;stroke-width:1.0;"/><line style="stroke:#181818;stroke-width:1.0;" x1="1206.5" x2="1206.5" y1="829.8009" y2="850.8009"/><polygon fill="#181818" points="1202.5,840.8009,1206.5,850.8009,1210.5,840.8009,1206.5,844.8009" style="stroke:#181818;stroke-width:1.0;"/><line style="stroke:#181818;stroke-width:1.0;" x1="1262.75" x2="1206.5" y1="704.0007" y2="704.0007"/><line style="stroke:#181818;stroke-width:1.0;" x1="1206.5" x2="1206.5" y1="704.0007" y2="726.0007"/><polygon fill="#181818" points="1202.5,716.0007,1206.5,726.0007,1210.5,716.0007,1206.5,720.0007" style="stroke:#181818;stroke-width:1.0;"/><line style="stroke:#181818;stroke-width:1.0;" x1="1460.75" x2="1517" y1="704.0007" y2="704.0007"/><line style="stroke:#181818;stroke-width:1.0;" x1="1517" x2="1517" y1="704.0007" y2="726.0007"/><polygon fill="#181818" points="1513,716.0007,1517,726.0007,1521,716.0007,1517,720.0007" style="stroke:#181818;stroke-width:1.0;"/><line style="stroke:#181818;stroke-width:1.0;" x1="1206.5" x2="1206.5" y1="885.201" y2="903.201"/><line style="stroke:#181818;stroke-width:1.0;" x1="1206.5" x2="1349.75" y1="903.201" y2="903.201"/><polygon fill="#181818" points="1339.75,899.201,1349.75,903.201,1339.75,907.201,1343.75,903.201" style="stroke:#181818;stroke-width:1.0;"/><line style="stroke:#181818;stroke-width:1.0;" x1="1517" x2="1517" y1="760.4008" y2="903.201"/><line style="stroke:#181818;stroke-width:1.0;" x1="1517" x2="1373.75" y1="903.201" y2="903.201"/><polygon fill="#181818" points="1383.75,899.201,1373.75,903.201,1383.75,907.201,1379.75,903.201" style="stroke:#181818;stroke-width:1.0;"/><line style="stroke:#181818;stroke-width:1.0;" x1="1361.75" x2="1361.75" y1="657.0007" y2="692.0007"/><polygon fill="#181818" points="1357.75,682.0007,1361.75,692.0007,1365.75,682.0007,1361.75,686.0007" style="stroke:#181818;stroke-width:1.0;"/><line style="stroke:#181818;stroke-width:1.0;" x1="1361.75" x2="1361.75" y1="915.201" y2="950.201"/><polygon fill="#181818" points="1357.75,940.201,1361.75,950.201,1365.75,940.201,1361.75,944.201" style="stroke:#181818;stroke-width:1.0;"/><line style="stroke:#181818;stroke-width:1.0;" x1="233" x2="233" y1="220.6001" y2="240.6001"/><polygon fill="#181818" points="229,230.6001,233,240.6001,237,230.6001,233,234.6001" style="stroke:#181818;stroke-width:1.0;"/><line style="stroke:#181818;stroke-width:1.0;" x1="233" x2="233" y1="1013.6011" y2="1033.6011"/><polygon fill="#181818" points="229,1023.6011,233,1033.6011,237,1023.6011,233,1027.6011" style="stroke:#181818;stroke-width:1.0;"/><line style="stroke:#181818;stroke-width:1.0;" x1="830" x2="830" y1="220.6001" y2="240.6001"/><polygon fill="#181818" points="826,230.6001,830,240.6001,834,230.6001,830,234.6001" style="stroke:#181818;stroke-width:1.0;"/><line style="stroke:#181818;stroke-width:1.0;" x1="830" x2="830" y1="680.6006" y2="1033.6011"/><polygon fill="#181818" points="826,1023.6011,830,1033.6011,834,1023.6011,830,1027.6011" style="stroke:#181818;stroke-width:1.0;"/><line style="stroke:#181818;stroke-width:1.0;" x1="316" x2="778.5" y1="208.6001" y2="208.6001"/><polygon fill="#181818" points="768.5,204.6001,778.5,208.6001,768.5,212.6001,772.5,208.6001" style="stroke:#181818;stroke-width:1.0;"/><line style="stroke:#181818;stroke-width:1.0;" x1="816.5" x2="816.5" y1="176.6001" y2="181.6001"/><line style="stroke:#181818;stroke-width:1.0;" x1="816.5" x2="233" y1="181.6001" y2="181.6001"/><line style="stroke:#181818;stroke-width:1.0;" x1="233" x2="233" y1="181.6001" y2="196.6001"/><polygon fill="#181818" points="229,186.6001,233,196.6001,237,186.6001,233,190.6001" style="stroke:#181818;stroke-width:1.0;"/><line style="stroke:#181818;stroke-width:1.0;" x1="881.5" x2="1361.75" y1="208.6001" y2="208.6001"/><line style="stroke:#181818;stroke-width:1.0;" x1="1361.75" x2="1361.75" y1="208.6001" y2="275.6001"/><polygon fill="#181818" points="1357.75,265.6001,1361.75,275.6001,1365.75,265.6001,1361.75,269.6001" style="stroke:#181818;stroke-width:1.0;"/><line style="stroke:#181818;stroke-width:1.0;" x1="1361.75" x2="1361.75" y1="984.6011" y2="1033.6011"/><polygon fill="#181818" points="1357.75,1023.6011,1361.75,1033.6011,1365.75,1023.6011,1361.75,1027.6011" style="stroke:#181818;stroke-width:1.0;"/><line style="stroke:#181818;stroke-width:1.0;" x1="233" x2="1361.75" y1="1033.6011" y2="1033.6011"/><line style="stroke:#181818;stroke-width:1.0;" x1="816.5" x2="816.5" y1="1033.6011" y2="1053.6011"/><polygon fill="#181818" points="812.5,1043.6011,816.5,1053.6011,820.5,1043.6011,816.5,1047.6011" style="stroke:#181818;stroke-width:1.0;"/><!--SRC=[hLLDRnCn4BtlhnZrj7kek2SIA6nIXCHdlmuWXAPU9p5uxSXsefP_mx677X0_08dyCSPUh-DiKmI2soP-dfdtPkRP2ISvNDGVdt7hX5PeQbHiYRO-lPXEcbQe4KoO4nlXRc0gS66mBGhhqBXY5Cv1uOOl4112YErt1Gs766LSZCw4TRn5QDTqR10a_KOFOHq4-BL7ACS9NOWvb3z_l5rlRmbYES8I6JV09OHaJofmIwuAWEFZn-zhmz74L1_eFu1Oahy4J0e6NC7HPFiD6s7WrPflCCAFnXr-MDs9DkrQeX4wiA04R9_IECyZrC9mYw1qUsMu1qcClFPmN6ssTmZp53oUNg8K3L5eq6aBvTneaa4rS0plT3FgmoeD6sJRErrrrxn6qt13KDol54BRA0oKTdjN1HI5Vwaz9rBF66sy5CC2kBGSIgNJZLwEM71N5qfuYkopBspovZcia7HYGVgSQbVNJh7PjQ3BUAYmhBJjhOT1UQxHkcgy0z3GhKcTBuGPJao6gecQrq-G37gX-vCXhtjQ3F8HDJ4lTb-53-3fpAIW_gKXIzENEckvv8pvnO6rwdiFDuC9xCCyD7NJM7yOCwtcmhITYhk6T-bOF2I68M807Upze9DMKot2hHkV8hyyw6xUoraE-yTs9Y6ZGjsgXCx-XwODnzXtYqj_CQCm7ZOOoakobbEo6RCX7qehNlrzW_D0VzBab3GiaxUG0wvHwbL8B5llZbLocxcGpkXGy9pJfKTBJK7A5w_hoOlPMVNR60DdND4NoNJIHUmhfn7SSEF8CaDy6n9q-G8Gf6OeEJa3N9pND0kYD_5gm3sE7GuzH58uamcVR1DA6l74q4Vl2N2RsL_IhqQpm8O-udm6cWSN8azlkDD6PMzHggLB7rZxx6dOxcaIQWkLPqomLsOyNCFq-Y4ul98F9ztlOZ_Pz29qEq0wCa_Pt3DvOcxnKtY4aj_JixblZRkTYVF1X7VGXChBejSuBejrUlKB]--></g></svg>