<?xml version="1.0" encoding="us-ascii" standalone="no"?><svg xmlns="http://www.w3.org/2000/svg" xmlns:xlink="http://www.w3.org/1999/xlink" contentStyleType="text/css" height="698px" preserveAspectRatio="none" style="width:960px;height:698px;background:#FFFFFF;" version="1.1" viewBox="0 0 960 698" width="960px" zoomAndPan="magnify"><defs/><g><text fill="#000000" font-family="sans-serif" font-size="14" font-weight="bold" lengthAdjust="spacing" textLength="360" x="298.5" y="33.0059">UC_GestionarRolesUsuariosAdmin: Activity Diagram</text><ellipse cx="624.125" cy="57.7999" fill="#222222" rx="10" ry="10" style="stroke:#222222;stroke-width:1.0;"/><rect fill="#F1F1F1" height="34.4001" rx="12.5" ry="12.5" style="stroke:#181818;stroke-width:0.5;" width="269" x="489.625" y="87.7999"/><text fill="#000000" font-family="sans-serif" font-size="12" lengthAdjust="spacing" textLength="249" x="499.625" y="108.948">Admin navega a Gesti&#243;n de Roles de Usuario</text><rect fill="#F1F1F1" height="34.4001" rx="12.5" ry="12.5" style="stroke:#181818;stroke-width:0.5;" width="553" x="347.625" y="142.2"/><text fill="#000000" font-family="sans-serif" font-size="12" lengthAdjust="spacing" textLength="533" x="357.625" y="163.3481">Sistema carga y muestra lista de todos los usuarios, cada uno con su rol actual y un selector de rol</text><rect fill="#F1F1F1" height="34.4001" rx="12.5" ry="12.5" style="stroke:#181818;stroke-width:0.5;" width="238" x="505.125" y="196.6001"/><text fill="#000000" font-family="sans-serif" font-size="12" lengthAdjust="spacing" textLength="218" x="515.125" y="217.7482">Admin selecciona un Usuario espec&#237;fico</text><rect fill="#F1F1F1" height="34.4001" rx="12.5" ry="12.5" style="stroke:#181818;stroke-width:0.5;" width="398" x="425.125" y="251.0002"/><text fill="#000000" font-family="sans-serif" font-size="12" lengthAdjust="spacing" textLength="378" x="435.125" y="272.1483">Admin selecciona un Nuevo Rol para ese usuario desde el dropdown</text><polygon fill="#F1F1F1" points="534.125,305.4003,714.125,305.4003,726.125,317.4003,714.125,329.4003,534.125,329.4003,522.125,317.4003,534.125,305.4003" style="stroke:#181818;stroke-width:0.5;"/><text fill="#000000" font-family="sans-serif" font-size="11" lengthAdjust="spacing" textLength="180" x="534.125" y="321.0193">Nuevo Rol es diferente al Rol Actual?</text><text fill="#000000" font-family="sans-serif" font-size="11" lengthAdjust="spacing" textLength="9" x="513.125" y="314.4194">s&#237;</text><text fill="#000000" font-family="sans-serif" font-size="11" lengthAdjust="spacing" textLength="12" x="726.125" y="314.4194">no</text><rect fill="#F1F1F1" height="48.8002" rx="12.5" ry="12.5" style="stroke:#181818;stroke-width:0.5;" width="357" x="210.25" y="339.4003"/><text fill="#000000" font-family="sans-serif" font-size="12" lengthAdjust="spacing" textLength="337" x="220.25" y="360.5484">Sistema env&#237;a solicitud de actualizaci&#243;n de rol al Backend API</text><text fill="#000000" font-family="sans-serif" font-size="12" lengthAdjust="spacing" textLength="130" x="220.25" y="374.9485">(ID Usuario, Nuevo Rol)</text><polygon fill="#F1F1F1" points="303.75,408.2005,473.75,408.2005,485.75,420.2005,473.75,432.2005,303.75,432.2005,291.75,420.2005,303.75,408.2005" style="stroke:#181818;stroke-width:0.5;"/><text fill="#000000" font-family="sans-serif" font-size="11" lengthAdjust="spacing" textLength="170" x="303.75" y="423.8195">Actualizaci&#243;n Exitosa en Backend?</text><text fill="#000000" font-family="sans-serif" font-size="11" lengthAdjust="spacing" textLength="9" x="282.75" y="417.2196">s&#237;</text><text fill="#000000" font-family="sans-serif" font-size="11" lengthAdjust="spacing" textLength="106" x="485.75" y="417.2196">no - error en backend</text><rect fill="#F1F1F1" height="34.4001" rx="12.5" ry="12.5" style="stroke:#181818;stroke-width:0.5;" width="236" x="83.5" y="442.2005"/><text fill="#000000" font-family="sans-serif" font-size="12" lengthAdjust="spacing" textLength="216" x="93.5" y="463.3486">Backend API actualiza el rol del usuario</text><rect fill="#F1F1F1" height="34.4001" rx="12.5" ry="12.5" style="stroke:#181818;stroke-width:0.5;" width="198" x="102.5" y="496.6006"/><text fill="#000000" font-family="sans-serif" font-size="12" lengthAdjust="spacing" textLength="178" x="112.5" y="517.7487">Mostrar mensaje de &#233;xito (Toast)</text><rect fill="#F1F1F1" height="34.4001" rx="12.5" ry="12.5" style="stroke:#181818;stroke-width:0.5;" width="381" x="11" y="551.0007"/><text fill="#000000" font-family="sans-serif" font-size="12" lengthAdjust="spacing" textLength="361" x="21" y="572.1488">Actualizar UI para reflejar el nuevo rol del usuario en la lista/tarjeta</text><rect fill="#F1F1F1" height="34.4001" rx="12.5" ry="12.5" style="stroke:#181818;stroke-width:0.5;" width="161" x="495.5" y="442.2005"/><text fill="#000000" font-family="sans-serif" font-size="12" lengthAdjust="spacing" textLength="141" x="505.5" y="463.3486">Backend API retorna error</text><rect fill="#F1F1F1" height="34.4001" rx="12.5" ry="12.5" style="stroke:#181818;stroke-width:0.5;" width="198" x="477" y="496.6006"/><text fill="#000000" font-family="sans-serif" font-size="12" lengthAdjust="spacing" textLength="178" x="487" y="517.7487">Mostrar mensaje de error (Toast)</text><rect fill="#F1F1F1" height="34.4001" rx="12.5" ry="12.5" style="stroke:#181818;stroke-width:0.5;" width="328" x="412" y="551.0007"/><text fill="#000000" font-family="sans-serif" font-size="12" lengthAdjust="spacing" textLength="308" x="422" y="572.1488">Revertir selecci&#243;n del dropdown al rol original (opcional)</text><polygon fill="#F1F1F1" points="388.75,591.4008,400.75,603.4008,388.75,615.4008,376.75,603.4008,388.75,591.4008" style="stroke:#181818;stroke-width:0.5;"/><rect fill="#F1F1F1" height="34.4001" rx="12.5" ry="12.5" style="stroke:#181818;stroke-width:0.5;" width="179" x="770" y="339.4003"/><text fill="#000000" font-family="sans-serif" font-size="12" lengthAdjust="spacing" textLength="159" x="780" y="360.5484">No se realiza ninguna acci&#243;n</text><polygon fill="#F1F1F1" points="624.125,621.4008,636.125,633.4008,624.125,645.4008,612.125,633.4008,624.125,621.4008" style="stroke:#181818;stroke-width:0.5;"/><ellipse cx="624.125" cy="676.4008" fill="none" rx="11" ry="11" style="stroke:#222222;stroke-width:1.0;"/><ellipse cx="624.125" cy="676.4008" fill="#222222" rx="6" ry="6" style="stroke:#222222;stroke-width:1.0;"/><line style="stroke:#181818;stroke-width:1.0;" x1="624.125" x2="624.125" y1="67.7999" y2="87.7999"/><polygon fill="#181818" points="620.125,77.7999,624.125,87.7999,628.125,77.7999,624.125,81.7999" style="stroke:#181818;stroke-width:1.0;"/><line style="stroke:#181818;stroke-width:1.0;" x1="624.125" x2="624.125" y1="122.2" y2="142.2"/><polygon fill="#181818" points="620.125,132.2,624.125,142.2,628.125,132.2,624.125,136.2" style="stroke:#181818;stroke-width:1.0;"/><line style="stroke:#181818;stroke-width:1.0;" x1="624.125" x2="624.125" y1="176.6001" y2="196.6001"/><polygon fill="#181818" points="620.125,186.6001,624.125,196.6001,628.125,186.6001,624.125,190.6001" style="stroke:#181818;stroke-width:1.0;"/><line style="stroke:#181818;stroke-width:1.0;" x1="624.125" x2="624.125" y1="231.0002" y2="251.0002"/><polygon fill="#181818" points="620.125,241.0002,624.125,251.0002,628.125,241.0002,624.125,245.0002" style="stroke:#181818;stroke-width:1.0;"/><line style="stroke:#181818;stroke-width:1.0;" x1="201.5" x2="201.5" y1="476.6006" y2="496.6006"/><polygon fill="#181818" points="197.5,486.6006,201.5,496.6006,205.5,486.6006,201.5,490.6006" style="stroke:#181818;stroke-width:1.0;"/><line style="stroke:#181818;stroke-width:1.0;" x1="201.5" x2="201.5" y1="531.0007" y2="551.0007"/><polygon fill="#181818" points="197.5,541.0007,201.5,551.0007,205.5,541.0007,201.5,545.0007" style="stroke:#181818;stroke-width:1.0;"/><line style="stroke:#181818;stroke-width:1.0;" x1="576" x2="576" y1="476.6006" y2="496.6006"/><polygon fill="#181818" points="572,486.6006,576,496.6006,580,486.6006,576,490.6006" style="stroke:#181818;stroke-width:1.0;"/><line style="stroke:#181818;stroke-width:1.0;" x1="576" x2="576" y1="531.0007" y2="551.0007"/><polygon fill="#181818" points="572,541.0007,576,551.0007,580,541.0007,576,545.0007" style="stroke:#181818;stroke-width:1.0;"/><line style="stroke:#181818;stroke-width:1.0;" x1="291.75" x2="201.5" y1="420.2005" y2="420.2005"/><line style="stroke:#181818;stroke-width:1.0;" x1="201.5" x2="201.5" y1="420.2005" y2="442.2005"/><polygon fill="#181818" points="197.5,432.2005,201.5,442.2005,205.5,432.2005,201.5,436.2005" style="stroke:#181818;stroke-width:1.0;"/><line style="stroke:#181818;stroke-width:1.0;" x1="485.75" x2="576" y1="420.2005" y2="420.2005"/><line style="stroke:#181818;stroke-width:1.0;" x1="576" x2="576" y1="420.2005" y2="442.2005"/><polygon fill="#181818" points="572,432.2005,576,442.2005,580,432.2005,576,436.2005" style="stroke:#181818;stroke-width:1.0;"/><line style="stroke:#181818;stroke-width:1.0;" x1="201.5" x2="201.5" y1="585.4008" y2="603.4008"/><line style="stroke:#181818;stroke-width:1.0;" x1="201.5" x2="376.75" y1="603.4008" y2="603.4008"/><polygon fill="#181818" points="366.75,599.4008,376.75,603.4008,366.75,607.4008,370.75,603.4008" style="stroke:#181818;stroke-width:1.0;"/><line style="stroke:#181818;stroke-width:1.0;" x1="576" x2="576" y1="585.4008" y2="603.4008"/><line style="stroke:#181818;stroke-width:1.0;" x1="576" x2="400.75" y1="603.4008" y2="603.4008"/><polygon fill="#181818" points="410.75,599.4008,400.75,603.4008,410.75,607.4008,406.75,603.4008" style="stroke:#181818;stroke-width:1.0;"/><line style="stroke:#181818;stroke-width:1.0;" x1="388.75" x2="388.75" y1="388.2005" y2="408.2005"/><polygon fill="#181818" points="384.75,398.2005,388.75,408.2005,392.75,398.2005,388.75,402.2005" style="stroke:#181818;stroke-width:1.0;"/><line style="stroke:#181818;stroke-width:1.0;" x1="522.125" x2="388.75" y1="317.4003" y2="317.4003"/><line style="stroke:#181818;stroke-width:1.0;" x1="388.75" x2="388.75" y1="317.4003" y2="339.4003"/><polygon fill="#181818" points="384.75,329.4003,388.75,339.4003,392.75,329.4003,388.75,333.4003" style="stroke:#181818;stroke-width:1.0;"/><line style="stroke:#181818;stroke-width:1.0;" x1="726.125" x2="859.5" y1="317.4003" y2="317.4003"/><line style="stroke:#181818;stroke-width:1.0;" x1="859.5" x2="859.5" y1="317.4003" y2="339.4003"/><polygon fill="#181818" points="855.5,329.4003,859.5,339.4003,863.5,329.4003,859.5,333.4003" style="stroke:#181818;stroke-width:1.0;"/><line style="stroke:#181818;stroke-width:1.0;" x1="388.75" x2="388.75" y1="615.4008" y2="633.4008"/><line style="stroke:#181818;stroke-width:1.0;" x1="388.75" x2="612.125" y1="633.4008" y2="633.4008"/><polygon fill="#181818" points="602.125,629.4008,612.125,633.4008,602.125,637.4008,606.125,633.4008" style="stroke:#181818;stroke-width:1.0;"/><line style="stroke:#181818;stroke-width:1.0;" x1="859.5" x2="859.5" y1="373.8004" y2="633.4008"/><line style="stroke:#181818;stroke-width:1.0;" x1="859.5" x2="636.125" y1="633.4008" y2="633.4008"/><polygon fill="#181818" points="646.125,629.4008,636.125,633.4008,646.125,637.4008,642.125,633.4008" style="stroke:#181818;stroke-width:1.0;"/><line style="stroke:#181818;stroke-width:1.0;" x1="624.125" x2="624.125" y1="285.4003" y2="305.4003"/><polygon fill="#181818" points="620.125,295.4003,624.125,305.4003,628.125,295.4003,624.125,299.4003" style="stroke:#181818;stroke-width:1.0;"/><line style="stroke:#181818;stroke-width:1.0;" x1="624.125" x2="624.125" y1="645.4008" y2="665.4008"/><polygon fill="#181818" points="620.125,655.4008,624.125,665.4008,628.125,655.4008,624.125,659.4008" style="stroke:#181818;stroke-width:1.0;"/><!--SRC=[TPBFRjD04CRlVeevEb8Hz_Y034KeXrQea1iI6jRZCEbwnze_Xl9677BY4VnYpAxZXbRqOCKPV_lDR_QRoD4IxDzz_K0XiZZqTs8fx4D2pnBQRc2tXTP4dZW-m3NZmUDGLI6YZzMsV0U74nqG48h9_CT1Hr1yyilPgwcsdpX46X0CUfK_m91Kxn6irZ5BetGImEgJpW1NAkuGaXCmuY0ay681JKnerI5fYIoPA3wVrs_D2bNg9e-KLMS8e32IcKyz6tb1UPjeaamF8oeR1LfXj4FG9cIXyp9syiCr5VTGNqxaWRadJouIA62kjONrpGRYTt9GX_cqgG0UxuBSD9yGWbWs75ENnrZ6urzeriiiGrjuY-QUN0VjnzqNL- -krx6kBjIRHjqpLVlKvFrFZX9olzNbEP92_UD_WSW3v_wT_gOrooA_aHoVXu5Sm2DbqFbtxWFrPy4GDsVT8ug7_MwvLa-zfQCMrDGLzcSjCgWzhyPhNROZHSnsP3MGMjVX5P3t6hlglYtO_nd2asw6vbgaBrClJa-XxsWY7zclwx4aSSa-vv6PnVE1dVwfPInBj4IW1DnNAss9_5RKIv6MMtNi3adHSF5kgkL4Y3B-1G00]--></g></svg>