<?xml version="1.0" encoding="us-ascii" standalone="no"?><svg xmlns="http://www.w3.org/2000/svg" xmlns:xlink="http://www.w3.org/1999/xlink" contentStyleType="text/css" height="1010px" preserveAspectRatio="none" style="width:864px;height:1010px;background:#FFFFFF;" version="1.1" viewBox="0 0 864 1010" width="864px" zoomAndPan="magnify"><defs/><g><text fill="#000000" font-family="sans-serif" font-size="14" font-weight="bold" lengthAdjust="spacing" textLength="460" x="200.5" y="33.0059">UC_GestionarTorneosCRUDAdmin (Crear Torneo): Activity Diagram</text><ellipse cx="365.5" cy="57.7999" fill="#222222" rx="10" ry="10" style="stroke:#222222;stroke-width:1.0;"/><rect fill="#F1F1F1" height="34.4001" rx="12.5" ry="12.5" style="stroke:#181818;stroke-width:0.5;" width="219" x="256" y="87.7999"/><text fill="#000000" font-family="sans-serif" font-size="12" lengthAdjust="spacing" textLength="199" x="266" y="108.948">Admin navega a Gesti&#243;n de Torneos</text><rect fill="#F1F1F1" height="34.4001" rx="12.5" ry="12.5" style="stroke:#181818;stroke-width:0.5;" width="255" x="238" y="142.2"/><text fill="#000000" font-family="sans-serif" font-size="12" lengthAdjust="spacing" textLength="235" x="248" y="163.3481">Sistema muestra lista de torneos existentes</text><rect fill="#F1F1F1" height="34.4001" rx="12.5" ry="12.5" style="stroke:#181818;stroke-width:0.5;" width="207" x="262" y="196.6001"/><text fill="#000000" font-family="sans-serif" font-size="12" lengthAdjust="spacing" textLength="187" x="272" y="217.7482">Admin hace clic en "Crear Torneo"</text><rect fill="#F1F1F1" height="34.4001" rx="12.5" ry="12.5" style="stroke:#181818;stroke-width:0.5;" width="302" x="214.5" y="251.0002"/><text fill="#000000" font-family="sans-serif" font-size="12" lengthAdjust="spacing" textLength="282" x="224.5" y="272.1483">Sistema muestra Formulario de Creaci&#243;n de Torneo</text><rect fill="#F1F1F1" height="34.4001" rx="12.5" ry="12.5" style="stroke:#181818;stroke-width:0.5;" width="538" x="96.5" y="305.4003"/><text fill="#000000" font-family="sans-serif" font-size="12" lengthAdjust="spacing" textLength="518" x="106.5" y="326.5484">Admin ingresa datos del torneo (nombre, categor&#237;a, cancha, fechas/horas inicio y fin LOCALES)</text><rect fill="#F1F1F1" height="34.4001" rx="12.5" ry="12.5" style="stroke:#181818;stroke-width:0.5;" width="146" x="292.5" y="359.8004"/><text fill="#000000" font-family="sans-serif" font-size="12" lengthAdjust="spacing" textLength="126" x="302.5" y="380.9485">Admin env&#237;a formulario</text><rect fill="#F1F1F1" height="34.4001" rx="12.5" ry="12.5" style="stroke:#181818;stroke-width:0.5;" width="241" x="245" y="414.2005"/><text fill="#000000" font-family="sans-serif" font-size="12" lengthAdjust="spacing" textLength="221" x="255" y="435.3486">Validar datos de entrada (frontend - Zod)</text><polygon fill="#F1F1F1" points="325.5,468.6006,405.5,468.6006,417.5,480.6006,405.5,492.6006,325.5,492.6006,313.5,480.6006,325.5,468.6006" style="stroke:#181818;stroke-width:0.5;"/><text fill="#000000" font-family="sans-serif" font-size="11" lengthAdjust="spacing" textLength="80" x="325.5" y="484.2196">Datos inv&#225;lidos?</text><text fill="#000000" font-family="sans-serif" font-size="11" lengthAdjust="spacing" textLength="9" x="304.5" y="477.6197">s&#237;</text><text fill="#000000" font-family="sans-serif" font-size="11" lengthAdjust="spacing" textLength="12" x="417.5" y="477.6197">no</text><rect fill="#F1F1F1" height="34.4001" rx="12.5" ry="12.5" style="stroke:#181818;stroke-width:0.5;" width="232" x="11" y="502.6006"/><text fill="#000000" font-family="sans-serif" font-size="12" lengthAdjust="spacing" textLength="212" x="21" y="523.7487">Mostrar mensaje de error en formulario</text><rect fill="#F1F1F1" height="34.4001" rx="12.5" ry="12.5" style="stroke:#181818;stroke-width:0.5;" width="223" x="492.5" y="502.6006"/><text fill="#000000" font-family="sans-serif" font-size="12" lengthAdjust="spacing" textLength="203" x="502.5" y="523.7487">Convertir fechas/horas locales a UTC</text><rect fill="#F1F1F1" height="34.4001" rx="12.5" ry="12.5" style="stroke:#181818;stroke-width:0.5;" width="409" x="399.5" y="557.0007"/><text fill="#000000" font-family="sans-serif" font-size="12" lengthAdjust="spacing" textLength="389" x="409.5" y="578.1488">Sistema env&#237;a datos del nuevo torneo (con fechas UTC) al Backend API</text><polygon fill="#F1F1F1" points="529,611.4008,679,611.4008,691,623.4008,679,635.4008,529,635.4008,517,623.4008,529,611.4008" style="stroke:#181818;stroke-width:0.5;"/><text fill="#000000" font-family="sans-serif" font-size="11" lengthAdjust="spacing" textLength="150" x="529" y="627.0198">Creaci&#243;n Exitosa en Backend?</text><text fill="#000000" font-family="sans-serif" font-size="11" lengthAdjust="spacing" textLength="9" x="508" y="620.4199">s&#237;</text><text fill="#000000" font-family="sans-serif" font-size="11" lengthAdjust="spacing" textLength="106" x="691" y="620.4199">no - error en backend</text><rect fill="#F1F1F1" height="34.4001" rx="12.5" ry="12.5" style="stroke:#181818;stroke-width:0.5;" width="362" x="273" y="645.4008"/><text fill="#000000" font-family="sans-serif" font-size="12" lengthAdjust="spacing" textLength="342" x="283" y="666.5489">Backend API retorna datos del torneo creado (con fechas UTC)</text><rect fill="#F1F1F1" height="34.4001" rx="12.5" ry="12.5" style="stroke:#181818;stroke-width:0.5;" width="349" x="279.5" y="699.8009"/><text fill="#000000" font-family="sans-serif" font-size="12" lengthAdjust="spacing" textLength="329" x="289.5" y="720.949">Convertir fechas UTC del torneo a locales para visualizaci&#243;n</text><rect fill="#F1F1F1" height="34.4001" rx="12.5" ry="12.5" style="stroke:#181818;stroke-width:0.5;" width="198" x="355" y="754.201"/><text fill="#000000" font-family="sans-serif" font-size="12" lengthAdjust="spacing" textLength="178" x="365" y="775.3491">Mostrar mensaje de &#233;xito (Toast)</text><rect fill="#F1F1F1" height="34.4001" rx="12.5" ry="12.5" style="stroke:#181818;stroke-width:0.5;" width="166" x="371" y="808.6011"/><text fill="#000000" font-family="sans-serif" font-size="12" lengthAdjust="spacing" textLength="146" x="381" y="829.7492">Cerrar di&#225;logo de creaci&#243;n</text><rect fill="#F1F1F1" height="34.4001" rx="12.5" ry="12.5" style="stroke:#181818;stroke-width:0.5;" width="231" x="338.5" y="863.0012"/><text fill="#000000" font-family="sans-serif" font-size="12" lengthAdjust="spacing" textLength="211" x="348.5" y="884.1493">Actualizar lista de torneos en la p&#225;gina</text><rect fill="#F1F1F1" height="34.4001" rx="12.5" ry="12.5" style="stroke:#181818;stroke-width:0.5;" width="161" x="673.5" y="645.4008"/><text fill="#000000" font-family="sans-serif" font-size="12" lengthAdjust="spacing" textLength="141" x="683.5" y="666.5489">Backend API retorna error</text><rect fill="#F1F1F1" height="34.4001" rx="12.5" ry="12.5" style="stroke:#181818;stroke-width:0.5;" width="198" x="655" y="699.8009"/><text fill="#000000" font-family="sans-serif" font-size="12" lengthAdjust="spacing" textLength="178" x="665" y="720.949">Mostrar mensaje de error (Toast)</text><polygon fill="#F1F1F1" points="604,903.4013,616,915.4013,604,927.4013,592,915.4013,604,903.4013" style="stroke:#181818;stroke-width:0.5;"/><polygon fill="#F1F1F1" points="365.5,933.4013,377.5,945.4013,365.5,957.4013,353.5,945.4013,365.5,933.4013" style="stroke:#181818;stroke-width:0.5;"/><ellipse cx="365.5" cy="988.4013" fill="none" rx="11" ry="11" style="stroke:#222222;stroke-width:1.0;"/><ellipse cx="365.5" cy="988.4013" fill="#222222" rx="6" ry="6" style="stroke:#222222;stroke-width:1.0;"/><line style="stroke:#181818;stroke-width:1.0;" x1="365.5" x2="365.5" y1="67.7999" y2="87.7999"/><polygon fill="#181818" points="361.5,77.7999,365.5,87.7999,369.5,77.7999,365.5,81.7999" style="stroke:#181818;stroke-width:1.0;"/><line style="stroke:#181818;stroke-width:1.0;" x1="365.5" x2="365.5" y1="122.2" y2="142.2"/><polygon fill="#181818" points="361.5,132.2,365.5,142.2,369.5,132.2,365.5,136.2" style="stroke:#181818;stroke-width:1.0;"/><line style="stroke:#181818;stroke-width:1.0;" x1="365.5" x2="365.5" y1="176.6001" y2="196.6001"/><polygon fill="#181818" points="361.5,186.6001,365.5,196.6001,369.5,186.6001,365.5,190.6001" style="stroke:#181818;stroke-width:1.0;"/><line style="stroke:#181818;stroke-width:1.0;" x1="365.5" x2="365.5" y1="231.0002" y2="251.0002"/><polygon fill="#181818" points="361.5,241.0002,365.5,251.0002,369.5,241.0002,365.5,245.0002" style="stroke:#181818;stroke-width:1.0;"/><line style="stroke:#181818;stroke-width:1.0;" x1="365.5" x2="365.5" y1="285.4003" y2="305.4003"/><polygon fill="#181818" points="361.5,295.4003,365.5,305.4003,369.5,295.4003,365.5,299.4003" style="stroke:#181818;stroke-width:1.0;"/><line style="stroke:#181818;stroke-width:1.0;" x1="365.5" x2="365.5" y1="339.8004" y2="359.8004"/><polygon fill="#181818" points="361.5,349.8004,365.5,359.8004,369.5,349.8004,365.5,353.8004" style="stroke:#181818;stroke-width:1.0;"/><line style="stroke:#181818;stroke-width:1.0;" x1="365.5" x2="365.5" y1="394.2005" y2="414.2005"/><polygon fill="#181818" points="361.5,404.2005,365.5,414.2005,369.5,404.2005,365.5,408.2005" style="stroke:#181818;stroke-width:1.0;"/><line style="stroke:#181818;stroke-width:1.0;" x1="604" x2="604" y1="537.0007" y2="557.0007"/><polygon fill="#181818" points="600,547.0007,604,557.0007,608,547.0007,604,551.0007" style="stroke:#181818;stroke-width:1.0;"/><line style="stroke:#181818;stroke-width:1.0;" x1="454" x2="454" y1="679.8009" y2="699.8009"/><polygon fill="#181818" points="450,689.8009,454,699.8009,458,689.8009,454,693.8009" style="stroke:#181818;stroke-width:1.0;"/><line style="stroke:#181818;stroke-width:1.0;" x1="454" x2="454" y1="734.201" y2="754.201"/><polygon fill="#181818" points="450,744.201,454,754.201,458,744.201,454,748.201" style="stroke:#181818;stroke-width:1.0;"/><line style="stroke:#181818;stroke-width:1.0;" x1="454" x2="454" y1="788.6011" y2="808.6011"/><polygon fill="#181818" points="450,798.6011,454,808.6011,458,798.6011,454,802.6011" style="stroke:#181818;stroke-width:1.0;"/><line style="stroke:#181818;stroke-width:1.0;" x1="454" x2="454" y1="843.0012" y2="863.0012"/><polygon fill="#181818" points="450,853.0012,454,863.0012,458,853.0012,454,857.0012" style="stroke:#181818;stroke-width:1.0;"/><line style="stroke:#181818;stroke-width:1.0;" x1="754" x2="754" y1="679.8009" y2="699.8009"/><polygon fill="#181818" points="750,689.8009,754,699.8009,758,689.8009,754,693.8009" style="stroke:#181818;stroke-width:1.0;"/><line style="stroke:#181818;stroke-width:1.0;" x1="517" x2="454" y1="623.4008" y2="623.4008"/><line style="stroke:#181818;stroke-width:1.0;" x1="454" x2="454" y1="623.4008" y2="645.4008"/><polygon fill="#181818" points="450,635.4008,454,645.4008,458,635.4008,454,639.4008" style="stroke:#181818;stroke-width:1.0;"/><line style="stroke:#181818;stroke-width:1.0;" x1="691" x2="754" y1="623.4008" y2="623.4008"/><line style="stroke:#181818;stroke-width:1.0;" x1="754" x2="754" y1="623.4008" y2="645.4008"/><polygon fill="#181818" points="750,635.4008,754,645.4008,758,635.4008,754,639.4008" style="stroke:#181818;stroke-width:1.0;"/><line style="stroke:#181818;stroke-width:1.0;" x1="454" x2="454" y1="897.4013" y2="915.4013"/><line style="stroke:#181818;stroke-width:1.0;" x1="454" x2="592" y1="915.4013" y2="915.4013"/><polygon fill="#181818" points="582,911.4013,592,915.4013,582,919.4013,586,915.4013" style="stroke:#181818;stroke-width:1.0;"/><line style="stroke:#181818;stroke-width:1.0;" x1="754" x2="754" y1="734.201" y2="915.4013"/><line style="stroke:#181818;stroke-width:1.0;" x1="754" x2="616" y1="915.4013" y2="915.4013"/><polygon fill="#181818" points="626,911.4013,616,915.4013,626,919.4013,622,915.4013" style="stroke:#181818;stroke-width:1.0;"/><line style="stroke:#181818;stroke-width:1.0;" x1="604" x2="604" y1="591.4008" y2="611.4008"/><polygon fill="#181818" points="600,601.4008,604,611.4008,608,601.4008,604,605.4008" style="stroke:#181818;stroke-width:1.0;"/><line style="stroke:#181818;stroke-width:1.0;" x1="313.5" x2="127" y1="480.6006" y2="480.6006"/><line style="stroke:#181818;stroke-width:1.0;" x1="127" x2="127" y1="480.6006" y2="502.6006"/><polygon fill="#181818" points="123,492.6006,127,502.6006,131,492.6006,127,496.6006" style="stroke:#181818;stroke-width:1.0;"/><line style="stroke:#181818;stroke-width:1.0;" x1="417.5" x2="604" y1="480.6006" y2="480.6006"/><line style="stroke:#181818;stroke-width:1.0;" x1="604" x2="604" y1="480.6006" y2="502.6006"/><polygon fill="#181818" points="600,492.6006,604,502.6006,608,492.6006,604,496.6006" style="stroke:#181818;stroke-width:1.0;"/><line style="stroke:#181818;stroke-width:1.0;" x1="127" x2="127" y1="537.0007" y2="945.4013"/><line style="stroke:#181818;stroke-width:1.0;" x1="127" x2="353.5" y1="945.4013" y2="945.4013"/><polygon fill="#181818" points="343.5,941.4013,353.5,945.4013,343.5,949.4013,347.5,945.4013" style="stroke:#181818;stroke-width:1.0;"/><line style="stroke:#181818;stroke-width:1.0;" x1="604" x2="604" y1="927.4013" y2="945.4013"/><line style="stroke:#181818;stroke-width:1.0;" x1="604" x2="377.5" y1="945.4013" y2="945.4013"/><polygon fill="#181818" points="387.5,941.4013,377.5,945.4013,387.5,949.4013,383.5,945.4013" style="stroke:#181818;stroke-width:1.0;"/><line style="stroke:#181818;stroke-width:1.0;" x1="365.5" x2="365.5" y1="448.6006" y2="468.6006"/><polygon fill="#181818" points="361.5,458.6006,365.5,468.6006,369.5,458.6006,365.5,462.6006" style="stroke:#181818;stroke-width:1.0;"/><line style="stroke:#181818;stroke-width:1.0;" x1="365.5" x2="365.5" y1="957.4013" y2="977.4013"/><polygon fill="#181818" points="361.5,967.4013,365.5,977.4013,369.5,967.4013,365.5,971.4013" style="stroke:#181818;stroke-width:1.0;"/><!--SRC=[VPF1RjD048RlVefHJxO4ufuSK70AGYe2qOG35pHTZvs5zMuqkx5QtgP73Ztn27unPhsswvR09Kwo_tpp_pFhe8CXs9VVtf4FsbdadMDBpfUVzzjDrMeBUSc43Ed_OWKR5NIdmnriDJQCRPRvW1ooLP9RxAX1G1Y8_MyB5Ot5VfsjhhKFr2Aq9pbc12E_CKf2aW3THeKD5DK9UK15e8nMG1OkbdOkpX3VEcvF1bcxY8rgzTJ6pDMsOVBI7OCqhiYC9Y2thhrXUW4A0pME-mUCtwqwoBCcUVXN1yVe1Q6LDBg3MdXN7ylDrULrCJSWsqafrBCZEVc2HbSIO6eg8d5T8UGrEubjAtW9Nrqb55r3lXraMa3tKkVywmB2GSQG-_wXo01M7rnCpT2IzVYT1YApupYhPMCodcAmeQXqjYCEcf-cCKwX8I_Bs-_ATHHEmnsJF4xAdgXpyxoKioCfLXQ01jwW-X73R3wzZwIOvN4NbxTQG14xwPxdajuB0Z35LcTMfOHP_UrWdH3FSyQpPJNEaOyeLwVJ_YJh-PbSZemp0-v_HV-GxnpwCFUIiSUzQjcKQuRBfwR0eqHUdSJdC_VUWa4uzlUDjXZrqyBaEimBlKaZ-S-01kc_dIVImhZKwpfBdpwuuny0]--></g></svg>