<?xml version="1.0" encoding="us-ascii" standalone="no"?><svg xmlns="http://www.w3.org/2000/svg" xmlns:xlink="http://www.w3.org/1999/xlink" contentStyleType="text/css" height="1010px" preserveAspectRatio="none" style="width:930px;height:1010px;background:#FFFFFF;" version="1.1" viewBox="0 0 930 1010" width="930px" zoomAndPan="magnify"><defs/><g><text fill="#000000" font-family="sans-serif" font-size="14" font-weight="bold" lengthAdjust="spacing" textLength="421" x="253" y="33.0059">UC_GestionarAsistenciaTorneosEntrenador: Activity Diagram</text><ellipse cx="526.875" cy="57.7999" fill="#222222" rx="10" ry="10" style="stroke:#222222;stroke-width:1.0;"/><rect fill="#F1F1F1" height="34.4001" rx="12.5" ry="12.5" style="stroke:#181818;stroke-width:0.5;" width="326" x="363.875" y="87.7999"/><text fill="#000000" font-family="sans-serif" font-size="12" lengthAdjust="spacing" textLength="306" x="373.875" y="108.948">Entrenador navega a la p&#225;gina de Torneos (Entrenador)</text><rect fill="#F1F1F1" height="34.4001" rx="12.5" ry="12.5" style="stroke:#181818;stroke-width:0.5;" width="244" x="404.875" y="142.2"/><text fill="#000000" font-family="sans-serif" font-size="12" lengthAdjust="spacing" textLength="224" x="414.875" y="163.3481">Sistema carga y muestra lista de Torneos</text><rect fill="#F1F1F1" height="34.4001" rx="12.5" ry="12.5" style="stroke:#181818;stroke-width:0.5;" width="402" x="325.875" y="196.6001"/><text fill="#000000" font-family="sans-serif" font-size="12" lengthAdjust="spacing" textLength="382" x="335.875" y="217.7482">Entrenador selecciona un Torneo y hace clic en "Gestionar Asistencia"</text><rect fill="#F1F1F1" height="34.4001" rx="12.5" ry="12.5" style="stroke:#181818;stroke-width:0.5;" width="582" x="235.875" y="251.0002"/><text fill="#000000" font-family="sans-serif" font-size="12" lengthAdjust="spacing" textLength="562" x="245.875" y="272.1483">Sistema muestra di&#225;logo con lista de usuarios registrados en el Torneo y su estado de asistencia actual</text><rect fill="#F1F1F1" height="34.4001" rx="12.5" ry="12.5" style="stroke:#181818;stroke-width:0.5;" width="261" x="396.375" y="305.4003"/><text fill="#000000" font-family="sans-serif" font-size="12" lengthAdjust="spacing" textLength="241" x="406.375" y="326.5484">Entrenador selecciona un Usuario de la lista</text><rect fill="#F1F1F1" height="34.4001" rx="12.5" ry="12.5" style="stroke:#181818;stroke-width:0.5;" width="356" x="348.875" y="359.8004"/><text fill="#000000" font-family="sans-serif" font-size="12" lengthAdjust="spacing" textLength="336" x="358.875" y="380.9485">Sistema habilita formulario para ingresar posici&#243;n del Usuario</text><rect fill="#F1F1F1" height="34.4001" rx="12.5" ry="12.5" style="stroke:#181818;stroke-width:0.5;" width="188" x="432.875" y="414.2005"/><text fill="#000000" font-family="sans-serif" font-size="12" lengthAdjust="spacing" textLength="168" x="442.875" y="435.3486">Entrenador ingresa la Posici&#243;n</text><rect fill="#F1F1F1" height="34.4001" rx="12.5" ry="12.5" style="stroke:#181818;stroke-width:0.5;" width="264" x="394.875" y="468.6006"/><text fill="#000000" font-family="sans-serif" font-size="12" lengthAdjust="spacing" textLength="244" x="404.875" y="489.7487">Entrenador hace clic en "Guardar Asistencia"</text><rect fill="#F1F1F1" height="34.4001" rx="12.5" ry="12.5" style="stroke:#181818;stroke-width:0.5;" width="341" x="356.375" y="523.0007"/><text fill="#000000" font-family="sans-serif" font-size="12" lengthAdjust="spacing" textLength="321" x="366.375" y="544.1488">Validar datos de Posici&#243;n (n&#250;mero positivo, &#250;nico si es &gt; 0)</text><polygon fill="#F1F1F1" points="460.875,577.4008,592.875,577.4008,604.875,589.4008,592.875,601.4008,460.875,601.4008,448.875,589.4008,460.875,577.4008" style="stroke:#181818;stroke-width:0.5;"/><text fill="#000000" font-family="sans-serif" font-size="11" lengthAdjust="spacing" textLength="132" x="460.875" y="593.0198">Datos de Posici&#243;n V&#225;lidos?</text><text fill="#000000" font-family="sans-serif" font-size="11" lengthAdjust="spacing" textLength="9" x="439.875" y="586.4199">s&#237;</text><text fill="#000000" font-family="sans-serif" font-size="11" lengthAdjust="spacing" textLength="152" x="604.875" y="586.4199">no - datos de posici&#243;n inv&#225;lidos</text><rect fill="#F1F1F1" height="34.4001" rx="12.5" ry="12.5" style="stroke:#181818;stroke-width:0.5;" width="473" x="51.75" y="611.4008"/><text fill="#000000" font-family="sans-serif" font-size="12" lengthAdjust="spacing" textLength="453" x="61.75" y="632.5489">Sistema env&#237;a datos de asistencia (ID Torneo, ID Usuario, Posici&#243;n) al Backend API</text><polygon fill="#F1F1F1" points="180.75,665.8009,395.75,665.8009,407.75,677.8009,395.75,689.8009,180.75,689.8009,168.75,677.8009,180.75,665.8009" style="stroke:#181818;stroke-width:0.5;"/><text fill="#000000" font-family="sans-serif" font-size="11" lengthAdjust="spacing" textLength="215" x="180.75" y="681.4199">Registro de Asistencia Exitoso en Backend?</text><text fill="#000000" font-family="sans-serif" font-size="11" lengthAdjust="spacing" textLength="9" x="159.75" y="674.82">s&#237;</text><text fill="#000000" font-family="sans-serif" font-size="11" lengthAdjust="spacing" textLength="106" x="407.75" y="674.82">no - error en backend</text><rect fill="#F1F1F1" height="34.4001" rx="12.5" ry="12.5" style="stroke:#181818;stroke-width:0.5;" width="259" x="11" y="699.8009"/><text fill="#000000" font-family="sans-serif" font-size="12" lengthAdjust="spacing" textLength="239" x="21" y="720.949">Backend API confirma registro de asistencia</text><rect fill="#F1F1F1" height="34.4001" rx="12.5" ry="12.5" style="stroke:#181818;stroke-width:0.5;" width="198" x="41.5" y="754.201"/><text fill="#000000" font-family="sans-serif" font-size="12" lengthAdjust="spacing" textLength="178" x="51.5" y="775.3491">Mostrar mensaje de &#233;xito (Toast)</text><rect fill="#F1F1F1" height="34.4001" rx="12.5" ry="12.5" style="stroke:#181818;stroke-width:0.5;" width="248" x="16.5" y="808.6011"/><text fill="#000000" font-family="sans-serif" font-size="12" lengthAdjust="spacing" textLength="228" x="26.5" y="829.7492">Actualizar lista de asistencia en el di&#225;logo</text><rect fill="#F1F1F1" height="34.4001" rx="12.5" ry="12.5" style="stroke:#181818;stroke-width:0.5;" width="203" x="39" y="863.0012"/><text fill="#000000" font-family="sans-serif" font-size="12" lengthAdjust="spacing" textLength="183" x="49" y="884.1493">Resetear formulario de asistencia</text><rect fill="#F1F1F1" height="34.4001" rx="12.5" ry="12.5" style="stroke:#181818;stroke-width:0.5;" width="161" x="355.5" y="699.8009"/><text fill="#000000" font-family="sans-serif" font-size="12" lengthAdjust="spacing" textLength="141" x="365.5" y="720.949">Backend API retorna error</text><rect fill="#F1F1F1" height="34.4001" rx="12.5" ry="12.5" style="stroke:#181818;stroke-width:0.5;" width="292" x="290" y="754.201"/><text fill="#000000" font-family="sans-serif" font-size="12" lengthAdjust="spacing" textLength="272" x="300" y="775.3491">Mostrar mensaje de error (Toast y/o en formulario)</text><polygon fill="#F1F1F1" points="288.25,903.4013,300.25,915.4013,288.25,927.4013,276.25,915.4013,288.25,903.4013" style="stroke:#181818;stroke-width:0.5;"/><rect fill="#F1F1F1" height="34.4001" rx="12.5" ry="12.5" style="stroke:#181818;stroke-width:0.5;" width="307" x="612" y="611.4008"/><text fill="#000000" font-family="sans-serif" font-size="12" lengthAdjust="spacing" textLength="287" x="622" y="632.5489">Mostrar mensaje de error en formulario de asistencia</text><polygon fill="#F1F1F1" points="526.875,933.4013,538.875,945.4013,526.875,957.4013,514.875,945.4013,526.875,933.4013" style="stroke:#181818;stroke-width:0.5;"/><ellipse cx="526.875" cy="988.4013" fill="none" rx="11" ry="11" style="stroke:#222222;stroke-width:1.0;"/><ellipse cx="526.875" cy="988.4013" fill="#222222" rx="6" ry="6" style="stroke:#222222;stroke-width:1.0;"/><line style="stroke:#181818;stroke-width:1.0;" x1="526.875" x2="526.875" y1="67.7999" y2="87.7999"/><polygon fill="#181818" points="522.875,77.7999,526.875,87.7999,530.875,77.7999,526.875,81.7999" style="stroke:#181818;stroke-width:1.0;"/><line style="stroke:#181818;stroke-width:1.0;" x1="526.875" x2="526.875" y1="122.2" y2="142.2"/><polygon fill="#181818" points="522.875,132.2,526.875,142.2,530.875,132.2,526.875,136.2" style="stroke:#181818;stroke-width:1.0;"/><line style="stroke:#181818;stroke-width:1.0;" x1="526.875" x2="526.875" y1="176.6001" y2="196.6001"/><polygon fill="#181818" points="522.875,186.6001,526.875,196.6001,530.875,186.6001,526.875,190.6001" style="stroke:#181818;stroke-width:1.0;"/><line style="stroke:#181818;stroke-width:1.0;" x1="526.875" x2="526.875" y1="231.0002" y2="251.0002"/><polygon fill="#181818" points="522.875,241.0002,526.875,251.0002,530.875,241.0002,526.875,245.0002" style="stroke:#181818;stroke-width:1.0;"/><line style="stroke:#181818;stroke-width:1.0;" x1="526.875" x2="526.875" y1="285.4003" y2="305.4003"/><polygon fill="#181818" points="522.875,295.4003,526.875,305.4003,530.875,295.4003,526.875,299.4003" style="stroke:#181818;stroke-width:1.0;"/><line style="stroke:#181818;stroke-width:1.0;" x1="526.875" x2="526.875" y1="339.8004" y2="359.8004"/><polygon fill="#181818" points="522.875,349.8004,526.875,359.8004,530.875,349.8004,526.875,353.8004" style="stroke:#181818;stroke-width:1.0;"/><line style="stroke:#181818;stroke-width:1.0;" x1="526.875" x2="526.875" y1="394.2005" y2="414.2005"/><polygon fill="#181818" points="522.875,404.2005,526.875,414.2005,530.875,404.2005,526.875,408.2005" style="stroke:#181818;stroke-width:1.0;"/><line style="stroke:#181818;stroke-width:1.0;" x1="526.875" x2="526.875" y1="448.6006" y2="468.6006"/><polygon fill="#181818" points="522.875,458.6006,526.875,468.6006,530.875,458.6006,526.875,462.6006" style="stroke:#181818;stroke-width:1.0;"/><line style="stroke:#181818;stroke-width:1.0;" x1="526.875" x2="526.875" y1="503.0007" y2="523.0007"/><polygon fill="#181818" points="522.875,513.0007,526.875,523.0007,530.875,513.0007,526.875,517.0007" style="stroke:#181818;stroke-width:1.0;"/><line style="stroke:#181818;stroke-width:1.0;" x1="140.5" x2="140.5" y1="734.201" y2="754.201"/><polygon fill="#181818" points="136.5,744.201,140.5,754.201,144.5,744.201,140.5,748.201" style="stroke:#181818;stroke-width:1.0;"/><line style="stroke:#181818;stroke-width:1.0;" x1="140.5" x2="140.5" y1="788.6011" y2="808.6011"/><polygon fill="#181818" points="136.5,798.6011,140.5,808.6011,144.5,798.6011,140.5,802.6011" style="stroke:#181818;stroke-width:1.0;"/><line style="stroke:#181818;stroke-width:1.0;" x1="140.5" x2="140.5" y1="843.0012" y2="863.0012"/><polygon fill="#181818" points="136.5,853.0012,140.5,863.0012,144.5,853.0012,140.5,857.0012" style="stroke:#181818;stroke-width:1.0;"/><line style="stroke:#181818;stroke-width:1.0;" x1="436" x2="436" y1="734.201" y2="754.201"/><polygon fill="#181818" points="432,744.201,436,754.201,440,744.201,436,748.201" style="stroke:#181818;stroke-width:1.0;"/><line style="stroke:#181818;stroke-width:1.0;" x1="168.75" x2="140.5" y1="677.8009" y2="677.8009"/><line style="stroke:#181818;stroke-width:1.0;" x1="140.5" x2="140.5" y1="677.8009" y2="699.8009"/><polygon fill="#181818" points="136.5,689.8009,140.5,699.8009,144.5,689.8009,140.5,693.8009" style="stroke:#181818;stroke-width:1.0;"/><line style="stroke:#181818;stroke-width:1.0;" x1="407.75" x2="436" y1="677.8009" y2="677.8009"/><line style="stroke:#181818;stroke-width:1.0;" x1="436" x2="436" y1="677.8009" y2="699.8009"/><polygon fill="#181818" points="432,689.8009,436,699.8009,440,689.8009,436,693.8009" style="stroke:#181818;stroke-width:1.0;"/><line style="stroke:#181818;stroke-width:1.0;" x1="140.5" x2="140.5" y1="897.4013" y2="915.4013"/><line style="stroke:#181818;stroke-width:1.0;" x1="140.5" x2="276.25" y1="915.4013" y2="915.4013"/><polygon fill="#181818" points="266.25,911.4013,276.25,915.4013,266.25,919.4013,270.25,915.4013" style="stroke:#181818;stroke-width:1.0;"/><line style="stroke:#181818;stroke-width:1.0;" x1="436" x2="436" y1="788.6011" y2="915.4013"/><line style="stroke:#181818;stroke-width:1.0;" x1="436" x2="300.25" y1="915.4013" y2="915.4013"/><polygon fill="#181818" points="310.25,911.4013,300.25,915.4013,310.25,919.4013,306.25,915.4013" style="stroke:#181818;stroke-width:1.0;"/><line style="stroke:#181818;stroke-width:1.0;" x1="288.25" x2="288.25" y1="645.8009" y2="665.8009"/><polygon fill="#181818" points="284.25,655.8009,288.25,665.8009,292.25,655.8009,288.25,659.8009" style="stroke:#181818;stroke-width:1.0;"/><line style="stroke:#181818;stroke-width:1.0;" x1="448.875" x2="288.25" y1="589.4008" y2="589.4008"/><line style="stroke:#181818;stroke-width:1.0;" x1="288.25" x2="288.25" y1="589.4008" y2="611.4008"/><polygon fill="#181818" points="284.25,601.4008,288.25,611.4008,292.25,601.4008,288.25,605.4008" style="stroke:#181818;stroke-width:1.0;"/><line style="stroke:#181818;stroke-width:1.0;" x1="604.875" x2="765.5" y1="589.4008" y2="589.4008"/><line style="stroke:#181818;stroke-width:1.0;" x1="765.5" x2="765.5" y1="589.4008" y2="611.4008"/><polygon fill="#181818" points="761.5,601.4008,765.5,611.4008,769.5,601.4008,765.5,605.4008" style="stroke:#181818;stroke-width:1.0;"/><line style="stroke:#181818;stroke-width:1.0;" x1="288.25" x2="288.25" y1="927.4013" y2="945.4013"/><line style="stroke:#181818;stroke-width:1.0;" x1="288.25" x2="514.875" y1="945.4013" y2="945.4013"/><polygon fill="#181818" points="504.875,941.4013,514.875,945.4013,504.875,949.4013,508.875,945.4013" style="stroke:#181818;stroke-width:1.0;"/><line style="stroke:#181818;stroke-width:1.0;" x1="765.5" x2="765.5" y1="645.8009" y2="945.4013"/><line style="stroke:#181818;stroke-width:1.0;" x1="765.5" x2="538.875" y1="945.4013" y2="945.4013"/><polygon fill="#181818" points="548.875,941.4013,538.875,945.4013,548.875,949.4013,544.875,945.4013" style="stroke:#181818;stroke-width:1.0;"/><line style="stroke:#181818;stroke-width:1.0;" x1="526.875" x2="526.875" y1="557.4008" y2="577.4008"/><polygon fill="#181818" points="522.875,567.4008,526.875,577.4008,530.875,567.4008,526.875,571.4008" style="stroke:#181818;stroke-width:1.0;"/><line style="stroke:#181818;stroke-width:1.0;" x1="526.875" x2="526.875" y1="957.4013" y2="977.4013"/><polygon fill="#181818" points="522.875,967.4013,526.875,977.4013,530.875,967.4013,526.875,971.4013" style="stroke:#181818;stroke-width:1.0;"/><!--SRC=[VLAzRjim4Dxr58TC4k2YdMsWXLi7HOO2GPfaBIxKMRw48WsICkg-JSOEcRfbrOlrACcYR3VT1EhxlRl0GHFSVVdnbNnWQz0jFVj0HZ7UMcV8-aiJ71aihPl3KWNUSTZ3Yh5oM6UP3-X2DayWCBYZ2W518spRvueDGaamg46UeCKYct-FRZM2GYUaFTID1752blSfRt7auKcJKZ4lD6Q027c3Ya1fLa06BiPAa3fTJ2mFLYMtpzfM5fGroRVn3JgMm8ugZhXIlaMMTFBp3OY4_8a474q0LMXG_o_oNQyUUNeeEqcsmGVMB3dMrjMDxf1RbAXiAaTU6csjPyNj7oCA-g1sR3XWe_xr0NsCE1cNQ9Hdmxf7pV6rn23z9Uwe1RbfNsjojWiZTs5dqBuQLXOyorpW8toG3VCQyjKv-LvcpZBIJmM4ZTZdldqfCe1n1cHsxGictybuywlLi8CPoEVGVfRK2q0Ddr4zaIbXUNsr4E6OuwPVPJVsL1CkVxAOs3Y5WNIQId9DvEAXhDb9I3SHJ04NFUERZMVZe2RZyP4YflqThI2_jUX3CU2MtRNmBu6ErpTfsz_SuKW7pWrv2YICoOMSPI3jIRPauHsGSx9maNheQ_oZbACWCyKU-dQ5Ngbl0FlttTHIYAwJAF8wcxYFIqndoxBU_WAwhRzfTAH-Mh4tyi5k_m80]--></g></svg>