<?xml version="1.0" encoding="us-ascii" standalone="no"?><svg xmlns="http://www.w3.org/2000/svg" xmlns:xlink="http://www.w3.org/1999/xlink" contentStyleType="text/css" height="752px" preserveAspectRatio="none" style="width:882px;height:752px;background:#FFFFFF;" version="1.1" viewBox="0 0 882 752" width="882px" zoomAndPan="magnify"><defs/><g><text fill="#000000" font-family="sans-serif" font-size="14" font-weight="bold" lengthAdjust="spacing" textLength="466" x="206.5" y="33.0059">UC_ActualizarPerfilAdmin (Actualizar Perfil Propio): Activity Diagram</text><ellipse cx="372.25" cy="57.7999" fill="#222222" rx="10" ry="10" style="stroke:#222222;stroke-width:1.0;"/><rect fill="#F1F1F1" height="34.4001" rx="12.5" ry="12.5" style="stroke:#181818;stroke-width:0.5;" width="357" x="193.75" y="87.7999"/><text fill="#000000" font-family="sans-serif" font-size="12" lengthAdjust="spacing" textLength="337" x="203.75" y="108.948">Admin navega a su p&#225;gina de Perfil (Dashboard Admin Index)</text><rect fill="#F1F1F1" height="34.4001" rx="12.5" ry="12.5" style="stroke:#181818;stroke-width:0.5;" width="423" x="160.75" y="142.2"/><text fill="#000000" font-family="sans-serif" font-size="12" lengthAdjust="spacing" textLength="403" x="170.75" y="163.3481">Sistema carga y muestra datos del perfil actual del Admin en un formulario</text><rect fill="#F1F1F1" height="34.4001" rx="12.5" ry="12.5" style="stroke:#181818;stroke-width:0.5;" width="314" x="215.25" y="196.6001"/><text fill="#000000" font-family="sans-serif" font-size="12" lengthAdjust="spacing" textLength="294" x="225.25" y="217.7482">Admin modifica los campos deseados en el formulario</text><rect fill="#F1F1F1" height="34.4001" rx="12.5" ry="12.5" style="stroke:#181818;stroke-width:0.5;" width="256" x="244.25" y="251.0002"/><text fill="#000000" font-family="sans-serif" font-size="12" lengthAdjust="spacing" textLength="236" x="254.25" y="272.1483">Admin env&#237;a el formulario ("Update Profile")</text><rect fill="#F1F1F1" height="34.4001" rx="12.5" ry="12.5" style="stroke:#181818;stroke-width:0.5;" width="241" x="251.75" y="305.4003"/><text fill="#000000" font-family="sans-serif" font-size="12" lengthAdjust="spacing" textLength="221" x="261.75" y="326.5484">Validar datos de entrada (frontend - Zod)</text><polygon fill="#F1F1F1" points="332.25,359.8004,412.25,359.8004,424.25,371.8004,412.25,383.8004,332.25,383.8004,320.25,371.8004,332.25,359.8004" style="stroke:#181818;stroke-width:0.5;"/><text fill="#000000" font-family="sans-serif" font-size="11" lengthAdjust="spacing" textLength="80" x="332.25" y="375.4194">Datos inv&#225;lidos?</text><text fill="#000000" font-family="sans-serif" font-size="11" lengthAdjust="spacing" textLength="9" x="311.25" y="368.8195">s&#237;</text><text fill="#000000" font-family="sans-serif" font-size="11" lengthAdjust="spacing" textLength="12" x="424.25" y="368.8195">no</text><rect fill="#F1F1F1" height="34.4001" rx="12.5" ry="12.5" style="stroke:#181818;stroke-width:0.5;" width="232" x="11" y="393.8004"/><text fill="#000000" font-family="sans-serif" font-size="12" lengthAdjust="spacing" textLength="212" x="21" y="414.9485">Mostrar mensaje de error en formulario</text><rect fill="#F1F1F1" height="48.8002" rx="12.5" ry="12.5" style="stroke:#181818;stroke-width:0.5;" width="338" x="448.5" y="393.8004"/><text fill="#000000" font-family="sans-serif" font-size="12" lengthAdjust="spacing" textLength="318" x="458.5" y="414.9485">Sistema env&#237;a datos actualizados del perfil al Backend API</text><text fill="#000000" font-family="sans-serif" font-size="12" lengthAdjust="spacing" textLength="157" x="458.5" y="429.3486">(ID del Admin, nuevos datos)</text><polygon fill="#F1F1F1" points="532.5,462.6006,702.5,462.6006,714.5,474.6006,702.5,486.6006,532.5,486.6006,520.5,474.6006,532.5,462.6006" style="stroke:#181818;stroke-width:0.5;"/><text fill="#000000" font-family="sans-serif" font-size="11" lengthAdjust="spacing" textLength="170" x="532.5" y="478.2196">Actualizaci&#243;n Exitosa en Backend?</text><text fill="#000000" font-family="sans-serif" font-size="11" lengthAdjust="spacing" textLength="9" x="511.5" y="471.6197">s&#237;</text><text fill="#000000" font-family="sans-serif" font-size="11" lengthAdjust="spacing" textLength="106" x="714.5" y="471.6197">no - error en backend</text><rect fill="#F1F1F1" height="34.4001" rx="12.5" ry="12.5" style="stroke:#181818;stroke-width:0.5;" width="302" x="312" y="496.6006"/><text fill="#000000" font-family="sans-serif" font-size="12" lengthAdjust="spacing" textLength="282" x="322" y="517.7487">Backend API actualiza los datos del perfil del Admin</text><rect fill="#F1F1F1" height="34.4001" rx="12.5" ry="12.5" style="stroke:#181818;stroke-width:0.5;" width="198" x="364" y="551.0007"/><text fill="#000000" font-family="sans-serif" font-size="12" lengthAdjust="spacing" textLength="178" x="374" y="572.1488">Mostrar mensaje de &#233;xito (Toast)</text><rect fill="#F1F1F1" height="34.4001" rx="12.5" ry="12.5" style="stroke:#181818;stroke-width:0.5;" width="380" x="273" y="605.4008"/><text fill="#000000" font-family="sans-serif" font-size="12" lengthAdjust="spacing" textLength="360" x="283" y="626.5489">Actualizar datos del perfil en la UI (si es necesario, por ej. nombre)</text><rect fill="#F1F1F1" height="34.4001" rx="12.5" ry="12.5" style="stroke:#181818;stroke-width:0.5;" width="161" x="691.5" y="496.6006"/><text fill="#000000" font-family="sans-serif" font-size="12" lengthAdjust="spacing" textLength="141" x="701.5" y="517.7487">Backend API retorna error</text><rect fill="#F1F1F1" height="34.4001" rx="12.5" ry="12.5" style="stroke:#181818;stroke-width:0.5;" width="198" x="673" y="551.0007"/><text fill="#000000" font-family="sans-serif" font-size="12" lengthAdjust="spacing" textLength="178" x="683" y="572.1488">Mostrar mensaje de error (Toast)</text><polygon fill="#F1F1F1" points="617.5,645.8009,629.5,657.8009,617.5,669.8009,605.5,657.8009,617.5,645.8009" style="stroke:#181818;stroke-width:0.5;"/><polygon fill="#F1F1F1" points="372.25,675.8009,384.25,687.8009,372.25,699.8009,360.25,687.8009,372.25,675.8009" style="stroke:#181818;stroke-width:0.5;"/><ellipse cx="372.25" cy="730.8009" fill="none" rx="11" ry="11" style="stroke:#222222;stroke-width:1.0;"/><ellipse cx="372.25" cy="730.8009" fill="#222222" rx="6" ry="6" style="stroke:#222222;stroke-width:1.0;"/><line style="stroke:#181818;stroke-width:1.0;" x1="372.25" x2="372.25" y1="67.7999" y2="87.7999"/><polygon fill="#181818" points="368.25,77.7999,372.25,87.7999,376.25,77.7999,372.25,81.7999" style="stroke:#181818;stroke-width:1.0;"/><line style="stroke:#181818;stroke-width:1.0;" x1="372.25" x2="372.25" y1="122.2" y2="142.2"/><polygon fill="#181818" points="368.25,132.2,372.25,142.2,376.25,132.2,372.25,136.2" style="stroke:#181818;stroke-width:1.0;"/><line style="stroke:#181818;stroke-width:1.0;" x1="372.25" x2="372.25" y1="176.6001" y2="196.6001"/><polygon fill="#181818" points="368.25,186.6001,372.25,196.6001,376.25,186.6001,372.25,190.6001" style="stroke:#181818;stroke-width:1.0;"/><line style="stroke:#181818;stroke-width:1.0;" x1="372.25" x2="372.25" y1="231.0002" y2="251.0002"/><polygon fill="#181818" points="368.25,241.0002,372.25,251.0002,376.25,241.0002,372.25,245.0002" style="stroke:#181818;stroke-width:1.0;"/><line style="stroke:#181818;stroke-width:1.0;" x1="372.25" x2="372.25" y1="285.4003" y2="305.4003"/><polygon fill="#181818" points="368.25,295.4003,372.25,305.4003,376.25,295.4003,372.25,299.4003" style="stroke:#181818;stroke-width:1.0;"/><line style="stroke:#181818;stroke-width:1.0;" x1="463" x2="463" y1="531.0007" y2="551.0007"/><polygon fill="#181818" points="459,541.0007,463,551.0007,467,541.0007,463,545.0007" style="stroke:#181818;stroke-width:1.0;"/><line style="stroke:#181818;stroke-width:1.0;" x1="463" x2="463" y1="585.4008" y2="605.4008"/><polygon fill="#181818" points="459,595.4008,463,605.4008,467,595.4008,463,599.4008" style="stroke:#181818;stroke-width:1.0;"/><line style="stroke:#181818;stroke-width:1.0;" x1="772" x2="772" y1="531.0007" y2="551.0007"/><polygon fill="#181818" points="768,541.0007,772,551.0007,776,541.0007,772,545.0007" style="stroke:#181818;stroke-width:1.0;"/><line style="stroke:#181818;stroke-width:1.0;" x1="520.5" x2="463" y1="474.6006" y2="474.6006"/><line style="stroke:#181818;stroke-width:1.0;" x1="463" x2="463" y1="474.6006" y2="496.6006"/><polygon fill="#181818" points="459,486.6006,463,496.6006,467,486.6006,463,490.6006" style="stroke:#181818;stroke-width:1.0;"/><line style="stroke:#181818;stroke-width:1.0;" x1="714.5" x2="772" y1="474.6006" y2="474.6006"/><line style="stroke:#181818;stroke-width:1.0;" x1="772" x2="772" y1="474.6006" y2="496.6006"/><polygon fill="#181818" points="768,486.6006,772,496.6006,776,486.6006,772,490.6006" style="stroke:#181818;stroke-width:1.0;"/><line style="stroke:#181818;stroke-width:1.0;" x1="463" x2="463" y1="639.8009" y2="657.8009"/><line style="stroke:#181818;stroke-width:1.0;" x1="463" x2="605.5" y1="657.8009" y2="657.8009"/><polygon fill="#181818" points="595.5,653.8009,605.5,657.8009,595.5,661.8009,599.5,657.8009" style="stroke:#181818;stroke-width:1.0;"/><line style="stroke:#181818;stroke-width:1.0;" x1="772" x2="772" y1="585.4008" y2="657.8009"/><line style="stroke:#181818;stroke-width:1.0;" x1="772" x2="629.5" y1="657.8009" y2="657.8009"/><polygon fill="#181818" points="639.5,653.8009,629.5,657.8009,639.5,661.8009,635.5,657.8009" style="stroke:#181818;stroke-width:1.0;"/><line style="stroke:#181818;stroke-width:1.0;" x1="617.5" x2="617.5" y1="442.6006" y2="462.6006"/><polygon fill="#181818" points="613.5,452.6006,617.5,462.6006,621.5,452.6006,617.5,456.6006" style="stroke:#181818;stroke-width:1.0;"/><line style="stroke:#181818;stroke-width:1.0;" x1="320.25" x2="127" y1="371.8004" y2="371.8004"/><line style="stroke:#181818;stroke-width:1.0;" x1="127" x2="127" y1="371.8004" y2="393.8004"/><polygon fill="#181818" points="123,383.8004,127,393.8004,131,383.8004,127,387.8004" style="stroke:#181818;stroke-width:1.0;"/><line style="stroke:#181818;stroke-width:1.0;" x1="424.25" x2="617.5" y1="371.8004" y2="371.8004"/><line style="stroke:#181818;stroke-width:1.0;" x1="617.5" x2="617.5" y1="371.8004" y2="393.8004"/><polygon fill="#181818" points="613.5,383.8004,617.5,393.8004,621.5,383.8004,617.5,387.8004" style="stroke:#181818;stroke-width:1.0;"/><line style="stroke:#181818;stroke-width:1.0;" x1="127" x2="127" y1="428.2005" y2="687.8009"/><line style="stroke:#181818;stroke-width:1.0;" x1="127" x2="360.25" y1="687.8009" y2="687.8009"/><polygon fill="#181818" points="350.25,683.8009,360.25,687.8009,350.25,691.8009,354.25,687.8009" style="stroke:#181818;stroke-width:1.0;"/><line style="stroke:#181818;stroke-width:1.0;" x1="617.5" x2="617.5" y1="669.8009" y2="687.8009"/><line style="stroke:#181818;stroke-width:1.0;" x1="617.5" x2="384.25" y1="687.8009" y2="687.8009"/><polygon fill="#181818" points="394.25,683.8009,384.25,687.8009,394.25,691.8009,390.25,687.8009" style="stroke:#181818;stroke-width:1.0;"/><line style="stroke:#181818;stroke-width:1.0;" x1="372.25" x2="372.25" y1="339.8004" y2="359.8004"/><polygon fill="#181818" points="368.25,349.8004,372.25,359.8004,376.25,349.8004,372.25,353.8004" style="stroke:#181818;stroke-width:1.0;"/><line style="stroke:#181818;stroke-width:1.0;" x1="372.25" x2="372.25" y1="699.8009" y2="719.8009"/><polygon fill="#181818" points="368.25,709.8009,372.25,719.8009,376.25,709.8009,372.25,713.8009" style="stroke:#181818;stroke-width:1.0;"/><!--SRC=[TP91Rjim44NtEiL7LXAGzW3sed3hBhm8OA1r5qM1OYoEd4aaKY0f8-bjikmYgnx15-jGZ6mtSJU2GCx_y-OFeyIMiVdqSr77WLhvHNxDlf5sOJgnA4_7oETOUzUBgsRGAzbBVCHIQEUfAueGoSTYbgMMzhmZ4CA0_l2q4qimFBcKImgtMqVU89UlhE67QbxClaY8t15gyYf_H3TmY5wr55rGXnPzjg0HRJp95cmnM3JETqDBNjnyGkcSaKPgGgiEDNNzQ1IOZFweIXqkgDZk3y_qxoNAgqsl99nYK0Y-IiZVD26Z2Ks8AbLYGoWRxsnaQ_0EtvtHMcdIwAbCrFv9TIvyg11l5QCCX-Ug06OtBatiqR4DTCUZe_VE9zPpK6u3exHk54svlM1d5fhMPrvbr-8ZrVU9RB5U_R3bQdaAyXfsu7qI90-51XBsyIdKSlXZyVb1z3RrcwnUpw5GPqrEBECQtgpps7wUfHT2EFnEFL5-THHYzL9tzaBVU2fCIzYi54d00PPh3YcxQ_GfphltiAxRUXxDfZXrMSUujtc02-DuZixhcnvB_y-SdSwGLIzDaRyXklul]--></g></svg>