<?xml version="1.0" encoding="us-ascii" standalone="no"?><svg xmlns="http://www.w3.org/2000/svg" xmlns:xlink="http://www.w3.org/1999/xlink" contentStyleType="text/css" height="1079px" preserveAspectRatio="none" style="width:945px;height:1079px;background:#FFFFFF;" version="1.1" viewBox="0 0 945 1079" width="945px" zoomAndPan="magnify"><defs/><g><text fill="#000000" font-family="sans-serif" font-size="14" font-weight="bold" lengthAdjust="spacing" textLength="503" x="219.625" y="33.0059">UC_GestionarCategoriasCRUDAdmin (A&#241;adir Requisito): Activity Diagram</text><ellipse cx="395.125" cy="57.7999" fill="#222222" rx="10" ry="10" style="stroke:#222222;stroke-width:1.0;"/><rect fill="#F1F1F1" height="34.4001" rx="12.5" ry="12.5" style="stroke:#181818;stroke-width:0.5;" width="234" x="278.125" y="87.7999"/><text fill="#000000" font-family="sans-serif" font-size="12" lengthAdjust="spacing" textLength="214" x="288.125" y="108.948">Admin navega a Gesti&#243;n de Categor&#237;as</text><rect fill="#F1F1F1" height="34.4001" rx="12.5" ry="12.5" style="stroke:#181818;stroke-width:0.5;" width="271" x="259.625" y="142.2"/><text fill="#000000" font-family="sans-serif" font-size="12" lengthAdjust="spacing" textLength="251" x="269.625" y="163.3481">Sistema muestra lista de categor&#237;as existentes</text><rect fill="#F1F1F1" height="34.4001" rx="12.5" ry="12.5" style="stroke:#181818;stroke-width:0.5;" width="392" x="199.125" y="196.6001"/><text fill="#000000" font-family="sans-serif" font-size="12" lengthAdjust="spacing" textLength="372" x="209.125" y="217.7482">Admin selecciona una Categor&#237;a Objetivo y hace clic en "Requisitos"</text><rect fill="#F1F1F1" height="34.4001" rx="12.5" ry="12.5" style="stroke:#181818;stroke-width:0.5;" width="381" x="204.625" y="251.0002"/><text fill="#000000" font-family="sans-serif" font-size="12" lengthAdjust="spacing" textLength="361" x="214.625" y="272.1483">Sistema muestra Di&#225;logo de Requisitos para la Categor&#237;a Objetivo</text><rect fill="#F1F1F1" height="34.4001" rx="12.5" ry="12.5" style="stroke:#181818;stroke-width:0.5;" width="504" x="143.125" y="305.4003"/><text fill="#000000" font-family="sans-serif" font-size="12" lengthAdjust="spacing" textLength="484" x="153.125" y="326.5484">Sistema carga y muestra requisitos actuales y lista de todas las categor&#237;as (para selector)</text><rect fill="#F1F1F1" height="48.8002" rx="12.5" ry="12.5" style="stroke:#181818;stroke-width:0.5;" width="330" x="230.125" y="359.8004"/><text fill="#000000" font-family="sans-serif" font-size="12" lengthAdjust="spacing" textLength="270" x="240.125" y="380.9485">Admin, en el formulario "A&#241;adir Nuevo Requisito":</text><text fill="#000000" font-family="sans-serif" font-size="12" lengthAdjust="spacing" textLength="304" x="246.125" y="395.3486">:Selecciona una "Categor&#237;a Prerrequisito" del dropdown</text><rect fill="#F1F1F1" height="34.4001" rx="12.5" ry="12.5" style="stroke:#181818;stroke-width:0.5;" width="276" x="257.125" y="428.6006"/><text fill="#000000" font-family="sans-serif" font-size="12" lengthAdjust="spacing" textLength="256" x="267.125" y="449.7487">Selecciona un "Nivel Requerido" del dropdown</text><rect fill="#F1F1F1" height="34.4001" rx="12.5" ry="12.5" style="stroke:#181818;stroke-width:0.5;" width="225" x="282.625" y="483.0007"/><text fill="#000000" font-family="sans-serif" font-size="12" lengthAdjust="spacing" textLength="205" x="292.625" y="504.1488">Admin hace clic en "A&#241;adir Requisito"</text><rect fill="#F1F1F1" height="34.4001" rx="12.5" ry="12.5" style="stroke:#181818;stroke-width:0.5;" width="347" x="221.625" y="537.4008"/><text fill="#000000" font-family="sans-serif" font-size="12" lengthAdjust="spacing" textLength="327" x="231.625" y="558.5489">Validar datos de entrada (frontend - Zod: IDs seleccionados)</text><polygon fill="#F1F1F1" points="355.125,591.8009,435.125,591.8009,447.125,603.8009,435.125,615.8009,355.125,615.8009,343.125,603.8009,355.125,591.8009" style="stroke:#181818;stroke-width:0.5;"/><text fill="#000000" font-family="sans-serif" font-size="11" lengthAdjust="spacing" textLength="80" x="355.125" y="607.4199">Datos inv&#225;lidos?</text><text fill="#000000" font-family="sans-serif" font-size="11" lengthAdjust="spacing" textLength="9" x="334.125" y="600.82">s&#237;</text><text fill="#000000" font-family="sans-serif" font-size="11" lengthAdjust="spacing" textLength="12" x="447.125" y="600.82">no</text><rect fill="#F1F1F1" height="34.4001" rx="12.5" ry="12.5" style="stroke:#181818;stroke-width:0.5;" width="305" x="11" y="625.8009"/><text fill="#000000" font-family="sans-serif" font-size="12" lengthAdjust="spacing" textLength="285" x="21" y="646.949">Mostrar mensaje de error en formulario de requisitos</text><rect fill="#F1F1F1" height="34.4001" rx="12.5" ry="12.5" style="stroke:#181818;stroke-width:0.5;" width="565" x="344.25" y="625.8009"/><text fill="#000000" font-family="sans-serif" font-size="12" lengthAdjust="spacing" textLength="545" x="354.25" y="646.949">Construir payload del requisito (ID Cat. Objetivo, ID Cat. Prerrequisito, Nivel Requerido, Descripci&#243;n)</text><rect fill="#F1F1F1" height="34.4001" rx="12.5" ry="12.5" style="stroke:#181818;stroke-width:0.5;" width="323" x="465.25" y="680.201"/><text fill="#000000" font-family="sans-serif" font-size="12" lengthAdjust="spacing" textLength="303" x="475.25" y="701.3491">Sistema env&#237;a datos del nuevo requisito al Backend API</text><polygon fill="#F1F1F1" points="556.25,734.6011,697.25,734.6011,709.25,746.6011,697.25,758.6011,556.25,758.6011,544.25,746.6011,556.25,734.6011" style="stroke:#181818;stroke-width:0.5;"/><text fill="#000000" font-family="sans-serif" font-size="11" lengthAdjust="spacing" textLength="141" x="556.25" y="750.2201">Adici&#243;n Exitosa en Backend?</text><text fill="#000000" font-family="sans-serif" font-size="11" lengthAdjust="spacing" textLength="9" x="535.25" y="743.6202">s&#237;</text><text fill="#000000" font-family="sans-serif" font-size="11" lengthAdjust="spacing" textLength="224" x="709.25" y="743.6202">no - error en backend, e.g., requisito ya existe</text><rect fill="#F1F1F1" height="34.4001" rx="12.5" ry="12.5" style="stroke:#181818;stroke-width:0.5;" width="241" x="373" y="768.6011"/><text fill="#000000" font-family="sans-serif" font-size="12" lengthAdjust="spacing" textLength="221" x="383" y="789.7492">Backend API crea el registro de requisito</text><rect fill="#F1F1F1" height="34.4001" rx="12.5" ry="12.5" style="stroke:#181818;stroke-width:0.5;" width="198" x="394.5" y="823.0012"/><text fill="#000000" font-family="sans-serif" font-size="12" lengthAdjust="spacing" textLength="178" x="404.5" y="844.1493">Mostrar mensaje de &#233;xito (Toast)</text><rect fill="#F1F1F1" height="34.4001" rx="12.5" ry="12.5" style="stroke:#181818;stroke-width:0.5;" width="295" x="346" y="877.4013"/><text fill="#000000" font-family="sans-serif" font-size="12" lengthAdjust="spacing" textLength="275" x="356" y="898.5494">Actualizar lista de requisitos actuales en el di&#225;logo</text><rect fill="#F1F1F1" height="34.4001" rx="12.5" ry="12.5" style="stroke:#181818;stroke-width:0.5;" width="277" x="355" y="931.8014"/><text fill="#000000" font-family="sans-serif" font-size="12" lengthAdjust="spacing" textLength="257" x="365" y="952.9495">Limpiar formulario de "A&#241;adir Nuevo Requisito"</text><rect fill="#F1F1F1" height="34.4001" rx="12.5" ry="12.5" style="stroke:#181818;stroke-width:0.5;" width="161" x="679.5" y="768.6011"/><text fill="#000000" font-family="sans-serif" font-size="12" lengthAdjust="spacing" textLength="141" x="689.5" y="789.7492">Backend API retorna error</text><rect fill="#F1F1F1" height="34.4001" rx="12.5" ry="12.5" style="stroke:#181818;stroke-width:0.5;" width="198" x="661" y="823.0012"/><text fill="#000000" font-family="sans-serif" font-size="12" lengthAdjust="spacing" textLength="178" x="671" y="844.1493">Mostrar mensaje de error (Toast)</text><polygon fill="#F1F1F1" points="626.75,972.2015,638.75,984.2015,626.75,996.2015,614.75,984.2015,626.75,972.2015" style="stroke:#181818;stroke-width:0.5;"/><polygon fill="#F1F1F1" points="395.125,1002.2015,407.125,1014.2015,395.125,1026.2015,383.125,1014.2015,395.125,1002.2015" style="stroke:#181818;stroke-width:0.5;"/><ellipse cx="395.125" cy="1057.2015" fill="none" rx="11" ry="11" style="stroke:#222222;stroke-width:1.0;"/><ellipse cx="395.125" cy="1057.2015" fill="#222222" rx="6" ry="6" style="stroke:#222222;stroke-width:1.0;"/><line style="stroke:#181818;stroke-width:1.0;" x1="395.125" x2="395.125" y1="67.7999" y2="87.7999"/><polygon fill="#181818" points="391.125,77.7999,395.125,87.7999,399.125,77.7999,395.125,81.7999" style="stroke:#181818;stroke-width:1.0;"/><line style="stroke:#181818;stroke-width:1.0;" x1="395.125" x2="395.125" y1="122.2" y2="142.2"/><polygon fill="#181818" points="391.125,132.2,395.125,142.2,399.125,132.2,395.125,136.2" style="stroke:#181818;stroke-width:1.0;"/><line style="stroke:#181818;stroke-width:1.0;" x1="395.125" x2="395.125" y1="176.6001" y2="196.6001"/><polygon fill="#181818" points="391.125,186.6001,395.125,196.6001,399.125,186.6001,395.125,190.6001" style="stroke:#181818;stroke-width:1.0;"/><line style="stroke:#181818;stroke-width:1.0;" x1="395.125" x2="395.125" y1="231.0002" y2="251.0002"/><polygon fill="#181818" points="391.125,241.0002,395.125,251.0002,399.125,241.0002,395.125,245.0002" style="stroke:#181818;stroke-width:1.0;"/><line style="stroke:#181818;stroke-width:1.0;" x1="395.125" x2="395.125" y1="285.4003" y2="305.4003"/><polygon fill="#181818" points="391.125,295.4003,395.125,305.4003,399.125,295.4003,395.125,299.4003" style="stroke:#181818;stroke-width:1.0;"/><line style="stroke:#181818;stroke-width:1.0;" x1="395.125" x2="395.125" y1="339.8004" y2="359.8004"/><polygon fill="#181818" points="391.125,349.8004,395.125,359.8004,399.125,349.8004,395.125,353.8004" style="stroke:#181818;stroke-width:1.0;"/><line style="stroke:#181818;stroke-width:1.0;" x1="395.125" x2="395.125" y1="408.6006" y2="428.6006"/><polygon fill="#181818" points="391.125,418.6006,395.125,428.6006,399.125,418.6006,395.125,422.6006" style="stroke:#181818;stroke-width:1.0;"/><line style="stroke:#181818;stroke-width:1.0;" x1="395.125" x2="395.125" y1="463.0007" y2="483.0007"/><polygon fill="#181818" points="391.125,473.0007,395.125,483.0007,399.125,473.0007,395.125,477.0007" style="stroke:#181818;stroke-width:1.0;"/><line style="stroke:#181818;stroke-width:1.0;" x1="395.125" x2="395.125" y1="517.4008" y2="537.4008"/><polygon fill="#181818" points="391.125,527.4008,395.125,537.4008,399.125,527.4008,395.125,531.4008" style="stroke:#181818;stroke-width:1.0;"/><line style="stroke:#181818;stroke-width:1.0;" x1="626.75" x2="626.75" y1="660.201" y2="680.201"/><polygon fill="#181818" points="622.75,670.201,626.75,680.201,630.75,670.201,626.75,674.201" style="stroke:#181818;stroke-width:1.0;"/><line style="stroke:#181818;stroke-width:1.0;" x1="493.5" x2="493.5" y1="803.0012" y2="823.0012"/><polygon fill="#181818" points="489.5,813.0012,493.5,823.0012,497.5,813.0012,493.5,817.0012" style="stroke:#181818;stroke-width:1.0;"/><line style="stroke:#181818;stroke-width:1.0;" x1="493.5" x2="493.5" y1="857.4013" y2="877.4013"/><polygon fill="#181818" points="489.5,867.4013,493.5,877.4013,497.5,867.4013,493.5,871.4013" style="stroke:#181818;stroke-width:1.0;"/><line style="stroke:#181818;stroke-width:1.0;" x1="493.5" x2="493.5" y1="911.8014" y2="931.8014"/><polygon fill="#181818" points="489.5,921.8014,493.5,931.8014,497.5,921.8014,493.5,925.8014" style="stroke:#181818;stroke-width:1.0;"/><line style="stroke:#181818;stroke-width:1.0;" x1="760" x2="760" y1="803.0012" y2="823.0012"/><polygon fill="#181818" points="756,813.0012,760,823.0012,764,813.0012,760,817.0012" style="stroke:#181818;stroke-width:1.0;"/><line style="stroke:#181818;stroke-width:1.0;" x1="544.25" x2="493.5" y1="746.6011" y2="746.6011"/><line style="stroke:#181818;stroke-width:1.0;" x1="493.5" x2="493.5" y1="746.6011" y2="768.6011"/><polygon fill="#181818" points="489.5,758.6011,493.5,768.6011,497.5,758.6011,493.5,762.6011" style="stroke:#181818;stroke-width:1.0;"/><line style="stroke:#181818;stroke-width:1.0;" x1="709.25" x2="760" y1="746.6011" y2="746.6011"/><line style="stroke:#181818;stroke-width:1.0;" x1="760" x2="760" y1="746.6011" y2="768.6011"/><polygon fill="#181818" points="756,758.6011,760,768.6011,764,758.6011,760,762.6011" style="stroke:#181818;stroke-width:1.0;"/><line style="stroke:#181818;stroke-width:1.0;" x1="493.5" x2="493.5" y1="966.2015" y2="984.2015"/><line style="stroke:#181818;stroke-width:1.0;" x1="493.5" x2="614.75" y1="984.2015" y2="984.2015"/><polygon fill="#181818" points="604.75,980.2015,614.75,984.2015,604.75,988.2015,608.75,984.2015" style="stroke:#181818;stroke-width:1.0;"/><line style="stroke:#181818;stroke-width:1.0;" x1="760" x2="760" y1="857.4013" y2="984.2015"/><line style="stroke:#181818;stroke-width:1.0;" x1="760" x2="638.75" y1="984.2015" y2="984.2015"/><polygon fill="#181818" points="648.75,980.2015,638.75,984.2015,648.75,988.2015,644.75,984.2015" style="stroke:#181818;stroke-width:1.0;"/><line style="stroke:#181818;stroke-width:1.0;" x1="626.75" x2="626.75" y1="714.6011" y2="734.6011"/><polygon fill="#181818" points="622.75,724.6011,626.75,734.6011,630.75,724.6011,626.75,728.6011" style="stroke:#181818;stroke-width:1.0;"/><line style="stroke:#181818;stroke-width:1.0;" x1="343.125" x2="163.5" y1="603.8009" y2="603.8009"/><line style="stroke:#181818;stroke-width:1.0;" x1="163.5" x2="163.5" y1="603.8009" y2="625.8009"/><polygon fill="#181818" points="159.5,615.8009,163.5,625.8009,167.5,615.8009,163.5,619.8009" style="stroke:#181818;stroke-width:1.0;"/><line style="stroke:#181818;stroke-width:1.0;" x1="447.125" x2="626.75" y1="603.8009" y2="603.8009"/><line style="stroke:#181818;stroke-width:1.0;" x1="626.75" x2="626.75" y1="603.8009" y2="625.8009"/><polygon fill="#181818" points="622.75,615.8009,626.75,625.8009,630.75,615.8009,626.75,619.8009" style="stroke:#181818;stroke-width:1.0;"/><line style="stroke:#181818;stroke-width:1.0;" x1="163.5" x2="163.5" y1="660.201" y2="1014.2015"/><line style="stroke:#181818;stroke-width:1.0;" x1="163.5" x2="383.125" y1="1014.2015" y2="1014.2015"/><polygon fill="#181818" points="373.125,1010.2015,383.125,1014.2015,373.125,1018.2015,377.125,1014.2015" style="stroke:#181818;stroke-width:1.0;"/><line style="stroke:#181818;stroke-width:1.0;" x1="626.75" x2="626.75" y1="996.2015" y2="1014.2015"/><line style="stroke:#181818;stroke-width:1.0;" x1="626.75" x2="407.125" y1="1014.2015" y2="1014.2015"/><polygon fill="#181818" points="417.125,1010.2015,407.125,1014.2015,417.125,1018.2015,413.125,1014.2015" style="stroke:#181818;stroke-width:1.0;"/><line style="stroke:#181818;stroke-width:1.0;" x1="395.125" x2="395.125" y1="571.8009" y2="591.8009"/><polygon fill="#181818" points="391.125,581.8009,395.125,591.8009,399.125,581.8009,395.125,585.8009" style="stroke:#181818;stroke-width:1.0;"/><line style="stroke:#181818;stroke-width:1.0;" x1="395.125" x2="395.125" y1="1026.2015" y2="1046.2015"/><polygon fill="#181818" points="391.125,1036.2015,395.125,1046.2015,399.125,1036.2015,395.125,1040.2015" style="stroke:#181818;stroke-width:1.0;"/><!--SRC=[TLJDRjD04BxxAKO-ELB80oG756A48a6f2kN01KszatJBUZVChaF2st3aq0FY4V9YpAuTnsdJWotPdldc-vbrqC4Gt2w-lICVjBF82moqTgpHBsvkoxcgjOLYVlYBIZFSq8z6UntSQ0hpAkYj3dieDQuPwopp0JbaqxR7ufRM20W9-V3FWYBem0-Fw6VPz9FsWMg4kf4IHZ3oZB6iEfK1xMAL3HGxMcXFXgegieL6hXCeVBnx867bO0_tM0cGqHMGXRmdxlCBWqjz-6tSsiNPfqhOO2HrSS0i0-XXAcHHkk_X-0I1LMZGa9UllRhWbEWoSWrr5cbQaXOSZuvYnv4-6LWvhXk3h1tanpIk6XAfFU5ycaYTcvCFo5ypSSyj5oe65BkDSZ_jx5ahv5TwAnKHdbYhPmrT6ES-FrkKQFSND5eXWy9eYJWWSJ8gX6B5JfAr2bx1LwUci2pz85tblFYWLr2KgLFRhUGaLFph4OHxcLVum-CeKl_WelCCDLcF3vI6C3kEf0RMoUjJEBECZ2Seh4iG2sS5en7o6zmRXohfxSkXM9Pn4oRz3epX-ERCs34yCMuC9VcAzQQAns1qjZeaaYIPepC6RChqD1KDlC7gU_HeVhsClT6FkT893DxkefA8SonxQeqC6m10nOIGTAs50fzRCclhBvXv-BDB7dnswCEegvkdvTQ_fBHVxakxtswmwWvPr_nUrnijdUVflBZRiUiObsnB7-vTgqsEoMGz6G-CssFtwxXW0fCSCTdoXFAow7R8GBFqwrNMtdrmc_y0]--></g></svg>