<?xml version="1.0" encoding="us-ascii" standalone="no"?><svg xmlns="http://www.w3.org/2000/svg" xmlns:xlink="http://www.w3.org/1999/xlink" contentStyleType="text/css" height="1314px" preserveAspectRatio="none" style="width:2839px;height:1314px;background:#FFFFFF;" version="1.1" viewBox="0 0 2839 1314" width="2839px" zoomAndPan="magnify"><defs/><g><text fill="#000000" font-family="sans-serif" font-size="14" font-weight="bold" lengthAdjust="spacing" textLength="519" x="1161.25" y="28.0059">UC_GestionarCategoriasCRUDAdmin (A&#241;adir Requisito): Sequence Diagram</text><rect fill="#FFFFFF" height="1072.0002" style="stroke:#181818;stroke-width:1.0;" width="10" x="366" y="151.1999"/><rect fill="#FFFFFF" height="983.2002" style="stroke:#181818;stroke-width:1.0;" width="10" x="905" y="239.9999"/><rect fill="#FFFFFF" height="571.8001" style="stroke:#181818;stroke-width:1.0;" width="10" x="1692" y="586.6001"/><rect fill="#FFFFFF" height="542.2001" style="stroke:#181818;stroke-width:1.0;" width="10" x="2114" y="616.2001"/><rect fill="#FFFFFF" height="29.6" style="stroke:#181818;stroke-width:1.0;" width="10" x="2260" y="645.8001"/><rect fill="#FFFFFF" height="453.4001" style="stroke:#181818;stroke-width:1.0;" width="10" x="2520" y="705.0001"/><rect fill="#FFFFFF" height="29.6" style="stroke:#181818;stroke-width:1.0;" width="10" x="2648" y="907.6002"/><rect fill="#FFFFFF" height="30" style="stroke:#181818;stroke-width:1.0;" width="10" x="2762" y="848.0002"/><rect fill="#FFFFFF" height="30" style="stroke:#181818;stroke-width:1.0;" width="10" x="2762" y="1113.4002"/><rect fill="none" height="668.8001" style="stroke:#000000;stroke-width:1.5;" width="2057" x="775.5" y="547.4"/><rect fill="none" height="431.4001" style="stroke:#000000;stroke-width:1.5;" width="2037" x="785.5" y="720.0001"/><line style="stroke:#181818;stroke-width:0.5;stroke-dasharray:5.0,5.0;" x1="28" x2="28" y1="119.5999" y2="1233.2001"/><line style="stroke:#181818;stroke-width:0.5;stroke-dasharray:5.0,5.0;" x1="370.5" x2="370.5" y1="119.5999" y2="1233.2001"/><line style="stroke:#181818;stroke-width:0.5;stroke-dasharray:5.0,5.0;" x1="682.5" x2="682.5" y1="119.5999" y2="1233.2001"/><line style="stroke:#181818;stroke-width:0.5;stroke-dasharray:5.0,5.0;" x1="909.5" x2="909.5" y1="119.5999" y2="1233.2001"/><line style="stroke:#181818;stroke-width:0.5;stroke-dasharray:5.0,5.0;" x1="1303" x2="1303" y1="119.5999" y2="1233.2001"/><line style="stroke:#181818;stroke-width:0.5;stroke-dasharray:5.0,5.0;" x1="1494" x2="1494" y1="119.5999" y2="1233.2001"/><line style="stroke:#181818;stroke-width:0.5;stroke-dasharray:5.0,5.0;" x1="1697" x2="1697" y1="119.5999" y2="1233.2001"/><line style="stroke:#181818;stroke-width:0.5;stroke-dasharray:5.0,5.0;" x1="2118.5" x2="2118.5" y1="119.5999" y2="1233.2001"/><line style="stroke:#181818;stroke-width:0.5;stroke-dasharray:5.0,5.0;" x1="2265" x2="2265" y1="119.5999" y2="1233.2001"/><line style="stroke:#181818;stroke-width:0.5;stroke-dasharray:5.0,5.0;" x1="2524.5" x2="2524.5" y1="119.5999" y2="1233.2001"/><line style="stroke:#181818;stroke-width:0.5;stroke-dasharray:5.0,5.0;" x1="2652.5" x2="2652.5" y1="119.5999" y2="1233.2001"/><line style="stroke:#181818;stroke-width:0.5;stroke-dasharray:5.0,5.0;" x1="2766.5" x2="2766.5" y1="119.5999" y2="1233.2001"/><text fill="#000000" font-family="sans-serif" font-size="14" lengthAdjust="spacing" textLength="40" x="5" y="115.8059">Admin</text><ellipse cx="28" cy="51.2999" fill="#E2E2F0" rx="8" ry="8" style="stroke:#181818;stroke-width:0.5;"/><path d="M28,59.2999 L28,86.2999 M15,67.2999 L41,67.2999 M28,86.2999 L15,101.2999 M28,86.2999 L41,101.2999 " fill="none" style="stroke:#181818;stroke-width:0.5;"/><text fill="#000000" font-family="sans-serif" font-size="14" lengthAdjust="spacing" textLength="40" x="5" y="1245.206">Admin</text><ellipse cx="28" cy="1257.5" fill="#E2E2F0" rx="8" ry="8" style="stroke:#181818;stroke-width:0.5;"/><path d="M28,1265.5 L28,1292.5 M15,1273.5 L41,1273.5 M28,1292.5 L15,1307.5 M28,1292.5 L41,1307.5 " fill="none" style="stroke:#181818;stroke-width:0.5;"/><rect fill="#E2E2F0" height="36" rx="2.5" ry="2.5" style="stroke:#181818;stroke-width:0.5;" width="217" x="262.5" y="82.5999"/><ellipse cx="280.5" cy="100.5999" fill="#DA70D6" rx="11" ry="11" style="stroke:#181818;stroke-width:1.0;"/><path d="M278.3594,101.9905 L279.9375,101.9905 C280.6094,102.2405 282.0938,103.9124 282.9688,105.4905 L283.0313,105.5999 L284.4063,105.5999 C284.7344,105.5999 285.0156,105.553 285.1563,105.4749 C285.4219,105.3186 285.5938,105.0217 285.5938,104.7092 C285.5938,104.4436 285.4375,104.1624 285.2188,104.0061 C285.0313,103.8655 284.8594,103.8342 284.4063,103.8342 L284.2188,103.8342 C283.5625,102.8499 282.8906,102.053 282.1563,101.4124 C283.3594,100.7874 283.9375,99.9905 283.9375,98.9592 C283.9375,97.2249 282.3906,96.0061 280.1406,96.0061 L276.3438,96.0061 C275.8906,96.0061 275.7656,96.0217 275.5938,96.1311 C275.3281,96.303 275.1563,96.5842 275.1563,96.8811 C275.1563,97.1624 275.3125,97.4436 275.5313,97.5999 C275.7188,97.7249 275.9063,97.7561 276.3438,97.7561 L276.5313,97.7561 L276.5313,103.8342 L276.3438,103.8342 C275.9219,103.8342 275.7656,103.8655 275.5938,103.9749 C275.3281,104.1155 275.1563,104.4124 275.1563,104.7092 C275.1563,105.2874 275.5625,105.5999 276.3438,105.5999 L278.8906,105.5999 C279.25,105.5999 279.5,105.553 279.6406,105.4749 C279.9063,105.3186 280.0781,105.0217 280.0781,104.7092 C280.0781,104.4436 279.9531,104.178 279.7031,104.0061 C279.5156,103.8655 279.375,103.8342 278.8906,103.8342 L278.3594,103.8342 L278.3594,101.9905 Z M278.3594,100.2405 L278.3594,97.7561 L280.2031,97.7561 C281.2344,97.7561 282,98.2405 282,98.8967 C282,99.678 280.9844,100.2405 279.5938,100.2405 L278.3594,100.2405 Z " fill="#000000"/><text fill="#000000" font-family="sans-serif" font-size="14" lengthAdjust="spacing" textLength="175" x="297.5" y="102.6058">CategoryManagementPage</text><rect fill="#E2E2F0" height="36" rx="2.5" ry="2.5" style="stroke:#181818;stroke-width:0.5;" width="217" x="262.5" y="1232.2001"/><ellipse cx="280.5" cy="1250.2001" fill="#DA70D6" rx="11" ry="11" style="stroke:#181818;stroke-width:1.0;"/><path d="M278.3594,1251.5907 L279.9375,1251.5907 C280.6094,1251.8407 282.0938,1253.5126 282.9688,1255.0907 L283.0313,1255.2001 L284.4063,1255.2001 C284.7344,1255.2001 285.0156,1255.1532 285.1563,1255.0751 C285.4219,1254.9188 285.5938,1254.622 285.5938,1254.3095 C285.5938,1254.0438 285.4375,1253.7626 285.2188,1253.6063 C285.0313,1253.4657 284.8594,1253.4345 284.4063,1253.4345 L284.2188,1253.4345 C283.5625,1252.4501 282.8906,1251.6532 282.1563,1251.0126 C283.3594,1250.3876 283.9375,1249.5907 283.9375,1248.5595 C283.9375,1246.8251 282.3906,1245.6063 280.1406,1245.6063 L276.3438,1245.6063 C275.8906,1245.6063 275.7656,1245.622 275.5938,1245.7313 C275.3281,1245.9032 275.1563,1246.1845 275.1563,1246.4813 C275.1563,1246.7626 275.3125,1247.0438 275.5313,1247.2001 C275.7188,1247.3251 275.9063,1247.3563 276.3438,1247.3563 L276.5313,1247.3563 L276.5313,1253.4345 L276.3438,1253.4345 C275.9219,1253.4345 275.7656,1253.4657 275.5938,1253.5751 C275.3281,1253.7157 275.1563,1254.0126 275.1563,1254.3095 C275.1563,1254.8876 275.5625,1255.2001 276.3438,1255.2001 L278.8906,1255.2001 C279.25,1255.2001 279.5,1255.1532 279.6406,1255.0751 C279.9063,1254.9188 280.0781,1254.622 280.0781,1254.3095 C280.0781,1254.0438 279.9531,1253.7782 279.7031,1253.6063 C279.5156,1253.4657 279.375,1253.4345 278.8906,1253.4345 L278.3594,1253.4345 L278.3594,1251.5907 Z M278.3594,1249.8407 L278.3594,1247.3563 L280.2031,1247.3563 C281.2344,1247.3563 282,1247.8407 282,1248.497 C282,1249.2782 280.9844,1249.8407 279.5938,1249.8407 L278.3594,1249.8407 Z " fill="#000000"/><text fill="#000000" font-family="sans-serif" font-size="14" lengthAdjust="spacing" textLength="175" x="297.5" y="1252.206">CategoryManagementPage</text><rect fill="#E2E2F0" height="36" rx="2.5" ry="2.5" style="stroke:#181818;stroke-width:0.5;" width="205" x="580.5" y="82.5999"/><ellipse cx="598.5" cy="100.5999" fill="#D3D3D3" rx="11" ry="11" style="stroke:#181818;stroke-width:1.0;"/><path d="M593.5,101.7561 C593.5,104.2561 595.6406,106.0686 598.5625,106.0686 C599.7969,106.0686 600.9688,105.7717 601.7188,105.2561 C602.3281,104.8342 602.6563,104.4124 602.6563,104.0061 C602.6563,103.5374 602.2344,103.1311 601.7344,103.1311 C601.5,103.1311 601.2813,103.2092 601.0781,103.4124 C600.6406,103.8499 600.6406,103.8499 600.4688,103.9436 C600.0156,104.178 599.375,104.3186 598.6094,104.3186 C596.6094,104.3186 595.3281,103.303 595.3281,101.7249 L595.3281,100.678 C595.3281,98.9749 596.5469,97.7717 598.25,97.7717 C598.8281,97.7717 599.4063,97.9124 599.875,98.1624 C600.3438,98.428 600.5156,98.6155 600.5781,98.9749 C600.7031,99.6467 600.9531,99.8967 601.4844,99.8967 C601.7656,99.8967 602.0469,99.7561 602.2344,99.5374 C602.3594,99.3655 602.4063,99.1936 602.4063,98.7561 L602.4063,97.3967 C602.4063,96.9749 602.3906,96.8342 602.2656,96.6624 C602.0938,96.4124 601.8125,96.2561 601.4844,96.2561 C601.1719,96.2561 600.9688,96.3655 600.75,96.6311 C599.5781,96.1311 599.1406,96.0217 598.1875,96.0217 C595.5156,96.0217 593.5,98.0374 593.5,100.6624 L593.5,101.7561 Z " fill="#000000"/><text fill="#000000" font-family="sans-serif" font-size="14" lengthAdjust="spacing" textLength="163" x="615.5" y="102.6058">CategoryComponentCard</text><rect fill="#E2E2F0" height="36" rx="2.5" ry="2.5" style="stroke:#181818;stroke-width:0.5;" width="205" x="580.5" y="1232.2001"/><ellipse cx="598.5" cy="1250.2001" fill="#D3D3D3" rx="11" ry="11" style="stroke:#181818;stroke-width:1.0;"/><path d="M593.5,1251.3563 C593.5,1253.8563 595.6406,1255.6688 598.5625,1255.6688 C599.7969,1255.6688 600.9688,1255.372 601.7188,1254.8563 C602.3281,1254.4345 602.6563,1254.0126 602.6563,1253.6063 C602.6563,1253.1376 602.2344,1252.7313 601.7344,1252.7313 C601.5,1252.7313 601.2813,1252.8095 601.0781,1253.0126 C600.6406,1253.4501 600.6406,1253.4501 600.4688,1253.5438 C600.0156,1253.7782 599.375,1253.9188 598.6094,1253.9188 C596.6094,1253.9188 595.3281,1252.9032 595.3281,1251.3251 L595.3281,1250.2782 C595.3281,1248.5751 596.5469,1247.372 598.25,1247.372 C598.8281,1247.372 599.4063,1247.5126 599.875,1247.7626 C600.3438,1248.0282 600.5156,1248.2157 600.5781,1248.5751 C600.7031,1249.247 600.9531,1249.497 601.4844,1249.497 C601.7656,1249.497 602.0469,1249.3563 602.2344,1249.1376 C602.3594,1248.9657 602.4063,1248.7938 602.4063,1248.3563 L602.4063,1246.997 C602.4063,1246.5751 602.3906,1246.4345 602.2656,1246.2626 C602.0938,1246.0126 601.8125,1245.8563 601.4844,1245.8563 C601.1719,1245.8563 600.9688,1245.9657 600.75,1246.2313 C599.5781,1245.7313 599.1406,1245.622 598.1875,1245.622 C595.5156,1245.622 593.5,1247.6376 593.5,1250.2626 L593.5,1251.3563 Z " fill="#000000"/><text fill="#000000" font-family="sans-serif" font-size="14" lengthAdjust="spacing" textLength="163" x="615.5" y="1252.206">CategoryComponentCard</text><rect fill="#E2E2F0" height="36" rx="2.5" ry="2.5" style="stroke:#181818;stroke-width:0.5;" width="229" x="795.5" y="82.5999"/><ellipse cx="813.5" cy="100.5999" fill="#D3D3D3" rx="11" ry="11" style="stroke:#181818;stroke-width:1.0;"/><path d="M808.5,101.7561 C808.5,104.2561 810.6406,106.0686 813.5625,106.0686 C814.7969,106.0686 815.9688,105.7717 816.7188,105.2561 C817.3281,104.8342 817.6563,104.4124 817.6563,104.0061 C817.6563,103.5374 817.2344,103.1311 816.7344,103.1311 C816.5,103.1311 816.2813,103.2092 816.0781,103.4124 C815.6406,103.8499 815.6406,103.8499 815.4688,103.9436 C815.0156,104.178 814.375,104.3186 813.6094,104.3186 C811.6094,104.3186 810.3281,103.303 810.3281,101.7249 L810.3281,100.678 C810.3281,98.9749 811.5469,97.7717 813.25,97.7717 C813.8281,97.7717 814.4063,97.9124 814.875,98.1624 C815.3438,98.428 815.5156,98.6155 815.5781,98.9749 C815.7031,99.6467 815.9531,99.8967 816.4844,99.8967 C816.7656,99.8967 817.0469,99.7561 817.2344,99.5374 C817.3594,99.3655 817.4063,99.1936 817.4063,98.7561 L817.4063,97.3967 C817.4063,96.9749 817.3906,96.8342 817.2656,96.6624 C817.0938,96.4124 816.8125,96.2561 816.4844,96.2561 C816.1719,96.2561 815.9688,96.3655 815.75,96.6311 C814.5781,96.1311 814.1406,96.0217 813.1875,96.0217 C810.5156,96.0217 808.5,98.0374 808.5,100.6624 L808.5,101.7561 Z " fill="#000000"/><text fill="#000000" font-family="sans-serif" font-size="14" lengthAdjust="spacing" textLength="187" x="830.5" y="102.6058">CategoryRequirementsDialog</text><rect fill="#E2E2F0" height="36" rx="2.5" ry="2.5" style="stroke:#181818;stroke-width:0.5;" width="229" x="795.5" y="1232.2001"/><ellipse cx="813.5" cy="1250.2001" fill="#D3D3D3" rx="11" ry="11" style="stroke:#181818;stroke-width:1.0;"/><path d="M808.5,1251.3563 C808.5,1253.8563 810.6406,1255.6688 813.5625,1255.6688 C814.7969,1255.6688 815.9688,1255.372 816.7188,1254.8563 C817.3281,1254.4345 817.6563,1254.0126 817.6563,1253.6063 C817.6563,1253.1376 817.2344,1252.7313 816.7344,1252.7313 C816.5,1252.7313 816.2813,1252.8095 816.0781,1253.0126 C815.6406,1253.4501 815.6406,1253.4501 815.4688,1253.5438 C815.0156,1253.7782 814.375,1253.9188 813.6094,1253.9188 C811.6094,1253.9188 810.3281,1252.9032 810.3281,1251.3251 L810.3281,1250.2782 C810.3281,1248.5751 811.5469,1247.372 813.25,1247.372 C813.8281,1247.372 814.4063,1247.5126 814.875,1247.7626 C815.3438,1248.0282 815.5156,1248.2157 815.5781,1248.5751 C815.7031,1249.247 815.9531,1249.497 816.4844,1249.497 C816.7656,1249.497 817.0469,1249.3563 817.2344,1249.1376 C817.3594,1248.9657 817.4063,1248.7938 817.4063,1248.3563 L817.4063,1246.997 C817.4063,1246.5751 817.3906,1246.4345 817.2656,1246.2626 C817.0938,1246.0126 816.8125,1245.8563 816.4844,1245.8563 C816.1719,1245.8563 815.9688,1245.9657 815.75,1246.2313 C814.5781,1245.7313 814.1406,1245.622 813.1875,1245.622 C810.5156,1245.622 808.5,1247.6376 808.5,1250.2626 L808.5,1251.3563 Z " fill="#000000"/><text fill="#000000" font-family="sans-serif" font-size="14" lengthAdjust="spacing" textLength="187" x="830.5" y="1252.206">CategoryRequirementsDialog</text><rect fill="#E2E2F0" height="36" rx="2.5" ry="2.5" style="stroke:#181818;stroke-width:0.5;" width="152" x="1227" y="82.5999"/><ellipse cx="1245" cy="100.5999" fill="#D3D3D3" rx="11" ry="11" style="stroke:#181818;stroke-width:1.0;"/><path d="M1240,101.7561 C1240,104.2561 1242.1406,106.0686 1245.0625,106.0686 C1246.2969,106.0686 1247.4688,105.7717 1248.2188,105.2561 C1248.8281,104.8342 1249.1563,104.4124 1249.1563,104.0061 C1249.1563,103.5374 1248.7344,103.1311 1248.2344,103.1311 C1248,103.1311 1247.7813,103.2092 1247.5781,103.4124 C1247.1406,103.8499 1247.1406,103.8499 1246.9688,103.9436 C1246.5156,104.178 1245.875,104.3186 1245.1094,104.3186 C1243.1094,104.3186 1241.8281,103.303 1241.8281,101.7249 L1241.8281,100.678 C1241.8281,98.9749 1243.0469,97.7717 1244.75,97.7717 C1245.3281,97.7717 1245.9063,97.9124 1246.375,98.1624 C1246.8438,98.428 1247.0156,98.6155 1247.0781,98.9749 C1247.2031,99.6467 1247.4531,99.8967 1247.9844,99.8967 C1248.2656,99.8967 1248.5469,99.7561 1248.7344,99.5374 C1248.8594,99.3655 1248.9063,99.1936 1248.9063,98.7561 L1248.9063,97.3967 C1248.9063,96.9749 1248.8906,96.8342 1248.7656,96.6624 C1248.5938,96.4124 1248.3125,96.2561 1247.9844,96.2561 C1247.6719,96.2561 1247.4688,96.3655 1247.25,96.6311 C1246.0781,96.1311 1245.6406,96.0217 1244.6875,96.0217 C1242.0156,96.0217 1240,98.0374 1240,100.6624 L1240,101.7561 Z " fill="#000000"/><text fill="#000000" font-family="sans-serif" font-size="14" lengthAdjust="spacing" textLength="110" x="1262" y="102.6058">CategorySelector</text><rect fill="#E2E2F0" height="36" rx="2.5" ry="2.5" style="stroke:#181818;stroke-width:0.5;" width="152" x="1227" y="1232.2001"/><ellipse cx="1245" cy="1250.2001" fill="#D3D3D3" rx="11" ry="11" style="stroke:#181818;stroke-width:1.0;"/><path d="M1240,1251.3563 C1240,1253.8563 1242.1406,1255.6688 1245.0625,1255.6688 C1246.2969,1255.6688 1247.4688,1255.372 1248.2188,1254.8563 C1248.8281,1254.4345 1249.1563,1254.0126 1249.1563,1253.6063 C1249.1563,1253.1376 1248.7344,1252.7313 1248.2344,1252.7313 C1248,1252.7313 1247.7813,1252.8095 1247.5781,1253.0126 C1247.1406,1253.4501 1247.1406,1253.4501 1246.9688,1253.5438 C1246.5156,1253.7782 1245.875,1253.9188 1245.1094,1253.9188 C1243.1094,1253.9188 1241.8281,1252.9032 1241.8281,1251.3251 L1241.8281,1250.2782 C1241.8281,1248.5751 1243.0469,1247.372 1244.75,1247.372 C1245.3281,1247.372 1245.9063,1247.5126 1246.375,1247.7626 C1246.8438,1248.0282 1247.0156,1248.2157 1247.0781,1248.5751 C1247.2031,1249.247 1247.4531,1249.497 1247.9844,1249.497 C1248.2656,1249.497 1248.5469,1249.3563 1248.7344,1249.1376 C1248.8594,1248.9657 1248.9063,1248.7938 1248.9063,1248.3563 L1248.9063,1246.997 C1248.9063,1246.5751 1248.8906,1246.4345 1248.7656,1246.2626 C1248.5938,1246.0126 1248.3125,1245.8563 1247.9844,1245.8563 C1247.6719,1245.8563 1247.4688,1245.9657 1247.25,1246.2313 C1246.0781,1245.7313 1245.6406,1245.622 1244.6875,1245.622 C1242.0156,1245.622 1240,1247.6376 1240,1250.2626 L1240,1251.3563 Z " fill="#000000"/><text fill="#000000" font-family="sans-serif" font-size="14" lengthAdjust="spacing" textLength="110" x="1262" y="1252.206">CategorySelector</text><rect fill="#E2E2F0" height="36" rx="2.5" ry="2.5" style="stroke:#181818;stroke-width:0.5;" width="211" x="1389" y="82.5999"/><ellipse cx="1407" cy="100.5999" fill="#D3D3D3" rx="11" ry="11" style="stroke:#181818;stroke-width:1.0;"/><path d="M1402,101.7561 C1402,104.2561 1404.1406,106.0686 1407.0625,106.0686 C1408.2969,106.0686 1409.4688,105.7717 1410.2188,105.2561 C1410.8281,104.8342 1411.1563,104.4124 1411.1563,104.0061 C1411.1563,103.5374 1410.7344,103.1311 1410.2344,103.1311 C1410,103.1311 1409.7813,103.2092 1409.5781,103.4124 C1409.1406,103.8499 1409.1406,103.8499 1408.9688,103.9436 C1408.5156,104.178 1407.875,104.3186 1407.1094,104.3186 C1405.1094,104.3186 1403.8281,103.303 1403.8281,101.7249 L1403.8281,100.678 C1403.8281,98.9749 1405.0469,97.7717 1406.75,97.7717 C1407.3281,97.7717 1407.9063,97.9124 1408.375,98.1624 C1408.8438,98.428 1409.0156,98.6155 1409.0781,98.9749 C1409.2031,99.6467 1409.4531,99.8967 1409.9844,99.8967 C1410.2656,99.8967 1410.5469,99.7561 1410.7344,99.5374 C1410.8594,99.3655 1410.9063,99.1936 1410.9063,98.7561 L1410.9063,97.3967 C1410.9063,96.9749 1410.8906,96.8342 1410.7656,96.6624 C1410.5938,96.4124 1410.3125,96.2561 1409.9844,96.2561 C1409.6719,96.2561 1409.4688,96.3655 1409.25,96.6311 C1408.0781,96.1311 1407.6406,96.0217 1406.6875,96.0217 C1404.0156,96.0217 1402,98.0374 1402,100.6624 L1402,101.7561 Z " fill="#000000"/><text fill="#000000" font-family="sans-serif" font-size="14" lengthAdjust="spacing" textLength="169" x="1424" y="102.6058">LevelSelect (Requirement)</text><rect fill="#E2E2F0" height="36" rx="2.5" ry="2.5" style="stroke:#181818;stroke-width:0.5;" width="211" x="1389" y="1232.2001"/><ellipse cx="1407" cy="1250.2001" fill="#D3D3D3" rx="11" ry="11" style="stroke:#181818;stroke-width:1.0;"/><path d="M1402,1251.3563 C1402,1253.8563 1404.1406,1255.6688 1407.0625,1255.6688 C1408.2969,1255.6688 1409.4688,1255.372 1410.2188,1254.8563 C1410.8281,1254.4345 1411.1563,1254.0126 1411.1563,1253.6063 C1411.1563,1253.1376 1410.7344,1252.7313 1410.2344,1252.7313 C1410,1252.7313 1409.7813,1252.8095 1409.5781,1253.0126 C1409.1406,1253.4501 1409.1406,1253.4501 1408.9688,1253.5438 C1408.5156,1253.7782 1407.875,1253.9188 1407.1094,1253.9188 C1405.1094,1253.9188 1403.8281,1252.9032 1403.8281,1251.3251 L1403.8281,1250.2782 C1403.8281,1248.5751 1405.0469,1247.372 1406.75,1247.372 C1407.3281,1247.372 1407.9063,1247.5126 1408.375,1247.7626 C1408.8438,1248.0282 1409.0156,1248.2157 1409.0781,1248.5751 C1409.2031,1249.247 1409.4531,1249.497 1409.9844,1249.497 C1410.2656,1249.497 1410.5469,1249.3563 1410.7344,1249.1376 C1410.8594,1248.9657 1410.9063,1248.7938 1410.9063,1248.3563 L1410.9063,1246.997 C1410.9063,1246.5751 1410.8906,1246.4345 1410.7656,1246.2626 C1410.5938,1246.0126 1410.3125,1245.8563 1409.9844,1245.8563 C1409.6719,1245.8563 1409.4688,1245.9657 1409.25,1246.2313 C1408.0781,1245.7313 1407.6406,1245.622 1406.6875,1245.622 C1404.0156,1245.622 1402,1247.6376 1402,1250.2626 L1402,1251.3563 Z " fill="#000000"/><text fill="#000000" font-family="sans-serif" font-size="14" lengthAdjust="spacing" textLength="169" x="1424" y="1252.206">LevelSelect (Requirement)</text><rect fill="#E2E2F0" height="47.5999" rx="2.5" ry="2.5" style="stroke:#181818;stroke-width:0.5;" width="174" x="1610" y="71"/><ellipse cx="1628" cy="89" fill="#FFFF00" rx="11" ry="11" style="stroke:#181818;stroke-width:1.0;"/><path d="M1626.8594,90.0625 L1628.1719,90.0625 L1628.1719,90.1094 C1628.1719,90.5 1628.2031,90.6875 1628.2969,90.8438 C1628.4688,91.0938 1628.7656,91.2656 1629.0781,91.2656 C1629.3594,91.2656 1629.6406,91.125 1629.8281,90.9063 C1629.9531,90.7188 1630,90.5625 1630,90.1094 L1630,88.2813 C1630,87.8594 1629.9844,87.7344 1629.8594,87.5625 C1629.7031,87.2969 1629.4063,87.125 1629.0781,87.125 C1628.7813,87.125 1628.5156,87.2656 1628.3438,87.4844 C1628.2031,87.6719 1628.1719,87.8438 1628.1719,88.2813 L1628.1719,88.3281 L1626.8594,88.3281 L1626.8594,86.1563 L1631.0781,86.1563 L1631.0781,86.9219 C1631.0781,87.3125 1631.1094,87.4844 1631.2188,87.6406 C1631.3906,87.9063 1631.6719,88.0625 1632,88.0625 C1632.2813,88.0625 1632.5625,87.9375 1632.75,87.7031 C1632.8906,87.5156 1632.9219,87.375 1632.9219,86.9219 L1632.9219,84.4063 L1624.8438,84.4063 C1624.4063,84.4063 1624.2656,84.4219 1624.0938,84.5313 C1623.8281,84.7031 1623.6563,84.9844 1623.6563,85.2813 C1623.6563,85.5625 1623.8125,85.8438 1624.0313,86 C1624.2188,86.125 1624.4063,86.1563 1624.8438,86.1563 L1625.0313,86.1563 L1625.0313,92.25 L1624.8438,92.25 C1624.4219,92.25 1624.2656,92.2813 1624.0938,92.375 C1623.8281,92.5313 1623.6563,92.8281 1623.6563,93.1094 C1623.6563,93.6875 1624.0625,94 1624.8438,94 L1628.5,94 C1629.2813,94 1629.6875,93.7188 1629.6875,93.1094 C1629.6875,92.8438 1629.5469,92.5938 1629.3125,92.4219 C1629.125,92.2813 1628.9531,92.25 1628.5,92.25 L1626.8594,92.25 L1626.8594,90.0625 Z " fill="#000000"/><text fill="#000000" font-family="sans-serif" font-size="14" lengthAdjust="spacing" textLength="132" x="1645" y="91.0059">category_backend.ts</text><text fill="#000000" font-family="sans-serif" font-size="14" lengthAdjust="spacing" textLength="116" x="1653" y="107.8059">addRequirement()</text><rect fill="#E2E2F0" height="47.5999" rx="2.5" ry="2.5" style="stroke:#181818;stroke-width:0.5;" width="174" x="1610" y="1232.2001"/><ellipse cx="1628" cy="1250.2001" fill="#FFFF00" rx="11" ry="11" style="stroke:#181818;stroke-width:1.0;"/><path d="M1626.8594,1251.2626 L1628.1719,1251.2626 L1628.1719,1251.3095 C1628.1719,1251.7001 1628.2031,1251.8876 1628.2969,1252.0438 C1628.4688,1252.2938 1628.7656,1252.4657 1629.0781,1252.4657 C1629.3594,1252.4657 1629.6406,1252.3251 1629.8281,1252.1063 C1629.9531,1251.9188 1630,1251.7626 1630,1251.3095 L1630,1249.4813 C1630,1249.0595 1629.9844,1248.9345 1629.8594,1248.7626 C1629.7031,1248.497 1629.4063,1248.3251 1629.0781,1248.3251 C1628.7813,1248.3251 1628.5156,1248.4657 1628.3438,1248.6845 C1628.2031,1248.872 1628.1719,1249.0438 1628.1719,1249.4813 L1628.1719,1249.5282 L1626.8594,1249.5282 L1626.8594,1247.3563 L1631.0781,1247.3563 L1631.0781,1248.122 C1631.0781,1248.5126 1631.1094,1248.6845 1631.2188,1248.8407 C1631.3906,1249.1063 1631.6719,1249.2626 1632,1249.2626 C1632.2813,1249.2626 1632.5625,1249.1376 1632.75,1248.9032 C1632.8906,1248.7157 1632.9219,1248.5751 1632.9219,1248.122 L1632.9219,1245.6063 L1624.8438,1245.6063 C1624.4063,1245.6063 1624.2656,1245.622 1624.0938,1245.7313 C1623.8281,1245.9032 1623.6563,1246.1845 1623.6563,1246.4813 C1623.6563,1246.7626 1623.8125,1247.0438 1624.0313,1247.2001 C1624.2188,1247.3251 1624.4063,1247.3563 1624.8438,1247.3563 L1625.0313,1247.3563 L1625.0313,1253.4501 L1624.8438,1253.4501 C1624.4219,1253.4501 1624.2656,1253.4813 1624.0938,1253.5751 C1623.8281,1253.7313 1623.6563,1254.0282 1623.6563,1254.3095 C1623.6563,1254.8876 1624.0625,1255.2001 1624.8438,1255.2001 L1628.5,1255.2001 C1629.2813,1255.2001 1629.6875,1254.9188 1629.6875,1254.3095 C1629.6875,1254.0438 1629.5469,1253.7938 1629.3125,1253.622 C1629.125,1253.4813 1628.9531,1253.4501 1628.5,1253.4501 L1626.8594,1253.4501 L1626.8594,1251.2626 Z " fill="#000000"/><text fill="#000000" font-family="sans-serif" font-size="14" lengthAdjust="spacing" textLength="132" x="1645" y="1252.206">category_backend.ts</text><text fill="#000000" font-family="sans-serif" font-size="14" lengthAdjust="spacing" textLength="116" x="1653" y="1269.006">addRequirement()</text><rect fill="#E2E2F0" height="47.5999" rx="2.5" ry="2.5" style="stroke:#181818;stroke-width:0.5;" width="113" x="2062.5" y="71"/><ellipse cx="2080.5" cy="89" fill="#FFA500" rx="11" ry="11" style="stroke:#181818;stroke-width:1.0;"/><path d="M2079.3594,90.0625 L2080.6719,90.0625 L2080.6719,90.1094 C2080.6719,90.5 2080.7031,90.6875 2080.7969,90.8438 C2080.9688,91.0938 2081.2656,91.2656 2081.5781,91.2656 C2081.8594,91.2656 2082.1406,91.125 2082.3281,90.9063 C2082.4531,90.7188 2082.5,90.5625 2082.5,90.1094 L2082.5,88.2813 C2082.5,87.8594 2082.4844,87.7344 2082.3594,87.5625 C2082.2031,87.2969 2081.9063,87.125 2081.5781,87.125 C2081.2813,87.125 2081.0156,87.2656 2080.8438,87.4844 C2080.7031,87.6719 2080.6719,87.8438 2080.6719,88.2813 L2080.6719,88.3281 L2079.3594,88.3281 L2079.3594,86.1563 L2083.5781,86.1563 L2083.5781,86.9219 C2083.5781,87.3125 2083.6094,87.4844 2083.7188,87.6406 C2083.8906,87.9063 2084.1719,88.0625 2084.5,88.0625 C2084.7813,88.0625 2085.0625,87.9375 2085.25,87.7031 C2085.3906,87.5156 2085.4219,87.375 2085.4219,86.9219 L2085.4219,84.4063 L2077.3438,84.4063 C2076.9063,84.4063 2076.7656,84.4219 2076.5938,84.5313 C2076.3281,84.7031 2076.1563,84.9844 2076.1563,85.2813 C2076.1563,85.5625 2076.3125,85.8438 2076.5313,86 C2076.7188,86.125 2076.9063,86.1563 2077.3438,86.1563 L2077.5313,86.1563 L2077.5313,92.25 L2077.3438,92.25 C2076.9219,92.25 2076.7656,92.2813 2076.5938,92.375 C2076.3281,92.5313 2076.1563,92.8281 2076.1563,93.1094 C2076.1563,93.6875 2076.5625,94 2077.3438,94 L2081,94 C2081.7813,94 2082.1875,93.7188 2082.1875,93.1094 C2082.1875,92.8438 2082.0469,92.5938 2081.8125,92.4219 C2081.625,92.2813 2081.4531,92.25 2081,92.25 L2079.3594,92.25 L2079.3594,90.0625 Z " fill="#000000"/><text fill="#000000" font-family="sans-serif" font-size="14" lengthAdjust="spacing" textLength="40" x="2113" y="91.0059">utils.ts</text><text fill="#000000" font-family="sans-serif" font-size="14" lengthAdjust="spacing" textLength="71" x="2097.5" y="107.8059">fetchJson()</text><rect fill="#E2E2F0" height="47.5999" rx="2.5" ry="2.5" style="stroke:#181818;stroke-width:0.5;" width="113" x="2062.5" y="1232.2001"/><ellipse cx="2080.5" cy="1250.2001" fill="#FFA500" rx="11" ry="11" style="stroke:#181818;stroke-width:1.0;"/><path d="M2079.3594,1251.2626 L2080.6719,1251.2626 L2080.6719,1251.3095 C2080.6719,1251.7001 2080.7031,1251.8876 2080.7969,1252.0438 C2080.9688,1252.2938 2081.2656,1252.4657 2081.5781,1252.4657 C2081.8594,1252.4657 2082.1406,1252.3251 2082.3281,1252.1063 C2082.4531,1251.9188 2082.5,1251.7626 2082.5,1251.3095 L2082.5,1249.4813 C2082.5,1249.0595 2082.4844,1248.9345 2082.3594,1248.7626 C2082.2031,1248.497 2081.9063,1248.3251 2081.5781,1248.3251 C2081.2813,1248.3251 2081.0156,1248.4657 2080.8438,1248.6845 C2080.7031,1248.872 2080.6719,1249.0438 2080.6719,1249.4813 L2080.6719,1249.5282 L2079.3594,1249.5282 L2079.3594,1247.3563 L2083.5781,1247.3563 L2083.5781,1248.122 C2083.5781,1248.5126 2083.6094,1248.6845 2083.7188,1248.8407 C2083.8906,1249.1063 2084.1719,1249.2626 2084.5,1249.2626 C2084.7813,1249.2626 2085.0625,1249.1376 2085.25,1248.9032 C2085.3906,1248.7157 2085.4219,1248.5751 2085.4219,1248.122 L2085.4219,1245.6063 L2077.3438,1245.6063 C2076.9063,1245.6063 2076.7656,1245.622 2076.5938,1245.7313 C2076.3281,1245.9032 2076.1563,1246.1845 2076.1563,1246.4813 C2076.1563,1246.7626 2076.3125,1247.0438 2076.5313,1247.2001 C2076.7188,1247.3251 2076.9063,1247.3563 2077.3438,1247.3563 L2077.5313,1247.3563 L2077.5313,1253.4501 L2077.3438,1253.4501 C2076.9219,1253.4501 2076.7656,1253.4813 2076.5938,1253.5751 C2076.3281,1253.7313 2076.1563,1254.0282 2076.1563,1254.3095 C2076.1563,1254.8876 2076.5625,1255.2001 2077.3438,1255.2001 L2081,1255.2001 C2081.7813,1255.2001 2082.1875,1254.9188 2082.1875,1254.3095 C2082.1875,1254.0438 2082.0469,1253.7938 2081.8125,1253.622 C2081.625,1253.4813 2081.4531,1253.4501 2081,1253.4501 L2079.3594,1253.4501 L2079.3594,1251.2626 Z " fill="#000000"/><text fill="#000000" font-family="sans-serif" font-size="14" lengthAdjust="spacing" textLength="40" x="2113" y="1252.206">utils.ts</text><text fill="#000000" font-family="sans-serif" font-size="14" lengthAdjust="spacing" textLength="71" x="2097.5" y="1269.006">fetchJson()</text><rect fill="#E2E2F0" height="36" rx="2.5" ry="2.5" style="stroke:#181818;stroke-width:0.5;" width="128" x="2201" y="82.5999"/><ellipse cx="2219" cy="100.5999" fill="#ADD8E6" rx="11" ry="11" style="stroke:#181818;stroke-width:1.0;"/><path d="M2222.8594,96.9124 C2222.8594,96.4749 2222.8438,96.3499 2222.7344,96.178 C2222.5781,95.928 2222.2813,95.7717 2221.9531,95.7717 C2221.6094,95.7717 2221.4219,95.9124 2221.2656,96.2874 C2220.7031,95.9592 2219.9375,95.7717 2219.0625,95.7717 C2216.9219,95.7717 2215.3281,97.0374 2215.3281,98.6936 C2215.3281,99.6467 2215.875,100.5374 2216.75,101.0061 C2217.3125,101.3186 2217.8438,101.4749 2218.9844,101.6624 C2220.1094,101.8655 2220.375,101.928 2220.75,102.0999 C2221.0938,102.2717 2221.3125,102.5686 2221.3125,102.8811 C2221.3125,103.5374 2220.3594,104.053 2219.1406,104.053 C2218.0469,104.053 2216.9844,103.5999 2216.8281,103.053 C2216.6875,102.6155 2216.6875,102.6155 2216.5625,102.4749 C2216.3906,102.3186 2216.1563,102.2405 2215.9063,102.2405 C2215.6094,102.2405 2215.3438,102.3655 2215.1563,102.5842 C2215.0313,102.7561 2214.9844,102.9436 2214.9844,103.3655 L2214.9844,104.4436 C2214.9844,105.2092 2215.2969,105.5842 2215.9063,105.5842 C2216.1875,105.5842 2216.3438,105.4905 2216.625,105.2092 C2217.4844,105.6311 2218.3281,105.8186 2219.25,105.8186 C2221.6094,105.8186 2223.2188,104.6467 2223.2188,102.9124 C2223.2188,102.053 2222.875,101.3655 2222.1875,100.8342 C2221.6563,100.428 2220.9844,100.1936 2219.4844,99.9436 C2218.2031,99.6936 2218.1406,99.678 2217.8125,99.5061 C2217.4688,99.3655 2217.2344,99.0061 2217.2344,98.678 C2217.2344,98.0374 2218.0469,97.5217 2219.0781,97.5217 C2220.125,97.5217 2220.8906,97.9436 2221.0313,98.5686 C2221.1563,99.0999 2221.1563,99.0999 2221.2969,99.2405 C2221.4531,99.3967 2221.7031,99.4905 2221.9531,99.4905 C2222.25,99.4905 2222.5,99.3655 2222.6875,99.1467 C2222.8281,98.9592 2222.8594,98.8186 2222.8594,98.3655 L2222.8594,96.9124 Z " fill="#000000"/><text fill="#000000" font-family="sans-serif" font-size="14" lengthAdjust="spacing" textLength="86" x="2236" y="102.6058">AuthManager</text><rect fill="#E2E2F0" height="36" rx="2.5" ry="2.5" style="stroke:#181818;stroke-width:0.5;" width="128" x="2201" y="1232.2001"/><ellipse cx="2219" cy="1250.2001" fill="#ADD8E6" rx="11" ry="11" style="stroke:#181818;stroke-width:1.0;"/><path d="M2222.8594,1246.5126 C2222.8594,1246.0751 2222.8438,1245.9501 2222.7344,1245.7782 C2222.5781,1245.5282 2222.2813,1245.372 2221.9531,1245.372 C2221.6094,1245.372 2221.4219,1245.5126 2221.2656,1245.8876 C2220.7031,1245.5595 2219.9375,1245.372 2219.0625,1245.372 C2216.9219,1245.372 2215.3281,1246.6376 2215.3281,1248.2938 C2215.3281,1249.247 2215.875,1250.1376 2216.75,1250.6063 C2217.3125,1250.9188 2217.8438,1251.0751 2218.9844,1251.2626 C2220.1094,1251.4657 2220.375,1251.5282 2220.75,1251.7001 C2221.0938,1251.872 2221.3125,1252.1688 2221.3125,1252.4813 C2221.3125,1253.1376 2220.3594,1253.6532 2219.1406,1253.6532 C2218.0469,1253.6532 2216.9844,1253.2001 2216.8281,1252.6532 C2216.6875,1252.2157 2216.6875,1252.2157 2216.5625,1252.0751 C2216.3906,1251.9188 2216.1563,1251.8407 2215.9063,1251.8407 C2215.6094,1251.8407 2215.3438,1251.9657 2215.1563,1252.1845 C2215.0313,1252.3563 2214.9844,1252.5438 2214.9844,1252.9657 L2214.9844,1254.0438 C2214.9844,1254.8095 2215.2969,1255.1845 2215.9063,1255.1845 C2216.1875,1255.1845 2216.3438,1255.0907 2216.625,1254.8095 C2217.4844,1255.2313 2218.3281,1255.4188 2219.25,1255.4188 C2221.6094,1255.4188 2223.2188,1254.247 2223.2188,1252.5126 C2223.2188,1251.6532 2222.875,1250.9657 2222.1875,1250.4345 C2221.6563,1250.0282 2220.9844,1249.7938 2219.4844,1249.5438 C2218.2031,1249.2938 2218.1406,1249.2782 2217.8125,1249.1063 C2217.4688,1248.9657 2217.2344,1248.6063 2217.2344,1248.2782 C2217.2344,1247.6376 2218.0469,1247.122 2219.0781,1247.122 C2220.125,1247.122 2220.8906,1247.5438 2221.0313,1248.1688 C2221.1563,1248.7001 2221.1563,1248.7001 2221.2969,1248.8407 C2221.4531,1248.997 2221.7031,1249.0907 2221.9531,1249.0907 C2222.25,1249.0907 2222.5,1248.9657 2222.6875,1248.747 C2222.8281,1248.5595 2222.8594,1248.4188 2222.8594,1247.9657 L2222.8594,1246.5126 Z " fill="#000000"/><text fill="#000000" font-family="sans-serif" font-size="14" lengthAdjust="spacing" textLength="86" x="2236" y="1252.206">AuthManager</text><rect fill="#E2E2F0" height="36" rx="2.5" ry="2.5" style="stroke:#181818;stroke-width:0.5;" width="119" x="2465.5" y="82.5999"/><ellipse cx="2483.5" cy="100.5999" fill="#FF6347" rx="11" ry="11" style="stroke:#181818;stroke-width:1.0;"/><path d="M2487.3594,96.9124 C2487.3594,96.4749 2487.3438,96.3499 2487.2344,96.178 C2487.0781,95.928 2486.7813,95.7717 2486.4531,95.7717 C2486.1094,95.7717 2485.9219,95.9124 2485.7656,96.2874 C2485.2031,95.9592 2484.4375,95.7717 2483.5625,95.7717 C2481.4219,95.7717 2479.8281,97.0374 2479.8281,98.6936 C2479.8281,99.6467 2480.375,100.5374 2481.25,101.0061 C2481.8125,101.3186 2482.3438,101.4749 2483.4844,101.6624 C2484.6094,101.8655 2484.875,101.928 2485.25,102.0999 C2485.5938,102.2717 2485.8125,102.5686 2485.8125,102.8811 C2485.8125,103.5374 2484.8594,104.053 2483.6406,104.053 C2482.5469,104.053 2481.4844,103.5999 2481.3281,103.053 C2481.1875,102.6155 2481.1875,102.6155 2481.0625,102.4749 C2480.8906,102.3186 2480.6563,102.2405 2480.4063,102.2405 C2480.1094,102.2405 2479.8438,102.3655 2479.6563,102.5842 C2479.5313,102.7561 2479.4844,102.9436 2479.4844,103.3655 L2479.4844,104.4436 C2479.4844,105.2092 2479.7969,105.5842 2480.4063,105.5842 C2480.6875,105.5842 2480.8438,105.4905 2481.125,105.2092 C2481.9844,105.6311 2482.8281,105.8186 2483.75,105.8186 C2486.1094,105.8186 2487.7188,104.6467 2487.7188,102.9124 C2487.7188,102.053 2487.375,101.3655 2486.6875,100.8342 C2486.1563,100.428 2485.4844,100.1936 2483.9844,99.9436 C2482.7031,99.6936 2482.6406,99.678 2482.3125,99.5061 C2481.9688,99.3655 2481.7344,99.0061 2481.7344,98.678 C2481.7344,98.0374 2482.5469,97.5217 2483.5781,97.5217 C2484.625,97.5217 2485.3906,97.9436 2485.5313,98.5686 C2485.6563,99.0999 2485.6563,99.0999 2485.7969,99.2405 C2485.9531,99.3967 2486.2031,99.4905 2486.4531,99.4905 C2486.75,99.4905 2487,99.3655 2487.1875,99.1467 C2487.3281,98.9592 2487.3594,98.8186 2487.3594,98.3655 L2487.3594,96.9124 Z " fill="#000000"/><text fill="#000000" font-family="sans-serif" font-size="14" lengthAdjust="spacing" textLength="77" x="2500.5" y="102.6058">BackendAPI</text><rect fill="#E2E2F0" height="36" rx="2.5" ry="2.5" style="stroke:#181818;stroke-width:0.5;" width="119" x="2465.5" y="1232.2001"/><ellipse cx="2483.5" cy="1250.2001" fill="#FF6347" rx="11" ry="11" style="stroke:#181818;stroke-width:1.0;"/><path d="M2487.3594,1246.5126 C2487.3594,1246.0751 2487.3438,1245.9501 2487.2344,1245.7782 C2487.0781,1245.5282 2486.7813,1245.372 2486.4531,1245.372 C2486.1094,1245.372 2485.9219,1245.5126 2485.7656,1245.8876 C2485.2031,1245.5595 2484.4375,1245.372 2483.5625,1245.372 C2481.4219,1245.372 2479.8281,1246.6376 2479.8281,1248.2938 C2479.8281,1249.247 2480.375,1250.1376 2481.25,1250.6063 C2481.8125,1250.9188 2482.3438,1251.0751 2483.4844,1251.2626 C2484.6094,1251.4657 2484.875,1251.5282 2485.25,1251.7001 C2485.5938,1251.872 2485.8125,1252.1688 2485.8125,1252.4813 C2485.8125,1253.1376 2484.8594,1253.6532 2483.6406,1253.6532 C2482.5469,1253.6532 2481.4844,1253.2001 2481.3281,1252.6532 C2481.1875,1252.2157 2481.1875,1252.2157 2481.0625,1252.0751 C2480.8906,1251.9188 2480.6563,1251.8407 2480.4063,1251.8407 C2480.1094,1251.8407 2479.8438,1251.9657 2479.6563,1252.1845 C2479.5313,1252.3563 2479.4844,1252.5438 2479.4844,1252.9657 L2479.4844,1254.0438 C2479.4844,1254.8095 2479.7969,1255.1845 2480.4063,1255.1845 C2480.6875,1255.1845 2480.8438,1255.0907 2481.125,1254.8095 C2481.9844,1255.2313 2482.8281,1255.4188 2483.75,1255.4188 C2486.1094,1255.4188 2487.7188,1254.247 2487.7188,1252.5126 C2487.7188,1251.6532 2487.375,1250.9657 2486.6875,1250.4345 C2486.1563,1250.0282 2485.4844,1249.7938 2483.9844,1249.5438 C2482.7031,1249.2938 2482.6406,1249.2782 2482.3125,1249.1063 C2481.9688,1248.9657 2481.7344,1248.6063 2481.7344,1248.2782 C2481.7344,1247.6376 2482.5469,1247.122 2483.5781,1247.122 C2484.625,1247.122 2485.3906,1247.5438 2485.5313,1248.1688 C2485.6563,1248.7001 2485.6563,1248.7001 2485.7969,1248.8407 C2485.9531,1248.997 2486.2031,1249.0907 2486.4531,1249.0907 C2486.75,1249.0907 2487,1248.9657 2487.1875,1248.747 C2487.3281,1248.5595 2487.3594,1248.4188 2487.3594,1247.9657 L2487.3594,1246.5126 Z " fill="#000000"/><text fill="#000000" font-family="sans-serif" font-size="14" lengthAdjust="spacing" textLength="77" x="2500.5" y="1252.206">BackendAPI</text><rect fill="#E2E2F0" height="36" rx="2.5" ry="2.5" style="stroke:#181818;stroke-width:0.5;" width="117" x="2594.5" y="82.5999"/><ellipse cx="2612.5" cy="100.5999" fill="#808080" rx="11" ry="11" style="stroke:#181818;stroke-width:1.0;"/><path d="M2616.3594,96.9124 C2616.3594,96.4749 2616.3438,96.3499 2616.2344,96.178 C2616.0781,95.928 2615.7813,95.7717 2615.4531,95.7717 C2615.1094,95.7717 2614.9219,95.9124 2614.7656,96.2874 C2614.2031,95.9592 2613.4375,95.7717 2612.5625,95.7717 C2610.4219,95.7717 2608.8281,97.0374 2608.8281,98.6936 C2608.8281,99.6467 2609.375,100.5374 2610.25,101.0061 C2610.8125,101.3186 2611.3438,101.4749 2612.4844,101.6624 C2613.6094,101.8655 2613.875,101.928 2614.25,102.0999 C2614.5938,102.2717 2614.8125,102.5686 2614.8125,102.8811 C2614.8125,103.5374 2613.8594,104.053 2612.6406,104.053 C2611.5469,104.053 2610.4844,103.5999 2610.3281,103.053 C2610.1875,102.6155 2610.1875,102.6155 2610.0625,102.4749 C2609.8906,102.3186 2609.6563,102.2405 2609.4063,102.2405 C2609.1094,102.2405 2608.8438,102.3655 2608.6563,102.5842 C2608.5313,102.7561 2608.4844,102.9436 2608.4844,103.3655 L2608.4844,104.4436 C2608.4844,105.2092 2608.7969,105.5842 2609.4063,105.5842 C2609.6875,105.5842 2609.8438,105.4905 2610.125,105.2092 C2610.9844,105.6311 2611.8281,105.8186 2612.75,105.8186 C2615.1094,105.8186 2616.7188,104.6467 2616.7188,102.9124 C2616.7188,102.053 2616.375,101.3655 2615.6875,100.8342 C2615.1563,100.428 2614.4844,100.1936 2612.9844,99.9436 C2611.7031,99.6936 2611.6406,99.678 2611.3125,99.5061 C2610.9688,99.3655 2610.7344,99.0061 2610.7344,98.678 C2610.7344,98.0374 2611.5469,97.5217 2612.5781,97.5217 C2613.625,97.5217 2614.3906,97.9436 2614.5313,98.5686 C2614.6563,99.0999 2614.6563,99.0999 2614.7969,99.2405 C2614.9531,99.3967 2615.2031,99.4905 2615.4531,99.4905 C2615.75,99.4905 2616,99.3655 2616.1875,99.1467 C2616.3281,98.9592 2616.3594,98.8186 2616.3594,98.3655 L2616.3594,96.9124 Z " fill="#000000"/><text fill="#000000" font-family="sans-serif" font-size="14" lengthAdjust="spacing" textLength="75" x="2629.5" y="102.6058">QueryClient</text><rect fill="#E2E2F0" height="36" rx="2.5" ry="2.5" style="stroke:#181818;stroke-width:0.5;" width="117" x="2594.5" y="1232.2001"/><ellipse cx="2612.5" cy="1250.2001" fill="#808080" rx="11" ry="11" style="stroke:#181818;stroke-width:1.0;"/><path d="M2616.3594,1246.5126 C2616.3594,1246.0751 2616.3438,1245.9501 2616.2344,1245.7782 C2616.0781,1245.5282 2615.7813,1245.372 2615.4531,1245.372 C2615.1094,1245.372 2614.9219,1245.5126 2614.7656,1245.8876 C2614.2031,1245.5595 2613.4375,1245.372 2612.5625,1245.372 C2610.4219,1245.372 2608.8281,1246.6376 2608.8281,1248.2938 C2608.8281,1249.247 2609.375,1250.1376 2610.25,1250.6063 C2610.8125,1250.9188 2611.3438,1251.0751 2612.4844,1251.2626 C2613.6094,1251.4657 2613.875,1251.5282 2614.25,1251.7001 C2614.5938,1251.872 2614.8125,1252.1688 2614.8125,1252.4813 C2614.8125,1253.1376 2613.8594,1253.6532 2612.6406,1253.6532 C2611.5469,1253.6532 2610.4844,1253.2001 2610.3281,1252.6532 C2610.1875,1252.2157 2610.1875,1252.2157 2610.0625,1252.0751 C2609.8906,1251.9188 2609.6563,1251.8407 2609.4063,1251.8407 C2609.1094,1251.8407 2608.8438,1251.9657 2608.6563,1252.1845 C2608.5313,1252.3563 2608.4844,1252.5438 2608.4844,1252.9657 L2608.4844,1254.0438 C2608.4844,1254.8095 2608.7969,1255.1845 2609.4063,1255.1845 C2609.6875,1255.1845 2609.8438,1255.0907 2610.125,1254.8095 C2610.9844,1255.2313 2611.8281,1255.4188 2612.75,1255.4188 C2615.1094,1255.4188 2616.7188,1254.247 2616.7188,1252.5126 C2616.7188,1251.6532 2616.375,1250.9657 2615.6875,1250.4345 C2615.1563,1250.0282 2614.4844,1249.7938 2612.9844,1249.5438 C2611.7031,1249.2938 2611.6406,1249.2782 2611.3125,1249.1063 C2610.9688,1248.9657 2610.7344,1248.6063 2610.7344,1248.2782 C2610.7344,1247.6376 2611.5469,1247.122 2612.5781,1247.122 C2613.625,1247.122 2614.3906,1247.5438 2614.5313,1248.1688 C2614.6563,1248.7001 2614.6563,1248.7001 2614.7969,1248.8407 C2614.9531,1248.997 2615.2031,1249.0907 2615.4531,1249.0907 C2615.75,1249.0907 2616,1248.9657 2616.1875,1248.747 C2616.3281,1248.5595 2616.3594,1248.4188 2616.3594,1247.9657 L2616.3594,1246.5126 Z " fill="#000000"/><text fill="#000000" font-family="sans-serif" font-size="14" lengthAdjust="spacing" textLength="75" x="2629.5" y="1252.206">QueryClient</text><rect fill="#E2E2F0" height="36" rx="2.5" ry="2.5" style="stroke:#181818;stroke-width:0.5;" width="91" x="2721.5" y="82.5999"/><ellipse cx="2739.5" cy="100.5999" fill="#FFC0CB" rx="11" ry="11" style="stroke:#181818;stroke-width:1.0;"/><path d="M2734.5,101.7561 C2734.5,104.2561 2736.6406,106.0686 2739.5625,106.0686 C2740.7969,106.0686 2741.9688,105.7717 2742.7188,105.2561 C2743.3281,104.8342 2743.6563,104.4124 2743.6563,104.0061 C2743.6563,103.5374 2743.2344,103.1311 2742.7344,103.1311 C2742.5,103.1311 2742.2813,103.2092 2742.0781,103.4124 C2741.6406,103.8499 2741.6406,103.8499 2741.4688,103.9436 C2741.0156,104.178 2740.375,104.3186 2739.6094,104.3186 C2737.6094,104.3186 2736.3281,103.303 2736.3281,101.7249 L2736.3281,100.678 C2736.3281,98.9749 2737.5469,97.7717 2739.25,97.7717 C2739.8281,97.7717 2740.4063,97.9124 2740.875,98.1624 C2741.3438,98.428 2741.5156,98.6155 2741.5781,98.9749 C2741.7031,99.6467 2741.9531,99.8967 2742.4844,99.8967 C2742.7656,99.8967 2743.0469,99.7561 2743.2344,99.5374 C2743.3594,99.3655 2743.4063,99.1936 2743.4063,98.7561 L2743.4063,97.3967 C2743.4063,96.9749 2743.3906,96.8342 2743.2656,96.6624 C2743.0938,96.4124 2742.8125,96.2561 2742.4844,96.2561 C2742.1719,96.2561 2741.9688,96.3655 2741.75,96.6311 C2740.5781,96.1311 2740.1406,96.0217 2739.1875,96.0217 C2736.5156,96.0217 2734.5,98.0374 2734.5,100.6624 L2734.5,101.7561 Z " fill="#000000"/><text fill="#000000" font-family="sans-serif" font-size="14" lengthAdjust="spacing" textLength="49" x="2756.5" y="102.6058">Toaster</text><rect fill="#E2E2F0" height="36" rx="2.5" ry="2.5" style="stroke:#181818;stroke-width:0.5;" width="91" x="2721.5" y="1232.2001"/><ellipse cx="2739.5" cy="1250.2001" fill="#FFC0CB" rx="11" ry="11" style="stroke:#181818;stroke-width:1.0;"/><path d="M2734.5,1251.3563 C2734.5,1253.8563 2736.6406,1255.6688 2739.5625,1255.6688 C2740.7969,1255.6688 2741.9688,1255.372 2742.7188,1254.8563 C2743.3281,1254.4345 2743.6563,1254.0126 2743.6563,1253.6063 C2743.6563,1253.1376 2743.2344,1252.7313 2742.7344,1252.7313 C2742.5,1252.7313 2742.2813,1252.8095 2742.0781,1253.0126 C2741.6406,1253.4501 2741.6406,1253.4501 2741.4688,1253.5438 C2741.0156,1253.7782 2740.375,1253.9188 2739.6094,1253.9188 C2737.6094,1253.9188 2736.3281,1252.9032 2736.3281,1251.3251 L2736.3281,1250.2782 C2736.3281,1248.5751 2737.5469,1247.372 2739.25,1247.372 C2739.8281,1247.372 2740.4063,1247.5126 2740.875,1247.7626 C2741.3438,1248.0282 2741.5156,1248.2157 2741.5781,1248.5751 C2741.7031,1249.247 2741.9531,1249.497 2742.4844,1249.497 C2742.7656,1249.497 2743.0469,1249.3563 2743.2344,1249.1376 C2743.3594,1248.9657 2743.4063,1248.7938 2743.4063,1248.3563 L2743.4063,1246.997 C2743.4063,1246.5751 2743.3906,1246.4345 2743.2656,1246.2626 C2743.0938,1246.0126 2742.8125,1245.8563 2742.4844,1245.8563 C2742.1719,1245.8563 2741.9688,1245.9657 2741.75,1246.2313 C2740.5781,1245.7313 2740.1406,1245.622 2739.1875,1245.622 C2736.5156,1245.622 2734.5,1247.6376 2734.5,1250.2626 L2734.5,1251.3563 Z " fill="#000000"/><text fill="#000000" font-family="sans-serif" font-size="14" lengthAdjust="spacing" textLength="49" x="2756.5" y="1252.206">Toaster</text><rect fill="#FFFFFF" height="1072.0002" style="stroke:#181818;stroke-width:1.0;" width="10" x="366" y="151.1999"/><rect fill="#FFFFFF" height="983.2002" style="stroke:#181818;stroke-width:1.0;" width="10" x="905" y="239.9999"/><rect fill="#FFFFFF" height="571.8001" style="stroke:#181818;stroke-width:1.0;" width="10" x="1692" y="586.6001"/><rect fill="#FFFFFF" height="542.2001" style="stroke:#181818;stroke-width:1.0;" width="10" x="2114" y="616.2001"/><rect fill="#FFFFFF" height="29.6" style="stroke:#181818;stroke-width:1.0;" width="10" x="2260" y="645.8001"/><rect fill="#FFFFFF" height="453.4001" style="stroke:#181818;stroke-width:1.0;" width="10" x="2520" y="705.0001"/><rect fill="#FFFFFF" height="29.6" style="stroke:#181818;stroke-width:1.0;" width="10" x="2648" y="907.6002"/><rect fill="#FFFFFF" height="30" style="stroke:#181818;stroke-width:1.0;" width="10" x="2762" y="848.0002"/><rect fill="#FFFFFF" height="30" style="stroke:#181818;stroke-width:1.0;" width="10" x="2762" y="1113.4002"/><polygon fill="#181818" points="354,147.1999,364,151.1999,354,155.1999,358,151.1999" style="stroke:#181818;stroke-width:1.0;"/><line style="stroke:#181818;stroke-width:1.0;" x1="28" x2="360" y1="151.1999" y2="151.1999"/><text fill="#000000" font-family="sans-serif" font-size="13" lengthAdjust="spacing" textLength="319" x="35" y="145.6769">Navigates to /dashboard_admin/category_management</text><polygon fill="#181818" points="671,176.7999,681,180.7999,671,184.7999,675,180.7999" style="stroke:#181818;stroke-width:1.0;"/><line style="stroke:#181818;stroke-width:1.0;" x1="28" x2="677" y1="180.7999" y2="180.7999"/><text fill="#000000" font-family="sans-serif" font-size="13" lengthAdjust="spacing" textLength="251" x="35" y="175.2769">Clicks "Requirements" for a target category</text><polygon fill="#181818" points="387,206.3999,377,210.3999,387,214.3999,383,210.3999" style="stroke:#181818;stroke-width:1.0;"/><line style="stroke:#181818;stroke-width:1.0;" x1="381" x2="682" y1="210.3999" y2="210.3999"/><text fill="#000000" font-family="sans-serif" font-size="13" lengthAdjust="spacing" textLength="283" x="393" y="204.8769">onViewRequirements(categoryId, categoryName)</text><polygon fill="#181818" points="893,235.9999,903,239.9999,893,243.9999,897,239.9999" style="stroke:#181818;stroke-width:1.0;"/><line style="stroke:#181818;stroke-width:1.0;" x1="376" x2="899" y1="239.9999" y2="239.9999"/><text fill="#000000" font-family="sans-serif" font-size="13" lengthAdjust="spacing" textLength="320" x="383" y="234.4769">Opens dialog (isOpen=true, categoryId, categoryName)</text><polygon fill="#181818" points="2641,265.5999,2651,269.5999,2641,273.5999,2645,269.5999" style="stroke:#181818;stroke-width:1.0;"/><line style="stroke:#181818;stroke-width:1.0;" x1="915" x2="2647" y1="269.5999" y2="269.5999"/><text fill="#000000" font-family="sans-serif" font-size="13" lengthAdjust="spacing" textLength="328" x="922" y="264.0769">useQuery(['requirements', categoryId]) ' For current reqs '</text><polygon fill="#181818" points="2641,295.1999,2651,299.1999,2641,303.1999,2645,299.1999" style="stroke:#181818;stroke-width:1.0;"/><line style="stroke:#181818;stroke-width:1.0;" x1="915" x2="2647" y1="299.1999" y2="299.1999"/><text fill="#000000" font-family="sans-serif" font-size="13" lengthAdjust="spacing" textLength="292" x="922" y="293.6769">useQuery(['categories']) ' For prerequisite selector '</text><line style="stroke:#181818;stroke-width:1.0;" x1="915" x2="957" y1="328.7999" y2="328.7999"/><line style="stroke:#181818;stroke-width:1.0;" x1="957" x2="957" y1="328.7999" y2="341.7999"/><line style="stroke:#181818;stroke-width:1.0;" x1="916" x2="957" y1="341.7999" y2="341.7999"/><polygon fill="#181818" points="926,337.7999,916,341.7999,926,345.7999,922,341.7999" style="stroke:#181818;stroke-width:1.0;"/><text fill="#000000" font-family="sans-serif" font-size="13" lengthAdjust="spacing" textLength="369" x="922" y="323.2769">Renders current requirements and "Add New Requirement" form</text><polygon fill="#181818" points="1291,367.4,1301,371.4,1291,375.4,1295,371.4" style="stroke:#181818;stroke-width:1.0;"/><line style="stroke:#181818;stroke-width:1.0;" x1="915" x2="1297" y1="371.4" y2="371.4"/><text fill="#000000" font-family="sans-serif" font-size="13" lengthAdjust="spacing" textLength="251" x="922" y="365.877">Renders dropdown for prerequisite category</text><polygon fill="#181818" points="1482.5,397,1492.5,401,1482.5,405,1486.5,401" style="stroke:#181818;stroke-width:1.0;"/><line style="stroke:#181818;stroke-width:1.0;" x1="915" x2="1488.5" y1="401" y2="401"/><text fill="#000000" font-family="sans-serif" font-size="13" lengthAdjust="spacing" textLength="207" x="922" y="395.477">Renders dropdown for required level</text><polygon fill="#181818" points="1291,426.6,1301,430.6,1291,434.6,1295,430.6" style="stroke:#181818;stroke-width:1.0;"/><line style="stroke:#181818;stroke-width:1.0;" x1="28" x2="1297" y1="430.6" y2="430.6"/><text fill="#000000" font-family="sans-serif" font-size="13" lengthAdjust="spacing" textLength="194" x="35" y="425.077">Selects a "Prerequisite Category"</text><polygon fill="#181818" points="1482.5,456.2,1492.5,460.2,1482.5,464.2,1486.5,460.2" style="stroke:#181818;stroke-width:1.0;"/><line style="stroke:#181818;stroke-width:1.0;" x1="28" x2="1488.5" y1="460.2" y2="460.2"/><text fill="#000000" font-family="sans-serif" font-size="13" lengthAdjust="spacing" textLength="155" x="35" y="454.677">Selects a "Required Level"</text><polygon fill="#181818" points="893,485.8,903,489.8,893,493.8,897,489.8" style="stroke:#181818;stroke-width:1.0;"/><line style="stroke:#181818;stroke-width:1.0;" x1="28" x2="899" y1="489.8" y2="489.8"/><text fill="#000000" font-family="sans-serif" font-size="13" lengthAdjust="spacing" textLength="150" x="35" y="484.277">Clicks "Add Requirement"</text><line style="stroke:#181818;stroke-width:1.0;" x1="915" x2="957" y1="519.4" y2="519.4"/><line style="stroke:#181818;stroke-width:1.0;" x1="957" x2="957" y1="519.4" y2="532.4"/><line style="stroke:#181818;stroke-width:1.0;" x1="916" x2="957" y1="532.4" y2="532.4"/><polygon fill="#181818" points="926,528.4,916,532.4,926,536.4,922,532.4" style="stroke:#181818;stroke-width:1.0;"/><text fill="#000000" font-family="sans-serif" font-size="13" lengthAdjust="spacing" textLength="369" x="922" y="513.877">onAddSubmit(values: {prerequisite_category_id, required_level})</text><path d="M775.5,547.4 L835.5,547.4 L835.5,555 L825.5,565 L775.5,565 L775.5,547.4 " fill="#EEEEEE" style="stroke:#000000;stroke-width:1.5;"/><rect fill="none" height="668.8001" style="stroke:#000000;stroke-width:1.5;" width="2057" x="775.5" y="547.4"/><text fill="#000000" font-family="sans-serif" font-size="13" font-weight="bold" lengthAdjust="spacing" textLength="15" x="790.5" y="560.477">alt</text><text fill="#000000" font-family="sans-serif" font-size="11" font-weight="bold" lengthAdjust="spacing" textLength="90" x="850.5" y="559.619">[Form data valid]</text><polygon fill="#181818" points="1680,582.6001,1690,586.6001,1680,590.6001,1684,586.6001" style="stroke:#181818;stroke-width:1.0;"/><line style="stroke:#181818;stroke-width:1.0;" x1="915" x2="1686" y1="586.6001" y2="586.6001"/><text fill="#000000" font-family="sans-serif" font-size="13" lengthAdjust="spacing" textLength="486" x="922" y="581.0771">addRequirement({id_category_requirement, id_category, required_level, description})</text><polygon fill="#181818" points="2102,612.2001,2112,616.2001,2102,620.2001,2106,616.2001" style="stroke:#181818;stroke-width:1.0;"/><line style="stroke:#181818;stroke-width:1.0;" x1="1702" x2="2108" y1="616.2001" y2="616.2001"/><text fill="#000000" font-family="sans-serif" font-size="13" lengthAdjust="spacing" textLength="393" x="1709" y="610.6771">fetchJson("/categories/{target_cat_id}/requirements", {POST, body})</text><polygon fill="#181818" points="2248,641.8001,2258,645.8001,2248,649.8001,2252,645.8001" style="stroke:#181818;stroke-width:1.0;"/><line style="stroke:#181818;stroke-width:1.0;" x1="2124" x2="2254" y1="645.8001" y2="645.8001"/><text fill="#000000" font-family="sans-serif" font-size="13" lengthAdjust="spacing" textLength="62" x="2131" y="640.2771">getToken()</text><polygon fill="#181818" points="2135,671.4001,2125,675.4001,2135,679.4001,2131,675.4001" style="stroke:#181818;stroke-width:1.0;"/><line style="stroke:#181818;stroke-width:1.0;stroke-dasharray:2.0,2.0;" x1="2129" x2="2264" y1="675.4001" y2="675.4001"/><text fill="#000000" font-family="sans-serif" font-size="13" lengthAdjust="spacing" textLength="112" x="2141" y="669.8771">"admin_token_xyz"</text><polygon fill="#181818" points="2508,701.0001,2518,705.0001,2508,709.0001,2512,705.0001" style="stroke:#181818;stroke-width:1.0;"/><line style="stroke:#181818;stroke-width:1.0;" x1="2124" x2="2514" y1="705.0001" y2="705.0001"/><text fill="#000000" font-family="sans-serif" font-size="13" lengthAdjust="spacing" textLength="377" x="2131" y="699.4771">POST /categories/{target_cat_id}/requirements (requirementData)</text><path d="M785.5,720.0001 L845.5,720.0001 L845.5,727.6001 L835.5,737.6001 L785.5,737.6001 L785.5,720.0001 " fill="#EEEEEE" style="stroke:#000000;stroke-width:1.5;"/><rect fill="none" height="431.4001" style="stroke:#000000;stroke-width:1.5;" width="2037" x="785.5" y="720.0001"/><text fill="#000000" font-family="sans-serif" font-size="13" font-weight="bold" lengthAdjust="spacing" textLength="15" x="800.5" y="733.0771">alt</text><text fill="#000000" font-family="sans-serif" font-size="11" font-weight="bold" lengthAdjust="spacing" textLength="181" x="860.5" y="732.219">[Requirement added successfully]</text><polygon fill="#181818" points="2135,755.2001,2125,759.2001,2135,763.2001,2131,759.2001" style="stroke:#181818;stroke-width:1.0;"/><line style="stroke:#181818;stroke-width:1.0;stroke-dasharray:2.0,2.0;" x1="2129" x2="2519" y1="759.2001" y2="759.2001"/><text fill="#000000" font-family="sans-serif" font-size="13" lengthAdjust="spacing" textLength="219" x="2141" y="753.6771">HTTP 200 OK (CategoryRequirement)</text><polygon fill="#181818" points="1713,784.8002,1703,788.8002,1713,792.8002,1709,788.8002" style="stroke:#181818;stroke-width:1.0;"/><line style="stroke:#181818;stroke-width:1.0;stroke-dasharray:2.0,2.0;" x1="1707" x2="2113" y1="788.8002" y2="788.8002"/><text fill="#000000" font-family="sans-serif" font-size="13" lengthAdjust="spacing" textLength="125" x="1719" y="783.2772">CategoryRequirement</text><polygon fill="#181818" points="926,814.4002,916,818.4002,926,822.4002,922,818.4002" style="stroke:#181818;stroke-width:1.0;"/><line style="stroke:#181818;stroke-width:1.0;stroke-dasharray:2.0,2.0;" x1="920" x2="1691" y1="818.4002" y2="818.4002"/><text fill="#000000" font-family="sans-serif" font-size="13" lengthAdjust="spacing" textLength="125" x="932" y="812.8772">CategoryRequirement</text><polygon fill="#181818" points="2750,844.0002,2760,848.0002,2750,852.0002,2754,848.0002" style="stroke:#181818;stroke-width:1.0;"/><line style="stroke:#181818;stroke-width:1.0;" x1="915" x2="2756" y1="848.0002" y2="848.0002"/><text fill="#000000" font-family="sans-serif" font-size="13" lengthAdjust="spacing" textLength="224" x="922" y="842.4772">toast.success("Requirement added...")</text><polygon fill="#181818" points="2636,903.6002,2646,907.6002,2636,911.6002,2640,907.6002" style="stroke:#181818;stroke-width:1.0;"/><line style="stroke:#181818;stroke-width:1.0;" x1="915" x2="2642" y1="907.6002" y2="907.6002"/><text fill="#000000" font-family="sans-serif" font-size="13" lengthAdjust="spacing" textLength="375" x="922" y="902.0772">invalidateQueries({queryKey: ['requirements', target_categoryId]})</text><polygon fill="#181818" points="926,933.2002,916,937.2002,926,941.2002,922,937.2002" style="stroke:#181818;stroke-width:1.0;"/><line style="stroke:#181818;stroke-width:1.0;" x1="920" x2="2652" y1="937.2002" y2="937.2002"/><text fill="#000000" font-family="sans-serif" font-size="13" lengthAdjust="spacing" textLength="285" x="932" y="931.6772">Triggers refetch of requirements list for the dialog</text><line style="stroke:#181818;stroke-width:1.0;" x1="915" x2="957" y1="966.8002" y2="966.8002"/><line style="stroke:#181818;stroke-width:1.0;" x1="957" x2="957" y1="966.8002" y2="979.8002"/><line style="stroke:#181818;stroke-width:1.0;" x1="916" x2="957" y1="979.8002" y2="979.8002"/><polygon fill="#181818" points="926,975.8002,916,979.8002,926,983.8002,922,979.8002" style="stroke:#181818;stroke-width:1.0;"/><text fill="#000000" font-family="sans-serif" font-size="13" lengthAdjust="spacing" textLength="214" x="922" y="961.2772">Resets "Add New Requirement" form</text><line style="stroke:#000000;stroke-width:1.0;stroke-dasharray:2.0,2.0;" x1="785.5" x2="2822.5" y1="988.8002" y2="988.8002"/><text fill="#000000" font-family="sans-serif" font-size="11" font-weight="bold" lengthAdjust="spacing" textLength="141" x="790.5" y="999.0191">[Error adding requirement]</text><polygon fill="#181818" points="2135,1020.6001,2125,1024.6001,2135,1028.6001,2131,1024.6001" style="stroke:#181818;stroke-width:1.0;"/><line style="stroke:#181818;stroke-width:1.0;stroke-dasharray:2.0,2.0;" x1="2129" x2="2519" y1="1024.6001" y2="1024.6001"/><text fill="#000000" font-family="sans-serif" font-size="13" lengthAdjust="spacing" textLength="66" x="2141" y="1019.0771">HTTP Error</text><polygon fill="#181818" points="1713,1050.2002,1703,1054.2002,1713,1058.2002,1709,1054.2002" style="stroke:#181818;stroke-width:1.0;"/><line style="stroke:#181818;stroke-width:1.0;" x1="1707" x2="2113" y1="1054.2002" y2="1054.2002"/><text fill="#000000" font-family="sans-serif" font-size="13" lengthAdjust="spacing" textLength="70" x="1719" y="1048.6772">throws Error</text><polygon fill="#181818" points="926,1079.8002,916,1083.8002,926,1087.8002,922,1083.8002" style="stroke:#181818;stroke-width:1.0;"/><line style="stroke:#181818;stroke-width:1.0;stroke-dasharray:2.0,2.0;" x1="920" x2="1691" y1="1083.8002" y2="1083.8002"/><text fill="#000000" font-family="sans-serif" font-size="13" lengthAdjust="spacing" textLength="70" x="932" y="1078.2772">throws Error</text><polygon fill="#181818" points="2750,1109.4002,2760,1113.4002,2750,1117.4002,2754,1113.4002" style="stroke:#181818;stroke-width:1.0;"/><line style="stroke:#181818;stroke-width:1.0;" x1="915" x2="2756" y1="1113.4002" y2="1113.4002"/><text fill="#000000" font-family="sans-serif" font-size="13" lengthAdjust="spacing" textLength="236" x="922" y="1107.8772">toast.error("Failed to add requirement...")</text><line style="stroke:#000000;stroke-width:1.0;stroke-dasharray:2.0,2.0;" x1="775.5" x2="2832.5" y1="1159.4002" y2="1159.4002"/><text fill="#000000" font-family="sans-serif" font-size="11" font-weight="bold" lengthAdjust="spacing" textLength="225" x="780.5" y="1169.6191">[Form data invalid (e.g., nothing selected)]</text><line style="stroke:#181818;stroke-width:1.0;" x1="915" x2="957" y1="1195.2001" y2="1195.2001"/><line style="stroke:#181818;stroke-width:1.0;" x1="957" x2="957" y1="1195.2001" y2="1208.2001"/><line style="stroke:#181818;stroke-width:1.0;" x1="916" x2="957" y1="1208.2001" y2="1208.2001"/><polygon fill="#181818" points="926,1204.2001,916,1208.2001,926,1212.2001,922,1208.2001" style="stroke:#181818;stroke-width:1.0;"/><text fill="#000000" font-family="sans-serif" font-size="13" lengthAdjust="spacing" textLength="165" x="922" y="1189.6771">Shows form validation errors</text><!--SRC=[bLRRRkCs47tNLmpqOXdmEei-2ji0gTEqwNOJDtRwqXO68qva8fBe9QbutI0VrM_eZtL8tIZ9kVJ98ZddpErmQ2DCXd2xsFo4sWXPCBLW1bEf1DEBczlpCvwB0gApV_zXN2YumQ-bqCB8QGmh-iOYGJWNB5Ki3mAM6AaWT9WGc0RtTQjH1JkcZ4Z4ZXK6mjh5uGihM8ev5cP9lmv1Hr_ItAtXqwVePYPLiXLyUdfwd68XyvqiY67156yOxBT5BsQPIBScLNXuaS1bf5mGcXB9PEfOQBjQlPTdXHdQz9iOclLR-5_n4RFA628lcAaZyaxfx2skf8vbSyUI1oputEW_2yQvHnjDcm2TvG-LeIM-c1qmo-H-n5eQaMb7TOycsVwYPL6pNDZrBHrNUAbOaU88VrQQRTNfgZXkdRh2hAfaxh9o3Aj3ErjULgZbPOKmCcUalw7vRoMI6Z91EJfxRrtXZbPiBPasTLprTrNadIWUh7NGIXW-dFRK6SCLUnGf5LA3aN32cTxUILBUXbd8ITkCl5MvlI3YaVPzec02y_aSBWjXI72GISP1taCD5yHkZoVZI9pAOw0SamSDeI_a4Ev9UGmCKocQXkiGDAXHAhBuNU3UfuWQq2MVjGHNBCTfu4E9gRigCLpliD30gsKaj5r_RrI97SUOhwrAonG47Ibvy7iPGwdHRKH_J9GNyCHtyTSK9d11DKXAfIoCB3KLyNsqNUqdBT5EeQg77u9kBlUaxjuvCmpSzH15wefVrw3gNS-jNwyRKZWgxOVP9WICBYODKmvNk0UlDwwxUP_KdpWTBLTon-M-S17rCcWbqMCPZ9iNYEeWEMJMV2nCBv3garA1SEcxR-PFs0UF_7lucyQhCne0_Pes5y9Mpg_QorsG1TckohjScEYHqJ3ICJpvvTgqbrcGUflyDox_Pn9mPgn6Sk1M1iGWU00mx4zluCOmcCjFWdTUF1dCm3iO-fu1HvqeiRDFDmK2u4yOto4T3KEWgBe17aCttCEJxWASF5Kpn8P0oJ-V-0eDP_2ql5wjPt0d-Q7llwMcpSuD-Mp6Vmn4kvOKIjG3rkUqrLX-64GQkW6xCHQx-NRuEoHRZaS8-dxf0Od1XWllpGyYRsMlU3_GvQLTKk-zFjgsaaPrcIIezNsPPGSo0kTzcCVFw_KIlllu4Qu_GtJa_yZK8RqaZkhe2D3XHkqUNfCZE0ViwRPv56Dwu-XhNYSMXQESQTA5LSHjXMgms_GQr6oFlVKdiYZSLIA8tQTcHKzVhS5dFCGm6lvT7vitu7aGZiVk3dnlW-AibKXJE_WKkdjXN-IUCZAXZHk6Pelrh1-cENJtoYEWqUZNHZq0PXhXHwNiiywvVMJKeDylAioXXb8wfYIpLNAlFVkt93G2l2eTj6PHUC54HZU4_Z9H8duM_rz0L1OtsVpBxowbj-7F8MzxE1vTVRiPNaiF8fodynaKqhY7lNhtaK-3LzgvsjgYsBv1hLyQpk2oru7rvONH_UFfnzRyl_eF]--></g></svg>