<?xml version="1.0" encoding="us-ascii" standalone="no"?><svg xmlns="http://www.w3.org/2000/svg" xmlns:xlink="http://www.w3.org/1999/xlink" contentStyleType="text/css" height="1008px" preserveAspectRatio="none" style="width:1738px;height:1008px;background:#FFFFFF;" version="1.1" viewBox="0 0 1738 1008" width="1738px" zoomAndPan="magnify"><defs/><g><text fill="#000000" font-family="sans-serif" font-size="14" font-weight="bold" lengthAdjust="spacing" textLength="482" x="629" y="28.0059">UC_ActualizarPerfilAdmin (Actualizar Perfil Propio): Sequence Diagram</text><rect fill="#FFFFFF" height="766.0002" style="stroke:#181818;stroke-width:1.0;" width="10" x="401" y="151.1999"/><rect fill="#FFFFFF" height="88.8" style="stroke:#181818;stroke-width:1.0;" width="10" x="645" y="210.3999"/><rect fill="#FFFFFF" height="529.2001" style="stroke:#181818;stroke-width:1.0;" width="10" x="823.5" y="388"/><rect fill="#FFFFFF" height="29.6" style="stroke:#181818;stroke-width:1.0;" width="10" x="971" y="328.7999"/><rect fill="#FFFFFF" height="29.6" style="stroke:#181818;stroke-width:1.0;" width="10" x="971" y="447.2"/><rect fill="#FFFFFF" height="499.6001" style="stroke:#181818;stroke-width:1.0;" width="10" x="1126.5" y="417.6"/><rect fill="#FFFFFF" height="410.8001" style="stroke:#181818;stroke-width:1.0;" width="10" x="1428.5" y="506.4"/><rect fill="#FFFFFF" height="29.6" style="stroke:#181818;stroke-width:1.0;" width="10" x="1556.5" y="709.0001"/><rect fill="#FFFFFF" height="30" style="stroke:#181818;stroke-width:1.0;" width="10" x="1670.5" y="649.4001"/><rect fill="#FFFFFF" height="30" style="stroke:#181818;stroke-width:1.0;" width="10" x="1670.5" y="872.2001"/><rect fill="none" height="388.8001" style="stroke:#000000;stroke-width:1.5;" width="1474" x="257" y="521.4"/><line style="stroke:#181818;stroke-width:0.5;stroke-dasharray:5.0,5.0;" x1="28" x2="28" y1="119.5999" y2="927.2001"/><line style="stroke:#181818;stroke-width:0.5;stroke-dasharray:5.0,5.0;" x1="406" x2="406" y1="119.5999" y2="927.2001"/><line style="stroke:#181818;stroke-width:0.5;stroke-dasharray:5.0,5.0;" x1="650" x2="650" y1="119.5999" y2="927.2001"/><line style="stroke:#181818;stroke-width:0.5;stroke-dasharray:5.0,5.0;" x1="828" x2="828" y1="119.5999" y2="927.2001"/><line style="stroke:#181818;stroke-width:0.5;stroke-dasharray:5.0,5.0;" x1="976" x2="976" y1="119.5999" y2="927.2001"/><line style="stroke:#181818;stroke-width:0.5;stroke-dasharray:5.0,5.0;" x1="1131" x2="1131" y1="119.5999" y2="927.2001"/><line style="stroke:#181818;stroke-width:0.5;stroke-dasharray:5.0,5.0;" x1="1433" x2="1433" y1="119.5999" y2="927.2001"/><line style="stroke:#181818;stroke-width:0.5;stroke-dasharray:5.0,5.0;" x1="1561" x2="1561" y1="119.5999" y2="927.2001"/><line style="stroke:#181818;stroke-width:0.5;stroke-dasharray:5.0,5.0;" x1="1675" x2="1675" y1="119.5999" y2="927.2001"/><text fill="#000000" font-family="sans-serif" font-size="14" lengthAdjust="spacing" textLength="40" x="5" y="115.8059">Admin</text><ellipse cx="28" cy="51.2999" fill="#E2E2F0" rx="8" ry="8" style="stroke:#181818;stroke-width:0.5;"/><path d="M28,59.2999 L28,86.2999 M15,67.2999 L41,67.2999 M28,86.2999 L15,101.2999 M28,86.2999 L41,101.2999 " fill="none" style="stroke:#181818;stroke-width:0.5;"/><text fill="#000000" font-family="sans-serif" font-size="14" lengthAdjust="spacing" textLength="40" x="5" y="939.206">Admin</text><ellipse cx="28" cy="951.5" fill="#E2E2F0" rx="8" ry="8" style="stroke:#181818;stroke-width:0.5;"/><path d="M28,959.5 L28,986.5 M15,967.5 L41,967.5 M28,986.5 L15,1001.5 M28,986.5 L41,1001.5 " fill="none" style="stroke:#181818;stroke-width:0.5;"/><rect fill="#E2E2F0" height="36" rx="2.5" ry="2.5" style="stroke:#181818;stroke-width:0.5;" width="278" x="267" y="82.5999"/><ellipse cx="285" cy="100.5999" fill="#DA70D6" rx="11" ry="11" style="stroke:#181818;stroke-width:1.0;"/><path d="M282.8594,101.9905 L284.4375,101.9905 C285.1094,102.2405 286.5938,103.9124 287.4688,105.4905 L287.5313,105.5999 L288.9063,105.5999 C289.2344,105.5999 289.5156,105.553 289.6563,105.4749 C289.9219,105.3186 290.0938,105.0217 290.0938,104.7092 C290.0938,104.4436 289.9375,104.1624 289.7188,104.0061 C289.5313,103.8655 289.3594,103.8342 288.9063,103.8342 L288.7188,103.8342 C288.0625,102.8499 287.3906,102.053 286.6563,101.4124 C287.8594,100.7874 288.4375,99.9905 288.4375,98.9592 C288.4375,97.2249 286.8906,96.0061 284.6406,96.0061 L280.8438,96.0061 C280.3906,96.0061 280.2656,96.0217 280.0938,96.1311 C279.8281,96.303 279.6563,96.5842 279.6563,96.8811 C279.6563,97.1624 279.8125,97.4436 280.0313,97.5999 C280.2188,97.7249 280.4063,97.7561 280.8438,97.7561 L281.0313,97.7561 L281.0313,103.8342 L280.8438,103.8342 C280.4219,103.8342 280.2656,103.8655 280.0938,103.9749 C279.8281,104.1155 279.6563,104.4124 279.6563,104.7092 C279.6563,105.2874 280.0625,105.5999 280.8438,105.5999 L283.3906,105.5999 C283.75,105.5999 284,105.553 284.1406,105.4749 C284.4063,105.3186 284.5781,105.0217 284.5781,104.7092 C284.5781,104.4436 284.4531,104.178 284.2031,104.0061 C284.0156,103.8655 283.875,103.8342 283.3906,103.8342 L282.8594,103.8342 L282.8594,101.9905 Z M282.8594,100.2405 L282.8594,97.7561 L284.7031,97.7561 C285.7344,97.7561 286.5,98.2405 286.5,98.8967 C286.5,99.678 285.4844,100.2405 284.0938,100.2405 L282.8594,100.2405 Z " fill="#000000"/><text fill="#000000" font-family="sans-serif" font-size="14" lengthAdjust="spacing" textLength="236" x="302" y="102.6058">AdminIndexPage (ProfileComponent)</text><rect fill="#E2E2F0" height="36" rx="2.5" ry="2.5" style="stroke:#181818;stroke-width:0.5;" width="278" x="267" y="926.2001"/><ellipse cx="285" cy="944.2001" fill="#DA70D6" rx="11" ry="11" style="stroke:#181818;stroke-width:1.0;"/><path d="M282.8594,945.5907 L284.4375,945.5907 C285.1094,945.8407 286.5938,947.5126 287.4688,949.0907 L287.5313,949.2001 L288.9063,949.2001 C289.2344,949.2001 289.5156,949.1532 289.6563,949.0751 C289.9219,948.9188 290.0938,948.622 290.0938,948.3095 C290.0938,948.0438 289.9375,947.7626 289.7188,947.6063 C289.5313,947.4657 289.3594,947.4345 288.9063,947.4345 L288.7188,947.4345 C288.0625,946.4501 287.3906,945.6532 286.6563,945.0126 C287.8594,944.3876 288.4375,943.5907 288.4375,942.5595 C288.4375,940.8251 286.8906,939.6063 284.6406,939.6063 L280.8438,939.6063 C280.3906,939.6063 280.2656,939.622 280.0938,939.7313 C279.8281,939.9032 279.6563,940.1845 279.6563,940.4813 C279.6563,940.7626 279.8125,941.0438 280.0313,941.2001 C280.2188,941.3251 280.4063,941.3563 280.8438,941.3563 L281.0313,941.3563 L281.0313,947.4345 L280.8438,947.4345 C280.4219,947.4345 280.2656,947.4657 280.0938,947.5751 C279.8281,947.7157 279.6563,948.0126 279.6563,948.3095 C279.6563,948.8876 280.0625,949.2001 280.8438,949.2001 L283.3906,949.2001 C283.75,949.2001 284,949.1532 284.1406,949.0751 C284.4063,948.9188 284.5781,948.622 284.5781,948.3095 C284.5781,948.0438 284.4531,947.7782 284.2031,947.6063 C284.0156,947.4657 283.875,947.4345 283.3906,947.4345 L282.8594,947.4345 L282.8594,945.5907 Z M282.8594,943.8407 L282.8594,941.3563 L284.7031,941.3563 C285.7344,941.3563 286.5,941.8407 286.5,942.497 C286.5,943.2782 285.4844,943.8407 284.0938,943.8407 L282.8594,943.8407 Z " fill="#000000"/><text fill="#000000" font-family="sans-serif" font-size="14" lengthAdjust="spacing" textLength="236" x="302" y="946.206">AdminIndexPage (ProfileComponent)</text><rect fill="#E2E2F0" height="36" rx="2.5" ry="2.5" style="stroke:#181818;stroke-width:0.5;" width="190" x="555" y="82.5999"/><ellipse cx="573" cy="100.5999" fill="#D3D3D3" rx="11" ry="11" style="stroke:#181818;stroke-width:1.0;"/><path d="M568,101.7561 C568,104.2561 570.1406,106.0686 573.0625,106.0686 C574.2969,106.0686 575.4688,105.7717 576.2188,105.2561 C576.8281,104.8342 577.1563,104.4124 577.1563,104.0061 C577.1563,103.5374 576.7344,103.1311 576.2344,103.1311 C576,103.1311 575.7813,103.2092 575.5781,103.4124 C575.1406,103.8499 575.1406,103.8499 574.9688,103.9436 C574.5156,104.178 573.875,104.3186 573.1094,104.3186 C571.1094,104.3186 569.8281,103.303 569.8281,101.7249 L569.8281,100.678 C569.8281,98.9749 571.0469,97.7717 572.75,97.7717 C573.3281,97.7717 573.9063,97.9124 574.375,98.1624 C574.8438,98.428 575.0156,98.6155 575.0781,98.9749 C575.2031,99.6467 575.4531,99.8967 575.9844,99.8967 C576.2656,99.8967 576.5469,99.7561 576.7344,99.5374 C576.8594,99.3655 576.9063,99.1936 576.9063,98.7561 L576.9063,97.3967 C576.9063,96.9749 576.8906,96.8342 576.7656,96.6624 C576.5938,96.4124 576.3125,96.2561 575.9844,96.2561 C575.6719,96.2561 575.4688,96.3655 575.25,96.6311 C574.0781,96.1311 573.6406,96.0217 572.6875,96.0217 C570.0156,96.0217 568,98.0374 568,100.6624 L568,101.7561 Z " fill="#000000"/><text fill="#000000" font-family="sans-serif" font-size="14" lengthAdjust="spacing" textLength="148" x="590" y="102.6058">ReusableForm (Profile)</text><rect fill="#E2E2F0" height="36" rx="2.5" ry="2.5" style="stroke:#181818;stroke-width:0.5;" width="190" x="555" y="926.2001"/><ellipse cx="573" cy="944.2001" fill="#D3D3D3" rx="11" ry="11" style="stroke:#181818;stroke-width:1.0;"/><path d="M568,945.3563 C568,947.8563 570.1406,949.6688 573.0625,949.6688 C574.2969,949.6688 575.4688,949.372 576.2188,948.8563 C576.8281,948.4345 577.1563,948.0126 577.1563,947.6063 C577.1563,947.1376 576.7344,946.7313 576.2344,946.7313 C576,946.7313 575.7813,946.8095 575.5781,947.0126 C575.1406,947.4501 575.1406,947.4501 574.9688,947.5438 C574.5156,947.7782 573.875,947.9188 573.1094,947.9188 C571.1094,947.9188 569.8281,946.9032 569.8281,945.3251 L569.8281,944.2782 C569.8281,942.5751 571.0469,941.372 572.75,941.372 C573.3281,941.372 573.9063,941.5126 574.375,941.7626 C574.8438,942.0282 575.0156,942.2157 575.0781,942.5751 C575.2031,943.247 575.4531,943.497 575.9844,943.497 C576.2656,943.497 576.5469,943.3563 576.7344,943.1376 C576.8594,942.9657 576.9063,942.7938 576.9063,942.3563 L576.9063,940.997 C576.9063,940.5751 576.8906,940.4345 576.7656,940.2626 C576.5938,940.0126 576.3125,939.8563 575.9844,939.8563 C575.6719,939.8563 575.4688,939.9657 575.25,940.2313 C574.0781,939.7313 573.6406,939.622 572.6875,939.622 C570.0156,939.622 568,941.6376 568,944.2626 L568,945.3563 Z " fill="#000000"/><text fill="#000000" font-family="sans-serif" font-size="14" lengthAdjust="spacing" textLength="148" x="590" y="946.206">ReusableForm (Profile)</text><rect fill="#E2E2F0" height="47.5999" rx="2.5" ry="2.5" style="stroke:#181818;stroke-width:0.5;" width="147" x="755" y="71"/><ellipse cx="773" cy="89" fill="#FFFF00" rx="11" ry="11" style="stroke:#181818;stroke-width:1.0;"/><path d="M771.8594,90.0625 L773.1719,90.0625 L773.1719,90.1094 C773.1719,90.5 773.2031,90.6875 773.2969,90.8438 C773.4688,91.0938 773.7656,91.2656 774.0781,91.2656 C774.3594,91.2656 774.6406,91.125 774.8281,90.9063 C774.9531,90.7188 775,90.5625 775,90.1094 L775,88.2813 C775,87.8594 774.9844,87.7344 774.8594,87.5625 C774.7031,87.2969 774.4063,87.125 774.0781,87.125 C773.7813,87.125 773.5156,87.2656 773.3438,87.4844 C773.2031,87.6719 773.1719,87.8438 773.1719,88.2813 L773.1719,88.3281 L771.8594,88.3281 L771.8594,86.1563 L776.0781,86.1563 L776.0781,86.9219 C776.0781,87.3125 776.1094,87.4844 776.2188,87.6406 C776.3906,87.9063 776.6719,88.0625 777,88.0625 C777.2813,88.0625 777.5625,87.9375 777.75,87.7031 C777.8906,87.5156 777.9219,87.375 777.9219,86.9219 L777.9219,84.4063 L769.8438,84.4063 C769.4063,84.4063 769.2656,84.4219 769.0938,84.5313 C768.8281,84.7031 768.6563,84.9844 768.6563,85.2813 C768.6563,85.5625 768.8125,85.8438 769.0313,86 C769.2188,86.125 769.4063,86.1563 769.8438,86.1563 L770.0313,86.1563 L770.0313,92.25 L769.8438,92.25 C769.4219,92.25 769.2656,92.2813 769.0938,92.375 C768.8281,92.5313 768.6563,92.8281 768.6563,93.1094 C768.6563,93.6875 769.0625,94 769.8438,94 L773.5,94 C774.2813,94 774.6875,93.7188 774.6875,93.1094 C774.6875,92.8438 774.5469,92.5938 774.3125,92.4219 C774.125,92.2813 773.9531,92.25 773.5,92.25 L771.8594,92.25 L771.8594,90.0625 Z " fill="#000000"/><text fill="#000000" font-family="sans-serif" font-size="14" lengthAdjust="spacing" textLength="105" x="790" y="91.0059">user_backend.ts</text><text fill="#000000" font-family="sans-serif" font-size="14" lengthAdjust="spacing" textLength="84" x="800.5" y="107.8059">updateUser()</text><rect fill="#E2E2F0" height="47.5999" rx="2.5" ry="2.5" style="stroke:#181818;stroke-width:0.5;" width="147" x="755" y="926.2001"/><ellipse cx="773" cy="944.2001" fill="#FFFF00" rx="11" ry="11" style="stroke:#181818;stroke-width:1.0;"/><path d="M771.8594,945.2626 L773.1719,945.2626 L773.1719,945.3095 C773.1719,945.7001 773.2031,945.8876 773.2969,946.0438 C773.4688,946.2938 773.7656,946.4657 774.0781,946.4657 C774.3594,946.4657 774.6406,946.3251 774.8281,946.1063 C774.9531,945.9188 775,945.7626 775,945.3095 L775,943.4813 C775,943.0595 774.9844,942.9345 774.8594,942.7626 C774.7031,942.497 774.4063,942.3251 774.0781,942.3251 C773.7813,942.3251 773.5156,942.4657 773.3438,942.6845 C773.2031,942.872 773.1719,943.0438 773.1719,943.4813 L773.1719,943.5282 L771.8594,943.5282 L771.8594,941.3563 L776.0781,941.3563 L776.0781,942.122 C776.0781,942.5126 776.1094,942.6845 776.2188,942.8407 C776.3906,943.1063 776.6719,943.2626 777,943.2626 C777.2813,943.2626 777.5625,943.1376 777.75,942.9032 C777.8906,942.7157 777.9219,942.5751 777.9219,942.122 L777.9219,939.6063 L769.8438,939.6063 C769.4063,939.6063 769.2656,939.622 769.0938,939.7313 C768.8281,939.9032 768.6563,940.1845 768.6563,940.4813 C768.6563,940.7626 768.8125,941.0438 769.0313,941.2001 C769.2188,941.3251 769.4063,941.3563 769.8438,941.3563 L770.0313,941.3563 L770.0313,947.4501 L769.8438,947.4501 C769.4219,947.4501 769.2656,947.4813 769.0938,947.5751 C768.8281,947.7313 768.6563,948.0282 768.6563,948.3095 C768.6563,948.8876 769.0625,949.2001 769.8438,949.2001 L773.5,949.2001 C774.2813,949.2001 774.6875,948.9188 774.6875,948.3095 C774.6875,948.0438 774.5469,947.7938 774.3125,947.622 C774.125,947.4813 773.9531,947.4501 773.5,947.4501 L771.8594,947.4501 L771.8594,945.2626 Z " fill="#000000"/><text fill="#000000" font-family="sans-serif" font-size="14" lengthAdjust="spacing" textLength="105" x="790" y="946.206">user_backend.ts</text><text fill="#000000" font-family="sans-serif" font-size="14" lengthAdjust="spacing" textLength="84" x="800.5" y="963.006">updateUser()</text><rect fill="#E2E2F0" height="36" rx="2.5" ry="2.5" style="stroke:#181818;stroke-width:0.5;" width="128" x="912" y="82.5999"/><ellipse cx="930" cy="100.5999" fill="#ADD8E6" rx="11" ry="11" style="stroke:#181818;stroke-width:1.0;"/><path d="M933.8594,96.9124 C933.8594,96.4749 933.8438,96.3499 933.7344,96.178 C933.5781,95.928 933.2813,95.7717 932.9531,95.7717 C932.6094,95.7717 932.4219,95.9124 932.2656,96.2874 C931.7031,95.9592 930.9375,95.7717 930.0625,95.7717 C927.9219,95.7717 926.3281,97.0374 926.3281,98.6936 C926.3281,99.6467 926.875,100.5374 927.75,101.0061 C928.3125,101.3186 928.8438,101.4749 929.9844,101.6624 C931.1094,101.8655 931.375,101.928 931.75,102.0999 C932.0938,102.2717 932.3125,102.5686 932.3125,102.8811 C932.3125,103.5374 931.3594,104.053 930.1406,104.053 C929.0469,104.053 927.9844,103.5999 927.8281,103.053 C927.6875,102.6155 927.6875,102.6155 927.5625,102.4749 C927.3906,102.3186 927.1563,102.2405 926.9063,102.2405 C926.6094,102.2405 926.3438,102.3655 926.1563,102.5842 C926.0313,102.7561 925.9844,102.9436 925.9844,103.3655 L925.9844,104.4436 C925.9844,105.2092 926.2969,105.5842 926.9063,105.5842 C927.1875,105.5842 927.3438,105.4905 927.625,105.2092 C928.4844,105.6311 929.3281,105.8186 930.25,105.8186 C932.6094,105.8186 934.2188,104.6467 934.2188,102.9124 C934.2188,102.053 933.875,101.3655 933.1875,100.8342 C932.6563,100.428 931.9844,100.1936 930.4844,99.9436 C929.2031,99.6936 929.1406,99.678 928.8125,99.5061 C928.4688,99.3655 928.2344,99.0061 928.2344,98.678 C928.2344,98.0374 929.0469,97.5217 930.0781,97.5217 C931.125,97.5217 931.8906,97.9436 932.0313,98.5686 C932.1563,99.0999 932.1563,99.0999 932.2969,99.2405 C932.4531,99.3967 932.7031,99.4905 932.9531,99.4905 C933.25,99.4905 933.5,99.3655 933.6875,99.1467 C933.8281,98.9592 933.8594,98.8186 933.8594,98.3655 L933.8594,96.9124 Z " fill="#000000"/><text fill="#000000" font-family="sans-serif" font-size="14" lengthAdjust="spacing" textLength="86" x="947" y="102.6058">AuthManager</text><rect fill="#E2E2F0" height="36" rx="2.5" ry="2.5" style="stroke:#181818;stroke-width:0.5;" width="128" x="912" y="926.2001"/><ellipse cx="930" cy="944.2001" fill="#ADD8E6" rx="11" ry="11" style="stroke:#181818;stroke-width:1.0;"/><path d="M933.8594,940.5126 C933.8594,940.0751 933.8438,939.9501 933.7344,939.7782 C933.5781,939.5282 933.2813,939.372 932.9531,939.372 C932.6094,939.372 932.4219,939.5126 932.2656,939.8876 C931.7031,939.5595 930.9375,939.372 930.0625,939.372 C927.9219,939.372 926.3281,940.6376 926.3281,942.2938 C926.3281,943.247 926.875,944.1376 927.75,944.6063 C928.3125,944.9188 928.8438,945.0751 929.9844,945.2626 C931.1094,945.4657 931.375,945.5282 931.75,945.7001 C932.0938,945.872 932.3125,946.1688 932.3125,946.4813 C932.3125,947.1376 931.3594,947.6532 930.1406,947.6532 C929.0469,947.6532 927.9844,947.2001 927.8281,946.6532 C927.6875,946.2157 927.6875,946.2157 927.5625,946.0751 C927.3906,945.9188 927.1563,945.8407 926.9063,945.8407 C926.6094,945.8407 926.3438,945.9657 926.1563,946.1845 C926.0313,946.3563 925.9844,946.5438 925.9844,946.9657 L925.9844,948.0438 C925.9844,948.8095 926.2969,949.1845 926.9063,949.1845 C927.1875,949.1845 927.3438,949.0907 927.625,948.8095 C928.4844,949.2313 929.3281,949.4188 930.25,949.4188 C932.6094,949.4188 934.2188,948.247 934.2188,946.5126 C934.2188,945.6532 933.875,944.9657 933.1875,944.4345 C932.6563,944.0282 931.9844,943.7938 930.4844,943.5438 C929.2031,943.2938 929.1406,943.2782 928.8125,943.1063 C928.4688,942.9657 928.2344,942.6063 928.2344,942.2782 C928.2344,941.6376 929.0469,941.122 930.0781,941.122 C931.125,941.122 931.8906,941.5438 932.0313,942.1688 C932.1563,942.7001 932.1563,942.7001 932.2969,942.8407 C932.4531,942.997 932.7031,943.0907 932.9531,943.0907 C933.25,943.0907 933.5,942.9657 933.6875,942.747 C933.8281,942.5595 933.8594,942.4188 933.8594,941.9657 L933.8594,940.5126 Z " fill="#000000"/><text fill="#000000" font-family="sans-serif" font-size="14" lengthAdjust="spacing" textLength="86" x="947" y="946.206">AuthManager</text><rect fill="#E2E2F0" height="47.5999" rx="2.5" ry="2.5" style="stroke:#181818;stroke-width:0.5;" width="113" x="1075" y="71"/><ellipse cx="1093" cy="89" fill="#FFA500" rx="11" ry="11" style="stroke:#181818;stroke-width:1.0;"/><path d="M1091.8594,90.0625 L1093.1719,90.0625 L1093.1719,90.1094 C1093.1719,90.5 1093.2031,90.6875 1093.2969,90.8438 C1093.4688,91.0938 1093.7656,91.2656 1094.0781,91.2656 C1094.3594,91.2656 1094.6406,91.125 1094.8281,90.9063 C1094.9531,90.7188 1095,90.5625 1095,90.1094 L1095,88.2813 C1095,87.8594 1094.9844,87.7344 1094.8594,87.5625 C1094.7031,87.2969 1094.4063,87.125 1094.0781,87.125 C1093.7813,87.125 1093.5156,87.2656 1093.3438,87.4844 C1093.2031,87.6719 1093.1719,87.8438 1093.1719,88.2813 L1093.1719,88.3281 L1091.8594,88.3281 L1091.8594,86.1563 L1096.0781,86.1563 L1096.0781,86.9219 C1096.0781,87.3125 1096.1094,87.4844 1096.2188,87.6406 C1096.3906,87.9063 1096.6719,88.0625 1097,88.0625 C1097.2813,88.0625 1097.5625,87.9375 1097.75,87.7031 C1097.8906,87.5156 1097.9219,87.375 1097.9219,86.9219 L1097.9219,84.4063 L1089.8438,84.4063 C1089.4063,84.4063 1089.2656,84.4219 1089.0938,84.5313 C1088.8281,84.7031 1088.6563,84.9844 1088.6563,85.2813 C1088.6563,85.5625 1088.8125,85.8438 1089.0313,86 C1089.2188,86.125 1089.4063,86.1563 1089.8438,86.1563 L1090.0313,86.1563 L1090.0313,92.25 L1089.8438,92.25 C1089.4219,92.25 1089.2656,92.2813 1089.0938,92.375 C1088.8281,92.5313 1088.6563,92.8281 1088.6563,93.1094 C1088.6563,93.6875 1089.0625,94 1089.8438,94 L1093.5,94 C1094.2813,94 1094.6875,93.7188 1094.6875,93.1094 C1094.6875,92.8438 1094.5469,92.5938 1094.3125,92.4219 C1094.125,92.2813 1093.9531,92.25 1093.5,92.25 L1091.8594,92.25 L1091.8594,90.0625 Z " fill="#000000"/><text fill="#000000" font-family="sans-serif" font-size="14" lengthAdjust="spacing" textLength="40" x="1125.5" y="91.0059">utils.ts</text><text fill="#000000" font-family="sans-serif" font-size="14" lengthAdjust="spacing" textLength="71" x="1110" y="107.8059">fetchJson()</text><rect fill="#E2E2F0" height="47.5999" rx="2.5" ry="2.5" style="stroke:#181818;stroke-width:0.5;" width="113" x="1075" y="926.2001"/><ellipse cx="1093" cy="944.2001" fill="#FFA500" rx="11" ry="11" style="stroke:#181818;stroke-width:1.0;"/><path d="M1091.8594,945.2626 L1093.1719,945.2626 L1093.1719,945.3095 C1093.1719,945.7001 1093.2031,945.8876 1093.2969,946.0438 C1093.4688,946.2938 1093.7656,946.4657 1094.0781,946.4657 C1094.3594,946.4657 1094.6406,946.3251 1094.8281,946.1063 C1094.9531,945.9188 1095,945.7626 1095,945.3095 L1095,943.4813 C1095,943.0595 1094.9844,942.9345 1094.8594,942.7626 C1094.7031,942.497 1094.4063,942.3251 1094.0781,942.3251 C1093.7813,942.3251 1093.5156,942.4657 1093.3438,942.6845 C1093.2031,942.872 1093.1719,943.0438 1093.1719,943.4813 L1093.1719,943.5282 L1091.8594,943.5282 L1091.8594,941.3563 L1096.0781,941.3563 L1096.0781,942.122 C1096.0781,942.5126 1096.1094,942.6845 1096.2188,942.8407 C1096.3906,943.1063 1096.6719,943.2626 1097,943.2626 C1097.2813,943.2626 1097.5625,943.1376 1097.75,942.9032 C1097.8906,942.7157 1097.9219,942.5751 1097.9219,942.122 L1097.9219,939.6063 L1089.8438,939.6063 C1089.4063,939.6063 1089.2656,939.622 1089.0938,939.7313 C1088.8281,939.9032 1088.6563,940.1845 1088.6563,940.4813 C1088.6563,940.7626 1088.8125,941.0438 1089.0313,941.2001 C1089.2188,941.3251 1089.4063,941.3563 1089.8438,941.3563 L1090.0313,941.3563 L1090.0313,947.4501 L1089.8438,947.4501 C1089.4219,947.4501 1089.2656,947.4813 1089.0938,947.5751 C1088.8281,947.7313 1088.6563,948.0282 1088.6563,948.3095 C1088.6563,948.8876 1089.0625,949.2001 1089.8438,949.2001 L1093.5,949.2001 C1094.2813,949.2001 1094.6875,948.9188 1094.6875,948.3095 C1094.6875,948.0438 1094.5469,947.7938 1094.3125,947.622 C1094.125,947.4813 1093.9531,947.4501 1093.5,947.4501 L1091.8594,947.4501 L1091.8594,945.2626 Z " fill="#000000"/><text fill="#000000" font-family="sans-serif" font-size="14" lengthAdjust="spacing" textLength="40" x="1125.5" y="946.206">utils.ts</text><text fill="#000000" font-family="sans-serif" font-size="14" lengthAdjust="spacing" textLength="71" x="1110" y="963.006">fetchJson()</text><rect fill="#E2E2F0" height="36" rx="2.5" ry="2.5" style="stroke:#181818;stroke-width:0.5;" width="119" x="1374" y="82.5999"/><ellipse cx="1392" cy="100.5999" fill="#FF6347" rx="11" ry="11" style="stroke:#181818;stroke-width:1.0;"/><path d="M1395.8594,96.9124 C1395.8594,96.4749 1395.8438,96.3499 1395.7344,96.178 C1395.5781,95.928 1395.2813,95.7717 1394.9531,95.7717 C1394.6094,95.7717 1394.4219,95.9124 1394.2656,96.2874 C1393.7031,95.9592 1392.9375,95.7717 1392.0625,95.7717 C1389.9219,95.7717 1388.3281,97.0374 1388.3281,98.6936 C1388.3281,99.6467 1388.875,100.5374 1389.75,101.0061 C1390.3125,101.3186 1390.8438,101.4749 1391.9844,101.6624 C1393.1094,101.8655 1393.375,101.928 1393.75,102.0999 C1394.0938,102.2717 1394.3125,102.5686 1394.3125,102.8811 C1394.3125,103.5374 1393.3594,104.053 1392.1406,104.053 C1391.0469,104.053 1389.9844,103.5999 1389.8281,103.053 C1389.6875,102.6155 1389.6875,102.6155 1389.5625,102.4749 C1389.3906,102.3186 1389.1563,102.2405 1388.9063,102.2405 C1388.6094,102.2405 1388.3438,102.3655 1388.1563,102.5842 C1388.0313,102.7561 1387.9844,102.9436 1387.9844,103.3655 L1387.9844,104.4436 C1387.9844,105.2092 1388.2969,105.5842 1388.9063,105.5842 C1389.1875,105.5842 1389.3438,105.4905 1389.625,105.2092 C1390.4844,105.6311 1391.3281,105.8186 1392.25,105.8186 C1394.6094,105.8186 1396.2188,104.6467 1396.2188,102.9124 C1396.2188,102.053 1395.875,101.3655 1395.1875,100.8342 C1394.6563,100.428 1393.9844,100.1936 1392.4844,99.9436 C1391.2031,99.6936 1391.1406,99.678 1390.8125,99.5061 C1390.4688,99.3655 1390.2344,99.0061 1390.2344,98.678 C1390.2344,98.0374 1391.0469,97.5217 1392.0781,97.5217 C1393.125,97.5217 1393.8906,97.9436 1394.0313,98.5686 C1394.1563,99.0999 1394.1563,99.0999 1394.2969,99.2405 C1394.4531,99.3967 1394.7031,99.4905 1394.9531,99.4905 C1395.25,99.4905 1395.5,99.3655 1395.6875,99.1467 C1395.8281,98.9592 1395.8594,98.8186 1395.8594,98.3655 L1395.8594,96.9124 Z " fill="#000000"/><text fill="#000000" font-family="sans-serif" font-size="14" lengthAdjust="spacing" textLength="77" x="1409" y="102.6058">BackendAPI</text><rect fill="#E2E2F0" height="36" rx="2.5" ry="2.5" style="stroke:#181818;stroke-width:0.5;" width="119" x="1374" y="926.2001"/><ellipse cx="1392" cy="944.2001" fill="#FF6347" rx="11" ry="11" style="stroke:#181818;stroke-width:1.0;"/><path d="M1395.8594,940.5126 C1395.8594,940.0751 1395.8438,939.9501 1395.7344,939.7782 C1395.5781,939.5282 1395.2813,939.372 1394.9531,939.372 C1394.6094,939.372 1394.4219,939.5126 1394.2656,939.8876 C1393.7031,939.5595 1392.9375,939.372 1392.0625,939.372 C1389.9219,939.372 1388.3281,940.6376 1388.3281,942.2938 C1388.3281,943.247 1388.875,944.1376 1389.75,944.6063 C1390.3125,944.9188 1390.8438,945.0751 1391.9844,945.2626 C1393.1094,945.4657 1393.375,945.5282 1393.75,945.7001 C1394.0938,945.872 1394.3125,946.1688 1394.3125,946.4813 C1394.3125,947.1376 1393.3594,947.6532 1392.1406,947.6532 C1391.0469,947.6532 1389.9844,947.2001 1389.8281,946.6532 C1389.6875,946.2157 1389.6875,946.2157 1389.5625,946.0751 C1389.3906,945.9188 1389.1563,945.8407 1388.9063,945.8407 C1388.6094,945.8407 1388.3438,945.9657 1388.1563,946.1845 C1388.0313,946.3563 1387.9844,946.5438 1387.9844,946.9657 L1387.9844,948.0438 C1387.9844,948.8095 1388.2969,949.1845 1388.9063,949.1845 C1389.1875,949.1845 1389.3438,949.0907 1389.625,948.8095 C1390.4844,949.2313 1391.3281,949.4188 1392.25,949.4188 C1394.6094,949.4188 1396.2188,948.247 1396.2188,946.5126 C1396.2188,945.6532 1395.875,944.9657 1395.1875,944.4345 C1394.6563,944.0282 1393.9844,943.7938 1392.4844,943.5438 C1391.2031,943.2938 1391.1406,943.2782 1390.8125,943.1063 C1390.4688,942.9657 1390.2344,942.6063 1390.2344,942.2782 C1390.2344,941.6376 1391.0469,941.122 1392.0781,941.122 C1393.125,941.122 1393.8906,941.5438 1394.0313,942.1688 C1394.1563,942.7001 1394.1563,942.7001 1394.2969,942.8407 C1394.4531,942.997 1394.7031,943.0907 1394.9531,943.0907 C1395.25,943.0907 1395.5,942.9657 1395.6875,942.747 C1395.8281,942.5595 1395.8594,942.4188 1395.8594,941.9657 L1395.8594,940.5126 Z " fill="#000000"/><text fill="#000000" font-family="sans-serif" font-size="14" lengthAdjust="spacing" textLength="77" x="1409" y="946.206">BackendAPI</text><rect fill="#E2E2F0" height="36" rx="2.5" ry="2.5" style="stroke:#181818;stroke-width:0.5;" width="117" x="1503" y="82.5999"/><ellipse cx="1521" cy="100.5999" fill="#808080" rx="11" ry="11" style="stroke:#181818;stroke-width:1.0;"/><path d="M1524.8594,96.9124 C1524.8594,96.4749 1524.8438,96.3499 1524.7344,96.178 C1524.5781,95.928 1524.2813,95.7717 1523.9531,95.7717 C1523.6094,95.7717 1523.4219,95.9124 1523.2656,96.2874 C1522.7031,95.9592 1521.9375,95.7717 1521.0625,95.7717 C1518.9219,95.7717 1517.3281,97.0374 1517.3281,98.6936 C1517.3281,99.6467 1517.875,100.5374 1518.75,101.0061 C1519.3125,101.3186 1519.8438,101.4749 1520.9844,101.6624 C1522.1094,101.8655 1522.375,101.928 1522.75,102.0999 C1523.0938,102.2717 1523.3125,102.5686 1523.3125,102.8811 C1523.3125,103.5374 1522.3594,104.053 1521.1406,104.053 C1520.0469,104.053 1518.9844,103.5999 1518.8281,103.053 C1518.6875,102.6155 1518.6875,102.6155 1518.5625,102.4749 C1518.3906,102.3186 1518.1563,102.2405 1517.9063,102.2405 C1517.6094,102.2405 1517.3438,102.3655 1517.1563,102.5842 C1517.0313,102.7561 1516.9844,102.9436 1516.9844,103.3655 L1516.9844,104.4436 C1516.9844,105.2092 1517.2969,105.5842 1517.9063,105.5842 C1518.1875,105.5842 1518.3438,105.4905 1518.625,105.2092 C1519.4844,105.6311 1520.3281,105.8186 1521.25,105.8186 C1523.6094,105.8186 1525.2188,104.6467 1525.2188,102.9124 C1525.2188,102.053 1524.875,101.3655 1524.1875,100.8342 C1523.6563,100.428 1522.9844,100.1936 1521.4844,99.9436 C1520.2031,99.6936 1520.1406,99.678 1519.8125,99.5061 C1519.4688,99.3655 1519.2344,99.0061 1519.2344,98.678 C1519.2344,98.0374 1520.0469,97.5217 1521.0781,97.5217 C1522.125,97.5217 1522.8906,97.9436 1523.0313,98.5686 C1523.1563,99.0999 1523.1563,99.0999 1523.2969,99.2405 C1523.4531,99.3967 1523.7031,99.4905 1523.9531,99.4905 C1524.25,99.4905 1524.5,99.3655 1524.6875,99.1467 C1524.8281,98.9592 1524.8594,98.8186 1524.8594,98.3655 L1524.8594,96.9124 Z " fill="#000000"/><text fill="#000000" font-family="sans-serif" font-size="14" lengthAdjust="spacing" textLength="75" x="1538" y="102.6058">QueryClient</text><rect fill="#E2E2F0" height="36" rx="2.5" ry="2.5" style="stroke:#181818;stroke-width:0.5;" width="117" x="1503" y="926.2001"/><ellipse cx="1521" cy="944.2001" fill="#808080" rx="11" ry="11" style="stroke:#181818;stroke-width:1.0;"/><path d="M1524.8594,940.5126 C1524.8594,940.0751 1524.8438,939.9501 1524.7344,939.7782 C1524.5781,939.5282 1524.2813,939.372 1523.9531,939.372 C1523.6094,939.372 1523.4219,939.5126 1523.2656,939.8876 C1522.7031,939.5595 1521.9375,939.372 1521.0625,939.372 C1518.9219,939.372 1517.3281,940.6376 1517.3281,942.2938 C1517.3281,943.247 1517.875,944.1376 1518.75,944.6063 C1519.3125,944.9188 1519.8438,945.0751 1520.9844,945.2626 C1522.1094,945.4657 1522.375,945.5282 1522.75,945.7001 C1523.0938,945.872 1523.3125,946.1688 1523.3125,946.4813 C1523.3125,947.1376 1522.3594,947.6532 1521.1406,947.6532 C1520.0469,947.6532 1518.9844,947.2001 1518.8281,946.6532 C1518.6875,946.2157 1518.6875,946.2157 1518.5625,946.0751 C1518.3906,945.9188 1518.1563,945.8407 1517.9063,945.8407 C1517.6094,945.8407 1517.3438,945.9657 1517.1563,946.1845 C1517.0313,946.3563 1516.9844,946.5438 1516.9844,946.9657 L1516.9844,948.0438 C1516.9844,948.8095 1517.2969,949.1845 1517.9063,949.1845 C1518.1875,949.1845 1518.3438,949.0907 1518.625,948.8095 C1519.4844,949.2313 1520.3281,949.4188 1521.25,949.4188 C1523.6094,949.4188 1525.2188,948.247 1525.2188,946.5126 C1525.2188,945.6532 1524.875,944.9657 1524.1875,944.4345 C1523.6563,944.0282 1522.9844,943.7938 1521.4844,943.5438 C1520.2031,943.2938 1520.1406,943.2782 1519.8125,943.1063 C1519.4688,942.9657 1519.2344,942.6063 1519.2344,942.2782 C1519.2344,941.6376 1520.0469,941.122 1521.0781,941.122 C1522.125,941.122 1522.8906,941.5438 1523.0313,942.1688 C1523.1563,942.7001 1523.1563,942.7001 1523.2969,942.8407 C1523.4531,942.997 1523.7031,943.0907 1523.9531,943.0907 C1524.25,943.0907 1524.5,942.9657 1524.6875,942.747 C1524.8281,942.5595 1524.8594,942.4188 1524.8594,941.9657 L1524.8594,940.5126 Z " fill="#000000"/><text fill="#000000" font-family="sans-serif" font-size="14" lengthAdjust="spacing" textLength="75" x="1538" y="946.206">QueryClient</text><rect fill="#E2E2F0" height="36" rx="2.5" ry="2.5" style="stroke:#181818;stroke-width:0.5;" width="91" x="1630" y="82.5999"/><ellipse cx="1648" cy="100.5999" fill="#FFC0CB" rx="11" ry="11" style="stroke:#181818;stroke-width:1.0;"/><path d="M1643,101.7561 C1643,104.2561 1645.1406,106.0686 1648.0625,106.0686 C1649.2969,106.0686 1650.4688,105.7717 1651.2188,105.2561 C1651.8281,104.8342 1652.1563,104.4124 1652.1563,104.0061 C1652.1563,103.5374 1651.7344,103.1311 1651.2344,103.1311 C1651,103.1311 1650.7813,103.2092 1650.5781,103.4124 C1650.1406,103.8499 1650.1406,103.8499 1649.9688,103.9436 C1649.5156,104.178 1648.875,104.3186 1648.1094,104.3186 C1646.1094,104.3186 1644.8281,103.303 1644.8281,101.7249 L1644.8281,100.678 C1644.8281,98.9749 1646.0469,97.7717 1647.75,97.7717 C1648.3281,97.7717 1648.9063,97.9124 1649.375,98.1624 C1649.8438,98.428 1650.0156,98.6155 1650.0781,98.9749 C1650.2031,99.6467 1650.4531,99.8967 1650.9844,99.8967 C1651.2656,99.8967 1651.5469,99.7561 1651.7344,99.5374 C1651.8594,99.3655 1651.9063,99.1936 1651.9063,98.7561 L1651.9063,97.3967 C1651.9063,96.9749 1651.8906,96.8342 1651.7656,96.6624 C1651.5938,96.4124 1651.3125,96.2561 1650.9844,96.2561 C1650.6719,96.2561 1650.4688,96.3655 1650.25,96.6311 C1649.0781,96.1311 1648.6406,96.0217 1647.6875,96.0217 C1645.0156,96.0217 1643,98.0374 1643,100.6624 L1643,101.7561 Z " fill="#000000"/><text fill="#000000" font-family="sans-serif" font-size="14" lengthAdjust="spacing" textLength="49" x="1665" y="102.6058">Toaster</text><rect fill="#E2E2F0" height="36" rx="2.5" ry="2.5" style="stroke:#181818;stroke-width:0.5;" width="91" x="1630" y="926.2001"/><ellipse cx="1648" cy="944.2001" fill="#FFC0CB" rx="11" ry="11" style="stroke:#181818;stroke-width:1.0;"/><path d="M1643,945.3563 C1643,947.8563 1645.1406,949.6688 1648.0625,949.6688 C1649.2969,949.6688 1650.4688,949.372 1651.2188,948.8563 C1651.8281,948.4345 1652.1563,948.0126 1652.1563,947.6063 C1652.1563,947.1376 1651.7344,946.7313 1651.2344,946.7313 C1651,946.7313 1650.7813,946.8095 1650.5781,947.0126 C1650.1406,947.4501 1650.1406,947.4501 1649.9688,947.5438 C1649.5156,947.7782 1648.875,947.9188 1648.1094,947.9188 C1646.1094,947.9188 1644.8281,946.9032 1644.8281,945.3251 L1644.8281,944.2782 C1644.8281,942.5751 1646.0469,941.372 1647.75,941.372 C1648.3281,941.372 1648.9063,941.5126 1649.375,941.7626 C1649.8438,942.0282 1650.0156,942.2157 1650.0781,942.5751 C1650.2031,943.247 1650.4531,943.497 1650.9844,943.497 C1651.2656,943.497 1651.5469,943.3563 1651.7344,943.1376 C1651.8594,942.9657 1651.9063,942.7938 1651.9063,942.3563 L1651.9063,940.997 C1651.9063,940.5751 1651.8906,940.4345 1651.7656,940.2626 C1651.5938,940.0126 1651.3125,939.8563 1650.9844,939.8563 C1650.6719,939.8563 1650.4688,939.9657 1650.25,940.2313 C1649.0781,939.7313 1648.6406,939.622 1647.6875,939.622 C1645.0156,939.622 1643,941.6376 1643,944.2626 L1643,945.3563 Z " fill="#000000"/><text fill="#000000" font-family="sans-serif" font-size="14" lengthAdjust="spacing" textLength="49" x="1665" y="946.206">Toaster</text><rect fill="#FFFFFF" height="766.0002" style="stroke:#181818;stroke-width:1.0;" width="10" x="401" y="151.1999"/><rect fill="#FFFFFF" height="88.8" style="stroke:#181818;stroke-width:1.0;" width="10" x="645" y="210.3999"/><rect fill="#FFFFFF" height="529.2001" style="stroke:#181818;stroke-width:1.0;" width="10" x="823.5" y="388"/><rect fill="#FFFFFF" height="29.6" style="stroke:#181818;stroke-width:1.0;" width="10" x="971" y="328.7999"/><rect fill="#FFFFFF" height="29.6" style="stroke:#181818;stroke-width:1.0;" width="10" x="971" y="447.2"/><rect fill="#FFFFFF" height="499.6001" style="stroke:#181818;stroke-width:1.0;" width="10" x="1126.5" y="417.6"/><rect fill="#FFFFFF" height="410.8001" style="stroke:#181818;stroke-width:1.0;" width="10" x="1428.5" y="506.4"/><rect fill="#FFFFFF" height="29.6" style="stroke:#181818;stroke-width:1.0;" width="10" x="1556.5" y="709.0001"/><rect fill="#FFFFFF" height="30" style="stroke:#181818;stroke-width:1.0;" width="10" x="1670.5" y="649.4001"/><rect fill="#FFFFFF" height="30" style="stroke:#181818;stroke-width:1.0;" width="10" x="1670.5" y="872.2001"/><polygon fill="#181818" points="389,147.1999,399,151.1999,389,155.1999,393,151.1999" style="stroke:#181818;stroke-width:1.0;"/><line style="stroke:#181818;stroke-width:1.0;" x1="28" x2="395" y1="151.1999" y2="151.1999"/><text fill="#000000" font-family="sans-serif" font-size="13" lengthAdjust="spacing" textLength="354" x="35" y="145.6769">Navigates to /dashboard_admin/ (displays ProfileComponent)</text><polygon fill="#181818" points="1549.5,176.7999,1559.5,180.7999,1549.5,184.7999,1553.5,180.7999" style="stroke:#181818;stroke-width:1.0;"/><line style="stroke:#181818;stroke-width:1.0;" x1="411" x2="1555.5" y1="180.7999" y2="180.7999"/><text fill="#000000" font-family="sans-serif" font-size="13" lengthAdjust="spacing" textLength="323" x="418" y="175.2769">useQuery(['user', adminUserId]) ' For initial form values '</text><polygon fill="#181818" points="633,206.3999,643,210.3999,633,214.3999,637,210.3999" style="stroke:#181818;stroke-width:1.0;"/><line style="stroke:#181818;stroke-width:1.0;" x1="411" x2="639" y1="210.3999" y2="210.3999"/><text fill="#000000" font-family="sans-serif" font-size="13" lengthAdjust="spacing" textLength="174" x="418" y="204.8769">Renders profile form, pre-filled</text><polygon fill="#181818" points="633,235.9999,643,239.9999,633,243.9999,637,239.9999" style="stroke:#181818;stroke-width:1.0;"/><line style="stroke:#181818;stroke-width:1.0;" x1="28" x2="639" y1="239.9999" y2="239.9999"/><text fill="#000000" font-family="sans-serif" font-size="13" lengthAdjust="spacing" textLength="130" x="35" y="234.4769">Modifies profile details</text><polygon fill="#181818" points="633,265.5999,643,269.5999,633,273.5999,637,269.5999" style="stroke:#181818;stroke-width:1.0;"/><line style="stroke:#181818;stroke-width:1.0;" x1="28" x2="639" y1="269.5999" y2="269.5999"/><text fill="#000000" font-family="sans-serif" font-size="13" lengthAdjust="spacing" textLength="132" x="35" y="264.0769">Clicks "Update Profile"</text><polygon fill="#181818" points="422,295.1999,412,299.1999,422,303.1999,418,299.1999" style="stroke:#181818;stroke-width:1.0;"/><line style="stroke:#181818;stroke-width:1.0;" x1="416" x2="649" y1="299.1999" y2="299.1999"/><text fill="#000000" font-family="sans-serif" font-size="13" lengthAdjust="spacing" textLength="184" x="428" y="293.6769">onSubmit(values: UserCreation)</text><polygon fill="#181818" points="959,324.7999,969,328.7999,959,332.7999,963,328.7999" style="stroke:#181818;stroke-width:1.0;"/><line style="stroke:#181818;stroke-width:1.0;" x1="411" x2="965" y1="328.7999" y2="328.7999"/><text fill="#000000" font-family="sans-serif" font-size="13" lengthAdjust="spacing" textLength="257" x="418" y="323.2769">getUserId() ' To confirm it's their own profile '</text><polygon fill="#181818" points="422,354.4,412,358.4,422,362.4,418,358.4" style="stroke:#181818;stroke-width:1.0;"/><line style="stroke:#181818;stroke-width:1.0;stroke-dasharray:2.0,2.0;" x1="416" x2="975" y1="358.4" y2="358.4"/><text fill="#000000" font-family="sans-serif" font-size="13" lengthAdjust="spacing" textLength="73" x="428" y="352.877">adminUserId</text><polygon fill="#181818" points="811.5,384,821.5,388,811.5,392,815.5,388" style="stroke:#181818;stroke-width:1.0;"/><line style="stroke:#181818;stroke-width:1.0;" x1="411" x2="817.5" y1="388" y2="388"/><text fill="#000000" font-family="sans-serif" font-size="13" lengthAdjust="spacing" textLength="193" x="418" y="382.477">updateUser(adminUserId, values)</text><polygon fill="#181818" points="1114.5,413.6,1124.5,417.6,1114.5,421.6,1118.5,417.6" style="stroke:#181818;stroke-width:1.0;"/><line style="stroke:#181818;stroke-width:1.0;" x1="833.5" x2="1120.5" y1="417.6" y2="417.6"/><text fill="#000000" font-family="sans-serif" font-size="13" lengthAdjust="spacing" textLength="274" x="840.5" y="412.077">fetchJson("/users/{adminUserId}", {PUT, body})</text><polygon fill="#181818" points="992,443.2,982,447.2,992,451.2,988,447.2" style="stroke:#181818;stroke-width:1.0;"/><line style="stroke:#181818;stroke-width:1.0;" x1="986" x2="1125.5" y1="447.2" y2="447.2"/><text fill="#000000" font-family="sans-serif" font-size="13" lengthAdjust="spacing" textLength="62" x="998" y="441.677">getToken()</text><polygon fill="#181818" points="1114.5,472.8,1124.5,476.8,1114.5,480.8,1118.5,476.8" style="stroke:#181818;stroke-width:1.0;"/><line style="stroke:#181818;stroke-width:1.0;stroke-dasharray:2.0,2.0;" x1="976" x2="1120.5" y1="476.8" y2="476.8"/><text fill="#000000" font-family="sans-serif" font-size="13" lengthAdjust="spacing" textLength="112" x="983" y="471.277">"admin_token_xyz"</text><polygon fill="#181818" points="1416.5,502.4,1426.5,506.4,1416.5,510.4,1420.5,506.4" style="stroke:#181818;stroke-width:1.0;"/><line style="stroke:#181818;stroke-width:1.0;" x1="1136.5" x2="1422.5" y1="506.4" y2="506.4"/><text fill="#000000" font-family="sans-serif" font-size="13" lengthAdjust="spacing" textLength="273" x="1143.5" y="500.877">PUT /users/{adminUserId} (updatedProfileData)</text><path d="M257,521.4 L317,521.4 L317,529 L307,539 L257,539 L257,521.4 " fill="#EEEEEE" style="stroke:#000000;stroke-width:1.5;"/><rect fill="none" height="388.8001" style="stroke:#000000;stroke-width:1.5;" width="1474" x="257" y="521.4"/><text fill="#000000" font-family="sans-serif" font-size="13" font-weight="bold" lengthAdjust="spacing" textLength="15" x="272" y="534.477">alt</text><text fill="#000000" font-family="sans-serif" font-size="11" font-weight="bold" lengthAdjust="spacing" textLength="158" x="332" y="533.619">[Profile updated successfully]</text><polygon fill="#181818" points="1147.5,556.6001,1137.5,560.6001,1147.5,564.6001,1143.5,560.6001" style="stroke:#181818;stroke-width:1.0;"/><line style="stroke:#181818;stroke-width:1.0;stroke-dasharray:2.0,2.0;" x1="1141.5" x2="1427.5" y1="560.6001" y2="560.6001"/><text fill="#000000" font-family="sans-serif" font-size="13" lengthAdjust="spacing" textLength="143" x="1153.5" y="555.0771">HTTP 200 OK (UserInfo)</text><polygon fill="#181818" points="844.5,586.2001,834.5,590.2001,844.5,594.2001,840.5,590.2001" style="stroke:#181818;stroke-width:1.0;"/><line style="stroke:#181818;stroke-width:1.0;stroke-dasharray:2.0,2.0;" x1="838.5" x2="1125.5" y1="590.2001" y2="590.2001"/><text fill="#000000" font-family="sans-serif" font-size="13" lengthAdjust="spacing" textLength="49" x="850.5" y="584.6771">UserInfo</text><polygon fill="#181818" points="422,615.8001,412,619.8001,422,623.8001,418,619.8001" style="stroke:#181818;stroke-width:1.0;"/><line style="stroke:#181818;stroke-width:1.0;stroke-dasharray:2.0,2.0;" x1="416" x2="822.5" y1="619.8001" y2="619.8001"/><text fill="#000000" font-family="sans-serif" font-size="13" lengthAdjust="spacing" textLength="49" x="428" y="614.2771">UserInfo</text><polygon fill="#181818" points="1658.5,645.4001,1668.5,649.4001,1658.5,653.4001,1662.5,649.4001" style="stroke:#181818;stroke-width:1.0;"/><line style="stroke:#181818;stroke-width:1.0;" x1="411" x2="1664.5" y1="649.4001" y2="649.4001"/><text fill="#000000" font-family="sans-serif" font-size="13" lengthAdjust="spacing" textLength="264" x="418" y="643.8771">toast.success("Profile updated successfully")</text><polygon fill="#181818" points="1544.5,705.0001,1554.5,709.0001,1544.5,713.0001,1548.5,709.0001" style="stroke:#181818;stroke-width:1.0;"/><line style="stroke:#181818;stroke-width:1.0;" x1="411" x2="1550.5" y1="709.0001" y2="709.0001"/><text fill="#000000" font-family="sans-serif" font-size="13" lengthAdjust="spacing" textLength="226" x="418" y="703.4771">invalidateQueries(['user', adminUserId])</text><polygon fill="#181818" points="422,734.6001,412,738.6001,422,742.6001,418,738.6001" style="stroke:#181818;stroke-width:1.0;"/><line style="stroke:#181818;stroke-width:1.0;" x1="416" x2="1560.5" y1="738.6001" y2="738.6001"/><text fill="#000000" font-family="sans-serif" font-size="13" lengthAdjust="spacing" textLength="162" x="428" y="733.0771">Triggers refetch, UI updates</text><line style="stroke:#000000;stroke-width:1.0;stroke-dasharray:2.0,2.0;" x1="257" x2="1731" y1="747.6001" y2="747.6001"/><text fill="#000000" font-family="sans-serif" font-size="11" font-weight="bold" lengthAdjust="spacing" textLength="122" x="262" y="757.8191">[Error updating profile]</text><polygon fill="#181818" points="1147.5,779.4,1137.5,783.4,1147.5,787.4,1143.5,783.4" style="stroke:#181818;stroke-width:1.0;"/><line style="stroke:#181818;stroke-width:1.0;stroke-dasharray:2.0,2.0;" x1="1141.5" x2="1427.5" y1="783.4" y2="783.4"/><text fill="#000000" font-family="sans-serif" font-size="13" lengthAdjust="spacing" textLength="66" x="1153.5" y="777.877">HTTP Error</text><polygon fill="#181818" points="844.5,809.0001,834.5,813.0001,844.5,817.0001,840.5,813.0001" style="stroke:#181818;stroke-width:1.0;"/><line style="stroke:#181818;stroke-width:1.0;" x1="838.5" x2="1125.5" y1="813.0001" y2="813.0001"/><text fill="#000000" font-family="sans-serif" font-size="13" lengthAdjust="spacing" textLength="70" x="850.5" y="807.4771">throws Error</text><polygon fill="#181818" points="422,838.6001,412,842.6001,422,846.6001,418,842.6001" style="stroke:#181818;stroke-width:1.0;"/><line style="stroke:#181818;stroke-width:1.0;stroke-dasharray:2.0,2.0;" x1="416" x2="822.5" y1="842.6001" y2="842.6001"/><text fill="#000000" font-family="sans-serif" font-size="13" lengthAdjust="spacing" textLength="70" x="428" y="837.0771">throws Error</text><polygon fill="#181818" points="1658.5,868.2001,1668.5,872.2001,1658.5,876.2001,1662.5,872.2001" style="stroke:#181818;stroke-width:1.0;"/><line style="stroke:#181818;stroke-width:1.0;" x1="411" x2="1664.5" y1="872.2001" y2="872.2001"/><text fill="#000000" font-family="sans-serif" font-size="13" lengthAdjust="spacing" textLength="209" x="418" y="866.6771">toast.error("Error updating profile...")</text><!--SRC=[bLJ1Zjis4BthAmQwM0Qqtg178LXWwtGH9qthxjgdDZ1eSImJIvCkIUt62VBl7LAIHLkEYzn4QkRDuvituuIJ2ClfwhvqDPFYApDpD1iXx_bEACZwQsZkOMxqNkXn0K_uRusgH7WdM6NOBabOwRI1DAIcm2o4hwL5a-oPSQ8KUwPS6p1J7B_CMOMG4IGXurJlzbgXSkEGtDw6aBTliyTSct8h-FZkxXJj4MlBrX8VjDaTiKuWmX-2cEPIL5jN6JmCK6fYkLgpyXaLdpZxZwhtd3dqvBC6p7_-sWHui8VyW5Bgrm7IVUssdvWYsgOHmPyhutEU6W9hMUEGW1FIXieRTENsWzMgBVpWpqlwtPJLXgbgcDzIkv_FcghpMLFHwHrpUX3-LutcC9M2v0xnqRd9kwZIGZFhsdUrtusmUw6UVNHoR3dSt9sqi80_s8keI5CBJiCjPtQxripm5VCfjv1nOVUI7Ovjw_tWdILUA3L6J69qAXQ_e03gPxZ8_XxvrevoO1sp6VyyXX6GAq0euGIJiF4EUM7K5mkZP0IJoGH-rumtIICB-bLvI0Da2XP-ZyxhnsOhu95wWSR2lhaD5N8wuGqT9VB1atpUPVbQn4-QYut07fAZO-IPQpaaH_bi8Lq6CtS_qoIE6lH9gwTwlHCkQmGfWlEd1faJMeqJZfUfdydHsRw02bqZU-PbNsWejTe8gYmSAUksA4pGjtlNgDUc1Kawi9i1sQYhCRCkyPnLFCHaadx68voyTK9akoWjYI48iP_E0lh9JM-zM-pjjmZtUvh3j_boaSDQyyFt2Fw8aVHevn8kD5NCnjUrYScaeVJA-RpLbyFNz98-f_LePnH03E4IUyWQkNWhwJkQX9ZEV9OmwRhsjDfoi7LPehMRMif30g76ETFtYyKSVddp1lxy25cefZPwJC4Hkq7lkZWAE-d8m277G8eySqEtmWhQIFGrQRbcwRL7f9xPyTaj15r5wdQNmugdIqeeSfhm9VmzpVOFjbLSC4AWwnXlyFA54LNbbv31uCmSbhFsIVQKS0oAqYByPWojnn0hLDMDvhN-XOpJdfstp6sDVhN7oEjjEml-dywX3ylIoxHfNVz4q_oCnvD2lewE_QX6b_5w6Av7p_a_]--></g></svg>