<?xml version="1.0" encoding="us-ascii" standalone="no"?><svg xmlns="http://www.w3.org/2000/svg" xmlns:xlink="http://www.w3.org/1999/xlink" contentStyleType="text/css" height="1229px" preserveAspectRatio="none" style="width:2020px;height:1229px;background:#FFFFFF;" version="1.1" viewBox="0 0 2020 1229" width="2020px" zoomAndPan="magnify"><defs/><g><text fill="#000000" font-family="sans-serif" font-size="14" font-weight="bold" lengthAdjust="spacing" textLength="376" x="823.25" y="28.0059">UC_GestionarRolesUsuariosAdmin: Sequence Diagram</text><rect fill="#FFFFFF" height="986.8002" style="stroke:#181818;stroke-width:1.0;" width="10" x="337" y="151.1999"/><rect fill="#FFFFFF" height="838.8001" style="stroke:#181818;stroke-width:1.0;" width="10" x="636" y="299.1999"/><rect fill="#FFFFFF" height="631.0001" style="stroke:#181818;stroke-width:1.0;" width="10" x="1116.5" y="484.8"/><rect fill="#FFFFFF" height="29.6" style="stroke:#181818;stroke-width:1.0;" width="10" x="1264" y="544"/><rect fill="#FFFFFF" height="601.4001" style="stroke:#181818;stroke-width:1.0;" width="10" x="1410" y="514.4"/><rect fill="#FFFFFF" height="512.6001" style="stroke:#181818;stroke-width:1.0;" width="10" x="1701" y="603.2001"/><rect fill="#FFFFFF" height="59.2" style="stroke:#181818;stroke-width:1.0;" width="10" x="1829" y="180.7999"/><rect fill="#FFFFFF" height="29.6" style="stroke:#181818;stroke-width:1.0;" width="10" x="1829" y="835.4002"/><rect fill="#FFFFFF" height="30" style="stroke:#181818;stroke-width:1.0;" width="10" x="1943" y="746.2001"/><rect fill="#FFFFFF" height="30" style="stroke:#181818;stroke-width:1.0;" width="10" x="1943" y="1041.2002"/><rect fill="none" height="685.4001" style="stroke:#000000;stroke-width:1.5;" width="1805.5" x="208" y="445.6"/><rect fill="none" height="490.6001" style="stroke:#000000;stroke-width:1.5;" width="1785.5" x="218" y="618.2001"/><line style="stroke:#181818;stroke-width:0.5;stroke-dasharray:5.0,5.0;" x1="28" x2="28" y1="119.5999" y2="1148.0001"/><line style="stroke:#181818;stroke-width:0.5;stroke-dasharray:5.0,5.0;" x1="342" x2="342" y1="119.5999" y2="1148.0001"/><line style="stroke:#181818;stroke-width:0.5;stroke-dasharray:5.0,5.0;" x1="641" x2="641" y1="119.5999" y2="1148.0001"/><line style="stroke:#181818;stroke-width:0.5;stroke-dasharray:5.0,5.0;" x1="976" x2="976" y1="119.5999" y2="1148.0001"/><line style="stroke:#181818;stroke-width:0.5;stroke-dasharray:5.0,5.0;" x1="1121" x2="1121" y1="119.5999" y2="1148.0001"/><line style="stroke:#181818;stroke-width:0.5;stroke-dasharray:5.0,5.0;" x1="1269" x2="1269" y1="119.5999" y2="1148.0001"/><line style="stroke:#181818;stroke-width:0.5;stroke-dasharray:5.0,5.0;" x1="1414.5" x2="1414.5" y1="119.5999" y2="1148.0001"/><line style="stroke:#181818;stroke-width:0.5;stroke-dasharray:5.0,5.0;" x1="1705.5" x2="1705.5" y1="119.5999" y2="1148.0001"/><line style="stroke:#181818;stroke-width:0.5;stroke-dasharray:5.0,5.0;" x1="1833.5" x2="1833.5" y1="119.5999" y2="1148.0001"/><line style="stroke:#181818;stroke-width:0.5;stroke-dasharray:5.0,5.0;" x1="1947.5" x2="1947.5" y1="119.5999" y2="1148.0001"/><text fill="#000000" font-family="sans-serif" font-size="14" lengthAdjust="spacing" textLength="40" x="5" y="115.8059">Admin</text><ellipse cx="28" cy="51.2999" fill="#E2E2F0" rx="8" ry="8" style="stroke:#181818;stroke-width:0.5;"/><path d="M28,59.2999 L28,86.2999 M15,67.2999 L41,67.2999 M28,86.2999 L15,101.2999 M28,86.2999 L41,101.2999 " fill="none" style="stroke:#181818;stroke-width:0.5;"/><text fill="#000000" font-family="sans-serif" font-size="14" lengthAdjust="spacing" textLength="40" x="5" y="1160.006">Admin</text><ellipse cx="28" cy="1172.3" fill="#E2E2F0" rx="8" ry="8" style="stroke:#181818;stroke-width:0.5;"/><path d="M28,1180.3 L28,1207.3 M15,1188.3 L41,1188.3 M28,1207.3 L15,1222.3 M28,1207.3 L41,1222.3 " fill="none" style="stroke:#181818;stroke-width:0.5;"/><rect fill="#E2E2F0" height="36" rx="2.5" ry="2.5" style="stroke:#181818;stroke-width:0.5;" width="228" x="228" y="82.5999"/><ellipse cx="246" cy="100.5999" fill="#DA70D6" rx="11" ry="11" style="stroke:#181818;stroke-width:1.0;"/><path d="M243.8594,101.9905 L245.4375,101.9905 C246.1094,102.2405 247.5938,103.9124 248.4688,105.4905 L248.5313,105.5999 L249.9063,105.5999 C250.2344,105.5999 250.5156,105.553 250.6563,105.4749 C250.9219,105.3186 251.0938,105.0217 251.0938,104.7092 C251.0938,104.4436 250.9375,104.1624 250.7188,104.0061 C250.5313,103.8655 250.3594,103.8342 249.9063,103.8342 L249.7188,103.8342 C249.0625,102.8499 248.3906,102.053 247.6563,101.4124 C248.8594,100.7874 249.4375,99.9905 249.4375,98.9592 C249.4375,97.2249 247.8906,96.0061 245.6406,96.0061 L241.8438,96.0061 C241.3906,96.0061 241.2656,96.0217 241.0938,96.1311 C240.8281,96.303 240.6563,96.5842 240.6563,96.8811 C240.6563,97.1624 240.8125,97.4436 241.0313,97.5999 C241.2188,97.7249 241.4063,97.7561 241.8438,97.7561 L242.0313,97.7561 L242.0313,103.8342 L241.8438,103.8342 C241.4219,103.8342 241.2656,103.8655 241.0938,103.9749 C240.8281,104.1155 240.6563,104.4124 240.6563,104.7092 C240.6563,105.2874 241.0625,105.5999 241.8438,105.5999 L244.3906,105.5999 C244.75,105.5999 245,105.553 245.1406,105.4749 C245.4063,105.3186 245.5781,105.0217 245.5781,104.7092 C245.5781,104.4436 245.4531,104.178 245.2031,104.0061 C245.0156,103.8655 244.875,103.8342 244.3906,103.8342 L243.8594,103.8342 L243.8594,101.9905 Z M243.8594,100.2405 L243.8594,97.7561 L245.7031,97.7561 C246.7344,97.7561 247.5,98.2405 247.5,98.8967 C247.5,99.678 246.4844,100.2405 245.0938,100.2405 L243.8594,100.2405 Z " fill="#000000"/><text fill="#000000" font-family="sans-serif" font-size="14" lengthAdjust="spacing" textLength="186" x="263" y="102.6058">AdminRoleManagementPage</text><rect fill="#E2E2F0" height="36" rx="2.5" ry="2.5" style="stroke:#181818;stroke-width:0.5;" width="228" x="228" y="1147.0001"/><ellipse cx="246" cy="1165.0001" fill="#DA70D6" rx="11" ry="11" style="stroke:#181818;stroke-width:1.0;"/><path d="M243.8594,1166.3907 L245.4375,1166.3907 C246.1094,1166.6407 247.5938,1168.3126 248.4688,1169.8907 L248.5313,1170.0001 L249.9063,1170.0001 C250.2344,1170.0001 250.5156,1169.9532 250.6563,1169.8751 C250.9219,1169.7188 251.0938,1169.4219 251.0938,1169.1094 C251.0938,1168.8438 250.9375,1168.5626 250.7188,1168.4063 C250.5313,1168.2657 250.3594,1168.2344 249.9063,1168.2344 L249.7188,1168.2344 C249.0625,1167.2501 248.3906,1166.4532 247.6563,1165.8126 C248.8594,1165.1876 249.4375,1164.3907 249.4375,1163.3594 C249.4375,1161.6251 247.8906,1160.4063 245.6406,1160.4063 L241.8438,1160.4063 C241.3906,1160.4063 241.2656,1160.4219 241.0938,1160.5313 C240.8281,1160.7032 240.6563,1160.9844 240.6563,1161.2813 C240.6563,1161.5626 240.8125,1161.8438 241.0313,1162.0001 C241.2188,1162.1251 241.4063,1162.1563 241.8438,1162.1563 L242.0313,1162.1563 L242.0313,1168.2344 L241.8438,1168.2344 C241.4219,1168.2344 241.2656,1168.2657 241.0938,1168.3751 C240.8281,1168.5157 240.6563,1168.8126 240.6563,1169.1094 C240.6563,1169.6876 241.0625,1170.0001 241.8438,1170.0001 L244.3906,1170.0001 C244.75,1170.0001 245,1169.9532 245.1406,1169.8751 C245.4063,1169.7188 245.5781,1169.4219 245.5781,1169.1094 C245.5781,1168.8438 245.4531,1168.5782 245.2031,1168.4063 C245.0156,1168.2657 244.875,1168.2344 244.3906,1168.2344 L243.8594,1168.2344 L243.8594,1166.3907 Z M243.8594,1164.6407 L243.8594,1162.1563 L245.7031,1162.1563 C246.7344,1162.1563 247.5,1162.6407 247.5,1163.2969 C247.5,1164.0782 246.4844,1164.6407 245.0938,1164.6407 L243.8594,1164.6407 Z " fill="#000000"/><text fill="#000000" font-family="sans-serif" font-size="14" lengthAdjust="spacing" textLength="186" x="263" y="1167.006">AdminRoleManagementPage</text><rect fill="#E2E2F0" height="36" rx="2.5" ry="2.5" style="stroke:#181818;stroke-width:0.5;" width="132" x="575" y="82.5999"/><ellipse cx="593" cy="100.5999" fill="#D3D3D3" rx="11" ry="11" style="stroke:#181818;stroke-width:1.0;"/><path d="M588,101.7561 C588,104.2561 590.1406,106.0686 593.0625,106.0686 C594.2969,106.0686 595.4688,105.7717 596.2188,105.2561 C596.8281,104.8342 597.1563,104.4124 597.1563,104.0061 C597.1563,103.5374 596.7344,103.1311 596.2344,103.1311 C596,103.1311 595.7813,103.2092 595.5781,103.4124 C595.1406,103.8499 595.1406,103.8499 594.9688,103.9436 C594.5156,104.178 593.875,104.3186 593.1094,104.3186 C591.1094,104.3186 589.8281,103.303 589.8281,101.7249 L589.8281,100.678 C589.8281,98.9749 591.0469,97.7717 592.75,97.7717 C593.3281,97.7717 593.9063,97.9124 594.375,98.1624 C594.8438,98.428 595.0156,98.6155 595.0781,98.9749 C595.2031,99.6467 595.4531,99.8967 595.9844,99.8967 C596.2656,99.8967 596.5469,99.7561 596.7344,99.5374 C596.8594,99.3655 596.9063,99.1936 596.9063,98.7561 L596.9063,97.3967 C596.9063,96.9749 596.8906,96.8342 596.7656,96.6624 C596.5938,96.4124 596.3125,96.2561 595.9844,96.2561 C595.6719,96.2561 595.4688,96.3655 595.25,96.6311 C594.0781,96.1311 593.6406,96.0217 592.6875,96.0217 C590.0156,96.0217 588,98.0374 588,100.6624 L588,101.7561 Z " fill="#000000"/><text fill="#000000" font-family="sans-serif" font-size="14" lengthAdjust="spacing" textLength="90" x="610" y="102.6058">UserRoleCard</text><rect fill="#E2E2F0" height="36" rx="2.5" ry="2.5" style="stroke:#181818;stroke-width:0.5;" width="132" x="575" y="1147.0001"/><ellipse cx="593" cy="1165.0001" fill="#D3D3D3" rx="11" ry="11" style="stroke:#181818;stroke-width:1.0;"/><path d="M588,1166.1563 C588,1168.6563 590.1406,1170.4688 593.0625,1170.4688 C594.2969,1170.4688 595.4688,1170.1719 596.2188,1169.6563 C596.8281,1169.2344 597.1563,1168.8126 597.1563,1168.4063 C597.1563,1167.9376 596.7344,1167.5313 596.2344,1167.5313 C596,1167.5313 595.7813,1167.6094 595.5781,1167.8126 C595.1406,1168.2501 595.1406,1168.2501 594.9688,1168.3438 C594.5156,1168.5782 593.875,1168.7188 593.1094,1168.7188 C591.1094,1168.7188 589.8281,1167.7032 589.8281,1166.1251 L589.8281,1165.0782 C589.8281,1163.3751 591.0469,1162.1719 592.75,1162.1719 C593.3281,1162.1719 593.9063,1162.3126 594.375,1162.5626 C594.8438,1162.8282 595.0156,1163.0157 595.0781,1163.3751 C595.2031,1164.0469 595.4531,1164.2969 595.9844,1164.2969 C596.2656,1164.2969 596.5469,1164.1563 596.7344,1163.9376 C596.8594,1163.7657 596.9063,1163.5938 596.9063,1163.1563 L596.9063,1161.7969 C596.9063,1161.3751 596.8906,1161.2344 596.7656,1161.0626 C596.5938,1160.8126 596.3125,1160.6563 595.9844,1160.6563 C595.6719,1160.6563 595.4688,1160.7657 595.25,1161.0313 C594.0781,1160.5313 593.6406,1160.4219 592.6875,1160.4219 C590.0156,1160.4219 588,1162.4376 588,1165.0626 L588,1166.1563 Z " fill="#000000"/><text fill="#000000" font-family="sans-serif" font-size="14" lengthAdjust="spacing" textLength="90" x="610" y="1167.006">UserRoleCard</text><rect fill="#E2E2F0" height="36" rx="2.5" ry="2.5" style="stroke:#181818;stroke-width:0.5;" width="124" x="914" y="82.5999"/><ellipse cx="932" cy="100.5999" fill="#D3D3D3" rx="11" ry="11" style="stroke:#181818;stroke-width:1.0;"/><path d="M927,101.7561 C927,104.2561 929.1406,106.0686 932.0625,106.0686 C933.2969,106.0686 934.4688,105.7717 935.2188,105.2561 C935.8281,104.8342 936.1563,104.4124 936.1563,104.0061 C936.1563,103.5374 935.7344,103.1311 935.2344,103.1311 C935,103.1311 934.7813,103.2092 934.5781,103.4124 C934.1406,103.8499 934.1406,103.8499 933.9688,103.9436 C933.5156,104.178 932.875,104.3186 932.1094,104.3186 C930.1094,104.3186 928.8281,103.303 928.8281,101.7249 L928.8281,100.678 C928.8281,98.9749 930.0469,97.7717 931.75,97.7717 C932.3281,97.7717 932.9063,97.9124 933.375,98.1624 C933.8438,98.428 934.0156,98.6155 934.0781,98.9749 C934.2031,99.6467 934.4531,99.8967 934.9844,99.8967 C935.2656,99.8967 935.5469,99.7561 935.7344,99.5374 C935.8594,99.3655 935.9063,99.1936 935.9063,98.7561 L935.9063,97.3967 C935.9063,96.9749 935.8906,96.8342 935.7656,96.6624 C935.5938,96.4124 935.3125,96.2561 934.9844,96.2561 C934.6719,96.2561 934.4688,96.3655 934.25,96.6311 C933.0781,96.1311 932.6406,96.0217 931.6875,96.0217 C929.0156,96.0217 927,98.0374 927,100.6624 L927,101.7561 Z " fill="#000000"/><text fill="#000000" font-family="sans-serif" font-size="14" lengthAdjust="spacing" textLength="82" x="949" y="102.6058">Select (Role)</text><rect fill="#E2E2F0" height="36" rx="2.5" ry="2.5" style="stroke:#181818;stroke-width:0.5;" width="124" x="914" y="1147.0001"/><ellipse cx="932" cy="1165.0001" fill="#D3D3D3" rx="11" ry="11" style="stroke:#181818;stroke-width:1.0;"/><path d="M927,1166.1563 C927,1168.6563 929.1406,1170.4688 932.0625,1170.4688 C933.2969,1170.4688 934.4688,1170.1719 935.2188,1169.6563 C935.8281,1169.2344 936.1563,1168.8126 936.1563,1168.4063 C936.1563,1167.9376 935.7344,1167.5313 935.2344,1167.5313 C935,1167.5313 934.7813,1167.6094 934.5781,1167.8126 C934.1406,1168.2501 934.1406,1168.2501 933.9688,1168.3438 C933.5156,1168.5782 932.875,1168.7188 932.1094,1168.7188 C930.1094,1168.7188 928.8281,1167.7032 928.8281,1166.1251 L928.8281,1165.0782 C928.8281,1163.3751 930.0469,1162.1719 931.75,1162.1719 C932.3281,1162.1719 932.9063,1162.3126 933.375,1162.5626 C933.8438,1162.8282 934.0156,1163.0157 934.0781,1163.3751 C934.2031,1164.0469 934.4531,1164.2969 934.9844,1164.2969 C935.2656,1164.2969 935.5469,1164.1563 935.7344,1163.9376 C935.8594,1163.7657 935.9063,1163.5938 935.9063,1163.1563 L935.9063,1161.7969 C935.9063,1161.3751 935.8906,1161.2344 935.7656,1161.0626 C935.5938,1160.8126 935.3125,1160.6563 934.9844,1160.6563 C934.6719,1160.6563 934.4688,1160.7657 934.25,1161.0313 C933.0781,1160.5313 932.6406,1160.4219 931.6875,1160.4219 C929.0156,1160.4219 927,1162.4376 927,1165.0626 L927,1166.1563 Z " fill="#000000"/><text fill="#000000" font-family="sans-serif" font-size="14" lengthAdjust="spacing" textLength="82" x="949" y="1167.006">Select (Role)</text><rect fill="#E2E2F0" height="47.5999" rx="2.5" ry="2.5" style="stroke:#181818;stroke-width:0.5;" width="147" x="1048" y="71"/><ellipse cx="1066" cy="89" fill="#FFFF00" rx="11" ry="11" style="stroke:#181818;stroke-width:1.0;"/><path d="M1064.8594,90.0625 L1066.1719,90.0625 L1066.1719,90.1094 C1066.1719,90.5 1066.2031,90.6875 1066.2969,90.8438 C1066.4688,91.0938 1066.7656,91.2656 1067.0781,91.2656 C1067.3594,91.2656 1067.6406,91.125 1067.8281,90.9063 C1067.9531,90.7188 1068,90.5625 1068,90.1094 L1068,88.2813 C1068,87.8594 1067.9844,87.7344 1067.8594,87.5625 C1067.7031,87.2969 1067.4063,87.125 1067.0781,87.125 C1066.7813,87.125 1066.5156,87.2656 1066.3438,87.4844 C1066.2031,87.6719 1066.1719,87.8438 1066.1719,88.2813 L1066.1719,88.3281 L1064.8594,88.3281 L1064.8594,86.1563 L1069.0781,86.1563 L1069.0781,86.9219 C1069.0781,87.3125 1069.1094,87.4844 1069.2188,87.6406 C1069.3906,87.9063 1069.6719,88.0625 1070,88.0625 C1070.2813,88.0625 1070.5625,87.9375 1070.75,87.7031 C1070.8906,87.5156 1070.9219,87.375 1070.9219,86.9219 L1070.9219,84.4063 L1062.8438,84.4063 C1062.4063,84.4063 1062.2656,84.4219 1062.0938,84.5313 C1061.8281,84.7031 1061.6563,84.9844 1061.6563,85.2813 C1061.6563,85.5625 1061.8125,85.8438 1062.0313,86 C1062.2188,86.125 1062.4063,86.1563 1062.8438,86.1563 L1063.0313,86.1563 L1063.0313,92.25 L1062.8438,92.25 C1062.4219,92.25 1062.2656,92.2813 1062.0938,92.375 C1061.8281,92.5313 1061.6563,92.8281 1061.6563,93.1094 C1061.6563,93.6875 1062.0625,94 1062.8438,94 L1066.5,94 C1067.2813,94 1067.6875,93.7188 1067.6875,93.1094 C1067.6875,92.8438 1067.5469,92.5938 1067.3125,92.4219 C1067.125,92.2813 1066.9531,92.25 1066.5,92.25 L1064.8594,92.25 L1064.8594,90.0625 Z " fill="#000000"/><text fill="#000000" font-family="sans-serif" font-size="14" lengthAdjust="spacing" textLength="105" x="1083" y="91.0059">user_backend.ts</text><text fill="#000000" font-family="sans-serif" font-size="14" lengthAdjust="spacing" textLength="105" x="1083" y="107.8059">updateUserRol()</text><rect fill="#E2E2F0" height="47.5999" rx="2.5" ry="2.5" style="stroke:#181818;stroke-width:0.5;" width="147" x="1048" y="1147.0001"/><ellipse cx="1066" cy="1165.0001" fill="#FFFF00" rx="11" ry="11" style="stroke:#181818;stroke-width:1.0;"/><path d="M1064.8594,1166.0626 L1066.1719,1166.0626 L1066.1719,1166.1094 C1066.1719,1166.5001 1066.2031,1166.6876 1066.2969,1166.8438 C1066.4688,1167.0938 1066.7656,1167.2657 1067.0781,1167.2657 C1067.3594,1167.2657 1067.6406,1167.1251 1067.8281,1166.9063 C1067.9531,1166.7188 1068,1166.5626 1068,1166.1094 L1068,1164.2813 C1068,1163.8594 1067.9844,1163.7344 1067.8594,1163.5626 C1067.7031,1163.2969 1067.4063,1163.1251 1067.0781,1163.1251 C1066.7813,1163.1251 1066.5156,1163.2657 1066.3438,1163.4844 C1066.2031,1163.6719 1066.1719,1163.8438 1066.1719,1164.2813 L1066.1719,1164.3282 L1064.8594,1164.3282 L1064.8594,1162.1563 L1069.0781,1162.1563 L1069.0781,1162.9219 C1069.0781,1163.3126 1069.1094,1163.4844 1069.2188,1163.6407 C1069.3906,1163.9063 1069.6719,1164.0626 1070,1164.0626 C1070.2813,1164.0626 1070.5625,1163.9376 1070.75,1163.7032 C1070.8906,1163.5157 1070.9219,1163.3751 1070.9219,1162.9219 L1070.9219,1160.4063 L1062.8438,1160.4063 C1062.4063,1160.4063 1062.2656,1160.4219 1062.0938,1160.5313 C1061.8281,1160.7032 1061.6563,1160.9844 1061.6563,1161.2813 C1061.6563,1161.5626 1061.8125,1161.8438 1062.0313,1162.0001 C1062.2188,1162.1251 1062.4063,1162.1563 1062.8438,1162.1563 L1063.0313,1162.1563 L1063.0313,1168.2501 L1062.8438,1168.2501 C1062.4219,1168.2501 1062.2656,1168.2813 1062.0938,1168.3751 C1061.8281,1168.5313 1061.6563,1168.8282 1061.6563,1169.1094 C1061.6563,1169.6876 1062.0625,1170.0001 1062.8438,1170.0001 L1066.5,1170.0001 C1067.2813,1170.0001 1067.6875,1169.7188 1067.6875,1169.1094 C1067.6875,1168.8438 1067.5469,1168.5938 1067.3125,1168.4219 C1067.125,1168.2813 1066.9531,1168.2501 1066.5,1168.2501 L1064.8594,1168.2501 L1064.8594,1166.0626 Z " fill="#000000"/><text fill="#000000" font-family="sans-serif" font-size="14" lengthAdjust="spacing" textLength="105" x="1083" y="1167.006">user_backend.ts</text><text fill="#000000" font-family="sans-serif" font-size="14" lengthAdjust="spacing" textLength="105" x="1083" y="1183.8059">updateUserRol()</text><rect fill="#E2E2F0" height="36" rx="2.5" ry="2.5" style="stroke:#181818;stroke-width:0.5;" width="128" x="1205" y="82.5999"/><ellipse cx="1223" cy="100.5999" fill="#ADD8E6" rx="11" ry="11" style="stroke:#181818;stroke-width:1.0;"/><path d="M1226.8594,96.9124 C1226.8594,96.4749 1226.8438,96.3499 1226.7344,96.178 C1226.5781,95.928 1226.2813,95.7717 1225.9531,95.7717 C1225.6094,95.7717 1225.4219,95.9124 1225.2656,96.2874 C1224.7031,95.9592 1223.9375,95.7717 1223.0625,95.7717 C1220.9219,95.7717 1219.3281,97.0374 1219.3281,98.6936 C1219.3281,99.6467 1219.875,100.5374 1220.75,101.0061 C1221.3125,101.3186 1221.8438,101.4749 1222.9844,101.6624 C1224.1094,101.8655 1224.375,101.928 1224.75,102.0999 C1225.0938,102.2717 1225.3125,102.5686 1225.3125,102.8811 C1225.3125,103.5374 1224.3594,104.053 1223.1406,104.053 C1222.0469,104.053 1220.9844,103.5999 1220.8281,103.053 C1220.6875,102.6155 1220.6875,102.6155 1220.5625,102.4749 C1220.3906,102.3186 1220.1563,102.2405 1219.9063,102.2405 C1219.6094,102.2405 1219.3438,102.3655 1219.1563,102.5842 C1219.0313,102.7561 1218.9844,102.9436 1218.9844,103.3655 L1218.9844,104.4436 C1218.9844,105.2092 1219.2969,105.5842 1219.9063,105.5842 C1220.1875,105.5842 1220.3438,105.4905 1220.625,105.2092 C1221.4844,105.6311 1222.3281,105.8186 1223.25,105.8186 C1225.6094,105.8186 1227.2188,104.6467 1227.2188,102.9124 C1227.2188,102.053 1226.875,101.3655 1226.1875,100.8342 C1225.6563,100.428 1224.9844,100.1936 1223.4844,99.9436 C1222.2031,99.6936 1222.1406,99.678 1221.8125,99.5061 C1221.4688,99.3655 1221.2344,99.0061 1221.2344,98.678 C1221.2344,98.0374 1222.0469,97.5217 1223.0781,97.5217 C1224.125,97.5217 1224.8906,97.9436 1225.0313,98.5686 C1225.1563,99.0999 1225.1563,99.0999 1225.2969,99.2405 C1225.4531,99.3967 1225.7031,99.4905 1225.9531,99.4905 C1226.25,99.4905 1226.5,99.3655 1226.6875,99.1467 C1226.8281,98.9592 1226.8594,98.8186 1226.8594,98.3655 L1226.8594,96.9124 Z " fill="#000000"/><text fill="#000000" font-family="sans-serif" font-size="14" lengthAdjust="spacing" textLength="86" x="1240" y="102.6058">AuthManager</text><rect fill="#E2E2F0" height="36" rx="2.5" ry="2.5" style="stroke:#181818;stroke-width:0.5;" width="128" x="1205" y="1147.0001"/><ellipse cx="1223" cy="1165.0001" fill="#ADD8E6" rx="11" ry="11" style="stroke:#181818;stroke-width:1.0;"/><path d="M1226.8594,1161.3126 C1226.8594,1160.8751 1226.8438,1160.7501 1226.7344,1160.5782 C1226.5781,1160.3282 1226.2813,1160.1719 1225.9531,1160.1719 C1225.6094,1160.1719 1225.4219,1160.3126 1225.2656,1160.6876 C1224.7031,1160.3594 1223.9375,1160.1719 1223.0625,1160.1719 C1220.9219,1160.1719 1219.3281,1161.4376 1219.3281,1163.0938 C1219.3281,1164.0469 1219.875,1164.9376 1220.75,1165.4063 C1221.3125,1165.7188 1221.8438,1165.8751 1222.9844,1166.0626 C1224.1094,1166.2657 1224.375,1166.3282 1224.75,1166.5001 C1225.0938,1166.6719 1225.3125,1166.9688 1225.3125,1167.2813 C1225.3125,1167.9376 1224.3594,1168.4532 1223.1406,1168.4532 C1222.0469,1168.4532 1220.9844,1168.0001 1220.8281,1167.4532 C1220.6875,1167.0157 1220.6875,1167.0157 1220.5625,1166.8751 C1220.3906,1166.7188 1220.1563,1166.6407 1219.9063,1166.6407 C1219.6094,1166.6407 1219.3438,1166.7657 1219.1563,1166.9844 C1219.0313,1167.1563 1218.9844,1167.3438 1218.9844,1167.7657 L1218.9844,1168.8438 C1218.9844,1169.6094 1219.2969,1169.9844 1219.9063,1169.9844 C1220.1875,1169.9844 1220.3438,1169.8907 1220.625,1169.6094 C1221.4844,1170.0313 1222.3281,1170.2188 1223.25,1170.2188 C1225.6094,1170.2188 1227.2188,1169.0469 1227.2188,1167.3126 C1227.2188,1166.4532 1226.875,1165.7657 1226.1875,1165.2344 C1225.6563,1164.8282 1224.9844,1164.5938 1223.4844,1164.3438 C1222.2031,1164.0938 1222.1406,1164.0782 1221.8125,1163.9063 C1221.4688,1163.7657 1221.2344,1163.4063 1221.2344,1163.0782 C1221.2344,1162.4376 1222.0469,1161.9219 1223.0781,1161.9219 C1224.125,1161.9219 1224.8906,1162.3438 1225.0313,1162.9688 C1225.1563,1163.5001 1225.1563,1163.5001 1225.2969,1163.6407 C1225.4531,1163.7969 1225.7031,1163.8907 1225.9531,1163.8907 C1226.25,1163.8907 1226.5,1163.7657 1226.6875,1163.5469 C1226.8281,1163.3594 1226.8594,1163.2188 1226.8594,1162.7657 L1226.8594,1161.3126 Z " fill="#000000"/><text fill="#000000" font-family="sans-serif" font-size="14" lengthAdjust="spacing" textLength="86" x="1240" y="1167.006">AuthManager</text><rect fill="#E2E2F0" height="47.5999" rx="2.5" ry="2.5" style="stroke:#181818;stroke-width:0.5;" width="113" x="1358.5" y="71"/><ellipse cx="1376.5" cy="89" fill="#FFA500" rx="11" ry="11" style="stroke:#181818;stroke-width:1.0;"/><path d="M1375.3594,90.0625 L1376.6719,90.0625 L1376.6719,90.1094 C1376.6719,90.5 1376.7031,90.6875 1376.7969,90.8438 C1376.9688,91.0938 1377.2656,91.2656 1377.5781,91.2656 C1377.8594,91.2656 1378.1406,91.125 1378.3281,90.9063 C1378.4531,90.7188 1378.5,90.5625 1378.5,90.1094 L1378.5,88.2813 C1378.5,87.8594 1378.4844,87.7344 1378.3594,87.5625 C1378.2031,87.2969 1377.9063,87.125 1377.5781,87.125 C1377.2813,87.125 1377.0156,87.2656 1376.8438,87.4844 C1376.7031,87.6719 1376.6719,87.8438 1376.6719,88.2813 L1376.6719,88.3281 L1375.3594,88.3281 L1375.3594,86.1563 L1379.5781,86.1563 L1379.5781,86.9219 C1379.5781,87.3125 1379.6094,87.4844 1379.7188,87.6406 C1379.8906,87.9063 1380.1719,88.0625 1380.5,88.0625 C1380.7813,88.0625 1381.0625,87.9375 1381.25,87.7031 C1381.3906,87.5156 1381.4219,87.375 1381.4219,86.9219 L1381.4219,84.4063 L1373.3438,84.4063 C1372.9063,84.4063 1372.7656,84.4219 1372.5938,84.5313 C1372.3281,84.7031 1372.1563,84.9844 1372.1563,85.2813 C1372.1563,85.5625 1372.3125,85.8438 1372.5313,86 C1372.7188,86.125 1372.9063,86.1563 1373.3438,86.1563 L1373.5313,86.1563 L1373.5313,92.25 L1373.3438,92.25 C1372.9219,92.25 1372.7656,92.2813 1372.5938,92.375 C1372.3281,92.5313 1372.1563,92.8281 1372.1563,93.1094 C1372.1563,93.6875 1372.5625,94 1373.3438,94 L1377,94 C1377.7813,94 1378.1875,93.7188 1378.1875,93.1094 C1378.1875,92.8438 1378.0469,92.5938 1377.8125,92.4219 C1377.625,92.2813 1377.4531,92.25 1377,92.25 L1375.3594,92.25 L1375.3594,90.0625 Z " fill="#000000"/><text fill="#000000" font-family="sans-serif" font-size="14" lengthAdjust="spacing" textLength="40" x="1409" y="91.0059">utils.ts</text><text fill="#000000" font-family="sans-serif" font-size="14" lengthAdjust="spacing" textLength="71" x="1393.5" y="107.8059">fetchJson()</text><rect fill="#E2E2F0" height="47.5999" rx="2.5" ry="2.5" style="stroke:#181818;stroke-width:0.5;" width="113" x="1358.5" y="1147.0001"/><ellipse cx="1376.5" cy="1165.0001" fill="#FFA500" rx="11" ry="11" style="stroke:#181818;stroke-width:1.0;"/><path d="M1375.3594,1166.0626 L1376.6719,1166.0626 L1376.6719,1166.1094 C1376.6719,1166.5001 1376.7031,1166.6876 1376.7969,1166.8438 C1376.9688,1167.0938 1377.2656,1167.2657 1377.5781,1167.2657 C1377.8594,1167.2657 1378.1406,1167.1251 1378.3281,1166.9063 C1378.4531,1166.7188 1378.5,1166.5626 1378.5,1166.1094 L1378.5,1164.2813 C1378.5,1163.8594 1378.4844,1163.7344 1378.3594,1163.5626 C1378.2031,1163.2969 1377.9063,1163.1251 1377.5781,1163.1251 C1377.2813,1163.1251 1377.0156,1163.2657 1376.8438,1163.4844 C1376.7031,1163.6719 1376.6719,1163.8438 1376.6719,1164.2813 L1376.6719,1164.3282 L1375.3594,1164.3282 L1375.3594,1162.1563 L1379.5781,1162.1563 L1379.5781,1162.9219 C1379.5781,1163.3126 1379.6094,1163.4844 1379.7188,1163.6407 C1379.8906,1163.9063 1380.1719,1164.0626 1380.5,1164.0626 C1380.7813,1164.0626 1381.0625,1163.9376 1381.25,1163.7032 C1381.3906,1163.5157 1381.4219,1163.3751 1381.4219,1162.9219 L1381.4219,1160.4063 L1373.3438,1160.4063 C1372.9063,1160.4063 1372.7656,1160.4219 1372.5938,1160.5313 C1372.3281,1160.7032 1372.1563,1160.9844 1372.1563,1161.2813 C1372.1563,1161.5626 1372.3125,1161.8438 1372.5313,1162.0001 C1372.7188,1162.1251 1372.9063,1162.1563 1373.3438,1162.1563 L1373.5313,1162.1563 L1373.5313,1168.2501 L1373.3438,1168.2501 C1372.9219,1168.2501 1372.7656,1168.2813 1372.5938,1168.3751 C1372.3281,1168.5313 1372.1563,1168.8282 1372.1563,1169.1094 C1372.1563,1169.6876 1372.5625,1170.0001 1373.3438,1170.0001 L1377,1170.0001 C1377.7813,1170.0001 1378.1875,1169.7188 1378.1875,1169.1094 C1378.1875,1168.8438 1378.0469,1168.5938 1377.8125,1168.4219 C1377.625,1168.2813 1377.4531,1168.2501 1377,1168.2501 L1375.3594,1168.2501 L1375.3594,1166.0626 Z " fill="#000000"/><text fill="#000000" font-family="sans-serif" font-size="14" lengthAdjust="spacing" textLength="40" x="1409" y="1167.006">utils.ts</text><text fill="#000000" font-family="sans-serif" font-size="14" lengthAdjust="spacing" textLength="71" x="1393.5" y="1183.8059">fetchJson()</text><rect fill="#E2E2F0" height="36" rx="2.5" ry="2.5" style="stroke:#181818;stroke-width:0.5;" width="119" x="1646.5" y="82.5999"/><ellipse cx="1664.5" cy="100.5999" fill="#FF6347" rx="11" ry="11" style="stroke:#181818;stroke-width:1.0;"/><path d="M1668.3594,96.9124 C1668.3594,96.4749 1668.3438,96.3499 1668.2344,96.178 C1668.0781,95.928 1667.7813,95.7717 1667.4531,95.7717 C1667.1094,95.7717 1666.9219,95.9124 1666.7656,96.2874 C1666.2031,95.9592 1665.4375,95.7717 1664.5625,95.7717 C1662.4219,95.7717 1660.8281,97.0374 1660.8281,98.6936 C1660.8281,99.6467 1661.375,100.5374 1662.25,101.0061 C1662.8125,101.3186 1663.3438,101.4749 1664.4844,101.6624 C1665.6094,101.8655 1665.875,101.928 1666.25,102.0999 C1666.5938,102.2717 1666.8125,102.5686 1666.8125,102.8811 C1666.8125,103.5374 1665.8594,104.053 1664.6406,104.053 C1663.5469,104.053 1662.4844,103.5999 1662.3281,103.053 C1662.1875,102.6155 1662.1875,102.6155 1662.0625,102.4749 C1661.8906,102.3186 1661.6563,102.2405 1661.4063,102.2405 C1661.1094,102.2405 1660.8438,102.3655 1660.6563,102.5842 C1660.5313,102.7561 1660.4844,102.9436 1660.4844,103.3655 L1660.4844,104.4436 C1660.4844,105.2092 1660.7969,105.5842 1661.4063,105.5842 C1661.6875,105.5842 1661.8438,105.4905 1662.125,105.2092 C1662.9844,105.6311 1663.8281,105.8186 1664.75,105.8186 C1667.1094,105.8186 1668.7188,104.6467 1668.7188,102.9124 C1668.7188,102.053 1668.375,101.3655 1667.6875,100.8342 C1667.1563,100.428 1666.4844,100.1936 1664.9844,99.9436 C1663.7031,99.6936 1663.6406,99.678 1663.3125,99.5061 C1662.9688,99.3655 1662.7344,99.0061 1662.7344,98.678 C1662.7344,98.0374 1663.5469,97.5217 1664.5781,97.5217 C1665.625,97.5217 1666.3906,97.9436 1666.5313,98.5686 C1666.6563,99.0999 1666.6563,99.0999 1666.7969,99.2405 C1666.9531,99.3967 1667.2031,99.4905 1667.4531,99.4905 C1667.75,99.4905 1668,99.3655 1668.1875,99.1467 C1668.3281,98.9592 1668.3594,98.8186 1668.3594,98.3655 L1668.3594,96.9124 Z " fill="#000000"/><text fill="#000000" font-family="sans-serif" font-size="14" lengthAdjust="spacing" textLength="77" x="1681.5" y="102.6058">BackendAPI</text><rect fill="#E2E2F0" height="36" rx="2.5" ry="2.5" style="stroke:#181818;stroke-width:0.5;" width="119" x="1646.5" y="1147.0001"/><ellipse cx="1664.5" cy="1165.0001" fill="#FF6347" rx="11" ry="11" style="stroke:#181818;stroke-width:1.0;"/><path d="M1668.3594,1161.3126 C1668.3594,1160.8751 1668.3438,1160.7501 1668.2344,1160.5782 C1668.0781,1160.3282 1667.7813,1160.1719 1667.4531,1160.1719 C1667.1094,1160.1719 1666.9219,1160.3126 1666.7656,1160.6876 C1666.2031,1160.3594 1665.4375,1160.1719 1664.5625,1160.1719 C1662.4219,1160.1719 1660.8281,1161.4376 1660.8281,1163.0938 C1660.8281,1164.0469 1661.375,1164.9376 1662.25,1165.4063 C1662.8125,1165.7188 1663.3438,1165.8751 1664.4844,1166.0626 C1665.6094,1166.2657 1665.875,1166.3282 1666.25,1166.5001 C1666.5938,1166.6719 1666.8125,1166.9688 1666.8125,1167.2813 C1666.8125,1167.9376 1665.8594,1168.4532 1664.6406,1168.4532 C1663.5469,1168.4532 1662.4844,1168.0001 1662.3281,1167.4532 C1662.1875,1167.0157 1662.1875,1167.0157 1662.0625,1166.8751 C1661.8906,1166.7188 1661.6563,1166.6407 1661.4063,1166.6407 C1661.1094,1166.6407 1660.8438,1166.7657 1660.6563,1166.9844 C1660.5313,1167.1563 1660.4844,1167.3438 1660.4844,1167.7657 L1660.4844,1168.8438 C1660.4844,1169.6094 1660.7969,1169.9844 1661.4063,1169.9844 C1661.6875,1169.9844 1661.8438,1169.8907 1662.125,1169.6094 C1662.9844,1170.0313 1663.8281,1170.2188 1664.75,1170.2188 C1667.1094,1170.2188 1668.7188,1169.0469 1668.7188,1167.3126 C1668.7188,1166.4532 1668.375,1165.7657 1667.6875,1165.2344 C1667.1563,1164.8282 1666.4844,1164.5938 1664.9844,1164.3438 C1663.7031,1164.0938 1663.6406,1164.0782 1663.3125,1163.9063 C1662.9688,1163.7657 1662.7344,1163.4063 1662.7344,1163.0782 C1662.7344,1162.4376 1663.5469,1161.9219 1664.5781,1161.9219 C1665.625,1161.9219 1666.3906,1162.3438 1666.5313,1162.9688 C1666.6563,1163.5001 1666.6563,1163.5001 1666.7969,1163.6407 C1666.9531,1163.7969 1667.2031,1163.8907 1667.4531,1163.8907 C1667.75,1163.8907 1668,1163.7657 1668.1875,1163.5469 C1668.3281,1163.3594 1668.3594,1163.2188 1668.3594,1162.7657 L1668.3594,1161.3126 Z " fill="#000000"/><text fill="#000000" font-family="sans-serif" font-size="14" lengthAdjust="spacing" textLength="77" x="1681.5" y="1167.006">BackendAPI</text><rect fill="#E2E2F0" height="36" rx="2.5" ry="2.5" style="stroke:#181818;stroke-width:0.5;" width="117" x="1775.5" y="82.5999"/><ellipse cx="1793.5" cy="100.5999" fill="#808080" rx="11" ry="11" style="stroke:#181818;stroke-width:1.0;"/><path d="M1797.3594,96.9124 C1797.3594,96.4749 1797.3438,96.3499 1797.2344,96.178 C1797.0781,95.928 1796.7813,95.7717 1796.4531,95.7717 C1796.1094,95.7717 1795.9219,95.9124 1795.7656,96.2874 C1795.2031,95.9592 1794.4375,95.7717 1793.5625,95.7717 C1791.4219,95.7717 1789.8281,97.0374 1789.8281,98.6936 C1789.8281,99.6467 1790.375,100.5374 1791.25,101.0061 C1791.8125,101.3186 1792.3438,101.4749 1793.4844,101.6624 C1794.6094,101.8655 1794.875,101.928 1795.25,102.0999 C1795.5938,102.2717 1795.8125,102.5686 1795.8125,102.8811 C1795.8125,103.5374 1794.8594,104.053 1793.6406,104.053 C1792.5469,104.053 1791.4844,103.5999 1791.3281,103.053 C1791.1875,102.6155 1791.1875,102.6155 1791.0625,102.4749 C1790.8906,102.3186 1790.6563,102.2405 1790.4063,102.2405 C1790.1094,102.2405 1789.8438,102.3655 1789.6563,102.5842 C1789.5313,102.7561 1789.4844,102.9436 1789.4844,103.3655 L1789.4844,104.4436 C1789.4844,105.2092 1789.7969,105.5842 1790.4063,105.5842 C1790.6875,105.5842 1790.8438,105.4905 1791.125,105.2092 C1791.9844,105.6311 1792.8281,105.8186 1793.75,105.8186 C1796.1094,105.8186 1797.7188,104.6467 1797.7188,102.9124 C1797.7188,102.053 1797.375,101.3655 1796.6875,100.8342 C1796.1563,100.428 1795.4844,100.1936 1793.9844,99.9436 C1792.7031,99.6936 1792.6406,99.678 1792.3125,99.5061 C1791.9688,99.3655 1791.7344,99.0061 1791.7344,98.678 C1791.7344,98.0374 1792.5469,97.5217 1793.5781,97.5217 C1794.625,97.5217 1795.3906,97.9436 1795.5313,98.5686 C1795.6563,99.0999 1795.6563,99.0999 1795.7969,99.2405 C1795.9531,99.3967 1796.2031,99.4905 1796.4531,99.4905 C1796.75,99.4905 1797,99.3655 1797.1875,99.1467 C1797.3281,98.9592 1797.3594,98.8186 1797.3594,98.3655 L1797.3594,96.9124 Z " fill="#000000"/><text fill="#000000" font-family="sans-serif" font-size="14" lengthAdjust="spacing" textLength="75" x="1810.5" y="102.6058">QueryClient</text><rect fill="#E2E2F0" height="36" rx="2.5" ry="2.5" style="stroke:#181818;stroke-width:0.5;" width="117" x="1775.5" y="1147.0001"/><ellipse cx="1793.5" cy="1165.0001" fill="#808080" rx="11" ry="11" style="stroke:#181818;stroke-width:1.0;"/><path d="M1797.3594,1161.3126 C1797.3594,1160.8751 1797.3438,1160.7501 1797.2344,1160.5782 C1797.0781,1160.3282 1796.7813,1160.1719 1796.4531,1160.1719 C1796.1094,1160.1719 1795.9219,1160.3126 1795.7656,1160.6876 C1795.2031,1160.3594 1794.4375,1160.1719 1793.5625,1160.1719 C1791.4219,1160.1719 1789.8281,1161.4376 1789.8281,1163.0938 C1789.8281,1164.0469 1790.375,1164.9376 1791.25,1165.4063 C1791.8125,1165.7188 1792.3438,1165.8751 1793.4844,1166.0626 C1794.6094,1166.2657 1794.875,1166.3282 1795.25,1166.5001 C1795.5938,1166.6719 1795.8125,1166.9688 1795.8125,1167.2813 C1795.8125,1167.9376 1794.8594,1168.4532 1793.6406,1168.4532 C1792.5469,1168.4532 1791.4844,1168.0001 1791.3281,1167.4532 C1791.1875,1167.0157 1791.1875,1167.0157 1791.0625,1166.8751 C1790.8906,1166.7188 1790.6563,1166.6407 1790.4063,1166.6407 C1790.1094,1166.6407 1789.8438,1166.7657 1789.6563,1166.9844 C1789.5313,1167.1563 1789.4844,1167.3438 1789.4844,1167.7657 L1789.4844,1168.8438 C1789.4844,1169.6094 1789.7969,1169.9844 1790.4063,1169.9844 C1790.6875,1169.9844 1790.8438,1169.8907 1791.125,1169.6094 C1791.9844,1170.0313 1792.8281,1170.2188 1793.75,1170.2188 C1796.1094,1170.2188 1797.7188,1169.0469 1797.7188,1167.3126 C1797.7188,1166.4532 1797.375,1165.7657 1796.6875,1165.2344 C1796.1563,1164.8282 1795.4844,1164.5938 1793.9844,1164.3438 C1792.7031,1164.0938 1792.6406,1164.0782 1792.3125,1163.9063 C1791.9688,1163.7657 1791.7344,1163.4063 1791.7344,1163.0782 C1791.7344,1162.4376 1792.5469,1161.9219 1793.5781,1161.9219 C1794.625,1161.9219 1795.3906,1162.3438 1795.5313,1162.9688 C1795.6563,1163.5001 1795.6563,1163.5001 1795.7969,1163.6407 C1795.9531,1163.7969 1796.2031,1163.8907 1796.4531,1163.8907 C1796.75,1163.8907 1797,1163.7657 1797.1875,1163.5469 C1797.3281,1163.3594 1797.3594,1163.2188 1797.3594,1162.7657 L1797.3594,1161.3126 Z " fill="#000000"/><text fill="#000000" font-family="sans-serif" font-size="14" lengthAdjust="spacing" textLength="75" x="1810.5" y="1167.006">QueryClient</text><rect fill="#E2E2F0" height="36" rx="2.5" ry="2.5" style="stroke:#181818;stroke-width:0.5;" width="91" x="1902.5" y="82.5999"/><ellipse cx="1920.5" cy="100.5999" fill="#FFC0CB" rx="11" ry="11" style="stroke:#181818;stroke-width:1.0;"/><path d="M1915.5,101.7561 C1915.5,104.2561 1917.6406,106.0686 1920.5625,106.0686 C1921.7969,106.0686 1922.9688,105.7717 1923.7188,105.2561 C1924.3281,104.8342 1924.6563,104.4124 1924.6563,104.0061 C1924.6563,103.5374 1924.2344,103.1311 1923.7344,103.1311 C1923.5,103.1311 1923.2813,103.2092 1923.0781,103.4124 C1922.6406,103.8499 1922.6406,103.8499 1922.4688,103.9436 C1922.0156,104.178 1921.375,104.3186 1920.6094,104.3186 C1918.6094,104.3186 1917.3281,103.303 1917.3281,101.7249 L1917.3281,100.678 C1917.3281,98.9749 1918.5469,97.7717 1920.25,97.7717 C1920.8281,97.7717 1921.4063,97.9124 1921.875,98.1624 C1922.3438,98.428 1922.5156,98.6155 1922.5781,98.9749 C1922.7031,99.6467 1922.9531,99.8967 1923.4844,99.8967 C1923.7656,99.8967 1924.0469,99.7561 1924.2344,99.5374 C1924.3594,99.3655 1924.4063,99.1936 1924.4063,98.7561 L1924.4063,97.3967 C1924.4063,96.9749 1924.3906,96.8342 1924.2656,96.6624 C1924.0938,96.4124 1923.8125,96.2561 1923.4844,96.2561 C1923.1719,96.2561 1922.9688,96.3655 1922.75,96.6311 C1921.5781,96.1311 1921.1406,96.0217 1920.1875,96.0217 C1917.5156,96.0217 1915.5,98.0374 1915.5,100.6624 L1915.5,101.7561 Z " fill="#000000"/><text fill="#000000" font-family="sans-serif" font-size="14" lengthAdjust="spacing" textLength="49" x="1937.5" y="102.6058">Toaster</text><rect fill="#E2E2F0" height="36" rx="2.5" ry="2.5" style="stroke:#181818;stroke-width:0.5;" width="91" x="1902.5" y="1147.0001"/><ellipse cx="1920.5" cy="1165.0001" fill="#FFC0CB" rx="11" ry="11" style="stroke:#181818;stroke-width:1.0;"/><path d="M1915.5,1166.1563 C1915.5,1168.6563 1917.6406,1170.4688 1920.5625,1170.4688 C1921.7969,1170.4688 1922.9688,1170.1719 1923.7188,1169.6563 C1924.3281,1169.2344 1924.6563,1168.8126 1924.6563,1168.4063 C1924.6563,1167.9376 1924.2344,1167.5313 1923.7344,1167.5313 C1923.5,1167.5313 1923.2813,1167.6094 1923.0781,1167.8126 C1922.6406,1168.2501 1922.6406,1168.2501 1922.4688,1168.3438 C1922.0156,1168.5782 1921.375,1168.7188 1920.6094,1168.7188 C1918.6094,1168.7188 1917.3281,1167.7032 1917.3281,1166.1251 L1917.3281,1165.0782 C1917.3281,1163.3751 1918.5469,1162.1719 1920.25,1162.1719 C1920.8281,1162.1719 1921.4063,1162.3126 1921.875,1162.5626 C1922.3438,1162.8282 1922.5156,1163.0157 1922.5781,1163.3751 C1922.7031,1164.0469 1922.9531,1164.2969 1923.4844,1164.2969 C1923.7656,1164.2969 1924.0469,1164.1563 1924.2344,1163.9376 C1924.3594,1163.7657 1924.4063,1163.5938 1924.4063,1163.1563 L1924.4063,1161.7969 C1924.4063,1161.3751 1924.3906,1161.2344 1924.2656,1161.0626 C1924.0938,1160.8126 1923.8125,1160.6563 1923.4844,1160.6563 C1923.1719,1160.6563 1922.9688,1160.7657 1922.75,1161.0313 C1921.5781,1160.5313 1921.1406,1160.4219 1920.1875,1160.4219 C1917.5156,1160.4219 1915.5,1162.4376 1915.5,1165.0626 L1915.5,1166.1563 Z " fill="#000000"/><text fill="#000000" font-family="sans-serif" font-size="14" lengthAdjust="spacing" textLength="49" x="1937.5" y="1167.006">Toaster</text><rect fill="#FFFFFF" height="986.8002" style="stroke:#181818;stroke-width:1.0;" width="10" x="337" y="151.1999"/><rect fill="#FFFFFF" height="838.8001" style="stroke:#181818;stroke-width:1.0;" width="10" x="636" y="299.1999"/><rect fill="#FFFFFF" height="631.0001" style="stroke:#181818;stroke-width:1.0;" width="10" x="1116.5" y="484.8"/><rect fill="#FFFFFF" height="29.6" style="stroke:#181818;stroke-width:1.0;" width="10" x="1264" y="544"/><rect fill="#FFFFFF" height="601.4001" style="stroke:#181818;stroke-width:1.0;" width="10" x="1410" y="514.4"/><rect fill="#FFFFFF" height="512.6001" style="stroke:#181818;stroke-width:1.0;" width="10" x="1701" y="603.2001"/><rect fill="#FFFFFF" height="59.2" style="stroke:#181818;stroke-width:1.0;" width="10" x="1829" y="180.7999"/><rect fill="#FFFFFF" height="29.6" style="stroke:#181818;stroke-width:1.0;" width="10" x="1829" y="835.4002"/><rect fill="#FFFFFF" height="30" style="stroke:#181818;stroke-width:1.0;" width="10" x="1943" y="746.2001"/><rect fill="#FFFFFF" height="30" style="stroke:#181818;stroke-width:1.0;" width="10" x="1943" y="1041.2002"/><polygon fill="#181818" points="325,147.1999,335,151.1999,325,155.1999,329,151.1999" style="stroke:#181818;stroke-width:1.0;"/><line style="stroke:#181818;stroke-width:1.0;" x1="28" x2="331" y1="151.1999" y2="151.1999"/><text fill="#000000" font-family="sans-serif" font-size="13" lengthAdjust="spacing" textLength="290" x="35" y="145.6769">Navigates to /dashboard_admin/role_management</text><polygon fill="#181818" points="1817,176.7999,1827,180.7999,1817,184.7999,1821,180.7999" style="stroke:#181818;stroke-width:1.0;"/><line style="stroke:#181818;stroke-width:1.0;" x1="347" x2="1823" y1="180.7999" y2="180.7999"/><text fill="#000000" font-family="sans-serif" font-size="13" lengthAdjust="spacing" textLength="243" x="354" y="175.2769">useQuery(['allUsersForRoleManagement'])</text><polygon fill="#181818" points="1132.5,206.3999,1122.5,210.3999,1132.5,214.3999,1128.5,210.3999" style="stroke:#181818;stroke-width:1.0;"/><line style="stroke:#181818;stroke-width:1.0;" x1="1126.5" x2="1828" y1="210.3999" y2="210.3999"/><text fill="#000000" font-family="sans-serif" font-size="13" lengthAdjust="spacing" textLength="75" x="1138.5" y="204.8769">getAllUsers()</text><polygon fill="#181818" points="1822,235.9999,1832,239.9999,1822,243.9999,1826,239.9999" style="stroke:#181818;stroke-width:1.0;"/><line style="stroke:#181818;stroke-width:1.0;stroke-dasharray:2.0,2.0;" x1="1121.5" x2="1828" y1="239.9999" y2="239.9999"/><text fill="#000000" font-family="sans-serif" font-size="13" lengthAdjust="spacing" textLength="57" x="1128.5" y="234.4769">UserInfo[]</text><polygon fill="#181818" points="358,265.5999,348,269.5999,358,273.5999,354,269.5999" style="stroke:#181818;stroke-width:1.0;"/><line style="stroke:#181818;stroke-width:1.0;stroke-dasharray:2.0,2.0;" x1="352" x2="1833" y1="269.5999" y2="269.5999"/><text fill="#000000" font-family="sans-serif" font-size="13" lengthAdjust="spacing" textLength="57" x="364" y="264.0769">UserInfo[]</text><polygon fill="#181818" points="624,295.1999,634,299.1999,624,303.1999,628,299.1999" style="stroke:#181818;stroke-width:1.0;"/><line style="stroke:#181818;stroke-width:1.0;" x1="347" x2="630" y1="299.1999" y2="299.1999"/><text fill="#000000" font-family="sans-serif" font-size="13" lengthAdjust="spacing" textLength="270" x="354" y="293.6769">Renders card for each user with a role selector</text><polygon fill="#181818" points="964,324.7999,974,328.7999,964,332.7999,968,328.7999" style="stroke:#181818;stroke-width:1.0;"/><line style="stroke:#181818;stroke-width:1.0;" x1="646" x2="970" y1="328.7999" y2="328.7999"/><text fill="#000000" font-family="sans-serif" font-size="13" lengthAdjust="spacing" textLength="230" x="653" y="323.2769">Renders role select dropdown for a user</text><polygon fill="#181818" points="964,354.4,974,358.4,964,362.4,968,358.4" style="stroke:#181818;stroke-width:1.0;"/><line style="stroke:#181818;stroke-width:1.0;" x1="28" x2="970" y1="358.4" y2="358.4"/><text fill="#000000" font-family="sans-serif" font-size="13" lengthAdjust="spacing" textLength="173" x="35" y="352.877">Selects a new URol for a user</text><polygon fill="#181818" points="657,384,647,388,657,392,653,388" style="stroke:#181818;stroke-width:1.0;"/><line style="stroke:#181818;stroke-width:1.0;" x1="651" x2="975" y1="388" y2="388"/><text fill="#000000" font-family="sans-serif" font-size="13" lengthAdjust="spacing" textLength="181" x="663" y="382.477">onValueChange(newRoleValue)</text><line style="stroke:#181818;stroke-width:1.0;" x1="646" x2="688" y1="417.6" y2="417.6"/><line style="stroke:#181818;stroke-width:1.0;" x1="688" x2="688" y1="417.6" y2="430.6"/><line style="stroke:#181818;stroke-width:1.0;" x1="647" x2="688" y1="430.6" y2="430.6"/><polygon fill="#181818" points="657,426.6,647,430.6,657,434.6,653,430.6" style="stroke:#181818;stroke-width:1.0;"/><text fill="#000000" font-family="sans-serif" font-size="13" lengthAdjust="spacing" textLength="165" x="653" y="412.077">handleRoleChange(newRole)</text><path d="M208,445.6 L268,445.6 L268,453.2 L258,463.2 L208,463.2 L208,445.6 " fill="#EEEEEE" style="stroke:#000000;stroke-width:1.5;"/><rect fill="none" height="685.4001" style="stroke:#000000;stroke-width:1.5;" width="1805.5" x="208" y="445.6"/><text fill="#000000" font-family="sans-serif" font-size="13" font-weight="bold" lengthAdjust="spacing" textLength="15" x="223" y="458.677">alt</text><text fill="#000000" font-family="sans-serif" font-size="11" font-weight="bold" lengthAdjust="spacing" textLength="206" x="283" y="457.8189">[New role is different from current role]</text><polygon fill="#181818" points="1104.5,480.8,1114.5,484.8,1104.5,488.8,1108.5,484.8" style="stroke:#181818;stroke-width:1.0;"/><line style="stroke:#181818;stroke-width:1.0;" x1="646" x2="1110.5" y1="484.8" y2="484.8"/><text fill="#000000" font-family="sans-serif" font-size="13" lengthAdjust="spacing" textLength="248" x="653" y="479.277">updateUserRol(userId, {user_rol: newRole})</text><polygon fill="#181818" points="1398,510.4,1408,514.4,1398,518.4,1402,514.4" style="stroke:#181818;stroke-width:1.0;"/><line style="stroke:#181818;stroke-width:1.0;" x1="1126.5" x2="1404" y1="514.4" y2="514.4"/><text fill="#000000" font-family="sans-serif" font-size="13" lengthAdjust="spacing" textLength="262" x="1133.5" y="508.877">fetchJson("/users/{userId}/role", {PUT, body})</text><polygon fill="#181818" points="1285,540,1275,544,1285,548,1281,544" style="stroke:#181818;stroke-width:1.0;"/><line style="stroke:#181818;stroke-width:1.0;" x1="1279" x2="1409" y1="544" y2="544"/><text fill="#000000" font-family="sans-serif" font-size="13" lengthAdjust="spacing" textLength="62" x="1291" y="538.477">getToken()</text><polygon fill="#181818" points="1398,569.6001,1408,573.6001,1398,577.6001,1402,573.6001" style="stroke:#181818;stroke-width:1.0;"/><line style="stroke:#181818;stroke-width:1.0;stroke-dasharray:2.0,2.0;" x1="1269" x2="1404" y1="573.6001" y2="573.6001"/><text fill="#000000" font-family="sans-serif" font-size="13" lengthAdjust="spacing" textLength="112" x="1276" y="568.0771">"admin_token_xyz"</text><polygon fill="#181818" points="1689,599.2001,1699,603.2001,1689,607.2001,1693,603.2001" style="stroke:#181818;stroke-width:1.0;"/><line style="stroke:#181818;stroke-width:1.0;" x1="1420" x2="1695" y1="603.2001" y2="603.2001"/><text fill="#000000" font-family="sans-serif" font-size="13" lengthAdjust="spacing" textLength="262" x="1427" y="597.6771">PUT /users/{userId}/role ({user_rol: newRole})</text><path d="M218,618.2001 L278,618.2001 L278,625.8001 L268,635.8001 L218,635.8001 L218,618.2001 " fill="#EEEEEE" style="stroke:#000000;stroke-width:1.5;"/><rect fill="none" height="490.6001" style="stroke:#000000;stroke-width:1.5;" width="1785.5" x="218" y="618.2001"/><text fill="#000000" font-family="sans-serif" font-size="13" font-weight="bold" lengthAdjust="spacing" textLength="15" x="233" y="631.2771">alt</text><text fill="#000000" font-family="sans-serif" font-size="11" font-weight="bold" lengthAdjust="spacing" textLength="148" x="293" y="630.419">[Role updated successfully]</text><polygon fill="#181818" points="1431,653.4001,1421,657.4001,1431,661.4001,1427,657.4001" style="stroke:#181818;stroke-width:1.0;"/><line style="stroke:#181818;stroke-width:1.0;stroke-dasharray:2.0,2.0;" x1="1425" x2="1700" y1="657.4001" y2="657.4001"/><text fill="#000000" font-family="sans-serif" font-size="13" lengthAdjust="spacing" textLength="245" x="1437" y="651.8771">HTTP 200 OK (UserInfo with updated role)</text><polygon fill="#181818" points="1137.5,683.0001,1127.5,687.0001,1137.5,691.0001,1133.5,687.0001" style="stroke:#181818;stroke-width:1.0;"/><line style="stroke:#181818;stroke-width:1.0;stroke-dasharray:2.0,2.0;" x1="1131.5" x2="1409" y1="687.0001" y2="687.0001"/><text fill="#000000" font-family="sans-serif" font-size="13" lengthAdjust="spacing" textLength="49" x="1143.5" y="681.4771">UserInfo</text><polygon fill="#181818" points="657,712.6001,647,716.6001,657,720.6001,653,716.6001" style="stroke:#181818;stroke-width:1.0;"/><line style="stroke:#181818;stroke-width:1.0;stroke-dasharray:2.0,2.0;" x1="651" x2="1115.5" y1="716.6001" y2="716.6001"/><text fill="#000000" font-family="sans-serif" font-size="13" lengthAdjust="spacing" textLength="107" x="663" y="711.0771">UserInfo (updated)</text><polygon fill="#181818" points="1931,742.2001,1941,746.2001,1931,750.2001,1935,746.2001" style="stroke:#181818;stroke-width:1.0;"/><line style="stroke:#181818;stroke-width:1.0;" x1="646" x2="1937" y1="746.2001" y2="746.2001"/><text fill="#000000" font-family="sans-serif" font-size="13" lengthAdjust="spacing" textLength="348" x="653" y="740.6771">toast.success("Role for {user.name} updated to {newRole}.")</text><polygon fill="#181818" points="1822,801.8002,1832,805.8002,1822,809.8002,1826,805.8002" style="stroke:#181818;stroke-width:1.0;"/><line style="stroke:#181818;stroke-width:1.0;" x1="646" x2="1828" y1="805.8002" y2="805.8002"/><text fill="#000000" font-family="sans-serif" font-size="13" lengthAdjust="spacing" textLength="521" x="653" y="800.2772">setQueryData(['allUsersForRoleManagement'], ...) ' Optimistic update or to reflect change '</text><polygon fill="#181818" points="1817,831.4002,1827,835.4002,1817,839.4002,1821,835.4002" style="stroke:#181818;stroke-width:1.0;"/><line style="stroke:#181818;stroke-width:1.0;" x1="646" x2="1823" y1="835.4002" y2="835.4002"/><text fill="#000000" font-family="sans-serif" font-size="13" lengthAdjust="spacing" textLength="260" x="653" y="829.8772">invalidateQueries({queryKey: ['user', userId]})</text><polygon fill="#181818" points="358,861.0002,348,865.0002,358,869.0002,354,865.0002" style="stroke:#181818;stroke-width:1.0;"/><line style="stroke:#181818;stroke-width:1.0;" x1="352" x2="1833" y1="865.0002" y2="865.0002"/><text fill="#000000" font-family="sans-serif" font-size="13" lengthAdjust="spacing" textLength="343" x="364" y="859.4772">Triggers potential refetch/rerender if data structure changes</text><line style="stroke:#181818;stroke-width:1.0;" x1="646" x2="688" y1="894.6002" y2="894.6002"/><line style="stroke:#181818;stroke-width:1.0;" x1="688" x2="688" y1="894.6002" y2="907.6002"/><line style="stroke:#181818;stroke-width:1.0;" x1="647" x2="688" y1="907.6002" y2="907.6002"/><polygon fill="#181818" points="657,903.6002,647,907.6002,657,911.6002,653,907.6002" style="stroke:#181818;stroke-width:1.0;"/><text fill="#000000" font-family="sans-serif" font-size="13" lengthAdjust="spacing" textLength="275" x="653" y="889.0772">setSelectedRole(newRole) ' Local state update '</text><line style="stroke:#000000;stroke-width:1.0;stroke-dasharray:2.0,2.0;" x1="218" x2="2003.5" y1="916.6002" y2="916.6002"/><text fill="#000000" font-family="sans-serif" font-size="11" font-weight="bold" lengthAdjust="spacing" textLength="108" x="223" y="926.8191">[Error updating role]</text><polygon fill="#181818" points="1431,948.4001,1421,952.4001,1431,956.4001,1427,952.4001" style="stroke:#181818;stroke-width:1.0;"/><line style="stroke:#181818;stroke-width:1.0;stroke-dasharray:2.0,2.0;" x1="1425" x2="1700" y1="952.4001" y2="952.4001"/><text fill="#000000" font-family="sans-serif" font-size="13" lengthAdjust="spacing" textLength="66" x="1437" y="946.8771">HTTP Error</text><polygon fill="#181818" points="1137.5,978.0001,1127.5,982.0001,1137.5,986.0001,1133.5,982.0001" style="stroke:#181818;stroke-width:1.0;"/><line style="stroke:#181818;stroke-width:1.0;" x1="1131.5" x2="1409" y1="982.0001" y2="982.0001"/><text fill="#000000" font-family="sans-serif" font-size="13" lengthAdjust="spacing" textLength="70" x="1143.5" y="976.4771">throws Error</text><polygon fill="#181818" points="657,1007.6001,647,1011.6001,657,1015.6001,653,1011.6001" style="stroke:#181818;stroke-width:1.0;"/><line style="stroke:#181818;stroke-width:1.0;stroke-dasharray:2.0,2.0;" x1="651" x2="1115.5" y1="1011.6001" y2="1011.6001"/><text fill="#000000" font-family="sans-serif" font-size="13" lengthAdjust="spacing" textLength="70" x="663" y="1006.0771">throws Error</text><polygon fill="#181818" points="1931,1037.2002,1941,1041.2002,1931,1045.2002,1935,1041.2002" style="stroke:#181818;stroke-width:1.0;"/><line style="stroke:#181818;stroke-width:1.0;" x1="646" x2="1937" y1="1041.2002" y2="1041.2002"/><text fill="#000000" font-family="sans-serif" font-size="13" lengthAdjust="spacing" textLength="207" x="653" y="1035.6772">toast.error("Failed to update role...")</text><polygon fill="#181818" points="964,1096.8002,974,1100.8002,964,1104.8002,968,1100.8002" style="stroke:#181818;stroke-width:1.0;"/><line style="stroke:#181818;stroke-width:1.0;" x1="646" x2="970" y1="1100.8002" y2="1100.8002"/><text fill="#000000" font-family="sans-serif" font-size="13" lengthAdjust="spacing" textLength="306" x="653" y="1095.2772">Reverts selection to original role (selectedRole state)</text><line style="stroke:#000000;stroke-width:1.0;stroke-dasharray:2.0,2.0;" x1="208" x2="2013.5" y1="1116.8002" y2="1116.8002"/><text fill="#000000" font-family="sans-serif" font-size="11" font-weight="bold" lengthAdjust="spacing" textLength="153" x="213" y="1127.0191">[New role is same as current]</text><!--SRC=[bLPDR-Cs4BthLmnyiGmuzg97OH4WzJPjkctMJUnUqi1W95ecLXQz99Mi6-I_TsP4oPIKJT2JfU7CcyVvUB9Jhf2mNcn-bTOfNGfpemjfrxOIHcbxaUrLcS2j_5R9CfNmIOdSY7qKYTHf0oC-7u6mm4zhAqrq4CQfL1r4wRm3GVufIf7BlIpT4dyvXCtvdWtmyMDyCzKctQbiSdxU1I5OSbu8at4a6UY5eXRJGkKxbnjv70JUoaAc3c8AdhGvlVMTs0fpR1v4-bMMsSpPVyhga0adFPTuqXBvkVOXlClfKHQ5VXg0NLHkLrV0rDMYzznGp6tDuQ6ev923KuNbv5lfqjtlLfS-yIMzh_6uJgkDAFDXlATsiRogiowlwenExuNJ0_U_AccEYq9XazW_UA_ZNYtKIWlh_BtySrtRWog_adVKpWQSdNUxdi2rU5GvrjM2qp3FXDqzQEpiHb3CtA3pPj-E3esTUaJl3ahKWSGK8Uy4i95iYE_6eYY8XhtKfZkJu_l92Ji8Zq8eH0xxdK0ktOL7Z2VH66Qp6RID8dSgE5uB_G1J4nDZsMiSXKXd0yvqUbLkzTrzbCdtYGtB6W0CojDkJm8tc9uufVIwnOt6P3lc2K_AxK00TG0iRumsfner654BvZduvJf11m2G6Nt8z5F9gGJdUMKwMeZwmQ9dAPzWZMTXOE3QlPGk_nQuJOiTxKICeUJ9fac7RX22hbaXMMCwKHDKkiB1DQRdUoWBcTfkfQ6oRutUGrePVg7Z2A2FVngMhdpG3QwoAJopp61m0ZxbomHXEdNs61wz7PhpG0IIqzp5epdFsVovpl72IpJ2LClrQWeFEZjsKxGeQ3mXqlHwaU91NsdC6dS2_JcQ6i-p7gaHR_76KUpc-_7V4Ve6ytm2wER5hKa0sS9hDu7ulPfXFBrYt-ZC5pu3MwMfj7PR5SKHpu7pz1d_jbejuQSF7-3BPuYR9QfteS4nF1S44B0UjBk9PSV-iWUJr-Q8FJwEN1FI35AZgWcA2JxD_4tY4T-FLe9BCYl5NhwqF55udflwp4OruxP67fADGKSQyu12LvwiT6pu99nuMrQd97SJ6CENWrDxXVynKayGa3PID7BBAvpotg4mlfrPbO-YK1HFTYLj_FoD73xBOm9tOoh3U0hrlDo_z2uTwYSTzCIz9w4he_AS5EoW7NeeKH1PQldSa02Wke7Q0d8HO9sfKbSPwUzX-uNjf_w13c5XQqcJ6R5fPGWB-8TEaO5rXEOhICMIXPNmYp5OJRQgCc-qw8q9vu3-3FT7sEsCVhA1xnjZ_AhlZ-PNabSykXIggEVKtuTuuxZyprdjP-jzXHwbmKz8_G72FxYKJcDdLKdzP3snGSNh0XE1Md53jM9P2GoXS0RcKBAvE-7Nm-AAqXyb_zd0o35SQxuhSHCOXMsbq1uYVsm3MpYi_m40]--></g></svg>