<?xml version="1.0" encoding="us-ascii" standalone="no"?><svg xmlns="http://www.w3.org/2000/svg" xmlns:xlink="http://www.w3.org/1999/xlink" contentStyleType="text/css" height="938px" preserveAspectRatio="none" style="width:954px;height:938px;background:#FFFFFF;" version="1.1" viewBox="0 0 954 938" width="954px" zoomAndPan="magnify"><defs/><g><text fill="#000000" font-family="sans-serif" font-size="14" font-weight="bold" lengthAdjust="spacing" textLength="238" x="356.5" y="33.0059">UC_IniciarSesion: Activity Diagram</text><ellipse cx="380" cy="57.7999" fill="#222222" rx="10" ry="10" style="stroke:#222222;stroke-width:1.0;"/><rect fill="#F1F1F1" height="34.4001" rx="12.5" ry="12.5" style="stroke:#181818;stroke-width:0.5;" width="222" x="269" y="87.7999"/><text fill="#000000" font-family="sans-serif" font-size="12" lengthAdjust="spacing" textLength="202" x="279" y="108.948">Usuario navega a la p&#225;gina de Login</text><rect fill="#F1F1F1" height="34.4001" rx="12.5" ry="12.5" style="stroke:#181818;stroke-width:0.5;" width="236" x="262" y="190.8"/><text fill="#000000" font-family="sans-serif" font-size="12" lengthAdjust="spacing" textLength="216" x="272" y="211.9481">Redirigir al Dashboard correspondiente</text><ellipse cx="380" cy="264.5" fill="none" rx="11" ry="11" style="stroke:#222222;stroke-width:1.0;"/><ellipse cx="380" cy="264.5" fill="#222222" rx="6" ry="6" style="stroke:#222222;stroke-width:1.0;"/><polygon fill="#F1F1F1" points="321,142.2,439,142.2,451,154.2,439,166.2,321,166.2,309,154.2,321,142.2" style="stroke:#181818;stroke-width:0.5;"/><text fill="#000000" font-family="sans-serif" font-size="11" lengthAdjust="spacing" textLength="9" x="384" y="176.419">s&#237;</text><text fill="#000000" font-family="sans-serif" font-size="11" lengthAdjust="spacing" textLength="118" x="321" y="157.819">Usuario ya autenticado?</text><text fill="#000000" font-family="sans-serif" font-size="11" lengthAdjust="spacing" textLength="12" x="451" y="151.219">no</text><rect fill="#F1F1F1" height="34.4001" rx="12.5" ry="12.5" style="stroke:#181818;stroke-width:0.5;" width="174" x="293" y="317.5"/><text fill="#000000" font-family="sans-serif" font-size="12" lengthAdjust="spacing" textLength="154" x="303" y="338.6481">Mostrar Formulario de Login</text><rect fill="#F1F1F1" height="34.4001" rx="12.5" ry="12.5" style="stroke:#181818;stroke-width:0.5;" width="325" x="217.5" y="371.9001"/><text fill="#000000" font-family="sans-serif" font-size="12" lengthAdjust="spacing" textLength="305" x="227.5" y="393.0482">Usuario ingresa credenciales (identificador, contrase&#241;a)</text><rect fill="#F1F1F1" height="34.4001" rx="12.5" ry="12.5" style="stroke:#181818;stroke-width:0.5;" width="154" x="303" y="426.3002"/><text fill="#000000" font-family="sans-serif" font-size="12" lengthAdjust="spacing" textLength="134" x="313" y="447.4483">Usuario env&#237;a formulario</text><rect fill="#F1F1F1" height="34.4001" rx="12.5" ry="12.5" style="stroke:#181818;stroke-width:0.5;" width="210" x="275" y="480.7003"/><text fill="#000000" font-family="sans-serif" font-size="12" lengthAdjust="spacing" textLength="190" x="285" y="501.8484">Validar datos de entrada (frontend)</text><polygon fill="#F1F1F1" points="340,535.1004,420,535.1004,432,547.1004,420,559.1004,340,559.1004,328,547.1004,340,535.1004" style="stroke:#181818;stroke-width:0.5;"/><text fill="#000000" font-family="sans-serif" font-size="11" lengthAdjust="spacing" textLength="80" x="340" y="550.7194">Datos inv&#225;lidos?</text><text fill="#000000" font-family="sans-serif" font-size="11" lengthAdjust="spacing" textLength="9" x="319" y="544.1195">s&#237;</text><text fill="#000000" font-family="sans-serif" font-size="11" lengthAdjust="spacing" textLength="12" x="432" y="544.1195">no</text><rect fill="#F1F1F1" height="34.4001" rx="12.5" ry="12.5" style="stroke:#181818;stroke-width:0.5;" width="232" x="11" y="569.1004"/><text fill="#000000" font-family="sans-serif" font-size="12" lengthAdjust="spacing" textLength="212" x="21" y="590.2485">Mostrar mensaje de error en formulario</text><ellipse cx="127" cy="634.5005" fill="none" rx="11" ry="11" style="stroke:#222222;stroke-width:1.0;"/><ellipse cx="127" cy="634.5005" fill="#222222" rx="6" ry="6" style="stroke:#222222;stroke-width:1.0;"/><rect fill="#F1F1F1" height="34.4001" rx="12.5" ry="12.5" style="stroke:#181818;stroke-width:0.5;" width="256" x="505" y="569.1004"/><text fill="#000000" font-family="sans-serif" font-size="12" lengthAdjust="spacing" textLength="236" x="515" y="590.2485">Sistema env&#237;a credenciales al Backend API</text><polygon fill="#F1F1F1" points="547.5,623.5005,718.5,623.5005,730.5,635.5005,718.5,647.5005,547.5,647.5005,535.5,635.5005,547.5,623.5005" style="stroke:#181818;stroke-width:0.5;"/><text fill="#000000" font-family="sans-serif" font-size="11" lengthAdjust="spacing" textLength="171" x="547.5" y="639.1195">Autenticaci&#243;n Exitosa en Backend?</text><text fill="#000000" font-family="sans-serif" font-size="11" lengthAdjust="spacing" textLength="9" x="526.5" y="632.5196">s&#237;</text><text fill="#000000" font-family="sans-serif" font-size="11" lengthAdjust="spacing" textLength="178" x="730.5" y="632.5196">no - credenciales incorrectas o error</text><rect fill="#F1F1F1" height="34.4001" rx="12.5" ry="12.5" style="stroke:#181818;stroke-width:0.5;" width="311" x="305" y="657.5005"/><text fill="#000000" font-family="sans-serif" font-size="12" lengthAdjust="spacing" textLength="291" x="315" y="678.6486">Backend API retorna token y datos de usuario (rol, ID)</text><rect fill="#F1F1F1" height="34.4001" rx="12.5" ry="12.5" style="stroke:#181818;stroke-width:0.5;" width="375" x="273" y="711.9006"/><text fill="#000000" font-family="sans-serif" font-size="12" lengthAdjust="spacing" textLength="355" x="283" y="733.0487">Guardar token y datos de usuario en AuthManager (localStorage)</text><rect fill="#F1F1F1" height="34.4001" rx="12.5" ry="12.5" style="stroke:#181818;stroke-width:0.5;" width="198" x="361.5" y="766.3007"/><text fill="#000000" font-family="sans-serif" font-size="12" lengthAdjust="spacing" textLength="178" x="371.5" y="787.4488">Mostrar mensaje de &#233;xito (Toast)</text><rect fill="#F1F1F1" height="34.4001" rx="12.5" ry="12.5" style="stroke:#181818;stroke-width:0.5;" width="266" x="327.5" y="820.7008"/><text fill="#000000" font-family="sans-serif" font-size="12" lengthAdjust="spacing" textLength="246" x="337.5" y="841.8489">Redirigir al Dashboard correspondiente al rol</text><rect fill="#F1F1F1" height="34.4001" rx="12.5" ry="12.5" style="stroke:#181818;stroke-width:0.5;" width="161" x="725" y="657.5005"/><text fill="#000000" font-family="sans-serif" font-size="12" lengthAdjust="spacing" textLength="141" x="735" y="678.6486">Backend API retorna error</text><rect fill="#F1F1F1" height="34.4001" rx="12.5" ry="12.5" style="stroke:#181818;stroke-width:0.5;" width="275" x="668" y="711.9006"/><text fill="#000000" font-family="sans-serif" font-size="12" lengthAdjust="spacing" textLength="255" x="678" y="733.0487">Mostrar mensaje de error (Toast y/o formulario)</text><polygon fill="#F1F1F1" points="633,861.1009,645,873.1009,633,885.1009,621,873.1009,633,861.1009" style="stroke:#181818;stroke-width:0.5;"/><ellipse cx="380" cy="916.1009" fill="none" rx="11" ry="11" style="stroke:#222222;stroke-width:1.0;"/><ellipse cx="380" cy="916.1009" fill="#222222" rx="6" ry="6" style="stroke:#222222;stroke-width:1.0;"/><line style="stroke:#181818;stroke-width:1.0;" x1="380" x2="380" y1="67.7999" y2="87.7999"/><polygon fill="#181818" points="376,77.7999,380,87.7999,384,77.7999,380,81.7999" style="stroke:#181818;stroke-width:1.0;"/><line style="stroke:#181818;stroke-width:1.0;" x1="380" x2="380" y1="225.2001" y2="253.5"/><polygon fill="#181818" points="376,243.5,380,253.5,384,243.5,380,247.5" style="stroke:#181818;stroke-width:1.0;"/><line style="stroke:#181818;stroke-width:1.0;" x1="380" x2="380" y1="166.2" y2="190.8"/><polygon fill="#181818" points="376,180.8,380,190.8,384,180.8,380,184.8" style="stroke:#181818;stroke-width:1.0;"/><line style="stroke:#181818;stroke-width:1.0;" x1="451" x2="508" y1="154.2" y2="154.2"/><polygon fill="#181818" points="504,223.5,508,233.5,512,223.5,508,227.5" style="stroke:#181818;stroke-width:1.0;"/><line style="stroke:#181818;stroke-width:1.0;" x1="508" x2="508" y1="154.2" y2="297.5"/><line style="stroke:#181818;stroke-width:1.0;" x1="508" x2="380" y1="297.5" y2="297.5"/><line style="stroke:#181818;stroke-width:1.0;" x1="380" x2="380" y1="297.5" y2="317.5"/><polygon fill="#181818" points="376,307.5,380,317.5,384,307.5,380,311.5" style="stroke:#181818;stroke-width:1.0;"/><line style="stroke:#181818;stroke-width:1.0;" x1="380" x2="380" y1="122.2" y2="142.2"/><polygon fill="#181818" points="376,132.2,380,142.2,384,132.2,380,136.2" style="stroke:#181818;stroke-width:1.0;"/><line style="stroke:#181818;stroke-width:1.0;" x1="380" x2="380" y1="351.9001" y2="371.9001"/><polygon fill="#181818" points="376,361.9001,380,371.9001,384,361.9001,380,365.9001" style="stroke:#181818;stroke-width:1.0;"/><line style="stroke:#181818;stroke-width:1.0;" x1="380" x2="380" y1="406.3002" y2="426.3002"/><polygon fill="#181818" points="376,416.3002,380,426.3002,384,416.3002,380,420.3002" style="stroke:#181818;stroke-width:1.0;"/><line style="stroke:#181818;stroke-width:1.0;" x1="380" x2="380" y1="460.7003" y2="480.7003"/><polygon fill="#181818" points="376,470.7003,380,480.7003,384,470.7003,380,474.7003" style="stroke:#181818;stroke-width:1.0;"/><line style="stroke:#181818;stroke-width:1.0;" x1="127" x2="127" y1="603.5005" y2="623.5005"/><polygon fill="#181818" points="123,613.5005,127,623.5005,131,613.5005,127,617.5005" style="stroke:#181818;stroke-width:1.0;"/><line style="stroke:#181818;stroke-width:1.0;" x1="460.5" x2="460.5" y1="691.9006" y2="711.9006"/><polygon fill="#181818" points="456.5,701.9006,460.5,711.9006,464.5,701.9006,460.5,705.9006" style="stroke:#181818;stroke-width:1.0;"/><line style="stroke:#181818;stroke-width:1.0;" x1="460.5" x2="460.5" y1="746.3007" y2="766.3007"/><polygon fill="#181818" points="456.5,756.3007,460.5,766.3007,464.5,756.3007,460.5,760.3007" style="stroke:#181818;stroke-width:1.0;"/><line style="stroke:#181818;stroke-width:1.0;" x1="460.5" x2="460.5" y1="800.7008" y2="820.7008"/><polygon fill="#181818" points="456.5,810.7008,460.5,820.7008,464.5,810.7008,460.5,814.7008" style="stroke:#181818;stroke-width:1.0;"/><line style="stroke:#181818;stroke-width:1.0;" x1="805.5" x2="805.5" y1="691.9006" y2="711.9006"/><polygon fill="#181818" points="801.5,701.9006,805.5,711.9006,809.5,701.9006,805.5,705.9006" style="stroke:#181818;stroke-width:1.0;"/><line style="stroke:#181818;stroke-width:1.0;" x1="535.5" x2="460.5" y1="635.5005" y2="635.5005"/><line style="stroke:#181818;stroke-width:1.0;" x1="460.5" x2="460.5" y1="635.5005" y2="657.5005"/><polygon fill="#181818" points="456.5,647.5005,460.5,657.5005,464.5,647.5005,460.5,651.5005" style="stroke:#181818;stroke-width:1.0;"/><line style="stroke:#181818;stroke-width:1.0;" x1="730.5" x2="805.5" y1="635.5005" y2="635.5005"/><line style="stroke:#181818;stroke-width:1.0;" x1="805.5" x2="805.5" y1="635.5005" y2="657.5005"/><polygon fill="#181818" points="801.5,647.5005,805.5,657.5005,809.5,647.5005,805.5,651.5005" style="stroke:#181818;stroke-width:1.0;"/><line style="stroke:#181818;stroke-width:1.0;" x1="460.5" x2="460.5" y1="855.1009" y2="873.1009"/><line style="stroke:#181818;stroke-width:1.0;" x1="460.5" x2="621" y1="873.1009" y2="873.1009"/><polygon fill="#181818" points="611,869.1009,621,873.1009,611,877.1009,615,873.1009" style="stroke:#181818;stroke-width:1.0;"/><line style="stroke:#181818;stroke-width:1.0;" x1="805.5" x2="805.5" y1="746.3007" y2="873.1009"/><line style="stroke:#181818;stroke-width:1.0;" x1="805.5" x2="645" y1="873.1009" y2="873.1009"/><polygon fill="#181818" points="655,869.1009,645,873.1009,655,877.1009,651,873.1009" style="stroke:#181818;stroke-width:1.0;"/><line style="stroke:#181818;stroke-width:1.0;" x1="633" x2="633" y1="603.5005" y2="623.5005"/><polygon fill="#181818" points="629,613.5005,633,623.5005,637,613.5005,633,617.5005" style="stroke:#181818;stroke-width:1.0;"/><line style="stroke:#181818;stroke-width:1.0;" x1="328" x2="127" y1="547.1004" y2="547.1004"/><line style="stroke:#181818;stroke-width:1.0;" x1="127" x2="127" y1="547.1004" y2="569.1004"/><polygon fill="#181818" points="123,559.1004,127,569.1004,131,559.1004,127,563.1004" style="stroke:#181818;stroke-width:1.0;"/><line style="stroke:#181818;stroke-width:1.0;" x1="432" x2="633" y1="547.1004" y2="547.1004"/><line style="stroke:#181818;stroke-width:1.0;" x1="633" x2="633" y1="547.1004" y2="569.1004"/><polygon fill="#181818" points="629,559.1004,633,569.1004,637,559.1004,633,563.1004" style="stroke:#181818;stroke-width:1.0;"/><line style="stroke:#181818;stroke-width:1.0;" x1="633" x2="633" y1="885.1009" y2="890.1009"/><line style="stroke:#181818;stroke-width:1.0;" x1="633" x2="380" y1="890.1009" y2="890.1009"/><line style="stroke:#181818;stroke-width:1.0;" x1="380" x2="380" y1="890.1009" y2="905.1009"/><polygon fill="#181818" points="376,895.1009,380,905.1009,384,895.1009,380,899.1009" style="stroke:#181818;stroke-width:1.0;"/><line style="stroke:#181818;stroke-width:1.0;" x1="380" x2="380" y1="515.1004" y2="535.1004"/><polygon fill="#181818" points="376,525.1004,380,535.1004,384,525.1004,380,529.1004" style="stroke:#181818;stroke-width:1.0;"/><!--SRC=[ZPB1RjD048RlVeevsb8Hz-I00g4e4fKGeLpHi3jsfjtiHBERY3nEZnnwG3o2NunP6xS9fOYBPU_E_yyt_pXp3WJNRxwi8Zj6NLDYYJDOkCm7paTOCdQAswfA6JLNi-kqHsM1Y0Vg4102mgw_wpWYU8BtOc_pYbkefygZLUqpnSmElRng86yeGftw-wO2c7qapyeTAs209QRDLq7ru4ILqawYPvFIt4fJbbr58H7KKPgAxAgjPbUIigB2fUXs7uQEZnmFk1mxiqDmIfwYJHeeGSs-OBK3c5vOpsXMYVeVs9neAHxwUuJseO7TVSR0thfwp99AGofIZr2tQYx6remfB8S2DeixKqXwCl_4lwMOy8O6BrLHSpnh-MH-qwuvPThYH7WsdANv6jsjaS3Ymwhe2yvYseJZ_cU4jz_Oy8h1LFmddtKviG6bB6ghpc97S7oSV_yxh5ebNC1gsSn7yJixBa4zAx1JWzfSOSIE5EeW3iFQkjZdPFANZFhl1HtgJu8fJtN_zo-LIwCicYbDU74U7iT1up8ca74V_mXZk7yUTLpdI0h7btAorW5y_977PzdnBm00]--></g></svg>