<?xml version="1.0" encoding="us-ascii" standalone="no"?><svg xmlns="http://www.w3.org/2000/svg" xmlns:xlink="http://www.w3.org/1999/xlink" contentStyleType="text/css" height="861px" preserveAspectRatio="none" style="width:823px;height:861px;background:#FFFFFF;" version="1.1" viewBox="0 0 823 861" width="823px" zoomAndPan="magnify"><defs/><g><text fill="#000000" font-family="sans-serif" font-size="14" font-weight="bold" lengthAdjust="spacing" textLength="461" x="179.5" y="33.0059">UC_GestionarSolicitudesUsuario (Crear Solicitud): Activity Diagram</text><ellipse cx="350.125" cy="57.7999" fill="#222222" rx="10" ry="10" style="stroke:#222222;stroke-width:1.0;"/><rect fill="#F1F1F1" height="34.4001" rx="12.5" ry="12.5" style="stroke:#181818;stroke-width:0.5;" width="251" x="224.625" y="87.7999"/><text fill="#000000" font-family="sans-serif" font-size="12" lengthAdjust="spacing" textLength="231" x="234.625" y="108.948">Usuario navega a la p&#225;gina de Solicitudes</text><rect fill="#F1F1F1" height="34.4001" rx="12.5" ry="12.5" style="stroke:#181818;stroke-width:0.5;" width="554" x="73.125" y="142.2"/><text fill="#000000" font-family="sans-serif" font-size="12" lengthAdjust="spacing" textLength="534" x="83.125" y="163.3481">Sistema muestra formulario para Crear Nueva Solicitud y lista de solicitudes existentes del usuario</text><rect fill="#F1F1F1" height="34.4001" rx="12.5" ry="12.5" style="stroke:#181818;stroke-width:0.5;" width="345" x="177.625" y="196.6001"/><text fill="#000000" font-family="sans-serif" font-size="12" lengthAdjust="spacing" textLength="325" x="187.625" y="217.7482">Usuario ingresa T&#237;tulo y Justificaci&#243;n para la nueva solicitud</text><rect fill="#F1F1F1" height="34.4001" rx="12.5" ry="12.5" style="stroke:#181818;stroke-width:0.5;" width="221" x="239.625" y="251.0002"/><text fill="#000000" font-family="sans-serif" font-size="12" lengthAdjust="spacing" textLength="201" x="249.625" y="272.1483">Usuario env&#237;a formulario de creaci&#243;n</text><rect fill="#F1F1F1" height="34.4001" rx="12.5" ry="12.5" style="stroke:#181818;stroke-width:0.5;" width="241" x="229.625" y="305.4003"/><text fill="#000000" font-family="sans-serif" font-size="12" lengthAdjust="spacing" textLength="221" x="239.625" y="326.5484">Validar datos de entrada (frontend - Zod)</text><polygon fill="#F1F1F1" points="310.125,359.8004,390.125,359.8004,402.125,371.8004,390.125,383.8004,310.125,383.8004,298.125,371.8004,310.125,359.8004" style="stroke:#181818;stroke-width:0.5;"/><text fill="#000000" font-family="sans-serif" font-size="11" lengthAdjust="spacing" textLength="80" x="310.125" y="375.4194">Datos inv&#225;lidos?</text><text fill="#000000" font-family="sans-serif" font-size="11" lengthAdjust="spacing" textLength="9" x="289.125" y="368.8195">s&#237;</text><text fill="#000000" font-family="sans-serif" font-size="11" lengthAdjust="spacing" textLength="12" x="402.125" y="368.8195">no</text><rect fill="#F1F1F1" height="34.4001" rx="12.5" ry="12.5" style="stroke:#181818;stroke-width:0.5;" width="232" x="11" y="393.8004"/><text fill="#000000" font-family="sans-serif" font-size="12" lengthAdjust="spacing" textLength="212" x="21" y="414.9485">Mostrar mensaje de error en formulario</text><rect fill="#F1F1F1" height="34.4001" rx="12.5" ry="12.5" style="stroke:#181818;stroke-width:0.5;" width="212" x="467.25" y="393.8004"/><text fill="#000000" font-family="sans-serif" font-size="12" lengthAdjust="spacing" textLength="192" x="477.25" y="414.9485">Obtener ID del Usuario autenticado</text><rect fill="#F1F1F1" height="48.8002" rx="12.5" ry="12.5" style="stroke:#181818;stroke-width:0.5;" width="331" x="407.75" y="448.2005"/><text fill="#000000" font-family="sans-serif" font-size="12" lengthAdjust="spacing" textLength="311" x="417.75" y="469.3486">Sistema env&#237;a datos de la nueva solicitud al Backend API</text><text fill="#000000" font-family="sans-serif" font-size="12" lengthAdjust="spacing" textLength="180" x="417.75" y="483.7487">(t&#237;tulo, justificaci&#243;n, ID solicitante)</text><polygon fill="#F1F1F1" points="498.25,517.0007,648.25,517.0007,660.25,529.0007,648.25,541.0007,498.25,541.0007,486.25,529.0007,498.25,517.0007" style="stroke:#181818;stroke-width:0.5;"/><text fill="#000000" font-family="sans-serif" font-size="11" lengthAdjust="spacing" textLength="150" x="498.25" y="532.6197">Creaci&#243;n Exitosa en Backend?</text><text fill="#000000" font-family="sans-serif" font-size="11" lengthAdjust="spacing" textLength="9" x="477.25" y="526.0198">s&#237;</text><text fill="#000000" font-family="sans-serif" font-size="11" lengthAdjust="spacing" textLength="106" x="660.25" y="526.0198">no - error en backend</text><rect fill="#F1F1F1" height="34.4001" rx="12.5" ry="12.5" style="stroke:#181818;stroke-width:0.5;" width="321" x="273" y="551.0007"/><text fill="#000000" font-family="sans-serif" font-size="12" lengthAdjust="spacing" textLength="301" x="283" y="572.1488">Backend API crea la solicitud con estado "PENDIENTE"</text><rect fill="#F1F1F1" height="34.4001" rx="12.5" ry="12.5" style="stroke:#181818;stroke-width:0.5;" width="198" x="334.5" y="605.4008"/><text fill="#000000" font-family="sans-serif" font-size="12" lengthAdjust="spacing" textLength="178" x="344.5" y="626.5489">Mostrar mensaje de &#233;xito (Toast)</text><rect fill="#F1F1F1" height="34.4001" rx="12.5" ry="12.5" style="stroke:#181818;stroke-width:0.5;" width="286" x="290.5" y="659.8009"/><text fill="#000000" font-family="sans-serif" font-size="12" lengthAdjust="spacing" textLength="266" x="300.5" y="680.949">Actualizar lista de solicitudes del usuario en la UI</text><rect fill="#F1F1F1" height="34.4001" rx="12.5" ry="12.5" style="stroke:#181818;stroke-width:0.5;" width="186" x="340.5" y="714.201"/><text fill="#000000" font-family="sans-serif" font-size="12" lengthAdjust="spacing" textLength="166" x="350.5" y="735.3491">Limpiar formulario de creaci&#243;n</text><rect fill="#F1F1F1" height="34.4001" rx="12.5" ry="12.5" style="stroke:#181818;stroke-width:0.5;" width="161" x="632.5" y="551.0007"/><text fill="#000000" font-family="sans-serif" font-size="12" lengthAdjust="spacing" textLength="141" x="642.5" y="572.1488">Backend API retorna error</text><rect fill="#F1F1F1" height="34.4001" rx="12.5" ry="12.5" style="stroke:#181818;stroke-width:0.5;" width="198" x="614" y="605.4008"/><text fill="#000000" font-family="sans-serif" font-size="12" lengthAdjust="spacing" textLength="178" x="624" y="626.5489">Mostrar mensaje de error (Toast)</text><polygon fill="#F1F1F1" points="573.25,754.6011,585.25,766.6011,573.25,778.6011,561.25,766.6011,573.25,754.6011" style="stroke:#181818;stroke-width:0.5;"/><polygon fill="#F1F1F1" points="350.125,784.6011,362.125,796.6011,350.125,808.6011,338.125,796.6011,350.125,784.6011" style="stroke:#181818;stroke-width:0.5;"/><ellipse cx="350.125" cy="839.6011" fill="none" rx="11" ry="11" style="stroke:#222222;stroke-width:1.0;"/><ellipse cx="350.125" cy="839.6011" fill="#222222" rx="6" ry="6" style="stroke:#222222;stroke-width:1.0;"/><line style="stroke:#181818;stroke-width:1.0;" x1="350.125" x2="350.125" y1="67.7999" y2="87.7999"/><polygon fill="#181818" points="346.125,77.7999,350.125,87.7999,354.125,77.7999,350.125,81.7999" style="stroke:#181818;stroke-width:1.0;"/><line style="stroke:#181818;stroke-width:1.0;" x1="350.125" x2="350.125" y1="122.2" y2="142.2"/><polygon fill="#181818" points="346.125,132.2,350.125,142.2,354.125,132.2,350.125,136.2" style="stroke:#181818;stroke-width:1.0;"/><line style="stroke:#181818;stroke-width:1.0;" x1="350.125" x2="350.125" y1="176.6001" y2="196.6001"/><polygon fill="#181818" points="346.125,186.6001,350.125,196.6001,354.125,186.6001,350.125,190.6001" style="stroke:#181818;stroke-width:1.0;"/><line style="stroke:#181818;stroke-width:1.0;" x1="350.125" x2="350.125" y1="231.0002" y2="251.0002"/><polygon fill="#181818" points="346.125,241.0002,350.125,251.0002,354.125,241.0002,350.125,245.0002" style="stroke:#181818;stroke-width:1.0;"/><line style="stroke:#181818;stroke-width:1.0;" x1="350.125" x2="350.125" y1="285.4003" y2="305.4003"/><polygon fill="#181818" points="346.125,295.4003,350.125,305.4003,354.125,295.4003,350.125,299.4003" style="stroke:#181818;stroke-width:1.0;"/><line style="stroke:#181818;stroke-width:1.0;" x1="573.25" x2="573.25" y1="428.2005" y2="448.2005"/><polygon fill="#181818" points="569.25,438.2005,573.25,448.2005,577.25,438.2005,573.25,442.2005" style="stroke:#181818;stroke-width:1.0;"/><line style="stroke:#181818;stroke-width:1.0;" x1="433.5" x2="433.5" y1="585.4008" y2="605.4008"/><polygon fill="#181818" points="429.5,595.4008,433.5,605.4008,437.5,595.4008,433.5,599.4008" style="stroke:#181818;stroke-width:1.0;"/><line style="stroke:#181818;stroke-width:1.0;" x1="433.5" x2="433.5" y1="639.8009" y2="659.8009"/><polygon fill="#181818" points="429.5,649.8009,433.5,659.8009,437.5,649.8009,433.5,653.8009" style="stroke:#181818;stroke-width:1.0;"/><line style="stroke:#181818;stroke-width:1.0;" x1="433.5" x2="433.5" y1="694.201" y2="714.201"/><polygon fill="#181818" points="429.5,704.201,433.5,714.201,437.5,704.201,433.5,708.201" style="stroke:#181818;stroke-width:1.0;"/><line style="stroke:#181818;stroke-width:1.0;" x1="713" x2="713" y1="585.4008" y2="605.4008"/><polygon fill="#181818" points="709,595.4008,713,605.4008,717,595.4008,713,599.4008" style="stroke:#181818;stroke-width:1.0;"/><line style="stroke:#181818;stroke-width:1.0;" x1="486.25" x2="433.5" y1="529.0007" y2="529.0007"/><line style="stroke:#181818;stroke-width:1.0;" x1="433.5" x2="433.5" y1="529.0007" y2="551.0007"/><polygon fill="#181818" points="429.5,541.0007,433.5,551.0007,437.5,541.0007,433.5,545.0007" style="stroke:#181818;stroke-width:1.0;"/><line style="stroke:#181818;stroke-width:1.0;" x1="660.25" x2="713" y1="529.0007" y2="529.0007"/><line style="stroke:#181818;stroke-width:1.0;" x1="713" x2="713" y1="529.0007" y2="551.0007"/><polygon fill="#181818" points="709,541.0007,713,551.0007,717,541.0007,713,545.0007" style="stroke:#181818;stroke-width:1.0;"/><line style="stroke:#181818;stroke-width:1.0;" x1="433.5" x2="433.5" y1="748.6011" y2="766.6011"/><line style="stroke:#181818;stroke-width:1.0;" x1="433.5" x2="561.25" y1="766.6011" y2="766.6011"/><polygon fill="#181818" points="551.25,762.6011,561.25,766.6011,551.25,770.6011,555.25,766.6011" style="stroke:#181818;stroke-width:1.0;"/><line style="stroke:#181818;stroke-width:1.0;" x1="713" x2="713" y1="639.8009" y2="766.6011"/><line style="stroke:#181818;stroke-width:1.0;" x1="713" x2="585.25" y1="766.6011" y2="766.6011"/><polygon fill="#181818" points="595.25,762.6011,585.25,766.6011,595.25,770.6011,591.25,766.6011" style="stroke:#181818;stroke-width:1.0;"/><line style="stroke:#181818;stroke-width:1.0;" x1="573.25" x2="573.25" y1="497.0007" y2="517.0007"/><polygon fill="#181818" points="569.25,507.0007,573.25,517.0007,577.25,507.0007,573.25,511.0007" style="stroke:#181818;stroke-width:1.0;"/><line style="stroke:#181818;stroke-width:1.0;" x1="298.125" x2="127" y1="371.8004" y2="371.8004"/><line style="stroke:#181818;stroke-width:1.0;" x1="127" x2="127" y1="371.8004" y2="393.8004"/><polygon fill="#181818" points="123,383.8004,127,393.8004,131,383.8004,127,387.8004" style="stroke:#181818;stroke-width:1.0;"/><line style="stroke:#181818;stroke-width:1.0;" x1="402.125" x2="573.25" y1="371.8004" y2="371.8004"/><line style="stroke:#181818;stroke-width:1.0;" x1="573.25" x2="573.25" y1="371.8004" y2="393.8004"/><polygon fill="#181818" points="569.25,383.8004,573.25,393.8004,577.25,383.8004,573.25,387.8004" style="stroke:#181818;stroke-width:1.0;"/><line style="stroke:#181818;stroke-width:1.0;" x1="127" x2="127" y1="428.2005" y2="796.6011"/><line style="stroke:#181818;stroke-width:1.0;" x1="127" x2="338.125" y1="796.6011" y2="796.6011"/><polygon fill="#181818" points="328.125,792.6011,338.125,796.6011,328.125,800.6011,332.125,796.6011" style="stroke:#181818;stroke-width:1.0;"/><line style="stroke:#181818;stroke-width:1.0;" x1="573.25" x2="573.25" y1="778.6011" y2="796.6011"/><line style="stroke:#181818;stroke-width:1.0;" x1="573.25" x2="362.125" y1="796.6011" y2="796.6011"/><polygon fill="#181818" points="372.125,792.6011,362.125,796.6011,372.125,800.6011,368.125,796.6011" style="stroke:#181818;stroke-width:1.0;"/><line style="stroke:#181818;stroke-width:1.0;" x1="350.125" x2="350.125" y1="339.8004" y2="359.8004"/><polygon fill="#181818" points="346.125,349.8004,350.125,359.8004,354.125,349.8004,350.125,353.8004" style="stroke:#181818;stroke-width:1.0;"/><line style="stroke:#181818;stroke-width:1.0;" x1="350.125" x2="350.125" y1="808.6011" y2="828.6011"/><polygon fill="#181818" points="346.125,818.6011,350.125,828.6011,354.125,818.6011,350.125,822.6011" style="stroke:#181818;stroke-width:1.0;"/><!--SRC=[TLFDRjf04BxxAKOvsLBo0lXGfO0ggfP62lHGHOeczfXEkjv5-uEIlasEFN3g8_Z5Chl6uBJaWemyt- -CFNj5i9xUVoBdsMYqjqPnnJxKvDOke6K3-TGIMZY-AIPmNNdUiN-66UF6OfjbpgFrsMJ0QDpH1W518MoxbmrhX9fWn5vcarjsdbg4DeYwHMYCRODA-2tA_rvt6MY79oGyWn9SedCdEg2doAQzFDQa8FH6ofCbrXjB3c7LxNrGHdW-1mdTS8KLTtzrhob-TH8ySeyeIE-w_HkVOg8Ibub01h-Zubeyr-XDz2482LOZv8qruatNS0K_J5sK6JUGpz8O2-kBu8pxK83_IHfor-sB363orSHYBBIa7JvIOhJMME4TkIWpKeuWroQ1lZs845bOp58JWtaCiHv9Mmj0neRs3w6Eblzl0531Hwn-HVlNDuixdVk-mqjuV5FXPTGym53Y5b4e1fqE7S7yYKKdgWwK_uOMQoEnL6_qT79J6GroC983BcxcozbYlbpDByeUUgQnxa_KX7nbqFdYC2SN76HPlsNqx3cDRYXw5GFhnG7wXTij2-xTCm0OzY7RFkxheGzr9g8bRwny86dq_HmzqoY6uBd9-b_dpVOL]--></g></svg>