<?xml version="1.0" encoding="us-ascii" standalone="no"?><svg xmlns="http://www.w3.org/2000/svg" xmlns:xlink="http://www.w3.org/1999/xlink" contentStyleType="text/css" height="759px" preserveAspectRatio="none" style="width:4187px;height:759px;background:#FFFFFF;" version="1.1" viewBox="0 0 4187 759" width="4187px" zoomAndPan="magnify"><defs/><g><!--cluster Backend Entities--><g id="cluster_Backend Entities"><path d="M365.5,118 L482.5,118 A3.75,3.75 0 0 1 485,120.5 L492,140.7999 L2905.5,140.7999 A2.5,2.5 0 0 1 2908,143.2999 L2908,750.1 A2.5,2.5 0 0 1 2905.5,752.6 L365.5,752.6 A2.5,2.5 0 0 1 363,750.1 L363,120.5 A2.5,2.5 0 0 1 365.5,118 " fill="none" style="stroke:#000000;stroke-width:1.5;"/><line style="stroke:#000000;stroke-width:1.5;" x1="363" x2="492" y1="140.7999" y2="140.7999"/><text fill="#000000" font-family="sans-serif" font-size="14" font-weight="bold" lengthAdjust="spacing" textLength="116" x="367" y="133.0059">Backend Entities</text></g><!--cluster Utilities--><g id="cluster_Utilities"><path d="M8.5,143.2 L61.5,143.2 A3.75,3.75 0 0 1 64,145.7 L71,165.9999 L336.5,165.9999 A2.5,2.5 0 0 1 339,168.4999 L339,290.1 A2.5,2.5 0 0 1 336.5,292.6 L8.5,292.6 A2.5,2.5 0 0 1 6,290.1 L6,145.7 A2.5,2.5 0 0 1 8.5,143.2 " fill="none" style="stroke:#000000;stroke-width:1.5;"/><line style="stroke:#000000;stroke-width:1.5;" x1="6" x2="71" y1="165.9999" y2="165.9999"/><text fill="#000000" font-family="sans-serif" font-size="14" font-weight="bold" lengthAdjust="spacing" textLength="52" x="10" y="158.2059">Utilities</text></g><!--class UserCreationInfo--><g id="elem_UserCreationInfo"><rect codeLine="4" fill="#F1F1F1" height="148.7996" id="UserCreationInfo" rx="2.5" ry="2.5" style="stroke:#181818;stroke-width:0.5;" width="239" x="763.5" y="153"/><ellipse cx="824.75" cy="169" fill="#ADD1B2" rx="11" ry="11" style="stroke:#181818;stroke-width:1.0;"/><path d="M819.75,170.1563 C819.75,172.6563 821.8906,174.4688 824.8125,174.4688 C826.0469,174.4688 827.2188,174.1719 827.9688,173.6563 C828.5781,173.2344 828.9063,172.8125 828.9063,172.4063 C828.9063,171.9375 828.4844,171.5313 827.9844,171.5313 C827.75,171.5313 827.5313,171.6094 827.3281,171.8125 C826.8906,172.25 826.8906,172.25 826.7188,172.3438 C826.2656,172.5781 825.625,172.7188 824.8594,172.7188 C822.8594,172.7188 821.5781,171.7031 821.5781,170.125 L821.5781,169.0781 C821.5781,167.375 822.7969,166.1719 824.5,166.1719 C825.0781,166.1719 825.6563,166.3125 826.125,166.5625 C826.5938,166.8281 826.7656,167.0156 826.8281,167.375 C826.9531,168.0469 827.2031,168.2969 827.7344,168.2969 C828.0156,168.2969 828.2969,168.1563 828.4844,167.9375 C828.6094,167.7656 828.6563,167.5938 828.6563,167.1563 L828.6563,165.7969 C828.6563,165.375 828.6406,165.2344 828.5156,165.0625 C828.3438,164.8125 828.0625,164.6563 827.7344,164.6563 C827.4219,164.6563 827.2188,164.7656 827,165.0313 C825.8281,164.5313 825.3906,164.4219 824.4375,164.4219 C821.7656,164.4219 819.75,166.4375 819.75,169.0625 L819.75,170.1563 Z " fill="#000000"/><text fill="#000000" font-family="sans-serif" font-size="14" lengthAdjust="spacing" textLength="108" x="845.25" y="173.606">UserCreationInfo</text><line style="stroke:#181818;stroke-width:0.5;" x1="764.5" x2="1001.5" y1="185" y2="185"/><ellipse cx="774.5" cy="198.9" fill="none" rx="3" ry="3" style="stroke:#038048;stroke-width:1.0;"/><text fill="#000000" font-family="sans-serif" font-size="14" lengthAdjust="spacing" textLength="92" x="783.5" y="202.0059">nombre: string</text><ellipse cx="774.5" cy="215.6999" fill="none" rx="3" ry="3" style="stroke:#038048;stroke-width:1.0;"/><text fill="#000000" font-family="sans-serif" font-size="14" lengthAdjust="spacing" textLength="114" x="783.5" y="218.8059">contrasena: string</text><ellipse cx="774.5" cy="232.4998" fill="none" rx="3" ry="3" style="stroke:#038048;stroke-width:1.0;"/><text fill="#000000" font-family="sans-serif" font-size="14" lengthAdjust="spacing" textLength="84" x="783.5" y="235.6058">correo: string</text><ellipse cx="774.5" cy="249.2997" fill="none" rx="3" ry="3" style="stroke:#038048;stroke-width:1.0;"/><text fill="#000000" font-family="sans-serif" font-size="14" lengthAdjust="spacing" textLength="108" x="783.5" y="252.4057">telefono: number</text><ellipse cx="774.5" cy="266.0997" fill="none" rx="3" ry="3" style="stroke:#038048;stroke-width:1.0;"/><text fill="#000000" font-family="sans-serif" font-size="14" lengthAdjust="spacing" textLength="125" x="783.5" y="269.2057">identificacion: string</text><ellipse cx="774.5" cy="282.8996" fill="none" rx="3" ry="3" style="stroke:#038048;stroke-width:1.0;"/><text fill="#000000" font-family="sans-serif" font-size="14" lengthAdjust="spacing" textLength="213" x="783.5" y="286.0056">nombre_tipo_identificacion: string</text><line style="stroke:#181818;stroke-width:0.5;" x1="764.5" x2="1001.5" y1="293.7996" y2="293.7996"/></g><!--class LogInInfo--><g id="elem_LogInInfo"><rect codeLine="13" fill="#F1F1F1" height="81.5999" id="LogInInfo" rx="2.5" ry="2.5" style="stroke:#181818;stroke-width:0.5;" width="151" x="378.5" y="186.6"/><ellipse cx="420.05" cy="202.6" fill="#ADD1B2" rx="11" ry="11" style="stroke:#181818;stroke-width:1.0;"/><path d="M415.05,203.7563 C415.05,206.2563 417.1906,208.0688 420.1125,208.0688 C421.3469,208.0688 422.5188,207.7719 423.2688,207.2563 C423.8781,206.8344 424.2063,206.4125 424.2063,206.0063 C424.2063,205.5375 423.7844,205.1313 423.2844,205.1313 C423.05,205.1313 422.8313,205.2094 422.6281,205.4125 C422.1906,205.85 422.1906,205.85 422.0188,205.9438 C421.5656,206.1781 420.925,206.3188 420.1594,206.3188 C418.1594,206.3188 416.8781,205.3031 416.8781,203.725 L416.8781,202.6781 C416.8781,200.975 418.0969,199.7719 419.8,199.7719 C420.3781,199.7719 420.9563,199.9125 421.425,200.1625 C421.8938,200.4281 422.0656,200.6156 422.1281,200.975 C422.2531,201.6469 422.5031,201.8969 423.0344,201.8969 C423.3156,201.8969 423.5969,201.7563 423.7844,201.5375 C423.9094,201.3656 423.9563,201.1938 423.9563,200.7563 L423.9563,199.3969 C423.9563,198.975 423.9406,198.8344 423.8156,198.6625 C423.6438,198.4125 423.3625,198.2563 423.0344,198.2563 C422.7219,198.2563 422.5188,198.3656 422.3,198.6313 C421.1281,198.1313 420.6906,198.0219 419.7375,198.0219 C417.0656,198.0219 415.05,200.0375 415.05,202.6625 L415.05,203.7563 Z " fill="#000000"/><text fill="#000000" font-family="sans-serif" font-size="14" lengthAdjust="spacing" textLength="60" x="439.95" y="207.206">LogInInfo</text><line style="stroke:#181818;stroke-width:0.5;" x1="379.5" x2="528.5" y1="218.6" y2="218.6"/><ellipse cx="389.5" cy="232.5" fill="none" rx="3" ry="3" style="stroke:#038048;stroke-width:1.0;"/><text fill="#000000" font-family="sans-serif" font-size="14" lengthAdjust="spacing" textLength="125" x="398.5" y="235.6059">identificacion: string</text><ellipse cx="389.5" cy="249.2999" fill="none" rx="3" ry="3" style="stroke:#038048;stroke-width:1.0;"/><text fill="#000000" font-family="sans-serif" font-size="14" lengthAdjust="spacing" textLength="114" x="398.5" y="252.4059">contrasena: string</text><line style="stroke:#181818;stroke-width:0.5;" x1="379.5" x2="528.5" y1="260.1999" y2="260.1999"/></g><!--class UserInfo--><g id="elem_UserInfo"><rect codeLine="18" fill="#F1F1F1" height="165.5995" id="UserInfo" rx="2.5" ry="2.5" style="stroke:#181818;stroke-width:0.5;" width="239" x="2379.5" y="387.2"/><ellipse cx="2467.75" cy="403.2" fill="#ADD1B2" rx="11" ry="11" style="stroke:#181818;stroke-width:1.0;"/><path d="M2462.75,404.3563 C2462.75,406.8563 2464.8906,408.6688 2467.8125,408.6688 C2469.0469,408.6688 2470.2188,408.3719 2470.9688,407.8563 C2471.5781,407.4344 2471.9063,407.0125 2471.9063,406.6063 C2471.9063,406.1375 2471.4844,405.7313 2470.9844,405.7313 C2470.75,405.7313 2470.5313,405.8094 2470.3281,406.0125 C2469.8906,406.45 2469.8906,406.45 2469.7188,406.5438 C2469.2656,406.7781 2468.625,406.9188 2467.8594,406.9188 C2465.8594,406.9188 2464.5781,405.9031 2464.5781,404.325 L2464.5781,403.2781 C2464.5781,401.575 2465.7969,400.3719 2467.5,400.3719 C2468.0781,400.3719 2468.6563,400.5125 2469.125,400.7625 C2469.5938,401.0281 2469.7656,401.2156 2469.8281,401.575 C2469.9531,402.2469 2470.2031,402.4969 2470.7344,402.4969 C2471.0156,402.4969 2471.2969,402.3563 2471.4844,402.1375 C2471.6094,401.9656 2471.6563,401.7938 2471.6563,401.3563 L2471.6563,399.9969 C2471.6563,399.575 2471.6406,399.4344 2471.5156,399.2625 C2471.3438,399.0125 2471.0625,398.8563 2470.7344,398.8563 C2470.4219,398.8563 2470.2188,398.9656 2470,399.2313 C2468.8281,398.7313 2468.3906,398.6219 2467.4375,398.6219 C2464.7656,398.6219 2462.75,400.6375 2462.75,403.2625 L2462.75,404.3563 Z " fill="#000000"/><text fill="#000000" font-family="sans-serif" font-size="14" lengthAdjust="spacing" textLength="54" x="2488.25" y="407.806">UserInfo</text><line style="stroke:#181818;stroke-width:0.5;" x1="2380.5" x2="2617.5" y1="419.2" y2="419.2"/><ellipse cx="2390.5" cy="433.1" fill="none" rx="3" ry="3" style="stroke:#038048;stroke-width:1.0;"/><text fill="#000000" font-family="sans-serif" font-size="14" lengthAdjust="spacing" textLength="114" x="2399.5" y="436.2059">id_persona: string</text><ellipse cx="2390.5" cy="449.8999" fill="none" rx="3" ry="3" style="stroke:#038048;stroke-width:1.0;"/><text fill="#000000" font-family="sans-serif" font-size="14" lengthAdjust="spacing" textLength="92" x="2399.5" y="453.0059">nombre: string</text><ellipse cx="2390.5" cy="466.6998" fill="none" rx="3" ry="3" style="stroke:#038048;stroke-width:1.0;"/><text fill="#000000" font-family="sans-serif" font-size="14" lengthAdjust="spacing" textLength="84" x="2399.5" y="469.8058">correo: string</text><ellipse cx="2390.5" cy="483.4997" fill="none" rx="3" ry="3" style="stroke:#038048;stroke-width:1.0;"/><text fill="#000000" font-family="sans-serif" font-size="14" lengthAdjust="spacing" textLength="108" x="2399.5" y="486.6057">telefono: number</text><ellipse cx="2390.5" cy="500.2997" fill="none" rx="3" ry="3" style="stroke:#038048;stroke-width:1.0;"/><text fill="#000000" font-family="sans-serif" font-size="14" lengthAdjust="spacing" textLength="125" x="2399.5" y="503.4057">identificacion: string</text><ellipse cx="2390.5" cy="517.0996" fill="none" rx="3" ry="3" style="stroke:#038048;stroke-width:1.0;"/><text fill="#000000" font-family="sans-serif" font-size="14" lengthAdjust="spacing" textLength="213" x="2399.5" y="520.2056">nombre_tipo_identificacion: string</text><ellipse cx="2390.5" cy="533.8995" fill="none" rx="3" ry="3" style="stroke:#038048;stroke-width:1.0;"/><text fill="#000000" font-family="sans-serif" font-size="14" lengthAdjust="spacing" textLength="132" x="2399.5" y="537.0055">nombre_rol: UserRol</text><line style="stroke:#181818;stroke-width:0.5;" x1="2380.5" x2="2617.5" y1="544.7995" y2="544.7995"/></g><!--class UserSelectionInfo--><g id="elem_UserSelectionInfo"><rect codeLine="28" fill="#F1F1F1" height="182.3994" id="UserSelectionInfo" rx="2.5" ry="2.5" style="stroke:#181818;stroke-width:0.5;" width="239" x="2653.5" y="378.8"/><ellipse cx="2712.75" cy="394.8" fill="#ADD1B2" rx="11" ry="11" style="stroke:#181818;stroke-width:1.0;"/><path d="M2707.75,395.9563 C2707.75,398.4563 2709.8906,400.2688 2712.8125,400.2688 C2714.0469,400.2688 2715.2188,399.9719 2715.9688,399.4563 C2716.5781,399.0344 2716.9063,398.6125 2716.9063,398.2063 C2716.9063,397.7375 2716.4844,397.3313 2715.9844,397.3313 C2715.75,397.3313 2715.5313,397.4094 2715.3281,397.6125 C2714.8906,398.05 2714.8906,398.05 2714.7188,398.1438 C2714.2656,398.3781 2713.625,398.5188 2712.8594,398.5188 C2710.8594,398.5188 2709.5781,397.5031 2709.5781,395.925 L2709.5781,394.8781 C2709.5781,393.175 2710.7969,391.9719 2712.5,391.9719 C2713.0781,391.9719 2713.6563,392.1125 2714.125,392.3625 C2714.5938,392.6281 2714.7656,392.8156 2714.8281,393.175 C2714.9531,393.8469 2715.2031,394.0969 2715.7344,394.0969 C2716.0156,394.0969 2716.2969,393.9563 2716.4844,393.7375 C2716.6094,393.5656 2716.6563,393.3938 2716.6563,392.9563 L2716.6563,391.5969 C2716.6563,391.175 2716.6406,391.0344 2716.5156,390.8625 C2716.3438,390.6125 2716.0625,390.4563 2715.7344,390.4563 C2715.4219,390.4563 2715.2188,390.5656 2715,390.8313 C2713.8281,390.3313 2713.3906,390.2219 2712.4375,390.2219 C2709.7656,390.2219 2707.75,392.2375 2707.75,394.8625 L2707.75,395.9563 Z " fill="#000000"/><text fill="#000000" font-family="sans-serif" font-size="14" lengthAdjust="spacing" textLength="112" x="2733.25" y="399.406">UserSelectionInfo</text><line style="stroke:#181818;stroke-width:0.5;" x1="2654.5" x2="2891.5" y1="410.8" y2="410.8"/><ellipse cx="2664.5" cy="424.7" fill="none" rx="3" ry="3" style="stroke:#038048;stroke-width:1.0;"/><text fill="#000000" font-family="sans-serif" font-size="14" lengthAdjust="spacing" textLength="114" x="2673.5" y="427.8059">id_persona: string</text><ellipse cx="2664.5" cy="441.4999" fill="none" rx="3" ry="3" style="stroke:#038048;stroke-width:1.0;"/><text fill="#000000" font-family="sans-serif" font-size="14" lengthAdjust="spacing" textLength="92" x="2673.5" y="444.6059">nombre: string</text><ellipse cx="2664.5" cy="458.2998" fill="none" rx="3" ry="3" style="stroke:#038048;stroke-width:1.0;"/><text fill="#000000" font-family="sans-serif" font-size="14" lengthAdjust="spacing" textLength="84" x="2673.5" y="461.4058">correo: string</text><ellipse cx="2664.5" cy="475.0997" fill="none" rx="3" ry="3" style="stroke:#038048;stroke-width:1.0;"/><text fill="#000000" font-family="sans-serif" font-size="14" lengthAdjust="spacing" textLength="108" x="2673.5" y="478.2057">telefono: number</text><ellipse cx="2664.5" cy="491.8997" fill="none" rx="3" ry="3" style="stroke:#038048;stroke-width:1.0;"/><text fill="#000000" font-family="sans-serif" font-size="14" lengthAdjust="spacing" textLength="125" x="2673.5" y="495.0057">identificacion: string</text><ellipse cx="2664.5" cy="508.6996" fill="none" rx="3" ry="3" style="stroke:#038048;stroke-width:1.0;"/><text fill="#000000" font-family="sans-serif" font-size="14" lengthAdjust="spacing" textLength="213" x="2673.5" y="511.8056">nombre_tipo_identificacion: string</text><ellipse cx="2664.5" cy="525.4995" fill="none" rx="3" ry="3" style="stroke:#038048;stroke-width:1.0;"/><text fill="#000000" font-family="sans-serif" font-size="14" lengthAdjust="spacing" textLength="132" x="2673.5" y="528.6055">nombre_rol: UserRol</text><ellipse cx="2664.5" cy="542.2995" fill="none" rx="3" ry="3" style="stroke:#038048;stroke-width:1.0;"/><text fill="#000000" font-family="sans-serif" font-size="14" lengthAdjust="spacing" textLength="162" x="2673.5" y="545.4054">matricula_valida: boolean</text><line style="stroke:#181818;stroke-width:0.5;" x1="2654.5" x2="2891.5" y1="553.1994" y2="553.1994"/></g><!--class UserUpdationInfo--><g id="elem_UserUpdationInfo"><rect codeLine="39" fill="#F1F1F1" height="131.9996" id="UserUpdationInfo" rx="2.5" ry="2.5" style="stroke:#181818;stroke-width:0.5;" width="239" x="1035.5" y="404"/><ellipse cx="1095.25" cy="420" fill="#ADD1B2" rx="11" ry="11" style="stroke:#181818;stroke-width:1.0;"/><path d="M1090.25,421.1563 C1090.25,423.6563 1092.3906,425.4688 1095.3125,425.4688 C1096.5469,425.4688 1097.7188,425.1719 1098.4688,424.6563 C1099.0781,424.2344 1099.4063,423.8125 1099.4063,423.4063 C1099.4063,422.9375 1098.9844,422.5313 1098.4844,422.5313 C1098.25,422.5313 1098.0313,422.6094 1097.8281,422.8125 C1097.3906,423.25 1097.3906,423.25 1097.2188,423.3438 C1096.7656,423.5781 1096.125,423.7188 1095.3594,423.7188 C1093.3594,423.7188 1092.0781,422.7031 1092.0781,421.125 L1092.0781,420.0781 C1092.0781,418.375 1093.2969,417.1719 1095,417.1719 C1095.5781,417.1719 1096.1563,417.3125 1096.625,417.5625 C1097.0938,417.8281 1097.2656,418.0156 1097.3281,418.375 C1097.4531,419.0469 1097.7031,419.2969 1098.2344,419.2969 C1098.5156,419.2969 1098.7969,419.1563 1098.9844,418.9375 C1099.1094,418.7656 1099.1563,418.5938 1099.1563,418.1563 L1099.1563,416.7969 C1099.1563,416.375 1099.1406,416.2344 1099.0156,416.0625 C1098.8438,415.8125 1098.5625,415.6563 1098.2344,415.6563 C1097.9219,415.6563 1097.7188,415.7656 1097.5,416.0313 C1096.3281,415.5313 1095.8906,415.4219 1094.9375,415.4219 C1092.2656,415.4219 1090.25,417.4375 1090.25,420.0625 L1090.25,421.1563 Z " fill="#000000"/><text fill="#000000" font-family="sans-serif" font-size="14" lengthAdjust="spacing" textLength="111" x="1115.75" y="424.606">UserUpdationInfo</text><line style="stroke:#181818;stroke-width:0.5;" x1="1036.5" x2="1273.5" y1="436" y2="436"/><ellipse cx="1046.5" cy="449.9" fill="none" rx="3" ry="3" style="stroke:#038048;stroke-width:1.0;"/><text fill="#000000" font-family="sans-serif" font-size="14" lengthAdjust="spacing" textLength="92" x="1055.5" y="453.0059">nombre: string</text><ellipse cx="1046.5" cy="466.6999" fill="none" rx="3" ry="3" style="stroke:#038048;stroke-width:1.0;"/><text fill="#000000" font-family="sans-serif" font-size="14" lengthAdjust="spacing" textLength="84" x="1055.5" y="469.8059">correo: string</text><ellipse cx="1046.5" cy="483.4998" fill="none" rx="3" ry="3" style="stroke:#038048;stroke-width:1.0;"/><text fill="#000000" font-family="sans-serif" font-size="14" lengthAdjust="spacing" textLength="108" x="1055.5" y="486.6058">telefono: number</text><ellipse cx="1046.5" cy="500.2997" fill="none" rx="3" ry="3" style="stroke:#038048;stroke-width:1.0;"/><text fill="#000000" font-family="sans-serif" font-size="14" lengthAdjust="spacing" textLength="125" x="1055.5" y="503.4057">identificacion: string</text><ellipse cx="1046.5" cy="517.0997" fill="none" rx="3" ry="3" style="stroke:#038048;stroke-width:1.0;"/><text fill="#000000" font-family="sans-serif" font-size="14" lengthAdjust="spacing" textLength="213" x="1055.5" y="520.2057">nombre_tipo_identificacion: string</text><line style="stroke:#181818;stroke-width:0.5;" x1="1036.5" x2="1273.5" y1="527.9996" y2="527.9996"/></g><!--class UserRol--><g id="elem_UserRol"><rect codeLine="47" fill="#F1F1F1" height="98.3998" id="UserRol" rx="2.5" ry="2.5" style="stroke:#181818;stroke-width:0.5;" width="83" x="2731.5" y="638.2"/><ellipse cx="2746.5" cy="654.2" fill="#EB937F" rx="11" ry="11" style="stroke:#181818;stroke-width:1.0;"/><path d="M2745.3594,655.2625 L2746.6719,655.2625 L2746.6719,655.3094 C2746.6719,655.7156 2746.6875,655.8719 2746.7969,656.0281 C2746.9688,656.2781 2747.2656,656.45 2747.5781,656.45 C2747.8594,656.45 2748.1563,656.3094 2748.3281,656.0906 C2748.4531,655.9031 2748.5,655.7625 2748.5,655.3094 L2748.5,653.4656 C2748.5,653.1375 2748.4844,653.0281 2748.4219,652.8563 C2748.3125,652.5594 2747.9531,652.3094 2747.5781,652.3094 C2747.2813,652.3094 2747.0156,652.45 2746.8438,652.6688 C2746.7031,652.8563 2746.6719,653.0281 2746.6719,653.4656 L2746.6719,653.5281 L2745.3594,653.5281 L2745.3594,651.3563 L2749.2031,651.3563 L2749.2031,652.1063 C2749.2031,652.4969 2749.2344,652.6844 2749.3438,652.8406 C2749.5156,653.0906 2749.8125,653.2625 2750.125,653.2625 C2750.4219,653.2625 2750.6875,653.1375 2750.875,652.9031 C2751.0156,652.7156 2751.0469,652.575 2751.0469,652.1063 L2751.0469,649.6063 L2743.3438,649.6063 C2742.8906,649.6063 2742.7656,649.6219 2742.5938,649.7313 C2742.3281,649.9031 2742.1563,650.1688 2742.1563,650.4813 C2742.1563,650.7625 2742.2813,651.0281 2742.5313,651.2 C2742.7188,651.325 2742.9063,651.3563 2743.3438,651.3563 L2743.5313,651.3563 L2743.5313,657.45 L2743.3438,657.45 C2742.9219,657.45 2742.7656,657.4813 2742.5938,657.575 C2742.3281,657.7313 2742.1563,658.0125 2742.1563,658.3094 C2742.1563,658.8875 2742.5625,659.2 2743.3438,659.2 L2751.4219,659.2 L2751.4219,656.6688 C2751.4219,656.2625 2751.3906,656.0906 2751.2813,655.9344 C2751.1094,655.6688 2750.8281,655.5125 2750.5,655.5125 C2750.2188,655.5125 2749.9375,655.6531 2749.75,655.8719 C2749.6094,656.0594 2749.5781,656.2156 2749.5781,656.6688 L2749.5781,657.45 L2745.3594,657.45 L2745.3594,655.2625 Z " fill="#000000"/><text fill="#000000" font-family="sans-serif" font-size="14" lengthAdjust="spacing" textLength="51" x="2760.5" y="658.806">UserRol</text><line style="stroke:#181818;stroke-width:0.5;" x1="2732.5" x2="2813.5" y1="670.2" y2="670.2"/><text fill="#000000" font-family="sans-serif" font-size="14" lengthAdjust="spacing" textLength="49" x="2737.5" y="687.2059">Usuario</text><text fill="#000000" font-family="sans-serif" font-size="14" lengthAdjust="spacing" textLength="40" x="2737.5" y="704.0059">Admin</text><text fill="#000000" font-family="sans-serif" font-size="14" lengthAdjust="spacing" textLength="71" x="2737.5" y="720.8058">Entrenador</text><line style="stroke:#181818;stroke-width:0.5;" x1="2732.5" x2="2813.5" y1="728.5998" y2="728.5998"/></g><!--class Tournament--><g id="elem_Tournament"><rect codeLine="54" fill="#F1F1F1" height="81.5999" id="Tournament" rx="2.5" ry="2.5" style="stroke:#181818;stroke-width:0.5;" width="129" x="1962.5" y="429.2"/><ellipse cx="1986.05" cy="445.2" fill="#ADD1B2" rx="11" ry="11" style="stroke:#181818;stroke-width:1.0;"/><path d="M1981.05,446.3563 C1981.05,448.8563 1983.1906,450.6688 1986.1125,450.6688 C1987.3469,450.6688 1988.5188,450.3719 1989.2688,449.8563 C1989.8781,449.4344 1990.2063,449.0125 1990.2063,448.6063 C1990.2063,448.1375 1989.7844,447.7313 1989.2844,447.7313 C1989.05,447.7313 1988.8313,447.8094 1988.6281,448.0125 C1988.1906,448.45 1988.1906,448.45 1988.0188,448.5438 C1987.5656,448.7781 1986.925,448.9188 1986.1594,448.9188 C1984.1594,448.9188 1982.8781,447.9031 1982.8781,446.325 L1982.8781,445.2781 C1982.8781,443.575 1984.0969,442.3719 1985.8,442.3719 C1986.3781,442.3719 1986.9563,442.5125 1987.425,442.7625 C1987.8938,443.0281 1988.0656,443.2156 1988.1281,443.575 C1988.2531,444.2469 1988.5031,444.4969 1989.0344,444.4969 C1989.3156,444.4969 1989.5969,444.3563 1989.7844,444.1375 C1989.9094,443.9656 1989.9563,443.7938 1989.9563,443.3563 L1989.9563,441.9969 C1989.9563,441.575 1989.9406,441.4344 1989.8156,441.2625 C1989.6438,441.0125 1989.3625,440.8563 1989.0344,440.8563 C1988.7219,440.8563 1988.5188,440.9656 1988.3,441.2313 C1987.1281,440.7313 1986.6906,440.6219 1985.7375,440.6219 C1983.0656,440.6219 1981.05,442.6375 1981.05,445.2625 L1981.05,446.3563 Z " fill="#000000"/><text fill="#000000" font-family="sans-serif" font-size="14" lengthAdjust="spacing" textLength="78" x="2001.95" y="449.806">Tournament</text><line style="stroke:#181818;stroke-width:0.5;" x1="1963.5" x2="2090.5" y1="461.2" y2="461.2"/><ellipse cx="1973.5" cy="475.1" fill="none" rx="3" ry="3" style="stroke:#038048;stroke-width:1.0;"/><text fill="#000000" font-family="sans-serif" font-size="14" lengthAdjust="spacing" textLength="103" x="1982.5" y="478.2059">id_torneo: string</text><ellipse cx="1973.5" cy="491.8999" fill="none" rx="3" ry="3" style="stroke:#038048;stroke-width:1.0;"/><text fill="#000000" font-family="sans-serif" font-size="14" lengthAdjust="spacing" textLength="92" x="1982.5" y="495.0059">nombre: string</text><line style="stroke:#181818;stroke-width:0.5;" x1="1963.5" x2="2090.5" y1="502.7999" y2="502.7999"/></g><!--class UserTournamentInfo--><g id="elem_UserTournamentInfo"><rect codeLine="59" fill="#F1F1F1" height="98.3998" id="UserTournamentInfo" rx="2.5" ry="2.5" style="stroke:#181818;stroke-width:0.5;" width="164" x="565" y="178.2"/><ellipse cx="580" cy="194.2" fill="#ADD1B2" rx="11" ry="11" style="stroke:#181818;stroke-width:1.0;"/><path d="M575,195.3563 C575,197.8563 577.1406,199.6688 580.0625,199.6688 C581.2969,199.6688 582.4688,199.3719 583.2188,198.8563 C583.8281,198.4344 584.1563,198.0125 584.1563,197.6063 C584.1563,197.1375 583.7344,196.7313 583.2344,196.7313 C583,196.7313 582.7813,196.8094 582.5781,197.0125 C582.1406,197.45 582.1406,197.45 581.9688,197.5438 C581.5156,197.7781 580.875,197.9188 580.1094,197.9188 C578.1094,197.9188 576.8281,196.9031 576.8281,195.325 L576.8281,194.2781 C576.8281,192.575 578.0469,191.3719 579.75,191.3719 C580.3281,191.3719 580.9063,191.5125 581.375,191.7625 C581.8438,192.0281 582.0156,192.2156 582.0781,192.575 C582.2031,193.2469 582.4531,193.4969 582.9844,193.4969 C583.2656,193.4969 583.5469,193.3563 583.7344,193.1375 C583.8594,192.9656 583.9063,192.7938 583.9063,192.3563 L583.9063,190.9969 C583.9063,190.575 583.8906,190.4344 583.7656,190.2625 C583.5938,190.0125 583.3125,189.8563 582.9844,189.8563 C582.6719,189.8563 582.4688,189.9656 582.25,190.2313 C581.0781,189.7313 580.6406,189.6219 579.6875,189.6219 C577.0156,189.6219 575,191.6375 575,194.2625 L575,195.3563 Z " fill="#000000"/><text fill="#000000" font-family="sans-serif" font-size="14" lengthAdjust="spacing" textLength="132" x="594" y="198.806">UserTournamentInfo</text><line style="stroke:#181818;stroke-width:0.5;" x1="566" x2="728" y1="210.2" y2="210.2"/><ellipse cx="576" cy="224.1" fill="none" rx="3" ry="3" style="stroke:#038048;stroke-width:1.0;"/><text fill="#000000" font-family="sans-serif" font-size="14" lengthAdjust="spacing" textLength="103" x="585" y="227.2059">id_torneo: string</text><ellipse cx="576" cy="240.8999" fill="none" rx="3" ry="3" style="stroke:#038048;stroke-width:1.0;"/><text fill="#000000" font-family="sans-serif" font-size="14" lengthAdjust="spacing" textLength="92" x="585" y="244.0059">nombre: string</text><ellipse cx="576" cy="257.6998" fill="none" rx="3" ry="3" style="stroke:#038048;stroke-width:1.0;"/><text fill="#000000" font-family="sans-serif" font-size="14" lengthAdjust="spacing" textLength="100" x="585" y="260.8058">puesto: number</text><line style="stroke:#181818;stroke-width:0.5;" x1="566" x2="728" y1="268.5998" y2="268.5998"/></g><!--class UserTournamentRegistration--><g id="elem_UserTournamentRegistration"><rect codeLine="65" fill="#F1F1F1" height="115.1997" id="UserTournamentRegistration" rx="2.5" ry="2.5" style="stroke:#181818;stroke-width:0.5;" width="216" x="2051" y="169.8"/><ellipse cx="2066" cy="185.8" fill="#ADD1B2" rx="11" ry="11" style="stroke:#181818;stroke-width:1.0;"/><path d="M2061,186.9563 C2061,189.4563 2063.1406,191.2688 2066.0625,191.2688 C2067.2969,191.2688 2068.4688,190.9719 2069.2188,190.4563 C2069.8281,190.0344 2070.1563,189.6125 2070.1563,189.2063 C2070.1563,188.7375 2069.7344,188.3313 2069.2344,188.3313 C2069,188.3313 2068.7813,188.4094 2068.5781,188.6125 C2068.1406,189.05 2068.1406,189.05 2067.9688,189.1438 C2067.5156,189.3781 2066.875,189.5188 2066.1094,189.5188 C2064.1094,189.5188 2062.8281,188.5031 2062.8281,186.925 L2062.8281,185.8781 C2062.8281,184.175 2064.0469,182.9719 2065.75,182.9719 C2066.3281,182.9719 2066.9063,183.1125 2067.375,183.3625 C2067.8438,183.6281 2068.0156,183.8156 2068.0781,184.175 C2068.2031,184.8469 2068.4531,185.0969 2068.9844,185.0969 C2069.2656,185.0969 2069.5469,184.9563 2069.7344,184.7375 C2069.8594,184.5656 2069.9063,184.3938 2069.9063,183.9563 L2069.9063,182.5969 C2069.9063,182.175 2069.8906,182.0344 2069.7656,181.8625 C2069.5938,181.6125 2069.3125,181.4563 2068.9844,181.4563 C2068.6719,181.4563 2068.4688,181.5656 2068.25,181.8313 C2067.0781,181.3313 2066.6406,181.2219 2065.6875,181.2219 C2063.0156,181.2219 2061,183.2375 2061,185.8625 L2061,186.9563 Z " fill="#000000"/><text fill="#000000" font-family="sans-serif" font-size="14" lengthAdjust="spacing" textLength="184" x="2080" y="190.406">UserTournamentRegistration</text><line style="stroke:#181818;stroke-width:0.5;" x1="2052" x2="2266" y1="201.8" y2="201.8"/><ellipse cx="2062" cy="215.7" fill="none" rx="3" ry="3" style="stroke:#038048;stroke-width:1.0;"/><text fill="#000000" font-family="sans-serif" font-size="14" lengthAdjust="spacing" textLength="92" x="2071" y="218.8059">nombre: string</text><ellipse cx="2062" cy="232.4999" fill="none" rx="3" ry="3" style="stroke:#038048;stroke-width:1.0;"/><text fill="#000000" font-family="sans-serif" font-size="14" lengthAdjust="spacing" textLength="114" x="2071" y="235.6059">id_persona: string</text><ellipse cx="2062" cy="249.2998" fill="none" rx="3" ry="3" style="stroke:#038048;stroke-width:1.0;"/><text fill="#000000" font-family="sans-serif" font-size="14" lengthAdjust="spacing" textLength="103" x="2071" y="252.4058">id_torneo: string</text><ellipse cx="2062" cy="266.0997" fill="none" rx="3" ry="3" style="stroke:#038048;stroke-width:1.0;"/><text fill="#000000" font-family="sans-serif" font-size="14" lengthAdjust="spacing" textLength="100" x="2071" y="269.2057">puesto: number</text><line style="stroke:#181818;stroke-width:0.5;" x1="2052" x2="2266" y1="276.9997" y2="276.9997"/></g><!--class Training--><g id="elem_Training"><rect codeLine="73" fill="#F1F1F1" height="98.3998" id="Training" rx="2.5" ry="2.5" style="stroke:#181818;stroke-width:0.5;" width="218" x="2127" y="420.8"/><ellipse cx="2205.75" cy="436.8" fill="#ADD1B2" rx="11" ry="11" style="stroke:#181818;stroke-width:1.0;"/><path d="M2200.75,437.9563 C2200.75,440.4563 2202.8906,442.2688 2205.8125,442.2688 C2207.0469,442.2688 2208.2188,441.9719 2208.9688,441.4563 C2209.5781,441.0344 2209.9063,440.6125 2209.9063,440.2063 C2209.9063,439.7375 2209.4844,439.3313 2208.9844,439.3313 C2208.75,439.3313 2208.5313,439.4094 2208.3281,439.6125 C2207.8906,440.05 2207.8906,440.05 2207.7188,440.1438 C2207.2656,440.3781 2206.625,440.5188 2205.8594,440.5188 C2203.8594,440.5188 2202.5781,439.5031 2202.5781,437.925 L2202.5781,436.8781 C2202.5781,435.175 2203.7969,433.9719 2205.5,433.9719 C2206.0781,433.9719 2206.6563,434.1125 2207.125,434.3625 C2207.5938,434.6281 2207.7656,434.8156 2207.8281,435.175 C2207.9531,435.8469 2208.2031,436.0969 2208.7344,436.0969 C2209.0156,436.0969 2209.2969,435.9563 2209.4844,435.7375 C2209.6094,435.5656 2209.6563,435.3938 2209.6563,434.9563 L2209.6563,433.5969 C2209.6563,433.175 2209.6406,433.0344 2209.5156,432.8625 C2209.3438,432.6125 2209.0625,432.4563 2208.7344,432.4563 C2208.4219,432.4563 2208.2188,432.5656 2208,432.8313 C2206.8281,432.3313 2206.3906,432.2219 2205.4375,432.2219 C2202.7656,432.2219 2200.75,434.2375 2200.75,436.8625 L2200.75,437.9563 Z " fill="#000000"/><text fill="#000000" font-family="sans-serif" font-size="14" lengthAdjust="spacing" textLength="52" x="2226.25" y="441.406">Training</text><line style="stroke:#181818;stroke-width:0.5;" x1="2128" x2="2344" y1="452.8" y2="452.8"/><ellipse cx="2138" cy="466.7" fill="none" rx="3" ry="3" style="stroke:#038048;stroke-width:1.0;"/><text fill="#000000" font-family="sans-serif" font-size="14" lengthAdjust="spacing" textLength="154" x="2147" y="469.8059">id_entrenamiento: string</text><ellipse cx="2138" cy="483.4999" fill="none" rx="3" ry="3" style="stroke:#038048;stroke-width:1.0;"/><text fill="#000000" font-family="sans-serif" font-size="14" lengthAdjust="spacing" textLength="158" x="2147" y="486.6059">tiempo_minutos: number</text><ellipse cx="2138" cy="500.2998" fill="none" rx="3" ry="3" style="stroke:#038048;stroke-width:1.0;"/><text fill="#000000" font-family="sans-serif" font-size="14" lengthAdjust="spacing" textLength="192" x="2147" y="503.4058">nombre_entrenamiento: string</text><line style="stroke:#181818;stroke-width:0.5;" x1="2128" x2="2344" y1="511.1998" y2="511.1998"/></g><!--class TrainingRegistration--><g id="elem_TrainingRegistration"><rect codeLine="79" fill="#F1F1F1" height="81.5999" id="TrainingRegistration" rx="2.5" ry="2.5" style="stroke:#181818;stroke-width:0.5;" width="180" x="2302" y="186.6"/><ellipse cx="2326" cy="202.6" fill="#ADD1B2" rx="11" ry="11" style="stroke:#181818;stroke-width:1.0;"/><path d="M2321,203.7563 C2321,206.2563 2323.1406,208.0688 2326.0625,208.0688 C2327.2969,208.0688 2328.4688,207.7719 2329.2188,207.2563 C2329.8281,206.8344 2330.1563,206.4125 2330.1563,206.0063 C2330.1563,205.5375 2329.7344,205.1313 2329.2344,205.1313 C2329,205.1313 2328.7813,205.2094 2328.5781,205.4125 C2328.1406,205.85 2328.1406,205.85 2327.9688,205.9438 C2327.5156,206.1781 2326.875,206.3188 2326.1094,206.3188 C2324.1094,206.3188 2322.8281,205.3031 2322.8281,203.725 L2322.8281,202.6781 C2322.8281,200.975 2324.0469,199.7719 2325.75,199.7719 C2326.3281,199.7719 2326.9063,199.9125 2327.375,200.1625 C2327.8438,200.4281 2328.0156,200.6156 2328.0781,200.975 C2328.2031,201.6469 2328.4531,201.8969 2328.9844,201.8969 C2329.2656,201.8969 2329.5469,201.7563 2329.7344,201.5375 C2329.8594,201.3656 2329.9063,201.1938 2329.9063,200.7563 L2329.9063,199.3969 C2329.9063,198.975 2329.8906,198.8344 2329.7656,198.6625 C2329.5938,198.4125 2329.3125,198.2563 2328.9844,198.2563 C2328.6719,198.2563 2328.4688,198.3656 2328.25,198.6313 C2327.0781,198.1313 2326.6406,198.0219 2325.6875,198.0219 C2323.0156,198.0219 2321,200.0375 2321,202.6625 L2321,203.7563 Z " fill="#000000"/><text fill="#000000" font-family="sans-serif" font-size="14" lengthAdjust="spacing" textLength="128" x="2342" y="207.206">TrainingRegistration</text><line style="stroke:#181818;stroke-width:0.5;" x1="2303" x2="2481" y1="218.6" y2="218.6"/><ellipse cx="2313" cy="232.5" fill="none" rx="3" ry="3" style="stroke:#038048;stroke-width:1.0;"/><text fill="#000000" font-family="sans-serif" font-size="14" lengthAdjust="spacing" textLength="154" x="2322" y="235.6059">id_entrenamiento: string</text><ellipse cx="2313" cy="249.2999" fill="none" rx="3" ry="3" style="stroke:#038048;stroke-width:1.0;"/><text fill="#000000" font-family="sans-serif" font-size="14" lengthAdjust="spacing" textLength="114" x="2322" y="252.4059">id_persona: string</text><line style="stroke:#181818;stroke-width:0.5;" x1="2303" x2="2481" y1="260.1999" y2="260.1999"/></g><!--class TrainingInfo--><g id="elem_TrainingInfo"><rect codeLine="84" fill="#F1F1F1" height="81.5999" id="TrainingInfo" rx="2.5" ry="2.5" style="stroke:#181818;stroke-width:0.5;" width="218" x="379" y="429.2"/><ellipse cx="445.75" cy="445.2" fill="#ADD1B2" rx="11" ry="11" style="stroke:#181818;stroke-width:1.0;"/><path d="M440.75,446.3563 C440.75,448.8563 442.8906,450.6688 445.8125,450.6688 C447.0469,450.6688 448.2188,450.3719 448.9688,449.8563 C449.5781,449.4344 449.9063,449.0125 449.9063,448.6063 C449.9063,448.1375 449.4844,447.7313 448.9844,447.7313 C448.75,447.7313 448.5313,447.8094 448.3281,448.0125 C447.8906,448.45 447.8906,448.45 447.7188,448.5438 C447.2656,448.7781 446.625,448.9188 445.8594,448.9188 C443.8594,448.9188 442.5781,447.9031 442.5781,446.325 L442.5781,445.2781 C442.5781,443.575 443.7969,442.3719 445.5,442.3719 C446.0781,442.3719 446.6563,442.5125 447.125,442.7625 C447.5938,443.0281 447.7656,443.2156 447.8281,443.575 C447.9531,444.2469 448.2031,444.4969 448.7344,444.4969 C449.0156,444.4969 449.2969,444.3563 449.4844,444.1375 C449.6094,443.9656 449.6563,443.7938 449.6563,443.3563 L449.6563,441.9969 C449.6563,441.575 449.6406,441.4344 449.5156,441.2625 C449.3438,441.0125 449.0625,440.8563 448.7344,440.8563 C448.4219,440.8563 448.2188,440.9656 448,441.2313 C446.8281,440.7313 446.3906,440.6219 445.4375,440.6219 C442.7656,440.6219 440.75,442.6375 440.75,445.2625 L440.75,446.3563 Z " fill="#000000"/><text fill="#000000" font-family="sans-serif" font-size="14" lengthAdjust="spacing" textLength="76" x="466.25" y="449.806">TrainingInfo</text><line style="stroke:#181818;stroke-width:0.5;" x1="380" x2="596" y1="461.2" y2="461.2"/><ellipse cx="390" cy="475.1" fill="none" rx="3" ry="3" style="stroke:#038048;stroke-width:1.0;"/><text fill="#000000" font-family="sans-serif" font-size="14" lengthAdjust="spacing" textLength="158" x="399" y="478.2059">tiempo_minutos: number</text><ellipse cx="390" cy="491.8999" fill="none" rx="3" ry="3" style="stroke:#038048;stroke-width:1.0;"/><text fill="#000000" font-family="sans-serif" font-size="14" lengthAdjust="spacing" textLength="192" x="399" y="495.0059">nombre_entrenamiento: string</text><line style="stroke:#181818;stroke-width:0.5;" x1="380" x2="596" y1="502.7999" y2="502.7999"/></g><!--class Tuition--><g id="elem_Tuition"><rect codeLine="90" fill="#F1F1F1" height="98.3998" id="Tuition" rx="2.5" ry="2.5" style="stroke:#181818;stroke-width:0.5;" width="186" x="2517" y="178.2"/><ellipse cx="2584.25" cy="194.2" fill="#ADD1B2" rx="11" ry="11" style="stroke:#181818;stroke-width:1.0;"/><path d="M2579.25,195.3563 C2579.25,197.8563 2581.3906,199.6688 2584.3125,199.6688 C2585.5469,199.6688 2586.7188,199.3719 2587.4688,198.8563 C2588.0781,198.4344 2588.4063,198.0125 2588.4063,197.6063 C2588.4063,197.1375 2587.9844,196.7313 2587.4844,196.7313 C2587.25,196.7313 2587.0313,196.8094 2586.8281,197.0125 C2586.3906,197.45 2586.3906,197.45 2586.2188,197.5438 C2585.7656,197.7781 2585.125,197.9188 2584.3594,197.9188 C2582.3594,197.9188 2581.0781,196.9031 2581.0781,195.325 L2581.0781,194.2781 C2581.0781,192.575 2582.2969,191.3719 2584,191.3719 C2584.5781,191.3719 2585.1563,191.5125 2585.625,191.7625 C2586.0938,192.0281 2586.2656,192.2156 2586.3281,192.575 C2586.4531,193.2469 2586.7031,193.4969 2587.2344,193.4969 C2587.5156,193.4969 2587.7969,193.3563 2587.9844,193.1375 C2588.1094,192.9656 2588.1563,192.7938 2588.1563,192.3563 L2588.1563,190.9969 C2588.1563,190.575 2588.1406,190.4344 2588.0156,190.2625 C2587.8438,190.0125 2587.5625,189.8563 2587.2344,189.8563 C2586.9219,189.8563 2586.7188,189.9656 2586.5,190.2313 C2585.3281,189.7313 2584.8906,189.6219 2583.9375,189.6219 C2581.2656,189.6219 2579.25,191.6375 2579.25,194.2625 L2579.25,195.3563 Z " fill="#000000"/><text fill="#000000" font-family="sans-serif" font-size="14" lengthAdjust="spacing" textLength="43" x="2604.75" y="198.806">Tuition</text><line style="stroke:#181818;stroke-width:0.5;" x1="2518" x2="2702" y1="210.2" y2="210.2"/><ellipse cx="2528" cy="224.1" fill="none" rx="3" ry="3" style="stroke:#038048;stroke-width:1.0;"/><text fill="#000000" font-family="sans-serif" font-size="14" lengthAdjust="spacing" textLength="114" x="2537" y="227.2059">id_persona: string</text><ellipse cx="2528" cy="240.8999" fill="none" rx="3" ry="3" style="stroke:#038048;stroke-width:1.0;"/><text fill="#000000" font-family="sans-serif" font-size="14" lengthAdjust="spacing" textLength="128" x="2537" y="244.0059">monto_usd: number</text><ellipse cx="2528" cy="257.6998" fill="none" rx="3" ry="3" style="stroke:#038048;stroke-width:1.0;"/><text fill="#000000" font-family="sans-serif" font-size="14" lengthAdjust="spacing" textLength="160" x="2537" y="260.8058">fecha_inscripccion: string</text><line style="stroke:#181818;stroke-width:0.5;" x1="2518" x2="2702" y1="268.5998" y2="268.5998"/></g><!--class TuitionInfo--><g id="elem_TuitionInfo"><rect codeLine="96" fill="#F1F1F1" height="81.5999" id="TuitionInfo" rx="2.5" ry="2.5" style="stroke:#181818;stroke-width:0.5;" width="154" x="2738" y="186.6"/><ellipse cx="2777.75" cy="202.6" fill="#ADD1B2" rx="11" ry="11" style="stroke:#181818;stroke-width:1.0;"/><path d="M2772.75,203.7563 C2772.75,206.2563 2774.8906,208.0688 2777.8125,208.0688 C2779.0469,208.0688 2780.2188,207.7719 2780.9688,207.2563 C2781.5781,206.8344 2781.9063,206.4125 2781.9063,206.0063 C2781.9063,205.5375 2781.4844,205.1313 2780.9844,205.1313 C2780.75,205.1313 2780.5313,205.2094 2780.3281,205.4125 C2779.8906,205.85 2779.8906,205.85 2779.7188,205.9438 C2779.2656,206.1781 2778.625,206.3188 2777.8594,206.3188 C2775.8594,206.3188 2774.5781,205.3031 2774.5781,203.725 L2774.5781,202.6781 C2774.5781,200.975 2775.7969,199.7719 2777.5,199.7719 C2778.0781,199.7719 2778.6563,199.9125 2779.125,200.1625 C2779.5938,200.4281 2779.7656,200.6156 2779.8281,200.975 C2779.9531,201.6469 2780.2031,201.8969 2780.7344,201.8969 C2781.0156,201.8969 2781.2969,201.7563 2781.4844,201.5375 C2781.6094,201.3656 2781.6563,201.1938 2781.6563,200.7563 L2781.6563,199.3969 C2781.6563,198.975 2781.6406,198.8344 2781.5156,198.6625 C2781.3438,198.4125 2781.0625,198.2563 2780.7344,198.2563 C2780.4219,198.2563 2780.2188,198.3656 2780,198.6313 C2778.8281,198.1313 2778.3906,198.0219 2777.4375,198.0219 C2774.7656,198.0219 2772.75,200.0375 2772.75,202.6625 L2772.75,203.7563 Z " fill="#000000"/><text fill="#000000" font-family="sans-serif" font-size="14" lengthAdjust="spacing" textLength="67" x="2797.25" y="207.206">TuitionInfo</text><line style="stroke:#181818;stroke-width:0.5;" x1="2739" x2="2891" y1="218.6" y2="218.6"/><ellipse cx="2749" cy="232.5" fill="none" rx="3" ry="3" style="stroke:#038048;stroke-width:1.0;"/><text fill="#000000" font-family="sans-serif" font-size="14" lengthAdjust="spacing" textLength="114" x="2758" y="235.6059">id_persona: string</text><ellipse cx="2749" cy="249.2999" fill="none" rx="3" ry="3" style="stroke:#038048;stroke-width:1.0;"/><text fill="#000000" font-family="sans-serif" font-size="14" lengthAdjust="spacing" textLength="128" x="2758" y="252.4059">monto_usd: number</text><line style="stroke:#181818;stroke-width:0.5;" x1="2739" x2="2891" y1="260.1999" y2="260.1999"/></g><!--class RequestCommand--><g id="elem_RequestCommand"><rect codeLine="102" fill="#F1F1F1" height="148.7996" id="RequestCommand" rx="2.5" ry="2.5" style="stroke:#181818;stroke-width:0.5;" width="255" x="1547.5" y="153"/><ellipse cx="1611.25" cy="169" fill="#ADD1B2" rx="11" ry="11" style="stroke:#181818;stroke-width:1.0;"/><path d="M1606.25,170.1563 C1606.25,172.6563 1608.3906,174.4688 1611.3125,174.4688 C1612.5469,174.4688 1613.7188,174.1719 1614.4688,173.6563 C1615.0781,173.2344 1615.4063,172.8125 1615.4063,172.4063 C1615.4063,171.9375 1614.9844,171.5313 1614.4844,171.5313 C1614.25,171.5313 1614.0313,171.6094 1613.8281,171.8125 C1613.3906,172.25 1613.3906,172.25 1613.2188,172.3438 C1612.7656,172.5781 1612.125,172.7188 1611.3594,172.7188 C1609.3594,172.7188 1608.0781,171.7031 1608.0781,170.125 L1608.0781,169.0781 C1608.0781,167.375 1609.2969,166.1719 1611,166.1719 C1611.5781,166.1719 1612.1563,166.3125 1612.625,166.5625 C1613.0938,166.8281 1613.2656,167.0156 1613.3281,167.375 C1613.4531,168.0469 1613.7031,168.2969 1614.2344,168.2969 C1614.5156,168.2969 1614.7969,168.1563 1614.9844,167.9375 C1615.1094,167.7656 1615.1563,167.5938 1615.1563,167.1563 L1615.1563,165.7969 C1615.1563,165.375 1615.1406,165.2344 1615.0156,165.0625 C1614.8438,164.8125 1614.5625,164.6563 1614.2344,164.6563 C1613.9219,164.6563 1613.7188,164.7656 1613.5,165.0313 C1612.3281,164.5313 1611.8906,164.4219 1610.9375,164.4219 C1608.2656,164.4219 1606.25,166.4375 1606.25,169.0625 L1606.25,170.1563 Z " fill="#000000"/><text fill="#000000" font-family="sans-serif" font-size="14" lengthAdjust="spacing" textLength="119" x="1631.75" y="173.606">RequestCommand</text><line style="stroke:#181818;stroke-width:0.5;" x1="1548.5" x2="1801.5" y1="185" y2="185"/><ellipse cx="1558.5" cy="198.9" fill="none" rx="3" ry="3" style="stroke:#038048;stroke-width:1.0;"/><text fill="#000000" font-family="sans-serif" font-size="14" lengthAdjust="spacing" textLength="123" x="1567.5" y="202.0059">requester_id: string</text><ellipse cx="1558.5" cy="215.6999" fill="none" rx="3" ry="3" style="stroke:#038048;stroke-width:1.0;"/><text fill="#000000" font-family="sans-serif" font-size="14" lengthAdjust="spacing" textLength="110" x="1567.5" y="218.8059">request_id: string</text><ellipse cx="1558.5" cy="232.4998" fill="none" rx="3" ry="3" style="stroke:#038048;stroke-width:1.0;"/><text fill="#000000" font-family="sans-serif" font-size="14" lengthAdjust="spacing" textLength="150" x="1567.5" y="235.6058">command_name: string</text><ellipse cx="1558.5" cy="249.2997" fill="none" rx="3" ry="3" style="stroke:#038048;stroke-width:1.0;"/><text fill="#000000" font-family="sans-serif" font-size="14" lengthAdjust="spacing" textLength="229" x="1567.5" y="252.4057">command_content: RequestContent</text><ellipse cx="1558.5" cy="266.0997" fill="none" rx="3" ry="3" style="stroke:#038048;stroke-width:1.0;"/><text fill="#000000" font-family="sans-serif" font-size="14" lengthAdjust="spacing" textLength="111" x="1567.5" y="269.2057">aprover_id: string</text><ellipse cx="1558.5" cy="282.8996" fill="none" rx="3" ry="3" style="stroke:#038048;stroke-width:1.0;"/><text fill="#000000" font-family="sans-serif" font-size="14" lengthAdjust="spacing" textLength="125" x="1567.5" y="286.0056">completed: boolean</text><line style="stroke:#181818;stroke-width:0.5;" x1="1548.5" x2="1801.5" y1="293.7996" y2="293.7996"/></g><!--class RequestContent--><g id="elem_RequestContent"><rect codeLine="111" fill="#F1F1F1" height="64.7999" id="RequestContent" rx="2.5" ry="2.5" style="stroke:#181818;stroke-width:0.5;" width="159" x="1595.5" y="437.6"/><ellipse cx="1621.3" cy="453.6" fill="#B4A7E5" rx="11" ry="11" style="stroke:#181818;stroke-width:1.0;"/><path d="M1622.3156,450.7563 L1623.9719,450.7563 C1624.3625,450.7563 1624.5656,450.725 1624.7219,450.6469 C1624.9875,450.475 1625.1594,450.1781 1625.1594,449.8813 C1625.1594,449.6 1625.0188,449.35 1624.7844,449.1781 C1624.5969,449.0531 1624.4406,449.0063 1623.9719,449.0063 L1618.8313,449.0063 C1618.3938,449.0063 1618.2531,449.0219 1618.0813,449.1313 C1617.8156,449.3031 1617.6438,449.5844 1617.6438,449.8813 C1617.6438,450.1625 1617.7844,450.4438 1618.0188,450.6 C1618.2063,450.725 1618.3938,450.7563 1618.8313,450.7563 L1620.4875,450.7563 L1620.4875,456.85 L1618.8313,456.85 C1618.3938,456.85 1618.2531,456.8656 1618.0813,456.975 C1617.8156,457.1313 1617.6438,457.4281 1617.6438,457.7094 C1617.6438,458.3188 1618.05,458.6 1618.8313,458.6 L1623.9719,458.6 C1624.7531,458.6 1625.1594,458.3188 1625.1594,457.7094 C1625.1594,457.4438 1625.0188,457.1938 1624.7844,457.0219 C1624.5969,456.8813 1624.425,456.85 1623.9719,456.85 L1622.3156,456.85 L1622.3156,450.7563 Z " fill="#000000"/><text fill="#000000" font-family="sans-serif" font-size="14" font-style="italic" lengthAdjust="spacing" textLength="103" x="1637.7" y="459.55">RequestContent</text><line style="stroke:#181818;stroke-width:0.5;" x1="1596.5" x2="1753.5" y1="469.6" y2="469.6"/><ellipse cx="1606.5" cy="483.5" fill="none" rx="3" ry="3" style="stroke:#038048;stroke-width:1.0;"/><text fill="#000000" font-family="sans-serif" font-size="14" lengthAdjust="spacing" textLength="133" x="1615.5" y="486.6059">type: CommandType</text><line style="stroke:#181818;stroke-width:0.5;" x1="1596.5" x2="1753.5" y1="494.3999" y2="494.3999"/></g><!--class UserUpdateRequest--><g id="elem_UserUpdateRequest"><rect codeLine="115" fill="#F1F1F1" height="81.5999" id="UserUpdateRequest" rx="2.5" ry="2.5" style="stroke:#181818;stroke-width:0.5;" width="236" x="1037" y="186.6"/><ellipse cx="1086.25" cy="202.6" fill="#ADD1B2" rx="11" ry="11" style="stroke:#181818;stroke-width:1.0;"/><path d="M1081.25,203.7563 C1081.25,206.2563 1083.3906,208.0688 1086.3125,208.0688 C1087.5469,208.0688 1088.7188,207.7719 1089.4688,207.2563 C1090.0781,206.8344 1090.4063,206.4125 1090.4063,206.0063 C1090.4063,205.5375 1089.9844,205.1313 1089.4844,205.1313 C1089.25,205.1313 1089.0313,205.2094 1088.8281,205.4125 C1088.3906,205.85 1088.3906,205.85 1088.2188,205.9438 C1087.7656,206.1781 1087.125,206.3188 1086.3594,206.3188 C1084.3594,206.3188 1083.0781,205.3031 1083.0781,203.725 L1083.0781,202.6781 C1083.0781,200.975 1084.2969,199.7719 1086,199.7719 C1086.5781,199.7719 1087.1563,199.9125 1087.625,200.1625 C1088.0938,200.4281 1088.2656,200.6156 1088.3281,200.975 C1088.4531,201.6469 1088.7031,201.8969 1089.2344,201.8969 C1089.5156,201.8969 1089.7969,201.7563 1089.9844,201.5375 C1090.1094,201.3656 1090.1563,201.1938 1090.1563,200.7563 L1090.1563,199.3969 C1090.1563,198.975 1090.1406,198.8344 1090.0156,198.6625 C1089.8438,198.4125 1089.5625,198.2563 1089.2344,198.2563 C1088.9219,198.2563 1088.7188,198.3656 1088.5,198.6313 C1087.3281,198.1313 1086.8906,198.0219 1085.9375,198.0219 C1083.2656,198.0219 1081.25,200.0375 1081.25,202.6625 L1081.25,203.7563 Z " fill="#000000"/><text fill="#000000" font-family="sans-serif" font-size="14" lengthAdjust="spacing" textLength="129" x="1106.75" y="207.206">UserUpdateRequest</text><line style="stroke:#181818;stroke-width:0.5;" x1="1038" x2="1272" y1="218.6" y2="218.6"/><ellipse cx="1048" cy="232.5" fill="none" rx="3" ry="3" style="stroke:#038048;stroke-width:1.0;"/><text fill="#000000" font-family="sans-serif" font-size="14" lengthAdjust="spacing" textLength="210" x="1057" y="235.6059">user_updation: UserUpdationInfo</text><ellipse cx="1048" cy="249.2999" fill="none" rx="3" ry="3" style="stroke:#038048;stroke-width:1.0;"/><text fill="#000000" font-family="sans-serif" font-size="14" lengthAdjust="spacing" textLength="90" x="1057" y="252.4059">user_id: string</text><line style="stroke:#181818;stroke-width:0.5;" x1="1038" x2="1272" y1="260.1999" y2="260.1999"/></g><!--class DeleteTournamentRequest--><g id="elem_DeleteTournamentRequest"><rect codeLine="120" fill="#F1F1F1" height="64.7999" id="DeleteTournamentRequest" rx="2.5" ry="2.5" style="stroke:#181818;stroke-width:0.5;" width="204" x="1308" y="195"/><ellipse cx="1323" cy="211" fill="#ADD1B2" rx="11" ry="11" style="stroke:#181818;stroke-width:1.0;"/><path d="M1318,212.1563 C1318,214.6563 1320.1406,216.4688 1323.0625,216.4688 C1324.2969,216.4688 1325.4688,216.1719 1326.2188,215.6563 C1326.8281,215.2344 1327.1563,214.8125 1327.1563,214.4063 C1327.1563,213.9375 1326.7344,213.5313 1326.2344,213.5313 C1326,213.5313 1325.7813,213.6094 1325.5781,213.8125 C1325.1406,214.25 1325.1406,214.25 1324.9688,214.3438 C1324.5156,214.5781 1323.875,214.7188 1323.1094,214.7188 C1321.1094,214.7188 1319.8281,213.7031 1319.8281,212.125 L1319.8281,211.0781 C1319.8281,209.375 1321.0469,208.1719 1322.75,208.1719 C1323.3281,208.1719 1323.9063,208.3125 1324.375,208.5625 C1324.8438,208.8281 1325.0156,209.0156 1325.0781,209.375 C1325.2031,210.0469 1325.4531,210.2969 1325.9844,210.2969 C1326.2656,210.2969 1326.5469,210.1563 1326.7344,209.9375 C1326.8594,209.7656 1326.9063,209.5938 1326.9063,209.1563 L1326.9063,207.7969 C1326.9063,207.375 1326.8906,207.2344 1326.7656,207.0625 C1326.5938,206.8125 1326.3125,206.6563 1325.9844,206.6563 C1325.6719,206.6563 1325.4688,206.7656 1325.25,207.0313 C1324.0781,206.5313 1323.6406,206.4219 1322.6875,206.4219 C1320.0156,206.4219 1318,208.4375 1318,211.0625 L1318,212.1563 Z " fill="#000000"/><text fill="#000000" font-family="sans-serif" font-size="14" lengthAdjust="spacing" textLength="172" x="1337" y="215.606">DeleteTournamentRequest</text><line style="stroke:#181818;stroke-width:0.5;" x1="1309" x2="1511" y1="227" y2="227"/><ellipse cx="1319" cy="240.9" fill="none" rx="3" ry="3" style="stroke:#038048;stroke-width:1.0;"/><text fill="#000000" font-family="sans-serif" font-size="14" lengthAdjust="spacing" textLength="135" x="1328" y="244.0059">tournament_id: string</text><line style="stroke:#181818;stroke-width:0.5;" x1="1309" x2="1511" y1="251.7999" y2="251.7999"/></g><!--class DeleteTrainingRequest--><g id="elem_DeleteTrainingRequest"><rect codeLine="124" fill="#F1F1F1" height="64.7999" id="DeleteTrainingRequest" rx="2.5" ry="2.5" style="stroke:#181818;stroke-width:0.5;" width="178" x="1838" y="195"/><ellipse cx="1853" cy="211" fill="#ADD1B2" rx="11" ry="11" style="stroke:#181818;stroke-width:1.0;"/><path d="M1848,212.1563 C1848,214.6563 1850.1406,216.4688 1853.0625,216.4688 C1854.2969,216.4688 1855.4688,216.1719 1856.2188,215.6563 C1856.8281,215.2344 1857.1563,214.8125 1857.1563,214.4063 C1857.1563,213.9375 1856.7344,213.5313 1856.2344,213.5313 C1856,213.5313 1855.7813,213.6094 1855.5781,213.8125 C1855.1406,214.25 1855.1406,214.25 1854.9688,214.3438 C1854.5156,214.5781 1853.875,214.7188 1853.1094,214.7188 C1851.1094,214.7188 1849.8281,213.7031 1849.8281,212.125 L1849.8281,211.0781 C1849.8281,209.375 1851.0469,208.1719 1852.75,208.1719 C1853.3281,208.1719 1853.9063,208.3125 1854.375,208.5625 C1854.8438,208.8281 1855.0156,209.0156 1855.0781,209.375 C1855.2031,210.0469 1855.4531,210.2969 1855.9844,210.2969 C1856.2656,210.2969 1856.5469,210.1563 1856.7344,209.9375 C1856.8594,209.7656 1856.9063,209.5938 1856.9063,209.1563 L1856.9063,207.7969 C1856.9063,207.375 1856.8906,207.2344 1856.7656,207.0625 C1856.5938,206.8125 1856.3125,206.6563 1855.9844,206.6563 C1855.6719,206.6563 1855.4688,206.7656 1855.25,207.0313 C1854.0781,206.5313 1853.6406,206.4219 1852.6875,206.4219 C1850.0156,206.4219 1848,208.4375 1848,211.0625 L1848,212.1563 Z " fill="#000000"/><text fill="#000000" font-family="sans-serif" font-size="14" lengthAdjust="spacing" textLength="146" x="1867" y="215.606">DeleteTrainingRequest</text><line style="stroke:#181818;stroke-width:0.5;" x1="1839" x2="2015" y1="227" y2="227"/><ellipse cx="1849" cy="240.9" fill="none" rx="3" ry="3" style="stroke:#038048;stroke-width:1.0;"/><text fill="#000000" font-family="sans-serif" font-size="14" lengthAdjust="spacing" textLength="109" x="1858" y="244.0059">training_id: string</text><line style="stroke:#181818;stroke-width:0.5;" x1="1839" x2="2015" y1="251.7999" y2="251.7999"/></g><!--class CommandType--><g id="elem_CommandType"><rect codeLine="128" fill="#F1F1F1" height="98.3998" id="CommandType" rx="2.5" ry="2.5" style="stroke:#181818;stroke-width:0.5;" width="131" x="631.5" y="420.8"/><ellipse cx="646.95" cy="436.8" fill="#EB937F" rx="11" ry="11" style="stroke:#181818;stroke-width:1.0;"/><path d="M645.8094,437.8625 L647.1219,437.8625 L647.1219,437.9094 C647.1219,438.3156 647.1375,438.4719 647.2469,438.6281 C647.4188,438.8781 647.7156,439.05 648.0281,439.05 C648.3094,439.05 648.6063,438.9094 648.7781,438.6906 C648.9031,438.5031 648.95,438.3625 648.95,437.9094 L648.95,436.0656 C648.95,435.7375 648.9344,435.6281 648.8719,435.4563 C648.7625,435.1594 648.4031,434.9094 648.0281,434.9094 C647.7313,434.9094 647.4656,435.05 647.2938,435.2688 C647.1531,435.4563 647.1219,435.6281 647.1219,436.0656 L647.1219,436.1281 L645.8094,436.1281 L645.8094,433.9563 L649.6531,433.9563 L649.6531,434.7063 C649.6531,435.0969 649.6844,435.2844 649.7938,435.4406 C649.9656,435.6906 650.2625,435.8625 650.575,435.8625 C650.8719,435.8625 651.1375,435.7375 651.325,435.5031 C651.4656,435.3156 651.4969,435.175 651.4969,434.7063 L651.4969,432.2063 L643.7938,432.2063 C643.3406,432.2063 643.2156,432.2219 643.0438,432.3313 C642.7781,432.5031 642.6063,432.7688 642.6063,433.0813 C642.6063,433.3625 642.7313,433.6281 642.9813,433.8 C643.1688,433.925 643.3563,433.9563 643.7938,433.9563 L643.9813,433.9563 L643.9813,440.05 L643.7938,440.05 C643.3719,440.05 643.2156,440.0813 643.0438,440.175 C642.7781,440.3313 642.6063,440.6125 642.6063,440.9094 C642.6063,441.4875 643.0125,441.8 643.7938,441.8 L651.8719,441.8 L651.8719,439.2688 C651.8719,438.8625 651.8406,438.6906 651.7313,438.5344 C651.5594,438.2688 651.2781,438.1125 650.95,438.1125 C650.6688,438.1125 650.3875,438.2531 650.2,438.4719 C650.0594,438.6594 650.0281,438.8156 650.0281,439.2688 L650.0281,440.05 L645.8094,440.05 L645.8094,437.8625 Z " fill="#000000"/><text fill="#000000" font-family="sans-serif" font-size="14" lengthAdjust="spacing" textLength="98" x="661.05" y="441.406">CommandType</text><line style="stroke:#181818;stroke-width:0.5;" x1="632.5" x2="761.5" y1="452.8" y2="452.8"/><text fill="#000000" font-family="sans-serif" font-size="14" lengthAdjust="spacing" textLength="76" x="637.5" y="469.8059">UpdateUser</text><text fill="#000000" font-family="sans-serif" font-size="14" lengthAdjust="spacing" textLength="119" x="637.5" y="486.6059">DeleteTournament</text><text fill="#000000" font-family="sans-serif" font-size="14" lengthAdjust="spacing" textLength="93" x="637.5" y="503.4058">DeleteTraining</text><line style="stroke:#181818;stroke-width:0.5;" x1="632.5" x2="761.5" y1="511.1998" y2="511.1998"/></g><!--class LinkData--><g id="elem_LinkData"><rect codeLine="136" fill="#F1F1F1" height="98.3998" id="LinkData" rx="2.5" ry="2.5" style="stroke:#181818;stroke-width:0.5;" width="131" x="21.5" y="178.2"/><ellipse cx="55.85" cy="194.2" fill="#ADD1B2" rx="11" ry="11" style="stroke:#181818;stroke-width:1.0;"/><path d="M50.85,195.3563 C50.85,197.8563 52.9906,199.6688 55.9125,199.6688 C57.1469,199.6688 58.3188,199.3719 59.0688,198.8563 C59.6781,198.4344 60.0063,198.0125 60.0063,197.6063 C60.0063,197.1375 59.5844,196.7313 59.0844,196.7313 C58.85,196.7313 58.6313,196.8094 58.4281,197.0125 C57.9906,197.45 57.9906,197.45 57.8188,197.5438 C57.3656,197.7781 56.725,197.9188 55.9594,197.9188 C53.9594,197.9188 52.6781,196.9031 52.6781,195.325 L52.6781,194.2781 C52.6781,192.575 53.8969,191.3719 55.6,191.3719 C56.1781,191.3719 56.7563,191.5125 57.225,191.7625 C57.6938,192.0281 57.8656,192.2156 57.9281,192.575 C58.0531,193.2469 58.3031,193.4969 58.8344,193.4969 C59.1156,193.4969 59.3969,193.3563 59.5844,193.1375 C59.7094,192.9656 59.7563,192.7938 59.7563,192.3563 L59.7563,190.9969 C59.7563,190.575 59.7406,190.4344 59.6156,190.2625 C59.4438,190.0125 59.1625,189.8563 58.8344,189.8563 C58.5219,189.8563 58.3188,189.9656 58.1,190.2313 C56.9281,189.7313 56.4906,189.6219 55.5375,189.6219 C52.8656,189.6219 50.85,191.6375 50.85,194.2625 L50.85,195.3563 Z " fill="#000000"/><text fill="#000000" font-family="sans-serif" font-size="14" lengthAdjust="spacing" textLength="56" x="74.15" y="198.806">LinkData</text><line style="stroke:#181818;stroke-width:0.5;" x1="22.5" x2="151.5" y1="210.2" y2="210.2"/><ellipse cx="32.5" cy="224.1" fill="none" rx="3" ry="3" style="stroke:#038048;stroke-width:1.0;"/><text fill="#000000" font-family="sans-serif" font-size="14" lengthAdjust="spacing" textLength="92" x="41.5" y="227.2059">linkText: string</text><ellipse cx="32.5" cy="240.8999" fill="none" rx="3" ry="3" style="stroke:#038048;stroke-width:1.0;"/><text fill="#000000" font-family="sans-serif" font-size="14" lengthAdjust="spacing" textLength="55" x="41.5" y="244.0059">to: string</text><ellipse cx="32.5" cy="257.6998" fill="none" rx="3" ry="3" style="stroke:#038048;stroke-width:1.0;"/><text fill="#000000" font-family="sans-serif" font-size="14" lengthAdjust="spacing" textLength="105" x="41.5" y="260.8058">icon: ReactNode</text><line style="stroke:#181818;stroke-width:0.5;" x1="22.5" x2="151.5" y1="268.5998" y2="268.5998"/></g><!--class ExistanceValues--><g id="elem_ExistanceValues"><rect codeLine="142" fill="#F1F1F1" height="81.5999" id="ExistanceValues" rx="2.5" ry="2.5" style="stroke:#181818;stroke-width:0.5;" width="136" x="187" y="186.6"/><ellipse cx="202" cy="202.6" fill="#ADD1B2" rx="11" ry="11" style="stroke:#181818;stroke-width:1.0;"/><path d="M197,203.7563 C197,206.2563 199.1406,208.0688 202.0625,208.0688 C203.2969,208.0688 204.4688,207.7719 205.2188,207.2563 C205.8281,206.8344 206.1563,206.4125 206.1563,206.0063 C206.1563,205.5375 205.7344,205.1313 205.2344,205.1313 C205,205.1313 204.7813,205.2094 204.5781,205.4125 C204.1406,205.85 204.1406,205.85 203.9688,205.9438 C203.5156,206.1781 202.875,206.3188 202.1094,206.3188 C200.1094,206.3188 198.8281,205.3031 198.8281,203.725 L198.8281,202.6781 C198.8281,200.975 200.0469,199.7719 201.75,199.7719 C202.3281,199.7719 202.9063,199.9125 203.375,200.1625 C203.8438,200.4281 204.0156,200.6156 204.0781,200.975 C204.2031,201.6469 204.4531,201.8969 204.9844,201.8969 C205.2656,201.8969 205.5469,201.7563 205.7344,201.5375 C205.8594,201.3656 205.9063,201.1938 205.9063,200.7563 L205.9063,199.3969 C205.9063,198.975 205.8906,198.8344 205.7656,198.6625 C205.5938,198.4125 205.3125,198.2563 204.9844,198.2563 C204.6719,198.2563 204.4688,198.3656 204.25,198.6313 C203.0781,198.1313 202.6406,198.0219 201.6875,198.0219 C199.0156,198.0219 197,200.0375 197,202.6625 L197,203.7563 Z " fill="#000000"/><text fill="#000000" font-family="sans-serif" font-size="14" lengthAdjust="spacing" textLength="104" x="216" y="207.206">ExistanceValues</text><line style="stroke:#181818;stroke-width:0.5;" x1="188" x2="322" y1="218.6" y2="218.6"/><ellipse cx="198" cy="232.5" fill="none" rx="3" ry="3" style="stroke:#038048;stroke-width:1.0;"/><text fill="#000000" font-family="sans-serif" font-size="14" lengthAdjust="spacing" textLength="77" x="207" y="235.6059">email: string</text><ellipse cx="198" cy="249.2999" fill="none" rx="3" ry="3" style="stroke:#038048;stroke-width:1.0;"/><text fill="#000000" font-family="sans-serif" font-size="14" lengthAdjust="spacing" textLength="83" x="207" y="252.4059">phone: string</text><line style="stroke:#181818;stroke-width:0.5;" x1="188" x2="322" y1="260.1999" y2="260.1999"/></g><!--class InputComponent--><g id="elem_InputComponent"><rect fill="#F1F1F1" height="48" id="InputComponent" rx="2.5" ry="2.5" style="stroke:#181818;stroke-width:0.5;" width="138" x="4042" y="7"/><ellipse cx="4057" cy="23" fill="#ADD1B2" rx="11" ry="11" style="stroke:#181818;stroke-width:1.0;"/><path d="M4052,24.1563 C4052,26.6563 4054.1406,28.4688 4057.0625,28.4688 C4058.2969,28.4688 4059.4688,28.1719 4060.2188,27.6563 C4060.8281,27.2344 4061.1563,26.8125 4061.1563,26.4063 C4061.1563,25.9375 4060.7344,25.5313 4060.2344,25.5313 C4060,25.5313 4059.7813,25.6094 4059.5781,25.8125 C4059.1406,26.25 4059.1406,26.25 4058.9688,26.3438 C4058.5156,26.5781 4057.875,26.7188 4057.1094,26.7188 C4055.1094,26.7188 4053.8281,25.7031 4053.8281,24.125 L4053.8281,23.0781 C4053.8281,21.375 4055.0469,20.1719 4056.75,20.1719 C4057.3281,20.1719 4057.9063,20.3125 4058.375,20.5625 C4058.8438,20.8281 4059.0156,21.0156 4059.0781,21.375 C4059.2031,22.0469 4059.4531,22.2969 4059.9844,22.2969 C4060.2656,22.2969 4060.5469,22.1563 4060.7344,21.9375 C4060.8594,21.7656 4060.9063,21.5938 4060.9063,21.1563 L4060.9063,19.7969 C4060.9063,19.375 4060.8906,19.2344 4060.7656,19.0625 C4060.5938,18.8125 4060.3125,18.6563 4059.9844,18.6563 C4059.6719,18.6563 4059.4688,18.7656 4059.25,19.0313 C4058.0781,18.5313 4057.6406,18.4219 4056.6875,18.4219 C4054.0156,18.4219 4052,20.4375 4052,23.0625 L4052,24.1563 Z " fill="#000000"/><text fill="#000000" font-family="sans-serif" font-size="14" lengthAdjust="spacing" textLength="106" x="4071" y="27.606">InputComponent</text><line style="stroke:#181818;stroke-width:0.5;" x1="4043" x2="4179" y1="39" y2="39"/><line style="stroke:#181818;stroke-width:0.5;" x1="4043" x2="4179" y1="47" y2="47"/></g><!--class Validator--><g id="elem_Validator"><rect fill="#F1F1F1" height="48" id="Validator" rx="2.5" ry="2.5" style="stroke:#181818;stroke-width:0.5;" width="88" x="4067" y="203.4"/><ellipse cx="4082" cy="219.4" fill="#ADD1B2" rx="11" ry="11" style="stroke:#181818;stroke-width:1.0;"/><path d="M4077,220.5562 C4077,223.0562 4079.1406,224.8687 4082.0625,224.8687 C4083.2969,224.8687 4084.4688,224.5719 4085.2188,224.0562 C4085.8281,223.6344 4086.1563,223.2125 4086.1563,222.8062 C4086.1563,222.3375 4085.7344,221.9312 4085.2344,221.9312 C4085,221.9312 4084.7813,222.0094 4084.5781,222.2125 C4084.1406,222.65 4084.1406,222.65 4083.9688,222.7437 C4083.5156,222.9781 4082.875,223.1187 4082.1094,223.1187 C4080.1094,223.1187 4078.8281,222.1031 4078.8281,220.525 L4078.8281,219.4781 C4078.8281,217.775 4080.0469,216.5719 4081.75,216.5719 C4082.3281,216.5719 4082.9063,216.7125 4083.375,216.9625 C4083.8438,217.2281 4084.0156,217.4156 4084.0781,217.775 C4084.2031,218.4469 4084.4531,218.6969 4084.9844,218.6969 C4085.2656,218.6969 4085.5469,218.5562 4085.7344,218.3375 C4085.8594,218.1656 4085.9063,217.9937 4085.9063,217.5562 L4085.9063,216.1969 C4085.9063,215.775 4085.8906,215.6344 4085.7656,215.4625 C4085.5938,215.2125 4085.3125,215.0562 4084.9844,215.0562 C4084.6719,215.0562 4084.4688,215.1656 4084.25,215.4312 C4083.0781,214.9312 4082.6406,214.8219 4081.6875,214.8219 C4079.0156,214.8219 4077,216.8375 4077,219.4625 L4077,220.5562 Z " fill="#000000"/><text fill="#000000" font-family="sans-serif" font-size="14" lengthAdjust="spacing" textLength="56" x="4096" y="224.006">Validator</text><line style="stroke:#181818;stroke-width:0.5;" x1="4068" x2="4154" y1="235.4" y2="235.4"/><line style="stroke:#181818;stroke-width:0.5;" x1="4068" x2="4154" y1="243.4" y2="243.4"/></g><!--class UserForm--><g id="elem_UserForm"><rect fill="#F1F1F1" height="48" id="UserForm" rx="2.5" ry="2.5" style="stroke:#181818;stroke-width:0.5;" width="96" x="482" y="7"/><ellipse cx="497" cy="23" fill="#ADD1B2" rx="11" ry="11" style="stroke:#181818;stroke-width:1.0;"/><path d="M492,24.1563 C492,26.6563 494.1406,28.4688 497.0625,28.4688 C498.2969,28.4688 499.4688,28.1719 500.2188,27.6563 C500.8281,27.2344 501.1563,26.8125 501.1563,26.4063 C501.1563,25.9375 500.7344,25.5313 500.2344,25.5313 C500,25.5313 499.7813,25.6094 499.5781,25.8125 C499.1406,26.25 499.1406,26.25 498.9688,26.3438 C498.5156,26.5781 497.875,26.7188 497.1094,26.7188 C495.1094,26.7188 493.8281,25.7031 493.8281,24.125 L493.8281,23.0781 C493.8281,21.375 495.0469,20.1719 496.75,20.1719 C497.3281,20.1719 497.9063,20.3125 498.375,20.5625 C498.8438,20.8281 499.0156,21.0156 499.0781,21.375 C499.2031,22.0469 499.4531,22.2969 499.9844,22.2969 C500.2656,22.2969 500.5469,22.1563 500.7344,21.9375 C500.8594,21.7656 500.9063,21.5938 500.9063,21.1563 L500.9063,19.7969 C500.9063,19.375 500.8906,19.2344 500.7656,19.0625 C500.5938,18.8125 500.3125,18.6563 499.9844,18.6563 C499.6719,18.6563 499.4688,18.7656 499.25,19.0313 C498.0781,18.5313 497.6406,18.4219 496.6875,18.4219 C494.0156,18.4219 492,20.4375 492,23.0625 L492,24.1563 Z " fill="#000000"/><text fill="#000000" font-family="sans-serif" font-size="14" lengthAdjust="spacing" textLength="64" x="511" y="27.606">UserForm</text><line style="stroke:#181818;stroke-width:0.5;" x1="483" x2="577" y1="39" y2="39"/><line style="stroke:#181818;stroke-width:0.5;" x1="483" x2="577" y1="47" y2="47"/></g><!--class RequestComponent--><g id="elem_RequestComponent"><rect fill="#F1F1F1" height="48" id="RequestComponent" rx="2.5" ry="2.5" style="stroke:#181818;stroke-width:0.5;" width="159" x="3308.5" y="7"/><ellipse cx="3323.5" cy="23" fill="#ADD1B2" rx="11" ry="11" style="stroke:#181818;stroke-width:1.0;"/><path d="M3318.5,24.1563 C3318.5,26.6563 3320.6406,28.4688 3323.5625,28.4688 C3324.7969,28.4688 3325.9688,28.1719 3326.7188,27.6563 C3327.3281,27.2344 3327.6563,26.8125 3327.6563,26.4063 C3327.6563,25.9375 3327.2344,25.5313 3326.7344,25.5313 C3326.5,25.5313 3326.2813,25.6094 3326.0781,25.8125 C3325.6406,26.25 3325.6406,26.25 3325.4688,26.3438 C3325.0156,26.5781 3324.375,26.7188 3323.6094,26.7188 C3321.6094,26.7188 3320.3281,25.7031 3320.3281,24.125 L3320.3281,23.0781 C3320.3281,21.375 3321.5469,20.1719 3323.25,20.1719 C3323.8281,20.1719 3324.4063,20.3125 3324.875,20.5625 C3325.3438,20.8281 3325.5156,21.0156 3325.5781,21.375 C3325.7031,22.0469 3325.9531,22.2969 3326.4844,22.2969 C3326.7656,22.2969 3327.0469,22.1563 3327.2344,21.9375 C3327.3594,21.7656 3327.4063,21.5938 3327.4063,21.1563 L3327.4063,19.7969 C3327.4063,19.375 3327.3906,19.2344 3327.2656,19.0625 C3327.0938,18.8125 3326.8125,18.6563 3326.4844,18.6563 C3326.1719,18.6563 3325.9688,18.7656 3325.75,19.0313 C3324.5781,18.5313 3324.1406,18.4219 3323.1875,18.4219 C3320.5156,18.4219 3318.5,20.4375 3318.5,23.0625 L3318.5,24.1563 Z " fill="#000000"/><text fill="#000000" font-family="sans-serif" font-size="14" lengthAdjust="spacing" textLength="127" x="3337.5" y="27.606">RequestComponent</text><line style="stroke:#181818;stroke-width:0.5;" x1="3309.5" x2="3466.5" y1="39" y2="39"/><line style="stroke:#181818;stroke-width:0.5;" x1="3309.5" x2="3466.5" y1="47" y2="47"/></g><!--class RequestContentVisualizer--><g id="elem_RequestContentVisualizer"><rect fill="#F1F1F1" height="48" id="RequestContentVisualizer" rx="2.5" ry="2.5" style="stroke:#181818;stroke-width:0.5;" width="196" x="2927" y="203.4"/><ellipse cx="2942" cy="219.4" fill="#ADD1B2" rx="11" ry="11" style="stroke:#181818;stroke-width:1.0;"/><path d="M2937,220.5562 C2937,223.0562 2939.1406,224.8687 2942.0625,224.8687 C2943.2969,224.8687 2944.4688,224.5719 2945.2188,224.0562 C2945.8281,223.6344 2946.1563,223.2125 2946.1563,222.8062 C2946.1563,222.3375 2945.7344,221.9312 2945.2344,221.9312 C2945,221.9312 2944.7813,222.0094 2944.5781,222.2125 C2944.1406,222.65 2944.1406,222.65 2943.9688,222.7437 C2943.5156,222.9781 2942.875,223.1187 2942.1094,223.1187 C2940.1094,223.1187 2938.8281,222.1031 2938.8281,220.525 L2938.8281,219.4781 C2938.8281,217.775 2940.0469,216.5719 2941.75,216.5719 C2942.3281,216.5719 2942.9063,216.7125 2943.375,216.9625 C2943.8438,217.2281 2944.0156,217.4156 2944.0781,217.775 C2944.2031,218.4469 2944.4531,218.6969 2944.9844,218.6969 C2945.2656,218.6969 2945.5469,218.5562 2945.7344,218.3375 C2945.8594,218.1656 2945.9063,217.9937 2945.9063,217.5562 L2945.9063,216.1969 C2945.9063,215.775 2945.8906,215.6344 2945.7656,215.4625 C2945.5938,215.2125 2945.3125,215.0562 2944.9844,215.0562 C2944.6719,215.0562 2944.4688,215.1656 2944.25,215.4312 C2943.0781,214.9312 2942.6406,214.8219 2941.6875,214.8219 C2939.0156,214.8219 2937,216.8375 2937,219.4625 L2937,220.5562 Z " fill="#000000"/><text fill="#000000" font-family="sans-serif" font-size="14" lengthAdjust="spacing" textLength="164" x="2956" y="224.006">RequestContentVisualizer</text><line style="stroke:#181818;stroke-width:0.5;" x1="2928" x2="3122" y1="235.4" y2="235.4"/><line style="stroke:#181818;stroke-width:0.5;" x1="2928" x2="3122" y1="243.4" y2="243.4"/></g><!--class UserInfoComponent--><g id="elem_UserInfoComponent"><rect fill="#F1F1F1" height="48" id="UserInfoComponent" rx="2.5" ry="2.5" style="stroke:#181818;stroke-width:0.5;" width="160" x="3158" y="203.4"/><ellipse cx="3173" cy="219.4" fill="#ADD1B2" rx="11" ry="11" style="stroke:#181818;stroke-width:1.0;"/><path d="M3168,220.5562 C3168,223.0562 3170.1406,224.8687 3173.0625,224.8687 C3174.2969,224.8687 3175.4688,224.5719 3176.2188,224.0562 C3176.8281,223.6344 3177.1563,223.2125 3177.1563,222.8062 C3177.1563,222.3375 3176.7344,221.9312 3176.2344,221.9312 C3176,221.9312 3175.7813,222.0094 3175.5781,222.2125 C3175.1406,222.65 3175.1406,222.65 3174.9688,222.7437 C3174.5156,222.9781 3173.875,223.1187 3173.1094,223.1187 C3171.1094,223.1187 3169.8281,222.1031 3169.8281,220.525 L3169.8281,219.4781 C3169.8281,217.775 3171.0469,216.5719 3172.75,216.5719 C3173.3281,216.5719 3173.9063,216.7125 3174.375,216.9625 C3174.8438,217.2281 3175.0156,217.4156 3175.0781,217.775 C3175.2031,218.4469 3175.4531,218.6969 3175.9844,218.6969 C3176.2656,218.6969 3176.5469,218.5562 3176.7344,218.3375 C3176.8594,218.1656 3176.9063,217.9937 3176.9063,217.5562 L3176.9063,216.1969 C3176.9063,215.775 3176.8906,215.6344 3176.7656,215.4625 C3176.5938,215.2125 3176.3125,215.0562 3175.9844,215.0562 C3175.6719,215.0562 3175.4688,215.1656 3175.25,215.4312 C3174.0781,214.9312 3173.6406,214.8219 3172.6875,214.8219 C3170.0156,214.8219 3168,216.8375 3168,219.4625 L3168,220.5562 Z " fill="#000000"/><text fill="#000000" font-family="sans-serif" font-size="14" lengthAdjust="spacing" textLength="128" x="3187" y="224.006">UserInfoComponent</text><line style="stroke:#181818;stroke-width:0.5;" x1="3159" x2="3317" y1="235.4" y2="235.4"/><line style="stroke:#181818;stroke-width:0.5;" x1="3159" x2="3317" y1="243.4" y2="243.4"/></g><!--class UserRoleManagement--><g id="elem_UserRoleManagement"><rect fill="#F1F1F1" height="48" id="UserRoleManagement" rx="2.5" ry="2.5" style="stroke:#181818;stroke-width:0.5;" width="175" x="3627.5" y="203.4"/><ellipse cx="3642.5" cy="219.4" fill="#ADD1B2" rx="11" ry="11" style="stroke:#181818;stroke-width:1.0;"/><path d="M3637.5,220.5562 C3637.5,223.0562 3639.6406,224.8687 3642.5625,224.8687 C3643.7969,224.8687 3644.9688,224.5719 3645.7188,224.0562 C3646.3281,223.6344 3646.6563,223.2125 3646.6563,222.8062 C3646.6563,222.3375 3646.2344,221.9312 3645.7344,221.9312 C3645.5,221.9312 3645.2813,222.0094 3645.0781,222.2125 C3644.6406,222.65 3644.6406,222.65 3644.4688,222.7437 C3644.0156,222.9781 3643.375,223.1187 3642.6094,223.1187 C3640.6094,223.1187 3639.3281,222.1031 3639.3281,220.525 L3639.3281,219.4781 C3639.3281,217.775 3640.5469,216.5719 3642.25,216.5719 C3642.8281,216.5719 3643.4063,216.7125 3643.875,216.9625 C3644.3438,217.2281 3644.5156,217.4156 3644.5781,217.775 C3644.7031,218.4469 3644.9531,218.6969 3645.4844,218.6969 C3645.7656,218.6969 3646.0469,218.5562 3646.2344,218.3375 C3646.3594,218.1656 3646.4063,217.9937 3646.4063,217.5562 L3646.4063,216.1969 C3646.4063,215.775 3646.3906,215.6344 3646.2656,215.4625 C3646.0938,215.2125 3645.8125,215.0562 3645.4844,215.0562 C3645.1719,215.0562 3644.9688,215.1656 3644.75,215.4312 C3643.5781,214.9312 3643.1406,214.8219 3642.1875,214.8219 C3639.5156,214.8219 3637.5,216.8375 3637.5,219.4625 L3637.5,220.5562 Z " fill="#000000"/><text fill="#000000" font-family="sans-serif" font-size="14" lengthAdjust="spacing" textLength="143" x="3656.5" y="224.006">UserRoleManagement</text><line style="stroke:#181818;stroke-width:0.5;" x1="3628.5" x2="3801.5" y1="235.4" y2="235.4"/><line style="stroke:#181818;stroke-width:0.5;" x1="3628.5" x2="3801.5" y1="243.4" y2="243.4"/></g><!--class UserSelectionComponent--><g id="elem_UserSelectionComponent"><rect fill="#F1F1F1" height="48" id="UserSelectionComponent" rx="2.5" ry="2.5" style="stroke:#181818;stroke-width:0.5;" width="194" x="3838" y="203.4"/><ellipse cx="3853" cy="219.4" fill="#ADD1B2" rx="11" ry="11" style="stroke:#181818;stroke-width:1.0;"/><path d="M3848,220.5562 C3848,223.0562 3850.1406,224.8687 3853.0625,224.8687 C3854.2969,224.8687 3855.4688,224.5719 3856.2188,224.0562 C3856.8281,223.6344 3857.1563,223.2125 3857.1563,222.8062 C3857.1563,222.3375 3856.7344,221.9312 3856.2344,221.9312 C3856,221.9312 3855.7813,222.0094 3855.5781,222.2125 C3855.1406,222.65 3855.1406,222.65 3854.9688,222.7437 C3854.5156,222.9781 3853.875,223.1187 3853.1094,223.1187 C3851.1094,223.1187 3849.8281,222.1031 3849.8281,220.525 L3849.8281,219.4781 C3849.8281,217.775 3851.0469,216.5719 3852.75,216.5719 C3853.3281,216.5719 3853.9063,216.7125 3854.375,216.9625 C3854.8438,217.2281 3855.0156,217.4156 3855.0781,217.775 C3855.2031,218.4469 3855.4531,218.6969 3855.9844,218.6969 C3856.2656,218.6969 3856.5469,218.5562 3856.7344,218.3375 C3856.8594,218.1656 3856.9063,217.9937 3856.9063,217.5562 L3856.9063,216.1969 C3856.9063,215.775 3856.8906,215.6344 3856.7656,215.4625 C3856.5938,215.2125 3856.3125,215.0562 3855.9844,215.0562 C3855.6719,215.0562 3855.4688,215.1656 3855.25,215.4312 C3854.0781,214.9312 3853.6406,214.8219 3852.6875,214.8219 C3850.0156,214.8219 3848,216.8375 3848,219.4625 L3848,220.5562 Z " fill="#000000"/><text fill="#000000" font-family="sans-serif" font-size="14" lengthAdjust="spacing" textLength="162" x="3867" y="224.006">UserSelectionComponent</text><line style="stroke:#181818;stroke-width:0.5;" x1="3839" x2="4031" y1="235.4" y2="235.4"/><line style="stroke:#181818;stroke-width:0.5;" x1="3839" x2="4031" y1="243.4" y2="243.4"/></g><!--class NavBarDashboard--><g id="elem_NavBarDashboard"><rect fill="#F1F1F1" height="48" id="NavBarDashboard" rx="2.5" ry="2.5" style="stroke:#181818;stroke-width:0.5;" width="149" x="12.5" y="7"/><ellipse cx="27.5" cy="23" fill="#ADD1B2" rx="11" ry="11" style="stroke:#181818;stroke-width:1.0;"/><path d="M22.5,24.1563 C22.5,26.6563 24.6406,28.4688 27.5625,28.4688 C28.7969,28.4688 29.9688,28.1719 30.7188,27.6563 C31.3281,27.2344 31.6563,26.8125 31.6563,26.4063 C31.6563,25.9375 31.2344,25.5313 30.7344,25.5313 C30.5,25.5313 30.2813,25.6094 30.0781,25.8125 C29.6406,26.25 29.6406,26.25 29.4688,26.3438 C29.0156,26.5781 28.375,26.7188 27.6094,26.7188 C25.6094,26.7188 24.3281,25.7031 24.3281,24.125 L24.3281,23.0781 C24.3281,21.375 25.5469,20.1719 27.25,20.1719 C27.8281,20.1719 28.4063,20.3125 28.875,20.5625 C29.3438,20.8281 29.5156,21.0156 29.5781,21.375 C29.7031,22.0469 29.9531,22.2969 30.4844,22.2969 C30.7656,22.2969 31.0469,22.1563 31.2344,21.9375 C31.3594,21.7656 31.4063,21.5938 31.4063,21.1563 L31.4063,19.7969 C31.4063,19.375 31.3906,19.2344 31.2656,19.0625 C31.0938,18.8125 30.8125,18.6563 30.4844,18.6563 C30.1719,18.6563 29.9688,18.7656 29.75,19.0313 C28.5781,18.5313 28.1406,18.4219 27.1875,18.4219 C24.5156,18.4219 22.5,20.4375 22.5,23.0625 L22.5,24.1563 Z " fill="#000000"/><text fill="#000000" font-family="sans-serif" font-size="14" lengthAdjust="spacing" textLength="117" x="41.5" y="27.606">NavBarDashboard</text><line style="stroke:#181818;stroke-width:0.5;" x1="13.5" x2="160.5" y1="39" y2="39"/><line style="stroke:#181818;stroke-width:0.5;" x1="13.5" x2="160.5" y1="47" y2="47"/></g><!--class PaymentComponent--><g id="elem_PaymentComponent"><rect fill="#F1F1F1" height="48" id="PaymentComponent" rx="2.5" ry="2.5" style="stroke:#181818;stroke-width:0.5;" width="162" x="2734" y="7"/><ellipse cx="2749" cy="23" fill="#ADD1B2" rx="11" ry="11" style="stroke:#181818;stroke-width:1.0;"/><path d="M2744,24.1563 C2744,26.6563 2746.1406,28.4688 2749.0625,28.4688 C2750.2969,28.4688 2751.4688,28.1719 2752.2188,27.6563 C2752.8281,27.2344 2753.1563,26.8125 2753.1563,26.4063 C2753.1563,25.9375 2752.7344,25.5313 2752.2344,25.5313 C2752,25.5313 2751.7813,25.6094 2751.5781,25.8125 C2751.1406,26.25 2751.1406,26.25 2750.9688,26.3438 C2750.5156,26.5781 2749.875,26.7188 2749.1094,26.7188 C2747.1094,26.7188 2745.8281,25.7031 2745.8281,24.125 L2745.8281,23.0781 C2745.8281,21.375 2747.0469,20.1719 2748.75,20.1719 C2749.3281,20.1719 2749.9063,20.3125 2750.375,20.5625 C2750.8438,20.8281 2751.0156,21.0156 2751.0781,21.375 C2751.2031,22.0469 2751.4531,22.2969 2751.9844,22.2969 C2752.2656,22.2969 2752.5469,22.1563 2752.7344,21.9375 C2752.8594,21.7656 2752.9063,21.5938 2752.9063,21.1563 L2752.9063,19.7969 C2752.9063,19.375 2752.8906,19.2344 2752.7656,19.0625 C2752.5938,18.8125 2752.3125,18.6563 2751.9844,18.6563 C2751.6719,18.6563 2751.4688,18.7656 2751.25,19.0313 C2750.0781,18.5313 2749.6406,18.4219 2748.6875,18.4219 C2746.0156,18.4219 2744,20.4375 2744,23.0625 L2744,24.1563 Z " fill="#000000"/><text fill="#000000" font-family="sans-serif" font-size="14" lengthAdjust="spacing" textLength="130" x="2763" y="27.606">PaymentComponent</text><line style="stroke:#181818;stroke-width:0.5;" x1="2735" x2="2895" y1="39" y2="39"/><line style="stroke:#181818;stroke-width:0.5;" x1="2735" x2="2895" y1="47" y2="47"/></g><!--link UserInfo to UserRol--><g id="link_UserInfo_UserRol"><path codeLine="149" d="M2603.37,553.05 C2647.83,588 2697.16,626.78 2731.11,653.47 " fill="none" id="UserInfo-UserRol" style="stroke:#181818;stroke-width:1.0;"/><polygon fill="#000000" points="2677.5308,603.0901,2672.2362,595.1896,2668.6036,599.8105,2677.5308,603.0901" style="stroke:#000000;stroke-width:1.0;"/><text fill="#000000" font-family="sans-serif" font-size="13" lengthAdjust="spacing" textLength="21" x="2682.6" y="604.277">has</text><text fill="#000000" font-family="sans-serif" font-size="13" lengthAdjust="spacing" textLength="7" x="2605.0385" y="572.9345">1</text><text fill="#000000" font-family="sans-serif" font-size="13" lengthAdjust="spacing" textLength="7" x="2716.5923" y="643.7349">1</text></g><!--link UserSelectionInfo to UserRol--><g id="link_UserSelectionInfo_UserRol"><path codeLine="150" d="M2773,561.41 C2773,587.66 2773,615.32 2773,637.92 " fill="none" id="UserSelectionInfo-UserRol" style="stroke:#181818;stroke-width:1.0;"/><polygon fill="#000000" points="2778,605,2780.9389,595.9549,2775.0611,595.9549,2778,605" style="stroke:#000000;stroke-width:1.0;"/><text fill="#000000" font-family="sans-serif" font-size="13" lengthAdjust="spacing" textLength="21" x="2787" y="604.277">has</text><text fill="#000000" font-family="sans-serif" font-size="13" lengthAdjust="spacing" textLength="7" x="2765.7211" y="581.3928">1</text><text fill="#000000" font-family="sans-serif" font-size="13" lengthAdjust="spacing" textLength="7" x="2765.4859" y="626.6722">1</text></g><!--link RequestCommand to RequestContent--><g id="link_RequestCommand_RequestContent"><path codeLine="151" d="M1675,302.22 C1675,347.39 1675,402.89 1675,437.11 " fill="none" id="RequestCommand-RequestContent" style="stroke:#181818;stroke-width:1.0;"/><polygon fill="#000000" points="1680,345.6,1682.9389,336.5549,1677.0611,336.5549,1680,345.6" style="stroke:#000000;stroke-width:1.0;"/><text fill="#000000" font-family="sans-serif" font-size="13" lengthAdjust="spacing" textLength="49" x="1689" y="344.877">contains</text><text fill="#000000" font-family="sans-serif" font-size="13" lengthAdjust="spacing" textLength="7" x="1667.6773" y="321.9136">1</text><text fill="#000000" font-family="sans-serif" font-size="13" lengthAdjust="spacing" textLength="7" x="1667.2781" y="425.9185">1</text></g><!--link UserUpdateRequest to UserUpdationInfo--><g id="link_UserUpdateRequest_UserUpdationInfo"><path codeLine="152" d="M1155,268.67 C1155,305.46 1155,360.52 1155,403.61 " fill="none" id="UserUpdateRequest-UserUpdationInfo" style="stroke:#181818;stroke-width:1.0;"/><polygon fill="#000000" points="1160,345.6,1162.9389,336.5549,1157.0611,336.5549,1160,345.6" style="stroke:#000000;stroke-width:1.0;"/><text fill="#000000" font-family="sans-serif" font-size="13" lengthAdjust="spacing" textLength="49" x="1169" y="344.877">contains</text><text fill="#000000" font-family="sans-serif" font-size="13" lengthAdjust="spacing" textLength="7" x="1147.4641" y="288.2609">1</text><text fill="#000000" font-family="sans-serif" font-size="13" lengthAdjust="spacing" textLength="7" x="1147.6172" y="392.6381">1</text></g><!--link UserTournamentRegistration to Tournament--><g id="link_UserTournamentRegistration_Tournament"><path codeLine="153" d="M2127.72,285.42 C2103.47,329.61 2070.49,389.73 2048.98,428.94 " fill="none" id="UserTournamentRegistration-Tournament" style="stroke:#181818;stroke-width:1.0;"/><polygon fill="#000000" points="2103.495,344.9836,2110.4223,338.4672,2105.2691,335.64,2103.495,344.9836" style="stroke:#000000;stroke-width:1.0;"/><text fill="#000000" font-family="sans-serif" font-size="13" lengthAdjust="spacing" textLength="69" x="2114.9" y="344.877">registers for</text><text fill="#000000" font-family="sans-serif" font-size="13" lengthAdjust="spacing" textLength="7" x="2116.6986" y="305.1075">1</text><text fill="#000000" font-family="sans-serif" font-size="13" lengthAdjust="spacing" textLength="7" x="2045.1563" y="417.7223">1</text></g><!--link UserTournamentRegistration to UserInfo--><g id="link_UserTournamentRegistration_UserInfo"><path codeLine="154" d="M2258.6,285.45 C2282.4,299.95 2307.44,315.94 2330,331.8 C2354.11,348.76 2379.22,368.12 2402.48,386.84 " fill="none" id="UserTournamentRegistration-UserInfo" style="stroke:#181818;stroke-width:1.0;"/><polygon fill="#000000" points="2358.2371,343.4802,2352.5363,335.8676,2349.1505,340.6723,2358.2371,343.4802" style="stroke:#000000;stroke-width:1.0;"/><text fill="#000000" font-family="sans-serif" font-size="13" lengthAdjust="spacing" textLength="50" x="2363.15" y="344.877">registers</text><text fill="#000000" font-family="sans-serif" font-size="13" lengthAdjust="spacing" textLength="7" x="2262.7116" y="305.1409">1</text><text fill="#000000" font-family="sans-serif" font-size="13" lengthAdjust="spacing" textLength="7" x="2386.2594" y="375.587">1</text></g><!--link TrainingRegistration to Training--><g id="link_TrainingRegistration_Training"><path codeLine="155" d="M2333.34,268.62 C2291.42,297.4 2242.35,331.17 2242,331.8 C2227.22,358.5 2225.72,392.8 2227.92,420.43 " fill="none" id="TrainingRegistration-Training" style="stroke:#181818;stroke-width:1.0;"/><polygon fill="#000000" points="2244.1481,344.7069,2251.7212,338.9538,2246.8933,335.6011,2244.1481,344.7069" style="stroke:#000000;stroke-width:1.0;"/><text fill="#000000" font-family="sans-serif" font-size="13" lengthAdjust="spacing" textLength="69" x="2256" y="344.877">registers for</text><text fill="#000000" font-family="sans-serif" font-size="13" lengthAdjust="spacing" textLength="7" x="2316.8218" y="288.2032">1</text><text fill="#000000" font-family="sans-serif" font-size="13" lengthAdjust="spacing" textLength="7" x="2219.2192" y="409.1689">1</text></g><!--link TrainingRegistration to UserInfo--><g id="link_TrainingRegistration_UserInfo"><path codeLine="156" d="M2412,268.42 C2421.37,287.49 2432.52,310.7 2442,331.8 C2449.98,349.57 2458.21,368.79 2465.85,387.06 " fill="none" id="TrainingRegistration-UserInfo" style="stroke:#181818;stroke-width:1.0;"/><polygon fill="#000000" points="2455.5966,345.153,2454.5343,335.7019,2449.182,338.1313,2455.5966,345.153" style="stroke:#000000;stroke-width:1.0;"/><text fill="#000000" font-family="sans-serif" font-size="13" lengthAdjust="spacing" textLength="50" x="2462.53" y="344.877">registers</text><text fill="#000000" font-family="sans-serif" font-size="13" lengthAdjust="spacing" textLength="7" x="2407.6297" y="288.2777">1</text><text fill="#000000" font-family="sans-serif" font-size="13" lengthAdjust="spacing" textLength="7" x="2455.3568" y="375.5456">1</text></g><!--link Tuition to UserInfo--><g id="link_Tuition_UserInfo"><path codeLine="157" d="M2587.54,277.09 C2573.03,308.53 2553.79,350.24 2536.95,386.74 " fill="none" id="Tuition-UserInfo" style="stroke:#181818;stroke-width:1.0;"/><polygon fill="#000000" points="2564.0553,345.1401,2570.5132,338.1582,2565.176,335.6958,2564.0553,345.1401" style="stroke:#000000;stroke-width:1.0;"/><text fill="#000000" font-family="sans-serif" font-size="13" lengthAdjust="spacing" textLength="60" x="2575.15" y="344.877">belongs to</text><text fill="#000000" font-family="sans-serif" font-size="13" lengthAdjust="spacing" textLength="7" x="2577.2139" y="296.5329">1</text><text fill="#000000" font-family="sans-serif" font-size="13" lengthAdjust="spacing" textLength="7" x="2533.0182" y="375.7604">1</text></g><!--link TuitionInfo to UserInfo--><g id="link_TuitionInfo_UserInfo"><path codeLine="158" d="M2763.3,268.5 C2749.28,279.33 2734.07,291.04 2720,301.8 C2683.69,329.56 2643.9,359.74 2608.2,386.73 " fill="none" id="TuitionInfo-UserInfo" style="stroke:#181818;stroke-width:1.0;"/><polygon fill="#000000" points="2678.8436,343.6312,2687.8187,340.485,2684.2553,335.8105,2678.8436,343.6312" style="stroke:#000000;stroke-width:1.0;"/><text fill="#000000" font-family="sans-serif" font-size="13" lengthAdjust="spacing" textLength="60" x="2691.82" y="344.877">belongs to</text><text fill="#000000" font-family="sans-serif" font-size="13" lengthAdjust="spacing" textLength="7" x="2747.5025" y="288.3705">1</text><text fill="#000000" font-family="sans-serif" font-size="13" lengthAdjust="spacing" textLength="7" x="2626.9644" y="380.4113">1</text></g><!--link UserUpdateRequest to RequestContent--><g id="link_UserUpdateRequest_RequestContent"><path codeLine="159" d="M1226.76,268.59 C1247.32,279.71 1269.89,291.53 1291,301.8 C1395.13,352.46 1501.6639,397.9169 1579.8939,430.2369 " fill="none" id="UserUpdateRequest-to-RequestContent" style="stroke:#181818;stroke-width:1.0;"/><polygon fill="none" points="1596.53,437.11,1582.1849,424.6916,1577.6028,435.7823,1596.53,437.11" style="stroke:#181818;stroke-width:1.0;"/><text fill="#000000" font-family="sans-serif" font-size="13" lengthAdjust="spacing" textLength="67" x="1385.62" y="344.877">implements</text></g><!--link DeleteTournamentRequest to RequestContent--><g id="link_DeleteTournamentRequest_RequestContent"><path codeLine="160" d="M1444.92,260.1 C1495.65,306.17 1575.9041,379.0196 1626.6841,425.1296 " fill="none" id="DeleteTournamentRequest-to-RequestContent" style="stroke:#181818;stroke-width:1.0;"/><polygon fill="none" points="1640.01,437.23,1630.7175,420.6876,1622.6506,429.5716,1640.01,437.23" style="stroke:#181818;stroke-width:1.0;"/><text fill="#000000" font-family="sans-serif" font-size="13" lengthAdjust="spacing" textLength="67" x="1543.5" y="344.877">implements</text></g><!--link DeleteTrainingRequest to RequestContent--><g id="link_DeleteTrainingRequest_RequestContent"><path codeLine="161" d="M1893.8,260.1 C1845.55,306.17 1769.5884,378.6893 1721.2984,424.7993 " fill="none" id="DeleteTrainingRequest-to-RequestContent" style="stroke:#181818;stroke-width:1.0;"/><polygon fill="none" points="1708.28,437.23,1725.4419,429.1388,1717.1548,420.4599,1708.28,437.23" style="stroke:#181818;stroke-width:1.0;"/><text fill="#000000" font-family="sans-serif" font-size="13" lengthAdjust="spacing" textLength="67" x="1817.09" y="344.877">implements</text></g><!--link InputComponent to Validator--><g id="link_InputComponent_Validator"><path codeLine="164" d="M4111,55.45 C4111,92.92 4111,165.84 4111,203.17 " fill="none" id="InputComponent-Validator" style="stroke:#181818;stroke-width:1.0;"/><polygon fill="#000000" points="4116,98.8,4118.9389,89.7549,4113.0611,89.7549,4116,98.8" style="stroke:#000000;stroke-width:1.0;"/><text fill="#000000" font-family="sans-serif" font-size="13" lengthAdjust="spacing" textLength="28" x="4125" y="98.077">uses</text><text fill="#000000" font-family="sans-serif" font-size="13" lengthAdjust="spacing" textLength="7" x="4103.1906" y="74.9848">1</text><text fill="#000000" font-family="sans-serif" font-size="13" lengthAdjust="spacing" textLength="20" x="4088.3125" y="191.8002">0..*</text></g><!--link UserForm to UserCreationInfo--><g id="link_UserForm_UserCreationInfo"><path codeLine="165" d="M578.31,43.92 C623.8,56.38 692.83,78.52 747,110 C767.56,121.95 787.97,137.15 806.49,152.59 " fill="none" id="UserForm-UserCreationInfo" style="stroke:#181818;stroke-width:1.0;"/><polygon fill="#000000" points="740.1742,95.9499,733.2716,89.4073,730.7443,94.7141,740.1742,95.9499" style="stroke:#000000;stroke-width:1.0;"/><text fill="#000000" font-family="sans-serif" font-size="13" lengthAdjust="spacing" textLength="28" x="744.66" y="98.077">uses</text><text fill="#000000" font-family="sans-serif" font-size="13" lengthAdjust="spacing" textLength="7" x="585.9196" y="41.8371">1</text><text fill="#000000" font-family="sans-serif" font-size="13" lengthAdjust="spacing" textLength="7" x="791.614" y="141.5942">1</text></g><!--link RequestComponent to RequestCommand--><g id="link_RequestComponent_RequestCommand"><path codeLine="166" d="M3308.11,35.9 C2989.36,51.45 1825.4,108.34 1821,110 C1795.38,119.69 1770.76,135.66 1749.28,152.72 " fill="none" id="RequestComponent-RequestCommand" style="stroke:#181818;stroke-width:1.0;"/><polygon fill="#000000" points="2286.294,94.1737,2295.5334,96.4284,2295.0941,90.567,2286.294,94.1737" style="stroke:#000000;stroke-width:1.0;"/><text fill="#000000" font-family="sans-serif" font-size="13" lengthAdjust="spacing" textLength="28" x="2300.28" y="98.077">uses</text><text fill="#000000" font-family="sans-serif" font-size="13" lengthAdjust="spacing" textLength="7" x="3293.4225" y="32.765">1</text><text fill="#000000" font-family="sans-serif" font-size="13" lengthAdjust="spacing" textLength="7" x="1749.5792" y="141.3532">1</text></g><!--link RequestContentVisualizer to RequestContent--><g id="link_RequestContentVisualizer_RequestContent"><path codeLine="167" d="M2992.96,251.58 C2970.12,267.33 2938.23,287.76 2908,301.8 C2845.79,330.7 2828.57,336.99 2761,348.8 C2403.51,411.31 2302.08,313.98 1945,378.8 C1877.65,391.03 1804.15,416.43 1750.86,437.16 " fill="none" id="RequestContentVisualizer-RequestContent" style="stroke:#181818;stroke-width:1.0;"/><polygon fill="#000000" points="2834.0949,341.3388,2843.475,342.9089,2842.6064,337.0956,2834.0949,341.3388" style="stroke:#000000;stroke-width:1.0;"/><text fill="#000000" font-family="sans-serif" font-size="13" lengthAdjust="spacing" textLength="58" x="2848.04" y="344.877">visualizes</text><text fill="#000000" font-family="sans-serif" font-size="13" lengthAdjust="spacing" textLength="7" x="2977.2971" y="271.4521">1</text><text fill="#000000" font-family="sans-serif" font-size="13" lengthAdjust="spacing" textLength="7" x="1758.7843" y="425.9788">1</text></g><!--link UserInfoComponent to UserInfo--><g id="link_UserInfoComponent_UserInfo"><path codeLine="168" d="M3220.95,251.55 C3198.31,280.22 3155.39,327.82 3106,348.8 C3009.67,389.71 2735.24,345.58 2636,378.8 C2629.25,381.06 2622.51,383.74 2615.84,386.73 " fill="none" id="UserInfoComponent-UserInfo" style="stroke:#181818;stroke-width:1.0;"/><polygon fill="#000000" points="3135.8603,341.6901,3145.3285,342.5863,3144.047,336.8499,3135.8603,341.6901" style="stroke:#000000;stroke-width:1.0;"/><text fill="#000000" font-family="sans-serif" font-size="13" lengthAdjust="spacing" textLength="48" x="3149.74" y="344.877">displays</text><text fill="#000000" font-family="sans-serif" font-size="13" lengthAdjust="spacing" textLength="7" x="3208.9409" y="271.4148">1</text><text fill="#000000" font-family="sans-serif" font-size="13" lengthAdjust="spacing" textLength="7" x="2626.5578" y="392.0855">1</text></g><!--link UserRoleManagement to UserInfo--><g id="link_UserRoleManagement_UserInfo"><path codeLine="169" d="M3684.33,251.73 C3639.96,285.23 3561.49,343.57 3546,348.8 C3354.32,413.6 2828.83,317.54 2636,378.8 C2628.94,381.04 2621.91,383.76 2614.96,386.83 " fill="none" id="UserRoleManagement-UserInfo" style="stroke:#181818;stroke-width:1.0;"/><polygon fill="#000000" points="3571.9994,341.2267,3581.3415,343.0087,3580.6048,337.1772,3571.9994,341.2267" style="stroke:#000000;stroke-width:1.0;"/><text fill="#000000" font-family="sans-serif" font-size="13" lengthAdjust="spacing" textLength="53" x="3585.96" y="344.877">manages</text><text fill="#000000" font-family="sans-serif" font-size="13" lengthAdjust="spacing" textLength="7" x="3669.0011" y="271.6387">1</text><text fill="#000000" font-family="sans-serif" font-size="13" lengthAdjust="spacing" textLength="7" x="2618.3274" y="375.5761">1</text></g><!--link UserSelectionComponent to UserSelectionInfo--><g id="link_UserSelectionComponent_UserSelectionInfo"><path codeLine="170" d="M3904.2,251.59 C3881.81,267.54 3850.25,288.22 3820,301.8 C3750.05,333.21 3729.06,333.14 3654,348.8 C3384.64,405.02 3063.26,441.22 2892.89,458.03 " fill="none" id="UserSelectionComponent-UserSelectionInfo" style="stroke:#181818;stroke-width:1.0;"/><polygon fill="#000000" points="3736.211,341.6,3745.6612,342.6705,3744.4855,336.9114,3736.211,341.6" style="stroke:#000000;stroke-width:1.0;"/><text fill="#000000" font-family="sans-serif" font-size="13" lengthAdjust="spacing" textLength="42" x="3750.11" y="344.877">selects</text><text fill="#000000" font-family="sans-serif" font-size="13" lengthAdjust="spacing" textLength="7" x="3888.8394" y="271.4646">1</text><text fill="#000000" font-family="sans-serif" font-size="13" lengthAdjust="spacing" textLength="20" x="2900.3993" y="453.9988">0..*</text></g><!--link NavBarDashboard to LinkData--><g id="link_NavBarDashboard_LinkData"><path codeLine="171" d="M87,55.45 C87,85.64 87,138.87 87,177.94 " fill="none" id="NavBarDashboard-LinkData" style="stroke:#181818;stroke-width:1.0;"/><polygon fill="#000000" points="92,98.8,94.9389,89.7549,89.0611,89.7549,92,98.8" style="stroke:#000000;stroke-width:1.0;"/><text fill="#000000" font-family="sans-serif" font-size="13" lengthAdjust="spacing" textLength="49" x="101" y="98.077">contains</text><text fill="#000000" font-family="sans-serif" font-size="13" lengthAdjust="spacing" textLength="7" x="79.1906" y="74.9848">1</text><text fill="#000000" font-family="sans-serif" font-size="13" lengthAdjust="spacing" textLength="20" x="65.5313" y="166.6951">0..*</text></g><!--link UserForm to ExistanceValues--><g id="link_UserForm_ExistanceValues"><path codeLine="172" d="M481.62,48.85 C446.75,62.31 399.59,83.33 363,110 C333.48,131.52 305.59,161.94 285.55,186.29 " fill="none" id="UserForm-ExistanceValues" style="stroke:#181818;stroke-width:1.0;"/><polygon fill="#000000" points="402.2257,96.67,411.3193,93.8847,407.9454,89.0716,402.2257,96.67" style="stroke:#000000;stroke-width:1.0;"/><text fill="#000000" font-family="sans-serif" font-size="13" lengthAdjust="spacing" textLength="50" x="415.32" y="98.077">exempts</text><text fill="#000000" font-family="sans-serif" font-size="13" lengthAdjust="spacing" textLength="7" x="467.0001" y="47.4912">1</text><text fill="#000000" font-family="sans-serif" font-size="13" lengthAdjust="spacing" textLength="22" x="266.9102" y="175.0637">0..1</text></g><!--link PaymentComponent to TuitionInfo--><g id="link_PaymentComponent_TuitionInfo"><path codeLine="175" d="M2815,55.45 C2815,87.87 2815,146.83 2815,186.31 " fill="none" id="PaymentComponent-TuitionInfo" style="stroke:#181818;stroke-width:1.0;"/><polygon fill="#000000" points="2820,98.8,2822.9389,89.7549,2817.0611,89.7549,2820,98.8" style="stroke:#000000;stroke-width:1.0;"/><text fill="#000000" font-family="sans-serif" font-size="13" lengthAdjust="spacing" textLength="43" x="2829" y="98.077">creates</text><text fill="#000000" font-family="sans-serif" font-size="13" lengthAdjust="spacing" textLength="7" x="2807.1906" y="74.9848">1</text><text fill="#000000" font-family="sans-serif" font-size="13" lengthAdjust="spacing" textLength="7" x="2807.3984" y="175.0872">1</text></g><!--link RequestComponent to UserInfo--><g id="link_RequestComponent_UserInfo"><path codeLine="176" d="M3390.46,55.42 C3394.49,106.59 3396.66,229.54 3335,301.8 C3295.66,347.9 3266.37,336.63 3207,348.8 C3082.52,374.32 2756.72,339.15 2636,378.8 C2629.1,381.07 2622.22,383.78 2615.41,386.82 " fill="none" id="RequestComponent-UserInfo" style="stroke:#181818;stroke-width:1.0;"/><polygon fill="#000000" points="3392.4926,229.6658,3401.9648,228.8119,3399.6539,223.4074,3392.4926,229.6658" style="stroke:#000000;stroke-width:1.0;"/><text fill="#000000" font-family="sans-serif" font-size="13" lengthAdjust="spacing" textLength="54" x="3406.09" y="231.977">requester</text><text fill="#000000" font-family="sans-serif" font-size="13" lengthAdjust="spacing" textLength="7" x="3383.2195" y="74.9479">1</text><text fill="#000000" font-family="sans-serif" font-size="13" lengthAdjust="spacing" textLength="22" x="2603.1275" y="375.5651">0..1</text></g><!--link RequestComponent to UserInfo--><g id="link_RequestComponent_UserInfo"><path codeLine="177" d="M3423.26,55.39 C3440.54,69.03 3459.6,87.9 3469,110 C3502.36,188.45 3521.58,234.71 3469,301.8 C3415.07,370.61 3364.52,336.26 3278,348.8 C3136.66,369.29 2771.82,334.62 2636,378.8 C2629.09,381.05 2622.21,383.74 2615.4,386.77 " fill="none" id="RequestComponent-UserInfo-1" style="stroke:#181818;stroke-width:1.0;"/><polygon fill="#000000" points="3501.9941,229.5975,3511.4778,228.8839,3509.2471,223.4458,3501.9941,229.5975" style="stroke:#000000;stroke-width:1.0;"/><text fill="#000000" font-family="sans-serif" font-size="13" lengthAdjust="spacing" textLength="50" x="3515.62" y="231.977">approver</text><text fill="#000000" font-family="sans-serif" font-size="13" lengthAdjust="spacing" textLength="7" x="3423.6045" y="74.9109">1</text><text fill="#000000" font-family="sans-serif" font-size="13" lengthAdjust="spacing" textLength="22" x="2623.593" y="374.081">0..1</text></g><!--link UserRoleManagement to UserRol--><g id="link_UserRoleManagement_UserRol"><path codeLine="178" d="M3733.01,251.65 C3750.64,277.44 3772.02,319.31 3751,348.8 C3523.08,668.59 2971.17,688.4 2814.88,687.36 " fill="none" id="UserRoleManagement-UserRol" style="stroke:#181818;stroke-width:1.0;"/><polygon fill="#000000" points="3723.3528,472.4437,3732.7845,471.2209,3730.2644,465.9106,3723.3528,472.4437" style="stroke:#000000;stroke-width:1.0;"/><text fill="#000000" font-family="sans-serif" font-size="13" lengthAdjust="spacing" textLength="46" x="3736.87" y="474.577">updates</text><text fill="#000000" font-family="sans-serif" font-size="13" lengthAdjust="spacing" textLength="7" x="3729.5468" y="271.5392">1</text><text fill="#000000" font-family="sans-serif" font-size="13" lengthAdjust="spacing" textLength="7" x="2822.3961" y="683.2379">1</text></g><!--SRC=[rLTRQzim57xFhn1vAMoaRAzvABHD1uMjZApjQpYnJn9HMV8akRIx_FSToR8ZotQICIZioRgS- -NJyHbRu8PBP2LaJx15mwnYIcz1yX_8x0wPiRhARALn4aZOz8eMA7Ds8ost7CsK_PmmTiOkAxkRQHHWCMUP06FGq8LViGU3-beZMAxahTmepyFOUwcAjSQvqyFbjZxBbBGQ34f8pxL6rJspA72Z99tAgbYZhazvZcJSXcUGaRukHwrnPNcfLgDqloUjvP_LzhPZyY7XWwP7mbmOkh9M9MgZKbU7m_9cxk_fj19pR_LIYRuhtqXzbgRqV_E9BWeWggmIi7e6mNCoVAsKG91zbn_A_CGYVjjYHHBPE1NiUZ0LQAxy-Z8lkFGhQbjDzPahtR2UiNjLQGa5oHzju3r9b6Uhj4oTx0KZ2U1UK58q9mcZix92O-COZYfOufOJfy_NeLoDLUo8KSC6K1GrS4bKup4C197JM6UZuBH8guLZGMcdl5LMcMxDXBeOuuuYqkWSYiLX_ODH6P0Sf_5VRQOWLjoPE1x3-luOs1G4n6fLcRnhmmQp7QouD9dcPJOE-a7BAR0sf2duiiJlhbH6VGdtrweeW1xKe4ZNfwYfuxkgmatlFAi5h5pL3z-uTudYFT-hzFkQ24gjdWVK4NCfa0plmI4dRhs131DvRHcybcH8yEkUDYCuYe6zuQleObK5X9tty3OYwjWQYLwWipY6W8u2sruSaz2sJPS_70zmUm2EN6v0sFlfFF7RrBxuCCZs0abaEt0zM2wYIIkC9Lm-BS12OvcW_Js-s0H3qfxEN5oN29czKtcIbfiNGWYG6Jw28ASRoLW05ma2xfJiGZo9EMk6IL_kb3ApuwLX6wLPEZ9EsZbe-d7APZF_QHwlETk1OHUJ_e1nW3XffOWogT0vSxr0aMvKT0inKT5vxNki8ozD92DwDUSK5qT46E9ZSgg8DbInW8l98Ax7cfktfg_t6EkOne2ymvHh54fk_Gz4IpgKj27oVXfciryN_SnnXqSkLcOorkUdCYRjVPJjK7LJqPNK3uxiLfQLRVUjxn_EpzzDsQEVBMcY8D44OaqLVLAwIAFK-LLggVT5diYFoxnkW3wFT-gHqqmewETE7soHvuQiiT7PCQWsIcdEJIdWjM6XxiGl80d1Yd6UmXFqkdqiWdr8813oUoVY3fwlG2_0xDOAT9xmje3PQ-DE0eYOLYaKpXc-q6JZrL0fNEQvBt0Gz1Hka2RzFAqBhGhIaoFbWJoSV8LN5uR16CRTGiQvr1zETsrZfqt3oF1NN53M3_z92Ql1rh_DthW_]--></g></svg>