<?xml version="1.0" encoding="us-ascii" standalone="no"?><svg xmlns="http://www.w3.org/2000/svg" xmlns:xlink="http://www.w3.org/1999/xlink" contentStyleType="text/css" height="698px" preserveAspectRatio="none" style="width:860px;height:698px;background:#FFFFFF;" version="1.1" viewBox="0 0 860 698" width="860px" zoomAndPan="magnify"><defs/><g><text fill="#000000" font-family="sans-serif" font-size="14" font-weight="bold" lengthAdjust="spacing" textLength="439" x="209" y="33.0059">UC_VerInscribirseTorneosUsuario (Inscribirse): Activity Diagram</text><ellipse cx="497.25" cy="57.7999" fill="#222222" rx="10" ry="10" style="stroke:#222222;stroke-width:1.0;"/><rect fill="#F1F1F1" height="34.4001" rx="12.5" ry="12.5" style="stroke:#181818;stroke-width:0.5;" width="302" x="346.25" y="87.7999"/><text fill="#000000" font-family="sans-serif" font-size="12" lengthAdjust="spacing" textLength="282" x="356.25" y="108.948">Usuario navega a la p&#225;gina de Torneos del Usuario</text><rect fill="#F1F1F1" height="34.4001" rx="12.5" ry="12.5" style="stroke:#181818;stroke-width:0.5;" width="334" x="330.25" y="142.2"/><text fill="#000000" font-family="sans-serif" font-size="12" lengthAdjust="spacing" textLength="314" x="340.25" y="163.3481">Sistema carga y muestra Torneos Elegibles y Registrados</text><rect fill="#F1F1F1" height="34.4001" rx="12.5" ry="12.5" style="stroke:#181818;stroke-width:0.5;" width="222" x="386.25" y="196.6001"/><text fill="#000000" font-family="sans-serif" font-size="12" lengthAdjust="spacing" textLength="202" x="396.25" y="217.7482">Usuario identifica un Torneo Elegible</text><rect fill="#F1F1F1" height="34.4001" rx="12.5" ry="12.5" style="stroke:#181818;stroke-width:0.5;" width="294" x="350.25" y="251.0002"/><text fill="#000000" font-family="sans-serif" font-size="12" lengthAdjust="spacing" textLength="274" x="360.25" y="272.1483">Usuario hace clic en "Registrarse" para ese torneo</text><polygon fill="#F1F1F1" points="423.75,305.4003,570.75,305.4003,582.75,317.4003,570.75,329.4003,423.75,329.4003,411.75,317.4003,423.75,305.4003" style="stroke:#181818;stroke-width:0.5;"/><text fill="#000000" font-family="sans-serif" font-size="11" lengthAdjust="spacing" textLength="147" x="423.75" y="321.0193">Usuario autenticado y con ID?</text><text fill="#000000" font-family="sans-serif" font-size="11" lengthAdjust="spacing" textLength="9" x="402.75" y="314.4194">s&#237;</text><text fill="#000000" font-family="sans-serif" font-size="11" lengthAdjust="spacing" textLength="12" x="582.75" y="314.4194">no</text><rect fill="#F1F1F1" height="48.8002" rx="12.5" ry="12.5" style="stroke:#181818;stroke-width:0.5;" width="292" x="146.5" y="339.4003"/><text fill="#000000" font-family="sans-serif" font-size="12" lengthAdjust="spacing" textLength="272" x="156.5" y="360.5484">Sistema env&#237;a solicitud de registro al Backend API</text><text fill="#000000" font-family="sans-serif" font-size="12" lengthAdjust="spacing" textLength="126" x="156.5" y="374.9485">(ID Torneo, ID Usuario)</text><polygon fill="#F1F1F1" points="219,408.2005,366,408.2005,378,420.2005,366,432.2005,219,432.2005,207,420.2005,219,408.2005" style="stroke:#181818;stroke-width:0.5;"/><text fill="#000000" font-family="sans-serif" font-size="11" lengthAdjust="spacing" textLength="147" x="219" y="423.8195">Registro Exitoso en Backend?</text><text fill="#000000" font-family="sans-serif" font-size="11" lengthAdjust="spacing" textLength="9" x="198" y="417.2196">s&#237;</text><text fill="#000000" font-family="sans-serif" font-size="11" lengthAdjust="spacing" textLength="127" x="378" y="417.2196">no - no elegible, error, etc.</text><rect fill="#F1F1F1" height="34.4001" rx="12.5" ry="12.5" style="stroke:#181818;stroke-width:0.5;" width="184" x="67" y="442.2005"/><text fill="#000000" font-family="sans-serif" font-size="12" lengthAdjust="spacing" textLength="164" x="77" y="463.3486">Backend API confirma registro</text><rect fill="#F1F1F1" height="34.4001" rx="12.5" ry="12.5" style="stroke:#181818;stroke-width:0.5;" width="198" x="60" y="496.6006"/><text fill="#000000" font-family="sans-serif" font-size="12" lengthAdjust="spacing" textLength="178" x="70" y="517.7487">Mostrar mensaje de &#233;xito (Toast)</text><rect fill="#F1F1F1" height="34.4001" rx="12.5" ry="12.5" style="stroke:#181818;stroke-width:0.5;" width="296" x="11" y="551.0007"/><text fill="#000000" font-family="sans-serif" font-size="12" lengthAdjust="spacing" textLength="276" x="21" y="572.1488">Actualizar lista de Torneos Elegibles y Registrados</text><rect fill="#F1F1F1" height="34.4001" rx="12.5" ry="12.5" style="stroke:#181818;stroke-width:0.5;" width="161" x="345.5" y="442.2005"/><text fill="#000000" font-family="sans-serif" font-size="12" lengthAdjust="spacing" textLength="141" x="355.5" y="463.3486">Backend API retorna error</text><rect fill="#F1F1F1" height="34.4001" rx="12.5" ry="12.5" style="stroke:#181818;stroke-width:0.5;" width="198" x="327" y="496.6006"/><text fill="#000000" font-family="sans-serif" font-size="12" lengthAdjust="spacing" textLength="178" x="337" y="517.7487">Mostrar mensaje de error (Toast)</text><polygon fill="#F1F1F1" points="292.5,591.4008,304.5,603.4008,292.5,615.4008,280.5,603.4008,292.5,591.4008" style="stroke:#181818;stroke-width:0.5;"/><rect fill="#F1F1F1" height="34.4001" rx="12.5" ry="12.5" style="stroke:#181818;stroke-width:0.5;" width="294" x="555" y="339.4003"/><text fill="#000000" font-family="sans-serif" font-size="12" lengthAdjust="spacing" textLength="274" x="565" y="360.5484">Mostrar mensaje de error "Usuario no identificado"</text><polygon fill="#F1F1F1" points="497.25,621.4008,509.25,633.4008,497.25,645.4008,485.25,633.4008,497.25,621.4008" style="stroke:#181818;stroke-width:0.5;"/><ellipse cx="497.25" cy="676.4008" fill="none" rx="11" ry="11" style="stroke:#222222;stroke-width:1.0;"/><ellipse cx="497.25" cy="676.4008" fill="#222222" rx="6" ry="6" style="stroke:#222222;stroke-width:1.0;"/><line style="stroke:#181818;stroke-width:1.0;" x1="497.25" x2="497.25" y1="67.7999" y2="87.7999"/><polygon fill="#181818" points="493.25,77.7999,497.25,87.7999,501.25,77.7999,497.25,81.7999" style="stroke:#181818;stroke-width:1.0;"/><line style="stroke:#181818;stroke-width:1.0;" x1="497.25" x2="497.25" y1="122.2" y2="142.2"/><polygon fill="#181818" points="493.25,132.2,497.25,142.2,501.25,132.2,497.25,136.2" style="stroke:#181818;stroke-width:1.0;"/><line style="stroke:#181818;stroke-width:1.0;" x1="497.25" x2="497.25" y1="176.6001" y2="196.6001"/><polygon fill="#181818" points="493.25,186.6001,497.25,196.6001,501.25,186.6001,497.25,190.6001" style="stroke:#181818;stroke-width:1.0;"/><line style="stroke:#181818;stroke-width:1.0;" x1="497.25" x2="497.25" y1="231.0002" y2="251.0002"/><polygon fill="#181818" points="493.25,241.0002,497.25,251.0002,501.25,241.0002,497.25,245.0002" style="stroke:#181818;stroke-width:1.0;"/><line style="stroke:#181818;stroke-width:1.0;" x1="159" x2="159" y1="476.6006" y2="496.6006"/><polygon fill="#181818" points="155,486.6006,159,496.6006,163,486.6006,159,490.6006" style="stroke:#181818;stroke-width:1.0;"/><line style="stroke:#181818;stroke-width:1.0;" x1="159" x2="159" y1="531.0007" y2="551.0007"/><polygon fill="#181818" points="155,541.0007,159,551.0007,163,541.0007,159,545.0007" style="stroke:#181818;stroke-width:1.0;"/><line style="stroke:#181818;stroke-width:1.0;" x1="426" x2="426" y1="476.6006" y2="496.6006"/><polygon fill="#181818" points="422,486.6006,426,496.6006,430,486.6006,426,490.6006" style="stroke:#181818;stroke-width:1.0;"/><line style="stroke:#181818;stroke-width:1.0;" x1="207" x2="159" y1="420.2005" y2="420.2005"/><line style="stroke:#181818;stroke-width:1.0;" x1="159" x2="159" y1="420.2005" y2="442.2005"/><polygon fill="#181818" points="155,432.2005,159,442.2005,163,432.2005,159,436.2005" style="stroke:#181818;stroke-width:1.0;"/><line style="stroke:#181818;stroke-width:1.0;" x1="378" x2="426" y1="420.2005" y2="420.2005"/><line style="stroke:#181818;stroke-width:1.0;" x1="426" x2="426" y1="420.2005" y2="442.2005"/><polygon fill="#181818" points="422,432.2005,426,442.2005,430,432.2005,426,436.2005" style="stroke:#181818;stroke-width:1.0;"/><line style="stroke:#181818;stroke-width:1.0;" x1="159" x2="159" y1="585.4008" y2="603.4008"/><line style="stroke:#181818;stroke-width:1.0;" x1="159" x2="280.5" y1="603.4008" y2="603.4008"/><polygon fill="#181818" points="270.5,599.4008,280.5,603.4008,270.5,607.4008,274.5,603.4008" style="stroke:#181818;stroke-width:1.0;"/><line style="stroke:#181818;stroke-width:1.0;" x1="426" x2="426" y1="531.0007" y2="603.4008"/><line style="stroke:#181818;stroke-width:1.0;" x1="426" x2="304.5" y1="603.4008" y2="603.4008"/><polygon fill="#181818" points="314.5,599.4008,304.5,603.4008,314.5,607.4008,310.5,603.4008" style="stroke:#181818;stroke-width:1.0;"/><line style="stroke:#181818;stroke-width:1.0;" x1="292.5" x2="292.5" y1="388.2005" y2="408.2005"/><polygon fill="#181818" points="288.5,398.2005,292.5,408.2005,296.5,398.2005,292.5,402.2005" style="stroke:#181818;stroke-width:1.0;"/><line style="stroke:#181818;stroke-width:1.0;" x1="411.75" x2="292.5" y1="317.4003" y2="317.4003"/><line style="stroke:#181818;stroke-width:1.0;" x1="292.5" x2="292.5" y1="317.4003" y2="339.4003"/><polygon fill="#181818" points="288.5,329.4003,292.5,339.4003,296.5,329.4003,292.5,333.4003" style="stroke:#181818;stroke-width:1.0;"/><line style="stroke:#181818;stroke-width:1.0;" x1="582.75" x2="702" y1="317.4003" y2="317.4003"/><line style="stroke:#181818;stroke-width:1.0;" x1="702" x2="702" y1="317.4003" y2="339.4003"/><polygon fill="#181818" points="698,329.4003,702,339.4003,706,329.4003,702,333.4003" style="stroke:#181818;stroke-width:1.0;"/><line style="stroke:#181818;stroke-width:1.0;" x1="292.5" x2="292.5" y1="615.4008" y2="633.4008"/><line style="stroke:#181818;stroke-width:1.0;" x1="292.5" x2="485.25" y1="633.4008" y2="633.4008"/><polygon fill="#181818" points="475.25,629.4008,485.25,633.4008,475.25,637.4008,479.25,633.4008" style="stroke:#181818;stroke-width:1.0;"/><line style="stroke:#181818;stroke-width:1.0;" x1="702" x2="702" y1="373.8004" y2="633.4008"/><line style="stroke:#181818;stroke-width:1.0;" x1="702" x2="509.25" y1="633.4008" y2="633.4008"/><polygon fill="#181818" points="519.25,629.4008,509.25,633.4008,519.25,637.4008,515.25,633.4008" style="stroke:#181818;stroke-width:1.0;"/><line style="stroke:#181818;stroke-width:1.0;" x1="497.25" x2="497.25" y1="285.4003" y2="305.4003"/><polygon fill="#181818" points="493.25,295.4003,497.25,305.4003,501.25,295.4003,497.25,299.4003" style="stroke:#181818;stroke-width:1.0;"/><line style="stroke:#181818;stroke-width:1.0;" x1="497.25" x2="497.25" y1="645.4008" y2="665.4008"/><polygon fill="#181818" points="493.25,655.4008,497.25,665.4008,501.25,655.4008,497.25,659.4008" style="stroke:#181818;stroke-width:1.0;"/><!--SRC=[TLAzRjim4Dxr51yyIK3Q1x268gqpU0WGf4cd0C65EZlNqgH1deocRzCnGvx2BvQZBRbgKIyaWVl-xeugwXdtNnw_SLg6x98yISfy5rFWcEzpJqaYwacfcUFIgUn4Nx0GMYVQL5LMIbhDHtoW7Qy914_Oxd-l9H0wng1gJuy1sbRphvALDmH7oJWlsFISDT49VULvBK-UizLkxLcANSpj7plfEAYin17wCF1Ej0dkcHp3UN7WWDcePJtDi2LpvCpG0xkjP8Lwv56lnS2PhMLmCM2v-DH0dqscplktfW9ERN3OxTy8EPgFQD-LnjFHofGyFfFxmQ73vSto8TJBnP3tmZJ7eJIj2PO0joFlwgTepB7a7lZ_-bk2YN89kP9aSKRhzeYvZeUMiU6GwJkNSFlN8exwBbBMPi3PYdloyikWtlX_hU_iGW3sDi8wH7o07Jm0By0fnMINke__2PkuJ9sEgFD13-LfJkFBgXez3riuIvkT_kRqltHnrbP7cQnn-mu0]--></g></svg>