<?xml version="1.0" encoding="us-ascii" standalone="no"?><svg xmlns="http://www.w3.org/2000/svg" xmlns:xlink="http://www.w3.org/1999/xlink" contentStyleType="text/css" height="634px" preserveAspectRatio="none" style="width:691px;height:634px;background:#FFFFFF;" version="1.1" viewBox="0 0 691 634" width="691px" zoomAndPan="magnify"><defs/><g><text fill="#000000" font-family="sans-serif" font-size="14" font-weight="bold" lengthAdjust="spacing" textLength="471" x="108.5" y="33.0059">UC_GestionarSolicitudesAdmin (Aprobar Solicitud): Activity Diagram</text><ellipse cx="408.75" cy="57.7999" fill="#222222" rx="10" ry="10" style="stroke:#222222;stroke-width:1.0;"/><rect fill="#F1F1F1" height="34.4001" rx="12.5" ry="12.5" style="stroke:#181818;stroke-width:0.5;" width="305" x="256.25" y="87.7999"/><text fill="#000000" font-family="sans-serif" font-size="12" lengthAdjust="spacing" textLength="285" x="266.25" y="108.948">Admin navega a la p&#225;gina de Gesti&#243;n de Solicitudes</text><rect fill="#F1F1F1" height="34.4001" rx="12.5" ry="12.5" style="stroke:#181818;stroke-width:0.5;" width="413" x="202.25" y="142.2"/><text fill="#000000" font-family="sans-serif" font-size="12" lengthAdjust="spacing" textLength="393" x="212.25" y="163.3481">Sistema carga y muestra todas las solicitudes pendientes y completadas</text><rect fill="#F1F1F1" height="34.4001" rx="12.5" ry="12.5" style="stroke:#181818;stroke-width:0.5;" width="237" x="290.25" y="196.6001"/><text fill="#000000" font-family="sans-serif" font-size="12" lengthAdjust="spacing" textLength="217" x="300.25" y="217.7482">Admin identifica una solicitud pendiente</text><rect fill="#F1F1F1" height="34.4001" rx="12.5" ry="12.5" style="stroke:#181818;stroke-width:0.5;" width="277" x="270.25" y="251.0002"/><text fill="#000000" font-family="sans-serif" font-size="12" lengthAdjust="spacing" textLength="257" x="280.25" y="272.1483">Admin hace clic en "Aprobar" para esa solicitud</text><rect fill="#F1F1F1" height="48.8002" rx="12.5" ry="12.5" style="stroke:#181818;stroke-width:0.5;" width="319" x="249.25" y="305.4003"/><text fill="#000000" font-family="sans-serif" font-size="12" lengthAdjust="spacing" textLength="299" x="259.25" y="326.5484">Sistema env&#237;a comando de aprobaci&#243;n al Backend API</text><text fill="#000000" font-family="sans-serif" font-size="12" lengthAdjust="spacing" textLength="229" x="259.25" y="340.9485">(ID Solicitud, estado=aprobado, ID Admin)</text><polygon fill="#F1F1F1" points="326.75,374.2005,490.75,374.2005,502.75,386.2005,490.75,398.2005,326.75,398.2005,314.75,386.2005,326.75,374.2005" style="stroke:#181818;stroke-width:0.5;"/><text fill="#000000" font-family="sans-serif" font-size="11" lengthAdjust="spacing" textLength="164" x="326.75" y="389.8195">Completado Exitoso en Backend?</text><text fill="#000000" font-family="sans-serif" font-size="11" lengthAdjust="spacing" textLength="9" x="305.75" y="383.2196">s&#237;</text><text fill="#000000" font-family="sans-serif" font-size="11" lengthAdjust="spacing" textLength="106" x="502.75" y="383.2196">no - error en backend</text><rect fill="#F1F1F1" height="34.4001" rx="12.5" ry="12.5" style="stroke:#181818;stroke-width:0.5;" width="451" x="11" y="408.2005"/><text fill="#000000" font-family="sans-serif" font-size="12" lengthAdjust="spacing" textLength="431" x="21" y="429.3486">Backend API procesa la solicitud (ejecuta comando asociado, actualiza estado)</text><rect fill="#F1F1F1" height="34.4001" rx="12.5" ry="12.5" style="stroke:#181818;stroke-width:0.5;" width="198" x="137.5" y="462.6006"/><text fill="#000000" font-family="sans-serif" font-size="12" lengthAdjust="spacing" textLength="178" x="147.5" y="483.7487">Mostrar mensaje de &#233;xito (Toast)</text><rect fill="#F1F1F1" height="34.4001" rx="12.5" ry="12.5" style="stroke:#181818;stroke-width:0.5;" width="379" x="47" y="517.0007"/><text fill="#000000" font-family="sans-serif" font-size="12" lengthAdjust="spacing" textLength="359" x="57" y="538.1488">Actualizar estado de la solicitud en la UI (mostrar como Aprobada)</text><rect fill="#F1F1F1" height="34.4001" rx="12.5" ry="12.5" style="stroke:#181818;stroke-width:0.5;" width="161" x="500.5" y="408.2005"/><text fill="#000000" font-family="sans-serif" font-size="12" lengthAdjust="spacing" textLength="141" x="510.5" y="429.3486">Backend API retorna error</text><rect fill="#F1F1F1" height="34.4001" rx="12.5" ry="12.5" style="stroke:#181818;stroke-width:0.5;" width="198" x="482" y="462.6006"/><text fill="#000000" font-family="sans-serif" font-size="12" lengthAdjust="spacing" textLength="178" x="492" y="483.7487">Mostrar mensaje de error (Toast)</text><polygon fill="#F1F1F1" points="408.75,557.4008,420.75,569.4008,408.75,581.4008,396.75,569.4008,408.75,557.4008" style="stroke:#181818;stroke-width:0.5;"/><ellipse cx="408.75" cy="612.4008" fill="none" rx="11" ry="11" style="stroke:#222222;stroke-width:1.0;"/><ellipse cx="408.75" cy="612.4008" fill="#222222" rx="6" ry="6" style="stroke:#222222;stroke-width:1.0;"/><line style="stroke:#181818;stroke-width:1.0;" x1="408.75" x2="408.75" y1="67.7999" y2="87.7999"/><polygon fill="#181818" points="404.75,77.7999,408.75,87.7999,412.75,77.7999,408.75,81.7999" style="stroke:#181818;stroke-width:1.0;"/><line style="stroke:#181818;stroke-width:1.0;" x1="408.75" x2="408.75" y1="122.2" y2="142.2"/><polygon fill="#181818" points="404.75,132.2,408.75,142.2,412.75,132.2,408.75,136.2" style="stroke:#181818;stroke-width:1.0;"/><line style="stroke:#181818;stroke-width:1.0;" x1="408.75" x2="408.75" y1="176.6001" y2="196.6001"/><polygon fill="#181818" points="404.75,186.6001,408.75,196.6001,412.75,186.6001,408.75,190.6001" style="stroke:#181818;stroke-width:1.0;"/><line style="stroke:#181818;stroke-width:1.0;" x1="408.75" x2="408.75" y1="231.0002" y2="251.0002"/><polygon fill="#181818" points="404.75,241.0002,408.75,251.0002,412.75,241.0002,408.75,245.0002" style="stroke:#181818;stroke-width:1.0;"/><line style="stroke:#181818;stroke-width:1.0;" x1="408.75" x2="408.75" y1="285.4003" y2="305.4003"/><polygon fill="#181818" points="404.75,295.4003,408.75,305.4003,412.75,295.4003,408.75,299.4003" style="stroke:#181818;stroke-width:1.0;"/><line style="stroke:#181818;stroke-width:1.0;" x1="236.5" x2="236.5" y1="442.6006" y2="462.6006"/><polygon fill="#181818" points="232.5,452.6006,236.5,462.6006,240.5,452.6006,236.5,456.6006" style="stroke:#181818;stroke-width:1.0;"/><line style="stroke:#181818;stroke-width:1.0;" x1="236.5" x2="236.5" y1="497.0007" y2="517.0007"/><polygon fill="#181818" points="232.5,507.0007,236.5,517.0007,240.5,507.0007,236.5,511.0007" style="stroke:#181818;stroke-width:1.0;"/><line style="stroke:#181818;stroke-width:1.0;" x1="581" x2="581" y1="442.6006" y2="462.6006"/><polygon fill="#181818" points="577,452.6006,581,462.6006,585,452.6006,581,456.6006" style="stroke:#181818;stroke-width:1.0;"/><line style="stroke:#181818;stroke-width:1.0;" x1="314.75" x2="236.5" y1="386.2005" y2="386.2005"/><line style="stroke:#181818;stroke-width:1.0;" x1="236.5" x2="236.5" y1="386.2005" y2="408.2005"/><polygon fill="#181818" points="232.5,398.2005,236.5,408.2005,240.5,398.2005,236.5,402.2005" style="stroke:#181818;stroke-width:1.0;"/><line style="stroke:#181818;stroke-width:1.0;" x1="502.75" x2="581" y1="386.2005" y2="386.2005"/><line style="stroke:#181818;stroke-width:1.0;" x1="581" x2="581" y1="386.2005" y2="408.2005"/><polygon fill="#181818" points="577,398.2005,581,408.2005,585,398.2005,581,402.2005" style="stroke:#181818;stroke-width:1.0;"/><line style="stroke:#181818;stroke-width:1.0;" x1="236.5" x2="236.5" y1="551.4008" y2="569.4008"/><line style="stroke:#181818;stroke-width:1.0;" x1="236.5" x2="396.75" y1="569.4008" y2="569.4008"/><polygon fill="#181818" points="386.75,565.4008,396.75,569.4008,386.75,573.4008,390.75,569.4008" style="stroke:#181818;stroke-width:1.0;"/><line style="stroke:#181818;stroke-width:1.0;" x1="581" x2="581" y1="497.0007" y2="569.4008"/><line style="stroke:#181818;stroke-width:1.0;" x1="581" x2="420.75" y1="569.4008" y2="569.4008"/><polygon fill="#181818" points="430.75,565.4008,420.75,569.4008,430.75,573.4008,426.75,569.4008" style="stroke:#181818;stroke-width:1.0;"/><line style="stroke:#181818;stroke-width:1.0;" x1="408.75" x2="408.75" y1="354.2005" y2="374.2005"/><polygon fill="#181818" points="404.75,364.2005,408.75,374.2005,412.75,364.2005,408.75,368.2005" style="stroke:#181818;stroke-width:1.0;"/><line style="stroke:#181818;stroke-width:1.0;" x1="408.75" x2="408.75" y1="581.4008" y2="601.4008"/><polygon fill="#181818" points="404.75,591.4008,408.75,601.4008,412.75,591.4008,408.75,595.4008" style="stroke:#181818;stroke-width:1.0;"/><!--SRC=[TP91Rjim44NtEiL7LZAGNi16KQX9KNWH842QNO5YGeqTfX9784T6tTjqsKLMFO8krg4asmgAxaJC_F_V9wLU6yRZpRVFdDHBeFWWZNTU-vfJLRS-eAowA4yKSPwirgYS-eFN8suzxIErHP6KeXRhIHFem7i2eI5qmw-z3uIQCOOCVqB-NkHiYlM3JyejmL4qtH5jRwkHe59JCfU4TDb7nw7s7DG-Zt3ITWqhsUBcbEzhc_gTTuJUei_QY_Ay-aoEuMmE3hYQkrwX8qldjD0kA3aSXbVAoHHgoMrerBcn73NuIEwx9Q6wttuDvVRsqlRQJ8rLta-AMgvXun5bjIdy3kNDgO_Wqm-laYIJpOuVLj1dEvPfU5qLm7gH17Dq6RbPDYxvXLsl5rfAulmOJ4vxQlnFcfaCm1pl9DzyHCiXqGldTiFl38BoYr3IQQiwQUCipdjlWetIpezRbEtiQ0I2wOPhCXjk4gCCWdVW62LcoTFKvvzkaLMYFUMu-3_EoUMCcTzwPp-cT7y1]--></g></svg>