<?xml version="1.0" encoding="us-ascii" standalone="no"?><svg xmlns="http://www.w3.org/2000/svg" xmlns:xlink="http://www.w3.org/1999/xlink" contentStyleType="text/css" height="1417px" preserveAspectRatio="none" style="width:2519px;height:1417px;background:#FFFFFF;" version="1.1" viewBox="0 0 2519 1417" width="2519px" zoomAndPan="magnify"><defs/><g><text fill="#000000" font-family="sans-serif" font-size="14" font-weight="bold" lengthAdjust="spacing" textLength="437" x="1042" y="28.0059">UC_GestionarAsistenciaTorneosEntrenador: Sequence Diagram</text><rect fill="#FFFFFF" height="1174.6002" style="stroke:#181818;stroke-width:1.0;" width="10" x="315.5" y="151.1999"/><rect fill="#FFFFFF" height="1085.8002" style="stroke:#181818;stroke-width:1.0;" width="10" x="849" y="239.9999"/><rect fill="#FFFFFF" height="614.8001" style="stroke:#181818;stroke-width:1.0;" width="10" x="1491.5" y="586.6001"/><rect fill="#FFFFFF" height="585.2001" style="stroke:#181818;stroke-width:1.0;" width="10" x="1849.5" y="616.2001"/><rect fill="#FFFFFF" height="29.6" style="stroke:#181818;stroke-width:1.0;" width="10" x="1996.5" y="645.8001"/><rect fill="#FFFFFF" height="496.4001" style="stroke:#181818;stroke-width:1.0;" width="10" x="2199.5" y="705.0001"/><rect fill="#FFFFFF" height="30" style="stroke:#181818;stroke-width:1.0;" width="10" x="2327.5" y="907.6002"/><rect fill="#FFFFFF" height="30" style="stroke:#181818;stroke-width:1.0;" width="10" x="2441.5" y="848.0002"/><rect fill="#FFFFFF" height="30" style="stroke:#181818;stroke-width:1.0;" width="10" x="2441.5" y="1156.4002"/><rect fill="#FFFFFF" height="30" style="stroke:#181818;stroke-width:1.0;" width="10" x="2441.5" y="1280.8001"/><rect fill="none" height="771.4001" style="stroke:#000000;stroke-width:1.5;" width="1794" x="718" y="547.4"/><rect fill="none" height="474.4001" style="stroke:#000000;stroke-width:1.5;" width="1774" x="728" y="720.0001"/><line style="stroke:#181818;stroke-width:0.5;stroke-dasharray:5.0,5.0;" x1="43" x2="43" y1="119.5999" y2="1335.8001"/><line style="stroke:#181818;stroke-width:0.5;stroke-dasharray:5.0,5.0;" x1="320" x2="320" y1="119.5999" y2="1335.8001"/><line style="stroke:#181818;stroke-width:0.5;stroke-dasharray:5.0,5.0;" x1="629" x2="629" y1="119.5999" y2="1335.8001"/><line style="stroke:#181818;stroke-width:0.5;stroke-dasharray:5.0,5.0;" x1="854" x2="854" y1="119.5999" y2="1335.8001"/><line style="stroke:#181818;stroke-width:0.5;stroke-dasharray:5.0,5.0;" x1="1279" x2="1279" y1="119.5999" y2="1335.8001"/><line style="stroke:#181818;stroke-width:0.5;stroke-dasharray:5.0,5.0;" x1="1496" x2="1496" y1="119.5999" y2="1335.8001"/><line style="stroke:#181818;stroke-width:0.5;stroke-dasharray:5.0,5.0;" x1="1854" x2="1854" y1="119.5999" y2="1335.8001"/><line style="stroke:#181818;stroke-width:0.5;stroke-dasharray:5.0,5.0;" x1="2001.5" x2="2001.5" y1="119.5999" y2="1335.8001"/><line style="stroke:#181818;stroke-width:0.5;stroke-dasharray:5.0,5.0;" x1="2204" x2="2204" y1="119.5999" y2="1335.8001"/><line style="stroke:#181818;stroke-width:0.5;stroke-dasharray:5.0,5.0;" x1="2332" x2="2332" y1="119.5999" y2="1335.8001"/><line style="stroke:#181818;stroke-width:0.5;stroke-dasharray:5.0,5.0;" x1="2446" x2="2446" y1="119.5999" y2="1335.8001"/><text fill="#000000" font-family="sans-serif" font-size="14" lengthAdjust="spacing" textLength="71" x="5" y="115.8059">Entrenador</text><ellipse cx="43.5" cy="51.2999" fill="#E2E2F0" rx="8" ry="8" style="stroke:#181818;stroke-width:0.5;"/><path d="M43.5,59.2999 L43.5,86.2999 M30.5,67.2999 L56.5,67.2999 M43.5,86.2999 L30.5,101.2999 M43.5,86.2999 L56.5,101.2999 " fill="none" style="stroke:#181818;stroke-width:0.5;"/><text fill="#000000" font-family="sans-serif" font-size="14" lengthAdjust="spacing" textLength="71" x="5" y="1347.8061">Entrenador</text><ellipse cx="43.5" cy="1360.1" fill="#E2E2F0" rx="8" ry="8" style="stroke:#181818;stroke-width:0.5;"/><path d="M43.5,1368.1 L43.5,1395.1 M30.5,1376.1 L56.5,1376.1 M43.5,1395.1 L30.5,1410.1 M43.5,1395.1 L56.5,1410.1 " fill="none" style="stroke:#181818;stroke-width:0.5;"/><rect fill="#E2E2F0" height="36" rx="2.5" ry="2.5" style="stroke:#181818;stroke-width:0.5;" width="273" x="184" y="82.5999"/><ellipse cx="202" cy="100.5999" fill="#DA70D6" rx="11" ry="11" style="stroke:#181818;stroke-width:1.0;"/><path d="M199.8594,101.9905 L201.4375,101.9905 C202.1094,102.2405 203.5938,103.9124 204.4688,105.4905 L204.5313,105.5999 L205.9063,105.5999 C206.2344,105.5999 206.5156,105.553 206.6563,105.4749 C206.9219,105.3186 207.0938,105.0217 207.0938,104.7092 C207.0938,104.4436 206.9375,104.1624 206.7188,104.0061 C206.5313,103.8655 206.3594,103.8342 205.9063,103.8342 L205.7188,103.8342 C205.0625,102.8499 204.3906,102.053 203.6563,101.4124 C204.8594,100.7874 205.4375,99.9905 205.4375,98.9592 C205.4375,97.2249 203.8906,96.0061 201.6406,96.0061 L197.8438,96.0061 C197.3906,96.0061 197.2656,96.0217 197.0938,96.1311 C196.8281,96.303 196.6563,96.5842 196.6563,96.8811 C196.6563,97.1624 196.8125,97.4436 197.0313,97.5999 C197.2188,97.7249 197.4063,97.7561 197.8438,97.7561 L198.0313,97.7561 L198.0313,103.8342 L197.8438,103.8342 C197.4219,103.8342 197.2656,103.8655 197.0938,103.9749 C196.8281,104.1155 196.6563,104.4124 196.6563,104.7092 C196.6563,105.2874 197.0625,105.5999 197.8438,105.5999 L200.3906,105.5999 C200.75,105.5999 201,105.553 201.1406,105.4749 C201.4063,105.3186 201.5781,105.0217 201.5781,104.7092 C201.5781,104.4436 201.4531,104.178 201.2031,104.0061 C201.0156,103.8655 200.875,103.8342 200.3906,103.8342 L199.8594,103.8342 L199.8594,101.9905 Z M199.8594,100.2405 L199.8594,97.7561 L201.7031,97.7561 C202.7344,97.7561 203.5,98.2405 203.5,98.8967 C203.5,99.678 202.4844,100.2405 201.0938,100.2405 L199.8594,100.2405 Z " fill="#000000"/><text fill="#000000" font-family="sans-serif" font-size="14" lengthAdjust="spacing" textLength="231" x="219" y="102.6058">TrainerTournamentPageComponent</text><rect fill="#E2E2F0" height="36" rx="2.5" ry="2.5" style="stroke:#181818;stroke-width:0.5;" width="273" x="184" y="1334.8001"/><ellipse cx="202" cy="1352.8001" fill="#DA70D6" rx="11" ry="11" style="stroke:#181818;stroke-width:1.0;"/><path d="M199.8594,1354.1907 L201.4375,1354.1907 C202.1094,1354.4407 203.5938,1356.1126 204.4688,1357.6907 L204.5313,1357.8001 L205.9063,1357.8001 C206.2344,1357.8001 206.5156,1357.7532 206.6563,1357.6751 C206.9219,1357.5189 207.0938,1357.222 207.0938,1356.9095 C207.0938,1356.6439 206.9375,1356.3626 206.7188,1356.2064 C206.5313,1356.0657 206.3594,1356.0345 205.9063,1356.0345 L205.7188,1356.0345 C205.0625,1355.0501 204.3906,1354.2532 203.6563,1353.6126 C204.8594,1352.9876 205.4375,1352.1907 205.4375,1351.1595 C205.4375,1349.4251 203.8906,1348.2064 201.6406,1348.2064 L197.8438,1348.2064 C197.3906,1348.2064 197.2656,1348.222 197.0938,1348.3314 C196.8281,1348.5032 196.6563,1348.7845 196.6563,1349.0814 C196.6563,1349.3626 196.8125,1349.6439 197.0313,1349.8001 C197.2188,1349.9251 197.4063,1349.9564 197.8438,1349.9564 L198.0313,1349.9564 L198.0313,1356.0345 L197.8438,1356.0345 C197.4219,1356.0345 197.2656,1356.0657 197.0938,1356.1751 C196.8281,1356.3157 196.6563,1356.6126 196.6563,1356.9095 C196.6563,1357.4876 197.0625,1357.8001 197.8438,1357.8001 L200.3906,1357.8001 C200.75,1357.8001 201,1357.7532 201.1406,1357.6751 C201.4063,1357.5189 201.5781,1357.222 201.5781,1356.9095 C201.5781,1356.6439 201.4531,1356.3782 201.2031,1356.2064 C201.0156,1356.0657 200.875,1356.0345 200.3906,1356.0345 L199.8594,1356.0345 L199.8594,1354.1907 Z M199.8594,1352.4407 L199.8594,1349.9564 L201.7031,1349.9564 C202.7344,1349.9564 203.5,1350.4407 203.5,1351.097 C203.5,1351.8782 202.4844,1352.4407 201.0938,1352.4407 L199.8594,1352.4407 Z " fill="#000000"/><text fill="#000000" font-family="sans-serif" font-size="14" lengthAdjust="spacing" textLength="231" x="219" y="1354.8061">TrainerTournamentPageComponent</text><rect fill="#E2E2F0" height="36" rx="2.5" ry="2.5" style="stroke:#181818;stroke-width:0.5;" width="197" x="531" y="82.5999"/><ellipse cx="549" cy="100.5999" fill="#D3D3D3" rx="11" ry="11" style="stroke:#181818;stroke-width:1.0;"/><path d="M544,101.7561 C544,104.2561 546.1406,106.0686 549.0625,106.0686 C550.2969,106.0686 551.4688,105.7717 552.2188,105.2561 C552.8281,104.8342 553.1563,104.4124 553.1563,104.0061 C553.1563,103.5374 552.7344,103.1311 552.2344,103.1311 C552,103.1311 551.7813,103.2092 551.5781,103.4124 C551.1406,103.8499 551.1406,103.8499 550.9688,103.9436 C550.5156,104.178 549.875,104.3186 549.1094,104.3186 C547.1094,104.3186 545.8281,103.303 545.8281,101.7249 L545.8281,100.678 C545.8281,98.9749 547.0469,97.7717 548.75,97.7717 C549.3281,97.7717 549.9063,97.9124 550.375,98.1624 C550.8438,98.428 551.0156,98.6155 551.0781,98.9749 C551.2031,99.6467 551.4531,99.8967 551.9844,99.8967 C552.2656,99.8967 552.5469,99.7561 552.7344,99.5374 C552.8594,99.3655 552.9063,99.1936 552.9063,98.7561 L552.9063,97.3967 C552.9063,96.9749 552.8906,96.8342 552.7656,96.6624 C552.5938,96.4124 552.3125,96.2561 551.9844,96.2561 C551.6719,96.2561 551.4688,96.3655 551.25,96.6311 C550.0781,96.1311 549.6406,96.0217 548.6875,96.0217 C546.0156,96.0217 544,98.0374 544,100.6624 L544,101.7561 Z " fill="#000000"/><text fill="#000000" font-family="sans-serif" font-size="14" lengthAdjust="spacing" textLength="155" x="566" y="102.6058">TrainerTournamentCard</text><rect fill="#E2E2F0" height="36" rx="2.5" ry="2.5" style="stroke:#181818;stroke-width:0.5;" width="197" x="531" y="1334.8001"/><ellipse cx="549" cy="1352.8001" fill="#D3D3D3" rx="11" ry="11" style="stroke:#181818;stroke-width:1.0;"/><path d="M544,1353.9564 C544,1356.4564 546.1406,1358.2689 549.0625,1358.2689 C550.2969,1358.2689 551.4688,1357.972 552.2188,1357.4564 C552.8281,1357.0345 553.1563,1356.6126 553.1563,1356.2064 C553.1563,1355.7376 552.7344,1355.3314 552.2344,1355.3314 C552,1355.3314 551.7813,1355.4095 551.5781,1355.6126 C551.1406,1356.0501 551.1406,1356.0501 550.9688,1356.1439 C550.5156,1356.3782 549.875,1356.5189 549.1094,1356.5189 C547.1094,1356.5189 545.8281,1355.5032 545.8281,1353.9251 L545.8281,1352.8782 C545.8281,1351.1751 547.0469,1349.972 548.75,1349.972 C549.3281,1349.972 549.9063,1350.1126 550.375,1350.3626 C550.8438,1350.6282 551.0156,1350.8157 551.0781,1351.1751 C551.2031,1351.847 551.4531,1352.097 551.9844,1352.097 C552.2656,1352.097 552.5469,1351.9564 552.7344,1351.7376 C552.8594,1351.5657 552.9063,1351.3939 552.9063,1350.9564 L552.9063,1349.597 C552.9063,1349.1751 552.8906,1349.0345 552.7656,1348.8626 C552.5938,1348.6126 552.3125,1348.4564 551.9844,1348.4564 C551.6719,1348.4564 551.4688,1348.5657 551.25,1348.8314 C550.0781,1348.3314 549.6406,1348.222 548.6875,1348.222 C546.0156,1348.222 544,1350.2376 544,1352.8626 L544,1353.9564 Z " fill="#000000"/><text fill="#000000" font-family="sans-serif" font-size="14" lengthAdjust="spacing" textLength="155" x="566" y="1354.8061">TrainerTournamentCard</text><rect fill="#E2E2F0" height="36" rx="2.5" ry="2.5" style="stroke:#181818;stroke-width:0.5;" width="232" x="738" y="82.5999"/><ellipse cx="756" cy="100.5999" fill="#D3D3D3" rx="11" ry="11" style="stroke:#181818;stroke-width:1.0;"/><path d="M751,101.7561 C751,104.2561 753.1406,106.0686 756.0625,106.0686 C757.2969,106.0686 758.4688,105.7717 759.2188,105.2561 C759.8281,104.8342 760.1563,104.4124 760.1563,104.0061 C760.1563,103.5374 759.7344,103.1311 759.2344,103.1311 C759,103.1311 758.7813,103.2092 758.5781,103.4124 C758.1406,103.8499 758.1406,103.8499 757.9688,103.9436 C757.5156,104.178 756.875,104.3186 756.1094,104.3186 C754.1094,104.3186 752.8281,103.303 752.8281,101.7249 L752.8281,100.678 C752.8281,98.9749 754.0469,97.7717 755.75,97.7717 C756.3281,97.7717 756.9063,97.9124 757.375,98.1624 C757.8438,98.428 758.0156,98.6155 758.0781,98.9749 C758.2031,99.6467 758.4531,99.8967 758.9844,99.8967 C759.2656,99.8967 759.5469,99.7561 759.7344,99.5374 C759.8594,99.3655 759.9063,99.1936 759.9063,98.7561 L759.9063,97.3967 C759.9063,96.9749 759.8906,96.8342 759.7656,96.6624 C759.5938,96.4124 759.3125,96.2561 758.9844,96.2561 C758.6719,96.2561 758.4688,96.3655 758.25,96.6311 C757.0781,96.1311 756.6406,96.0217 755.6875,96.0217 C753.0156,96.0217 751,98.0374 751,100.6624 L751,101.7561 Z " fill="#000000"/><text fill="#000000" font-family="sans-serif" font-size="14" lengthAdjust="spacing" textLength="190" x="773" y="102.6058">TournamentAttendanceDialog</text><rect fill="#E2E2F0" height="36" rx="2.5" ry="2.5" style="stroke:#181818;stroke-width:0.5;" width="232" x="738" y="1334.8001"/><ellipse cx="756" cy="1352.8001" fill="#D3D3D3" rx="11" ry="11" style="stroke:#181818;stroke-width:1.0;"/><path d="M751,1353.9564 C751,1356.4564 753.1406,1358.2689 756.0625,1358.2689 C757.2969,1358.2689 758.4688,1357.972 759.2188,1357.4564 C759.8281,1357.0345 760.1563,1356.6126 760.1563,1356.2064 C760.1563,1355.7376 759.7344,1355.3314 759.2344,1355.3314 C759,1355.3314 758.7813,1355.4095 758.5781,1355.6126 C758.1406,1356.0501 758.1406,1356.0501 757.9688,1356.1439 C757.5156,1356.3782 756.875,1356.5189 756.1094,1356.5189 C754.1094,1356.5189 752.8281,1355.5032 752.8281,1353.9251 L752.8281,1352.8782 C752.8281,1351.1751 754.0469,1349.972 755.75,1349.972 C756.3281,1349.972 756.9063,1350.1126 757.375,1350.3626 C757.8438,1350.6282 758.0156,1350.8157 758.0781,1351.1751 C758.2031,1351.847 758.4531,1352.097 758.9844,1352.097 C759.2656,1352.097 759.5469,1351.9564 759.7344,1351.7376 C759.8594,1351.5657 759.9063,1351.3939 759.9063,1350.9564 L759.9063,1349.597 C759.9063,1349.1751 759.8906,1349.0345 759.7656,1348.8626 C759.5938,1348.6126 759.3125,1348.4564 758.9844,1348.4564 C758.6719,1348.4564 758.4688,1348.5657 758.25,1348.8314 C757.0781,1348.3314 756.6406,1348.222 755.6875,1348.222 C753.0156,1348.222 751,1350.2376 751,1352.8626 L751,1353.9564 Z " fill="#000000"/><text fill="#000000" font-family="sans-serif" font-size="14" lengthAdjust="spacing" textLength="190" x="773" y="1354.8061">TournamentAttendanceDialog</text><rect fill="#E2E2F0" height="36" rx="2.5" ry="2.5" style="stroke:#181818;stroke-width:0.5;" width="172" x="1193" y="82.5999"/><ellipse cx="1211" cy="100.5999" fill="#D3D3D3" rx="11" ry="11" style="stroke:#181818;stroke-width:1.0;"/><path d="M1206,101.7561 C1206,104.2561 1208.1406,106.0686 1211.0625,106.0686 C1212.2969,106.0686 1213.4688,105.7717 1214.2188,105.2561 C1214.8281,104.8342 1215.1563,104.4124 1215.1563,104.0061 C1215.1563,103.5374 1214.7344,103.1311 1214.2344,103.1311 C1214,103.1311 1213.7813,103.2092 1213.5781,103.4124 C1213.1406,103.8499 1213.1406,103.8499 1212.9688,103.9436 C1212.5156,104.178 1211.875,104.3186 1211.1094,104.3186 C1209.1094,104.3186 1207.8281,103.303 1207.8281,101.7249 L1207.8281,100.678 C1207.8281,98.9749 1209.0469,97.7717 1210.75,97.7717 C1211.3281,97.7717 1211.9063,97.9124 1212.375,98.1624 C1212.8438,98.428 1213.0156,98.6155 1213.0781,98.9749 C1213.2031,99.6467 1213.4531,99.8967 1213.9844,99.8967 C1214.2656,99.8967 1214.5469,99.7561 1214.7344,99.5374 C1214.8594,99.3655 1214.9063,99.1936 1214.9063,98.7561 L1214.9063,97.3967 C1214.9063,96.9749 1214.8906,96.8342 1214.7656,96.6624 C1214.5938,96.4124 1214.3125,96.2561 1213.9844,96.2561 C1213.6719,96.2561 1213.4688,96.3655 1213.25,96.6311 C1212.0781,96.1311 1211.6406,96.0217 1210.6875,96.0217 C1208.0156,96.0217 1206,98.0374 1206,100.6624 L1206,101.7561 Z " fill="#000000"/><text fill="#000000" font-family="sans-serif" font-size="14" lengthAdjust="spacing" textLength="130" x="1228" y="102.6058">AttendanceUserRow</text><rect fill="#E2E2F0" height="36" rx="2.5" ry="2.5" style="stroke:#181818;stroke-width:0.5;" width="172" x="1193" y="1334.8001"/><ellipse cx="1211" cy="1352.8001" fill="#D3D3D3" rx="11" ry="11" style="stroke:#181818;stroke-width:1.0;"/><path d="M1206,1353.9564 C1206,1356.4564 1208.1406,1358.2689 1211.0625,1358.2689 C1212.2969,1358.2689 1213.4688,1357.972 1214.2188,1357.4564 C1214.8281,1357.0345 1215.1563,1356.6126 1215.1563,1356.2064 C1215.1563,1355.7376 1214.7344,1355.3314 1214.2344,1355.3314 C1214,1355.3314 1213.7813,1355.4095 1213.5781,1355.6126 C1213.1406,1356.0501 1213.1406,1356.0501 1212.9688,1356.1439 C1212.5156,1356.3782 1211.875,1356.5189 1211.1094,1356.5189 C1209.1094,1356.5189 1207.8281,1355.5032 1207.8281,1353.9251 L1207.8281,1352.8782 C1207.8281,1351.1751 1209.0469,1349.972 1210.75,1349.972 C1211.3281,1349.972 1211.9063,1350.1126 1212.375,1350.3626 C1212.8438,1350.6282 1213.0156,1350.8157 1213.0781,1351.1751 C1213.2031,1351.847 1213.4531,1352.097 1213.9844,1352.097 C1214.2656,1352.097 1214.5469,1351.9564 1214.7344,1351.7376 C1214.8594,1351.5657 1214.9063,1351.3939 1214.9063,1350.9564 L1214.9063,1349.597 C1214.9063,1349.1751 1214.8906,1349.0345 1214.7656,1348.8626 C1214.5938,1348.6126 1214.3125,1348.4564 1213.9844,1348.4564 C1213.6719,1348.4564 1213.4688,1348.5657 1213.25,1348.8314 C1212.0781,1348.3314 1211.6406,1348.222 1210.6875,1348.222 C1208.0156,1348.222 1206,1350.2376 1206,1352.8626 L1206,1353.9564 Z " fill="#000000"/><text fill="#000000" font-family="sans-serif" font-size="14" lengthAdjust="spacing" textLength="130" x="1228" y="1354.8061">AttendanceUserRow</text><rect fill="#E2E2F0" height="47.5999" rx="2.5" ry="2.5" style="stroke:#181818;stroke-width:0.5;" width="243" x="1375" y="71"/><ellipse cx="1393" cy="89" fill="#FFFF00" rx="11" ry="11" style="stroke:#181818;stroke-width:1.0;"/><path d="M1391.8594,90.0625 L1393.1719,90.0625 L1393.1719,90.1094 C1393.1719,90.5 1393.2031,90.6875 1393.2969,90.8438 C1393.4688,91.0938 1393.7656,91.2656 1394.0781,91.2656 C1394.3594,91.2656 1394.6406,91.125 1394.8281,90.9063 C1394.9531,90.7188 1395,90.5625 1395,90.1094 L1395,88.2813 C1395,87.8594 1394.9844,87.7344 1394.8594,87.5625 C1394.7031,87.2969 1394.4063,87.125 1394.0781,87.125 C1393.7813,87.125 1393.5156,87.2656 1393.3438,87.4844 C1393.2031,87.6719 1393.1719,87.8438 1393.1719,88.2813 L1393.1719,88.3281 L1391.8594,88.3281 L1391.8594,86.1563 L1396.0781,86.1563 L1396.0781,86.9219 C1396.0781,87.3125 1396.1094,87.4844 1396.2188,87.6406 C1396.3906,87.9063 1396.6719,88.0625 1397,88.0625 C1397.2813,88.0625 1397.5625,87.9375 1397.75,87.7031 C1397.8906,87.5156 1397.9219,87.375 1397.9219,86.9219 L1397.9219,84.4063 L1389.8438,84.4063 C1389.4063,84.4063 1389.2656,84.4219 1389.0938,84.5313 C1388.8281,84.7031 1388.6563,84.9844 1388.6563,85.2813 C1388.6563,85.5625 1388.8125,85.8438 1389.0313,86 C1389.2188,86.125 1389.4063,86.1563 1389.8438,86.1563 L1390.0313,86.1563 L1390.0313,92.25 L1389.8438,92.25 C1389.4219,92.25 1389.2656,92.2813 1389.0938,92.375 C1388.8281,92.5313 1388.6563,92.8281 1388.6563,93.1094 C1388.6563,93.6875 1389.0625,94 1389.8438,94 L1393.5,94 C1394.2813,94 1394.6875,93.7188 1394.6875,93.1094 C1394.6875,92.8438 1394.5469,92.5938 1394.3125,92.4219 C1394.125,92.2813 1393.9531,92.25 1393.5,92.25 L1391.8594,92.25 L1391.8594,90.0625 Z " fill="#000000"/><text fill="#000000" font-family="sans-serif" font-size="14" lengthAdjust="spacing" textLength="150" x="1435.5" y="91.0059">tournament_backend.ts</text><text fill="#000000" font-family="sans-serif" font-size="14" lengthAdjust="spacing" textLength="201" x="1410" y="107.8059">recordTournamentAttendance()</text><rect fill="#E2E2F0" height="47.5999" rx="2.5" ry="2.5" style="stroke:#181818;stroke-width:0.5;" width="243" x="1375" y="1334.8001"/><ellipse cx="1393" cy="1352.8001" fill="#FFFF00" rx="11" ry="11" style="stroke:#181818;stroke-width:1.0;"/><path d="M1391.8594,1353.8626 L1393.1719,1353.8626 L1393.1719,1353.9095 C1393.1719,1354.3001 1393.2031,1354.4876 1393.2969,1354.6439 C1393.4688,1354.8939 1393.7656,1355.0657 1394.0781,1355.0657 C1394.3594,1355.0657 1394.6406,1354.9251 1394.8281,1354.7064 C1394.9531,1354.5189 1395,1354.3626 1395,1353.9095 L1395,1352.0814 C1395,1351.6595 1394.9844,1351.5345 1394.8594,1351.3626 C1394.7031,1351.097 1394.4063,1350.9251 1394.0781,1350.9251 C1393.7813,1350.9251 1393.5156,1351.0657 1393.3438,1351.2845 C1393.2031,1351.472 1393.1719,1351.6439 1393.1719,1352.0814 L1393.1719,1352.1282 L1391.8594,1352.1282 L1391.8594,1349.9564 L1396.0781,1349.9564 L1396.0781,1350.722 C1396.0781,1351.1126 1396.1094,1351.2845 1396.2188,1351.4407 C1396.3906,1351.7064 1396.6719,1351.8626 1397,1351.8626 C1397.2813,1351.8626 1397.5625,1351.7376 1397.75,1351.5032 C1397.8906,1351.3157 1397.9219,1351.1751 1397.9219,1350.722 L1397.9219,1348.2064 L1389.8438,1348.2064 C1389.4063,1348.2064 1389.2656,1348.222 1389.0938,1348.3314 C1388.8281,1348.5032 1388.6563,1348.7845 1388.6563,1349.0814 C1388.6563,1349.3626 1388.8125,1349.6439 1389.0313,1349.8001 C1389.2188,1349.9251 1389.4063,1349.9564 1389.8438,1349.9564 L1390.0313,1349.9564 L1390.0313,1356.0501 L1389.8438,1356.0501 C1389.4219,1356.0501 1389.2656,1356.0814 1389.0938,1356.1751 C1388.8281,1356.3314 1388.6563,1356.6282 1388.6563,1356.9095 C1388.6563,1357.4876 1389.0625,1357.8001 1389.8438,1357.8001 L1393.5,1357.8001 C1394.2813,1357.8001 1394.6875,1357.5189 1394.6875,1356.9095 C1394.6875,1356.6439 1394.5469,1356.3939 1394.3125,1356.222 C1394.125,1356.0814 1393.9531,1356.0501 1393.5,1356.0501 L1391.8594,1356.0501 L1391.8594,1353.8626 Z " fill="#000000"/><text fill="#000000" font-family="sans-serif" font-size="14" lengthAdjust="spacing" textLength="150" x="1435.5" y="1354.8061">tournament_backend.ts</text><text fill="#000000" font-family="sans-serif" font-size="14" lengthAdjust="spacing" textLength="201" x="1410" y="1371.606">recordTournamentAttendance()</text><rect fill="#E2E2F0" height="47.5999" rx="2.5" ry="2.5" style="stroke:#181818;stroke-width:0.5;" width="113" x="1798" y="71"/><ellipse cx="1816" cy="89" fill="#FFA500" rx="11" ry="11" style="stroke:#181818;stroke-width:1.0;"/><path d="M1814.8594,90.0625 L1816.1719,90.0625 L1816.1719,90.1094 C1816.1719,90.5 1816.2031,90.6875 1816.2969,90.8438 C1816.4688,91.0938 1816.7656,91.2656 1817.0781,91.2656 C1817.3594,91.2656 1817.6406,91.125 1817.8281,90.9063 C1817.9531,90.7188 1818,90.5625 1818,90.1094 L1818,88.2813 C1818,87.8594 1817.9844,87.7344 1817.8594,87.5625 C1817.7031,87.2969 1817.4063,87.125 1817.0781,87.125 C1816.7813,87.125 1816.5156,87.2656 1816.3438,87.4844 C1816.2031,87.6719 1816.1719,87.8438 1816.1719,88.2813 L1816.1719,88.3281 L1814.8594,88.3281 L1814.8594,86.1563 L1819.0781,86.1563 L1819.0781,86.9219 C1819.0781,87.3125 1819.1094,87.4844 1819.2188,87.6406 C1819.3906,87.9063 1819.6719,88.0625 1820,88.0625 C1820.2813,88.0625 1820.5625,87.9375 1820.75,87.7031 C1820.8906,87.5156 1820.9219,87.375 1820.9219,86.9219 L1820.9219,84.4063 L1812.8438,84.4063 C1812.4063,84.4063 1812.2656,84.4219 1812.0938,84.5313 C1811.8281,84.7031 1811.6563,84.9844 1811.6563,85.2813 C1811.6563,85.5625 1811.8125,85.8438 1812.0313,86 C1812.2188,86.125 1812.4063,86.1563 1812.8438,86.1563 L1813.0313,86.1563 L1813.0313,92.25 L1812.8438,92.25 C1812.4219,92.25 1812.2656,92.2813 1812.0938,92.375 C1811.8281,92.5313 1811.6563,92.8281 1811.6563,93.1094 C1811.6563,93.6875 1812.0625,94 1812.8438,94 L1816.5,94 C1817.2813,94 1817.6875,93.7188 1817.6875,93.1094 C1817.6875,92.8438 1817.5469,92.5938 1817.3125,92.4219 C1817.125,92.2813 1816.9531,92.25 1816.5,92.25 L1814.8594,92.25 L1814.8594,90.0625 Z " fill="#000000"/><text fill="#000000" font-family="sans-serif" font-size="14" lengthAdjust="spacing" textLength="40" x="1848.5" y="91.0059">utils.ts</text><text fill="#000000" font-family="sans-serif" font-size="14" lengthAdjust="spacing" textLength="71" x="1833" y="107.8059">fetchJson()</text><rect fill="#E2E2F0" height="47.5999" rx="2.5" ry="2.5" style="stroke:#181818;stroke-width:0.5;" width="113" x="1798" y="1334.8001"/><ellipse cx="1816" cy="1352.8001" fill="#FFA500" rx="11" ry="11" style="stroke:#181818;stroke-width:1.0;"/><path d="M1814.8594,1353.8626 L1816.1719,1353.8626 L1816.1719,1353.9095 C1816.1719,1354.3001 1816.2031,1354.4876 1816.2969,1354.6439 C1816.4688,1354.8939 1816.7656,1355.0657 1817.0781,1355.0657 C1817.3594,1355.0657 1817.6406,1354.9251 1817.8281,1354.7064 C1817.9531,1354.5189 1818,1354.3626 1818,1353.9095 L1818,1352.0814 C1818,1351.6595 1817.9844,1351.5345 1817.8594,1351.3626 C1817.7031,1351.097 1817.4063,1350.9251 1817.0781,1350.9251 C1816.7813,1350.9251 1816.5156,1351.0657 1816.3438,1351.2845 C1816.2031,1351.472 1816.1719,1351.6439 1816.1719,1352.0814 L1816.1719,1352.1282 L1814.8594,1352.1282 L1814.8594,1349.9564 L1819.0781,1349.9564 L1819.0781,1350.722 C1819.0781,1351.1126 1819.1094,1351.2845 1819.2188,1351.4407 C1819.3906,1351.7064 1819.6719,1351.8626 1820,1351.8626 C1820.2813,1351.8626 1820.5625,1351.7376 1820.75,1351.5032 C1820.8906,1351.3157 1820.9219,1351.1751 1820.9219,1350.722 L1820.9219,1348.2064 L1812.8438,1348.2064 C1812.4063,1348.2064 1812.2656,1348.222 1812.0938,1348.3314 C1811.8281,1348.5032 1811.6563,1348.7845 1811.6563,1349.0814 C1811.6563,1349.3626 1811.8125,1349.6439 1812.0313,1349.8001 C1812.2188,1349.9251 1812.4063,1349.9564 1812.8438,1349.9564 L1813.0313,1349.9564 L1813.0313,1356.0501 L1812.8438,1356.0501 C1812.4219,1356.0501 1812.2656,1356.0814 1812.0938,1356.1751 C1811.8281,1356.3314 1811.6563,1356.6282 1811.6563,1356.9095 C1811.6563,1357.4876 1812.0625,1357.8001 1812.8438,1357.8001 L1816.5,1357.8001 C1817.2813,1357.8001 1817.6875,1357.5189 1817.6875,1356.9095 C1817.6875,1356.6439 1817.5469,1356.3939 1817.3125,1356.222 C1817.125,1356.0814 1816.9531,1356.0501 1816.5,1356.0501 L1814.8594,1356.0501 L1814.8594,1353.8626 Z " fill="#000000"/><text fill="#000000" font-family="sans-serif" font-size="14" lengthAdjust="spacing" textLength="40" x="1848.5" y="1354.8061">utils.ts</text><text fill="#000000" font-family="sans-serif" font-size="14" lengthAdjust="spacing" textLength="71" x="1833" y="1371.606">fetchJson()</text><rect fill="#E2E2F0" height="36" rx="2.5" ry="2.5" style="stroke:#181818;stroke-width:0.5;" width="128" x="1937.5" y="82.5999"/><ellipse cx="1955.5" cy="100.5999" fill="#ADD8E6" rx="11" ry="11" style="stroke:#181818;stroke-width:1.0;"/><path d="M1959.3594,96.9124 C1959.3594,96.4749 1959.3438,96.3499 1959.2344,96.178 C1959.0781,95.928 1958.7813,95.7717 1958.4531,95.7717 C1958.1094,95.7717 1957.9219,95.9124 1957.7656,96.2874 C1957.2031,95.9592 1956.4375,95.7717 1955.5625,95.7717 C1953.4219,95.7717 1951.8281,97.0374 1951.8281,98.6936 C1951.8281,99.6467 1952.375,100.5374 1953.25,101.0061 C1953.8125,101.3186 1954.3438,101.4749 1955.4844,101.6624 C1956.6094,101.8655 1956.875,101.928 1957.25,102.0999 C1957.5938,102.2717 1957.8125,102.5686 1957.8125,102.8811 C1957.8125,103.5374 1956.8594,104.053 1955.6406,104.053 C1954.5469,104.053 1953.4844,103.5999 1953.3281,103.053 C1953.1875,102.6155 1953.1875,102.6155 1953.0625,102.4749 C1952.8906,102.3186 1952.6563,102.2405 1952.4063,102.2405 C1952.1094,102.2405 1951.8438,102.3655 1951.6563,102.5842 C1951.5313,102.7561 1951.4844,102.9436 1951.4844,103.3655 L1951.4844,104.4436 C1951.4844,105.2092 1951.7969,105.5842 1952.4063,105.5842 C1952.6875,105.5842 1952.8438,105.4905 1953.125,105.2092 C1953.9844,105.6311 1954.8281,105.8186 1955.75,105.8186 C1958.1094,105.8186 1959.7188,104.6467 1959.7188,102.9124 C1959.7188,102.053 1959.375,101.3655 1958.6875,100.8342 C1958.1563,100.428 1957.4844,100.1936 1955.9844,99.9436 C1954.7031,99.6936 1954.6406,99.678 1954.3125,99.5061 C1953.9688,99.3655 1953.7344,99.0061 1953.7344,98.678 C1953.7344,98.0374 1954.5469,97.5217 1955.5781,97.5217 C1956.625,97.5217 1957.3906,97.9436 1957.5313,98.5686 C1957.6563,99.0999 1957.6563,99.0999 1957.7969,99.2405 C1957.9531,99.3967 1958.2031,99.4905 1958.4531,99.4905 C1958.75,99.4905 1959,99.3655 1959.1875,99.1467 C1959.3281,98.9592 1959.3594,98.8186 1959.3594,98.3655 L1959.3594,96.9124 Z " fill="#000000"/><text fill="#000000" font-family="sans-serif" font-size="14" lengthAdjust="spacing" textLength="86" x="1972.5" y="102.6058">AuthManager</text><rect fill="#E2E2F0" height="36" rx="2.5" ry="2.5" style="stroke:#181818;stroke-width:0.5;" width="128" x="1937.5" y="1334.8001"/><ellipse cx="1955.5" cy="1352.8001" fill="#ADD8E6" rx="11" ry="11" style="stroke:#181818;stroke-width:1.0;"/><path d="M1959.3594,1349.1126 C1959.3594,1348.6751 1959.3438,1348.5501 1959.2344,1348.3782 C1959.0781,1348.1282 1958.7813,1347.972 1958.4531,1347.972 C1958.1094,1347.972 1957.9219,1348.1126 1957.7656,1348.4876 C1957.2031,1348.1595 1956.4375,1347.972 1955.5625,1347.972 C1953.4219,1347.972 1951.8281,1349.2376 1951.8281,1350.8939 C1951.8281,1351.847 1952.375,1352.7376 1953.25,1353.2064 C1953.8125,1353.5189 1954.3438,1353.6751 1955.4844,1353.8626 C1956.6094,1354.0657 1956.875,1354.1282 1957.25,1354.3001 C1957.5938,1354.472 1957.8125,1354.7689 1957.8125,1355.0814 C1957.8125,1355.7376 1956.8594,1356.2532 1955.6406,1356.2532 C1954.5469,1356.2532 1953.4844,1355.8001 1953.3281,1355.2532 C1953.1875,1354.8157 1953.1875,1354.8157 1953.0625,1354.6751 C1952.8906,1354.5189 1952.6563,1354.4407 1952.4063,1354.4407 C1952.1094,1354.4407 1951.8438,1354.5657 1951.6563,1354.7845 C1951.5313,1354.9564 1951.4844,1355.1439 1951.4844,1355.5657 L1951.4844,1356.6439 C1951.4844,1357.4095 1951.7969,1357.7845 1952.4063,1357.7845 C1952.6875,1357.7845 1952.8438,1357.6907 1953.125,1357.4095 C1953.9844,1357.8314 1954.8281,1358.0189 1955.75,1358.0189 C1958.1094,1358.0189 1959.7188,1356.847 1959.7188,1355.1126 C1959.7188,1354.2532 1959.375,1353.5657 1958.6875,1353.0345 C1958.1563,1352.6282 1957.4844,1352.3939 1955.9844,1352.1439 C1954.7031,1351.8939 1954.6406,1351.8782 1954.3125,1351.7064 C1953.9688,1351.5657 1953.7344,1351.2064 1953.7344,1350.8782 C1953.7344,1350.2376 1954.5469,1349.722 1955.5781,1349.722 C1956.625,1349.722 1957.3906,1350.1439 1957.5313,1350.7689 C1957.6563,1351.3001 1957.6563,1351.3001 1957.7969,1351.4407 C1957.9531,1351.597 1958.2031,1351.6907 1958.4531,1351.6907 C1958.75,1351.6907 1959,1351.5657 1959.1875,1351.347 C1959.3281,1351.1595 1959.3594,1351.0189 1959.3594,1350.5657 L1959.3594,1349.1126 Z " fill="#000000"/><text fill="#000000" font-family="sans-serif" font-size="14" lengthAdjust="spacing" textLength="86" x="1972.5" y="1354.8061">AuthManager</text><rect fill="#E2E2F0" height="36" rx="2.5" ry="2.5" style="stroke:#181818;stroke-width:0.5;" width="119" x="2145" y="82.5999"/><ellipse cx="2163" cy="100.5999" fill="#FF6347" rx="11" ry="11" style="stroke:#181818;stroke-width:1.0;"/><path d="M2166.8594,96.9124 C2166.8594,96.4749 2166.8438,96.3499 2166.7344,96.178 C2166.5781,95.928 2166.2813,95.7717 2165.9531,95.7717 C2165.6094,95.7717 2165.4219,95.9124 2165.2656,96.2874 C2164.7031,95.9592 2163.9375,95.7717 2163.0625,95.7717 C2160.9219,95.7717 2159.3281,97.0374 2159.3281,98.6936 C2159.3281,99.6467 2159.875,100.5374 2160.75,101.0061 C2161.3125,101.3186 2161.8438,101.4749 2162.9844,101.6624 C2164.1094,101.8655 2164.375,101.928 2164.75,102.0999 C2165.0938,102.2717 2165.3125,102.5686 2165.3125,102.8811 C2165.3125,103.5374 2164.3594,104.053 2163.1406,104.053 C2162.0469,104.053 2160.9844,103.5999 2160.8281,103.053 C2160.6875,102.6155 2160.6875,102.6155 2160.5625,102.4749 C2160.3906,102.3186 2160.1563,102.2405 2159.9063,102.2405 C2159.6094,102.2405 2159.3438,102.3655 2159.1563,102.5842 C2159.0313,102.7561 2158.9844,102.9436 2158.9844,103.3655 L2158.9844,104.4436 C2158.9844,105.2092 2159.2969,105.5842 2159.9063,105.5842 C2160.1875,105.5842 2160.3438,105.4905 2160.625,105.2092 C2161.4844,105.6311 2162.3281,105.8186 2163.25,105.8186 C2165.6094,105.8186 2167.2188,104.6467 2167.2188,102.9124 C2167.2188,102.053 2166.875,101.3655 2166.1875,100.8342 C2165.6563,100.428 2164.9844,100.1936 2163.4844,99.9436 C2162.2031,99.6936 2162.1406,99.678 2161.8125,99.5061 C2161.4688,99.3655 2161.2344,99.0061 2161.2344,98.678 C2161.2344,98.0374 2162.0469,97.5217 2163.0781,97.5217 C2164.125,97.5217 2164.8906,97.9436 2165.0313,98.5686 C2165.1563,99.0999 2165.1563,99.0999 2165.2969,99.2405 C2165.4531,99.3967 2165.7031,99.4905 2165.9531,99.4905 C2166.25,99.4905 2166.5,99.3655 2166.6875,99.1467 C2166.8281,98.9592 2166.8594,98.8186 2166.8594,98.3655 L2166.8594,96.9124 Z " fill="#000000"/><text fill="#000000" font-family="sans-serif" font-size="14" lengthAdjust="spacing" textLength="77" x="2180" y="102.6058">BackendAPI</text><rect fill="#E2E2F0" height="36" rx="2.5" ry="2.5" style="stroke:#181818;stroke-width:0.5;" width="119" x="2145" y="1334.8001"/><ellipse cx="2163" cy="1352.8001" fill="#FF6347" rx="11" ry="11" style="stroke:#181818;stroke-width:1.0;"/><path d="M2166.8594,1349.1126 C2166.8594,1348.6751 2166.8438,1348.5501 2166.7344,1348.3782 C2166.5781,1348.1282 2166.2813,1347.972 2165.9531,1347.972 C2165.6094,1347.972 2165.4219,1348.1126 2165.2656,1348.4876 C2164.7031,1348.1595 2163.9375,1347.972 2163.0625,1347.972 C2160.9219,1347.972 2159.3281,1349.2376 2159.3281,1350.8939 C2159.3281,1351.847 2159.875,1352.7376 2160.75,1353.2064 C2161.3125,1353.5189 2161.8438,1353.6751 2162.9844,1353.8626 C2164.1094,1354.0657 2164.375,1354.1282 2164.75,1354.3001 C2165.0938,1354.472 2165.3125,1354.7689 2165.3125,1355.0814 C2165.3125,1355.7376 2164.3594,1356.2532 2163.1406,1356.2532 C2162.0469,1356.2532 2160.9844,1355.8001 2160.8281,1355.2532 C2160.6875,1354.8157 2160.6875,1354.8157 2160.5625,1354.6751 C2160.3906,1354.5189 2160.1563,1354.4407 2159.9063,1354.4407 C2159.6094,1354.4407 2159.3438,1354.5657 2159.1563,1354.7845 C2159.0313,1354.9564 2158.9844,1355.1439 2158.9844,1355.5657 L2158.9844,1356.6439 C2158.9844,1357.4095 2159.2969,1357.7845 2159.9063,1357.7845 C2160.1875,1357.7845 2160.3438,1357.6907 2160.625,1357.4095 C2161.4844,1357.8314 2162.3281,1358.0189 2163.25,1358.0189 C2165.6094,1358.0189 2167.2188,1356.847 2167.2188,1355.1126 C2167.2188,1354.2532 2166.875,1353.5657 2166.1875,1353.0345 C2165.6563,1352.6282 2164.9844,1352.3939 2163.4844,1352.1439 C2162.2031,1351.8939 2162.1406,1351.8782 2161.8125,1351.7064 C2161.4688,1351.5657 2161.2344,1351.2064 2161.2344,1350.8782 C2161.2344,1350.2376 2162.0469,1349.722 2163.0781,1349.722 C2164.125,1349.722 2164.8906,1350.1439 2165.0313,1350.7689 C2165.1563,1351.3001 2165.1563,1351.3001 2165.2969,1351.4407 C2165.4531,1351.597 2165.7031,1351.6907 2165.9531,1351.6907 C2166.25,1351.6907 2166.5,1351.5657 2166.6875,1351.347 C2166.8281,1351.1595 2166.8594,1351.0189 2166.8594,1350.5657 L2166.8594,1349.1126 Z " fill="#000000"/><text fill="#000000" font-family="sans-serif" font-size="14" lengthAdjust="spacing" textLength="77" x="2180" y="1354.8061">BackendAPI</text><rect fill="#E2E2F0" height="36" rx="2.5" ry="2.5" style="stroke:#181818;stroke-width:0.5;" width="117" x="2274" y="82.5999"/><ellipse cx="2292" cy="100.5999" fill="#808080" rx="11" ry="11" style="stroke:#181818;stroke-width:1.0;"/><path d="M2295.8594,96.9124 C2295.8594,96.4749 2295.8438,96.3499 2295.7344,96.178 C2295.5781,95.928 2295.2813,95.7717 2294.9531,95.7717 C2294.6094,95.7717 2294.4219,95.9124 2294.2656,96.2874 C2293.7031,95.9592 2292.9375,95.7717 2292.0625,95.7717 C2289.9219,95.7717 2288.3281,97.0374 2288.3281,98.6936 C2288.3281,99.6467 2288.875,100.5374 2289.75,101.0061 C2290.3125,101.3186 2290.8438,101.4749 2291.9844,101.6624 C2293.1094,101.8655 2293.375,101.928 2293.75,102.0999 C2294.0938,102.2717 2294.3125,102.5686 2294.3125,102.8811 C2294.3125,103.5374 2293.3594,104.053 2292.1406,104.053 C2291.0469,104.053 2289.9844,103.5999 2289.8281,103.053 C2289.6875,102.6155 2289.6875,102.6155 2289.5625,102.4749 C2289.3906,102.3186 2289.1563,102.2405 2288.9063,102.2405 C2288.6094,102.2405 2288.3438,102.3655 2288.1563,102.5842 C2288.0313,102.7561 2287.9844,102.9436 2287.9844,103.3655 L2287.9844,104.4436 C2287.9844,105.2092 2288.2969,105.5842 2288.9063,105.5842 C2289.1875,105.5842 2289.3438,105.4905 2289.625,105.2092 C2290.4844,105.6311 2291.3281,105.8186 2292.25,105.8186 C2294.6094,105.8186 2296.2188,104.6467 2296.2188,102.9124 C2296.2188,102.053 2295.875,101.3655 2295.1875,100.8342 C2294.6563,100.428 2293.9844,100.1936 2292.4844,99.9436 C2291.2031,99.6936 2291.1406,99.678 2290.8125,99.5061 C2290.4688,99.3655 2290.2344,99.0061 2290.2344,98.678 C2290.2344,98.0374 2291.0469,97.5217 2292.0781,97.5217 C2293.125,97.5217 2293.8906,97.9436 2294.0313,98.5686 C2294.1563,99.0999 2294.1563,99.0999 2294.2969,99.2405 C2294.4531,99.3967 2294.7031,99.4905 2294.9531,99.4905 C2295.25,99.4905 2295.5,99.3655 2295.6875,99.1467 C2295.8281,98.9592 2295.8594,98.8186 2295.8594,98.3655 L2295.8594,96.9124 Z " fill="#000000"/><text fill="#000000" font-family="sans-serif" font-size="14" lengthAdjust="spacing" textLength="75" x="2309" y="102.6058">QueryClient</text><rect fill="#E2E2F0" height="36" rx="2.5" ry="2.5" style="stroke:#181818;stroke-width:0.5;" width="117" x="2274" y="1334.8001"/><ellipse cx="2292" cy="1352.8001" fill="#808080" rx="11" ry="11" style="stroke:#181818;stroke-width:1.0;"/><path d="M2295.8594,1349.1126 C2295.8594,1348.6751 2295.8438,1348.5501 2295.7344,1348.3782 C2295.5781,1348.1282 2295.2813,1347.972 2294.9531,1347.972 C2294.6094,1347.972 2294.4219,1348.1126 2294.2656,1348.4876 C2293.7031,1348.1595 2292.9375,1347.972 2292.0625,1347.972 C2289.9219,1347.972 2288.3281,1349.2376 2288.3281,1350.8939 C2288.3281,1351.847 2288.875,1352.7376 2289.75,1353.2064 C2290.3125,1353.5189 2290.8438,1353.6751 2291.9844,1353.8626 C2293.1094,1354.0657 2293.375,1354.1282 2293.75,1354.3001 C2294.0938,1354.472 2294.3125,1354.7689 2294.3125,1355.0814 C2294.3125,1355.7376 2293.3594,1356.2532 2292.1406,1356.2532 C2291.0469,1356.2532 2289.9844,1355.8001 2289.8281,1355.2532 C2289.6875,1354.8157 2289.6875,1354.8157 2289.5625,1354.6751 C2289.3906,1354.5189 2289.1563,1354.4407 2288.9063,1354.4407 C2288.6094,1354.4407 2288.3438,1354.5657 2288.1563,1354.7845 C2288.0313,1354.9564 2287.9844,1355.1439 2287.9844,1355.5657 L2287.9844,1356.6439 C2287.9844,1357.4095 2288.2969,1357.7845 2288.9063,1357.7845 C2289.1875,1357.7845 2289.3438,1357.6907 2289.625,1357.4095 C2290.4844,1357.8314 2291.3281,1358.0189 2292.25,1358.0189 C2294.6094,1358.0189 2296.2188,1356.847 2296.2188,1355.1126 C2296.2188,1354.2532 2295.875,1353.5657 2295.1875,1353.0345 C2294.6563,1352.6282 2293.9844,1352.3939 2292.4844,1352.1439 C2291.2031,1351.8939 2291.1406,1351.8782 2290.8125,1351.7064 C2290.4688,1351.5657 2290.2344,1351.2064 2290.2344,1350.8782 C2290.2344,1350.2376 2291.0469,1349.722 2292.0781,1349.722 C2293.125,1349.722 2293.8906,1350.1439 2294.0313,1350.7689 C2294.1563,1351.3001 2294.1563,1351.3001 2294.2969,1351.4407 C2294.4531,1351.597 2294.7031,1351.6907 2294.9531,1351.6907 C2295.25,1351.6907 2295.5,1351.5657 2295.6875,1351.347 C2295.8281,1351.1595 2295.8594,1351.0189 2295.8594,1350.5657 L2295.8594,1349.1126 Z " fill="#000000"/><text fill="#000000" font-family="sans-serif" font-size="14" lengthAdjust="spacing" textLength="75" x="2309" y="1354.8061">QueryClient</text><rect fill="#E2E2F0" height="36" rx="2.5" ry="2.5" style="stroke:#181818;stroke-width:0.5;" width="91" x="2401" y="82.5999"/><ellipse cx="2419" cy="100.5999" fill="#FFC0CB" rx="11" ry="11" style="stroke:#181818;stroke-width:1.0;"/><path d="M2414,101.7561 C2414,104.2561 2416.1406,106.0686 2419.0625,106.0686 C2420.2969,106.0686 2421.4688,105.7717 2422.2188,105.2561 C2422.8281,104.8342 2423.1563,104.4124 2423.1563,104.0061 C2423.1563,103.5374 2422.7344,103.1311 2422.2344,103.1311 C2422,103.1311 2421.7813,103.2092 2421.5781,103.4124 C2421.1406,103.8499 2421.1406,103.8499 2420.9688,103.9436 C2420.5156,104.178 2419.875,104.3186 2419.1094,104.3186 C2417.1094,104.3186 2415.8281,103.303 2415.8281,101.7249 L2415.8281,100.678 C2415.8281,98.9749 2417.0469,97.7717 2418.75,97.7717 C2419.3281,97.7717 2419.9063,97.9124 2420.375,98.1624 C2420.8438,98.428 2421.0156,98.6155 2421.0781,98.9749 C2421.2031,99.6467 2421.4531,99.8967 2421.9844,99.8967 C2422.2656,99.8967 2422.5469,99.7561 2422.7344,99.5374 C2422.8594,99.3655 2422.9063,99.1936 2422.9063,98.7561 L2422.9063,97.3967 C2422.9063,96.9749 2422.8906,96.8342 2422.7656,96.6624 C2422.5938,96.4124 2422.3125,96.2561 2421.9844,96.2561 C2421.6719,96.2561 2421.4688,96.3655 2421.25,96.6311 C2420.0781,96.1311 2419.6406,96.0217 2418.6875,96.0217 C2416.0156,96.0217 2414,98.0374 2414,100.6624 L2414,101.7561 Z " fill="#000000"/><text fill="#000000" font-family="sans-serif" font-size="14" lengthAdjust="spacing" textLength="49" x="2436" y="102.6058">Toaster</text><rect fill="#E2E2F0" height="36" rx="2.5" ry="2.5" style="stroke:#181818;stroke-width:0.5;" width="91" x="2401" y="1334.8001"/><ellipse cx="2419" cy="1352.8001" fill="#FFC0CB" rx="11" ry="11" style="stroke:#181818;stroke-width:1.0;"/><path d="M2414,1353.9564 C2414,1356.4564 2416.1406,1358.2689 2419.0625,1358.2689 C2420.2969,1358.2689 2421.4688,1357.972 2422.2188,1357.4564 C2422.8281,1357.0345 2423.1563,1356.6126 2423.1563,1356.2064 C2423.1563,1355.7376 2422.7344,1355.3314 2422.2344,1355.3314 C2422,1355.3314 2421.7813,1355.4095 2421.5781,1355.6126 C2421.1406,1356.0501 2421.1406,1356.0501 2420.9688,1356.1439 C2420.5156,1356.3782 2419.875,1356.5189 2419.1094,1356.5189 C2417.1094,1356.5189 2415.8281,1355.5032 2415.8281,1353.9251 L2415.8281,1352.8782 C2415.8281,1351.1751 2417.0469,1349.972 2418.75,1349.972 C2419.3281,1349.972 2419.9063,1350.1126 2420.375,1350.3626 C2420.8438,1350.6282 2421.0156,1350.8157 2421.0781,1351.1751 C2421.2031,1351.847 2421.4531,1352.097 2421.9844,1352.097 C2422.2656,1352.097 2422.5469,1351.9564 2422.7344,1351.7376 C2422.8594,1351.5657 2422.9063,1351.3939 2422.9063,1350.9564 L2422.9063,1349.597 C2422.9063,1349.1751 2422.8906,1349.0345 2422.7656,1348.8626 C2422.5938,1348.6126 2422.3125,1348.4564 2421.9844,1348.4564 C2421.6719,1348.4564 2421.4688,1348.5657 2421.25,1348.8314 C2420.0781,1348.3314 2419.6406,1348.222 2418.6875,1348.222 C2416.0156,1348.222 2414,1350.2376 2414,1352.8626 L2414,1353.9564 Z " fill="#000000"/><text fill="#000000" font-family="sans-serif" font-size="14" lengthAdjust="spacing" textLength="49" x="2436" y="1354.8061">Toaster</text><rect fill="#FFFFFF" height="1174.6002" style="stroke:#181818;stroke-width:1.0;" width="10" x="315.5" y="151.1999"/><rect fill="#FFFFFF" height="1085.8002" style="stroke:#181818;stroke-width:1.0;" width="10" x="849" y="239.9999"/><rect fill="#FFFFFF" height="614.8001" style="stroke:#181818;stroke-width:1.0;" width="10" x="1491.5" y="586.6001"/><rect fill="#FFFFFF" height="585.2001" style="stroke:#181818;stroke-width:1.0;" width="10" x="1849.5" y="616.2001"/><rect fill="#FFFFFF" height="29.6" style="stroke:#181818;stroke-width:1.0;" width="10" x="1996.5" y="645.8001"/><rect fill="#FFFFFF" height="496.4001" style="stroke:#181818;stroke-width:1.0;" width="10" x="2199.5" y="705.0001"/><rect fill="#FFFFFF" height="30" style="stroke:#181818;stroke-width:1.0;" width="10" x="2327.5" y="907.6002"/><rect fill="#FFFFFF" height="30" style="stroke:#181818;stroke-width:1.0;" width="10" x="2441.5" y="848.0002"/><rect fill="#FFFFFF" height="30" style="stroke:#181818;stroke-width:1.0;" width="10" x="2441.5" y="1156.4002"/><rect fill="#FFFFFF" height="30" style="stroke:#181818;stroke-width:1.0;" width="10" x="2441.5" y="1280.8001"/><polygon fill="#181818" points="303.5,147.1999,313.5,151.1999,303.5,155.1999,307.5,151.1999" style="stroke:#181818;stroke-width:1.0;"/><line style="stroke:#181818;stroke-width:1.0;" x1="43.5" x2="309.5" y1="151.1999" y2="151.1999"/><text fill="#000000" font-family="sans-serif" font-size="13" lengthAdjust="spacing" textLength="253" x="50.5" y="145.6769">Navigates to /dashboard_trainer/tournament</text><polygon fill="#181818" points="617.5,176.7999,627.5,180.7999,617.5,184.7999,621.5,180.7999" style="stroke:#181818;stroke-width:1.0;"/><line style="stroke:#181818;stroke-width:1.0;" x1="43.5" x2="623.5" y1="180.7999" y2="180.7999"/><text fill="#000000" font-family="sans-serif" font-size="13" lengthAdjust="spacing" textLength="265" x="50.5" y="175.2769">Clicks "Manage Attendance" for a tournament</text><polygon fill="#181818" points="336.5,206.3999,326.5,210.3999,336.5,214.3999,332.5,210.3999" style="stroke:#181818;stroke-width:1.0;"/><line style="stroke:#181818;stroke-width:1.0;" x1="330.5" x2="628.5" y1="210.3999" y2="210.3999"/><text fill="#000000" font-family="sans-serif" font-size="13" lengthAdjust="spacing" textLength="280" x="342.5" y="204.8769">onManageClick(tournamentId, tournamentName)</text><polygon fill="#181818" points="837,235.9999,847,239.9999,837,243.9999,841,239.9999" style="stroke:#181818;stroke-width:1.0;"/><line style="stroke:#181818;stroke-width:1.0;" x1="325.5" x2="843" y1="239.9999" y2="239.9999"/><text fill="#000000" font-family="sans-serif" font-size="13" lengthAdjust="spacing" textLength="243" x="332.5" y="234.4769">Opens dialog (isOpen=true, tournamentId)</text><polygon fill="#181818" points="2320.5,265.5999,2330.5,269.5999,2320.5,273.5999,2324.5,269.5999" style="stroke:#181818;stroke-width:1.0;"/><line style="stroke:#181818;stroke-width:1.0;" x1="859" x2="2326.5" y1="269.5999" y2="269.5999"/><text fill="#000000" font-family="sans-serif" font-size="13" lengthAdjust="spacing" textLength="337" x="866" y="264.0769">useQuery(['tournamentRegistrationsDialog', tournamentId])</text><polygon fill="#181818" points="2320.5,295.1999,2330.5,299.1999,2320.5,303.1999,2324.5,299.1999" style="stroke:#181818;stroke-width:1.0;"/><line style="stroke:#181818;stroke-width:1.0;" x1="859" x2="2326.5" y1="299.1999" y2="299.1999"/><text fill="#000000" font-family="sans-serif" font-size="13" lengthAdjust="spacing" textLength="348" x="866" y="293.6769">useQuery(['tournamentAttendanceListDialog', tournamentId])</text><polygon fill="#181818" points="1267,324.7999,1277,328.7999,1267,332.7999,1271,328.7999" style="stroke:#181818;stroke-width:1.0;"/><line style="stroke:#181818;stroke-width:1.0;" x1="859" x2="1273" y1="328.7999" y2="328.7999"/><text fill="#000000" font-family="sans-serif" font-size="13" lengthAdjust="spacing" textLength="181" x="866" y="323.2769">Renders list of registered users</text><polygon fill="#181818" points="1267,354.4,1277,358.4,1267,362.4,1271,358.4" style="stroke:#181818;stroke-width:1.0;"/><line style="stroke:#181818;stroke-width:1.0;" x1="43.5" x2="1273" y1="358.4" y2="358.4"/><text fill="#000000" font-family="sans-serif" font-size="13" lengthAdjust="spacing" textLength="200" x="50.5" y="352.877">Selects a user to mark attendance</text><polygon fill="#181818" points="870,384,860,388,870,392,866,388" style="stroke:#181818;stroke-width:1.0;"/><line style="stroke:#181818;stroke-width:1.0;" x1="864" x2="1278" y1="388" y2="388"/><text fill="#000000" font-family="sans-serif" font-size="13" lengthAdjust="spacing" textLength="122" x="876" y="382.477">onSelectUser(userId)</text><line style="stroke:#181818;stroke-width:1.0;" x1="859" x2="901" y1="417.6" y2="417.6"/><line style="stroke:#181818;stroke-width:1.0;" x1="901" x2="901" y1="417.6" y2="430.6"/><line style="stroke:#181818;stroke-width:1.0;" x1="860" x2="901" y1="430.6" y2="430.6"/><polygon fill="#181818" points="870,426.6,860,430.6,870,434.6,866,430.6" style="stroke:#181818;stroke-width:1.0;"/><text fill="#000000" font-family="sans-serif" font-size="13" lengthAdjust="spacing" textLength="401" x="866" y="412.077">Updates selectedUserId, Renders attendance form (input for position)</text><polygon fill="#181818" points="837,456.2,847,460.2,837,464.2,841,460.2" style="stroke:#181818;stroke-width:1.0;"/><line style="stroke:#181818;stroke-width:1.0;" x1="43.5" x2="843" y1="460.2" y2="460.2"/><text fill="#000000" font-family="sans-serif" font-size="13" lengthAdjust="spacing" textLength="99" x="50.5" y="454.677">Enters "Position"</text><polygon fill="#181818" points="837,485.8,847,489.8,837,493.8,841,489.8" style="stroke:#181818;stroke-width:1.0;"/><line style="stroke:#181818;stroke-width:1.0;" x1="43.5" x2="843" y1="489.8" y2="489.8"/><text fill="#000000" font-family="sans-serif" font-size="13" lengthAdjust="spacing" textLength="150" x="50.5" y="484.277">Clicks "Save Attendance"</text><line style="stroke:#181818;stroke-width:1.0;" x1="859" x2="901" y1="519.4" y2="519.4"/><line style="stroke:#181818;stroke-width:1.0;" x1="901" x2="901" y1="519.4" y2="532.4"/><line style="stroke:#181818;stroke-width:1.0;" x1="860" x2="901" y1="532.4" y2="532.4"/><polygon fill="#181818" points="870,528.4,860,532.4,870,536.4,866,532.4" style="stroke:#181818;stroke-width:1.0;"/><text fill="#000000" font-family="sans-serif" font-size="13" lengthAdjust="spacing" textLength="142" x="866" y="513.877">handleSaveAttendance()</text><path d="M718,547.4 L778,547.4 L778,555 L768,565 L718,565 L718,547.4 " fill="#EEEEEE" style="stroke:#000000;stroke-width:1.5;"/><rect fill="none" height="771.4001" style="stroke:#000000;stroke-width:1.5;" width="1794" x="718" y="547.4"/><text fill="#000000" font-family="sans-serif" font-size="13" font-weight="bold" lengthAdjust="spacing" textLength="15" x="733" y="560.477">alt</text><text fill="#000000" font-family="sans-serif" font-size="11" font-weight="bold" lengthAdjust="spacing" textLength="295" x="793" y="559.619">[Form data valid (position is a unique positive number)]</text><polygon fill="#181818" points="1479.5,582.6001,1489.5,586.6001,1479.5,590.6001,1483.5,586.6001" style="stroke:#181818;stroke-width:1.0;"/><line style="stroke:#181818;stroke-width:1.0;" x1="859" x2="1485.5" y1="586.6001" y2="586.6001"/><text fill="#000000" font-family="sans-serif" font-size="13" lengthAdjust="spacing" textLength="366" x="866" y="581.0771">recordTournamentAttendance(tournamentId, {id_user, position})</text><polygon fill="#181818" points="1837.5,612.2001,1847.5,616.2001,1837.5,620.2001,1841.5,616.2001" style="stroke:#181818;stroke-width:1.0;"/><line style="stroke:#181818;stroke-width:1.0;" x1="1501.5" x2="1843.5" y1="616.2001" y2="616.2001"/><text fill="#000000" font-family="sans-serif" font-size="13" lengthAdjust="spacing" textLength="329" x="1508.5" y="610.6771">fetchJson("/tournaments/{id}/attendance", {POST, body})</text><polygon fill="#181818" points="1984.5,641.8001,1994.5,645.8001,1984.5,649.8001,1988.5,645.8001" style="stroke:#181818;stroke-width:1.0;"/><line style="stroke:#181818;stroke-width:1.0;" x1="1859.5" x2="1990.5" y1="645.8001" y2="645.8001"/><text fill="#000000" font-family="sans-serif" font-size="13" lengthAdjust="spacing" textLength="62" x="1866.5" y="640.2771">getToken()</text><polygon fill="#181818" points="1870.5,671.4001,1860.5,675.4001,1870.5,679.4001,1866.5,675.4001" style="stroke:#181818;stroke-width:1.0;"/><line style="stroke:#181818;stroke-width:1.0;stroke-dasharray:2.0,2.0;" x1="1864.5" x2="2000.5" y1="675.4001" y2="675.4001"/><text fill="#000000" font-family="sans-serif" font-size="13" lengthAdjust="spacing" textLength="113" x="1876.5" y="669.8771">"trainer_token_123"</text><polygon fill="#181818" points="2187.5,701.0001,2197.5,705.0001,2187.5,709.0001,2191.5,705.0001" style="stroke:#181818;stroke-width:1.0;"/><line style="stroke:#181818;stroke-width:1.0;" x1="1859.5" x2="2193.5" y1="705.0001" y2="705.0001"/><text fill="#000000" font-family="sans-serif" font-size="13" lengthAdjust="spacing" textLength="321" x="1866.5" y="699.4771">POST /tournaments/{id}/attendance ({id_user, position})</text><path d="M728,720.0001 L788,720.0001 L788,727.6001 L778,737.6001 L728,737.6001 L728,720.0001 " fill="#EEEEEE" style="stroke:#000000;stroke-width:1.5;"/><rect fill="none" height="474.4001" style="stroke:#000000;stroke-width:1.5;" width="1774" x="728" y="720.0001"/><text fill="#000000" font-family="sans-serif" font-size="13" font-weight="bold" lengthAdjust="spacing" textLength="15" x="743" y="733.0771">alt</text><text fill="#000000" font-family="sans-serif" font-size="11" font-weight="bold" lengthAdjust="spacing" textLength="188" x="803" y="732.219">[Attendance recorded successfully]</text><polygon fill="#181818" points="1870.5,755.2001,1860.5,759.2001,1870.5,763.2001,1866.5,759.2001" style="stroke:#181818;stroke-width:1.0;"/><line style="stroke:#181818;stroke-width:1.0;stroke-dasharray:2.0,2.0;" x1="1864.5" x2="2198.5" y1="759.2001" y2="759.2001"/><text fill="#000000" font-family="sans-serif" font-size="13" lengthAdjust="spacing" textLength="229" x="1876.5" y="753.6771">HTTP 200 OK (TournamentAttendance)</text><polygon fill="#181818" points="1512.5,784.8002,1502.5,788.8002,1512.5,792.8002,1508.5,788.8002" style="stroke:#181818;stroke-width:1.0;"/><line style="stroke:#181818;stroke-width:1.0;stroke-dasharray:2.0,2.0;" x1="1506.5" x2="1848.5" y1="788.8002" y2="788.8002"/><text fill="#000000" font-family="sans-serif" font-size="13" lengthAdjust="spacing" textLength="135" x="1518.5" y="783.2772">TournamentAttendance</text><polygon fill="#181818" points="870,814.4002,860,818.4002,870,822.4002,866,818.4002" style="stroke:#181818;stroke-width:1.0;"/><line style="stroke:#181818;stroke-width:1.0;stroke-dasharray:2.0,2.0;" x1="864" x2="1490.5" y1="818.4002" y2="818.4002"/><text fill="#000000" font-family="sans-serif" font-size="13" lengthAdjust="spacing" textLength="135" x="876" y="812.8772">TournamentAttendance</text><polygon fill="#181818" points="2429.5,844.0002,2439.5,848.0002,2429.5,852.0002,2433.5,848.0002" style="stroke:#181818;stroke-width:1.0;"/><line style="stroke:#181818;stroke-width:1.0;" x1="859" x2="2435.5" y1="848.0002" y2="848.0002"/><text fill="#000000" font-family="sans-serif" font-size="13" lengthAdjust="spacing" textLength="232" x="866" y="842.4772">toast.success("Attendance recorded...")</text><polygon fill="#181818" points="2315.5,903.6002,2325.5,907.6002,2315.5,911.6002,2319.5,907.6002" style="stroke:#181818;stroke-width:1.0;"/><line style="stroke:#181818;stroke-width:1.0;" x1="859" x2="2321.5" y1="907.6002" y2="907.6002"/><text fill="#000000" font-family="sans-serif" font-size="13" lengthAdjust="spacing" textLength="392" x="866" y="902.0772">invalidateQueries(['tournamentAttendanceListDialog', tournamentId])</text><line style="stroke:#181818;stroke-width:1.0;" x1="859" x2="901" y1="967.2002" y2="967.2002"/><line style="stroke:#181818;stroke-width:1.0;" x1="901" x2="901" y1="967.2002" y2="980.2002"/><line style="stroke:#181818;stroke-width:1.0;" x1="860" x2="901" y1="980.2002" y2="980.2002"/><polygon fill="#181818" points="870,976.2002,860,980.2002,870,984.2002,866,980.2002" style="stroke:#181818;stroke-width:1.0;"/><text fill="#000000" font-family="sans-serif" font-size="13" lengthAdjust="spacing" textLength="198" x="866" y="961.6772">Resets form (selectedUserId=null)</text><line style="stroke:#000000;stroke-width:1.0;stroke-dasharray:2.0,2.0;" x1="728" x2="2502" y1="989.2002" y2="989.2002"/><text fill="#000000" font-family="sans-serif" font-size="11" font-weight="bold" lengthAdjust="spacing" textLength="150" x="733" y="999.4191">[Error recording attendance]</text><polygon fill="#181818" points="1870.5,1021.0001,1860.5,1025.0001,1870.5,1029.0001,1866.5,1025.0001" style="stroke:#181818;stroke-width:1.0;"/><line style="stroke:#181818;stroke-width:1.0;stroke-dasharray:2.0,2.0;" x1="1864.5" x2="2198.5" y1="1025.0001" y2="1025.0001"/><text fill="#000000" font-family="sans-serif" font-size="13" lengthAdjust="spacing" textLength="66" x="1876.5" y="1019.4771">HTTP Error</text><polygon fill="#181818" points="1512.5,1050.6001,1502.5,1054.6001,1512.5,1058.6001,1508.5,1054.6001" style="stroke:#181818;stroke-width:1.0;"/><line style="stroke:#181818;stroke-width:1.0;" x1="1506.5" x2="1848.5" y1="1054.6001" y2="1054.6001"/><text fill="#000000" font-family="sans-serif" font-size="13" lengthAdjust="spacing" textLength="70" x="1518.5" y="1049.0771">throws Error</text><polygon fill="#181818" points="870,1080.2002,860,1084.2002,870,1088.2002,866,1084.2002" style="stroke:#181818;stroke-width:1.0;"/><line style="stroke:#181818;stroke-width:1.0;stroke-dasharray:2.0,2.0;" x1="864" x2="1490.5" y1="1084.2002" y2="1084.2002"/><text fill="#000000" font-family="sans-serif" font-size="13" lengthAdjust="spacing" textLength="70" x="876" y="1078.6772">throws Error</text><line style="stroke:#181818;stroke-width:1.0;" x1="859" x2="901" y1="1113.8002" y2="1113.8002"/><line style="stroke:#181818;stroke-width:1.0;" x1="901" x2="901" y1="1113.8002" y2="1126.8002"/><line style="stroke:#181818;stroke-width:1.0;" x1="860" x2="901" y1="1126.8002" y2="1126.8002"/><polygon fill="#181818" points="870,1122.8002,860,1126.8002,870,1130.8002,866,1126.8002" style="stroke:#181818;stroke-width:1.0;"/><text fill="#000000" font-family="sans-serif" font-size="13" lengthAdjust="spacing" textLength="167" x="866" y="1108.2772">setFormError(error.message)</text><polygon fill="#181818" points="2429.5,1152.4002,2439.5,1156.4002,2429.5,1160.4002,2433.5,1156.4002" style="stroke:#181818;stroke-width:1.0;"/><line style="stroke:#181818;stroke-width:1.0;" x1="859" x2="2435.5" y1="1156.4002" y2="1156.4002"/><text fill="#000000" font-family="sans-serif" font-size="13" lengthAdjust="spacing" textLength="247" x="866" y="1150.8772">toast.error("Failed to record attendance...")</text><line style="stroke:#000000;stroke-width:1.0;stroke-dasharray:2.0,2.0;" x1="718" x2="2512" y1="1202.4002" y2="1202.4002"/><text fill="#000000" font-family="sans-serif" font-size="11" font-weight="bold" lengthAdjust="spacing" textLength="100" x="723" y="1212.6191">[Form data invalid]</text><line style="stroke:#181818;stroke-width:1.0;" x1="859" x2="901" y1="1238.2001" y2="1238.2001"/><line style="stroke:#181818;stroke-width:1.0;" x1="901" x2="901" y1="1238.2001" y2="1251.2001"/><line style="stroke:#181818;stroke-width:1.0;" x1="860" x2="901" y1="1251.2001" y2="1251.2001"/><polygon fill="#181818" points="870,1247.2001,860,1251.2001,870,1255.2001,866,1251.2001" style="stroke:#181818;stroke-width:1.0;"/><text fill="#000000" font-family="sans-serif" font-size="13" lengthAdjust="spacing" textLength="204" x="866" y="1232.6771">setFormError("Position must be...")</text><polygon fill="#181818" points="2429.5,1276.8001,2439.5,1280.8001,2429.5,1284.8001,2433.5,1280.8001" style="stroke:#181818;stroke-width:1.0;"/><line style="stroke:#181818;stroke-width:1.0;" x1="859" x2="2435.5" y1="1280.8001" y2="1280.8001"/><text fill="#000000" font-family="sans-serif" font-size="13" lengthAdjust="spacing" textLength="190" x="866" y="1275.2771">toast.error("Check form details.")</text><!--SRC=[dLPDR-Cs4BthLmnqYGnudUts9km6IBsRDltOk8bpQWk3bYOo4PbqIIf1iDZ_tY4fMvHCnsukXadEU_FrE9JXfaQudov-Hcsu54nTQguDYeApkLG2fVuYZ4B1IgbokCD_6pf3-CnPfTWwILXXf8AqCqg1QPWhnWMgPCEKuGNVC64WRJVdib62hL6O6QjmAjSRAMWHulecyF5ZTZkMgbZnSdHnSOHqobGPvx8dbciwhdcrCfN2btswdVMbeIgKZ9AbN6jPESxXvZ6wplvUexgLpuwb_NyCR7QnB9QiU2IYYT5_2uM5L6Kiq6pa4zyT_UHXrj7L-0NhMZxlUMaChxKZVa1Jh7xLKhGyLtPzJySUBnKJ5Uwds9ZL7qnGdtphtRfI5dFdarlMpJwi3UroTkrHiskFC7BDZDmp_xD1zJAj-LOemThZ3dIJaPPRIVh_lkWRBXwjTTAA1DvT7D1U3b_P4w-OGGr6mdd9z6efIKaBu-tFkpRPoy2Vo3JEbPp1P3A1Qy4DYGTgoKgG3z3XjJi_Upqgf-8SAFVYKKFgIny8CuK7kf0ie4tY7A-aB8MdTKwoZkcw70UyN-btbCGvY7plhkHmiq6XeVJBZ6kx_cHKWo7jTJdg2ZaaIP8zMd8LgY67HgFRoFuwwrXliQAvffWTSjeZp_fU_nczbRk3_Ku-3f7xxdzcXe6xQLnKhbLjENphOn5inqKEjtI6IaDDRgnqb4iA5POsCALxokbWTrXZGUfYpihAUCtK8x2ThsHh6s-R59x1McMMmhOe5ca4UxyftTtHZW7BUmSVxrBfWh35M9CgnAOnhZ0RgRbjrwYNLiG7FJwMAfsrWFI8_VRktB6dtiqvDQSL4sMD5XtEteJL1gvi3gNjyHEhUGdPDWdWhlw2qmFQPaREHRDUeXeb037N-uCyXrUcV_-UVkFbmlPglAlZT-kd6r53SZhSTqXHTCz03jqJaGPpJv-Ji-_dNIjJSZ-xkPkFOIdBbxxV7HrjTjIsqEt3aKE5PYx9VTO3jkUsLgtbkq5qQJkI5yQY5pzy-34bwn8Z57tFzFZaO0E6rxA2x5XDYSWkIGTTMzgEqHNLJL6WrWzDNR-G6JY_mnn-cSzdyE7zUxZv3R9OcqSE6iH_G2Wnh8D6cXoNUPJ11nuLgtzVSvelz6_IPfkbaLBGh4jz7e4S7Tnj1XqBjuzFPoxShIEWtUUetp2cUr45zCF8XaSdpevRr4YZsC-w_b3y94WPDW2iDS8NfMW6-ehPfuBrktXGEmutr4XS8cQbvBCE42TBOmzvOlQKkvsG3fUX_PsiIIJqnJ0wMLWEbgLNZDTqgUWnypKA2lGMUVa16CuATvU3ZN1mzIY6SzIrhti8Mb4cRolIxb63TKEF_dANtFyerNI5nQENN8c6sU_zTF0MRCiGgOrDAQpBy8iiXCI-1Vy3]--></g></svg>