<?xml version="1.0" encoding="us-ascii" standalone="no"?><svg xmlns="http://www.w3.org/2000/svg" xmlns:xlink="http://www.w3.org/1999/xlink" contentStyleType="text/css" height="738px" preserveAspectRatio="none" style="width:994px;height:738px;background:#FFFFFF;" version="1.1" viewBox="0 0 994 738" width="994px" zoomAndPan="magnify"><defs/><g><text fill="#000000" font-family="sans-serif" font-size="14" font-weight="bold" lengthAdjust="spacing" textLength="415" x="288" y="33.0059">UC_ConsultarReportesUsuariosEntrenador: Activity Diagram</text><ellipse cx="575.375" cy="57.7999" fill="#222222" rx="10" ry="10" style="stroke:#222222;stroke-width:1.0;"/><rect fill="#F1F1F1" height="34.4001" rx="12.5" ry="12.5" style="stroke:#181818;stroke-width:0.5;" width="335" x="407.875" y="87.7999"/><text fill="#000000" font-family="sans-serif" font-size="12" lengthAdjust="spacing" textLength="315" x="417.875" y="108.948">Entrenador navega a la p&#225;gina de B&#250;squeda de Reportes</text><rect fill="#F1F1F1" height="34.4001" rx="12.5" ry="12.5" style="stroke:#181818;stroke-width:0.5;" width="336" x="407.375" y="142.2"/><text fill="#000000" font-family="sans-serif" font-size="12" lengthAdjust="spacing" textLength="316" x="417.375" y="163.3481">Sistema carga lista de todos los usuarios (para b&#250;squeda)</text><rect fill="#F1F1F1" height="34.4001" rx="12.5" ry="12.5" style="stroke:#181818;stroke-width:0.5;" width="399" x="375.875" y="196.6001"/><text fill="#000000" font-family="sans-serif" font-size="12" lengthAdjust="spacing" textLength="379" x="385.875" y="217.7482">Entrenador ingresa un email (o parte de &#233;l) en el campo de b&#250;squeda</text><rect fill="#F1F1F1" height="34.4001" rx="12.5" ry="12.5" style="stroke:#181818;stroke-width:0.5;" width="407" x="371.875" y="251.0002"/><text fill="#000000" font-family="sans-serif" font-size="12" lengthAdjust="spacing" textLength="387" x="381.875" y="272.1483">Sistema filtra (localmente) la lista de usuarios seg&#250;n el email ingresado</text><rect fill="#F1F1F1" height="34.4001" rx="12.5" ry="12.5" style="stroke:#181818;stroke-width:0.5;" width="323" x="413.875" y="305.4003"/><text fill="#000000" font-family="sans-serif" font-size="12" lengthAdjust="spacing" textLength="303" x="423.875" y="326.5484">Sistema muestra los usuarios coincidentes en una tabla</text><polygon fill="#F1F1F1" points="425.875,359.8004,724.875,359.8004,736.875,371.8004,724.875,383.8004,425.875,383.8004,413.875,371.8004,425.875,359.8004" style="stroke:#181818;stroke-width:0.5;"/><text fill="#000000" font-family="sans-serif" font-size="11" lengthAdjust="spacing" textLength="299" x="425.875" y="375.4194">Usuario encontrado y Entrenador hace clic en "Ver Reporte"?</text><text fill="#000000" font-family="sans-serif" font-size="11" lengthAdjust="spacing" textLength="9" x="404.875" y="368.8195">s&#237;</text><text fill="#000000" font-family="sans-serif" font-size="11" lengthAdjust="spacing" textLength="194" x="736.875" y="368.8195">no - no hay coincidencias o no hace clic</text><rect fill="#F1F1F1" height="34.4001" rx="12.5" ry="12.5" style="stroke:#181818;stroke-width:0.5;" width="489" x="73.75" y="393.8004"/><text fill="#000000" font-family="sans-serif" font-size="12" lengthAdjust="spacing" textLength="469" x="83.75" y="414.9485">Sistema navega a la p&#225;gina de Reporte del Usuario Espec&#237;fico (usando ID de usuario)</text><rect fill="#F1F1F1" height="34.4001" rx="12.5" ry="12.5" style="stroke:#181818;stroke-width:0.5;" width="422" x="107.25" y="448.2005"/><text fill="#000000" font-family="sans-serif" font-size="12" lengthAdjust="spacing" textLength="402" x="117.25" y="469.3486">P&#225;gina de Reporte solicita el reporte completo del usuario al Backend API</text><polygon fill="#F1F1F1" points="204.75,502.6006,431.75,502.6006,443.75,514.6006,431.75,526.6006,204.75,526.6006,192.75,514.6006,204.75,502.6006" style="stroke:#181818;stroke-width:0.5;"/><text fill="#000000" font-family="sans-serif" font-size="11" lengthAdjust="spacing" textLength="227" x="204.75" y="518.2196">Reporte Encontrado y Cargado Exitosamente?</text><text fill="#000000" font-family="sans-serif" font-size="11" lengthAdjust="spacing" textLength="9" x="183.75" y="511.6197">s&#237;</text><text fill="#000000" font-family="sans-serif" font-size="11" lengthAdjust="spacing" textLength="140" x="443.75" y="511.6197">no - reporte no existe o error</text><rect fill="#F1F1F1" height="34.4001" rx="12.5" ry="12.5" style="stroke:#181818;stroke-width:0.5;" width="246" x="30" y="536.6006"/><text fill="#000000" font-family="sans-serif" font-size="12" lengthAdjust="spacing" textLength="226" x="40" y="557.7487">Backend API retorna los datos del reporte</text><rect fill="#F1F1F1" height="34.4001" rx="12.5" ry="12.5" style="stroke:#181818;stroke-width:0.5;" width="284" x="11" y="591.0007"/><text fill="#000000" font-family="sans-serif" font-size="12" lengthAdjust="spacing" textLength="264" x="21" y="612.1488">Sistema muestra el reporte detallado del usuario</text><rect fill="#F1F1F1" height="34.4001" rx="12.5" ry="12.5" style="stroke:#181818;stroke-width:0.5;" width="161" x="403" y="536.6006"/><text fill="#000000" font-family="sans-serif" font-size="12" lengthAdjust="spacing" textLength="141" x="413" y="557.7487">Backend API retorna error</text><rect fill="#F1F1F1" height="34.4001" rx="12.5" ry="12.5" style="stroke:#181818;stroke-width:0.5;" width="337" x="315" y="591.0007"/><text fill="#000000" font-family="sans-serif" font-size="12" lengthAdjust="spacing" textLength="317" x="325" y="612.1488">Sistema muestra mensaje de error en la p&#225;gina de reporte</text><polygon fill="#F1F1F1" points="318.25,631.4008,330.25,643.4008,318.25,655.4008,306.25,643.4008,318.25,631.4008" style="stroke:#181818;stroke-width:0.5;"/><rect fill="#F1F1F1" height="34.4001" rx="12.5" ry="12.5" style="stroke:#181818;stroke-width:0.5;" width="301" x="682" y="393.8004"/><text fill="#000000" font-family="sans-serif" font-size="12" lengthAdjust="spacing" textLength="281" x="692" y="414.9485">Entrenador puede refinar la b&#250;squeda o abandonar</text><polygon fill="#F1F1F1" points="575.375,661.4008,587.375,673.4008,575.375,685.4008,563.375,673.4008,575.375,661.4008" style="stroke:#181818;stroke-width:0.5;"/><ellipse cx="575.375" cy="716.4008" fill="none" rx="11" ry="11" style="stroke:#222222;stroke-width:1.0;"/><ellipse cx="575.375" cy="716.4008" fill="#222222" rx="6" ry="6" style="stroke:#222222;stroke-width:1.0;"/><line style="stroke:#181818;stroke-width:1.0;" x1="575.375" x2="575.375" y1="67.7999" y2="87.7999"/><polygon fill="#181818" points="571.375,77.7999,575.375,87.7999,579.375,77.7999,575.375,81.7999" style="stroke:#181818;stroke-width:1.0;"/><line style="stroke:#181818;stroke-width:1.0;" x1="575.375" x2="575.375" y1="122.2" y2="142.2"/><polygon fill="#181818" points="571.375,132.2,575.375,142.2,579.375,132.2,575.375,136.2" style="stroke:#181818;stroke-width:1.0;"/><line style="stroke:#181818;stroke-width:1.0;" x1="575.375" x2="575.375" y1="176.6001" y2="196.6001"/><polygon fill="#181818" points="571.375,186.6001,575.375,196.6001,579.375,186.6001,575.375,190.6001" style="stroke:#181818;stroke-width:1.0;"/><line style="stroke:#181818;stroke-width:1.0;" x1="575.375" x2="575.375" y1="231.0002" y2="251.0002"/><polygon fill="#181818" points="571.375,241.0002,575.375,251.0002,579.375,241.0002,575.375,245.0002" style="stroke:#181818;stroke-width:1.0;"/><line style="stroke:#181818;stroke-width:1.0;" x1="575.375" x2="575.375" y1="285.4003" y2="305.4003"/><polygon fill="#181818" points="571.375,295.4003,575.375,305.4003,579.375,295.4003,575.375,299.4003" style="stroke:#181818;stroke-width:1.0;"/><line style="stroke:#181818;stroke-width:1.0;" x1="318.25" x2="318.25" y1="428.2005" y2="448.2005"/><polygon fill="#181818" points="314.25,438.2005,318.25,448.2005,322.25,438.2005,318.25,442.2005" style="stroke:#181818;stroke-width:1.0;"/><line style="stroke:#181818;stroke-width:1.0;" x1="153" x2="153" y1="571.0007" y2="591.0007"/><polygon fill="#181818" points="149,581.0007,153,591.0007,157,581.0007,153,585.0007" style="stroke:#181818;stroke-width:1.0;"/><line style="stroke:#181818;stroke-width:1.0;" x1="483.5" x2="483.5" y1="571.0007" y2="591.0007"/><polygon fill="#181818" points="479.5,581.0007,483.5,591.0007,487.5,581.0007,483.5,585.0007" style="stroke:#181818;stroke-width:1.0;"/><line style="stroke:#181818;stroke-width:1.0;" x1="192.75" x2="153" y1="514.6006" y2="514.6006"/><line style="stroke:#181818;stroke-width:1.0;" x1="153" x2="153" y1="514.6006" y2="536.6006"/><polygon fill="#181818" points="149,526.6006,153,536.6006,157,526.6006,153,530.6006" style="stroke:#181818;stroke-width:1.0;"/><line style="stroke:#181818;stroke-width:1.0;" x1="443.75" x2="483.5" y1="514.6006" y2="514.6006"/><line style="stroke:#181818;stroke-width:1.0;" x1="483.5" x2="483.5" y1="514.6006" y2="536.6006"/><polygon fill="#181818" points="479.5,526.6006,483.5,536.6006,487.5,526.6006,483.5,530.6006" style="stroke:#181818;stroke-width:1.0;"/><line style="stroke:#181818;stroke-width:1.0;" x1="153" x2="153" y1="625.4008" y2="643.4008"/><line style="stroke:#181818;stroke-width:1.0;" x1="153" x2="306.25" y1="643.4008" y2="643.4008"/><polygon fill="#181818" points="296.25,639.4008,306.25,643.4008,296.25,647.4008,300.25,643.4008" style="stroke:#181818;stroke-width:1.0;"/><line style="stroke:#181818;stroke-width:1.0;" x1="483.5" x2="483.5" y1="625.4008" y2="643.4008"/><line style="stroke:#181818;stroke-width:1.0;" x1="483.5" x2="330.25" y1="643.4008" y2="643.4008"/><polygon fill="#181818" points="340.25,639.4008,330.25,643.4008,340.25,647.4008,336.25,643.4008" style="stroke:#181818;stroke-width:1.0;"/><line style="stroke:#181818;stroke-width:1.0;" x1="318.25" x2="318.25" y1="482.6006" y2="502.6006"/><polygon fill="#181818" points="314.25,492.6006,318.25,502.6006,322.25,492.6006,318.25,496.6006" style="stroke:#181818;stroke-width:1.0;"/><line style="stroke:#181818;stroke-width:1.0;" x1="413.875" x2="318.25" y1="371.8004" y2="371.8004"/><line style="stroke:#181818;stroke-width:1.0;" x1="318.25" x2="318.25" y1="371.8004" y2="393.8004"/><polygon fill="#181818" points="314.25,383.8004,318.25,393.8004,322.25,383.8004,318.25,387.8004" style="stroke:#181818;stroke-width:1.0;"/><line style="stroke:#181818;stroke-width:1.0;" x1="736.875" x2="832.5" y1="371.8004" y2="371.8004"/><line style="stroke:#181818;stroke-width:1.0;" x1="832.5" x2="832.5" y1="371.8004" y2="393.8004"/><polygon fill="#181818" points="828.5,383.8004,832.5,393.8004,836.5,383.8004,832.5,387.8004" style="stroke:#181818;stroke-width:1.0;"/><line style="stroke:#181818;stroke-width:1.0;" x1="318.25" x2="318.25" y1="655.4008" y2="673.4008"/><line style="stroke:#181818;stroke-width:1.0;" x1="318.25" x2="563.375" y1="673.4008" y2="673.4008"/><polygon fill="#181818" points="553.375,669.4008,563.375,673.4008,553.375,677.4008,557.375,673.4008" style="stroke:#181818;stroke-width:1.0;"/><line style="stroke:#181818;stroke-width:1.0;" x1="832.5" x2="832.5" y1="428.2005" y2="673.4008"/><line style="stroke:#181818;stroke-width:1.0;" x1="832.5" x2="587.375" y1="673.4008" y2="673.4008"/><polygon fill="#181818" points="597.375,669.4008,587.375,673.4008,597.375,677.4008,593.375,673.4008" style="stroke:#181818;stroke-width:1.0;"/><line style="stroke:#181818;stroke-width:1.0;" x1="575.375" x2="575.375" y1="339.8004" y2="359.8004"/><polygon fill="#181818" points="571.375,349.8004,575.375,359.8004,579.375,349.8004,575.375,353.8004" style="stroke:#181818;stroke-width:1.0;"/><line style="stroke:#181818;stroke-width:1.0;" x1="575.375" x2="575.375" y1="685.4008" y2="705.4008"/><polygon fill="#181818" points="571.375,695.4008,575.375,705.4008,579.375,695.4008,575.375,699.4008" style="stroke:#181818;stroke-width:1.0;"/><!--SRC=[VPCxSjj038PxdWBZYYfo0Qd8sB8ATvvad3O3BI5fa-M2MO0UwpWfK_W2RdcnO2cAMZdZ5EBi2z__uo7r6WYUrj_N7AKFYkaBTPoKv4bwJ9vb4pLHn8RJ4cwT-cUlHxZtk4_OLfLOX5RBooE8-4nx18I0q0s_zpuYD0HtmvlywgaPDsUDLRNywaMfHN2OB2hORdoXtB10i5y_-O2wmuImFNCMgojP7_U91A6FO3WVe6Qm0ALC6_w41P3T1DDfEyvdCwWmiVD1JQCEx32q59KMEOtPrUn5Q3-yZRoJsAJUS05hUv9Ckqh2iO_EDnajsL5lrL7S1dFXTr1FHRSRnvQR0U48HPO7T0GkU9TZRxvHEfVovlC2z627jGolYmfWjl51FwOuMmOugswa8pUyxhnZg7l1QF8FzqNYLdCZF_vB4JPFtefaj3ITEMwxGCgZn0G03727xYV51cuV7p8kftt6RCgqrtaYRBLvySg2OplUPsbk2fn9AwTuAdc3chyNGwlJ-_VjAHmtf1X2rYmivp0AGb17Xa_pMzlGIqQ1BLBYz1yxu_q7yfQMu8znIiTdkR7NdIhi6zZlgiADVGvul4oLyoXcQ3oU9cKSXcA4Eflv3DqPFcMf-OzWWRZDJRUBLNNI4kNkBm00]--></g></svg>