<?xml version="1.0" encoding="us-ascii" standalone="no"?><svg xmlns="http://www.w3.org/2000/svg" xmlns:xlink="http://www.w3.org/1999/xlink" contentStyleType="text/css" height="1334px" preserveAspectRatio="none" style="width:2334px;height:1334px;background:#FFFFFF;" version="1.1" viewBox="0 0 2334 1334" width="2334px" zoomAndPan="magnify"><defs/><g><text fill="#000000" font-family="sans-serif" font-size="14" font-weight="bold" lengthAdjust="spacing" textLength="554" x="891" y="28.0059">UC_GestionarCategoriasCRUDAdmin (Crear/Editar Categor&#237;a): Sequence Diagram</text><rect fill="#FFFFFF" height="1038.4003" style="stroke:#181818;stroke-width:1.0;" width="10" x="702.5" y="205.3999"/><rect fill="#FFFFFF" height="510.6002" style="stroke:#181818;stroke-width:1.0;" width="10" x="707.5" y="724.2"/><rect fill="#FFFFFF" height="88.8" style="stroke:#181818;stroke-width:1.0;" width="10" x="1148.5" y="234.9999"/><rect fill="#FFFFFF" height="88.8" style="stroke:#181818;stroke-width:1.0;" width="10" x="1148.5" y="753.8"/><rect fill="#FFFFFF" height="207.2001" style="stroke:#181818;stroke-width:1.0;" width="10" x="1404" y="353.4"/><rect fill="#FFFFFF" height="207.2001" style="stroke:#181818;stroke-width:1.0;" width="10" x="1404" y="872.2001"/><rect fill="#FFFFFF" height="860.8003" style="stroke:#181818;stroke-width:1.0;" width="10" x="1740" y="383"/><rect fill="#FFFFFF" height="342.0001" style="stroke:#181818;stroke-width:1.0;" width="10" x="1745" y="901.8001"/><rect fill="#FFFFFF" height="29.6" style="stroke:#181818;stroke-width:1.0;" width="10" x="1891" y="412.6"/><rect fill="#FFFFFF" height="29.6" style="stroke:#181818;stroke-width:1.0;" width="10" x="1891" y="931.4001"/><rect fill="#FFFFFF" height="29.6" style="stroke:#181818;stroke-width:1.0;" width="10" x="2024.5" y="471.8"/><rect fill="#FFFFFF" height="29.6" style="stroke:#181818;stroke-width:1.0;" width="10" x="2024.5" y="990.6001"/><rect fill="#FFFFFF" height="29.6" style="stroke:#181818;stroke-width:1.0;" width="10" x="2152.5" y="1175.6002"/><rect fill="#FFFFFF" height="30" style="stroke:#181818;stroke-width:1.0;" width="10" x="2266.5" y="590.2001"/><rect fill="#FFFFFF" height="30" style="stroke:#181818;stroke-width:1.0;" width="10" x="2266.5" y="1109.0002"/><rect fill="none" height="1010.4003" style="stroke:#000000;stroke-width:1.5;" width="2317" x="10" y="136.5999"/><line style="stroke:#181818;stroke-width:0.5;stroke-dasharray:5.0,5.0;" x1="43" x2="43" y1="119.5999" y2="1252.8002"/><line style="stroke:#181818;stroke-width:0.5;stroke-dasharray:5.0,5.0;" x1="224.5" x2="224.5" y1="119.5999" y2="1252.8002"/><line style="stroke:#181818;stroke-width:0.5;stroke-dasharray:5.0,5.0;" x1="476.5" x2="476.5" y1="119.5999" y2="1252.8002"/><line style="stroke:#181818;stroke-width:0.5;stroke-dasharray:5.0,5.0;" x1="707.5" x2="707.5" y1="119.5999" y2="1252.8002"/><line style="stroke:#181818;stroke-width:0.5;stroke-dasharray:5.0,5.0;" x1="1153.5" x2="1153.5" y1="119.5999" y2="1252.8002"/><line style="stroke:#181818;stroke-width:0.5;stroke-dasharray:5.0,5.0;" x1="1408.5" x2="1408.5" y1="119.5999" y2="1252.8002"/><line style="stroke:#181818;stroke-width:0.5;stroke-dasharray:5.0,5.0;" x1="1744.5" x2="1744.5" y1="119.5999" y2="1252.8002"/><line style="stroke:#181818;stroke-width:0.5;stroke-dasharray:5.0,5.0;" x1="1896" x2="1896" y1="119.5999" y2="1252.8002"/><line style="stroke:#181818;stroke-width:0.5;stroke-dasharray:5.0,5.0;" x1="2029" x2="2029" y1="119.5999" y2="1252.8002"/><line style="stroke:#181818;stroke-width:0.5;stroke-dasharray:5.0,5.0;" x1="2157" x2="2157" y1="119.5999" y2="1252.8002"/><line style="stroke:#181818;stroke-width:0.5;stroke-dasharray:5.0,5.0;" x1="2271" x2="2271" y1="119.5999" y2="1252.8002"/><text fill="#000000" font-family="sans-serif" font-size="14" lengthAdjust="spacing" textLength="40" x="20" y="115.8059">Admin</text><ellipse cx="43" cy="51.2999" fill="#E2E2F0" rx="8" ry="8" style="stroke:#181818;stroke-width:0.5;"/><path d="M43,59.2999 L43,86.2999 M30,67.2999 L56,67.2999 M43,86.2999 L30,101.2999 M43,86.2999 L56,101.2999 " fill="none" style="stroke:#181818;stroke-width:0.5;"/><text fill="#000000" font-family="sans-serif" font-size="14" lengthAdjust="spacing" textLength="40" x="20" y="1264.8062">Admin</text><ellipse cx="43" cy="1277.1002" fill="#E2E2F0" rx="8" ry="8" style="stroke:#181818;stroke-width:0.5;"/><path d="M43,1285.1002 L43,1312.1002 M30,1293.1002 L56,1293.1002 M43,1312.1002 L30,1327.1002 M43,1312.1002 L56,1327.1002 " fill="none" style="stroke:#181818;stroke-width:0.5;"/><rect fill="#E2E2F0" height="36" rx="2.5" ry="2.5" style="stroke:#181818;stroke-width:0.5;" width="217" x="116.5" y="82.5999"/><ellipse cx="134.5" cy="100.5999" fill="#DA70D6" rx="11" ry="11" style="stroke:#181818;stroke-width:1.0;"/><path d="M132.3594,101.9905 L133.9375,101.9905 C134.6094,102.2405 136.0938,103.9124 136.9688,105.4905 L137.0313,105.5999 L138.4063,105.5999 C138.7344,105.5999 139.0156,105.553 139.1563,105.4749 C139.4219,105.3186 139.5938,105.0217 139.5938,104.7092 C139.5938,104.4436 139.4375,104.1624 139.2188,104.0061 C139.0313,103.8655 138.8594,103.8342 138.4063,103.8342 L138.2188,103.8342 C137.5625,102.8499 136.8906,102.053 136.1563,101.4124 C137.3594,100.7874 137.9375,99.9905 137.9375,98.9592 C137.9375,97.2249 136.3906,96.0061 134.1406,96.0061 L130.3438,96.0061 C129.8906,96.0061 129.7656,96.0217 129.5938,96.1311 C129.3281,96.303 129.1563,96.5842 129.1563,96.8811 C129.1563,97.1624 129.3125,97.4436 129.5313,97.5999 C129.7188,97.7249 129.9063,97.7561 130.3438,97.7561 L130.5313,97.7561 L130.5313,103.8342 L130.3438,103.8342 C129.9219,103.8342 129.7656,103.8655 129.5938,103.9749 C129.3281,104.1155 129.1563,104.4124 129.1563,104.7092 C129.1563,105.2874 129.5625,105.5999 130.3438,105.5999 L132.8906,105.5999 C133.25,105.5999 133.5,105.553 133.6406,105.4749 C133.9063,105.3186 134.0781,105.0217 134.0781,104.7092 C134.0781,104.4436 133.9531,104.178 133.7031,104.0061 C133.5156,103.8655 133.375,103.8342 132.8906,103.8342 L132.3594,103.8342 L132.3594,101.9905 Z M132.3594,100.2405 L132.3594,97.7561 L134.2031,97.7561 C135.2344,97.7561 136,98.2405 136,98.8967 C136,99.678 134.9844,100.2405 133.5938,100.2405 L132.3594,100.2405 Z " fill="#000000"/><text fill="#000000" font-family="sans-serif" font-size="14" lengthAdjust="spacing" textLength="175" x="151.5" y="102.6058">CategoryManagementPage</text><rect fill="#E2E2F0" height="36" rx="2.5" ry="2.5" style="stroke:#181818;stroke-width:0.5;" width="217" x="116.5" y="1251.8002"/><ellipse cx="134.5" cy="1269.8002" fill="#DA70D6" rx="11" ry="11" style="stroke:#181818;stroke-width:1.0;"/><path d="M132.3594,1271.1909 L133.9375,1271.1909 C134.6094,1271.4409 136.0938,1273.1127 136.9688,1274.6909 L137.0313,1274.8002 L138.4063,1274.8002 C138.7344,1274.8002 139.0156,1274.7534 139.1563,1274.6752 C139.4219,1274.519 139.5938,1274.2221 139.5938,1273.9096 C139.5938,1273.644 139.4375,1273.3627 139.2188,1273.2065 C139.0313,1273.0659 138.8594,1273.0346 138.4063,1273.0346 L138.2188,1273.0346 C137.5625,1272.0502 136.8906,1271.2534 136.1563,1270.6127 C137.3594,1269.9877 137.9375,1269.1909 137.9375,1268.1596 C137.9375,1266.4252 136.3906,1265.2065 134.1406,1265.2065 L130.3438,1265.2065 C129.8906,1265.2065 129.7656,1265.2221 129.5938,1265.3315 C129.3281,1265.5034 129.1563,1265.7846 129.1563,1266.0815 C129.1563,1266.3627 129.3125,1266.644 129.5313,1266.8002 C129.7188,1266.9252 129.9063,1266.9565 130.3438,1266.9565 L130.5313,1266.9565 L130.5313,1273.0346 L130.3438,1273.0346 C129.9219,1273.0346 129.7656,1273.0659 129.5938,1273.1752 C129.3281,1273.3159 129.1563,1273.6127 129.1563,1273.9096 C129.1563,1274.4877 129.5625,1274.8002 130.3438,1274.8002 L132.8906,1274.8002 C133.25,1274.8002 133.5,1274.7534 133.6406,1274.6752 C133.9063,1274.519 134.0781,1274.2221 134.0781,1273.9096 C134.0781,1273.644 133.9531,1273.3784 133.7031,1273.2065 C133.5156,1273.0659 133.375,1273.0346 132.8906,1273.0346 L132.3594,1273.0346 L132.3594,1271.1909 Z M132.3594,1269.4409 L132.3594,1266.9565 L134.2031,1266.9565 C135.2344,1266.9565 136,1267.4409 136,1268.0971 C136,1268.8784 134.9844,1269.4409 133.5938,1269.4409 L132.3594,1269.4409 Z " fill="#000000"/><text fill="#000000" font-family="sans-serif" font-size="14" lengthAdjust="spacing" textLength="175" x="151.5" y="1271.8062">CategoryManagementPage</text><rect fill="#E2E2F0" height="36" rx="2.5" ry="2.5" style="stroke:#181818;stroke-width:0.5;" width="267" x="343.5" y="82.5999"/><ellipse cx="361.5" cy="100.5999" fill="#D3D3D3" rx="11" ry="11" style="stroke:#181818;stroke-width:1.0;"/><path d="M356.5,101.7561 C356.5,104.2561 358.6406,106.0686 361.5625,106.0686 C362.7969,106.0686 363.9688,105.7717 364.7188,105.2561 C365.3281,104.8342 365.6563,104.4124 365.6563,104.0061 C365.6563,103.5374 365.2344,103.1311 364.7344,103.1311 C364.5,103.1311 364.2813,103.2092 364.0781,103.4124 C363.6406,103.8499 363.6406,103.8499 363.4688,103.9436 C363.0156,104.178 362.375,104.3186 361.6094,104.3186 C359.6094,104.3186 358.3281,103.303 358.3281,101.7249 L358.3281,100.678 C358.3281,98.9749 359.5469,97.7717 361.25,97.7717 C361.8281,97.7717 362.4063,97.9124 362.875,98.1624 C363.3438,98.428 363.5156,98.6155 363.5781,98.9749 C363.7031,99.6467 363.9531,99.8967 364.4844,99.8967 C364.7656,99.8967 365.0469,99.7561 365.2344,99.5374 C365.3594,99.3655 365.4063,99.1936 365.4063,98.7561 L365.4063,97.3967 C365.4063,96.9749 365.3906,96.8342 365.2656,96.6624 C365.0938,96.4124 364.8125,96.2561 364.4844,96.2561 C364.1719,96.2561 363.9688,96.3655 363.75,96.6311 C362.5781,96.1311 362.1406,96.0217 361.1875,96.0217 C358.5156,96.0217 356.5,98.0374 356.5,100.6624 L356.5,101.7561 Z " fill="#000000"/><text fill="#000000" font-family="sans-serif" font-size="14" lengthAdjust="spacing" textLength="225" x="378.5" y="102.6058">CategoryComponentCard (existing)</text><rect fill="#E2E2F0" height="36" rx="2.5" ry="2.5" style="stroke:#181818;stroke-width:0.5;" width="267" x="343.5" y="1251.8002"/><ellipse cx="361.5" cy="1269.8002" fill="#D3D3D3" rx="11" ry="11" style="stroke:#181818;stroke-width:1.0;"/><path d="M356.5,1270.9565 C356.5,1273.4565 358.6406,1275.269 361.5625,1275.269 C362.7969,1275.269 363.9688,1274.9721 364.7188,1274.4565 C365.3281,1274.0346 365.6563,1273.6127 365.6563,1273.2065 C365.6563,1272.7377 365.2344,1272.3315 364.7344,1272.3315 C364.5,1272.3315 364.2813,1272.4096 364.0781,1272.6127 C363.6406,1273.0502 363.6406,1273.0502 363.4688,1273.144 C363.0156,1273.3784 362.375,1273.519 361.6094,1273.519 C359.6094,1273.519 358.3281,1272.5034 358.3281,1270.9252 L358.3281,1269.8784 C358.3281,1268.1752 359.5469,1266.9721 361.25,1266.9721 C361.8281,1266.9721 362.4063,1267.1127 362.875,1267.3627 C363.3438,1267.6284 363.5156,1267.8159 363.5781,1268.1752 C363.7031,1268.8471 363.9531,1269.0971 364.4844,1269.0971 C364.7656,1269.0971 365.0469,1268.9565 365.2344,1268.7377 C365.3594,1268.5659 365.4063,1268.394 365.4063,1267.9565 L365.4063,1266.5971 C365.4063,1266.1752 365.3906,1266.0346 365.2656,1265.8627 C365.0938,1265.6127 364.8125,1265.4565 364.4844,1265.4565 C364.1719,1265.4565 363.9688,1265.5659 363.75,1265.8315 C362.5781,1265.3315 362.1406,1265.2221 361.1875,1265.2221 C358.5156,1265.2221 356.5,1267.2377 356.5,1269.8627 L356.5,1270.9565 Z " fill="#000000"/><text fill="#000000" font-family="sans-serif" font-size="14" lengthAdjust="spacing" textLength="225" x="378.5" y="1271.8062">CategoryComponentCard (existing)</text><rect fill="#E2E2F0" height="36" rx="2.5" ry="2.5" style="stroke:#181818;stroke-width:0.5;" width="174" x="620.5" y="82.5999"/><ellipse cx="638.5" cy="100.5999" fill="#D3D3D3" rx="11" ry="11" style="stroke:#181818;stroke-width:1.0;"/><path d="M633.5,101.7561 C633.5,104.2561 635.6406,106.0686 638.5625,106.0686 C639.7969,106.0686 640.9688,105.7717 641.7188,105.2561 C642.3281,104.8342 642.6563,104.4124 642.6563,104.0061 C642.6563,103.5374 642.2344,103.1311 641.7344,103.1311 C641.5,103.1311 641.2813,103.2092 641.0781,103.4124 C640.6406,103.8499 640.6406,103.8499 640.4688,103.9436 C640.0156,104.178 639.375,104.3186 638.6094,104.3186 C636.6094,104.3186 635.3281,103.303 635.3281,101.7249 L635.3281,100.678 C635.3281,98.9749 636.5469,97.7717 638.25,97.7717 C638.8281,97.7717 639.4063,97.9124 639.875,98.1624 C640.3438,98.428 640.5156,98.6155 640.5781,98.9749 C640.7031,99.6467 640.9531,99.8967 641.4844,99.8967 C641.7656,99.8967 642.0469,99.7561 642.2344,99.5374 C642.3594,99.3655 642.4063,99.1936 642.4063,98.7561 L642.4063,97.3967 C642.4063,96.9749 642.3906,96.8342 642.2656,96.6624 C642.0938,96.4124 641.8125,96.2561 641.4844,96.2561 C641.1719,96.2561 640.9688,96.3655 640.75,96.6311 C639.5781,96.1311 639.1406,96.0217 638.1875,96.0217 C635.5156,96.0217 633.5,98.0374 633.5,100.6624 L633.5,101.7561 Z " fill="#000000"/><text fill="#000000" font-family="sans-serif" font-size="14" lengthAdjust="spacing" textLength="132" x="655.5" y="102.6058">CategoryFormDialog</text><rect fill="#E2E2F0" height="36" rx="2.5" ry="2.5" style="stroke:#181818;stroke-width:0.5;" width="174" x="620.5" y="1251.8002"/><ellipse cx="638.5" cy="1269.8002" fill="#D3D3D3" rx="11" ry="11" style="stroke:#181818;stroke-width:1.0;"/><path d="M633.5,1270.9565 C633.5,1273.4565 635.6406,1275.269 638.5625,1275.269 C639.7969,1275.269 640.9688,1274.9721 641.7188,1274.4565 C642.3281,1274.0346 642.6563,1273.6127 642.6563,1273.2065 C642.6563,1272.7377 642.2344,1272.3315 641.7344,1272.3315 C641.5,1272.3315 641.2813,1272.4096 641.0781,1272.6127 C640.6406,1273.0502 640.6406,1273.0502 640.4688,1273.144 C640.0156,1273.3784 639.375,1273.519 638.6094,1273.519 C636.6094,1273.519 635.3281,1272.5034 635.3281,1270.9252 L635.3281,1269.8784 C635.3281,1268.1752 636.5469,1266.9721 638.25,1266.9721 C638.8281,1266.9721 639.4063,1267.1127 639.875,1267.3627 C640.3438,1267.6284 640.5156,1267.8159 640.5781,1268.1752 C640.7031,1268.8471 640.9531,1269.0971 641.4844,1269.0971 C641.7656,1269.0971 642.0469,1268.9565 642.2344,1268.7377 C642.3594,1268.5659 642.4063,1268.394 642.4063,1267.9565 L642.4063,1266.5971 C642.4063,1266.1752 642.3906,1266.0346 642.2656,1265.8627 C642.0938,1265.6127 641.8125,1265.4565 641.4844,1265.4565 C641.1719,1265.4565 640.9688,1265.5659 640.75,1265.8315 C639.5781,1265.3315 639.1406,1265.2221 638.1875,1265.2221 C635.5156,1265.2221 633.5,1267.2377 633.5,1269.8627 L633.5,1270.9565 Z " fill="#000000"/><text fill="#000000" font-family="sans-serif" font-size="14" lengthAdjust="spacing" textLength="132" x="655.5" y="1271.8062">CategoryFormDialog</text><rect fill="#E2E2F0" height="36" rx="2.5" ry="2.5" style="stroke:#181818;stroke-width:0.5;" width="208" x="1049.5" y="82.5999"/><ellipse cx="1067.5" cy="100.5999" fill="#D3D3D3" rx="11" ry="11" style="stroke:#181818;stroke-width:1.0;"/><path d="M1062.5,101.7561 C1062.5,104.2561 1064.6406,106.0686 1067.5625,106.0686 C1068.7969,106.0686 1069.9688,105.7717 1070.7188,105.2561 C1071.3281,104.8342 1071.6563,104.4124 1071.6563,104.0061 C1071.6563,103.5374 1071.2344,103.1311 1070.7344,103.1311 C1070.5,103.1311 1070.2813,103.2092 1070.0781,103.4124 C1069.6406,103.8499 1069.6406,103.8499 1069.4688,103.9436 C1069.0156,104.178 1068.375,104.3186 1067.6094,104.3186 C1065.6094,104.3186 1064.3281,103.303 1064.3281,101.7249 L1064.3281,100.678 C1064.3281,98.9749 1065.5469,97.7717 1067.25,97.7717 C1067.8281,97.7717 1068.4063,97.9124 1068.875,98.1624 C1069.3438,98.428 1069.5156,98.6155 1069.5781,98.9749 C1069.7031,99.6467 1069.9531,99.8967 1070.4844,99.8967 C1070.7656,99.8967 1071.0469,99.7561 1071.2344,99.5374 C1071.3594,99.3655 1071.4063,99.1936 1071.4063,98.7561 L1071.4063,97.3967 C1071.4063,96.9749 1071.3906,96.8342 1071.2656,96.6624 C1071.0938,96.4124 1070.8125,96.2561 1070.4844,96.2561 C1070.1719,96.2561 1069.9688,96.3655 1069.75,96.6311 C1068.5781,96.1311 1068.1406,96.0217 1067.1875,96.0217 C1064.5156,96.0217 1062.5,98.0374 1062.5,100.6624 L1062.5,101.7561 Z " fill="#000000"/><text fill="#000000" font-family="sans-serif" font-size="14" lengthAdjust="spacing" textLength="166" x="1084.5" y="102.6058">ReusableForm (Category)</text><rect fill="#E2E2F0" height="36" rx="2.5" ry="2.5" style="stroke:#181818;stroke-width:0.5;" width="208" x="1049.5" y="1251.8002"/><ellipse cx="1067.5" cy="1269.8002" fill="#D3D3D3" rx="11" ry="11" style="stroke:#181818;stroke-width:1.0;"/><path d="M1062.5,1270.9565 C1062.5,1273.4565 1064.6406,1275.269 1067.5625,1275.269 C1068.7969,1275.269 1069.9688,1274.9721 1070.7188,1274.4565 C1071.3281,1274.0346 1071.6563,1273.6127 1071.6563,1273.2065 C1071.6563,1272.7377 1071.2344,1272.3315 1070.7344,1272.3315 C1070.5,1272.3315 1070.2813,1272.4096 1070.0781,1272.6127 C1069.6406,1273.0502 1069.6406,1273.0502 1069.4688,1273.144 C1069.0156,1273.3784 1068.375,1273.519 1067.6094,1273.519 C1065.6094,1273.519 1064.3281,1272.5034 1064.3281,1270.9252 L1064.3281,1269.8784 C1064.3281,1268.1752 1065.5469,1266.9721 1067.25,1266.9721 C1067.8281,1266.9721 1068.4063,1267.1127 1068.875,1267.3627 C1069.3438,1267.6284 1069.5156,1267.8159 1069.5781,1268.1752 C1069.7031,1268.8471 1069.9531,1269.0971 1070.4844,1269.0971 C1070.7656,1269.0971 1071.0469,1268.9565 1071.2344,1268.7377 C1071.3594,1268.5659 1071.4063,1268.394 1071.4063,1267.9565 L1071.4063,1266.5971 C1071.4063,1266.1752 1071.3906,1266.0346 1071.2656,1265.8627 C1071.0938,1265.6127 1070.8125,1265.4565 1070.4844,1265.4565 C1070.1719,1265.4565 1069.9688,1265.5659 1069.75,1265.8315 C1068.5781,1265.3315 1068.1406,1265.2221 1067.1875,1265.2221 C1064.5156,1265.2221 1062.5,1267.2377 1062.5,1269.8627 L1062.5,1270.9565 Z " fill="#000000"/><text fill="#000000" font-family="sans-serif" font-size="14" lengthAdjust="spacing" textLength="166" x="1084.5" y="1271.8062">ReusableForm (Category)</text><rect fill="#E2E2F0" height="47.5999" rx="2.5" ry="2.5" style="stroke:#181818;stroke-width:0.5;" width="283" x="1267.5" y="71"/><ellipse cx="1285.5" cy="89" fill="#FFFF00" rx="11" ry="11" style="stroke:#181818;stroke-width:1.0;"/><path d="M1284.3594,90.0625 L1285.6719,90.0625 L1285.6719,90.1094 C1285.6719,90.5 1285.7031,90.6875 1285.7969,90.8438 C1285.9688,91.0938 1286.2656,91.2656 1286.5781,91.2656 C1286.8594,91.2656 1287.1406,91.125 1287.3281,90.9063 C1287.4531,90.7188 1287.5,90.5625 1287.5,90.1094 L1287.5,88.2813 C1287.5,87.8594 1287.4844,87.7344 1287.3594,87.5625 C1287.2031,87.2969 1286.9063,87.125 1286.5781,87.125 C1286.2813,87.125 1286.0156,87.2656 1285.8438,87.4844 C1285.7031,87.6719 1285.6719,87.8438 1285.6719,88.2813 L1285.6719,88.3281 L1284.3594,88.3281 L1284.3594,86.1563 L1288.5781,86.1563 L1288.5781,86.9219 C1288.5781,87.3125 1288.6094,87.4844 1288.7188,87.6406 C1288.8906,87.9063 1289.1719,88.0625 1289.5,88.0625 C1289.7813,88.0625 1290.0625,87.9375 1290.25,87.7031 C1290.3906,87.5156 1290.4219,87.375 1290.4219,86.9219 L1290.4219,84.4063 L1282.3438,84.4063 C1281.9063,84.4063 1281.7656,84.4219 1281.5938,84.5313 C1281.3281,84.7031 1281.1563,84.9844 1281.1563,85.2813 C1281.1563,85.5625 1281.3125,85.8438 1281.5313,86 C1281.7188,86.125 1281.9063,86.1563 1282.3438,86.1563 L1282.5313,86.1563 L1282.5313,92.25 L1282.3438,92.25 C1281.9219,92.25 1281.7656,92.2813 1281.5938,92.375 C1281.3281,92.5313 1281.1563,92.8281 1281.1563,93.1094 C1281.1563,93.6875 1281.5625,94 1282.3438,94 L1286,94 C1286.7813,94 1287.1875,93.7188 1287.1875,93.1094 C1287.1875,92.8438 1287.0469,92.5938 1286.8125,92.4219 C1286.625,92.2813 1286.4531,92.25 1286,92.25 L1284.3594,92.25 L1284.3594,90.0625 Z " fill="#000000"/><text fill="#000000" font-family="sans-serif" font-size="14" lengthAdjust="spacing" textLength="132" x="1357" y="91.0059">category_backend.ts</text><text fill="#000000" font-family="sans-serif" font-size="14" lengthAdjust="spacing" textLength="241" x="1302.5" y="107.8059">createCategory() or updateCategory()</text><rect fill="#E2E2F0" height="47.5999" rx="2.5" ry="2.5" style="stroke:#181818;stroke-width:0.5;" width="283" x="1267.5" y="1251.8002"/><ellipse cx="1285.5" cy="1269.8002" fill="#FFFF00" rx="11" ry="11" style="stroke:#181818;stroke-width:1.0;"/><path d="M1284.3594,1270.8627 L1285.6719,1270.8627 L1285.6719,1270.9096 C1285.6719,1271.3002 1285.7031,1271.4877 1285.7969,1271.644 C1285.9688,1271.894 1286.2656,1272.0659 1286.5781,1272.0659 C1286.8594,1272.0659 1287.1406,1271.9252 1287.3281,1271.7065 C1287.4531,1271.519 1287.5,1271.3627 1287.5,1270.9096 L1287.5,1269.0815 C1287.5,1268.6596 1287.4844,1268.5346 1287.3594,1268.3627 C1287.2031,1268.0971 1286.9063,1267.9252 1286.5781,1267.9252 C1286.2813,1267.9252 1286.0156,1268.0659 1285.8438,1268.2846 C1285.7031,1268.4721 1285.6719,1268.644 1285.6719,1269.0815 L1285.6719,1269.1284 L1284.3594,1269.1284 L1284.3594,1266.9565 L1288.5781,1266.9565 L1288.5781,1267.7221 C1288.5781,1268.1127 1288.6094,1268.2846 1288.7188,1268.4409 C1288.8906,1268.7065 1289.1719,1268.8627 1289.5,1268.8627 C1289.7813,1268.8627 1290.0625,1268.7377 1290.25,1268.5034 C1290.3906,1268.3159 1290.4219,1268.1752 1290.4219,1267.7221 L1290.4219,1265.2065 L1282.3438,1265.2065 C1281.9063,1265.2065 1281.7656,1265.2221 1281.5938,1265.3315 C1281.3281,1265.5034 1281.1563,1265.7846 1281.1563,1266.0815 C1281.1563,1266.3627 1281.3125,1266.644 1281.5313,1266.8002 C1281.7188,1266.9252 1281.9063,1266.9565 1282.3438,1266.9565 L1282.5313,1266.9565 L1282.5313,1273.0502 L1282.3438,1273.0502 C1281.9219,1273.0502 1281.7656,1273.0815 1281.5938,1273.1752 C1281.3281,1273.3315 1281.1563,1273.6284 1281.1563,1273.9096 C1281.1563,1274.4877 1281.5625,1274.8002 1282.3438,1274.8002 L1286,1274.8002 C1286.7813,1274.8002 1287.1875,1274.519 1287.1875,1273.9096 C1287.1875,1273.644 1287.0469,1273.394 1286.8125,1273.2221 C1286.625,1273.0815 1286.4531,1273.0502 1286,1273.0502 L1284.3594,1273.0502 L1284.3594,1270.8627 Z " fill="#000000"/><text fill="#000000" font-family="sans-serif" font-size="14" lengthAdjust="spacing" textLength="132" x="1357" y="1271.8062">category_backend.ts</text><text fill="#000000" font-family="sans-serif" font-size="14" lengthAdjust="spacing" textLength="241" x="1302.5" y="1288.6061">createCategory() or updateCategory()</text><rect fill="#E2E2F0" height="47.5999" rx="2.5" ry="2.5" style="stroke:#181818;stroke-width:0.5;" width="113" x="1688.5" y="71"/><ellipse cx="1706.5" cy="89" fill="#FFA500" rx="11" ry="11" style="stroke:#181818;stroke-width:1.0;"/><path d="M1705.3594,90.0625 L1706.6719,90.0625 L1706.6719,90.1094 C1706.6719,90.5 1706.7031,90.6875 1706.7969,90.8438 C1706.9688,91.0938 1707.2656,91.2656 1707.5781,91.2656 C1707.8594,91.2656 1708.1406,91.125 1708.3281,90.9063 C1708.4531,90.7188 1708.5,90.5625 1708.5,90.1094 L1708.5,88.2813 C1708.5,87.8594 1708.4844,87.7344 1708.3594,87.5625 C1708.2031,87.2969 1707.9063,87.125 1707.5781,87.125 C1707.2813,87.125 1707.0156,87.2656 1706.8438,87.4844 C1706.7031,87.6719 1706.6719,87.8438 1706.6719,88.2813 L1706.6719,88.3281 L1705.3594,88.3281 L1705.3594,86.1563 L1709.5781,86.1563 L1709.5781,86.9219 C1709.5781,87.3125 1709.6094,87.4844 1709.7188,87.6406 C1709.8906,87.9063 1710.1719,88.0625 1710.5,88.0625 C1710.7813,88.0625 1711.0625,87.9375 1711.25,87.7031 C1711.3906,87.5156 1711.4219,87.375 1711.4219,86.9219 L1711.4219,84.4063 L1703.3438,84.4063 C1702.9063,84.4063 1702.7656,84.4219 1702.5938,84.5313 C1702.3281,84.7031 1702.1563,84.9844 1702.1563,85.2813 C1702.1563,85.5625 1702.3125,85.8438 1702.5313,86 C1702.7188,86.125 1702.9063,86.1563 1703.3438,86.1563 L1703.5313,86.1563 L1703.5313,92.25 L1703.3438,92.25 C1702.9219,92.25 1702.7656,92.2813 1702.5938,92.375 C1702.3281,92.5313 1702.1563,92.8281 1702.1563,93.1094 C1702.1563,93.6875 1702.5625,94 1703.3438,94 L1707,94 C1707.7813,94 1708.1875,93.7188 1708.1875,93.1094 C1708.1875,92.8438 1708.0469,92.5938 1707.8125,92.4219 C1707.625,92.2813 1707.4531,92.25 1707,92.25 L1705.3594,92.25 L1705.3594,90.0625 Z " fill="#000000"/><text fill="#000000" font-family="sans-serif" font-size="14" lengthAdjust="spacing" textLength="40" x="1739" y="91.0059">utils.ts</text><text fill="#000000" font-family="sans-serif" font-size="14" lengthAdjust="spacing" textLength="71" x="1723.5" y="107.8059">fetchJson()</text><rect fill="#E2E2F0" height="47.5999" rx="2.5" ry="2.5" style="stroke:#181818;stroke-width:0.5;" width="113" x="1688.5" y="1251.8002"/><ellipse cx="1706.5" cy="1269.8002" fill="#FFA500" rx="11" ry="11" style="stroke:#181818;stroke-width:1.0;"/><path d="M1705.3594,1270.8627 L1706.6719,1270.8627 L1706.6719,1270.9096 C1706.6719,1271.3002 1706.7031,1271.4877 1706.7969,1271.644 C1706.9688,1271.894 1707.2656,1272.0659 1707.5781,1272.0659 C1707.8594,1272.0659 1708.1406,1271.9252 1708.3281,1271.7065 C1708.4531,1271.519 1708.5,1271.3627 1708.5,1270.9096 L1708.5,1269.0815 C1708.5,1268.6596 1708.4844,1268.5346 1708.3594,1268.3627 C1708.2031,1268.0971 1707.9063,1267.9252 1707.5781,1267.9252 C1707.2813,1267.9252 1707.0156,1268.0659 1706.8438,1268.2846 C1706.7031,1268.4721 1706.6719,1268.644 1706.6719,1269.0815 L1706.6719,1269.1284 L1705.3594,1269.1284 L1705.3594,1266.9565 L1709.5781,1266.9565 L1709.5781,1267.7221 C1709.5781,1268.1127 1709.6094,1268.2846 1709.7188,1268.4409 C1709.8906,1268.7065 1710.1719,1268.8627 1710.5,1268.8627 C1710.7813,1268.8627 1711.0625,1268.7377 1711.25,1268.5034 C1711.3906,1268.3159 1711.4219,1268.1752 1711.4219,1267.7221 L1711.4219,1265.2065 L1703.3438,1265.2065 C1702.9063,1265.2065 1702.7656,1265.2221 1702.5938,1265.3315 C1702.3281,1265.5034 1702.1563,1265.7846 1702.1563,1266.0815 C1702.1563,1266.3627 1702.3125,1266.644 1702.5313,1266.8002 C1702.7188,1266.9252 1702.9063,1266.9565 1703.3438,1266.9565 L1703.5313,1266.9565 L1703.5313,1273.0502 L1703.3438,1273.0502 C1702.9219,1273.0502 1702.7656,1273.0815 1702.5938,1273.1752 C1702.3281,1273.3315 1702.1563,1273.6284 1702.1563,1273.9096 C1702.1563,1274.4877 1702.5625,1274.8002 1703.3438,1274.8002 L1707,1274.8002 C1707.7813,1274.8002 1708.1875,1274.519 1708.1875,1273.9096 C1708.1875,1273.644 1708.0469,1273.394 1707.8125,1273.2221 C1707.625,1273.0815 1707.4531,1273.0502 1707,1273.0502 L1705.3594,1273.0502 L1705.3594,1270.8627 Z " fill="#000000"/><text fill="#000000" font-family="sans-serif" font-size="14" lengthAdjust="spacing" textLength="40" x="1739" y="1271.8062">utils.ts</text><text fill="#000000" font-family="sans-serif" font-size="14" lengthAdjust="spacing" textLength="71" x="1723.5" y="1288.6061">fetchJson()</text><rect fill="#E2E2F0" height="36" rx="2.5" ry="2.5" style="stroke:#181818;stroke-width:0.5;" width="128" x="1832" y="82.5999"/><ellipse cx="1850" cy="100.5999" fill="#ADD8E6" rx="11" ry="11" style="stroke:#181818;stroke-width:1.0;"/><path d="M1853.8594,96.9124 C1853.8594,96.4749 1853.8438,96.3499 1853.7344,96.178 C1853.5781,95.928 1853.2813,95.7717 1852.9531,95.7717 C1852.6094,95.7717 1852.4219,95.9124 1852.2656,96.2874 C1851.7031,95.9592 1850.9375,95.7717 1850.0625,95.7717 C1847.9219,95.7717 1846.3281,97.0374 1846.3281,98.6936 C1846.3281,99.6467 1846.875,100.5374 1847.75,101.0061 C1848.3125,101.3186 1848.8438,101.4749 1849.9844,101.6624 C1851.1094,101.8655 1851.375,101.928 1851.75,102.0999 C1852.0938,102.2717 1852.3125,102.5686 1852.3125,102.8811 C1852.3125,103.5374 1851.3594,104.053 1850.1406,104.053 C1849.0469,104.053 1847.9844,103.5999 1847.8281,103.053 C1847.6875,102.6155 1847.6875,102.6155 1847.5625,102.4749 C1847.3906,102.3186 1847.1563,102.2405 1846.9063,102.2405 C1846.6094,102.2405 1846.3438,102.3655 1846.1563,102.5842 C1846.0313,102.7561 1845.9844,102.9436 1845.9844,103.3655 L1845.9844,104.4436 C1845.9844,105.2092 1846.2969,105.5842 1846.9063,105.5842 C1847.1875,105.5842 1847.3438,105.4905 1847.625,105.2092 C1848.4844,105.6311 1849.3281,105.8186 1850.25,105.8186 C1852.6094,105.8186 1854.2188,104.6467 1854.2188,102.9124 C1854.2188,102.053 1853.875,101.3655 1853.1875,100.8342 C1852.6563,100.428 1851.9844,100.1936 1850.4844,99.9436 C1849.2031,99.6936 1849.1406,99.678 1848.8125,99.5061 C1848.4688,99.3655 1848.2344,99.0061 1848.2344,98.678 C1848.2344,98.0374 1849.0469,97.5217 1850.0781,97.5217 C1851.125,97.5217 1851.8906,97.9436 1852.0313,98.5686 C1852.1563,99.0999 1852.1563,99.0999 1852.2969,99.2405 C1852.4531,99.3967 1852.7031,99.4905 1852.9531,99.4905 C1853.25,99.4905 1853.5,99.3655 1853.6875,99.1467 C1853.8281,98.9592 1853.8594,98.8186 1853.8594,98.3655 L1853.8594,96.9124 Z " fill="#000000"/><text fill="#000000" font-family="sans-serif" font-size="14" lengthAdjust="spacing" textLength="86" x="1867" y="102.6058">AuthManager</text><rect fill="#E2E2F0" height="36" rx="2.5" ry="2.5" style="stroke:#181818;stroke-width:0.5;" width="128" x="1832" y="1251.8002"/><ellipse cx="1850" cy="1269.8002" fill="#ADD8E6" rx="11" ry="11" style="stroke:#181818;stroke-width:1.0;"/><path d="M1853.8594,1266.1127 C1853.8594,1265.6752 1853.8438,1265.5502 1853.7344,1265.3784 C1853.5781,1265.1284 1853.2813,1264.9721 1852.9531,1264.9721 C1852.6094,1264.9721 1852.4219,1265.1127 1852.2656,1265.4877 C1851.7031,1265.1596 1850.9375,1264.9721 1850.0625,1264.9721 C1847.9219,1264.9721 1846.3281,1266.2377 1846.3281,1267.894 C1846.3281,1268.8471 1846.875,1269.7377 1847.75,1270.2065 C1848.3125,1270.519 1848.8438,1270.6752 1849.9844,1270.8627 C1851.1094,1271.0659 1851.375,1271.1284 1851.75,1271.3002 C1852.0938,1271.4721 1852.3125,1271.769 1852.3125,1272.0815 C1852.3125,1272.7377 1851.3594,1273.2534 1850.1406,1273.2534 C1849.0469,1273.2534 1847.9844,1272.8002 1847.8281,1272.2534 C1847.6875,1271.8159 1847.6875,1271.8159 1847.5625,1271.6752 C1847.3906,1271.519 1847.1563,1271.4409 1846.9063,1271.4409 C1846.6094,1271.4409 1846.3438,1271.5659 1846.1563,1271.7846 C1846.0313,1271.9565 1845.9844,1272.144 1845.9844,1272.5659 L1845.9844,1273.644 C1845.9844,1274.4096 1846.2969,1274.7846 1846.9063,1274.7846 C1847.1875,1274.7846 1847.3438,1274.6909 1847.625,1274.4096 C1848.4844,1274.8315 1849.3281,1275.019 1850.25,1275.019 C1852.6094,1275.019 1854.2188,1273.8471 1854.2188,1272.1127 C1854.2188,1271.2534 1853.875,1270.5659 1853.1875,1270.0346 C1852.6563,1269.6284 1851.9844,1269.394 1850.4844,1269.144 C1849.2031,1268.894 1849.1406,1268.8784 1848.8125,1268.7065 C1848.4688,1268.5659 1848.2344,1268.2065 1848.2344,1267.8784 C1848.2344,1267.2377 1849.0469,1266.7221 1850.0781,1266.7221 C1851.125,1266.7221 1851.8906,1267.144 1852.0313,1267.769 C1852.1563,1268.3002 1852.1563,1268.3002 1852.2969,1268.4409 C1852.4531,1268.5971 1852.7031,1268.6909 1852.9531,1268.6909 C1853.25,1268.6909 1853.5,1268.5659 1853.6875,1268.3471 C1853.8281,1268.1596 1853.8594,1268.019 1853.8594,1267.5659 L1853.8594,1266.1127 Z " fill="#000000"/><text fill="#000000" font-family="sans-serif" font-size="14" lengthAdjust="spacing" textLength="86" x="1867" y="1271.8062">AuthManager</text><rect fill="#E2E2F0" height="36" rx="2.5" ry="2.5" style="stroke:#181818;stroke-width:0.5;" width="119" x="1970" y="82.5999"/><ellipse cx="1988" cy="100.5999" fill="#FF6347" rx="11" ry="11" style="stroke:#181818;stroke-width:1.0;"/><path d="M1991.8594,96.9124 C1991.8594,96.4749 1991.8438,96.3499 1991.7344,96.178 C1991.5781,95.928 1991.2813,95.7717 1990.9531,95.7717 C1990.6094,95.7717 1990.4219,95.9124 1990.2656,96.2874 C1989.7031,95.9592 1988.9375,95.7717 1988.0625,95.7717 C1985.9219,95.7717 1984.3281,97.0374 1984.3281,98.6936 C1984.3281,99.6467 1984.875,100.5374 1985.75,101.0061 C1986.3125,101.3186 1986.8438,101.4749 1987.9844,101.6624 C1989.1094,101.8655 1989.375,101.928 1989.75,102.0999 C1990.0938,102.2717 1990.3125,102.5686 1990.3125,102.8811 C1990.3125,103.5374 1989.3594,104.053 1988.1406,104.053 C1987.0469,104.053 1985.9844,103.5999 1985.8281,103.053 C1985.6875,102.6155 1985.6875,102.6155 1985.5625,102.4749 C1985.3906,102.3186 1985.1563,102.2405 1984.9063,102.2405 C1984.6094,102.2405 1984.3438,102.3655 1984.1563,102.5842 C1984.0313,102.7561 1983.9844,102.9436 1983.9844,103.3655 L1983.9844,104.4436 C1983.9844,105.2092 1984.2969,105.5842 1984.9063,105.5842 C1985.1875,105.5842 1985.3438,105.4905 1985.625,105.2092 C1986.4844,105.6311 1987.3281,105.8186 1988.25,105.8186 C1990.6094,105.8186 1992.2188,104.6467 1992.2188,102.9124 C1992.2188,102.053 1991.875,101.3655 1991.1875,100.8342 C1990.6563,100.428 1989.9844,100.1936 1988.4844,99.9436 C1987.2031,99.6936 1987.1406,99.678 1986.8125,99.5061 C1986.4688,99.3655 1986.2344,99.0061 1986.2344,98.678 C1986.2344,98.0374 1987.0469,97.5217 1988.0781,97.5217 C1989.125,97.5217 1989.8906,97.9436 1990.0313,98.5686 C1990.1563,99.0999 1990.1563,99.0999 1990.2969,99.2405 C1990.4531,99.3967 1990.7031,99.4905 1990.9531,99.4905 C1991.25,99.4905 1991.5,99.3655 1991.6875,99.1467 C1991.8281,98.9592 1991.8594,98.8186 1991.8594,98.3655 L1991.8594,96.9124 Z " fill="#000000"/><text fill="#000000" font-family="sans-serif" font-size="14" lengthAdjust="spacing" textLength="77" x="2005" y="102.6058">BackendAPI</text><rect fill="#E2E2F0" height="36" rx="2.5" ry="2.5" style="stroke:#181818;stroke-width:0.5;" width="119" x="1970" y="1251.8002"/><ellipse cx="1988" cy="1269.8002" fill="#FF6347" rx="11" ry="11" style="stroke:#181818;stroke-width:1.0;"/><path d="M1991.8594,1266.1127 C1991.8594,1265.6752 1991.8438,1265.5502 1991.7344,1265.3784 C1991.5781,1265.1284 1991.2813,1264.9721 1990.9531,1264.9721 C1990.6094,1264.9721 1990.4219,1265.1127 1990.2656,1265.4877 C1989.7031,1265.1596 1988.9375,1264.9721 1988.0625,1264.9721 C1985.9219,1264.9721 1984.3281,1266.2377 1984.3281,1267.894 C1984.3281,1268.8471 1984.875,1269.7377 1985.75,1270.2065 C1986.3125,1270.519 1986.8438,1270.6752 1987.9844,1270.8627 C1989.1094,1271.0659 1989.375,1271.1284 1989.75,1271.3002 C1990.0938,1271.4721 1990.3125,1271.769 1990.3125,1272.0815 C1990.3125,1272.7377 1989.3594,1273.2534 1988.1406,1273.2534 C1987.0469,1273.2534 1985.9844,1272.8002 1985.8281,1272.2534 C1985.6875,1271.8159 1985.6875,1271.8159 1985.5625,1271.6752 C1985.3906,1271.519 1985.1563,1271.4409 1984.9063,1271.4409 C1984.6094,1271.4409 1984.3438,1271.5659 1984.1563,1271.7846 C1984.0313,1271.9565 1983.9844,1272.144 1983.9844,1272.5659 L1983.9844,1273.644 C1983.9844,1274.4096 1984.2969,1274.7846 1984.9063,1274.7846 C1985.1875,1274.7846 1985.3438,1274.6909 1985.625,1274.4096 C1986.4844,1274.8315 1987.3281,1275.019 1988.25,1275.019 C1990.6094,1275.019 1992.2188,1273.8471 1992.2188,1272.1127 C1992.2188,1271.2534 1991.875,1270.5659 1991.1875,1270.0346 C1990.6563,1269.6284 1989.9844,1269.394 1988.4844,1269.144 C1987.2031,1268.894 1987.1406,1268.8784 1986.8125,1268.7065 C1986.4688,1268.5659 1986.2344,1268.2065 1986.2344,1267.8784 C1986.2344,1267.2377 1987.0469,1266.7221 1988.0781,1266.7221 C1989.125,1266.7221 1989.8906,1267.144 1990.0313,1267.769 C1990.1563,1268.3002 1990.1563,1268.3002 1990.2969,1268.4409 C1990.4531,1268.5971 1990.7031,1268.6909 1990.9531,1268.6909 C1991.25,1268.6909 1991.5,1268.5659 1991.6875,1268.3471 C1991.8281,1268.1596 1991.8594,1268.019 1991.8594,1267.5659 L1991.8594,1266.1127 Z " fill="#000000"/><text fill="#000000" font-family="sans-serif" font-size="14" lengthAdjust="spacing" textLength="77" x="2005" y="1271.8062">BackendAPI</text><rect fill="#E2E2F0" height="36" rx="2.5" ry="2.5" style="stroke:#181818;stroke-width:0.5;" width="117" x="2099" y="82.5999"/><ellipse cx="2117" cy="100.5999" fill="#808080" rx="11" ry="11" style="stroke:#181818;stroke-width:1.0;"/><path d="M2120.8594,96.9124 C2120.8594,96.4749 2120.8438,96.3499 2120.7344,96.178 C2120.5781,95.928 2120.2813,95.7717 2119.9531,95.7717 C2119.6094,95.7717 2119.4219,95.9124 2119.2656,96.2874 C2118.7031,95.9592 2117.9375,95.7717 2117.0625,95.7717 C2114.9219,95.7717 2113.3281,97.0374 2113.3281,98.6936 C2113.3281,99.6467 2113.875,100.5374 2114.75,101.0061 C2115.3125,101.3186 2115.8438,101.4749 2116.9844,101.6624 C2118.1094,101.8655 2118.375,101.928 2118.75,102.0999 C2119.0938,102.2717 2119.3125,102.5686 2119.3125,102.8811 C2119.3125,103.5374 2118.3594,104.053 2117.1406,104.053 C2116.0469,104.053 2114.9844,103.5999 2114.8281,103.053 C2114.6875,102.6155 2114.6875,102.6155 2114.5625,102.4749 C2114.3906,102.3186 2114.1563,102.2405 2113.9063,102.2405 C2113.6094,102.2405 2113.3438,102.3655 2113.1563,102.5842 C2113.0313,102.7561 2112.9844,102.9436 2112.9844,103.3655 L2112.9844,104.4436 C2112.9844,105.2092 2113.2969,105.5842 2113.9063,105.5842 C2114.1875,105.5842 2114.3438,105.4905 2114.625,105.2092 C2115.4844,105.6311 2116.3281,105.8186 2117.25,105.8186 C2119.6094,105.8186 2121.2188,104.6467 2121.2188,102.9124 C2121.2188,102.053 2120.875,101.3655 2120.1875,100.8342 C2119.6563,100.428 2118.9844,100.1936 2117.4844,99.9436 C2116.2031,99.6936 2116.1406,99.678 2115.8125,99.5061 C2115.4688,99.3655 2115.2344,99.0061 2115.2344,98.678 C2115.2344,98.0374 2116.0469,97.5217 2117.0781,97.5217 C2118.125,97.5217 2118.8906,97.9436 2119.0313,98.5686 C2119.1563,99.0999 2119.1563,99.0999 2119.2969,99.2405 C2119.4531,99.3967 2119.7031,99.4905 2119.9531,99.4905 C2120.25,99.4905 2120.5,99.3655 2120.6875,99.1467 C2120.8281,98.9592 2120.8594,98.8186 2120.8594,98.3655 L2120.8594,96.9124 Z " fill="#000000"/><text fill="#000000" font-family="sans-serif" font-size="14" lengthAdjust="spacing" textLength="75" x="2134" y="102.6058">QueryClient</text><rect fill="#E2E2F0" height="36" rx="2.5" ry="2.5" style="stroke:#181818;stroke-width:0.5;" width="117" x="2099" y="1251.8002"/><ellipse cx="2117" cy="1269.8002" fill="#808080" rx="11" ry="11" style="stroke:#181818;stroke-width:1.0;"/><path d="M2120.8594,1266.1127 C2120.8594,1265.6752 2120.8438,1265.5502 2120.7344,1265.3784 C2120.5781,1265.1284 2120.2813,1264.9721 2119.9531,1264.9721 C2119.6094,1264.9721 2119.4219,1265.1127 2119.2656,1265.4877 C2118.7031,1265.1596 2117.9375,1264.9721 2117.0625,1264.9721 C2114.9219,1264.9721 2113.3281,1266.2377 2113.3281,1267.894 C2113.3281,1268.8471 2113.875,1269.7377 2114.75,1270.2065 C2115.3125,1270.519 2115.8438,1270.6752 2116.9844,1270.8627 C2118.1094,1271.0659 2118.375,1271.1284 2118.75,1271.3002 C2119.0938,1271.4721 2119.3125,1271.769 2119.3125,1272.0815 C2119.3125,1272.7377 2118.3594,1273.2534 2117.1406,1273.2534 C2116.0469,1273.2534 2114.9844,1272.8002 2114.8281,1272.2534 C2114.6875,1271.8159 2114.6875,1271.8159 2114.5625,1271.6752 C2114.3906,1271.519 2114.1563,1271.4409 2113.9063,1271.4409 C2113.6094,1271.4409 2113.3438,1271.5659 2113.1563,1271.7846 C2113.0313,1271.9565 2112.9844,1272.144 2112.9844,1272.5659 L2112.9844,1273.644 C2112.9844,1274.4096 2113.2969,1274.7846 2113.9063,1274.7846 C2114.1875,1274.7846 2114.3438,1274.6909 2114.625,1274.4096 C2115.4844,1274.8315 2116.3281,1275.019 2117.25,1275.019 C2119.6094,1275.019 2121.2188,1273.8471 2121.2188,1272.1127 C2121.2188,1271.2534 2120.875,1270.5659 2120.1875,1270.0346 C2119.6563,1269.6284 2118.9844,1269.394 2117.4844,1269.144 C2116.2031,1268.894 2116.1406,1268.8784 2115.8125,1268.7065 C2115.4688,1268.5659 2115.2344,1268.2065 2115.2344,1267.8784 C2115.2344,1267.2377 2116.0469,1266.7221 2117.0781,1266.7221 C2118.125,1266.7221 2118.8906,1267.144 2119.0313,1267.769 C2119.1563,1268.3002 2119.1563,1268.3002 2119.2969,1268.4409 C2119.4531,1268.5971 2119.7031,1268.6909 2119.9531,1268.6909 C2120.25,1268.6909 2120.5,1268.5659 2120.6875,1268.3471 C2120.8281,1268.1596 2120.8594,1268.019 2120.8594,1267.5659 L2120.8594,1266.1127 Z " fill="#000000"/><text fill="#000000" font-family="sans-serif" font-size="14" lengthAdjust="spacing" textLength="75" x="2134" y="1271.8062">QueryClient</text><rect fill="#E2E2F0" height="36" rx="2.5" ry="2.5" style="stroke:#181818;stroke-width:0.5;" width="91" x="2226" y="82.5999"/><ellipse cx="2244" cy="100.5999" fill="#FFC0CB" rx="11" ry="11" style="stroke:#181818;stroke-width:1.0;"/><path d="M2239,101.7561 C2239,104.2561 2241.1406,106.0686 2244.0625,106.0686 C2245.2969,106.0686 2246.4688,105.7717 2247.2188,105.2561 C2247.8281,104.8342 2248.1563,104.4124 2248.1563,104.0061 C2248.1563,103.5374 2247.7344,103.1311 2247.2344,103.1311 C2247,103.1311 2246.7813,103.2092 2246.5781,103.4124 C2246.1406,103.8499 2246.1406,103.8499 2245.9688,103.9436 C2245.5156,104.178 2244.875,104.3186 2244.1094,104.3186 C2242.1094,104.3186 2240.8281,103.303 2240.8281,101.7249 L2240.8281,100.678 C2240.8281,98.9749 2242.0469,97.7717 2243.75,97.7717 C2244.3281,97.7717 2244.9063,97.9124 2245.375,98.1624 C2245.8438,98.428 2246.0156,98.6155 2246.0781,98.9749 C2246.2031,99.6467 2246.4531,99.8967 2246.9844,99.8967 C2247.2656,99.8967 2247.5469,99.7561 2247.7344,99.5374 C2247.8594,99.3655 2247.9063,99.1936 2247.9063,98.7561 L2247.9063,97.3967 C2247.9063,96.9749 2247.8906,96.8342 2247.7656,96.6624 C2247.5938,96.4124 2247.3125,96.2561 2246.9844,96.2561 C2246.6719,96.2561 2246.4688,96.3655 2246.25,96.6311 C2245.0781,96.1311 2244.6406,96.0217 2243.6875,96.0217 C2241.0156,96.0217 2239,98.0374 2239,100.6624 L2239,101.7561 Z " fill="#000000"/><text fill="#000000" font-family="sans-serif" font-size="14" lengthAdjust="spacing" textLength="49" x="2261" y="102.6058">Toaster</text><rect fill="#E2E2F0" height="36" rx="2.5" ry="2.5" style="stroke:#181818;stroke-width:0.5;" width="91" x="2226" y="1251.8002"/><ellipse cx="2244" cy="1269.8002" fill="#FFC0CB" rx="11" ry="11" style="stroke:#181818;stroke-width:1.0;"/><path d="M2239,1270.9565 C2239,1273.4565 2241.1406,1275.269 2244.0625,1275.269 C2245.2969,1275.269 2246.4688,1274.9721 2247.2188,1274.4565 C2247.8281,1274.0346 2248.1563,1273.6127 2248.1563,1273.2065 C2248.1563,1272.7377 2247.7344,1272.3315 2247.2344,1272.3315 C2247,1272.3315 2246.7813,1272.4096 2246.5781,1272.6127 C2246.1406,1273.0502 2246.1406,1273.0502 2245.9688,1273.144 C2245.5156,1273.3784 2244.875,1273.519 2244.1094,1273.519 C2242.1094,1273.519 2240.8281,1272.5034 2240.8281,1270.9252 L2240.8281,1269.8784 C2240.8281,1268.1752 2242.0469,1266.9721 2243.75,1266.9721 C2244.3281,1266.9721 2244.9063,1267.1127 2245.375,1267.3627 C2245.8438,1267.6284 2246.0156,1267.8159 2246.0781,1268.1752 C2246.2031,1268.8471 2246.4531,1269.0971 2246.9844,1269.0971 C2247.2656,1269.0971 2247.5469,1268.9565 2247.7344,1268.7377 C2247.8594,1268.5659 2247.9063,1268.394 2247.9063,1267.9565 L2247.9063,1266.5971 C2247.9063,1266.1752 2247.8906,1266.0346 2247.7656,1265.8627 C2247.5938,1265.6127 2247.3125,1265.4565 2246.9844,1265.4565 C2246.6719,1265.4565 2246.4688,1265.5659 2246.25,1265.8315 C2245.0781,1265.3315 2244.6406,1265.2221 2243.6875,1265.2221 C2241.0156,1265.2221 2239,1267.2377 2239,1269.8627 L2239,1270.9565 Z " fill="#000000"/><text fill="#000000" font-family="sans-serif" font-size="14" lengthAdjust="spacing" textLength="49" x="2261" y="1271.8062">Toaster</text><rect fill="#FFFFFF" height="1038.4003" style="stroke:#181818;stroke-width:1.0;" width="10" x="702.5" y="205.3999"/><rect fill="#FFFFFF" height="510.6002" style="stroke:#181818;stroke-width:1.0;" width="10" x="707.5" y="724.2"/><rect fill="#FFFFFF" height="88.8" style="stroke:#181818;stroke-width:1.0;" width="10" x="1148.5" y="234.9999"/><rect fill="#FFFFFF" height="88.8" style="stroke:#181818;stroke-width:1.0;" width="10" x="1148.5" y="753.8"/><rect fill="#FFFFFF" height="207.2001" style="stroke:#181818;stroke-width:1.0;" width="10" x="1404" y="353.4"/><rect fill="#FFFFFF" height="207.2001" style="stroke:#181818;stroke-width:1.0;" width="10" x="1404" y="872.2001"/><rect fill="#FFFFFF" height="860.8003" style="stroke:#181818;stroke-width:1.0;" width="10" x="1740" y="383"/><rect fill="#FFFFFF" height="342.0001" style="stroke:#181818;stroke-width:1.0;" width="10" x="1745" y="901.8001"/><rect fill="#FFFFFF" height="29.6" style="stroke:#181818;stroke-width:1.0;" width="10" x="1891" y="412.6"/><rect fill="#FFFFFF" height="29.6" style="stroke:#181818;stroke-width:1.0;" width="10" x="1891" y="931.4001"/><rect fill="#FFFFFF" height="29.6" style="stroke:#181818;stroke-width:1.0;" width="10" x="2024.5" y="471.8"/><rect fill="#FFFFFF" height="29.6" style="stroke:#181818;stroke-width:1.0;" width="10" x="2024.5" y="990.6001"/><rect fill="#FFFFFF" height="29.6" style="stroke:#181818;stroke-width:1.0;" width="10" x="2152.5" y="1175.6002"/><rect fill="#FFFFFF" height="30" style="stroke:#181818;stroke-width:1.0;" width="10" x="2266.5" y="590.2001"/><rect fill="#FFFFFF" height="30" style="stroke:#181818;stroke-width:1.0;" width="10" x="2266.5" y="1109.0002"/><path d="M10,136.5999 L70,136.5999 L70,144.1999 L60,154.1999 L10,154.1999 L10,136.5999 " fill="#EEEEEE" style="stroke:#000000;stroke-width:1.5;"/><rect fill="none" height="1010.4003" style="stroke:#000000;stroke-width:1.5;" width="2317" x="10" y="136.5999"/><text fill="#000000" font-family="sans-serif" font-size="13" font-weight="bold" lengthAdjust="spacing" textLength="15" x="25" y="149.6769">alt</text><text fill="#000000" font-family="sans-serif" font-size="11" font-weight="bold" lengthAdjust="spacing" textLength="119" x="85" y="148.8188">[Create New Category]</text><polygon fill="#181818" points="213,171.7999,223,175.7999,213,179.7999,217,175.7999" style="stroke:#181818;stroke-width:1.0;"/><line style="stroke:#181818;stroke-width:1.0;" x1="43" x2="219" y1="175.7999" y2="175.7999"/><text fill="#000000" font-family="sans-serif" font-size="13" lengthAdjust="spacing" textLength="158" x="50" y="170.2769">Clicks "Add New Category"</text><polygon fill="#181818" points="690.5,201.3999,700.5,205.3999,690.5,209.3999,694.5,205.3999" style="stroke:#181818;stroke-width:1.0;"/><line style="stroke:#181818;stroke-width:1.0;" x1="225" x2="696.5" y1="205.3999" y2="205.3999"/><text fill="#000000" font-family="sans-serif" font-size="13" lengthAdjust="spacing" textLength="313" x="232" y="199.8769">Opens dialog (isFormOpen=true, categoryToEdit=null)</text><polygon fill="#181818" points="1136.5,230.9999,1146.5,234.9999,1136.5,238.9999,1140.5,234.9999" style="stroke:#181818;stroke-width:1.0;"/><line style="stroke:#181818;stroke-width:1.0;" x1="712.5" x2="1142.5" y1="234.9999" y2="234.9999"/><text fill="#000000" font-family="sans-serif" font-size="13" lengthAdjust="spacing" textLength="172" x="719.5" y="229.4769">Renders empty category form</text><polygon fill="#181818" points="1136.5,260.5999,1146.5,264.5999,1136.5,268.5999,1140.5,264.5999" style="stroke:#181818;stroke-width:1.0;"/><line style="stroke:#181818;stroke-width:1.0;" x1="43" x2="1142.5" y1="264.5999" y2="264.5999"/><text fill="#000000" font-family="sans-serif" font-size="13" lengthAdjust="spacing" textLength="323" x="50" y="259.0769">Enters new category details (name, min_age, max_age)</text><polygon fill="#181818" points="1136.5,290.1999,1146.5,294.1999,1136.5,298.1999,1140.5,294.1999" style="stroke:#181818;stroke-width:1.0;"/><line style="stroke:#181818;stroke-width:1.0;" x1="43" x2="1142.5" y1="294.1999" y2="294.1999"/><text fill="#000000" font-family="sans-serif" font-size="13" lengthAdjust="spacing" textLength="144" x="50" y="288.6769">Clicks "Create Category"</text><polygon fill="#181818" points="723.5,319.7999,713.5,323.7999,723.5,327.7999,719.5,323.7999" style="stroke:#181818;stroke-width:1.0;"/><line style="stroke:#181818;stroke-width:1.0;" x1="717.5" x2="1152.5" y1="323.7999" y2="323.7999"/><text fill="#000000" font-family="sans-serif" font-size="13" lengthAdjust="spacing" textLength="209" x="729.5" y="318.2769">onSubmit(values: CategoryCreation)</text><polygon fill="#181818" points="1392,349.4,1402,353.4,1392,357.4,1396,353.4" style="stroke:#181818;stroke-width:1.0;"/><line style="stroke:#181818;stroke-width:1.0;" x1="712.5" x2="1398" y1="353.4" y2="353.4"/><text fill="#000000" font-family="sans-serif" font-size="13" lengthAdjust="spacing" textLength="134" x="719.5" y="347.877">createCategory(values)</text><polygon fill="#181818" points="1728,379,1738,383,1728,387,1732,383" style="stroke:#181818;stroke-width:1.0;"/><line style="stroke:#181818;stroke-width:1.0;" x1="1414" x2="1734" y1="383" y2="383"/><text fill="#000000" font-family="sans-serif" font-size="13" lengthAdjust="spacing" textLength="273" x="1421" y="377.477">fetchJson("/categories", {POST, body: values})</text><polygon fill="#181818" points="1879,408.6,1889,412.6,1879,416.6,1883,412.6" style="stroke:#181818;stroke-width:1.0;"/><line style="stroke:#181818;stroke-width:1.0;" x1="1750" x2="1885" y1="412.6" y2="412.6"/><text fill="#000000" font-family="sans-serif" font-size="13" lengthAdjust="spacing" textLength="62" x="1757" y="407.077">getToken()</text><polygon fill="#181818" points="1761,438.2,1751,442.2,1761,446.2,1757,442.2" style="stroke:#181818;stroke-width:1.0;"/><line style="stroke:#181818;stroke-width:1.0;stroke-dasharray:2.0,2.0;" x1="1755" x2="1895" y1="442.2" y2="442.2"/><text fill="#000000" font-family="sans-serif" font-size="13" lengthAdjust="spacing" textLength="112" x="1767" y="436.677">"admin_token_xyz"</text><polygon fill="#181818" points="2012.5,467.8,2022.5,471.8,2012.5,475.8,2016.5,471.8" style="stroke:#181818;stroke-width:1.0;"/><line style="stroke:#181818;stroke-width:1.0;" x1="1750" x2="2018.5" y1="471.8" y2="471.8"/><text fill="#000000" font-family="sans-serif" font-size="13" lengthAdjust="spacing" textLength="154" x="1757" y="466.277">POST /categories (values)</text><polygon fill="#181818" points="1761,497.4,1751,501.4,1761,505.4,1757,501.4" style="stroke:#181818;stroke-width:1.0;"/><line style="stroke:#181818;stroke-width:1.0;stroke-dasharray:2.0,2.0;" x1="1755" x2="2028.5" y1="501.4" y2="501.4"/><text fill="#000000" font-family="sans-serif" font-size="13" lengthAdjust="spacing" textLength="226" x="1767" y="495.877">HTTP 200 OK (message string or void)</text><polygon fill="#181818" points="1425,527,1415,531,1425,535,1421,531" style="stroke:#181818;stroke-width:1.0;"/><line style="stroke:#181818;stroke-width:1.0;stroke-dasharray:2.0,2.0;" x1="1419" x2="1739" y1="531" y2="531"/><text fill="#000000" font-family="sans-serif" font-size="13" lengthAdjust="spacing" textLength="157" x="1431" y="525.477">(void or success message)</text><polygon fill="#181818" points="723.5,556.6001,713.5,560.6001,723.5,564.6001,719.5,560.6001" style="stroke:#181818;stroke-width:1.0;"/><line style="stroke:#181818;stroke-width:1.0;stroke-dasharray:2.0,2.0;" x1="717.5" x2="1408" y1="560.6001" y2="560.6001"/><text fill="#000000" font-family="sans-serif" font-size="13" lengthAdjust="spacing" textLength="157" x="729.5" y="555.0771">(void or success message)</text><polygon fill="#181818" points="2254.5,586.2001,2264.5,590.2001,2254.5,594.2001,2258.5,590.2001" style="stroke:#181818;stroke-width:1.0;"/><line style="stroke:#181818;stroke-width:1.0;" x1="712.5" x2="2260.5" y1="590.2001" y2="590.2001"/><text fill="#000000" font-family="sans-serif" font-size="13" lengthAdjust="spacing" textLength="211" x="719.5" y="584.6771">toast.success("Category created...")</text><line style="stroke:#000000;stroke-width:1.0;stroke-dasharray:2.0,2.0;" x1="10" x2="2327" y1="629.2001" y2="629.2001"/><text fill="#000000" font-family="sans-serif" font-size="11" font-weight="bold" lengthAdjust="spacing" textLength="126" x="15" y="639.419">[Edit Existing Category]</text><polygon fill="#181818" points="465,661,475,665,465,669,469,665" style="stroke:#181818;stroke-width:1.0;"/><line style="stroke:#181818;stroke-width:1.0;" x1="43" x2="471" y1="665" y2="665"/><text fill="#000000" font-family="sans-serif" font-size="13" lengthAdjust="spacing" textLength="212" x="50" y="659.477">Clicks "Edit" on an existing category</text><polygon fill="#181818" points="236,690.6,226,694.6,236,698.6,232,694.6" style="stroke:#181818;stroke-width:1.0;"/><line style="stroke:#181818;stroke-width:1.0;" x1="230" x2="476" y1="694.6" y2="694.6"/><text fill="#000000" font-family="sans-serif" font-size="13" lengthAdjust="spacing" textLength="95" x="242" y="689.077">onEdit(category)</text><polygon fill="#181818" points="695.5,720.2,705.5,724.2,695.5,728.2,699.5,724.2" style="stroke:#181818;stroke-width:1.0;"/><line style="stroke:#181818;stroke-width:1.0;" x1="225" x2="701.5" y1="724.2" y2="724.2"/><text fill="#000000" font-family="sans-serif" font-size="13" lengthAdjust="spacing" textLength="343" x="232" y="718.677">Opens dialog (isFormOpen=true, categoryToEdit=category)</text><polygon fill="#181818" points="1136.5,749.8,1146.5,753.8,1136.5,757.8,1140.5,753.8" style="stroke:#181818;stroke-width:1.0;"/><line style="stroke:#181818;stroke-width:1.0;" x1="717.5" x2="1142.5" y1="753.8" y2="753.8"/><text fill="#000000" font-family="sans-serif" font-size="13" lengthAdjust="spacing" textLength="337" x="724.5" y="748.277">Renders category form, pre-filled with categoryToEdit data</text><polygon fill="#181818" points="1136.5,779.4,1146.5,783.4,1136.5,787.4,1140.5,783.4" style="stroke:#181818;stroke-width:1.0;"/><line style="stroke:#181818;stroke-width:1.0;" x1="43" x2="1142.5" y1="783.4" y2="783.4"/><text fill="#000000" font-family="sans-serif" font-size="13" lengthAdjust="spacing" textLength="145" x="50" y="777.877">Modifies category details</text><polygon fill="#181818" points="1136.5,809.0001,1146.5,813.0001,1136.5,817.0001,1140.5,813.0001" style="stroke:#181818;stroke-width:1.0;"/><line style="stroke:#181818;stroke-width:1.0;" x1="43" x2="1142.5" y1="813.0001" y2="813.0001"/><text fill="#000000" font-family="sans-serif" font-size="13" lengthAdjust="spacing" textLength="135" x="50" y="807.4771">Clicks "Save Changes"</text><polygon fill="#181818" points="728.5,838.6001,718.5,842.6001,728.5,846.6001,724.5,842.6001" style="stroke:#181818;stroke-width:1.0;"/><line style="stroke:#181818;stroke-width:1.0;" x1="722.5" x2="1152.5" y1="842.6001" y2="842.6001"/><text fill="#000000" font-family="sans-serif" font-size="13" lengthAdjust="spacing" textLength="407" x="734.5" y="837.0771">onSubmit(values: CategoryFormData) ' (maps to Category for update) '</text><polygon fill="#181818" points="1392,868.2001,1402,872.2001,1392,876.2001,1396,872.2001" style="stroke:#181818;stroke-width:1.0;"/><line style="stroke:#181818;stroke-width:1.0;" x1="717.5" x2="1398" y1="872.2001" y2="872.2001"/><text fill="#000000" font-family="sans-serif" font-size="13" lengthAdjust="spacing" textLength="232" x="724.5" y="866.6771">updateCategory({id_category, ...values})</text><polygon fill="#181818" points="1733,897.8001,1743,901.8001,1733,905.8001,1737,901.8001" style="stroke:#181818;stroke-width:1.0;"/><line style="stroke:#181818;stroke-width:1.0;" x1="1414" x2="1739" y1="901.8001" y2="901.8001"/><text fill="#000000" font-family="sans-serif" font-size="13" lengthAdjust="spacing" textLength="302" x="1421" y="896.2771">fetchJson("/categories", {PUT, body: categoryData})</text><polygon fill="#181818" points="1879,927.4001,1889,931.4001,1879,935.4001,1883,931.4001" style="stroke:#181818;stroke-width:1.0;"/><line style="stroke:#181818;stroke-width:1.0;" x1="1755" x2="1885" y1="931.4001" y2="931.4001"/><text fill="#000000" font-family="sans-serif" font-size="13" lengthAdjust="spacing" textLength="62" x="1762" y="925.8771">getToken()</text><polygon fill="#181818" points="1766,957.0001,1756,961.0001,1766,965.0001,1762,961.0001" style="stroke:#181818;stroke-width:1.0;"/><line style="stroke:#181818;stroke-width:1.0;stroke-dasharray:2.0,2.0;" x1="1760" x2="1895" y1="961.0001" y2="961.0001"/><text fill="#000000" font-family="sans-serif" font-size="13" lengthAdjust="spacing" textLength="112" x="1772" y="955.4771">"admin_token_xyz"</text><polygon fill="#181818" points="2012.5,986.6001,2022.5,990.6001,2012.5,994.6001,2016.5,990.6001" style="stroke:#181818;stroke-width:1.0;"/><line style="stroke:#181818;stroke-width:1.0;" x1="1755" x2="2018.5" y1="990.6001" y2="990.6001"/><text fill="#000000" font-family="sans-serif" font-size="13" lengthAdjust="spacing" textLength="183" x="1762" y="985.0771">PUT /categories (categoryData)</text><polygon fill="#181818" points="1766,1016.2002,1756,1020.2002,1766,1024.2002,1762,1020.2002" style="stroke:#181818;stroke-width:1.0;"/><line style="stroke:#181818;stroke-width:1.0;stroke-dasharray:2.0,2.0;" x1="1760" x2="2028.5" y1="1020.2002" y2="1020.2002"/><text fill="#000000" font-family="sans-serif" font-size="13" lengthAdjust="spacing" textLength="235" x="1772" y="1014.6772">HTTP 200 OK (updated Category object)</text><polygon fill="#181818" points="1425,1045.8002,1415,1049.8002,1425,1053.8002,1421,1049.8002" style="stroke:#181818;stroke-width:1.0;"/><line style="stroke:#181818;stroke-width:1.0;stroke-dasharray:2.0,2.0;" x1="1419" x2="1744" y1="1049.8002" y2="1049.8002"/><text fill="#000000" font-family="sans-serif" font-size="13" lengthAdjust="spacing" textLength="110" x="1431" y="1044.2772">Category (updated)</text><polygon fill="#181818" points="728.5,1075.4002,718.5,1079.4002,728.5,1083.4002,724.5,1079.4002" style="stroke:#181818;stroke-width:1.0;"/><line style="stroke:#181818;stroke-width:1.0;stroke-dasharray:2.0,2.0;" x1="722.5" x2="1408" y1="1079.4002" y2="1079.4002"/><text fill="#000000" font-family="sans-serif" font-size="13" lengthAdjust="spacing" textLength="110" x="734.5" y="1073.8772">Category (updated)</text><polygon fill="#181818" points="2254.5,1105.0002,2264.5,1109.0002,2254.5,1113.0002,2258.5,1109.0002" style="stroke:#181818;stroke-width:1.0;"/><line style="stroke:#181818;stroke-width:1.0;" x1="717.5" x2="2260.5" y1="1109.0002" y2="1109.0002"/><text fill="#000000" font-family="sans-serif" font-size="13" lengthAdjust="spacing" textLength="214" x="724.5" y="1103.4772">toast.success("Category updated...")</text><polygon fill="#181818" points="2140.5,1171.6002,2150.5,1175.6002,2140.5,1179.6002,2144.5,1175.6002" style="stroke:#181818;stroke-width:1.0;"/><line style="stroke:#181818;stroke-width:1.0;" x1="717.5" x2="2146.5" y1="1175.6002" y2="1175.6002"/><text fill="#000000" font-family="sans-serif" font-size="13" lengthAdjust="spacing" textLength="251" x="724.5" y="1170.0772">invalidateQueries({queryKey: ['categories']})</text><polygon fill="#181818" points="236,1201.2002,226,1205.2002,236,1209.2002,232,1205.2002" style="stroke:#181818;stroke-width:1.0;"/><line style="stroke:#181818;stroke-width:1.0;" x1="230" x2="2156.5" y1="1205.2002" y2="1205.2002"/><text fill="#000000" font-family="sans-serif" font-size="13" lengthAdjust="spacing" textLength="191" x="242" y="1199.6772">Triggers refetch of categories list</text><polygon fill="#181818" points="236,1230.8002,226,1234.8002,236,1238.8002,232,1234.8002" style="stroke:#181818;stroke-width:1.0;"/><line style="stroke:#181818;stroke-width:1.0;" x1="230" x2="701.5" y1="1234.8002" y2="1234.8002"/><text fill="#000000" font-family="sans-serif" font-size="13" lengthAdjust="spacing" textLength="215" x="242" y="1229.2772">Closes dialog (onOpenChange(false))</text><!--SRC=[rLRDSjis4BxhANPuCJaZAvaUEObdNCLkqunhrP9ERKS3aIiADGae06XRzVIH-XHziIv8y9-EQoUNdWG2-tsB_ViWmqsAi9vlVa1jk1HCpPd1H2hEzFnc_U4yphW0VwwGgJSNCJTCWRFuvsyMXB34ppcA2E43PubYsMJ28YCLU0NI0wQXMAqrgic1ASCZVc32WETeZbTCi0Gp56P1lmM2ZgwIhFY6T-_ycwbKqPx7mTdPECLSPWSfY67EL0m-Fd0AHYH1HLPi4z5ycl9aRnA5noUvBgNAA9PK9XMwsNcEumPppROfMWGbpJ46RQBdA287scnPT8iYdXdzcuWe_GOhFZy0Id1-Y3jxbPFlIvprSpazOfhA-u6JtF1K5ymxDD7-9os58xYqtsiwBl5ICP7W07-UctrPDbLMs7udocAMPMpRD1_2tDNE5nzBrE9ZYJ0oOqOEp7_9aKgRSgfhOT_wBd6Z2Ln9fesxbrkNEJzmSMkj9omrC2yo2Z_ZVTNEnmaqdGgdPvqc387yHhVQjdNSGNa4QrkMm5RBX71zGA4XBZzzhksXtNjlL8vJg2g-adQ-teiyJGCYfJ7YT_QE7RhIMuk-yKUURYYxg3HWTZ37cXXsT3h2E1AmuxaGnj88YhCcYT4mwXhm1SlereJRKBoqO0zs4JpDLgNEvRoNkS9e96jIBFDjner_nwYNT5ZZ2XgIAkinna5GJsIe6eiGUiDKqlSpxinBiWfBJCryXD3CZlV6fOcZzgRmkBXUhgQmbV4nX9B_huw3ceKs6qQYhmOfX0JDIf9NlmDqvpRNplAqTocFsI9iZCLk7ev_UjqiDGHTlpIA8TXhGoiK64iEcLht1EYx_d6rMi1tRz_2zIVmCzJQpeCsYfJO2jQT90NltQRWQjsaNolVWYnOvr54ZE1eWrvXHlhdIz1ksrIr7kkSIa52C7OrSsH-_LouTefdivdNoPD3ThrLcvXg13lkSE7UgY_9KF5yDNDaSHxD1p01rLDNpsaPH84OQ9WK5kfNfi6tbgusyTV8LqUufd1GUBhZQOent7Epxta5UWRPYzJjIiPyPzkxhstFIzYItP63lNqKzMlrgx2YEmTmGcF23ffQgpwq8RkddSvVgN2zlmQFFDvKeKw16dLCahvUyzQrv5NER9J_3-5RztIl7S5hrA-iGDoKLMx_mCYyLFvgU4Nu7tHl5FCj1S_Hlb3mhBk1i_O_kX2ueCRabjpkKntyny_Mu1DIJ_rwqjJdv7Vggjf5YsJI9Xp8tqhn9B7weh1eOv0xQ1Kz9IMTjAxUvXsRjywVGwcnqKafh4QMCk7l66bz44o6W-maiNjGiVuB]--></g></svg>