<?xml version="1.0" encoding="us-ascii" standalone="no"?><svg xmlns="http://www.w3.org/2000/svg" xmlns:xlink="http://www.w3.org/1999/xlink" contentStyleType="text/css" height="743px" preserveAspectRatio="none" style="width:927px;height:743px;background:#FFFFFF;" version="1.1" viewBox="0 0 927 743" width="927px" zoomAndPan="magnify"><defs/><g><text fill="#000000" font-family="sans-serif" font-size="14" font-weight="bold" lengthAdjust="spacing" textLength="472" x="226" y="33.0059">UC_GestionarAsistenciaEntrenamientosEntrenador: Activity Diagram</text><ellipse cx="525.75" cy="57.7999" fill="#222222" rx="10" ry="10" style="stroke:#222222;stroke-width:1.0;"/><rect fill="#F1F1F1" height="34.4001" rx="12.5" ry="12.5" style="stroke:#181818;stroke-width:0.5;" width="367" x="342.25" y="87.7999"/><text fill="#000000" font-family="sans-serif" font-size="12" lengthAdjust="spacing" textLength="347" x="352.25" y="108.948">Entrenador navega a la p&#225;gina de Entrenamientos (Entrenador)</text><rect fill="#F1F1F1" height="34.4001" rx="12.5" ry="12.5" style="stroke:#181818;stroke-width:0.5;" width="285" x="383.25" y="142.2"/><text fill="#000000" font-family="sans-serif" font-size="12" lengthAdjust="spacing" textLength="265" x="393.25" y="163.3481">Sistema carga y muestra lista de Entrenamientos</text><rect fill="#F1F1F1" height="34.4001" rx="12.5" ry="12.5" style="stroke:#181818;stroke-width:0.5;" width="518" x="266.75" y="196.6001"/><text fill="#000000" font-family="sans-serif" font-size="12" lengthAdjust="spacing" textLength="498" x="276.75" y="217.7482">Entrenador selecciona un Entrenamiento y hace clic en "Gestionar Inscripciones/Asistencia"</text><rect fill="#F1F1F1" height="34.4001" rx="12.5" ry="12.5" style="stroke:#181818;stroke-width:0.5;" width="652" x="199.75" y="251.0002"/><text fill="#000000" font-family="sans-serif" font-size="12" lengthAdjust="spacing" textLength="632" x="209.75" y="272.1483">Sistema muestra di&#225;logo con lista de usuarios inscritos en el Entrenamiento y su estado de asistencia actual (switch)</text><rect fill="#F1F1F1" height="34.4001" rx="12.5" ry="12.5" style="stroke:#181818;stroke-width:0.5;" width="406" x="322.75" y="305.4003"/><text fill="#000000" font-family="sans-serif" font-size="12" lengthAdjust="spacing" textLength="386" x="332.75" y="326.5484">Entrenador conmuta el switch de Asistencia para un Usuario espec&#237;fico</text><rect fill="#F1F1F1" height="34.4001" rx="12.5" ry="12.5" style="stroke:#181818;stroke-width:0.5;" width="262" x="394.75" y="359.8004"/><text fill="#000000" font-family="sans-serif" font-size="12" lengthAdjust="spacing" textLength="242" x="404.75" y="380.9485">Nuevo estado de asistencia = !Estado Actual</text><rect fill="#F1F1F1" height="48.8002" rx="12.5" ry="12.5" style="stroke:#181818;stroke-width:0.5;" width="383" x="334.25" y="414.2005"/><text fill="#000000" font-family="sans-serif" font-size="12" lengthAdjust="spacing" textLength="363" x="344.25" y="435.3486">Sistema env&#237;a solicitud de marcaci&#243;n de asistencia al Backend API</text><text fill="#000000" font-family="sans-serif" font-size="12" lengthAdjust="spacing" textLength="309" x="344.25" y="449.7487">(ID Entrenamiento, ID Usuario, Nuevo Estado Asistencia)</text><polygon fill="#F1F1F1" points="413.25,483.0007,638.25,483.0007,650.25,495.0007,638.25,507.0007,413.25,507.0007,401.25,495.0007,413.25,483.0007" style="stroke:#181818;stroke-width:0.5;"/><text fill="#000000" font-family="sans-serif" font-size="11" lengthAdjust="spacing" textLength="225" x="413.25" y="498.6197">Marcaci&#243;n de Asistencia Exitosa en Backend?</text><text fill="#000000" font-family="sans-serif" font-size="11" lengthAdjust="spacing" textLength="9" x="392.25" y="492.0198">s&#237;</text><text fill="#000000" font-family="sans-serif" font-size="11" lengthAdjust="spacing" textLength="106" x="650.25" y="492.0198">no - error en backend</text><rect fill="#F1F1F1" height="34.4001" rx="12.5" ry="12.5" style="stroke:#181818;stroke-width:0.5;" width="567" x="11" y="517.0007"/><text fill="#000000" font-family="sans-serif" font-size="12" lengthAdjust="spacing" textLength="547" x="21" y="538.1488">Backend API actualiza el estado de asistencia del usuario para ese entrenamiento (y fecha si asisti&#243;)</text><rect fill="#F1F1F1" height="34.4001" rx="12.5" ry="12.5" style="stroke:#181818;stroke-width:0.5;" width="198" x="195.5" y="571.4008"/><text fill="#000000" font-family="sans-serif" font-size="12" lengthAdjust="spacing" textLength="178" x="205.5" y="592.5489">Mostrar mensaje de &#233;xito (Toast)</text><rect fill="#F1F1F1" height="34.4001" rx="12.5" ry="12.5" style="stroke:#181818;stroke-width:0.5;" width="350" x="119.5" y="625.8009"/><text fill="#000000" font-family="sans-serif" font-size="12" lengthAdjust="spacing" textLength="330" x="129.5" y="646.949">Actualizar UI del switch y detalles de asistencia en el di&#225;logo</text><rect fill="#F1F1F1" height="34.4001" rx="12.5" ry="12.5" style="stroke:#181818;stroke-width:0.5;" width="161" x="676.5" y="517.0007"/><text fill="#000000" font-family="sans-serif" font-size="12" lengthAdjust="spacing" textLength="141" x="686.5" y="538.1488">Backend API retorna error</text><rect fill="#F1F1F1" height="34.4001" rx="12.5" ry="12.5" style="stroke:#181818;stroke-width:0.5;" width="198" x="658" y="571.4008"/><text fill="#000000" font-family="sans-serif" font-size="12" lengthAdjust="spacing" textLength="178" x="668" y="592.5489">Mostrar mensaje de error (Toast)</text><rect fill="#F1F1F1" height="34.4001" rx="12.5" ry="12.5" style="stroke:#181818;stroke-width:0.5;" width="318" x="598" y="625.8009"/><text fill="#000000" font-family="sans-serif" font-size="12" lengthAdjust="spacing" textLength="298" x="608" y="646.949">Revertir estado del switch a su valor original (opcional)</text><polygon fill="#F1F1F1" points="525.75,666.201,537.75,678.201,525.75,690.201,513.75,678.201,525.75,666.201" style="stroke:#181818;stroke-width:0.5;"/><ellipse cx="525.75" cy="721.201" fill="none" rx="11" ry="11" style="stroke:#222222;stroke-width:1.0;"/><ellipse cx="525.75" cy="721.201" fill="#222222" rx="6" ry="6" style="stroke:#222222;stroke-width:1.0;"/><line style="stroke:#181818;stroke-width:1.0;" x1="525.75" x2="525.75" y1="67.7999" y2="87.7999"/><polygon fill="#181818" points="521.75,77.7999,525.75,87.7999,529.75,77.7999,525.75,81.7999" style="stroke:#181818;stroke-width:1.0;"/><line style="stroke:#181818;stroke-width:1.0;" x1="525.75" x2="525.75" y1="122.2" y2="142.2"/><polygon fill="#181818" points="521.75,132.2,525.75,142.2,529.75,132.2,525.75,136.2" style="stroke:#181818;stroke-width:1.0;"/><line style="stroke:#181818;stroke-width:1.0;" x1="525.75" x2="525.75" y1="176.6001" y2="196.6001"/><polygon fill="#181818" points="521.75,186.6001,525.75,196.6001,529.75,186.6001,525.75,190.6001" style="stroke:#181818;stroke-width:1.0;"/><line style="stroke:#181818;stroke-width:1.0;" x1="525.75" x2="525.75" y1="231.0002" y2="251.0002"/><polygon fill="#181818" points="521.75,241.0002,525.75,251.0002,529.75,241.0002,525.75,245.0002" style="stroke:#181818;stroke-width:1.0;"/><line style="stroke:#181818;stroke-width:1.0;" x1="525.75" x2="525.75" y1="285.4003" y2="305.4003"/><polygon fill="#181818" points="521.75,295.4003,525.75,305.4003,529.75,295.4003,525.75,299.4003" style="stroke:#181818;stroke-width:1.0;"/><line style="stroke:#181818;stroke-width:1.0;" x1="525.75" x2="525.75" y1="339.8004" y2="359.8004"/><polygon fill="#181818" points="521.75,349.8004,525.75,359.8004,529.75,349.8004,525.75,353.8004" style="stroke:#181818;stroke-width:1.0;"/><line style="stroke:#181818;stroke-width:1.0;" x1="525.75" x2="525.75" y1="394.2005" y2="414.2005"/><polygon fill="#181818" points="521.75,404.2005,525.75,414.2005,529.75,404.2005,525.75,408.2005" style="stroke:#181818;stroke-width:1.0;"/><line style="stroke:#181818;stroke-width:1.0;" x1="294.5" x2="294.5" y1="551.4008" y2="571.4008"/><polygon fill="#181818" points="290.5,561.4008,294.5,571.4008,298.5,561.4008,294.5,565.4008" style="stroke:#181818;stroke-width:1.0;"/><line style="stroke:#181818;stroke-width:1.0;" x1="294.5" x2="294.5" y1="605.8009" y2="625.8009"/><polygon fill="#181818" points="290.5,615.8009,294.5,625.8009,298.5,615.8009,294.5,619.8009" style="stroke:#181818;stroke-width:1.0;"/><line style="stroke:#181818;stroke-width:1.0;" x1="757" x2="757" y1="551.4008" y2="571.4008"/><polygon fill="#181818" points="753,561.4008,757,571.4008,761,561.4008,757,565.4008" style="stroke:#181818;stroke-width:1.0;"/><line style="stroke:#181818;stroke-width:1.0;" x1="757" x2="757" y1="605.8009" y2="625.8009"/><polygon fill="#181818" points="753,615.8009,757,625.8009,761,615.8009,757,619.8009" style="stroke:#181818;stroke-width:1.0;"/><line style="stroke:#181818;stroke-width:1.0;" x1="401.25" x2="294.5" y1="495.0007" y2="495.0007"/><line style="stroke:#181818;stroke-width:1.0;" x1="294.5" x2="294.5" y1="495.0007" y2="517.0007"/><polygon fill="#181818" points="290.5,507.0007,294.5,517.0007,298.5,507.0007,294.5,511.0007" style="stroke:#181818;stroke-width:1.0;"/><line style="stroke:#181818;stroke-width:1.0;" x1="650.25" x2="757" y1="495.0007" y2="495.0007"/><line style="stroke:#181818;stroke-width:1.0;" x1="757" x2="757" y1="495.0007" y2="517.0007"/><polygon fill="#181818" points="753,507.0007,757,517.0007,761,507.0007,757,511.0007" style="stroke:#181818;stroke-width:1.0;"/><line style="stroke:#181818;stroke-width:1.0;" x1="294.5" x2="294.5" y1="660.201" y2="678.201"/><line style="stroke:#181818;stroke-width:1.0;" x1="294.5" x2="513.75" y1="678.201" y2="678.201"/><polygon fill="#181818" points="503.75,674.201,513.75,678.201,503.75,682.201,507.75,678.201" style="stroke:#181818;stroke-width:1.0;"/><line style="stroke:#181818;stroke-width:1.0;" x1="757" x2="757" y1="660.201" y2="678.201"/><line style="stroke:#181818;stroke-width:1.0;" x1="757" x2="537.75" y1="678.201" y2="678.201"/><polygon fill="#181818" points="547.75,674.201,537.75,678.201,547.75,682.201,543.75,678.201" style="stroke:#181818;stroke-width:1.0;"/><line style="stroke:#181818;stroke-width:1.0;" x1="525.75" x2="525.75" y1="463.0007" y2="483.0007"/><polygon fill="#181818" points="521.75,473.0007,525.75,483.0007,529.75,473.0007,525.75,477.0007" style="stroke:#181818;stroke-width:1.0;"/><line style="stroke:#181818;stroke-width:1.0;" x1="525.75" x2="525.75" y1="690.201" y2="710.201"/><polygon fill="#181818" points="521.75,700.201,525.75,710.201,529.75,700.201,525.75,704.201" style="stroke:#181818;stroke-width:1.0;"/><!--SRC=[TPFFZjCm4CRlUOfXJwcqY7ihXCfkXNfOX83UaD3WJDi1nuvi9r3UPeySUk8HycACuwH9TilHV-RxVjzu73XeWjtTrtVa0rk3RktP1pAASME28uCbamdMzwl2kYMiLU26mmdk6GyEoopp0Lt8bkCbCDZG0G518rJjuu4DGa4m5uLyh5YiikMdw5qYA7HIUuAo5Ymd6h9_fNmrS_IaIQaO0ceplobIHrG4IhC2Cd1pYGjRuvNZAjQHVpMclvdW31W5ju_Q7YmeQqQcsjVeMC9m9nLZYGNfPmY-1j4HrbY55oT05MhKaFkV7DHnCKybLcKjHgANpcFnY0aLkYxlBb68GqMgFUzPMH5wNrDZhxk-XXURjB_k_2TvoJJj6S5RQHU7keYL9Jg5Yjk_vYczXhUeVf0fOFrX-yNas_jvybkGdHxl5XBHu7oHaTIyX_nXvZA9kVaL6nlH1hSt2mX7MUQ-FIyoWEM4ecyf_-xwTZL-8GVzowKUaYTHdxvOVe8zgQCqWbEbS0cdM3tOE0yEIZ8UlrEKRlz4GiW_M_GXtLeF40vssywmVy6JB09gJVu9L9gROSnM6Mc1oes5bq3EoJJ8XMyfvhF8Ze9rCllTnVzH9fKfv4Tgo0LsOvSkc1Wdja4j5TPn_C4ofBRxAgYbMfnvBr_VLly0]--></g></svg>