<?xml version="1.0" encoding="us-ascii" standalone="no"?><svg xmlns="http://www.w3.org/2000/svg" xmlns:xlink="http://www.w3.org/1999/xlink" contentStyleType="text/css" height="651px" preserveAspectRatio="none" style="width:2303px;height:651px;background:#FFFFFF;" version="1.1" viewBox="0 0 2303 651" width="2303px" zoomAndPan="magnify"><defs/><g><!--entity bcrypt_hasher/src/lib.rs--><g id="elem_bcrypt_hasher/src/lib.rs"><rect fill="#F1F1F1" height="39.7999" rx="2.5" ry="2.5" style="stroke:#181818;stroke-width:0.5;" width="178" x="83.5" y="7"/><polygon fill="#F1F1F1" points="244.5,12,244.5,26,256.5,26,256.5,18,250.5,12,244.5,12" style="stroke:#181818;stroke-width:0.5;"/><line style="stroke:#181818;stroke-width:0.5;" x1="250.5" x2="250.5" y1="12" y2="18"/><line style="stroke:#181818;stroke-width:0.5;" x1="256.5" x2="250.5" y1="18" y2="18"/><text fill="#000000" font-family="sans-serif" font-size="14" lengthAdjust="spacing" textLength="148" x="93.5" y="33.0059">bcrypt_hasher/src/lib.rs</text></g><!--entity entities/src/category.rs--><g id="elem_entities/src/category.rs"><rect fill="#F1F1F1" height="39.7999" rx="2.5" ry="2.5" style="stroke:#181818;stroke-width:0.5;" width="173" x="297" y="7"/><polygon fill="#F1F1F1" points="453,12,453,26,465,26,465,18,459,12,453,12" style="stroke:#181818;stroke-width:0.5;"/><line style="stroke:#181818;stroke-width:0.5;" x1="459" x2="459" y1="12" y2="18"/><line style="stroke:#181818;stroke-width:0.5;" x1="465" x2="459" y1="18" y2="18"/><text fill="#000000" font-family="sans-serif" font-size="14" lengthAdjust="spacing" textLength="143" x="307" y="33.0059">entities/src/category.rs</text></g><!--entity entities/src/date_serde.rs--><g id="elem_entities/src/date_serde.rs"><rect fill="#F1F1F1" height="39.7999" rx="2.5" ry="2.5" style="stroke:#181818;stroke-width:0.5;" width="190" x="505.5" y="7"/><polygon fill="#F1F1F1" points="678.5,12,678.5,26,690.5,26,690.5,18,684.5,12,678.5,12" style="stroke:#181818;stroke-width:0.5;"/><line style="stroke:#181818;stroke-width:0.5;" x1="684.5" x2="684.5" y1="12" y2="18"/><line style="stroke:#181818;stroke-width:0.5;" x1="690.5" x2="684.5" y1="18" y2="18"/><text fill="#000000" font-family="sans-serif" font-size="14" lengthAdjust="spacing" textLength="160" x="515.5" y="33.0059">entities/src/date_serde.rs</text></g><!--entity entities/src/datetime_serde.rs--><g id="elem_entities/src/datetime_serde.rs"><rect fill="#F1F1F1" height="39.7999" rx="2.5" ry="2.5" style="stroke:#181818;stroke-width:0.5;" width="217" x="731" y="7"/><polygon fill="#F1F1F1" points="931,12,931,26,943,26,943,18,937,12,931,12" style="stroke:#181818;stroke-width:0.5;"/><line style="stroke:#181818;stroke-width:0.5;" x1="937" x2="937" y1="12" y2="18"/><line style="stroke:#181818;stroke-width:0.5;" x1="943" x2="937" y1="18" y2="18"/><text fill="#000000" font-family="sans-serif" font-size="14" lengthAdjust="spacing" textLength="187" x="741" y="33.0059">entities/src/datetime_serde.rs</text></g><!--entity entities/src/lib.rs--><g id="elem_entities/src/lib.rs"><rect fill="#F1F1F1" height="39.7999" rx="2.5" ry="2.5" style="stroke:#181818;stroke-width:0.5;" width="132" x="982.5" y="7"/><polygon fill="#F1F1F1" points="1097.5,12,1097.5,26,1109.5,26,1109.5,18,1103.5,12,1097.5,12" style="stroke:#181818;stroke-width:0.5;"/><line style="stroke:#181818;stroke-width:0.5;" x1="1103.5" x2="1103.5" y1="12" y2="18"/><line style="stroke:#181818;stroke-width:0.5;" x1="1109.5" x2="1103.5" y1="18" y2="18"/><text fill="#000000" font-family="sans-serif" font-size="14" lengthAdjust="spacing" textLength="102" x="992.5" y="33.0059">entities/src/lib.rs</text></g><!--entity entities/src/request.rs--><g id="elem_entities/src/request.rs"><rect fill="#F1F1F1" height="39.7999" rx="2.5" ry="2.5" style="stroke:#181818;stroke-width:0.5;" width="166" x="1149.5" y="7"/><polygon fill="#F1F1F1" points="1298.5,12,1298.5,26,1310.5,26,1310.5,18,1304.5,12,1298.5,12" style="stroke:#181818;stroke-width:0.5;"/><line style="stroke:#181818;stroke-width:0.5;" x1="1304.5" x2="1304.5" y1="12" y2="18"/><line style="stroke:#181818;stroke-width:0.5;" x1="1310.5" x2="1304.5" y1="18" y2="18"/><text fill="#000000" font-family="sans-serif" font-size="14" lengthAdjust="spacing" textLength="136" x="1159.5" y="33.0059">entities/src/request.rs</text></g><!--entity entities/src/tournament.rs--><g id="elem_entities/src/tournament.rs"><rect fill="#F1F1F1" height="39.7999" rx="2.5" ry="2.5" style="stroke:#181818;stroke-width:0.5;" width="191" x="1351" y="7"/><polygon fill="#F1F1F1" points="1525,12,1525,26,1537,26,1537,18,1531,12,1525,12" style="stroke:#181818;stroke-width:0.5;"/><line style="stroke:#181818;stroke-width:0.5;" x1="1531" x2="1531" y1="12" y2="18"/><line style="stroke:#181818;stroke-width:0.5;" x1="1537" x2="1531" y1="18" y2="18"/><text fill="#000000" font-family="sans-serif" font-size="14" lengthAdjust="spacing" textLength="161" x="1361" y="33.0059">entities/src/tournament.rs</text></g><!--entity entities/src/training.rs--><g id="elem_entities/src/training.rs"><rect fill="#F1F1F1" height="39.7999" rx="2.5" ry="2.5" style="stroke:#181818;stroke-width:0.5;" width="165" x="90" y="106.8"/><polygon fill="#F1F1F1" points="238,111.8,238,125.8,250,125.8,250,117.8,244,111.8,238,111.8" style="stroke:#181818;stroke-width:0.5;"/><line style="stroke:#181818;stroke-width:0.5;" x1="244" x2="244" y1="111.8" y2="117.8"/><line style="stroke:#181818;stroke-width:0.5;" x1="250" x2="244" y1="117.8" y2="117.8"/><text fill="#000000" font-family="sans-serif" font-size="14" lengthAdjust="spacing" textLength="135" x="100" y="132.8059">entities/src/training.rs</text></g><!--entity entities/src/tuition.rs--><g id="elem_entities/src/tuition.rs"><rect fill="#F1F1F1" height="39.7999" rx="2.5" ry="2.5" style="stroke:#181818;stroke-width:0.5;" width="156" x="290.5" y="106.8"/><polygon fill="#F1F1F1" points="429.5,111.8,429.5,125.8,441.5,125.8,441.5,117.8,435.5,111.8,429.5,111.8" style="stroke:#181818;stroke-width:0.5;"/><line style="stroke:#181818;stroke-width:0.5;" x1="435.5" x2="435.5" y1="111.8" y2="117.8"/><line style="stroke:#181818;stroke-width:0.5;" x1="441.5" x2="435.5" y1="117.8" y2="117.8"/><text fill="#000000" font-family="sans-serif" font-size="14" lengthAdjust="spacing" textLength="126" x="300.5" y="132.8059">entities/src/tuition.rs</text></g><!--entity entities/src/user.rs--><g id="elem_entities/src/user.rs"><rect fill="#F1F1F1" height="39.7999" rx="2.5" ry="2.5" style="stroke:#181818;stroke-width:0.5;" width="146" x="481.5" y="106.8"/><polygon fill="#F1F1F1" points="610.5,111.8,610.5,125.8,622.5,125.8,622.5,117.8,616.5,111.8,610.5,111.8" style="stroke:#181818;stroke-width:0.5;"/><line style="stroke:#181818;stroke-width:0.5;" x1="616.5" x2="616.5" y1="111.8" y2="117.8"/><line style="stroke:#181818;stroke-width:0.5;" x1="622.5" x2="616.5" y1="117.8" y2="117.8"/><text fill="#000000" font-family="sans-serif" font-size="14" lengthAdjust="spacing" textLength="116" x="491.5" y="132.8059">entities/src/user.rs</text></g><!--entity http_api/src/auth.rs--><g id="elem_http_api/src/auth.rs"><rect fill="#F1F1F1" height="39.7999" rx="2.5" ry="2.5" style="stroke:#181818;stroke-width:0.5;" width="152" x="662.5" y="106.8"/><polygon fill="#F1F1F1" points="797.5,111.8,797.5,125.8,809.5,125.8,809.5,117.8,803.5,111.8,797.5,111.8" style="stroke:#181818;stroke-width:0.5;"/><line style="stroke:#181818;stroke-width:0.5;" x1="803.5" x2="803.5" y1="111.8" y2="117.8"/><line style="stroke:#181818;stroke-width:0.5;" x1="809.5" x2="803.5" y1="117.8" y2="117.8"/><text fill="#000000" font-family="sans-serif" font-size="14" lengthAdjust="spacing" textLength="122" x="672.5" y="132.8059">http_api/src/auth.rs</text></g><!--entity http_api/src/category_endpoints.rs--><g id="elem_http_api/src/category_endpoints.rs"><rect fill="#F1F1F1" height="39.7999" rx="2.5" ry="2.5" style="stroke:#181818;stroke-width:0.5;" width="249" x="849" y="106.8"/><polygon fill="#F1F1F1" points="1081,111.8,1081,125.8,1093,125.8,1093,117.8,1087,111.8,1081,111.8" style="stroke:#181818;stroke-width:0.5;"/><line style="stroke:#181818;stroke-width:0.5;" x1="1087" x2="1087" y1="111.8" y2="117.8"/><line style="stroke:#181818;stroke-width:0.5;" x1="1093" x2="1087" y1="117.8" y2="117.8"/><text fill="#000000" font-family="sans-serif" font-size="14" lengthAdjust="spacing" textLength="219" x="859" y="132.8059">http_api/src/category_endpoints.rs</text></g><!--entity http_api/src/err.rs--><g id="elem_http_api/src/err.rs"><rect fill="#F1F1F1" height="39.7999" rx="2.5" ry="2.5" style="stroke:#181818;stroke-width:0.5;" width="142" x="1132.5" y="106.8"/><polygon fill="#F1F1F1" points="1257.5,111.8,1257.5,125.8,1269.5,125.8,1269.5,117.8,1263.5,111.8,1257.5,111.8" style="stroke:#181818;stroke-width:0.5;"/><line style="stroke:#181818;stroke-width:0.5;" x1="1263.5" x2="1263.5" y1="111.8" y2="117.8"/><line style="stroke:#181818;stroke-width:0.5;" x1="1269.5" x2="1263.5" y1="117.8" y2="117.8"/><text fill="#000000" font-family="sans-serif" font-size="14" lengthAdjust="spacing" textLength="112" x="1142.5" y="132.8059">http_api/src/err.rs</text></g><!--entity http_api/src/main.rs--><g id="elem_http_api/src/main.rs"><rect fill="#F1F1F1" height="39.7999" rx="2.5" ry="2.5" style="stroke:#181818;stroke-width:0.5;" width="155" x="1310" y="106.8"/><polygon fill="#F1F1F1" points="1448,111.8,1448,125.8,1460,125.8,1460,117.8,1454,111.8,1448,111.8" style="stroke:#181818;stroke-width:0.5;"/><line style="stroke:#181818;stroke-width:0.5;" x1="1454" x2="1454" y1="111.8" y2="117.8"/><line style="stroke:#181818;stroke-width:0.5;" x1="1460" x2="1454" y1="117.8" y2="117.8"/><text fill="#000000" font-family="sans-serif" font-size="14" lengthAdjust="spacing" textLength="125" x="1320" y="132.8059">http_api/src/main.rs</text></g><!--entity http_api/src/request_endpoints.rs--><g id="elem_http_api/src/request_endpoints.rs"><rect fill="#F1F1F1" height="39.7999" rx="2.5" ry="2.5" style="stroke:#181818;stroke-width:0.5;" width="242" x="51.5" y="206.6"/><polygon fill="#F1F1F1" points="276.5,211.6,276.5,225.6,288.5,225.6,288.5,217.6,282.5,211.6,276.5,211.6" style="stroke:#181818;stroke-width:0.5;"/><line style="stroke:#181818;stroke-width:0.5;" x1="282.5" x2="282.5" y1="211.6" y2="217.6"/><line style="stroke:#181818;stroke-width:0.5;" x1="288.5" x2="282.5" y1="217.6" y2="217.6"/><text fill="#000000" font-family="sans-serif" font-size="14" lengthAdjust="spacing" textLength="212" x="61.5" y="232.6059">http_api/src/request_endpoints.rs</text></g><!--entity http_api/src/tournament_endpoints.rs--><g id="elem_http_api/src/tournament_endpoints.rs"><rect fill="#F1F1F1" height="39.7999" rx="2.5" ry="2.5" style="stroke:#181818;stroke-width:0.5;" width="267" x="328" y="206.6"/><polygon fill="#F1F1F1" points="578,211.6,578,225.6,590,225.6,590,217.6,584,211.6,578,211.6" style="stroke:#181818;stroke-width:0.5;"/><line style="stroke:#181818;stroke-width:0.5;" x1="584" x2="584" y1="211.6" y2="217.6"/><line style="stroke:#181818;stroke-width:0.5;" x1="590" x2="584" y1="217.6" y2="217.6"/><text fill="#000000" font-family="sans-serif" font-size="14" lengthAdjust="spacing" textLength="237" x="338" y="232.6059">http_api/src/tournament_endpoints.rs</text></g><!--entity http_api/src/training_endpoints.rs--><g id="elem_http_api/src/training_endpoints.rs"><rect fill="#F1F1F1" height="39.7999" rx="2.5" ry="2.5" style="stroke:#181818;stroke-width:0.5;" width="241" x="630" y="206.6"/><polygon fill="#F1F1F1" points="854,211.6,854,225.6,866,225.6,866,217.6,860,211.6,854,211.6" style="stroke:#181818;stroke-width:0.5;"/><line style="stroke:#181818;stroke-width:0.5;" x1="860" x2="860" y1="211.6" y2="217.6"/><line style="stroke:#181818;stroke-width:0.5;" x1="866" x2="860" y1="217.6" y2="217.6"/><text fill="#000000" font-family="sans-serif" font-size="14" lengthAdjust="spacing" textLength="211" x="640" y="232.6059">http_api/src/training_endpoints.rs</text></g><!--entity http_api/src/tuition_endpoints.rs--><g id="elem_http_api/src/tuition_endpoints.rs"><rect fill="#F1F1F1" height="39.7999" rx="2.5" ry="2.5" style="stroke:#181818;stroke-width:0.5;" width="232" x="905.5" y="206.6"/><polygon fill="#F1F1F1" points="1120.5,211.6,1120.5,225.6,1132.5,225.6,1132.5,217.6,1126.5,211.6,1120.5,211.6" style="stroke:#181818;stroke-width:0.5;"/><line style="stroke:#181818;stroke-width:0.5;" x1="1126.5" x2="1126.5" y1="211.6" y2="217.6"/><line style="stroke:#181818;stroke-width:0.5;" x1="1132.5" x2="1126.5" y1="217.6" y2="217.6"/><text fill="#000000" font-family="sans-serif" font-size="14" lengthAdjust="spacing" textLength="202" x="915.5" y="232.6059">http_api/src/tuition_endpoints.rs</text></g><!--entity http_api/src/user_endpoints.rs--><g id="elem_http_api/src/user_endpoints.rs"><rect fill="#F1F1F1" height="39.7999" rx="2.5" ry="2.5" style="stroke:#181818;stroke-width:0.5;" width="222" x="1172.5" y="206.6"/><polygon fill="#F1F1F1" points="1377.5,211.6,1377.5,225.6,1389.5,225.6,1389.5,217.6,1383.5,211.6,1377.5,211.6" style="stroke:#181818;stroke-width:0.5;"/><line style="stroke:#181818;stroke-width:0.5;" x1="1383.5" x2="1383.5" y1="211.6" y2="217.6"/><line style="stroke:#181818;stroke-width:0.5;" x1="1389.5" x2="1383.5" y1="217.6" y2="217.6"/><text fill="#000000" font-family="sans-serif" font-size="14" lengthAdjust="spacing" textLength="192" x="1182.5" y="232.6059">http_api/src/user_endpoints.rs</text></g><!--entity turso_db/src/category_repo/mod.rs--><g id="elem_turso_db/src/category_repo/mod.rs"><rect fill="#F1F1F1" height="39.7999" rx="2.5" ry="2.5" style="stroke:#181818;stroke-width:0.5;" width="253" x="1429" y="206.6"/><polygon fill="#F1F1F1" points="1665,211.6,1665,225.6,1677,225.6,1677,217.6,1671,211.6,1665,211.6" style="stroke:#181818;stroke-width:0.5;"/><line style="stroke:#181818;stroke-width:0.5;" x1="1671" x2="1671" y1="211.6" y2="217.6"/><line style="stroke:#181818;stroke-width:0.5;" x1="1677" x2="1671" y1="217.6" y2="217.6"/><text fill="#000000" font-family="sans-serif" font-size="14" lengthAdjust="spacing" textLength="223" x="1439" y="232.6059">turso_db/src/category_repo/mod.rs</text></g><!--entity use_cases/src/category_service/err.rs--><g id="elem_use_cases/src/category_service/err.rs"><rect fill="#F1F1F1" height="39.7999" rx="2.5" ry="2.5" style="stroke:#181818;stroke-width:0.5;" width="271" x="1717" y="206.6"/><polygon fill="#F1F1F1" points="1971,211.6,1971,225.6,1983,225.6,1983,217.6,1977,211.6,1971,211.6" style="stroke:#181818;stroke-width:0.5;"/><line style="stroke:#181818;stroke-width:0.5;" x1="1977" x2="1977" y1="211.6" y2="217.6"/><line style="stroke:#181818;stroke-width:0.5;" x1="1983" x2="1977" y1="217.6" y2="217.6"/><text fill="#000000" font-family="sans-serif" font-size="14" lengthAdjust="spacing" textLength="241" x="1727" y="232.6059">use_cases/src/category_service/err.rs</text></g><!--entity use_cases/src/category_service/mod.rs--><g id="elem_use_cases/src/category_service/mod.rs"><rect fill="#F1F1F1" height="39.7999" rx="2.5" ry="2.5" style="stroke:#181818;stroke-width:0.5;" width="281" x="32" y="306.4"/><polygon fill="#F1F1F1" points="296,311.4,296,325.4,308,325.4,308,317.4,302,311.4,296,311.4" style="stroke:#181818;stroke-width:0.5;"/><line style="stroke:#181818;stroke-width:0.5;" x1="302" x2="302" y1="311.4" y2="317.4"/><line style="stroke:#181818;stroke-width:0.5;" x1="308" x2="302" y1="317.4" y2="317.4"/><text fill="#000000" font-family="sans-serif" font-size="14" lengthAdjust="spacing" textLength="251" x="42" y="332.4059">use_cases/src/category_service/mod.rs</text></g><!--entity use_cases/src/category_service/repository_trait.rs--><g id="elem_use_cases/src/category_service/repository_trait.rs"><rect fill="#F1F1F1" height="39.7999" rx="2.5" ry="2.5" style="stroke:#181818;stroke-width:0.5;" width="348" x="347.5" y="306.4"/><polygon fill="#F1F1F1" points="678.5,311.4,678.5,325.4,690.5,325.4,690.5,317.4,684.5,311.4,678.5,311.4" style="stroke:#181818;stroke-width:0.5;"/><line style="stroke:#181818;stroke-width:0.5;" x1="684.5" x2="684.5" y1="311.4" y2="317.4"/><line style="stroke:#181818;stroke-width:0.5;" x1="690.5" x2="684.5" y1="317.4" y2="317.4"/><text fill="#000000" font-family="sans-serif" font-size="14" lengthAdjust="spacing" textLength="318" x="357.5" y="332.4059">use_cases/src/category_service/repository_trait.rs</text></g><!--entity use_cases/src/lib.rs--><g id="elem_use_cases/src/lib.rs"><rect fill="#F1F1F1" height="39.7999" rx="2.5" ry="2.5" style="stroke:#181818;stroke-width:0.5;" width="155" x="730" y="306.4"/><polygon fill="#F1F1F1" points="868,311.4,868,325.4,880,325.4,880,317.4,874,311.4,868,311.4" style="stroke:#181818;stroke-width:0.5;"/><line style="stroke:#181818;stroke-width:0.5;" x1="874" x2="874" y1="311.4" y2="317.4"/><line style="stroke:#181818;stroke-width:0.5;" x1="880" x2="874" y1="317.4" y2="317.4"/><text fill="#000000" font-family="sans-serif" font-size="14" lengthAdjust="spacing" textLength="125" x="740" y="332.4059">use_cases/src/lib.rs</text></g><!--entity use_cases/src/request_service/err.rs--><g id="elem_use_cases/src/request_service/err.rs"><rect fill="#F1F1F1" height="39.7999" rx="2.5" ry="2.5" style="stroke:#181818;stroke-width:0.5;" width="264" x="920.5" y="306.4"/><polygon fill="#F1F1F1" points="1167.5,311.4,1167.5,325.4,1179.5,325.4,1179.5,317.4,1173.5,311.4,1167.5,311.4" style="stroke:#181818;stroke-width:0.5;"/><line style="stroke:#181818;stroke-width:0.5;" x1="1173.5" x2="1173.5" y1="311.4" y2="317.4"/><line style="stroke:#181818;stroke-width:0.5;" x1="1179.5" x2="1173.5" y1="317.4" y2="317.4"/><text fill="#000000" font-family="sans-serif" font-size="14" lengthAdjust="spacing" textLength="234" x="930.5" y="332.4059">use_cases/src/request_service/err.rs</text></g><!--entity use_cases/src/request_service/mod.rs--><g id="elem_use_cases/src/request_service/mod.rs"><rect fill="#F1F1F1" height="39.7999" rx="2.5" ry="2.5" style="stroke:#181818;stroke-width:0.5;" width="274" x="1219.5" y="306.4"/><polygon fill="#F1F1F1" points="1476.5,311.4,1476.5,325.4,1488.5,325.4,1488.5,317.4,1482.5,311.4,1476.5,311.4" style="stroke:#181818;stroke-width:0.5;"/><line style="stroke:#181818;stroke-width:0.5;" x1="1482.5" x2="1482.5" y1="311.4" y2="317.4"/><line style="stroke:#181818;stroke-width:0.5;" x1="1488.5" x2="1482.5" y1="317.4" y2="317.4"/><text fill="#000000" font-family="sans-serif" font-size="14" lengthAdjust="spacing" textLength="244" x="1229.5" y="332.4059">use_cases/src/request_service/mod.rs</text></g><!--entity use_cases/src/request_service/repository_trait.rs--><g id="elem_use_cases/src/request_service/repository_trait.rs"><rect fill="#F1F1F1" height="39.7999" rx="2.5" ry="2.5" style="stroke:#181818;stroke-width:0.5;" width="341" x="1529" y="306.4"/><polygon fill="#F1F1F1" points="1853,311.4,1853,325.4,1865,325.4,1865,317.4,1859,311.4,1853,311.4" style="stroke:#181818;stroke-width:0.5;"/><line style="stroke:#181818;stroke-width:0.5;" x1="1859" x2="1859" y1="311.4" y2="317.4"/><line style="stroke:#181818;stroke-width:0.5;" x1="1865" x2="1859" y1="317.4" y2="317.4"/><text fill="#000000" font-family="sans-serif" font-size="14" lengthAdjust="spacing" textLength="311" x="1539" y="332.4059">use_cases/src/request_service/repository_trait.rs</text></g><!--entity use_cases/src/tournament_service/err.rs--><g id="elem_use_cases/src/tournament_service/err.rs"><rect fill="#F1F1F1" height="39.7999" rx="2.5" ry="2.5" style="stroke:#181818;stroke-width:0.5;" width="289" x="1905" y="306.4"/><polygon fill="#F1F1F1" points="2177,311.4,2177,325.4,2189,325.4,2189,317.4,2183,311.4,2177,311.4" style="stroke:#181818;stroke-width:0.5;"/><line style="stroke:#181818;stroke-width:0.5;" x1="2183" x2="2183" y1="311.4" y2="317.4"/><line style="stroke:#181818;stroke-width:0.5;" x1="2189" x2="2183" y1="317.4" y2="317.4"/><text fill="#000000" font-family="sans-serif" font-size="14" lengthAdjust="spacing" textLength="259" x="1915" y="332.4059">use_cases/src/tournament_service/err.rs</text></g><!--entity use_cases/src/tournament_service/mod.rs--><g id="elem_use_cases/src/tournament_service/mod.rs"><rect fill="#F1F1F1" height="39.7999" rx="2.5" ry="2.5" style="stroke:#181818;stroke-width:0.5;" width="299" x="23" y="406.2"/><polygon fill="#F1F1F1" points="305,411.2,305,425.2,317,425.2,317,417.2,311,411.2,305,411.2" style="stroke:#181818;stroke-width:0.5;"/><line style="stroke:#181818;stroke-width:0.5;" x1="311" x2="311" y1="411.2" y2="417.2"/><line style="stroke:#181818;stroke-width:0.5;" x1="317" x2="311" y1="417.2" y2="417.2"/><text fill="#000000" font-family="sans-serif" font-size="14" lengthAdjust="spacing" textLength="269" x="33" y="432.2059">use_cases/src/tournament_service/mod.rs</text></g><!--entity use_cases/src/tournament_service/repository_trait.rs--><g id="elem_use_cases/src/tournament_service/repository_trait.rs"><rect fill="#F1F1F1" height="39.7999" rx="2.5" ry="2.5" style="stroke:#181818;stroke-width:0.5;" width="366" x="356.5" y="406.2"/><polygon fill="#F1F1F1" points="705.5,411.2,705.5,425.2,717.5,425.2,717.5,417.2,711.5,411.2,705.5,411.2" style="stroke:#181818;stroke-width:0.5;"/><line style="stroke:#181818;stroke-width:0.5;" x1="711.5" x2="711.5" y1="411.2" y2="417.2"/><line style="stroke:#181818;stroke-width:0.5;" x1="717.5" x2="711.5" y1="417.2" y2="417.2"/><text fill="#000000" font-family="sans-serif" font-size="14" lengthAdjust="spacing" textLength="336" x="366.5" y="432.2059">use_cases/src/tournament_service/repository_trait.rs</text></g><!--entity use_cases/src/training_service/err.rs--><g id="elem_use_cases/src/training_service/err.rs"><rect fill="#F1F1F1" height="39.7999" rx="2.5" ry="2.5" style="stroke:#181818;stroke-width:0.5;" width="263" x="757" y="406.2"/><polygon fill="#F1F1F1" points="1003,411.2,1003,425.2,1015,425.2,1015,417.2,1009,411.2,1003,411.2" style="stroke:#181818;stroke-width:0.5;"/><line style="stroke:#181818;stroke-width:0.5;" x1="1009" x2="1009" y1="411.2" y2="417.2"/><line style="stroke:#181818;stroke-width:0.5;" x1="1015" x2="1009" y1="417.2" y2="417.2"/><text fill="#000000" font-family="sans-serif" font-size="14" lengthAdjust="spacing" textLength="233" x="767" y="432.2059">use_cases/src/training_service/err.rs</text></g><!--entity use_cases/src/training_service/mod.rs--><g id="elem_use_cases/src/training_service/mod.rs"><rect fill="#F1F1F1" height="39.7999" rx="2.5" ry="2.5" style="stroke:#181818;stroke-width:0.5;" width="273" x="1055" y="406.2"/><polygon fill="#F1F1F1" points="1311,411.2,1311,425.2,1323,425.2,1323,417.2,1317,411.2,1311,411.2" style="stroke:#181818;stroke-width:0.5;"/><line style="stroke:#181818;stroke-width:0.5;" x1="1317" x2="1317" y1="411.2" y2="417.2"/><line style="stroke:#181818;stroke-width:0.5;" x1="1323" x2="1317" y1="417.2" y2="417.2"/><text fill="#000000" font-family="sans-serif" font-size="14" lengthAdjust="spacing" textLength="243" x="1065" y="432.2059">use_cases/src/training_service/mod.rs</text></g><!--entity use_cases/src/training_service/repository_trait.rs--><g id="elem_use_cases/src/training_service/repository_trait.rs"><rect fill="#F1F1F1" height="39.7999" rx="2.5" ry="2.5" style="stroke:#181818;stroke-width:0.5;" width="340" x="1363.5" y="406.2"/><polygon fill="#F1F1F1" points="1686.5,411.2,1686.5,425.2,1698.5,425.2,1698.5,417.2,1692.5,411.2,1686.5,411.2" style="stroke:#181818;stroke-width:0.5;"/><line style="stroke:#181818;stroke-width:0.5;" x1="1692.5" x2="1692.5" y1="411.2" y2="417.2"/><line style="stroke:#181818;stroke-width:0.5;" x1="1698.5" x2="1692.5" y1="417.2" y2="417.2"/><text fill="#000000" font-family="sans-serif" font-size="14" lengthAdjust="spacing" textLength="310" x="1373.5" y="432.2059">use_cases/src/training_service/repository_trait.rs</text></g><!--entity use_cases/src/tuition_service/err.rs--><g id="elem_use_cases/src/tuition_service/err.rs"><rect fill="#F1F1F1" height="39.7999" rx="2.5" ry="2.5" style="stroke:#181818;stroke-width:0.5;" width="254" x="1738.5" y="406.2"/><polygon fill="#F1F1F1" points="1975.5,411.2,1975.5,425.2,1987.5,425.2,1987.5,417.2,1981.5,411.2,1975.5,411.2" style="stroke:#181818;stroke-width:0.5;"/><line style="stroke:#181818;stroke-width:0.5;" x1="1981.5" x2="1981.5" y1="411.2" y2="417.2"/><line style="stroke:#181818;stroke-width:0.5;" x1="1987.5" x2="1981.5" y1="417.2" y2="417.2"/><text fill="#000000" font-family="sans-serif" font-size="14" lengthAdjust="spacing" textLength="224" x="1748.5" y="432.2059">use_cases/src/tuition_service/err.rs</text></g><!--entity use_cases/src/tuition_service/mod.rs--><g id="elem_use_cases/src/tuition_service/mod.rs"><rect fill="#F1F1F1" height="39.7999" rx="2.5" ry="2.5" style="stroke:#181818;stroke-width:0.5;" width="264" x="2027.5" y="406.2"/><polygon fill="#F1F1F1" points="2274.5,411.2,2274.5,425.2,2286.5,425.2,2286.5,417.2,2280.5,411.2,2274.5,411.2" style="stroke:#181818;stroke-width:0.5;"/><line style="stroke:#181818;stroke-width:0.5;" x1="2280.5" x2="2280.5" y1="411.2" y2="417.2"/><line style="stroke:#181818;stroke-width:0.5;" x1="2286.5" x2="2280.5" y1="417.2" y2="417.2"/><text fill="#000000" font-family="sans-serif" font-size="14" lengthAdjust="spacing" textLength="234" x="2037.5" y="432.2059">use_cases/src/tuition_service/mod.rs</text></g><!--entity use_cases/src/tuition_service/repository_trait.rs--><g id="elem_use_cases/src/tuition_service/repository_trait.rs"><rect fill="#F1F1F1" height="39.7999" rx="2.5" ry="2.5" style="stroke:#181818;stroke-width:0.5;" width="331" x="7" y="506"/><polygon fill="#F1F1F1" points="321,511,321,525,333,525,333,517,327,511,321,511" style="stroke:#181818;stroke-width:0.5;"/><line style="stroke:#181818;stroke-width:0.5;" x1="327" x2="327" y1="511" y2="517"/><line style="stroke:#181818;stroke-width:0.5;" x1="333" x2="327" y1="517" y2="517"/><text fill="#000000" font-family="sans-serif" font-size="14" lengthAdjust="spacing" textLength="301" x="17" y="532.0059">use_cases/src/tuition_service/repository_trait.rs</text></g><!--entity use_cases/src/tuition_service/tests.rs--><g id="elem_use_cases/src/tuition_service/tests.rs"><rect fill="#F1F1F1" height="39.7999" rx="2.5" ry="2.5" style="stroke:#181818;stroke-width:0.5;" width="266" x="372.5" y="506"/><polygon fill="#F1F1F1" points="621.5,511,621.5,525,633.5,525,633.5,517,627.5,511,621.5,511" style="stroke:#181818;stroke-width:0.5;"/><line style="stroke:#181818;stroke-width:0.5;" x1="627.5" x2="627.5" y1="511" y2="517"/><line style="stroke:#181818;stroke-width:0.5;" x1="633.5" x2="627.5" y1="517" y2="517"/><text fill="#000000" font-family="sans-serif" font-size="14" lengthAdjust="spacing" textLength="236" x="382.5" y="532.0059">use_cases/src/tuition_service/tests.rs</text></g><!--entity use_cases/src/user_service/err.rs--><g id="elem_use_cases/src/user_service/err.rs"><rect fill="#F1F1F1" height="39.7999" rx="2.5" ry="2.5" style="stroke:#181818;stroke-width:0.5;" width="244" x="673.5" y="506"/><polygon fill="#F1F1F1" points="900.5,511,900.5,525,912.5,525,912.5,517,906.5,511,900.5,511" style="stroke:#181818;stroke-width:0.5;"/><line style="stroke:#181818;stroke-width:0.5;" x1="906.5" x2="906.5" y1="511" y2="517"/><line style="stroke:#181818;stroke-width:0.5;" x1="912.5" x2="906.5" y1="517" y2="517"/><text fill="#000000" font-family="sans-serif" font-size="14" lengthAdjust="spacing" textLength="214" x="683.5" y="532.0059">use_cases/src/user_service/err.rs</text></g><!--entity use_cases/src/user_service/hasher_trait.rs--><g id="elem_use_cases/src/user_service/hasher_trait.rs"><rect fill="#F1F1F1" height="39.7999" rx="2.5" ry="2.5" style="stroke:#181818;stroke-width:0.5;" width="302" x="952.5" y="506"/><polygon fill="#F1F1F1" points="1237.5,511,1237.5,525,1249.5,525,1249.5,517,1243.5,511,1237.5,511" style="stroke:#181818;stroke-width:0.5;"/><line style="stroke:#181818;stroke-width:0.5;" x1="1243.5" x2="1243.5" y1="511" y2="517"/><line style="stroke:#181818;stroke-width:0.5;" x1="1249.5" x2="1243.5" y1="517" y2="517"/><text fill="#000000" font-family="sans-serif" font-size="14" lengthAdjust="spacing" textLength="272" x="962.5" y="532.0059">use_cases/src/user_service/hasher_trait.rs</text></g><!--entity use_cases/src/user_service/mod.rs--><g id="elem_use_cases/src/user_service/mod.rs"><rect fill="#F1F1F1" height="39.7999" rx="2.5" ry="2.5" style="stroke:#181818;stroke-width:0.5;" width="254" x="1289.5" y="506"/><polygon fill="#F1F1F1" points="1526.5,511,1526.5,525,1538.5,525,1538.5,517,1532.5,511,1526.5,511" style="stroke:#181818;stroke-width:0.5;"/><line style="stroke:#181818;stroke-width:0.5;" x1="1532.5" x2="1532.5" y1="511" y2="517"/><line style="stroke:#181818;stroke-width:0.5;" x1="1538.5" x2="1532.5" y1="517" y2="517"/><text fill="#000000" font-family="sans-serif" font-size="14" lengthAdjust="spacing" textLength="224" x="1299.5" y="532.0059">use_cases/src/user_service/mod.rs</text></g><!--entity use_cases/src/user_service/repository_trait.rs--><g id="elem_use_cases/src/user_service/repository_trait.rs"><rect fill="#F1F1F1" height="39.7999" rx="2.5" ry="2.5" style="stroke:#181818;stroke-width:0.5;" width="321" x="1578" y="506"/><polygon fill="#F1F1F1" points="1882,511,1882,525,1894,525,1894,517,1888,511,1882,511" style="stroke:#181818;stroke-width:0.5;"/><line style="stroke:#181818;stroke-width:0.5;" x1="1888" x2="1888" y1="511" y2="517"/><line style="stroke:#181818;stroke-width:0.5;" x1="1894" x2="1888" y1="517" y2="517"/><text fill="#000000" font-family="sans-serif" font-size="14" lengthAdjust="spacing" textLength="291" x="1588" y="532.0059">use_cases/src/user_service/repository_trait.rs</text></g><!--entity use_cases/src/user_service/unique_identifier.rs--><g id="elem_use_cases/src/user_service/unique_identifier.rs"><rect fill="#F1F1F1" height="39.7999" rx="2.5" ry="2.5" style="stroke:#181818;stroke-width:0.5;" width="331" x="1934" y="506"/><polygon fill="#F1F1F1" points="2248,511,2248,525,2260,525,2260,517,2254,511,2248,511" style="stroke:#181818;stroke-width:0.5;"/><line style="stroke:#181818;stroke-width:0.5;" x1="2254" x2="2254" y1="511" y2="517"/><line style="stroke:#181818;stroke-width:0.5;" x1="2260" x2="2254" y1="517" y2="517"/><text fill="#000000" font-family="sans-serif" font-size="14" lengthAdjust="spacing" textLength="301" x="1944" y="532.0059">use_cases/src/user_service/unique_identifier.rs</text></g><!--entity .env--><g id="elem_.env"><rect fill="#F1F1F1" height="39.7999" rx="2.5" ry="2.5" style="stroke:#181818;stroke-width:0.5;" width="57" x="144" y="605.8"/><polygon fill="#F1F1F1" points="184,610.8,184,624.8,196,624.8,196,616.8,190,610.8,184,610.8" style="stroke:#181818;stroke-width:0.5;"/><line style="stroke:#181818;stroke-width:0.5;" x1="190" x2="190" y1="610.8" y2="616.8"/><line style="stroke:#181818;stroke-width:0.5;" x1="196" x2="190" y1="616.8" y2="616.8"/><text fill="#000000" font-family="sans-serif" font-size="14" lengthAdjust="spacing" textLength="27" x="154" y="631.8059">.env</text></g><!--SRC=[fPLXRiCW38N_xnHJ3j0S2H5m6qiBC6CgzVQ3DDa6pO1e_wBuU-7vnHQI6AzIyVimANeu5hFqCz3eIOqVE5t83s_ocm73o0X-BIl9SBFqg34wCi83QMXHZ4i7sR14y1d0SmrX6yZ89RwhKYJHeBbLcH2VhQaX8JPKr6Tc9wJ3jIu3pxNw7h40evr5mxv60rKFMs9BjVeMNjzPFp5sybkWdVGpsZuuXVmdoO6y5NhAuoHmTboiBk3u9Q6aB-OxJUKT5Hpasn2SFY7vyiZfLGgCg-hNNSZh-__ijL_oBVSbVyhyh_dfzNSWQLaya9npkKzjjyTIq7HO2ixvs_Qasrx1DzqL_B_CSHmMNrMiczpRImO_RwqEKvcgrNu6d-ezKmQ3SLC4wdGtNF7bIhY0kGzV]--></g></svg>