<?xml version="1.0" encoding="us-ascii" standalone="no"?><svg xmlns="http://www.w3.org/2000/svg" xmlns:xlink="http://www.w3.org/1999/xlink" contentStyleType="text/css" height="1217px" preserveAspectRatio="none" style="width:1628px;height:1217px;background:#FFFFFF;" version="1.1" viewBox="0 0 1628 1217" width="1628px" zoomAndPan="magnify"><defs/><g><text fill="#000000" font-family="sans-serif" font-size="14" font-weight="bold" lengthAdjust="spacing" textLength="506" x="562" y="28.0059">UC_VerInscribirseEntrenamientosUsuario (Inscribirse): Sequence Diagram</text><rect fill="#FFFFFF" height="974.6002" style="stroke:#181818;stroke-width:1.0;" width="10" x="270.5" y="151.1999"/><rect fill="#FFFFFF" height="59.2" style="stroke:#181818;stroke-width:1.0;" width="10" x="493.5" y="312.1999"/><rect fill="#FFFFFF" height="559.2001" style="stroke:#181818;stroke-width:1.0;" width="10" x="696.5" y="484.8"/><rect fill="#FFFFFF" height="29.6" style="stroke:#181818;stroke-width:1.0;" width="10" x="872.5" y="401"/><rect fill="#FFFFFF" height="29.6" style="stroke:#181818;stroke-width:1.0;" width="10" x="872.5" y="544"/><rect fill="#FFFFFF" height="529.6001" style="stroke:#181818;stroke-width:1.0;" width="10" x="1065.5" y="514.4"/><rect fill="#FFFFFF" height="440.8001" style="stroke:#181818;stroke-width:1.0;" width="10" x="1308.5" y="603.2001"/><rect fill="#FFFFFF" height="30" style="stroke:#181818;stroke-width:1.0;" width="10" x="1436.5" y="835.4002"/><rect fill="#FFFFFF" height="30" style="stroke:#181818;stroke-width:1.0;" width="10" x="1550.5" y="746.2001"/><rect fill="#FFFFFF" height="30" style="stroke:#181818;stroke-width:1.0;" width="10" x="1550.5" y="999.0001"/><rect fill="#FFFFFF" height="30" style="stroke:#181818;stroke-width:1.0;" width="10" x="1550.5" y="1080.8"/><rect fill="none" height="673.2001" style="stroke:#000000;stroke-width:1.5;" width="1481" x="140" y="445.6"/><rect fill="none" height="418.8001" style="stroke:#000000;stroke-width:1.5;" width="1461" x="150" y="618.2001"/><line style="stroke:#181818;stroke-width:0.5;stroke-dasharray:5.0,5.0;" x1="32" x2="32" y1="119.5999" y2="1135.8"/><line style="stroke:#181818;stroke-width:0.5;stroke-dasharray:5.0,5.0;" x1="275" x2="275" y1="119.5999" y2="1135.8"/><line style="stroke:#181818;stroke-width:0.5;stroke-dasharray:5.0,5.0;" x1="498.5" x2="498.5" y1="119.5999" y2="1135.8"/><line style="stroke:#181818;stroke-width:0.5;stroke-dasharray:5.0,5.0;" x1="701.5" x2="701.5" y1="119.5999" y2="1135.8"/><line style="stroke:#181818;stroke-width:0.5;stroke-dasharray:5.0,5.0;" x1="877.5" x2="877.5" y1="119.5999" y2="1135.8"/><line style="stroke:#181818;stroke-width:0.5;stroke-dasharray:5.0,5.0;" x1="1070" x2="1070" y1="119.5999" y2="1135.8"/><line style="stroke:#181818;stroke-width:0.5;stroke-dasharray:5.0,5.0;" x1="1313" x2="1313" y1="119.5999" y2="1135.8"/><line style="stroke:#181818;stroke-width:0.5;stroke-dasharray:5.0,5.0;" x1="1441" x2="1441" y1="119.5999" y2="1135.8"/><line style="stroke:#181818;stroke-width:0.5;stroke-dasharray:5.0,5.0;" x1="1555" x2="1555" y1="119.5999" y2="1135.8"/><text fill="#000000" font-family="sans-serif" font-size="14" lengthAdjust="spacing" textLength="49" x="5" y="115.8059">Usuario</text><ellipse cx="32.5" cy="51.2999" fill="#E2E2F0" rx="8" ry="8" style="stroke:#181818;stroke-width:0.5;"/><path d="M32.5,59.2999 L32.5,86.2999 M19.5,67.2999 L45.5,67.2999 M32.5,86.2999 L19.5,101.2999 M32.5,86.2999 L45.5,101.2999 " fill="none" style="stroke:#181818;stroke-width:0.5;"/><text fill="#000000" font-family="sans-serif" font-size="14" lengthAdjust="spacing" textLength="49" x="5" y="1147.806">Usuario</text><ellipse cx="32.5" cy="1160.1" fill="#E2E2F0" rx="8" ry="8" style="stroke:#181818;stroke-width:0.5;"/><path d="M32.5,1168.1 L32.5,1195.1 M19.5,1176.1 L45.5,1176.1 M32.5,1195.1 L19.5,1210.1 M32.5,1195.1 L45.5,1210.1 " fill="none" style="stroke:#181818;stroke-width:0.5;"/><rect fill="#E2E2F0" height="36" rx="2.5" ry="2.5" style="stroke:#181818;stroke-width:0.5;" width="231" x="160" y="82.5999"/><ellipse cx="178" cy="100.5999" fill="#DA70D6" rx="11" ry="11" style="stroke:#181818;stroke-width:1.0;"/><path d="M175.8594,101.9905 L177.4375,101.9905 C178.1094,102.2405 179.5938,103.9124 180.4688,105.4905 L180.5313,105.5999 L181.9063,105.5999 C182.2344,105.5999 182.5156,105.553 182.6563,105.4749 C182.9219,105.3186 183.0938,105.0217 183.0938,104.7092 C183.0938,104.4436 182.9375,104.1624 182.7188,104.0061 C182.5313,103.8655 182.3594,103.8342 181.9063,103.8342 L181.7188,103.8342 C181.0625,102.8499 180.3906,102.053 179.6563,101.4124 C180.8594,100.7874 181.4375,99.9905 181.4375,98.9592 C181.4375,97.2249 179.8906,96.0061 177.6406,96.0061 L173.8438,96.0061 C173.3906,96.0061 173.2656,96.0217 173.0938,96.1311 C172.8281,96.303 172.6563,96.5842 172.6563,96.8811 C172.6563,97.1624 172.8125,97.4436 173.0313,97.5999 C173.2188,97.7249 173.4063,97.7561 173.8438,97.7561 L174.0313,97.7561 L174.0313,103.8342 L173.8438,103.8342 C173.4219,103.8342 173.2656,103.8655 173.0938,103.9749 C172.8281,104.1155 172.6563,104.4124 172.6563,104.7092 C172.6563,105.2874 173.0625,105.5999 173.8438,105.5999 L176.3906,105.5999 C176.75,105.5999 177,105.553 177.1406,105.4749 C177.4063,105.3186 177.5781,105.0217 177.5781,104.7092 C177.5781,104.4436 177.4531,104.178 177.2031,104.0061 C177.0156,103.8655 176.875,103.8342 176.3906,103.8342 L175.8594,103.8342 L175.8594,101.9905 Z M175.8594,100.2405 L175.8594,97.7561 L177.7031,97.7561 C178.7344,97.7561 179.5,98.2405 179.5,98.8967 C179.5,99.678 178.4844,100.2405 177.0938,100.2405 L175.8594,100.2405 Z " fill="#000000"/><text fill="#000000" font-family="sans-serif" font-size="14" lengthAdjust="spacing" textLength="189" x="195" y="102.6058">UserTrainingPageComponent</text><rect fill="#E2E2F0" height="36" rx="2.5" ry="2.5" style="stroke:#181818;stroke-width:0.5;" width="231" x="160" y="1134.8"/><ellipse cx="178" cy="1152.8" fill="#DA70D6" rx="11" ry="11" style="stroke:#181818;stroke-width:1.0;"/><path d="M175.8594,1154.1907 L177.4375,1154.1907 C178.1094,1154.4407 179.5938,1156.1125 180.4688,1157.6907 L180.5313,1157.8 L181.9063,1157.8 C182.2344,1157.8 182.5156,1157.7532 182.6563,1157.675 C182.9219,1157.5188 183.0938,1157.2219 183.0938,1156.9094 C183.0938,1156.6438 182.9375,1156.3625 182.7188,1156.2063 C182.5313,1156.0657 182.3594,1156.0344 181.9063,1156.0344 L181.7188,1156.0344 C181.0625,1155.05 180.3906,1154.2532 179.6563,1153.6125 C180.8594,1152.9875 181.4375,1152.1907 181.4375,1151.1594 C181.4375,1149.425 179.8906,1148.2063 177.6406,1148.2063 L173.8438,1148.2063 C173.3906,1148.2063 173.2656,1148.2219 173.0938,1148.3313 C172.8281,1148.5032 172.6563,1148.7844 172.6563,1149.0813 C172.6563,1149.3625 172.8125,1149.6438 173.0313,1149.8 C173.2188,1149.925 173.4063,1149.9563 173.8438,1149.9563 L174.0313,1149.9563 L174.0313,1156.0344 L173.8438,1156.0344 C173.4219,1156.0344 173.2656,1156.0657 173.0938,1156.175 C172.8281,1156.3157 172.6563,1156.6125 172.6563,1156.9094 C172.6563,1157.4875 173.0625,1157.8 173.8438,1157.8 L176.3906,1157.8 C176.75,1157.8 177,1157.7532 177.1406,1157.675 C177.4063,1157.5188 177.5781,1157.2219 177.5781,1156.9094 C177.5781,1156.6438 177.4531,1156.3782 177.2031,1156.2063 C177.0156,1156.0657 176.875,1156.0344 176.3906,1156.0344 L175.8594,1156.0344 L175.8594,1154.1907 Z M175.8594,1152.4407 L175.8594,1149.9563 L177.7031,1149.9563 C178.7344,1149.9563 179.5,1150.4407 179.5,1151.0969 C179.5,1151.8782 178.4844,1152.4407 177.0938,1152.4407 L175.8594,1152.4407 Z " fill="#000000"/><text fill="#000000" font-family="sans-serif" font-size="14" lengthAdjust="spacing" textLength="189" x="195" y="1154.806">UserTrainingPageComponent</text><rect fill="#E2E2F0" height="36" rx="2.5" ry="2.5" style="stroke:#181818;stroke-width:0.5;" width="182" x="407.5" y="82.5999"/><ellipse cx="425.5" cy="100.5999" fill="#D3D3D3" rx="11" ry="11" style="stroke:#181818;stroke-width:1.0;"/><path d="M420.5,101.7561 C420.5,104.2561 422.6406,106.0686 425.5625,106.0686 C426.7969,106.0686 427.9688,105.7717 428.7188,105.2561 C429.3281,104.8342 429.6563,104.4124 429.6563,104.0061 C429.6563,103.5374 429.2344,103.1311 428.7344,103.1311 C428.5,103.1311 428.2813,103.2092 428.0781,103.4124 C427.6406,103.8499 427.6406,103.8499 427.4688,103.9436 C427.0156,104.178 426.375,104.3186 425.6094,104.3186 C423.6094,104.3186 422.3281,103.303 422.3281,101.7249 L422.3281,100.678 C422.3281,98.9749 423.5469,97.7717 425.25,97.7717 C425.8281,97.7717 426.4063,97.9124 426.875,98.1624 C427.3438,98.428 427.5156,98.6155 427.5781,98.9749 C427.7031,99.6467 427.9531,99.8967 428.4844,99.8967 C428.7656,99.8967 429.0469,99.7561 429.2344,99.5374 C429.3594,99.3655 429.4063,99.1936 429.4063,98.7561 L429.4063,97.3967 C429.4063,96.9749 429.3906,96.8342 429.2656,96.6624 C429.0938,96.4124 428.8125,96.2561 428.4844,96.2561 C428.1719,96.2561 427.9688,96.3655 427.75,96.6311 C426.5781,96.1311 426.1406,96.0217 425.1875,96.0217 C422.5156,96.0217 420.5,98.0374 420.5,100.6624 L420.5,101.7561 Z " fill="#000000"/><text fill="#000000" font-family="sans-serif" font-size="14" lengthAdjust="spacing" textLength="140" x="442.5" y="102.6058">AvailableTrainingCard</text><rect fill="#E2E2F0" height="36" rx="2.5" ry="2.5" style="stroke:#181818;stroke-width:0.5;" width="182" x="407.5" y="1134.8"/><ellipse cx="425.5" cy="1152.8" fill="#D3D3D3" rx="11" ry="11" style="stroke:#181818;stroke-width:1.0;"/><path d="M420.5,1153.9563 C420.5,1156.4563 422.6406,1158.2688 425.5625,1158.2688 C426.7969,1158.2688 427.9688,1157.9719 428.7188,1157.4563 C429.3281,1157.0344 429.6563,1156.6125 429.6563,1156.2063 C429.6563,1155.7375 429.2344,1155.3313 428.7344,1155.3313 C428.5,1155.3313 428.2813,1155.4094 428.0781,1155.6125 C427.6406,1156.05 427.6406,1156.05 427.4688,1156.1438 C427.0156,1156.3782 426.375,1156.5188 425.6094,1156.5188 C423.6094,1156.5188 422.3281,1155.5032 422.3281,1153.925 L422.3281,1152.8782 C422.3281,1151.175 423.5469,1149.9719 425.25,1149.9719 C425.8281,1149.9719 426.4063,1150.1125 426.875,1150.3625 C427.3438,1150.6282 427.5156,1150.8157 427.5781,1151.175 C427.7031,1151.8469 427.9531,1152.0969 428.4844,1152.0969 C428.7656,1152.0969 429.0469,1151.9563 429.2344,1151.7375 C429.3594,1151.5657 429.4063,1151.3938 429.4063,1150.9563 L429.4063,1149.5969 C429.4063,1149.175 429.3906,1149.0344 429.2656,1148.8625 C429.0938,1148.6125 428.8125,1148.4563 428.4844,1148.4563 C428.1719,1148.4563 427.9688,1148.5657 427.75,1148.8313 C426.5781,1148.3313 426.1406,1148.2219 425.1875,1148.2219 C422.5156,1148.2219 420.5,1150.2375 420.5,1152.8625 L420.5,1153.9563 Z " fill="#000000"/><text fill="#000000" font-family="sans-serif" font-size="14" lengthAdjust="spacing" textLength="140" x="442.5" y="1154.806">AvailableTrainingCard</text><rect fill="#E2E2F0" height="47.5999" rx="2.5" ry="2.5" style="stroke:#181818;stroke-width:0.5;" width="204" x="599.5" y="71"/><ellipse cx="617.5" cy="89" fill="#FFFF00" rx="11" ry="11" style="stroke:#181818;stroke-width:1.0;"/><path d="M616.3594,90.0625 L617.6719,90.0625 L617.6719,90.1094 C617.6719,90.5 617.7031,90.6875 617.7969,90.8438 C617.9688,91.0938 618.2656,91.2656 618.5781,91.2656 C618.8594,91.2656 619.1406,91.125 619.3281,90.9063 C619.4531,90.7188 619.5,90.5625 619.5,90.1094 L619.5,88.2813 C619.5,87.8594 619.4844,87.7344 619.3594,87.5625 C619.2031,87.2969 618.9063,87.125 618.5781,87.125 C618.2813,87.125 618.0156,87.2656 617.8438,87.4844 C617.7031,87.6719 617.6719,87.8438 617.6719,88.2813 L617.6719,88.3281 L616.3594,88.3281 L616.3594,86.1563 L620.5781,86.1563 L620.5781,86.9219 C620.5781,87.3125 620.6094,87.4844 620.7188,87.6406 C620.8906,87.9063 621.1719,88.0625 621.5,88.0625 C621.7813,88.0625 622.0625,87.9375 622.25,87.7031 C622.3906,87.5156 622.4219,87.375 622.4219,86.9219 L622.4219,84.4063 L614.3438,84.4063 C613.9063,84.4063 613.7656,84.4219 613.5938,84.5313 C613.3281,84.7031 613.1563,84.9844 613.1563,85.2813 C613.1563,85.5625 613.3125,85.8438 613.5313,86 C613.7188,86.125 613.9063,86.1563 614.3438,86.1563 L614.5313,86.1563 L614.5313,92.25 L614.3438,92.25 C613.9219,92.25 613.7656,92.2813 613.5938,92.375 C613.3281,92.5313 613.1563,92.8281 613.1563,93.1094 C613.1563,93.6875 613.5625,94 614.3438,94 L618,94 C618.7813,94 619.1875,93.7188 619.1875,93.1094 C619.1875,92.8438 619.0469,92.5938 618.8125,92.4219 C618.625,92.2813 618.4531,92.25 618,92.25 L616.3594,92.25 L616.3594,90.0625 Z " fill="#000000"/><text fill="#000000" font-family="sans-serif" font-size="14" lengthAdjust="spacing" textLength="124" x="653.5" y="91.0059">training_backend.ts</text><text fill="#000000" font-family="sans-serif" font-size="14" lengthAdjust="spacing" textLength="162" x="634.5" y="107.8059">registerUserForTraining()</text><rect fill="#E2E2F0" height="47.5999" rx="2.5" ry="2.5" style="stroke:#181818;stroke-width:0.5;" width="204" x="599.5" y="1134.8"/><ellipse cx="617.5" cy="1152.8" fill="#FFFF00" rx="11" ry="11" style="stroke:#181818;stroke-width:1.0;"/><path d="M616.3594,1153.8625 L617.6719,1153.8625 L617.6719,1153.9094 C617.6719,1154.3 617.7031,1154.4875 617.7969,1154.6438 C617.9688,1154.8938 618.2656,1155.0657 618.5781,1155.0657 C618.8594,1155.0657 619.1406,1154.925 619.3281,1154.7063 C619.4531,1154.5188 619.5,1154.3625 619.5,1153.9094 L619.5,1152.0813 C619.5,1151.6594 619.4844,1151.5344 619.3594,1151.3625 C619.2031,1151.0969 618.9063,1150.925 618.5781,1150.925 C618.2813,1150.925 618.0156,1151.0657 617.8438,1151.2844 C617.7031,1151.4719 617.6719,1151.6438 617.6719,1152.0813 L617.6719,1152.1282 L616.3594,1152.1282 L616.3594,1149.9563 L620.5781,1149.9563 L620.5781,1150.7219 C620.5781,1151.1125 620.6094,1151.2844 620.7188,1151.4407 C620.8906,1151.7063 621.1719,1151.8625 621.5,1151.8625 C621.7813,1151.8625 622.0625,1151.7375 622.25,1151.5032 C622.3906,1151.3157 622.4219,1151.175 622.4219,1150.7219 L622.4219,1148.2063 L614.3438,1148.2063 C613.9063,1148.2063 613.7656,1148.2219 613.5938,1148.3313 C613.3281,1148.5032 613.1563,1148.7844 613.1563,1149.0813 C613.1563,1149.3625 613.3125,1149.6438 613.5313,1149.8 C613.7188,1149.925 613.9063,1149.9563 614.3438,1149.9563 L614.5313,1149.9563 L614.5313,1156.05 L614.3438,1156.05 C613.9219,1156.05 613.7656,1156.0813 613.5938,1156.175 C613.3281,1156.3313 613.1563,1156.6282 613.1563,1156.9094 C613.1563,1157.4875 613.5625,1157.8 614.3438,1157.8 L618,1157.8 C618.7813,1157.8 619.1875,1157.5188 619.1875,1156.9094 C619.1875,1156.6438 619.0469,1156.3938 618.8125,1156.2219 C618.625,1156.0813 618.4531,1156.05 618,1156.05 L616.3594,1156.05 L616.3594,1153.8625 Z " fill="#000000"/><text fill="#000000" font-family="sans-serif" font-size="14" lengthAdjust="spacing" textLength="124" x="653.5" y="1154.806">training_backend.ts</text><text fill="#000000" font-family="sans-serif" font-size="14" lengthAdjust="spacing" textLength="162" x="634.5" y="1171.6059">registerUserForTraining()</text><rect fill="#E2E2F0" height="36" rx="2.5" ry="2.5" style="stroke:#181818;stroke-width:0.5;" width="128" x="813.5" y="82.5999"/><ellipse cx="831.5" cy="100.5999" fill="#ADD8E6" rx="11" ry="11" style="stroke:#181818;stroke-width:1.0;"/><path d="M835.3594,96.9124 C835.3594,96.4749 835.3438,96.3499 835.2344,96.178 C835.0781,95.928 834.7813,95.7717 834.4531,95.7717 C834.1094,95.7717 833.9219,95.9124 833.7656,96.2874 C833.2031,95.9592 832.4375,95.7717 831.5625,95.7717 C829.4219,95.7717 827.8281,97.0374 827.8281,98.6936 C827.8281,99.6467 828.375,100.5374 829.25,101.0061 C829.8125,101.3186 830.3438,101.4749 831.4844,101.6624 C832.6094,101.8655 832.875,101.928 833.25,102.0999 C833.5938,102.2717 833.8125,102.5686 833.8125,102.8811 C833.8125,103.5374 832.8594,104.053 831.6406,104.053 C830.5469,104.053 829.4844,103.5999 829.3281,103.053 C829.1875,102.6155 829.1875,102.6155 829.0625,102.4749 C828.8906,102.3186 828.6563,102.2405 828.4063,102.2405 C828.1094,102.2405 827.8438,102.3655 827.6563,102.5842 C827.5313,102.7561 827.4844,102.9436 827.4844,103.3655 L827.4844,104.4436 C827.4844,105.2092 827.7969,105.5842 828.4063,105.5842 C828.6875,105.5842 828.8438,105.4905 829.125,105.2092 C829.9844,105.6311 830.8281,105.8186 831.75,105.8186 C834.1094,105.8186 835.7188,104.6467 835.7188,102.9124 C835.7188,102.053 835.375,101.3655 834.6875,100.8342 C834.1563,100.428 833.4844,100.1936 831.9844,99.9436 C830.7031,99.6936 830.6406,99.678 830.3125,99.5061 C829.9688,99.3655 829.7344,99.0061 829.7344,98.678 C829.7344,98.0374 830.5469,97.5217 831.5781,97.5217 C832.625,97.5217 833.3906,97.9436 833.5313,98.5686 C833.6563,99.0999 833.6563,99.0999 833.7969,99.2405 C833.9531,99.3967 834.2031,99.4905 834.4531,99.4905 C834.75,99.4905 835,99.3655 835.1875,99.1467 C835.3281,98.9592 835.3594,98.8186 835.3594,98.3655 L835.3594,96.9124 Z " fill="#000000"/><text fill="#000000" font-family="sans-serif" font-size="14" lengthAdjust="spacing" textLength="86" x="848.5" y="102.6058">AuthManager</text><rect fill="#E2E2F0" height="36" rx="2.5" ry="2.5" style="stroke:#181818;stroke-width:0.5;" width="128" x="813.5" y="1134.8"/><ellipse cx="831.5" cy="1152.8" fill="#ADD8E6" rx="11" ry="11" style="stroke:#181818;stroke-width:1.0;"/><path d="M835.3594,1149.1125 C835.3594,1148.675 835.3438,1148.55 835.2344,1148.3782 C835.0781,1148.1282 834.7813,1147.9719 834.4531,1147.9719 C834.1094,1147.9719 833.9219,1148.1125 833.7656,1148.4875 C833.2031,1148.1594 832.4375,1147.9719 831.5625,1147.9719 C829.4219,1147.9719 827.8281,1149.2375 827.8281,1150.8938 C827.8281,1151.8469 828.375,1152.7375 829.25,1153.2063 C829.8125,1153.5188 830.3438,1153.675 831.4844,1153.8625 C832.6094,1154.0657 832.875,1154.1282 833.25,1154.3 C833.5938,1154.4719 833.8125,1154.7688 833.8125,1155.0813 C833.8125,1155.7375 832.8594,1156.2532 831.6406,1156.2532 C830.5469,1156.2532 829.4844,1155.8 829.3281,1155.2532 C829.1875,1154.8157 829.1875,1154.8157 829.0625,1154.675 C828.8906,1154.5188 828.6563,1154.4407 828.4063,1154.4407 C828.1094,1154.4407 827.8438,1154.5657 827.6563,1154.7844 C827.5313,1154.9563 827.4844,1155.1438 827.4844,1155.5657 L827.4844,1156.6438 C827.4844,1157.4094 827.7969,1157.7844 828.4063,1157.7844 C828.6875,1157.7844 828.8438,1157.6907 829.125,1157.4094 C829.9844,1157.8313 830.8281,1158.0188 831.75,1158.0188 C834.1094,1158.0188 835.7188,1156.8469 835.7188,1155.1125 C835.7188,1154.2532 835.375,1153.5657 834.6875,1153.0344 C834.1563,1152.6282 833.4844,1152.3938 831.9844,1152.1438 C830.7031,1151.8938 830.6406,1151.8782 830.3125,1151.7063 C829.9688,1151.5657 829.7344,1151.2063 829.7344,1150.8782 C829.7344,1150.2375 830.5469,1149.7219 831.5781,1149.7219 C832.625,1149.7219 833.3906,1150.1438 833.5313,1150.7688 C833.6563,1151.3 833.6563,1151.3 833.7969,1151.4407 C833.9531,1151.5969 834.2031,1151.6907 834.4531,1151.6907 C834.75,1151.6907 835,1151.5657 835.1875,1151.3469 C835.3281,1151.1594 835.3594,1151.0188 835.3594,1150.5657 L835.3594,1149.1125 Z " fill="#000000"/><text fill="#000000" font-family="sans-serif" font-size="14" lengthAdjust="spacing" textLength="86" x="848.5" y="1154.806">AuthManager</text><rect fill="#E2E2F0" height="47.5999" rx="2.5" ry="2.5" style="stroke:#181818;stroke-width:0.5;" width="113" x="1014" y="71"/><ellipse cx="1032" cy="89" fill="#FFA500" rx="11" ry="11" style="stroke:#181818;stroke-width:1.0;"/><path d="M1030.8594,90.0625 L1032.1719,90.0625 L1032.1719,90.1094 C1032.1719,90.5 1032.2031,90.6875 1032.2969,90.8438 C1032.4688,91.0938 1032.7656,91.2656 1033.0781,91.2656 C1033.3594,91.2656 1033.6406,91.125 1033.8281,90.9063 C1033.9531,90.7188 1034,90.5625 1034,90.1094 L1034,88.2813 C1034,87.8594 1033.9844,87.7344 1033.8594,87.5625 C1033.7031,87.2969 1033.4063,87.125 1033.0781,87.125 C1032.7813,87.125 1032.5156,87.2656 1032.3438,87.4844 C1032.2031,87.6719 1032.1719,87.8438 1032.1719,88.2813 L1032.1719,88.3281 L1030.8594,88.3281 L1030.8594,86.1563 L1035.0781,86.1563 L1035.0781,86.9219 C1035.0781,87.3125 1035.1094,87.4844 1035.2188,87.6406 C1035.3906,87.9063 1035.6719,88.0625 1036,88.0625 C1036.2813,88.0625 1036.5625,87.9375 1036.75,87.7031 C1036.8906,87.5156 1036.9219,87.375 1036.9219,86.9219 L1036.9219,84.4063 L1028.8438,84.4063 C1028.4063,84.4063 1028.2656,84.4219 1028.0938,84.5313 C1027.8281,84.7031 1027.6563,84.9844 1027.6563,85.2813 C1027.6563,85.5625 1027.8125,85.8438 1028.0313,86 C1028.2188,86.125 1028.4063,86.1563 1028.8438,86.1563 L1029.0313,86.1563 L1029.0313,92.25 L1028.8438,92.25 C1028.4219,92.25 1028.2656,92.2813 1028.0938,92.375 C1027.8281,92.5313 1027.6563,92.8281 1027.6563,93.1094 C1027.6563,93.6875 1028.0625,94 1028.8438,94 L1032.5,94 C1033.2813,94 1033.6875,93.7188 1033.6875,93.1094 C1033.6875,92.8438 1033.5469,92.5938 1033.3125,92.4219 C1033.125,92.2813 1032.9531,92.25 1032.5,92.25 L1030.8594,92.25 L1030.8594,90.0625 Z " fill="#000000"/><text fill="#000000" font-family="sans-serif" font-size="14" lengthAdjust="spacing" textLength="40" x="1064.5" y="91.0059">utils.ts</text><text fill="#000000" font-family="sans-serif" font-size="14" lengthAdjust="spacing" textLength="71" x="1049" y="107.8059">fetchJson()</text><rect fill="#E2E2F0" height="47.5999" rx="2.5" ry="2.5" style="stroke:#181818;stroke-width:0.5;" width="113" x="1014" y="1134.8"/><ellipse cx="1032" cy="1152.8" fill="#FFA500" rx="11" ry="11" style="stroke:#181818;stroke-width:1.0;"/><path d="M1030.8594,1153.8625 L1032.1719,1153.8625 L1032.1719,1153.9094 C1032.1719,1154.3 1032.2031,1154.4875 1032.2969,1154.6438 C1032.4688,1154.8938 1032.7656,1155.0657 1033.0781,1155.0657 C1033.3594,1155.0657 1033.6406,1154.925 1033.8281,1154.7063 C1033.9531,1154.5188 1034,1154.3625 1034,1153.9094 L1034,1152.0813 C1034,1151.6594 1033.9844,1151.5344 1033.8594,1151.3625 C1033.7031,1151.0969 1033.4063,1150.925 1033.0781,1150.925 C1032.7813,1150.925 1032.5156,1151.0657 1032.3438,1151.2844 C1032.2031,1151.4719 1032.1719,1151.6438 1032.1719,1152.0813 L1032.1719,1152.1282 L1030.8594,1152.1282 L1030.8594,1149.9563 L1035.0781,1149.9563 L1035.0781,1150.7219 C1035.0781,1151.1125 1035.1094,1151.2844 1035.2188,1151.4407 C1035.3906,1151.7063 1035.6719,1151.8625 1036,1151.8625 C1036.2813,1151.8625 1036.5625,1151.7375 1036.75,1151.5032 C1036.8906,1151.3157 1036.9219,1151.175 1036.9219,1150.7219 L1036.9219,1148.2063 L1028.8438,1148.2063 C1028.4063,1148.2063 1028.2656,1148.2219 1028.0938,1148.3313 C1027.8281,1148.5032 1027.6563,1148.7844 1027.6563,1149.0813 C1027.6563,1149.3625 1027.8125,1149.6438 1028.0313,1149.8 C1028.2188,1149.925 1028.4063,1149.9563 1028.8438,1149.9563 L1029.0313,1149.9563 L1029.0313,1156.05 L1028.8438,1156.05 C1028.4219,1156.05 1028.2656,1156.0813 1028.0938,1156.175 C1027.8281,1156.3313 1027.6563,1156.6282 1027.6563,1156.9094 C1027.6563,1157.4875 1028.0625,1157.8 1028.8438,1157.8 L1032.5,1157.8 C1033.2813,1157.8 1033.6875,1157.5188 1033.6875,1156.9094 C1033.6875,1156.6438 1033.5469,1156.3938 1033.3125,1156.2219 C1033.125,1156.0813 1032.9531,1156.05 1032.5,1156.05 L1030.8594,1156.05 L1030.8594,1153.8625 Z " fill="#000000"/><text fill="#000000" font-family="sans-serif" font-size="14" lengthAdjust="spacing" textLength="40" x="1064.5" y="1154.806">utils.ts</text><text fill="#000000" font-family="sans-serif" font-size="14" lengthAdjust="spacing" textLength="71" x="1049" y="1171.6059">fetchJson()</text><rect fill="#E2E2F0" height="36" rx="2.5" ry="2.5" style="stroke:#181818;stroke-width:0.5;" width="119" x="1254" y="82.5999"/><ellipse cx="1272" cy="100.5999" fill="#FF6347" rx="11" ry="11" style="stroke:#181818;stroke-width:1.0;"/><path d="M1275.8594,96.9124 C1275.8594,96.4749 1275.8438,96.3499 1275.7344,96.178 C1275.5781,95.928 1275.2813,95.7717 1274.9531,95.7717 C1274.6094,95.7717 1274.4219,95.9124 1274.2656,96.2874 C1273.7031,95.9592 1272.9375,95.7717 1272.0625,95.7717 C1269.9219,95.7717 1268.3281,97.0374 1268.3281,98.6936 C1268.3281,99.6467 1268.875,100.5374 1269.75,101.0061 C1270.3125,101.3186 1270.8438,101.4749 1271.9844,101.6624 C1273.1094,101.8655 1273.375,101.928 1273.75,102.0999 C1274.0938,102.2717 1274.3125,102.5686 1274.3125,102.8811 C1274.3125,103.5374 1273.3594,104.053 1272.1406,104.053 C1271.0469,104.053 1269.9844,103.5999 1269.8281,103.053 C1269.6875,102.6155 1269.6875,102.6155 1269.5625,102.4749 C1269.3906,102.3186 1269.1563,102.2405 1268.9063,102.2405 C1268.6094,102.2405 1268.3438,102.3655 1268.1563,102.5842 C1268.0313,102.7561 1267.9844,102.9436 1267.9844,103.3655 L1267.9844,104.4436 C1267.9844,105.2092 1268.2969,105.5842 1268.9063,105.5842 C1269.1875,105.5842 1269.3438,105.4905 1269.625,105.2092 C1270.4844,105.6311 1271.3281,105.8186 1272.25,105.8186 C1274.6094,105.8186 1276.2188,104.6467 1276.2188,102.9124 C1276.2188,102.053 1275.875,101.3655 1275.1875,100.8342 C1274.6563,100.428 1273.9844,100.1936 1272.4844,99.9436 C1271.2031,99.6936 1271.1406,99.678 1270.8125,99.5061 C1270.4688,99.3655 1270.2344,99.0061 1270.2344,98.678 C1270.2344,98.0374 1271.0469,97.5217 1272.0781,97.5217 C1273.125,97.5217 1273.8906,97.9436 1274.0313,98.5686 C1274.1563,99.0999 1274.1563,99.0999 1274.2969,99.2405 C1274.4531,99.3967 1274.7031,99.4905 1274.9531,99.4905 C1275.25,99.4905 1275.5,99.3655 1275.6875,99.1467 C1275.8281,98.9592 1275.8594,98.8186 1275.8594,98.3655 L1275.8594,96.9124 Z " fill="#000000"/><text fill="#000000" font-family="sans-serif" font-size="14" lengthAdjust="spacing" textLength="77" x="1289" y="102.6058">BackendAPI</text><rect fill="#E2E2F0" height="36" rx="2.5" ry="2.5" style="stroke:#181818;stroke-width:0.5;" width="119" x="1254" y="1134.8"/><ellipse cx="1272" cy="1152.8" fill="#FF6347" rx="11" ry="11" style="stroke:#181818;stroke-width:1.0;"/><path d="M1275.8594,1149.1125 C1275.8594,1148.675 1275.8438,1148.55 1275.7344,1148.3782 C1275.5781,1148.1282 1275.2813,1147.9719 1274.9531,1147.9719 C1274.6094,1147.9719 1274.4219,1148.1125 1274.2656,1148.4875 C1273.7031,1148.1594 1272.9375,1147.9719 1272.0625,1147.9719 C1269.9219,1147.9719 1268.3281,1149.2375 1268.3281,1150.8938 C1268.3281,1151.8469 1268.875,1152.7375 1269.75,1153.2063 C1270.3125,1153.5188 1270.8438,1153.675 1271.9844,1153.8625 C1273.1094,1154.0657 1273.375,1154.1282 1273.75,1154.3 C1274.0938,1154.4719 1274.3125,1154.7688 1274.3125,1155.0813 C1274.3125,1155.7375 1273.3594,1156.2532 1272.1406,1156.2532 C1271.0469,1156.2532 1269.9844,1155.8 1269.8281,1155.2532 C1269.6875,1154.8157 1269.6875,1154.8157 1269.5625,1154.675 C1269.3906,1154.5188 1269.1563,1154.4407 1268.9063,1154.4407 C1268.6094,1154.4407 1268.3438,1154.5657 1268.1563,1154.7844 C1268.0313,1154.9563 1267.9844,1155.1438 1267.9844,1155.5657 L1267.9844,1156.6438 C1267.9844,1157.4094 1268.2969,1157.7844 1268.9063,1157.7844 C1269.1875,1157.7844 1269.3438,1157.6907 1269.625,1157.4094 C1270.4844,1157.8313 1271.3281,1158.0188 1272.25,1158.0188 C1274.6094,1158.0188 1276.2188,1156.8469 1276.2188,1155.1125 C1276.2188,1154.2532 1275.875,1153.5657 1275.1875,1153.0344 C1274.6563,1152.6282 1273.9844,1152.3938 1272.4844,1152.1438 C1271.2031,1151.8938 1271.1406,1151.8782 1270.8125,1151.7063 C1270.4688,1151.5657 1270.2344,1151.2063 1270.2344,1150.8782 C1270.2344,1150.2375 1271.0469,1149.7219 1272.0781,1149.7219 C1273.125,1149.7219 1273.8906,1150.1438 1274.0313,1150.7688 C1274.1563,1151.3 1274.1563,1151.3 1274.2969,1151.4407 C1274.4531,1151.5969 1274.7031,1151.6907 1274.9531,1151.6907 C1275.25,1151.6907 1275.5,1151.5657 1275.6875,1151.3469 C1275.8281,1151.1594 1275.8594,1151.0188 1275.8594,1150.5657 L1275.8594,1149.1125 Z " fill="#000000"/><text fill="#000000" font-family="sans-serif" font-size="14" lengthAdjust="spacing" textLength="77" x="1289" y="1154.806">BackendAPI</text><rect fill="#E2E2F0" height="36" rx="2.5" ry="2.5" style="stroke:#181818;stroke-width:0.5;" width="117" x="1383" y="82.5999"/><ellipse cx="1401" cy="100.5999" fill="#808080" rx="11" ry="11" style="stroke:#181818;stroke-width:1.0;"/><path d="M1404.8594,96.9124 C1404.8594,96.4749 1404.8438,96.3499 1404.7344,96.178 C1404.5781,95.928 1404.2813,95.7717 1403.9531,95.7717 C1403.6094,95.7717 1403.4219,95.9124 1403.2656,96.2874 C1402.7031,95.9592 1401.9375,95.7717 1401.0625,95.7717 C1398.9219,95.7717 1397.3281,97.0374 1397.3281,98.6936 C1397.3281,99.6467 1397.875,100.5374 1398.75,101.0061 C1399.3125,101.3186 1399.8438,101.4749 1400.9844,101.6624 C1402.1094,101.8655 1402.375,101.928 1402.75,102.0999 C1403.0938,102.2717 1403.3125,102.5686 1403.3125,102.8811 C1403.3125,103.5374 1402.3594,104.053 1401.1406,104.053 C1400.0469,104.053 1398.9844,103.5999 1398.8281,103.053 C1398.6875,102.6155 1398.6875,102.6155 1398.5625,102.4749 C1398.3906,102.3186 1398.1563,102.2405 1397.9063,102.2405 C1397.6094,102.2405 1397.3438,102.3655 1397.1563,102.5842 C1397.0313,102.7561 1396.9844,102.9436 1396.9844,103.3655 L1396.9844,104.4436 C1396.9844,105.2092 1397.2969,105.5842 1397.9063,105.5842 C1398.1875,105.5842 1398.3438,105.4905 1398.625,105.2092 C1399.4844,105.6311 1400.3281,105.8186 1401.25,105.8186 C1403.6094,105.8186 1405.2188,104.6467 1405.2188,102.9124 C1405.2188,102.053 1404.875,101.3655 1404.1875,100.8342 C1403.6563,100.428 1402.9844,100.1936 1401.4844,99.9436 C1400.2031,99.6936 1400.1406,99.678 1399.8125,99.5061 C1399.4688,99.3655 1399.2344,99.0061 1399.2344,98.678 C1399.2344,98.0374 1400.0469,97.5217 1401.0781,97.5217 C1402.125,97.5217 1402.8906,97.9436 1403.0313,98.5686 C1403.1563,99.0999 1403.1563,99.0999 1403.2969,99.2405 C1403.4531,99.3967 1403.7031,99.4905 1403.9531,99.4905 C1404.25,99.4905 1404.5,99.3655 1404.6875,99.1467 C1404.8281,98.9592 1404.8594,98.8186 1404.8594,98.3655 L1404.8594,96.9124 Z " fill="#000000"/><text fill="#000000" font-family="sans-serif" font-size="14" lengthAdjust="spacing" textLength="75" x="1418" y="102.6058">QueryClient</text><rect fill="#E2E2F0" height="36" rx="2.5" ry="2.5" style="stroke:#181818;stroke-width:0.5;" width="117" x="1383" y="1134.8"/><ellipse cx="1401" cy="1152.8" fill="#808080" rx="11" ry="11" style="stroke:#181818;stroke-width:1.0;"/><path d="M1404.8594,1149.1125 C1404.8594,1148.675 1404.8438,1148.55 1404.7344,1148.3782 C1404.5781,1148.1282 1404.2813,1147.9719 1403.9531,1147.9719 C1403.6094,1147.9719 1403.4219,1148.1125 1403.2656,1148.4875 C1402.7031,1148.1594 1401.9375,1147.9719 1401.0625,1147.9719 C1398.9219,1147.9719 1397.3281,1149.2375 1397.3281,1150.8938 C1397.3281,1151.8469 1397.875,1152.7375 1398.75,1153.2063 C1399.3125,1153.5188 1399.8438,1153.675 1400.9844,1153.8625 C1402.1094,1154.0657 1402.375,1154.1282 1402.75,1154.3 C1403.0938,1154.4719 1403.3125,1154.7688 1403.3125,1155.0813 C1403.3125,1155.7375 1402.3594,1156.2532 1401.1406,1156.2532 C1400.0469,1156.2532 1398.9844,1155.8 1398.8281,1155.2532 C1398.6875,1154.8157 1398.6875,1154.8157 1398.5625,1154.675 C1398.3906,1154.5188 1398.1563,1154.4407 1397.9063,1154.4407 C1397.6094,1154.4407 1397.3438,1154.5657 1397.1563,1154.7844 C1397.0313,1154.9563 1396.9844,1155.1438 1396.9844,1155.5657 L1396.9844,1156.6438 C1396.9844,1157.4094 1397.2969,1157.7844 1397.9063,1157.7844 C1398.1875,1157.7844 1398.3438,1157.6907 1398.625,1157.4094 C1399.4844,1157.8313 1400.3281,1158.0188 1401.25,1158.0188 C1403.6094,1158.0188 1405.2188,1156.8469 1405.2188,1155.1125 C1405.2188,1154.2532 1404.875,1153.5657 1404.1875,1153.0344 C1403.6563,1152.6282 1402.9844,1152.3938 1401.4844,1152.1438 C1400.2031,1151.8938 1400.1406,1151.8782 1399.8125,1151.7063 C1399.4688,1151.5657 1399.2344,1151.2063 1399.2344,1150.8782 C1399.2344,1150.2375 1400.0469,1149.7219 1401.0781,1149.7219 C1402.125,1149.7219 1402.8906,1150.1438 1403.0313,1150.7688 C1403.1563,1151.3 1403.1563,1151.3 1403.2969,1151.4407 C1403.4531,1151.5969 1403.7031,1151.6907 1403.9531,1151.6907 C1404.25,1151.6907 1404.5,1151.5657 1404.6875,1151.3469 C1404.8281,1151.1594 1404.8594,1151.0188 1404.8594,1150.5657 L1404.8594,1149.1125 Z " fill="#000000"/><text fill="#000000" font-family="sans-serif" font-size="14" lengthAdjust="spacing" textLength="75" x="1418" y="1154.806">QueryClient</text><rect fill="#E2E2F0" height="36" rx="2.5" ry="2.5" style="stroke:#181818;stroke-width:0.5;" width="91" x="1510" y="82.5999"/><ellipse cx="1528" cy="100.5999" fill="#FFC0CB" rx="11" ry="11" style="stroke:#181818;stroke-width:1.0;"/><path d="M1523,101.7561 C1523,104.2561 1525.1406,106.0686 1528.0625,106.0686 C1529.2969,106.0686 1530.4688,105.7717 1531.2188,105.2561 C1531.8281,104.8342 1532.1563,104.4124 1532.1563,104.0061 C1532.1563,103.5374 1531.7344,103.1311 1531.2344,103.1311 C1531,103.1311 1530.7813,103.2092 1530.5781,103.4124 C1530.1406,103.8499 1530.1406,103.8499 1529.9688,103.9436 C1529.5156,104.178 1528.875,104.3186 1528.1094,104.3186 C1526.1094,104.3186 1524.8281,103.303 1524.8281,101.7249 L1524.8281,100.678 C1524.8281,98.9749 1526.0469,97.7717 1527.75,97.7717 C1528.3281,97.7717 1528.9063,97.9124 1529.375,98.1624 C1529.8438,98.428 1530.0156,98.6155 1530.0781,98.9749 C1530.2031,99.6467 1530.4531,99.8967 1530.9844,99.8967 C1531.2656,99.8967 1531.5469,99.7561 1531.7344,99.5374 C1531.8594,99.3655 1531.9063,99.1936 1531.9063,98.7561 L1531.9063,97.3967 C1531.9063,96.9749 1531.8906,96.8342 1531.7656,96.6624 C1531.5938,96.4124 1531.3125,96.2561 1530.9844,96.2561 C1530.6719,96.2561 1530.4688,96.3655 1530.25,96.6311 C1529.0781,96.1311 1528.6406,96.0217 1527.6875,96.0217 C1525.0156,96.0217 1523,98.0374 1523,100.6624 L1523,101.7561 Z " fill="#000000"/><text fill="#000000" font-family="sans-serif" font-size="14" lengthAdjust="spacing" textLength="49" x="1545" y="102.6058">Toaster</text><rect fill="#E2E2F0" height="36" rx="2.5" ry="2.5" style="stroke:#181818;stroke-width:0.5;" width="91" x="1510" y="1134.8"/><ellipse cx="1528" cy="1152.8" fill="#FFC0CB" rx="11" ry="11" style="stroke:#181818;stroke-width:1.0;"/><path d="M1523,1153.9563 C1523,1156.4563 1525.1406,1158.2688 1528.0625,1158.2688 C1529.2969,1158.2688 1530.4688,1157.9719 1531.2188,1157.4563 C1531.8281,1157.0344 1532.1563,1156.6125 1532.1563,1156.2063 C1532.1563,1155.7375 1531.7344,1155.3313 1531.2344,1155.3313 C1531,1155.3313 1530.7813,1155.4094 1530.5781,1155.6125 C1530.1406,1156.05 1530.1406,1156.05 1529.9688,1156.1438 C1529.5156,1156.3782 1528.875,1156.5188 1528.1094,1156.5188 C1526.1094,1156.5188 1524.8281,1155.5032 1524.8281,1153.925 L1524.8281,1152.8782 C1524.8281,1151.175 1526.0469,1149.9719 1527.75,1149.9719 C1528.3281,1149.9719 1528.9063,1150.1125 1529.375,1150.3625 C1529.8438,1150.6282 1530.0156,1150.8157 1530.0781,1151.175 C1530.2031,1151.8469 1530.4531,1152.0969 1530.9844,1152.0969 C1531.2656,1152.0969 1531.5469,1151.9563 1531.7344,1151.7375 C1531.8594,1151.5657 1531.9063,1151.3938 1531.9063,1150.9563 L1531.9063,1149.5969 C1531.9063,1149.175 1531.8906,1149.0344 1531.7656,1148.8625 C1531.5938,1148.6125 1531.3125,1148.4563 1530.9844,1148.4563 C1530.6719,1148.4563 1530.4688,1148.5657 1530.25,1148.8313 C1529.0781,1148.3313 1528.6406,1148.2219 1527.6875,1148.2219 C1525.0156,1148.2219 1523,1150.2375 1523,1152.8625 L1523,1153.9563 Z " fill="#000000"/><text fill="#000000" font-family="sans-serif" font-size="14" lengthAdjust="spacing" textLength="49" x="1545" y="1154.806">Toaster</text><rect fill="#FFFFFF" height="974.6002" style="stroke:#181818;stroke-width:1.0;" width="10" x="270.5" y="151.1999"/><rect fill="#FFFFFF" height="59.2" style="stroke:#181818;stroke-width:1.0;" width="10" x="493.5" y="312.1999"/><rect fill="#FFFFFF" height="559.2001" style="stroke:#181818;stroke-width:1.0;" width="10" x="696.5" y="484.8"/><rect fill="#FFFFFF" height="29.6" style="stroke:#181818;stroke-width:1.0;" width="10" x="872.5" y="401"/><rect fill="#FFFFFF" height="29.6" style="stroke:#181818;stroke-width:1.0;" width="10" x="872.5" y="544"/><rect fill="#FFFFFF" height="529.6001" style="stroke:#181818;stroke-width:1.0;" width="10" x="1065.5" y="514.4"/><rect fill="#FFFFFF" height="440.8001" style="stroke:#181818;stroke-width:1.0;" width="10" x="1308.5" y="603.2001"/><rect fill="#FFFFFF" height="30" style="stroke:#181818;stroke-width:1.0;" width="10" x="1436.5" y="835.4002"/><rect fill="#FFFFFF" height="30" style="stroke:#181818;stroke-width:1.0;" width="10" x="1550.5" y="746.2001"/><rect fill="#FFFFFF" height="30" style="stroke:#181818;stroke-width:1.0;" width="10" x="1550.5" y="999.0001"/><rect fill="#FFFFFF" height="30" style="stroke:#181818;stroke-width:1.0;" width="10" x="1550.5" y="1080.8"/><polygon fill="#181818" points="258.5,147.1999,268.5,151.1999,258.5,155.1999,262.5,151.1999" style="stroke:#181818;stroke-width:1.0;"/><line style="stroke:#181818;stroke-width:1.0;" x1="32.5" x2="264.5" y1="151.1999" y2="151.1999"/><text fill="#000000" font-family="sans-serif" font-size="13" lengthAdjust="spacing" textLength="219" x="39.5" y="145.6769">Navigates to /dashboard_user/training</text><polygon fill="#181818" points="1429.5,176.7999,1439.5,180.7999,1429.5,184.7999,1433.5,180.7999" style="stroke:#181818;stroke-width:1.0;"/><line style="stroke:#181818;stroke-width:1.0;" x1="280.5" x2="1435.5" y1="180.7999" y2="180.7999"/><text fill="#000000" font-family="sans-serif" font-size="13" lengthAdjust="spacing" textLength="213" x="287.5" y="175.2769">useQuery(['eligibleTrainings', userId])</text><polygon fill="#181818" points="1429.5,206.3999,1439.5,210.3999,1429.5,214.3999,1433.5,210.3999" style="stroke:#181818;stroke-width:1.0;"/><line style="stroke:#181818;stroke-width:1.0;" x1="280.5" x2="1435.5" y1="210.3999" y2="210.3999"/><text fill="#000000" font-family="sans-serif" font-size="13" lengthAdjust="spacing" textLength="267" x="287.5" y="204.8769">useQuery(['userTrainingRegistrations', userId])</text><polygon fill="#181818" points="1429.5,235.9999,1439.5,239.9999,1429.5,243.9999,1433.5,239.9999" style="stroke:#181818;stroke-width:1.0;"/><line style="stroke:#181818;stroke-width:1.0;" x1="280.5" x2="1435.5" y1="239.9999" y2="239.9999"/><text fill="#000000" font-family="sans-serif" font-size="13" lengthAdjust="spacing" textLength="142" x="287.5" y="234.4769">useQuery(['allTrainings'])</text><line style="stroke:#181818;stroke-width:1.0;" x1="280.5" x2="322.5" y1="269.5999" y2="269.5999"/><line style="stroke:#181818;stroke-width:1.0;" x1="322.5" x2="322.5" y1="269.5999" y2="282.5999"/><line style="stroke:#181818;stroke-width:1.0;" x1="281.5" x2="322.5" y1="282.5999" y2="282.5999"/><polygon fill="#181818" points="291.5,278.5999,281.5,282.5999,291.5,286.5999,287.5,282.5999" style="stroke:#181818;stroke-width:1.0;"/><text fill="#000000" font-family="sans-serif" font-size="13" lengthAdjust="spacing" textLength="199" x="287.5" y="264.0769">Determines 'availableTrainings' list</text><polygon fill="#181818" points="481.5,308.1999,491.5,312.1999,481.5,316.1999,485.5,312.1999" style="stroke:#181818;stroke-width:1.0;"/><line style="stroke:#181818;stroke-width:1.0;" x1="280.5" x2="487.5" y1="312.1999" y2="312.1999"/><text fill="#000000" font-family="sans-serif" font-size="13" lengthAdjust="spacing" textLength="178" x="287.5" y="306.6769">Renders available training card</text><polygon fill="#181818" points="481.5,337.7999,491.5,341.7999,481.5,345.7999,485.5,341.7999" style="stroke:#181818;stroke-width:1.0;"/><line style="stroke:#181818;stroke-width:1.0;" x1="32.5" x2="487.5" y1="341.7999" y2="341.7999"/><text fill="#000000" font-family="sans-serif" font-size="13" lengthAdjust="spacing" textLength="174" x="39.5" y="336.2769">Clicks "Register" for a training</text><polygon fill="#181818" points="291.5,367.4,281.5,371.4,291.5,375.4,287.5,371.4" style="stroke:#181818;stroke-width:1.0;"/><line style="stroke:#181818;stroke-width:1.0;" x1="285.5" x2="497.5" y1="371.4" y2="371.4"/><text fill="#000000" font-family="sans-serif" font-size="13" lengthAdjust="spacing" textLength="123" x="297.5" y="365.877">onRegister(trainingId)</text><polygon fill="#181818" points="860.5,397,870.5,401,860.5,405,864.5,401" style="stroke:#181818;stroke-width:1.0;"/><line style="stroke:#181818;stroke-width:1.0;" x1="280.5" x2="866.5" y1="401" y2="401"/><text fill="#000000" font-family="sans-serif" font-size="13" lengthAdjust="spacing" textLength="64" x="287.5" y="395.477">getUserId()</text><polygon fill="#181818" points="291.5,426.6,281.5,430.6,291.5,434.6,287.5,430.6" style="stroke:#181818;stroke-width:1.0;"/><line style="stroke:#181818;stroke-width:1.0;stroke-dasharray:2.0,2.0;" x1="285.5" x2="876.5" y1="430.6" y2="430.6"/><text fill="#000000" font-family="sans-serif" font-size="13" lengthAdjust="spacing" textLength="36" x="297.5" y="425.077">userId</text><path d="M140,445.6 L200,445.6 L200,453.2 L190,463.2 L140,463.2 L140,445.6 " fill="#EEEEEE" style="stroke:#000000;stroke-width:1.5;"/><rect fill="none" height="673.2001" style="stroke:#000000;stroke-width:1.5;" width="1481" x="140" y="445.6"/><text fill="#000000" font-family="sans-serif" font-size="13" font-weight="bold" lengthAdjust="spacing" textLength="15" x="155" y="458.677">alt</text><text fill="#000000" font-family="sans-serif" font-size="11" font-weight="bold" lengthAdjust="spacing" textLength="81" x="215" y="457.8189">[User ID found]</text><polygon fill="#181818" points="684.5,480.8,694.5,484.8,684.5,488.8,688.5,484.8" style="stroke:#181818;stroke-width:1.0;"/><line style="stroke:#181818;stroke-width:1.0;" x1="280.5" x2="690.5" y1="484.8" y2="484.8"/><text fill="#000000" font-family="sans-serif" font-size="13" lengthAdjust="spacing" textLength="298" x="287.5" y="479.277">registerUserForTraining(trainingId, {id_user: userId})</text><polygon fill="#181818" points="1053.5,510.4,1063.5,514.4,1053.5,518.4,1057.5,514.4" style="stroke:#181818;stroke-width:1.0;"/><line style="stroke:#181818;stroke-width:1.0;" x1="706.5" x2="1059.5" y1="514.4" y2="514.4"/><text fill="#000000" font-family="sans-serif" font-size="13" lengthAdjust="spacing" textLength="340" x="713.5" y="508.877">fetchJson("/trainings/{trainingId}/register/{userId}", {POST})</text><polygon fill="#181818" points="893.5,540,883.5,544,893.5,548,889.5,544" style="stroke:#181818;stroke-width:1.0;"/><line style="stroke:#181818;stroke-width:1.0;" x1="887.5" x2="1064.5" y1="544" y2="544"/><text fill="#000000" font-family="sans-serif" font-size="13" lengthAdjust="spacing" textLength="62" x="899.5" y="538.477">getToken()</text><polygon fill="#181818" points="1053.5,569.6001,1063.5,573.6001,1053.5,577.6001,1057.5,573.6001" style="stroke:#181818;stroke-width:1.0;"/><line style="stroke:#181818;stroke-width:1.0;stroke-dasharray:2.0,2.0;" x1="877.5" x2="1059.5" y1="573.6001" y2="573.6001"/><text fill="#000000" font-family="sans-serif" font-size="13" lengthAdjust="spacing" textLength="102" x="884.5" y="568.0771">"user_token_abc"</text><polygon fill="#181818" points="1296.5,599.2001,1306.5,603.2001,1296.5,607.2001,1300.5,603.2001" style="stroke:#181818;stroke-width:1.0;"/><line style="stroke:#181818;stroke-width:1.0;" x1="1075.5" x2="1302.5" y1="603.2001" y2="603.2001"/><text fill="#000000" font-family="sans-serif" font-size="13" lengthAdjust="spacing" textLength="210" x="1082.5" y="597.6771">POST /trainings/{id}/register/{userId}</text><path d="M150,618.2001 L210,618.2001 L210,625.8001 L200,635.8001 L150,635.8001 L150,618.2001 " fill="#EEEEEE" style="stroke:#000000;stroke-width:1.5;"/><rect fill="none" height="418.8001" style="stroke:#000000;stroke-width:1.5;" width="1461" x="150" y="618.2001"/><text fill="#000000" font-family="sans-serif" font-size="13" font-weight="bold" lengthAdjust="spacing" textLength="15" x="165" y="631.2771">alt</text><text fill="#000000" font-family="sans-serif" font-size="11" font-weight="bold" lengthAdjust="spacing" textLength="133" x="225" y="630.419">[Registration successful]</text><polygon fill="#181818" points="1086.5,653.4001,1076.5,657.4001,1086.5,661.4001,1082.5,657.4001" style="stroke:#181818;stroke-width:1.0;"/><line style="stroke:#181818;stroke-width:1.0;stroke-dasharray:2.0,2.0;" x1="1080.5" x2="1307.5" y1="657.4001" y2="657.4001"/><text fill="#000000" font-family="sans-serif" font-size="13" lengthAdjust="spacing" textLength="209" x="1092.5" y="651.8771">HTTP 200 OK (TrainingRegistration)</text><polygon fill="#181818" points="717.5,683.0001,707.5,687.0001,717.5,691.0001,713.5,687.0001" style="stroke:#181818;stroke-width:1.0;"/><line style="stroke:#181818;stroke-width:1.0;stroke-dasharray:2.0,2.0;" x1="711.5" x2="1064.5" y1="687.0001" y2="687.0001"/><text fill="#000000" font-family="sans-serif" font-size="13" lengthAdjust="spacing" textLength="115" x="723.5" y="681.4771">TrainingRegistration</text><polygon fill="#181818" points="291.5,712.6001,281.5,716.6001,291.5,720.6001,287.5,716.6001" style="stroke:#181818;stroke-width:1.0;"/><line style="stroke:#181818;stroke-width:1.0;stroke-dasharray:2.0,2.0;" x1="285.5" x2="695.5" y1="716.6001" y2="716.6001"/><text fill="#000000" font-family="sans-serif" font-size="13" lengthAdjust="spacing" textLength="115" x="297.5" y="711.0771">TrainingRegistration</text><polygon fill="#181818" points="1538.5,742.2001,1548.5,746.2001,1538.5,750.2001,1542.5,746.2001" style="stroke:#181818;stroke-width:1.0;"/><line style="stroke:#181818;stroke-width:1.0;" x1="280.5" x2="1544.5" y1="746.2001" y2="746.2001"/><text fill="#000000" font-family="sans-serif" font-size="13" lengthAdjust="spacing" textLength="344" x="287.5" y="740.6771">toast.success("Successfully registered! Registered on: ...")</text><polygon fill="#181818" points="1429.5,801.8002,1439.5,805.8002,1429.5,809.8002,1433.5,805.8002" style="stroke:#181818;stroke-width:1.0;"/><line style="stroke:#181818;stroke-width:1.0;" x1="280.5" x2="1435.5" y1="805.8002" y2="805.8002"/><text fill="#000000" font-family="sans-serif" font-size="13" lengthAdjust="spacing" textLength="257" x="287.5" y="800.2772">invalidateQueries(['eligibleTrainings', userId])</text><polygon fill="#181818" points="1424.5,831.4002,1434.5,835.4002,1424.5,839.4002,1428.5,835.4002" style="stroke:#181818;stroke-width:1.0;"/><line style="stroke:#181818;stroke-width:1.0;" x1="280.5" x2="1430.5" y1="835.4002" y2="835.4002"/><text fill="#000000" font-family="sans-serif" font-size="13" lengthAdjust="spacing" textLength="311" x="287.5" y="829.8772">invalidateQueries(['userTrainingRegistrations', userId])</text><line style="stroke:#000000;stroke-width:1.0;stroke-dasharray:2.0,2.0;" x1="150" x2="1611" y1="874.4002" y2="874.4002"/><text fill="#000000" font-family="sans-serif" font-size="11" font-weight="bold" lengthAdjust="spacing" textLength="105" x="155" y="884.6191">[Registration failed]</text><polygon fill="#181818" points="1086.5,906.2001,1076.5,910.2001,1086.5,914.2001,1082.5,910.2001" style="stroke:#181818;stroke-width:1.0;"/><line style="stroke:#181818;stroke-width:1.0;stroke-dasharray:2.0,2.0;" x1="1080.5" x2="1307.5" y1="910.2001" y2="910.2001"/><text fill="#000000" font-family="sans-serif" font-size="13" lengthAdjust="spacing" textLength="66" x="1092.5" y="904.6771">HTTP Error</text><polygon fill="#181818" points="717.5,935.8001,707.5,939.8001,717.5,943.8001,713.5,939.8001" style="stroke:#181818;stroke-width:1.0;"/><line style="stroke:#181818;stroke-width:1.0;" x1="711.5" x2="1064.5" y1="939.8001" y2="939.8001"/><text fill="#000000" font-family="sans-serif" font-size="13" lengthAdjust="spacing" textLength="70" x="723.5" y="934.2771">throws Error</text><polygon fill="#181818" points="291.5,965.4001,281.5,969.4001,291.5,973.4001,287.5,969.4001" style="stroke:#181818;stroke-width:1.0;"/><line style="stroke:#181818;stroke-width:1.0;stroke-dasharray:2.0,2.0;" x1="285.5" x2="695.5" y1="969.4001" y2="969.4001"/><text fill="#000000" font-family="sans-serif" font-size="13" lengthAdjust="spacing" textLength="70" x="297.5" y="963.8771">throws Error</text><polygon fill="#181818" points="1538.5,995.0001,1548.5,999.0001,1538.5,1003.0001,1542.5,999.0001" style="stroke:#181818;stroke-width:1.0;"/><line style="stroke:#181818;stroke-width:1.0;" x1="280.5" x2="1544.5" y1="999.0001" y2="999.0001"/><text fill="#000000" font-family="sans-serif" font-size="13" lengthAdjust="spacing" textLength="193" x="287.5" y="993.4771">toast.error("Registration failed...")</text><line style="stroke:#000000;stroke-width:1.0;stroke-dasharray:2.0,2.0;" x1="140" x2="1621" y1="1045.0001" y2="1045.0001"/><text fill="#000000" font-family="sans-serif" font-size="11" font-weight="bold" lengthAdjust="spacing" textLength="102" x="145" y="1055.219">[User ID not found]</text><polygon fill="#181818" points="1538.5,1076.8,1548.5,1080.8,1538.5,1084.8,1542.5,1080.8" style="stroke:#181818;stroke-width:1.0;"/><line style="stroke:#181818;stroke-width:1.0;" x1="280.5" x2="1544.5" y1="1080.8" y2="1080.8"/><text fill="#000000" font-family="sans-serif" font-size="13" lengthAdjust="spacing" textLength="194" x="287.5" y="1075.277">toast.error("User not identified...")</text><!--SRC=[dLHDZzis4BthLqnriGmuTj2Z42oGUBEeMxHnlNOlJM7GqbWcbYQt9BN1Of7_dY7rHLbokirD8kUzUVF1PxaL2Blb_Y_KAsaopGzS6_mehKR9pXobLMPdIgQvWYI8cAPmZ_-MA3E4MyuApSvHn3AhDCHrV0pCmCwWZXwPjZpZZqnQTujwgncNN1PhLk1IdH-Lf4G-Fho1T- -IpKpfxCJpwSrDd-Rz4-E27GGsY2NJkQVmD-6furdE12zEjj3uFA2oTUp-mB87bFdScizIOy6DHUtatgbMSJBjoVnG8Lo6kzap2g6-39MMzlGxarIGhlIv_q8xp7sbwY1A7C1AouNnKeveizElHiaw-Ptxtz5rbLPf9eiXlfRsVhsgigvNLKQhpiogGVYV9UhdfU3D88B_2ZVQkgrYhabLJwhlgjkFN3wuwCZr3zxSz0URmX_iYHVCeW6hO94pSpee6jM-fF15Cn2tKFo9edheg4T5rA7K58Z17oH_Jv2wouCLCPEPkzQh_9_fwrdAO64tVYiqirp97sDZGdHo23Y1-NmEAyajPm9oPXa8nNAwzXUJ0VD58s-HUdxcaZevOPTlman0aDveG39y8obiQ5jG6sXPe9a3P1JH3MC0xgOynajTo1uCn9lwHSLm99TWBNiq10tBLBA19mrkbK-Z7B-dQb1r_V9IAD3k_EYIQL1NTHqrOM-6CgfvzzBMe8W9wzqELhTKO2dp2E3Qx1hRIE6QpNH5pk25L- -YIVzrIjI3fr5p1bcRB9IuiumKEZk9svTc5YzTng-BHjNYfSuOauhrf_jjFtNBIeTTXij6RnMfI7h0fca0OQz3aR5BlBSEkcU7BARGaQPVfYMFIy7fXB0oFbPHJyvwvNvfWE7x1bDc6HfpB5rzuDalPVwotQxXvxTluTDla8oPnDH30vMZMp26zC31A8ShEOhjWTljgmqw9S-bhtbTNnBVjuMAvtOZCVy9DkqtFS3K6L9S5THjNyNf3uC1DSUZElhUoEKJ4voCpriaH_DVnlrZbAzoyLvf0UTbUVqh50RxctCaAyBy-rlpKMkbBxTZR3diIQil9eX_nL9SnLpR1NIHIJnInVyVEdN4-r3uOFqB2mv2wmWfBipCjxPnLQdiTMSThyT37OxdD2j-v5qz8x97Qd4YHlIvjDy0]--></g></svg>