<?xml version="1.0" encoding="us-ascii" standalone="no"?><svg xmlns="http://www.w3.org/2000/svg" xmlns:xlink="http://www.w3.org/1999/xlink" contentStyleType="text/css" height="1182px" preserveAspectRatio="none" style="width:2214px;height:1182px;background:#FFFFFF;" version="1.1" viewBox="0 0 2214 1182" width="2214px" zoomAndPan="magnify"><defs/><g><text fill="#000000" font-family="sans-serif" font-size="14" font-weight="bold" lengthAdjust="spacing" textLength="650" x="783.25" y="28.0059">UC_GestionarAsignacionCategoriasAdmin (Remover Usuario de Categor&#237;a): Sequence Diagram</text><rect fill="#FFFFFF" height="940.0003" style="stroke:#181818;stroke-width:1.0;" width="10" x="316" y="151.1999"/><rect fill="#FFFFFF" height="779.0002" style="stroke:#181818;stroke-width:1.0;" width="10" x="741.5" y="312.1999"/><rect fill="#FFFFFF" height="59.2" style="stroke:#181818;stroke-width:1.0;" width="10" x="1053.5" y="473.2"/><rect fill="#FFFFFF" height="529.2001" style="stroke:#181818;stroke-width:1.0;" width="10" x="1286" y="562"/><rect fill="#FFFFFF" height="29.6" style="stroke:#181818;stroke-width:1.0;" width="10" x="1466.5" y="621.2001"/><rect fill="#FFFFFF" height="499.6001" style="stroke:#181818;stroke-width:1.0;" width="10" x="1639" y="591.6001"/><rect fill="#FFFFFF" height="410.8001" style="stroke:#181818;stroke-width:1.0;" width="10" x="1905" y="680.4001"/><rect fill="#FFFFFF" height="29.6" style="stroke:#181818;stroke-width:1.0;" width="10" x="2033" y="883.0002"/><rect fill="#FFFFFF" height="30" style="stroke:#181818;stroke-width:1.0;" width="10" x="2147" y="823.4002"/><rect fill="#FFFFFF" height="30" style="stroke:#181818;stroke-width:1.0;" width="10" x="2147" y="1046.2002"/><rect fill="none" height="388.8001" style="stroke:#000000;stroke-width:1.5;" width="1571.5" x="636" y="695.4001"/><line style="stroke:#181818;stroke-width:0.5;stroke-dasharray:5.0,5.0;" x1="28" x2="28" y1="119.5999" y2="1101.2002"/><line style="stroke:#181818;stroke-width:0.5;stroke-dasharray:5.0,5.0;" x1="320.5" x2="320.5" y1="119.5999" y2="1101.2002"/><line style="stroke:#181818;stroke-width:0.5;stroke-dasharray:5.0,5.0;" x1="550" x2="550" y1="119.5999" y2="1101.2002"/><line style="stroke:#181818;stroke-width:0.5;stroke-dasharray:5.0,5.0;" x1="746" x2="746" y1="119.5999" y2="1101.2002"/><line style="stroke:#181818;stroke-width:0.5;stroke-dasharray:5.0,5.0;" x1="1058.5" x2="1058.5" y1="119.5999" y2="1101.2002"/><line style="stroke:#181818;stroke-width:0.5;stroke-dasharray:5.0,5.0;" x1="1290.5" x2="1290.5" y1="119.5999" y2="1101.2002"/><line style="stroke:#181818;stroke-width:0.5;stroke-dasharray:5.0,5.0;" x1="1471.5" x2="1471.5" y1="119.5999" y2="1101.2002"/><line style="stroke:#181818;stroke-width:0.5;stroke-dasharray:5.0,5.0;" x1="1643.5" x2="1643.5" y1="119.5999" y2="1101.2002"/><line style="stroke:#181818;stroke-width:0.5;stroke-dasharray:5.0,5.0;" x1="1909.5" x2="1909.5" y1="119.5999" y2="1101.2002"/><line style="stroke:#181818;stroke-width:0.5;stroke-dasharray:5.0,5.0;" x1="2037.5" x2="2037.5" y1="119.5999" y2="1101.2002"/><line style="stroke:#181818;stroke-width:0.5;stroke-dasharray:5.0,5.0;" x1="2151.5" x2="2151.5" y1="119.5999" y2="1101.2002"/><text fill="#000000" font-family="sans-serif" font-size="14" lengthAdjust="spacing" textLength="40" x="5" y="115.8059">Admin</text><ellipse cx="28" cy="51.2999" fill="#E2E2F0" rx="8" ry="8" style="stroke:#181818;stroke-width:0.5;"/><path d="M28,59.2999 L28,86.2999 M15,67.2999 L41,67.2999 M28,86.2999 L15,101.2999 M28,86.2999 L41,101.2999 " fill="none" style="stroke:#181818;stroke-width:0.5;"/><text fill="#000000" font-family="sans-serif" font-size="14" lengthAdjust="spacing" textLength="40" x="5" y="1113.2061">Admin</text><ellipse cx="28" cy="1125.5001" fill="#E2E2F0" rx="8" ry="8" style="stroke:#181818;stroke-width:0.5;"/><path d="M28,1133.5001 L28,1160.5001 M15,1141.5001 L41,1141.5001 M28,1160.5001 L15,1175.5001 M28,1160.5001 L41,1175.5001 " fill="none" style="stroke:#181818;stroke-width:0.5;"/><rect fill="#E2E2F0" height="36" rx="2.5" ry="2.5" style="stroke:#181818;stroke-width:0.5;" width="203" x="219.5" y="82.5999"/><ellipse cx="237.5" cy="100.5999" fill="#DA70D6" rx="11" ry="11" style="stroke:#181818;stroke-width:1.0;"/><path d="M235.3594,101.9905 L236.9375,101.9905 C237.6094,102.2405 239.0938,103.9124 239.9688,105.4905 L240.0313,105.5999 L241.4063,105.5999 C241.7344,105.5999 242.0156,105.553 242.1563,105.4749 C242.4219,105.3186 242.5938,105.0217 242.5938,104.7092 C242.5938,104.4436 242.4375,104.1624 242.2188,104.0061 C242.0313,103.8655 241.8594,103.8342 241.4063,103.8342 L241.2188,103.8342 C240.5625,102.8499 239.8906,102.053 239.1563,101.4124 C240.3594,100.7874 240.9375,99.9905 240.9375,98.9592 C240.9375,97.2249 239.3906,96.0061 237.1406,96.0061 L233.3438,96.0061 C232.8906,96.0061 232.7656,96.0217 232.5938,96.1311 C232.3281,96.303 232.1563,96.5842 232.1563,96.8811 C232.1563,97.1624 232.3125,97.4436 232.5313,97.5999 C232.7188,97.7249 232.9063,97.7561 233.3438,97.7561 L233.5313,97.7561 L233.5313,103.8342 L233.3438,103.8342 C232.9219,103.8342 232.7656,103.8655 232.5938,103.9749 C232.3281,104.1155 232.1563,104.4124 232.1563,104.7092 C232.1563,105.2874 232.5625,105.5999 233.3438,105.5999 L235.8906,105.5999 C236.25,105.5999 236.5,105.553 236.6406,105.4749 C236.9063,105.3186 237.0781,105.0217 237.0781,104.7092 C237.0781,104.4436 236.9531,104.178 236.7031,104.0061 C236.5156,103.8655 236.375,103.8342 235.8906,103.8342 L235.3594,103.8342 L235.3594,101.9905 Z M235.3594,100.2405 L235.3594,97.7561 L237.2031,97.7561 C238.2344,97.7561 239,98.2405 239,98.8967 C239,99.678 237.9844,100.2405 236.5938,100.2405 L235.3594,100.2405 Z " fill="#000000"/><text fill="#000000" font-family="sans-serif" font-size="14" lengthAdjust="spacing" textLength="161" x="254.5" y="102.6058">AdminUserCategoryPage</text><rect fill="#E2E2F0" height="36" rx="2.5" ry="2.5" style="stroke:#181818;stroke-width:0.5;" width="203" x="219.5" y="1100.2002"/><ellipse cx="237.5" cy="1118.2002" fill="#DA70D6" rx="11" ry="11" style="stroke:#181818;stroke-width:1.0;"/><path d="M235.3594,1119.5908 L236.9375,1119.5908 C237.6094,1119.8408 239.0938,1121.5127 239.9688,1123.0908 L240.0313,1123.2002 L241.4063,1123.2002 C241.7344,1123.2002 242.0156,1123.1533 242.1563,1123.0752 C242.4219,1122.9189 242.5938,1122.622 242.5938,1122.3095 C242.5938,1122.0439 242.4375,1121.7627 242.2188,1121.6064 C242.0313,1121.4658 241.8594,1121.4345 241.4063,1121.4345 L241.2188,1121.4345 C240.5625,1120.4502 239.8906,1119.6533 239.1563,1119.0127 C240.3594,1118.3877 240.9375,1117.5908 240.9375,1116.5595 C240.9375,1114.8252 239.3906,1113.6064 237.1406,1113.6064 L233.3438,1113.6064 C232.8906,1113.6064 232.7656,1113.622 232.5938,1113.7314 C232.3281,1113.9033 232.1563,1114.1845 232.1563,1114.4814 C232.1563,1114.7627 232.3125,1115.0439 232.5313,1115.2002 C232.7188,1115.3252 232.9063,1115.3564 233.3438,1115.3564 L233.5313,1115.3564 L233.5313,1121.4345 L233.3438,1121.4345 C232.9219,1121.4345 232.7656,1121.4658 232.5938,1121.5752 C232.3281,1121.7158 232.1563,1122.0127 232.1563,1122.3095 C232.1563,1122.8877 232.5625,1123.2002 233.3438,1123.2002 L235.8906,1123.2002 C236.25,1123.2002 236.5,1123.1533 236.6406,1123.0752 C236.9063,1122.9189 237.0781,1122.622 237.0781,1122.3095 C237.0781,1122.0439 236.9531,1121.7783 236.7031,1121.6064 C236.5156,1121.4658 236.375,1121.4345 235.8906,1121.4345 L235.3594,1121.4345 L235.3594,1119.5908 Z M235.3594,1117.8408 L235.3594,1115.3564 L237.2031,1115.3564 C238.2344,1115.3564 239,1115.8408 239,1116.497 C239,1117.2783 237.9844,1117.8408 236.5938,1117.8408 L235.3594,1117.8408 Z " fill="#000000"/><text fill="#000000" font-family="sans-serif" font-size="14" lengthAdjust="spacing" textLength="161" x="254.5" y="1120.2061">AdminUserCategoryPage</text><rect fill="#E2E2F0" height="36" rx="2.5" ry="2.5" style="stroke:#181818;stroke-width:0.5;" width="172" x="464" y="82.5999"/><ellipse cx="482" cy="100.5999" fill="#D3D3D3" rx="11" ry="11" style="stroke:#181818;stroke-width:1.0;"/><path d="M477,101.7561 C477,104.2561 479.1406,106.0686 482.0625,106.0686 C483.2969,106.0686 484.4688,105.7717 485.2188,105.2561 C485.8281,104.8342 486.1563,104.4124 486.1563,104.0061 C486.1563,103.5374 485.7344,103.1311 485.2344,103.1311 C485,103.1311 484.7813,103.2092 484.5781,103.4124 C484.1406,103.8499 484.1406,103.8499 483.9688,103.9436 C483.5156,104.178 482.875,104.3186 482.1094,104.3186 C480.1094,104.3186 478.8281,103.303 478.8281,101.7249 L478.8281,100.678 C478.8281,98.9749 480.0469,97.7717 481.75,97.7717 C482.3281,97.7717 482.9063,97.9124 483.375,98.1624 C483.8438,98.428 484.0156,98.6155 484.0781,98.9749 C484.2031,99.6467 484.4531,99.8967 484.9844,99.8967 C485.2656,99.8967 485.5469,99.7561 485.7344,99.5374 C485.8594,99.3655 485.9063,99.1936 485.9063,98.7561 L485.9063,97.3967 C485.9063,96.9749 485.8906,96.8342 485.7656,96.6624 C485.5938,96.4124 485.3125,96.2561 484.9844,96.2561 C484.6719,96.2561 484.4688,96.3655 484.25,96.6311 C483.0781,96.1311 482.6406,96.0217 481.6875,96.0217 C479.0156,96.0217 477,98.0374 477,100.6624 L477,101.7561 Z " fill="#000000"/><text fill="#000000" font-family="sans-serif" font-size="14" lengthAdjust="spacing" textLength="130" x="499" y="102.6058">Input (Email Search)</text><rect fill="#E2E2F0" height="36" rx="2.5" ry="2.5" style="stroke:#181818;stroke-width:0.5;" width="172" x="464" y="1100.2002"/><ellipse cx="482" cy="1118.2002" fill="#D3D3D3" rx="11" ry="11" style="stroke:#181818;stroke-width:1.0;"/><path d="M477,1119.3564 C477,1121.8564 479.1406,1123.6689 482.0625,1123.6689 C483.2969,1123.6689 484.4688,1123.372 485.2188,1122.8564 C485.8281,1122.4345 486.1563,1122.0127 486.1563,1121.6064 C486.1563,1121.1377 485.7344,1120.7314 485.2344,1120.7314 C485,1120.7314 484.7813,1120.8095 484.5781,1121.0127 C484.1406,1121.4502 484.1406,1121.4502 483.9688,1121.5439 C483.5156,1121.7783 482.875,1121.9189 482.1094,1121.9189 C480.1094,1121.9189 478.8281,1120.9033 478.8281,1119.3252 L478.8281,1118.2783 C478.8281,1116.5752 480.0469,1115.372 481.75,1115.372 C482.3281,1115.372 482.9063,1115.5127 483.375,1115.7627 C483.8438,1116.0283 484.0156,1116.2158 484.0781,1116.5752 C484.2031,1117.247 484.4531,1117.497 484.9844,1117.497 C485.2656,1117.497 485.5469,1117.3564 485.7344,1117.1377 C485.8594,1116.9658 485.9063,1116.7939 485.9063,1116.3564 L485.9063,1114.997 C485.9063,1114.5752 485.8906,1114.4345 485.7656,1114.2627 C485.5938,1114.0127 485.3125,1113.8564 484.9844,1113.8564 C484.6719,1113.8564 484.4688,1113.9658 484.25,1114.2314 C483.0781,1113.7314 482.6406,1113.622 481.6875,1113.622 C479.0156,1113.622 477,1115.6377 477,1118.2627 L477,1119.3564 Z " fill="#000000"/><text fill="#000000" font-family="sans-serif" font-size="14" lengthAdjust="spacing" textLength="130" x="499" y="1120.2061">Input (Email Search)</text><rect fill="#E2E2F0" height="36" rx="2.5" ry="2.5" style="stroke:#181818;stroke-width:0.5;" width="201" x="646" y="82.5999"/><ellipse cx="664" cy="100.5999" fill="#D3D3D3" rx="11" ry="11" style="stroke:#181818;stroke-width:1.0;"/><path d="M659,101.7561 C659,104.2561 661.1406,106.0686 664.0625,106.0686 C665.2969,106.0686 666.4688,105.7717 667.2188,105.2561 C667.8281,104.8342 668.1563,104.4124 668.1563,104.0061 C668.1563,103.5374 667.7344,103.1311 667.2344,103.1311 C667,103.1311 666.7813,103.2092 666.5781,103.4124 C666.1406,103.8499 666.1406,103.8499 665.9688,103.9436 C665.5156,104.178 664.875,104.3186 664.1094,104.3186 C662.1094,104.3186 660.8281,103.303 660.8281,101.7249 L660.8281,100.678 C660.8281,98.9749 662.0469,97.7717 663.75,97.7717 C664.3281,97.7717 664.9063,97.9124 665.375,98.1624 C665.8438,98.428 666.0156,98.6155 666.0781,98.9749 C666.2031,99.6467 666.4531,99.8967 666.9844,99.8967 C667.2656,99.8967 667.5469,99.7561 667.7344,99.5374 C667.8594,99.3655 667.9063,99.1936 667.9063,98.7561 L667.9063,97.3967 C667.9063,96.9749 667.8906,96.8342 667.7656,96.6624 C667.5938,96.4124 667.3125,96.2561 666.9844,96.2561 C666.6719,96.2561 666.4688,96.3655 666.25,96.6311 C665.0781,96.1311 664.6406,96.0217 663.6875,96.0217 C661.0156,96.0217 659,98.0374 659,100.6624 L659,101.7561 Z " fill="#000000"/><text fill="#000000" font-family="sans-serif" font-size="14" lengthAdjust="spacing" textLength="159" x="681" y="102.6058">AdminUserCategoryCard</text><rect fill="#E2E2F0" height="36" rx="2.5" ry="2.5" style="stroke:#181818;stroke-width:0.5;" width="201" x="646" y="1100.2002"/><ellipse cx="664" cy="1118.2002" fill="#D3D3D3" rx="11" ry="11" style="stroke:#181818;stroke-width:1.0;"/><path d="M659,1119.3564 C659,1121.8564 661.1406,1123.6689 664.0625,1123.6689 C665.2969,1123.6689 666.4688,1123.372 667.2188,1122.8564 C667.8281,1122.4345 668.1563,1122.0127 668.1563,1121.6064 C668.1563,1121.1377 667.7344,1120.7314 667.2344,1120.7314 C667,1120.7314 666.7813,1120.8095 666.5781,1121.0127 C666.1406,1121.4502 666.1406,1121.4502 665.9688,1121.5439 C665.5156,1121.7783 664.875,1121.9189 664.1094,1121.9189 C662.1094,1121.9189 660.8281,1120.9033 660.8281,1119.3252 L660.8281,1118.2783 C660.8281,1116.5752 662.0469,1115.372 663.75,1115.372 C664.3281,1115.372 664.9063,1115.5127 665.375,1115.7627 C665.8438,1116.0283 666.0156,1116.2158 666.0781,1116.5752 C666.2031,1117.247 666.4531,1117.497 666.9844,1117.497 C667.2656,1117.497 667.5469,1117.3564 667.7344,1117.1377 C667.8594,1116.9658 667.9063,1116.7939 667.9063,1116.3564 L667.9063,1114.997 C667.9063,1114.5752 667.8906,1114.4345 667.7656,1114.2627 C667.5938,1114.0127 667.3125,1113.8564 666.9844,1113.8564 C666.6719,1113.8564 666.4688,1113.9658 666.25,1114.2314 C665.0781,1113.7314 664.6406,1113.622 663.6875,1113.622 C661.0156,1113.622 659,1115.6377 659,1118.2627 L659,1119.3564 Z " fill="#000000"/><text fill="#000000" font-family="sans-serif" font-size="14" lengthAdjust="spacing" textLength="159" x="681" y="1120.2061">AdminUserCategoryCard</text><rect fill="#E2E2F0" height="36" rx="2.5" ry="2.5" style="stroke:#181818;stroke-width:0.5;" width="232" x="942.5" y="82.5999"/><ellipse cx="960.5" cy="100.5999" fill="#D3D3D3" rx="11" ry="11" style="stroke:#181818;stroke-width:1.0;"/><path d="M955.5,101.7561 C955.5,104.2561 957.6406,106.0686 960.5625,106.0686 C961.7969,106.0686 962.9688,105.7717 963.7188,105.2561 C964.3281,104.8342 964.6563,104.4124 964.6563,104.0061 C964.6563,103.5374 964.2344,103.1311 963.7344,103.1311 C963.5,103.1311 963.2813,103.2092 963.0781,103.4124 C962.6406,103.8499 962.6406,103.8499 962.4688,103.9436 C962.0156,104.178 961.375,104.3186 960.6094,104.3186 C958.6094,104.3186 957.3281,103.303 957.3281,101.7249 L957.3281,100.678 C957.3281,98.9749 958.5469,97.7717 960.25,97.7717 C960.8281,97.7717 961.4063,97.9124 961.875,98.1624 C962.3438,98.428 962.5156,98.6155 962.5781,98.9749 C962.7031,99.6467 962.9531,99.8967 963.4844,99.8967 C963.7656,99.8967 964.0469,99.7561 964.2344,99.5374 C964.3594,99.3655 964.4063,99.1936 964.4063,98.7561 L964.4063,97.3967 C964.4063,96.9749 964.3906,96.8342 964.2656,96.6624 C964.0938,96.4124 963.8125,96.2561 963.4844,96.2561 C963.1719,96.2561 962.9688,96.3655 962.75,96.6311 C961.5781,96.1311 961.1406,96.0217 960.1875,96.0217 C957.5156,96.0217 955.5,98.0374 955.5,100.6624 L955.5,101.7561 Z " fill="#000000"/><text fill="#000000" font-family="sans-serif" font-size="14" lengthAdjust="spacing" textLength="190" x="977.5" y="102.6058">AlertDialog (Confirm Remove)</text><rect fill="#E2E2F0" height="36" rx="2.5" ry="2.5" style="stroke:#181818;stroke-width:0.5;" width="232" x="942.5" y="1100.2002"/><ellipse cx="960.5" cy="1118.2002" fill="#D3D3D3" rx="11" ry="11" style="stroke:#181818;stroke-width:1.0;"/><path d="M955.5,1119.3564 C955.5,1121.8564 957.6406,1123.6689 960.5625,1123.6689 C961.7969,1123.6689 962.9688,1123.372 963.7188,1122.8564 C964.3281,1122.4345 964.6563,1122.0127 964.6563,1121.6064 C964.6563,1121.1377 964.2344,1120.7314 963.7344,1120.7314 C963.5,1120.7314 963.2813,1120.8095 963.0781,1121.0127 C962.6406,1121.4502 962.6406,1121.4502 962.4688,1121.5439 C962.0156,1121.7783 961.375,1121.9189 960.6094,1121.9189 C958.6094,1121.9189 957.3281,1120.9033 957.3281,1119.3252 L957.3281,1118.2783 C957.3281,1116.5752 958.5469,1115.372 960.25,1115.372 C960.8281,1115.372 961.4063,1115.5127 961.875,1115.7627 C962.3438,1116.0283 962.5156,1116.2158 962.5781,1116.5752 C962.7031,1117.247 962.9531,1117.497 963.4844,1117.497 C963.7656,1117.497 964.0469,1117.3564 964.2344,1117.1377 C964.3594,1116.9658 964.4063,1116.7939 964.4063,1116.3564 L964.4063,1114.997 C964.4063,1114.5752 964.3906,1114.4345 964.2656,1114.2627 C964.0938,1114.0127 963.8125,1113.8564 963.4844,1113.8564 C963.1719,1113.8564 962.9688,1113.9658 962.75,1114.2314 C961.5781,1113.7314 961.1406,1113.622 960.1875,1113.622 C957.5156,1113.622 955.5,1115.6377 955.5,1118.2627 L955.5,1119.3564 Z " fill="#000000"/><text fill="#000000" font-family="sans-serif" font-size="14" lengthAdjust="spacing" textLength="190" x="977.5" y="1120.2061">AlertDialog (Confirm Remove)</text><rect fill="#E2E2F0" height="47.5999" rx="2.5" ry="2.5" style="stroke:#181818;stroke-width:0.5;" width="213" x="1184.5" y="71"/><ellipse cx="1202.5" cy="89" fill="#FFFF00" rx="11" ry="11" style="stroke:#181818;stroke-width:1.0;"/><path d="M1201.3594,90.0625 L1202.6719,90.0625 L1202.6719,90.1094 C1202.6719,90.5 1202.7031,90.6875 1202.7969,90.8438 C1202.9688,91.0938 1203.2656,91.2656 1203.5781,91.2656 C1203.8594,91.2656 1204.1406,91.125 1204.3281,90.9063 C1204.4531,90.7188 1204.5,90.5625 1204.5,90.1094 L1204.5,88.2813 C1204.5,87.8594 1204.4844,87.7344 1204.3594,87.5625 C1204.2031,87.2969 1203.9063,87.125 1203.5781,87.125 C1203.2813,87.125 1203.0156,87.2656 1202.8438,87.4844 C1202.7031,87.6719 1202.6719,87.8438 1202.6719,88.2813 L1202.6719,88.3281 L1201.3594,88.3281 L1201.3594,86.1563 L1205.5781,86.1563 L1205.5781,86.9219 C1205.5781,87.3125 1205.6094,87.4844 1205.7188,87.6406 C1205.8906,87.9063 1206.1719,88.0625 1206.5,88.0625 C1206.7813,88.0625 1207.0625,87.9375 1207.25,87.7031 C1207.3906,87.5156 1207.4219,87.375 1207.4219,86.9219 L1207.4219,84.4063 L1199.3438,84.4063 C1198.9063,84.4063 1198.7656,84.4219 1198.5938,84.5313 C1198.3281,84.7031 1198.1563,84.9844 1198.1563,85.2813 C1198.1563,85.5625 1198.3125,85.8438 1198.5313,86 C1198.7188,86.125 1198.9063,86.1563 1199.3438,86.1563 L1199.5313,86.1563 L1199.5313,92.25 L1199.3438,92.25 C1198.9219,92.25 1198.7656,92.2813 1198.5938,92.375 C1198.3281,92.5313 1198.1563,92.8281 1198.1563,93.1094 C1198.1563,93.6875 1198.5625,94 1199.3438,94 L1203,94 C1203.7813,94 1204.1875,93.7188 1204.1875,93.1094 C1204.1875,92.8438 1204.0469,92.5938 1203.8125,92.4219 C1203.625,92.2813 1203.4531,92.25 1203,92.25 L1201.3594,92.25 L1201.3594,90.0625 Z " fill="#000000"/><text fill="#000000" font-family="sans-serif" font-size="14" lengthAdjust="spacing" textLength="132" x="1239" y="91.0059">category_backend.ts</text><text fill="#000000" font-family="sans-serif" font-size="14" lengthAdjust="spacing" textLength="171" x="1219.5" y="107.8059">deleteUserFromCategory()</text><rect fill="#E2E2F0" height="47.5999" rx="2.5" ry="2.5" style="stroke:#181818;stroke-width:0.5;" width="213" x="1184.5" y="1100.2002"/><ellipse cx="1202.5" cy="1118.2002" fill="#FFFF00" rx="11" ry="11" style="stroke:#181818;stroke-width:1.0;"/><path d="M1201.3594,1119.2627 L1202.6719,1119.2627 L1202.6719,1119.3095 C1202.6719,1119.7002 1202.7031,1119.8877 1202.7969,1120.0439 C1202.9688,1120.2939 1203.2656,1120.4658 1203.5781,1120.4658 C1203.8594,1120.4658 1204.1406,1120.3252 1204.3281,1120.1064 C1204.4531,1119.9189 1204.5,1119.7627 1204.5,1119.3095 L1204.5,1117.4814 C1204.5,1117.0595 1204.4844,1116.9345 1204.3594,1116.7627 C1204.2031,1116.497 1203.9063,1116.3252 1203.5781,1116.3252 C1203.2813,1116.3252 1203.0156,1116.4658 1202.8438,1116.6845 C1202.7031,1116.872 1202.6719,1117.0439 1202.6719,1117.4814 L1202.6719,1117.5283 L1201.3594,1117.5283 L1201.3594,1115.3564 L1205.5781,1115.3564 L1205.5781,1116.122 C1205.5781,1116.5127 1205.6094,1116.6845 1205.7188,1116.8408 C1205.8906,1117.1064 1206.1719,1117.2627 1206.5,1117.2627 C1206.7813,1117.2627 1207.0625,1117.1377 1207.25,1116.9033 C1207.3906,1116.7158 1207.4219,1116.5752 1207.4219,1116.122 L1207.4219,1113.6064 L1199.3438,1113.6064 C1198.9063,1113.6064 1198.7656,1113.622 1198.5938,1113.7314 C1198.3281,1113.9033 1198.1563,1114.1845 1198.1563,1114.4814 C1198.1563,1114.7627 1198.3125,1115.0439 1198.5313,1115.2002 C1198.7188,1115.3252 1198.9063,1115.3564 1199.3438,1115.3564 L1199.5313,1115.3564 L1199.5313,1121.4502 L1199.3438,1121.4502 C1198.9219,1121.4502 1198.7656,1121.4814 1198.5938,1121.5752 C1198.3281,1121.7314 1198.1563,1122.0283 1198.1563,1122.3095 C1198.1563,1122.8877 1198.5625,1123.2002 1199.3438,1123.2002 L1203,1123.2002 C1203.7813,1123.2002 1204.1875,1122.9189 1204.1875,1122.3095 C1204.1875,1122.0439 1204.0469,1121.7939 1203.8125,1121.622 C1203.625,1121.4814 1203.4531,1121.4502 1203,1121.4502 L1201.3594,1121.4502 L1201.3594,1119.2627 Z " fill="#000000"/><text fill="#000000" font-family="sans-serif" font-size="14" lengthAdjust="spacing" textLength="132" x="1239" y="1120.2061">category_backend.ts</text><text fill="#000000" font-family="sans-serif" font-size="14" lengthAdjust="spacing" textLength="171" x="1219.5" y="1137.006">deleteUserFromCategory()</text><rect fill="#E2E2F0" height="36" rx="2.5" ry="2.5" style="stroke:#181818;stroke-width:0.5;" width="128" x="1407.5" y="82.5999"/><ellipse cx="1425.5" cy="100.5999" fill="#ADD8E6" rx="11" ry="11" style="stroke:#181818;stroke-width:1.0;"/><path d="M1429.3594,96.9124 C1429.3594,96.4749 1429.3438,96.3499 1429.2344,96.178 C1429.0781,95.928 1428.7813,95.7717 1428.4531,95.7717 C1428.1094,95.7717 1427.9219,95.9124 1427.7656,96.2874 C1427.2031,95.9592 1426.4375,95.7717 1425.5625,95.7717 C1423.4219,95.7717 1421.8281,97.0374 1421.8281,98.6936 C1421.8281,99.6467 1422.375,100.5374 1423.25,101.0061 C1423.8125,101.3186 1424.3438,101.4749 1425.4844,101.6624 C1426.6094,101.8655 1426.875,101.928 1427.25,102.0999 C1427.5938,102.2717 1427.8125,102.5686 1427.8125,102.8811 C1427.8125,103.5374 1426.8594,104.053 1425.6406,104.053 C1424.5469,104.053 1423.4844,103.5999 1423.3281,103.053 C1423.1875,102.6155 1423.1875,102.6155 1423.0625,102.4749 C1422.8906,102.3186 1422.6563,102.2405 1422.4063,102.2405 C1422.1094,102.2405 1421.8438,102.3655 1421.6563,102.5842 C1421.5313,102.7561 1421.4844,102.9436 1421.4844,103.3655 L1421.4844,104.4436 C1421.4844,105.2092 1421.7969,105.5842 1422.4063,105.5842 C1422.6875,105.5842 1422.8438,105.4905 1423.125,105.2092 C1423.9844,105.6311 1424.8281,105.8186 1425.75,105.8186 C1428.1094,105.8186 1429.7188,104.6467 1429.7188,102.9124 C1429.7188,102.053 1429.375,101.3655 1428.6875,100.8342 C1428.1563,100.428 1427.4844,100.1936 1425.9844,99.9436 C1424.7031,99.6936 1424.6406,99.678 1424.3125,99.5061 C1423.9688,99.3655 1423.7344,99.0061 1423.7344,98.678 C1423.7344,98.0374 1424.5469,97.5217 1425.5781,97.5217 C1426.625,97.5217 1427.3906,97.9436 1427.5313,98.5686 C1427.6563,99.0999 1427.6563,99.0999 1427.7969,99.2405 C1427.9531,99.3967 1428.2031,99.4905 1428.4531,99.4905 C1428.75,99.4905 1429,99.3655 1429.1875,99.1467 C1429.3281,98.9592 1429.3594,98.8186 1429.3594,98.3655 L1429.3594,96.9124 Z " fill="#000000"/><text fill="#000000" font-family="sans-serif" font-size="14" lengthAdjust="spacing" textLength="86" x="1442.5" y="102.6058">AuthManager</text><rect fill="#E2E2F0" height="36" rx="2.5" ry="2.5" style="stroke:#181818;stroke-width:0.5;" width="128" x="1407.5" y="1100.2002"/><ellipse cx="1425.5" cy="1118.2002" fill="#ADD8E6" rx="11" ry="11" style="stroke:#181818;stroke-width:1.0;"/><path d="M1429.3594,1114.5127 C1429.3594,1114.0752 1429.3438,1113.9502 1429.2344,1113.7783 C1429.0781,1113.5283 1428.7813,1113.372 1428.4531,1113.372 C1428.1094,1113.372 1427.9219,1113.5127 1427.7656,1113.8877 C1427.2031,1113.5595 1426.4375,1113.372 1425.5625,1113.372 C1423.4219,1113.372 1421.8281,1114.6377 1421.8281,1116.2939 C1421.8281,1117.247 1422.375,1118.1377 1423.25,1118.6064 C1423.8125,1118.9189 1424.3438,1119.0752 1425.4844,1119.2627 C1426.6094,1119.4658 1426.875,1119.5283 1427.25,1119.7002 C1427.5938,1119.872 1427.8125,1120.1689 1427.8125,1120.4814 C1427.8125,1121.1377 1426.8594,1121.6533 1425.6406,1121.6533 C1424.5469,1121.6533 1423.4844,1121.2002 1423.3281,1120.6533 C1423.1875,1120.2158 1423.1875,1120.2158 1423.0625,1120.0752 C1422.8906,1119.9189 1422.6563,1119.8408 1422.4063,1119.8408 C1422.1094,1119.8408 1421.8438,1119.9658 1421.6563,1120.1845 C1421.5313,1120.3564 1421.4844,1120.5439 1421.4844,1120.9658 L1421.4844,1122.0439 C1421.4844,1122.8095 1421.7969,1123.1845 1422.4063,1123.1845 C1422.6875,1123.1845 1422.8438,1123.0908 1423.125,1122.8095 C1423.9844,1123.2314 1424.8281,1123.4189 1425.75,1123.4189 C1428.1094,1123.4189 1429.7188,1122.247 1429.7188,1120.5127 C1429.7188,1119.6533 1429.375,1118.9658 1428.6875,1118.4345 C1428.1563,1118.0283 1427.4844,1117.7939 1425.9844,1117.5439 C1424.7031,1117.2939 1424.6406,1117.2783 1424.3125,1117.1064 C1423.9688,1116.9658 1423.7344,1116.6064 1423.7344,1116.2783 C1423.7344,1115.6377 1424.5469,1115.122 1425.5781,1115.122 C1426.625,1115.122 1427.3906,1115.5439 1427.5313,1116.1689 C1427.6563,1116.7002 1427.6563,1116.7002 1427.7969,1116.8408 C1427.9531,1116.997 1428.2031,1117.0908 1428.4531,1117.0908 C1428.75,1117.0908 1429,1116.9658 1429.1875,1116.747 C1429.3281,1116.5595 1429.3594,1116.4189 1429.3594,1115.9658 L1429.3594,1114.5127 Z " fill="#000000"/><text fill="#000000" font-family="sans-serif" font-size="14" lengthAdjust="spacing" textLength="86" x="1442.5" y="1120.2061">AuthManager</text><rect fill="#E2E2F0" height="47.5999" rx="2.5" ry="2.5" style="stroke:#181818;stroke-width:0.5;" width="113" x="1587.5" y="71"/><ellipse cx="1605.5" cy="89" fill="#FFA500" rx="11" ry="11" style="stroke:#181818;stroke-width:1.0;"/><path d="M1604.3594,90.0625 L1605.6719,90.0625 L1605.6719,90.1094 C1605.6719,90.5 1605.7031,90.6875 1605.7969,90.8438 C1605.9688,91.0938 1606.2656,91.2656 1606.5781,91.2656 C1606.8594,91.2656 1607.1406,91.125 1607.3281,90.9063 C1607.4531,90.7188 1607.5,90.5625 1607.5,90.1094 L1607.5,88.2813 C1607.5,87.8594 1607.4844,87.7344 1607.3594,87.5625 C1607.2031,87.2969 1606.9063,87.125 1606.5781,87.125 C1606.2813,87.125 1606.0156,87.2656 1605.8438,87.4844 C1605.7031,87.6719 1605.6719,87.8438 1605.6719,88.2813 L1605.6719,88.3281 L1604.3594,88.3281 L1604.3594,86.1563 L1608.5781,86.1563 L1608.5781,86.9219 C1608.5781,87.3125 1608.6094,87.4844 1608.7188,87.6406 C1608.8906,87.9063 1609.1719,88.0625 1609.5,88.0625 C1609.7813,88.0625 1610.0625,87.9375 1610.25,87.7031 C1610.3906,87.5156 1610.4219,87.375 1610.4219,86.9219 L1610.4219,84.4063 L1602.3438,84.4063 C1601.9063,84.4063 1601.7656,84.4219 1601.5938,84.5313 C1601.3281,84.7031 1601.1563,84.9844 1601.1563,85.2813 C1601.1563,85.5625 1601.3125,85.8438 1601.5313,86 C1601.7188,86.125 1601.9063,86.1563 1602.3438,86.1563 L1602.5313,86.1563 L1602.5313,92.25 L1602.3438,92.25 C1601.9219,92.25 1601.7656,92.2813 1601.5938,92.375 C1601.3281,92.5313 1601.1563,92.8281 1601.1563,93.1094 C1601.1563,93.6875 1601.5625,94 1602.3438,94 L1606,94 C1606.7813,94 1607.1875,93.7188 1607.1875,93.1094 C1607.1875,92.8438 1607.0469,92.5938 1606.8125,92.4219 C1606.625,92.2813 1606.4531,92.25 1606,92.25 L1604.3594,92.25 L1604.3594,90.0625 Z " fill="#000000"/><text fill="#000000" font-family="sans-serif" font-size="14" lengthAdjust="spacing" textLength="40" x="1638" y="91.0059">utils.ts</text><text fill="#000000" font-family="sans-serif" font-size="14" lengthAdjust="spacing" textLength="71" x="1622.5" y="107.8059">fetchJson()</text><rect fill="#E2E2F0" height="47.5999" rx="2.5" ry="2.5" style="stroke:#181818;stroke-width:0.5;" width="113" x="1587.5" y="1100.2002"/><ellipse cx="1605.5" cy="1118.2002" fill="#FFA500" rx="11" ry="11" style="stroke:#181818;stroke-width:1.0;"/><path d="M1604.3594,1119.2627 L1605.6719,1119.2627 L1605.6719,1119.3095 C1605.6719,1119.7002 1605.7031,1119.8877 1605.7969,1120.0439 C1605.9688,1120.2939 1606.2656,1120.4658 1606.5781,1120.4658 C1606.8594,1120.4658 1607.1406,1120.3252 1607.3281,1120.1064 C1607.4531,1119.9189 1607.5,1119.7627 1607.5,1119.3095 L1607.5,1117.4814 C1607.5,1117.0595 1607.4844,1116.9345 1607.3594,1116.7627 C1607.2031,1116.497 1606.9063,1116.3252 1606.5781,1116.3252 C1606.2813,1116.3252 1606.0156,1116.4658 1605.8438,1116.6845 C1605.7031,1116.872 1605.6719,1117.0439 1605.6719,1117.4814 L1605.6719,1117.5283 L1604.3594,1117.5283 L1604.3594,1115.3564 L1608.5781,1115.3564 L1608.5781,1116.122 C1608.5781,1116.5127 1608.6094,1116.6845 1608.7188,1116.8408 C1608.8906,1117.1064 1609.1719,1117.2627 1609.5,1117.2627 C1609.7813,1117.2627 1610.0625,1117.1377 1610.25,1116.9033 C1610.3906,1116.7158 1610.4219,1116.5752 1610.4219,1116.122 L1610.4219,1113.6064 L1602.3438,1113.6064 C1601.9063,1113.6064 1601.7656,1113.622 1601.5938,1113.7314 C1601.3281,1113.9033 1601.1563,1114.1845 1601.1563,1114.4814 C1601.1563,1114.7627 1601.3125,1115.0439 1601.5313,1115.2002 C1601.7188,1115.3252 1601.9063,1115.3564 1602.3438,1115.3564 L1602.5313,1115.3564 L1602.5313,1121.4502 L1602.3438,1121.4502 C1601.9219,1121.4502 1601.7656,1121.4814 1601.5938,1121.5752 C1601.3281,1121.7314 1601.1563,1122.0283 1601.1563,1122.3095 C1601.1563,1122.8877 1601.5625,1123.2002 1602.3438,1123.2002 L1606,1123.2002 C1606.7813,1123.2002 1607.1875,1122.9189 1607.1875,1122.3095 C1607.1875,1122.0439 1607.0469,1121.7939 1606.8125,1121.622 C1606.625,1121.4814 1606.4531,1121.4502 1606,1121.4502 L1604.3594,1121.4502 L1604.3594,1119.2627 Z " fill="#000000"/><text fill="#000000" font-family="sans-serif" font-size="14" lengthAdjust="spacing" textLength="40" x="1638" y="1120.2061">utils.ts</text><text fill="#000000" font-family="sans-serif" font-size="14" lengthAdjust="spacing" textLength="71" x="1622.5" y="1137.006">fetchJson()</text><rect fill="#E2E2F0" height="36" rx="2.5" ry="2.5" style="stroke:#181818;stroke-width:0.5;" width="119" x="1850.5" y="82.5999"/><ellipse cx="1868.5" cy="100.5999" fill="#FF6347" rx="11" ry="11" style="stroke:#181818;stroke-width:1.0;"/><path d="M1872.3594,96.9124 C1872.3594,96.4749 1872.3438,96.3499 1872.2344,96.178 C1872.0781,95.928 1871.7813,95.7717 1871.4531,95.7717 C1871.1094,95.7717 1870.9219,95.9124 1870.7656,96.2874 C1870.2031,95.9592 1869.4375,95.7717 1868.5625,95.7717 C1866.4219,95.7717 1864.8281,97.0374 1864.8281,98.6936 C1864.8281,99.6467 1865.375,100.5374 1866.25,101.0061 C1866.8125,101.3186 1867.3438,101.4749 1868.4844,101.6624 C1869.6094,101.8655 1869.875,101.928 1870.25,102.0999 C1870.5938,102.2717 1870.8125,102.5686 1870.8125,102.8811 C1870.8125,103.5374 1869.8594,104.053 1868.6406,104.053 C1867.5469,104.053 1866.4844,103.5999 1866.3281,103.053 C1866.1875,102.6155 1866.1875,102.6155 1866.0625,102.4749 C1865.8906,102.3186 1865.6563,102.2405 1865.4063,102.2405 C1865.1094,102.2405 1864.8438,102.3655 1864.6563,102.5842 C1864.5313,102.7561 1864.4844,102.9436 1864.4844,103.3655 L1864.4844,104.4436 C1864.4844,105.2092 1864.7969,105.5842 1865.4063,105.5842 C1865.6875,105.5842 1865.8438,105.4905 1866.125,105.2092 C1866.9844,105.6311 1867.8281,105.8186 1868.75,105.8186 C1871.1094,105.8186 1872.7188,104.6467 1872.7188,102.9124 C1872.7188,102.053 1872.375,101.3655 1871.6875,100.8342 C1871.1563,100.428 1870.4844,100.1936 1868.9844,99.9436 C1867.7031,99.6936 1867.6406,99.678 1867.3125,99.5061 C1866.9688,99.3655 1866.7344,99.0061 1866.7344,98.678 C1866.7344,98.0374 1867.5469,97.5217 1868.5781,97.5217 C1869.625,97.5217 1870.3906,97.9436 1870.5313,98.5686 C1870.6563,99.0999 1870.6563,99.0999 1870.7969,99.2405 C1870.9531,99.3967 1871.2031,99.4905 1871.4531,99.4905 C1871.75,99.4905 1872,99.3655 1872.1875,99.1467 C1872.3281,98.9592 1872.3594,98.8186 1872.3594,98.3655 L1872.3594,96.9124 Z " fill="#000000"/><text fill="#000000" font-family="sans-serif" font-size="14" lengthAdjust="spacing" textLength="77" x="1885.5" y="102.6058">BackendAPI</text><rect fill="#E2E2F0" height="36" rx="2.5" ry="2.5" style="stroke:#181818;stroke-width:0.5;" width="119" x="1850.5" y="1100.2002"/><ellipse cx="1868.5" cy="1118.2002" fill="#FF6347" rx="11" ry="11" style="stroke:#181818;stroke-width:1.0;"/><path d="M1872.3594,1114.5127 C1872.3594,1114.0752 1872.3438,1113.9502 1872.2344,1113.7783 C1872.0781,1113.5283 1871.7813,1113.372 1871.4531,1113.372 C1871.1094,1113.372 1870.9219,1113.5127 1870.7656,1113.8877 C1870.2031,1113.5595 1869.4375,1113.372 1868.5625,1113.372 C1866.4219,1113.372 1864.8281,1114.6377 1864.8281,1116.2939 C1864.8281,1117.247 1865.375,1118.1377 1866.25,1118.6064 C1866.8125,1118.9189 1867.3438,1119.0752 1868.4844,1119.2627 C1869.6094,1119.4658 1869.875,1119.5283 1870.25,1119.7002 C1870.5938,1119.872 1870.8125,1120.1689 1870.8125,1120.4814 C1870.8125,1121.1377 1869.8594,1121.6533 1868.6406,1121.6533 C1867.5469,1121.6533 1866.4844,1121.2002 1866.3281,1120.6533 C1866.1875,1120.2158 1866.1875,1120.2158 1866.0625,1120.0752 C1865.8906,1119.9189 1865.6563,1119.8408 1865.4063,1119.8408 C1865.1094,1119.8408 1864.8438,1119.9658 1864.6563,1120.1845 C1864.5313,1120.3564 1864.4844,1120.5439 1864.4844,1120.9658 L1864.4844,1122.0439 C1864.4844,1122.8095 1864.7969,1123.1845 1865.4063,1123.1845 C1865.6875,1123.1845 1865.8438,1123.0908 1866.125,1122.8095 C1866.9844,1123.2314 1867.8281,1123.4189 1868.75,1123.4189 C1871.1094,1123.4189 1872.7188,1122.247 1872.7188,1120.5127 C1872.7188,1119.6533 1872.375,1118.9658 1871.6875,1118.4345 C1871.1563,1118.0283 1870.4844,1117.7939 1868.9844,1117.5439 C1867.7031,1117.2939 1867.6406,1117.2783 1867.3125,1117.1064 C1866.9688,1116.9658 1866.7344,1116.6064 1866.7344,1116.2783 C1866.7344,1115.6377 1867.5469,1115.122 1868.5781,1115.122 C1869.625,1115.122 1870.3906,1115.5439 1870.5313,1116.1689 C1870.6563,1116.7002 1870.6563,1116.7002 1870.7969,1116.8408 C1870.9531,1116.997 1871.2031,1117.0908 1871.4531,1117.0908 C1871.75,1117.0908 1872,1116.9658 1872.1875,1116.747 C1872.3281,1116.5595 1872.3594,1116.4189 1872.3594,1115.9658 L1872.3594,1114.5127 Z " fill="#000000"/><text fill="#000000" font-family="sans-serif" font-size="14" lengthAdjust="spacing" textLength="77" x="1885.5" y="1120.2061">BackendAPI</text><rect fill="#E2E2F0" height="36" rx="2.5" ry="2.5" style="stroke:#181818;stroke-width:0.5;" width="117" x="1979.5" y="82.5999"/><ellipse cx="1997.5" cy="100.5999" fill="#808080" rx="11" ry="11" style="stroke:#181818;stroke-width:1.0;"/><path d="M2001.3594,96.9124 C2001.3594,96.4749 2001.3438,96.3499 2001.2344,96.178 C2001.0781,95.928 2000.7813,95.7717 2000.4531,95.7717 C2000.1094,95.7717 1999.9219,95.9124 1999.7656,96.2874 C1999.2031,95.9592 1998.4375,95.7717 1997.5625,95.7717 C1995.4219,95.7717 1993.8281,97.0374 1993.8281,98.6936 C1993.8281,99.6467 1994.375,100.5374 1995.25,101.0061 C1995.8125,101.3186 1996.3438,101.4749 1997.4844,101.6624 C1998.6094,101.8655 1998.875,101.928 1999.25,102.0999 C1999.5938,102.2717 1999.8125,102.5686 1999.8125,102.8811 C1999.8125,103.5374 1998.8594,104.053 1997.6406,104.053 C1996.5469,104.053 1995.4844,103.5999 1995.3281,103.053 C1995.1875,102.6155 1995.1875,102.6155 1995.0625,102.4749 C1994.8906,102.3186 1994.6563,102.2405 1994.4063,102.2405 C1994.1094,102.2405 1993.8438,102.3655 1993.6563,102.5842 C1993.5313,102.7561 1993.4844,102.9436 1993.4844,103.3655 L1993.4844,104.4436 C1993.4844,105.2092 1993.7969,105.5842 1994.4063,105.5842 C1994.6875,105.5842 1994.8438,105.4905 1995.125,105.2092 C1995.9844,105.6311 1996.8281,105.8186 1997.75,105.8186 C2000.1094,105.8186 2001.7188,104.6467 2001.7188,102.9124 C2001.7188,102.053 2001.375,101.3655 2000.6875,100.8342 C2000.1563,100.428 1999.4844,100.1936 1997.9844,99.9436 C1996.7031,99.6936 1996.6406,99.678 1996.3125,99.5061 C1995.9688,99.3655 1995.7344,99.0061 1995.7344,98.678 C1995.7344,98.0374 1996.5469,97.5217 1997.5781,97.5217 C1998.625,97.5217 1999.3906,97.9436 1999.5313,98.5686 C1999.6563,99.0999 1999.6563,99.0999 1999.7969,99.2405 C1999.9531,99.3967 2000.2031,99.4905 2000.4531,99.4905 C2000.75,99.4905 2001,99.3655 2001.1875,99.1467 C2001.3281,98.9592 2001.3594,98.8186 2001.3594,98.3655 L2001.3594,96.9124 Z " fill="#000000"/><text fill="#000000" font-family="sans-serif" font-size="14" lengthAdjust="spacing" textLength="75" x="2014.5" y="102.6058">QueryClient</text><rect fill="#E2E2F0" height="36" rx="2.5" ry="2.5" style="stroke:#181818;stroke-width:0.5;" width="117" x="1979.5" y="1100.2002"/><ellipse cx="1997.5" cy="1118.2002" fill="#808080" rx="11" ry="11" style="stroke:#181818;stroke-width:1.0;"/><path d="M2001.3594,1114.5127 C2001.3594,1114.0752 2001.3438,1113.9502 2001.2344,1113.7783 C2001.0781,1113.5283 2000.7813,1113.372 2000.4531,1113.372 C2000.1094,1113.372 1999.9219,1113.5127 1999.7656,1113.8877 C1999.2031,1113.5595 1998.4375,1113.372 1997.5625,1113.372 C1995.4219,1113.372 1993.8281,1114.6377 1993.8281,1116.2939 C1993.8281,1117.247 1994.375,1118.1377 1995.25,1118.6064 C1995.8125,1118.9189 1996.3438,1119.0752 1997.4844,1119.2627 C1998.6094,1119.4658 1998.875,1119.5283 1999.25,1119.7002 C1999.5938,1119.872 1999.8125,1120.1689 1999.8125,1120.4814 C1999.8125,1121.1377 1998.8594,1121.6533 1997.6406,1121.6533 C1996.5469,1121.6533 1995.4844,1121.2002 1995.3281,1120.6533 C1995.1875,1120.2158 1995.1875,1120.2158 1995.0625,1120.0752 C1994.8906,1119.9189 1994.6563,1119.8408 1994.4063,1119.8408 C1994.1094,1119.8408 1993.8438,1119.9658 1993.6563,1120.1845 C1993.5313,1120.3564 1993.4844,1120.5439 1993.4844,1120.9658 L1993.4844,1122.0439 C1993.4844,1122.8095 1993.7969,1123.1845 1994.4063,1123.1845 C1994.6875,1123.1845 1994.8438,1123.0908 1995.125,1122.8095 C1995.9844,1123.2314 1996.8281,1123.4189 1997.75,1123.4189 C2000.1094,1123.4189 2001.7188,1122.247 2001.7188,1120.5127 C2001.7188,1119.6533 2001.375,1118.9658 2000.6875,1118.4345 C2000.1563,1118.0283 1999.4844,1117.7939 1997.9844,1117.5439 C1996.7031,1117.2939 1996.6406,1117.2783 1996.3125,1117.1064 C1995.9688,1116.9658 1995.7344,1116.6064 1995.7344,1116.2783 C1995.7344,1115.6377 1996.5469,1115.122 1997.5781,1115.122 C1998.625,1115.122 1999.3906,1115.5439 1999.5313,1116.1689 C1999.6563,1116.7002 1999.6563,1116.7002 1999.7969,1116.8408 C1999.9531,1116.997 2000.2031,1117.0908 2000.4531,1117.0908 C2000.75,1117.0908 2001,1116.9658 2001.1875,1116.747 C2001.3281,1116.5595 2001.3594,1116.4189 2001.3594,1115.9658 L2001.3594,1114.5127 Z " fill="#000000"/><text fill="#000000" font-family="sans-serif" font-size="14" lengthAdjust="spacing" textLength="75" x="2014.5" y="1120.2061">QueryClient</text><rect fill="#E2E2F0" height="36" rx="2.5" ry="2.5" style="stroke:#181818;stroke-width:0.5;" width="91" x="2106.5" y="82.5999"/><ellipse cx="2124.5" cy="100.5999" fill="#FFC0CB" rx="11" ry="11" style="stroke:#181818;stroke-width:1.0;"/><path d="M2119.5,101.7561 C2119.5,104.2561 2121.6406,106.0686 2124.5625,106.0686 C2125.7969,106.0686 2126.9688,105.7717 2127.7188,105.2561 C2128.3281,104.8342 2128.6563,104.4124 2128.6563,104.0061 C2128.6563,103.5374 2128.2344,103.1311 2127.7344,103.1311 C2127.5,103.1311 2127.2813,103.2092 2127.0781,103.4124 C2126.6406,103.8499 2126.6406,103.8499 2126.4688,103.9436 C2126.0156,104.178 2125.375,104.3186 2124.6094,104.3186 C2122.6094,104.3186 2121.3281,103.303 2121.3281,101.7249 L2121.3281,100.678 C2121.3281,98.9749 2122.5469,97.7717 2124.25,97.7717 C2124.8281,97.7717 2125.4063,97.9124 2125.875,98.1624 C2126.3438,98.428 2126.5156,98.6155 2126.5781,98.9749 C2126.7031,99.6467 2126.9531,99.8967 2127.4844,99.8967 C2127.7656,99.8967 2128.0469,99.7561 2128.2344,99.5374 C2128.3594,99.3655 2128.4063,99.1936 2128.4063,98.7561 L2128.4063,97.3967 C2128.4063,96.9749 2128.3906,96.8342 2128.2656,96.6624 C2128.0938,96.4124 2127.8125,96.2561 2127.4844,96.2561 C2127.1719,96.2561 2126.9688,96.3655 2126.75,96.6311 C2125.5781,96.1311 2125.1406,96.0217 2124.1875,96.0217 C2121.5156,96.0217 2119.5,98.0374 2119.5,100.6624 L2119.5,101.7561 Z " fill="#000000"/><text fill="#000000" font-family="sans-serif" font-size="14" lengthAdjust="spacing" textLength="49" x="2141.5" y="102.6058">Toaster</text><rect fill="#E2E2F0" height="36" rx="2.5" ry="2.5" style="stroke:#181818;stroke-width:0.5;" width="91" x="2106.5" y="1100.2002"/><ellipse cx="2124.5" cy="1118.2002" fill="#FFC0CB" rx="11" ry="11" style="stroke:#181818;stroke-width:1.0;"/><path d="M2119.5,1119.3564 C2119.5,1121.8564 2121.6406,1123.6689 2124.5625,1123.6689 C2125.7969,1123.6689 2126.9688,1123.372 2127.7188,1122.8564 C2128.3281,1122.4345 2128.6563,1122.0127 2128.6563,1121.6064 C2128.6563,1121.1377 2128.2344,1120.7314 2127.7344,1120.7314 C2127.5,1120.7314 2127.2813,1120.8095 2127.0781,1121.0127 C2126.6406,1121.4502 2126.6406,1121.4502 2126.4688,1121.5439 C2126.0156,1121.7783 2125.375,1121.9189 2124.6094,1121.9189 C2122.6094,1121.9189 2121.3281,1120.9033 2121.3281,1119.3252 L2121.3281,1118.2783 C2121.3281,1116.5752 2122.5469,1115.372 2124.25,1115.372 C2124.8281,1115.372 2125.4063,1115.5127 2125.875,1115.7627 C2126.3438,1116.0283 2126.5156,1116.2158 2126.5781,1116.5752 C2126.7031,1117.247 2126.9531,1117.497 2127.4844,1117.497 C2127.7656,1117.497 2128.0469,1117.3564 2128.2344,1117.1377 C2128.3594,1116.9658 2128.4063,1116.7939 2128.4063,1116.3564 L2128.4063,1114.997 C2128.4063,1114.5752 2128.3906,1114.4345 2128.2656,1114.2627 C2128.0938,1114.0127 2127.8125,1113.8564 2127.4844,1113.8564 C2127.1719,1113.8564 2126.9688,1113.9658 2126.75,1114.2314 C2125.5781,1113.7314 2125.1406,1113.622 2124.1875,1113.622 C2121.5156,1113.622 2119.5,1115.6377 2119.5,1118.2627 L2119.5,1119.3564 Z " fill="#000000"/><text fill="#000000" font-family="sans-serif" font-size="14" lengthAdjust="spacing" textLength="49" x="2141.5" y="1120.2061">Toaster</text><rect fill="#FFFFFF" height="940.0003" style="stroke:#181818;stroke-width:1.0;" width="10" x="316" y="151.1999"/><rect fill="#FFFFFF" height="779.0002" style="stroke:#181818;stroke-width:1.0;" width="10" x="741.5" y="312.1999"/><rect fill="#FFFFFF" height="59.2" style="stroke:#181818;stroke-width:1.0;" width="10" x="1053.5" y="473.2"/><rect fill="#FFFFFF" height="529.2001" style="stroke:#181818;stroke-width:1.0;" width="10" x="1286" y="562"/><rect fill="#FFFFFF" height="29.6" style="stroke:#181818;stroke-width:1.0;" width="10" x="1466.5" y="621.2001"/><rect fill="#FFFFFF" height="499.6001" style="stroke:#181818;stroke-width:1.0;" width="10" x="1639" y="591.6001"/><rect fill="#FFFFFF" height="410.8001" style="stroke:#181818;stroke-width:1.0;" width="10" x="1905" y="680.4001"/><rect fill="#FFFFFF" height="29.6" style="stroke:#181818;stroke-width:1.0;" width="10" x="2033" y="883.0002"/><rect fill="#FFFFFF" height="30" style="stroke:#181818;stroke-width:1.0;" width="10" x="2147" y="823.4002"/><rect fill="#FFFFFF" height="30" style="stroke:#181818;stroke-width:1.0;" width="10" x="2147" y="1046.2002"/><polygon fill="#181818" points="304,147.1999,314,151.1999,304,155.1999,308,151.1999" style="stroke:#181818;stroke-width:1.0;"/><line style="stroke:#181818;stroke-width:1.0;" x1="28" x2="310" y1="151.1999" y2="151.1999"/><text fill="#000000" font-family="sans-serif" font-size="13" lengthAdjust="spacing" textLength="269" x="35" y="145.6769">Navigates to /dashboard_admin/category_user</text><polygon fill="#181818" points="2026,176.7999,2036,180.7999,2026,184.7999,2030,180.7999" style="stroke:#181818;stroke-width:1.0;"/><line style="stroke:#181818;stroke-width:1.0;" x1="326" x2="2032" y1="180.7999" y2="180.7999"/><text fill="#000000" font-family="sans-serif" font-size="13" lengthAdjust="spacing" textLength="264" x="333" y="175.2769">useQuery(['allUsersForAdminCategoryMgmt'])</text><polygon fill="#181818" points="538,206.3999,548,210.3999,538,214.3999,542,210.3999" style="stroke:#181818;stroke-width:1.0;"/><line style="stroke:#181818;stroke-width:1.0;" x1="28" x2="544" y1="210.3999" y2="210.3999"/><text fill="#000000" font-family="sans-serif" font-size="13" lengthAdjust="spacing" textLength="160" x="35" y="204.8769">Enters user email to search</text><polygon fill="#181818" points="337,235.9999,327,239.9999,337,243.9999,333,239.9999" style="stroke:#181818;stroke-width:1.0;"/><line style="stroke:#181818;stroke-width:1.0;" x1="331" x2="549" y1="239.9999" y2="239.9999"/><text fill="#000000" font-family="sans-serif" font-size="13" lengthAdjust="spacing" textLength="138" x="343" y="234.4769">onChange(searchValue)</text><line style="stroke:#181818;stroke-width:1.0;" x1="326" x2="368" y1="269.5999" y2="269.5999"/><line style="stroke:#181818;stroke-width:1.0;" x1="368" x2="368" y1="269.5999" y2="282.5999"/><line style="stroke:#181818;stroke-width:1.0;" x1="327" x2="368" y1="282.5999" y2="282.5999"/><polygon fill="#181818" points="337,278.5999,327,282.5999,337,286.5999,333,282.5999" style="stroke:#181818;stroke-width:1.0;"/><text fill="#000000" font-family="sans-serif" font-size="13" lengthAdjust="spacing" textLength="205" x="333" y="264.0769">Filters users based on searchEmail</text><polygon fill="#181818" points="729.5,308.1999,739.5,312.1999,729.5,316.1999,733.5,312.1999" style="stroke:#181818;stroke-width:1.0;"/><line style="stroke:#181818;stroke-width:1.0;" x1="326" x2="735.5" y1="312.1999" y2="312.1999"/><text fill="#000000" font-family="sans-serif" font-size="13" lengthAdjust="spacing" textLength="198" x="333" y="306.6769">Renders card for the found user(s)</text><polygon fill="#181818" points="2026,337.7999,2036,341.7999,2026,345.7999,2030,341.7999" style="stroke:#181818;stroke-width:1.0;"/><line style="stroke:#181818;stroke-width:1.0;" x1="751.5" x2="2032" y1="341.7999" y2="341.7999"/><text fill="#000000" font-family="sans-serif" font-size="13" lengthAdjust="spacing" textLength="478" x="758.5" y="336.2769">useQuery(['userCategoriesAdmin', user.id_user]) ' To get user's current categories '</text><polygon fill="#181818" points="2026,367.4,2036,371.4,2026,375.4,2030,371.4" style="stroke:#181818;stroke-width:1.0;"/><line style="stroke:#181818;stroke-width:1.0;" x1="751.5" x2="2032" y1="371.4" y2="371.4"/><text fill="#000000" font-family="sans-serif" font-size="13" lengthAdjust="spacing" textLength="301" x="758.5" y="365.877">useQuery(['allCategories']) ' To get category names '</text><line style="stroke:#181818;stroke-width:1.0;" x1="751.5" x2="793.5" y1="401" y2="401"/><line style="stroke:#181818;stroke-width:1.0;" x1="793.5" x2="793.5" y1="401" y2="414"/><line style="stroke:#181818;stroke-width:1.0;" x1="752.5" x2="793.5" y1="414" y2="414"/><polygon fill="#181818" points="762.5,410,752.5,414,762.5,418,758.5,414" style="stroke:#181818;stroke-width:1.0;"/><text fill="#000000" font-family="sans-serif" font-size="13" lengthAdjust="spacing" textLength="288" x="758.5" y="395.477">Displays user's categories with "Remove" buttons</text><polygon fill="#181818" points="729.5,439.6,739.5,443.6,729.5,447.6,733.5,443.6" style="stroke:#181818;stroke-width:1.0;"/><line style="stroke:#181818;stroke-width:1.0;" x1="28" x2="735.5" y1="443.6" y2="443.6"/><text fill="#000000" font-family="sans-serif" font-size="13" lengthAdjust="spacing" textLength="304" x="35" y="438.077">Clicks "Trash" icon (Remove) for a specific category</text><polygon fill="#181818" points="1041.5,469.2,1051.5,473.2,1041.5,477.2,1045.5,473.2" style="stroke:#181818;stroke-width:1.0;"/><line style="stroke:#181818;stroke-width:1.0;" x1="751.5" x2="1047.5" y1="473.2" y2="473.2"/><text fill="#000000" font-family="sans-serif" font-size="13" lengthAdjust="spacing" textLength="217" x="758.5" y="467.677">Opens AlertDialog to confirm removal</text><polygon fill="#181818" points="1041.5,498.8,1051.5,502.8,1041.5,506.8,1045.5,502.8" style="stroke:#181818;stroke-width:1.0;"/><line style="stroke:#181818;stroke-width:1.0;" x1="28" x2="1047.5" y1="502.8" y2="502.8"/><text fill="#000000" font-family="sans-serif" font-size="13" lengthAdjust="spacing" textLength="129" x="35" y="497.277">Clicks "Yes, Remove"</text><polygon fill="#181818" points="762.5,528.4,752.5,532.4,762.5,536.4,758.5,532.4" style="stroke:#181818;stroke-width:1.0;"/><line style="stroke:#181818;stroke-width:1.0;" x1="756.5" x2="1057.5" y1="532.4" y2="532.4"/><text fill="#000000" font-family="sans-serif" font-size="13" lengthAdjust="spacing" textLength="173" x="768.5" y="526.877">handleDeleteClick(categoryId)</text><polygon fill="#181818" points="1274,558,1284,562,1274,566,1278,562" style="stroke:#181818;stroke-width:1.0;"/><line style="stroke:#181818;stroke-width:1.0;" x1="751.5" x2="1280" y1="562" y2="562"/><text fill="#000000" font-family="sans-serif" font-size="13" lengthAdjust="spacing" textLength="257" x="758.5" y="556.477">deleteUserFromCategory(categoryId, userId)</text><polygon fill="#181818" points="1627,587.6001,1637,591.6001,1627,595.6001,1631,591.6001" style="stroke:#181818;stroke-width:1.0;"/><line style="stroke:#181818;stroke-width:1.0;" x1="1296" x2="1633" y1="591.6001" y2="591.6001"/><text fill="#000000" font-family="sans-serif" font-size="13" lengthAdjust="spacing" textLength="324" x="1303" y="586.0771">fetchJson("/categories/{catId}/user/{userId}", {DELETE})</text><polygon fill="#181818" points="1487.5,617.2001,1477.5,621.2001,1487.5,625.2001,1483.5,621.2001" style="stroke:#181818;stroke-width:1.0;"/><line style="stroke:#181818;stroke-width:1.0;" x1="1481.5" x2="1638" y1="621.2001" y2="621.2001"/><text fill="#000000" font-family="sans-serif" font-size="13" lengthAdjust="spacing" textLength="62" x="1493.5" y="615.6771">getToken()</text><polygon fill="#181818" points="1627,646.8001,1637,650.8001,1627,654.8001,1631,650.8001" style="stroke:#181818;stroke-width:1.0;"/><line style="stroke:#181818;stroke-width:1.0;stroke-dasharray:2.0,2.0;" x1="1471.5" x2="1633" y1="650.8001" y2="650.8001"/><text fill="#000000" font-family="sans-serif" font-size="13" lengthAdjust="spacing" textLength="112" x="1478.5" y="645.2771">"admin_token_xyz"</text><polygon fill="#181818" points="1893,676.4001,1903,680.4001,1893,684.4001,1897,680.4001" style="stroke:#181818;stroke-width:1.0;"/><line style="stroke:#181818;stroke-width:1.0;" x1="1649" x2="1899" y1="680.4001" y2="680.4001"/><text fill="#000000" font-family="sans-serif" font-size="13" lengthAdjust="spacing" textLength="237" x="1656" y="674.8771">DELETE /categories/{catId}/user/{userId}</text><path d="M636,695.4001 L696,695.4001 L696,703.0001 L686,713.0001 L636,713.0001 L636,695.4001 " fill="#EEEEEE" style="stroke:#000000;stroke-width:1.5;"/><rect fill="none" height="388.8001" style="stroke:#000000;stroke-width:1.5;" width="1571.5" x="636" y="695.4001"/><text fill="#000000" font-family="sans-serif" font-size="13" font-weight="bold" lengthAdjust="spacing" textLength="15" x="651" y="708.4771">alt</text><text fill="#000000" font-family="sans-serif" font-size="11" font-weight="bold" lengthAdjust="spacing" textLength="114" x="711" y="707.619">[Removal successful]</text><polygon fill="#181818" points="1660,730.6001,1650,734.6001,1660,738.6001,1656,734.6001" style="stroke:#181818;stroke-width:1.0;"/><line style="stroke:#181818;stroke-width:1.0;stroke-dasharray:2.0,2.0;" x1="1654" x2="1904" y1="734.6001" y2="734.6001"/><text fill="#000000" font-family="sans-serif" font-size="13" lengthAdjust="spacing" textLength="226" x="1666" y="729.0771">HTTP 200 OK (message string or void)</text><polygon fill="#181818" points="1307,760.2001,1297,764.2001,1307,768.2001,1303,764.2001" style="stroke:#181818;stroke-width:1.0;"/><line style="stroke:#181818;stroke-width:1.0;stroke-dasharray:2.0,2.0;" x1="1301" x2="1638" y1="764.2001" y2="764.2001"/><text fill="#000000" font-family="sans-serif" font-size="13" lengthAdjust="spacing" textLength="157" x="1313" y="758.6771">(void or success message)</text><polygon fill="#181818" points="762.5,789.8002,752.5,793.8002,762.5,797.8002,758.5,793.8002" style="stroke:#181818;stroke-width:1.0;"/><line style="stroke:#181818;stroke-width:1.0;stroke-dasharray:2.0,2.0;" x1="756.5" x2="1285" y1="793.8002" y2="793.8002"/><text fill="#000000" font-family="sans-serif" font-size="13" lengthAdjust="spacing" textLength="157" x="768.5" y="788.2772">(void or success message)</text><polygon fill="#181818" points="2135,819.4002,2145,823.4002,2135,827.4002,2139,823.4002" style="stroke:#181818;stroke-width:1.0;"/><line style="stroke:#181818;stroke-width:1.0;" x1="751.5" x2="2141" y1="823.4002" y2="823.4002"/><text fill="#000000" font-family="sans-serif" font-size="13" lengthAdjust="spacing" textLength="277" x="758.5" y="817.8772">toast.success("User removed from category...")</text><polygon fill="#181818" points="2021,879.0002,2031,883.0002,2021,887.0002,2025,883.0002" style="stroke:#181818;stroke-width:1.0;"/><line style="stroke:#181818;stroke-width:1.0;" x1="751.5" x2="2027" y1="883.0002" y2="883.0002"/><text fill="#000000" font-family="sans-serif" font-size="13" lengthAdjust="spacing" textLength="359" x="758.5" y="877.4772">invalidateQueries({queryKey: ['userCategoriesAdmin', userId]})</text><polygon fill="#181818" points="762.5,908.6002,752.5,912.6002,762.5,916.6002,758.5,912.6002" style="stroke:#181818;stroke-width:1.0;"/><line style="stroke:#181818;stroke-width:1.0;" x1="756.5" x2="2037" y1="912.6002" y2="912.6002"/><text fill="#000000" font-family="sans-serif" font-size="13" lengthAdjust="spacing" textLength="279" x="768.5" y="907.0772">Triggers refetch of user's categories, UI updates</text><line style="stroke:#000000;stroke-width:1.0;stroke-dasharray:2.0,2.0;" x1="636" x2="2207.5" y1="921.6002" y2="921.6002"/><text fill="#000000" font-family="sans-serif" font-size="11" font-weight="bold" lengthAdjust="spacing" textLength="113" x="641" y="931.8191">[Error removing user]</text><polygon fill="#181818" points="1660,953.4001,1650,957.4001,1660,961.4001,1656,957.4001" style="stroke:#181818;stroke-width:1.0;"/><line style="stroke:#181818;stroke-width:1.0;stroke-dasharray:2.0,2.0;" x1="1654" x2="1904" y1="957.4001" y2="957.4001"/><text fill="#000000" font-family="sans-serif" font-size="13" lengthAdjust="spacing" textLength="66" x="1666" y="951.8771">HTTP Error</text><polygon fill="#181818" points="1307,983.0001,1297,987.0001,1307,991.0001,1303,987.0001" style="stroke:#181818;stroke-width:1.0;"/><line style="stroke:#181818;stroke-width:1.0;" x1="1301" x2="1638" y1="987.0001" y2="987.0001"/><text fill="#000000" font-family="sans-serif" font-size="13" lengthAdjust="spacing" textLength="70" x="1313" y="981.4771">throws Error</text><polygon fill="#181818" points="762.5,1012.6001,752.5,1016.6001,762.5,1020.6001,758.5,1016.6001" style="stroke:#181818;stroke-width:1.0;"/><line style="stroke:#181818;stroke-width:1.0;stroke-dasharray:2.0,2.0;" x1="756.5" x2="1285" y1="1016.6001" y2="1016.6001"/><text fill="#000000" font-family="sans-serif" font-size="13" lengthAdjust="spacing" textLength="70" x="768.5" y="1011.0771">throws Error</text><polygon fill="#181818" points="2135,1042.2002,2145,1046.2002,2135,1050.2002,2139,1046.2002" style="stroke:#181818;stroke-width:1.0;"/><line style="stroke:#181818;stroke-width:1.0;" x1="751.5" x2="2141" y1="1046.2002" y2="1046.2002"/><text fill="#000000" font-family="sans-serif" font-size="13" lengthAdjust="spacing" textLength="270" x="758.5" y="1040.6772">toast.error("Failed to remove from category...")</text><!--SRC=[fLRRRkCs47tNLmpqOXdmsei-2ei5qiHktTtjfhjEWQ8D0aQYPIAqw2Mff6wGJ-fNzCSwGz8M9Jb9WJv57CyvSpWtnWehELoTt_p0ZHMgPlhCYAfc1NwVCyihfGKpP-LMr91zuLjrppLScOPfeQ3a47p- -PkDS_ZAlpMyBZXS25PfjaqILbYb8NNu59W1ztLbk4vsJ5jHY1shRN0WS-3RNxAAjm2qqezaX7VliYyJfOkDACVlttTfblMkiP3Djqn8LCFGQ-nOdCKRl0-od4-ag3Qsqdm_81heEMUwT4p1IETNIIJN5bCXLGNPkQhNGc_1vz2h2hRWyWfR4PJStBBYZjVbr9e_wf9BRZbfMcYrFOZD0dquVky1560nsNCfrSDGQsCtdrYD2TO-xNIkD66-Ub6tik43M6E5D4x9cjjYyvDHTGY-eFCL_kp3AitgQeWFqiukbpxgvT97j6hBh1gu_z9mB8KKlBREFpfxtCdChHGpDjmhVFjaxqHzHzx9iTpmvlsmutBucTsB2hDfm2gObSniRXKsm0qZrzcnCWtrDRQyk4VBW2SP46Em-0Ov884pPB-Fc9JaPnPA7t0koATgQqVNusG4q-aKFYfM0heIKXjOux0Pr-MYhfp3g7UvmI3aCAyjOOa1k9iSlAHdIGRkf_E3ks93zSqyx5T6lNBolYV02o6F0WpSCiDB90mAd82JJF4WvZXME0i8B-X8QR0RZdyRR7lYpSouBKo4J6AMbyhHjBj0SByFHnD7FHMbA_pr64RONb1nw-mZ5DDeJKp54OZr-AyHiQfjm57CVkWtgDdMKVfUk62MWSI6eDeVKk3ouHkX5xYRlmjXTfBjpL5wA_b1s0saVc-bSDjOgshJQwik6Lwdk3CuU1ed9GLHgEFZCNRA69WTByHQ5CVBzELrTsCEdtUynWKHhLJiqY8iLKtSJBObxg1xMllC1xM_SJC9wpbDkaw36sAtbv9VkEthyDdX7ijod9JyEI7zI_OsT0xFBFIMtJSTHMbZT5cIFYi6QhTn3kscJcTjcMUF-BqidsP4FtlqGPxI2JnUp3_EL_EdAE2HBMbvQRR3cv5JbwuKniuYKFWrENYzwSbAtJAziOIx-NF_LngdyG3kniFN0ZlNoODNhn8fkLmcJ5fVQoR1D4N1ZLatCW57sfVsusfr2T-zVGkVFq268sTe1HchQT2mc-yL_Yk2q4ZSoTfcv4Y041025M47DHkqtFDeXFVwwl3AvJWa-3KDa2nrC-2c1PVi6ZliE7-u8r8ISinIu41JL8U3SHYokyT4ZOaL9KB8ZZN97h-HmmU-p-6bRReihvywCY9UDCTH1XbQQL5Lz0XexdeSr7gupYPmjOHcHz9Czsvn92uDXxdMAcIBAkrUznSQnBbts-1K5zYDLW_cwFrwuNk0LqhDoIrB5_XiOebnH_fg_vzYqqw9Pn779pgsoo1UUxsL5FqKlxunQ- -9_nS0]--></g></svg>