<?xml version="1.0" encoding="us-ascii" standalone="no"?><svg xmlns="http://www.w3.org/2000/svg" xmlns:xlink="http://www.w3.org/1999/xlink" contentStyleType="text/css" height="1008px" preserveAspectRatio="none" style="width:1878px;height:1008px;background:#FFFFFF;" version="1.1" viewBox="0 0 1878 1008" width="1878px" zoomAndPan="magnify"><defs/><g><text fill="#000000" font-family="sans-serif" font-size="14" font-weight="bold" lengthAdjust="spacing" textLength="487" x="696.75" y="28.0059">UC_GestionarSolicitudesAdmin (Aprobar Solicitud): Sequence Diagram</text><rect fill="#FFFFFF" height="766.0002" style="stroke:#181818;stroke-width:1.0;" width="10" x="284" y="151.1999"/><rect fill="#FFFFFF" height="618.0001" style="stroke:#181818;stroke-width:1.0;" width="10" x="535" y="299.1999"/><rect fill="#FFFFFF" height="588.4001" style="stroke:#181818;stroke-width:1.0;" width="10" x="780" y="328.7999"/><rect fill="#FFFFFF" height="29.6" style="stroke:#181818;stroke-width:1.0;" width="10" x="1026" y="210.3999"/><rect fill="#FFFFFF" height="529.2001" style="stroke:#181818;stroke-width:1.0;" width="10" x="1026" y="388"/><rect fill="#FFFFFF" height="29.6" style="stroke:#181818;stroke-width:1.0;" width="10" x="1183.5" y="447.2"/><rect fill="#FFFFFF" height="499.6001" style="stroke:#181818;stroke-width:1.0;" width="10" x="1341" y="417.6"/><rect fill="#FFFFFF" height="410.8001" style="stroke:#181818;stroke-width:1.0;" width="10" x="1569" y="506.4"/><rect fill="#FFFFFF" height="88.8" style="stroke:#181818;stroke-width:1.0;" width="10" x="1697" y="180.7999"/><rect fill="#FFFFFF" height="29.6" style="stroke:#181818;stroke-width:1.0;" width="10" x="1697" y="649.4001"/><rect fill="#FFFFFF" height="30" style="stroke:#181818;stroke-width:1.0;" width="10" x="1811" y="708.6001"/><rect fill="#FFFFFF" height="30" style="stroke:#181818;stroke-width:1.0;" width="10" x="1811" y="872.2001"/><rect fill="none" height="388.8001" style="stroke:#000000;stroke-width:1.5;" width="1680" x="191.5" y="521.4"/><line style="stroke:#181818;stroke-width:0.5;stroke-dasharray:5.0,5.0;" x1="28" x2="28" y1="119.5999" y2="927.2001"/><line style="stroke:#181818;stroke-width:0.5;stroke-dasharray:5.0,5.0;" x1="288.5" x2="288.5" y1="119.5999" y2="927.2001"/><line style="stroke:#181818;stroke-width:0.5;stroke-dasharray:5.0,5.0;" x1="540" x2="540" y1="119.5999" y2="927.2001"/><line style="stroke:#181818;stroke-width:0.5;stroke-dasharray:5.0,5.0;" x1="784.5" x2="784.5" y1="119.5999" y2="927.2001"/><line style="stroke:#181818;stroke-width:0.5;stroke-dasharray:5.0,5.0;" x1="1030.5" x2="1030.5" y1="119.5999" y2="927.2001"/><line style="stroke:#181818;stroke-width:0.5;stroke-dasharray:5.0,5.0;" x1="1188.5" x2="1188.5" y1="119.5999" y2="927.2001"/><line style="stroke:#181818;stroke-width:0.5;stroke-dasharray:5.0,5.0;" x1="1345.5" x2="1345.5" y1="119.5999" y2="927.2001"/><line style="stroke:#181818;stroke-width:0.5;stroke-dasharray:5.0,5.0;" x1="1573.5" x2="1573.5" y1="119.5999" y2="927.2001"/><line style="stroke:#181818;stroke-width:0.5;stroke-dasharray:5.0,5.0;" x1="1701.5" x2="1701.5" y1="119.5999" y2="927.2001"/><line style="stroke:#181818;stroke-width:0.5;stroke-dasharray:5.0,5.0;" x1="1815.5" x2="1815.5" y1="119.5999" y2="927.2001"/><text fill="#000000" font-family="sans-serif" font-size="14" lengthAdjust="spacing" textLength="40" x="5" y="115.8059">Admin</text><ellipse cx="28" cy="51.2999" fill="#E2E2F0" rx="8" ry="8" style="stroke:#181818;stroke-width:0.5;"/><path d="M28,59.2999 L28,86.2999 M15,67.2999 L41,67.2999 M28,86.2999 L15,101.2999 M28,86.2999 L41,101.2999 " fill="none" style="stroke:#181818;stroke-width:0.5;"/><text fill="#000000" font-family="sans-serif" font-size="14" lengthAdjust="spacing" textLength="40" x="5" y="939.206">Admin</text><ellipse cx="28" cy="951.5" fill="#E2E2F0" rx="8" ry="8" style="stroke:#181818;stroke-width:0.5;"/><path d="M28,959.5 L28,986.5 M15,967.5 L41,967.5 M28,986.5 L15,1001.5 M28,986.5 L41,1001.5 " fill="none" style="stroke:#181818;stroke-width:0.5;"/><rect fill="#E2E2F0" height="36" rx="2.5" ry="2.5" style="stroke:#181818;stroke-width:0.5;" width="175" x="201.5" y="82.5999"/><ellipse cx="219.5" cy="100.5999" fill="#DA70D6" rx="11" ry="11" style="stroke:#181818;stroke-width:1.0;"/><path d="M217.3594,101.9905 L218.9375,101.9905 C219.6094,102.2405 221.0938,103.9124 221.9688,105.4905 L222.0313,105.5999 L223.4063,105.5999 C223.7344,105.5999 224.0156,105.553 224.1563,105.4749 C224.4219,105.3186 224.5938,105.0217 224.5938,104.7092 C224.5938,104.4436 224.4375,104.1624 224.2188,104.0061 C224.0313,103.8655 223.8594,103.8342 223.4063,103.8342 L223.2188,103.8342 C222.5625,102.8499 221.8906,102.053 221.1563,101.4124 C222.3594,100.7874 222.9375,99.9905 222.9375,98.9592 C222.9375,97.2249 221.3906,96.0061 219.1406,96.0061 L215.3438,96.0061 C214.8906,96.0061 214.7656,96.0217 214.5938,96.1311 C214.3281,96.303 214.1563,96.5842 214.1563,96.8811 C214.1563,97.1624 214.3125,97.4436 214.5313,97.5999 C214.7188,97.7249 214.9063,97.7561 215.3438,97.7561 L215.5313,97.7561 L215.5313,103.8342 L215.3438,103.8342 C214.9219,103.8342 214.7656,103.8655 214.5938,103.9749 C214.3281,104.1155 214.1563,104.4124 214.1563,104.7092 C214.1563,105.2874 214.5625,105.5999 215.3438,105.5999 L217.8906,105.5999 C218.25,105.5999 218.5,105.553 218.6406,105.4749 C218.9063,105.3186 219.0781,105.0217 219.0781,104.7092 C219.0781,104.4436 218.9531,104.178 218.7031,104.0061 C218.5156,103.8655 218.375,103.8342 217.8906,103.8342 L217.3594,103.8342 L217.3594,101.9905 Z M217.3594,100.2405 L217.3594,97.7561 L219.2031,97.7561 C220.2344,97.7561 221,98.2405 221,98.8967 C221,99.678 219.9844,100.2405 218.5938,100.2405 L217.3594,100.2405 Z " fill="#000000"/><text fill="#000000" font-family="sans-serif" font-size="14" lengthAdjust="spacing" textLength="133" x="236.5" y="102.6058">AdminRequestsPage</text><rect fill="#E2E2F0" height="36" rx="2.5" ry="2.5" style="stroke:#181818;stroke-width:0.5;" width="175" x="201.5" y="926.2001"/><ellipse cx="219.5" cy="944.2001" fill="#DA70D6" rx="11" ry="11" style="stroke:#181818;stroke-width:1.0;"/><path d="M217.3594,945.5907 L218.9375,945.5907 C219.6094,945.8407 221.0938,947.5126 221.9688,949.0907 L222.0313,949.2001 L223.4063,949.2001 C223.7344,949.2001 224.0156,949.1532 224.1563,949.0751 C224.4219,948.9188 224.5938,948.622 224.5938,948.3095 C224.5938,948.0438 224.4375,947.7626 224.2188,947.6063 C224.0313,947.4657 223.8594,947.4345 223.4063,947.4345 L223.2188,947.4345 C222.5625,946.4501 221.8906,945.6532 221.1563,945.0126 C222.3594,944.3876 222.9375,943.5907 222.9375,942.5595 C222.9375,940.8251 221.3906,939.6063 219.1406,939.6063 L215.3438,939.6063 C214.8906,939.6063 214.7656,939.622 214.5938,939.7313 C214.3281,939.9032 214.1563,940.1845 214.1563,940.4813 C214.1563,940.7626 214.3125,941.0438 214.5313,941.2001 C214.7188,941.3251 214.9063,941.3563 215.3438,941.3563 L215.5313,941.3563 L215.5313,947.4345 L215.3438,947.4345 C214.9219,947.4345 214.7656,947.4657 214.5938,947.5751 C214.3281,947.7157 214.1563,948.0126 214.1563,948.3095 C214.1563,948.8876 214.5625,949.2001 215.3438,949.2001 L217.8906,949.2001 C218.25,949.2001 218.5,949.1532 218.6406,949.0751 C218.9063,948.9188 219.0781,948.622 219.0781,948.3095 C219.0781,948.0438 218.9531,947.7782 218.7031,947.6063 C218.5156,947.4657 218.375,947.4345 217.8906,947.4345 L217.3594,947.4345 L217.3594,945.5907 Z M217.3594,943.8407 L217.3594,941.3563 L219.2031,941.3563 C220.2344,941.3563 221,941.8407 221,942.497 C221,943.2782 219.9844,943.8407 218.5938,943.8407 L217.3594,943.8407 Z " fill="#000000"/><text fill="#000000" font-family="sans-serif" font-size="14" lengthAdjust="spacing" textLength="133" x="236.5" y="946.206">AdminRequestsPage</text><rect fill="#E2E2F0" height="36" rx="2.5" ry="2.5" style="stroke:#181818;stroke-width:0.5;" width="156" x="462" y="82.5999"/><ellipse cx="480" cy="100.5999" fill="#D3D3D3" rx="11" ry="11" style="stroke:#181818;stroke-width:1.0;"/><path d="M475,101.7561 C475,104.2561 477.1406,106.0686 480.0625,106.0686 C481.2969,106.0686 482.4688,105.7717 483.2188,105.2561 C483.8281,104.8342 484.1563,104.4124 484.1563,104.0061 C484.1563,103.5374 483.7344,103.1311 483.2344,103.1311 C483,103.1311 482.7813,103.2092 482.5781,103.4124 C482.1406,103.8499 482.1406,103.8499 481.9688,103.9436 C481.5156,104.178 480.875,104.3186 480.1094,104.3186 C478.1094,104.3186 476.8281,103.303 476.8281,101.7249 L476.8281,100.678 C476.8281,98.9749 478.0469,97.7717 479.75,97.7717 C480.3281,97.7717 480.9063,97.9124 481.375,98.1624 C481.8438,98.428 482.0156,98.6155 482.0781,98.9749 C482.2031,99.6467 482.4531,99.8967 482.9844,99.8967 C483.2656,99.8967 483.5469,99.7561 483.7344,99.5374 C483.8594,99.3655 483.9063,99.1936 483.9063,98.7561 L483.9063,97.3967 C483.9063,96.9749 483.8906,96.8342 483.7656,96.6624 C483.5938,96.4124 483.3125,96.2561 482.9844,96.2561 C482.6719,96.2561 482.4688,96.3655 482.25,96.6311 C481.0781,96.1311 480.6406,96.0217 479.6875,96.0217 C477.0156,96.0217 475,98.0374 475,100.6624 L475,101.7561 Z " fill="#000000"/><text fill="#000000" font-family="sans-serif" font-size="14" lengthAdjust="spacing" textLength="114" x="497" y="102.6058">RequestVisualizer</text><rect fill="#E2E2F0" height="36" rx="2.5" ry="2.5" style="stroke:#181818;stroke-width:0.5;" width="156" x="462" y="926.2001"/><ellipse cx="480" cy="944.2001" fill="#D3D3D3" rx="11" ry="11" style="stroke:#181818;stroke-width:1.0;"/><path d="M475,945.3563 C475,947.8563 477.1406,949.6688 480.0625,949.6688 C481.2969,949.6688 482.4688,949.372 483.2188,948.8563 C483.8281,948.4345 484.1563,948.0126 484.1563,947.6063 C484.1563,947.1376 483.7344,946.7313 483.2344,946.7313 C483,946.7313 482.7813,946.8095 482.5781,947.0126 C482.1406,947.4501 482.1406,947.4501 481.9688,947.5438 C481.5156,947.7782 480.875,947.9188 480.1094,947.9188 C478.1094,947.9188 476.8281,946.9032 476.8281,945.3251 L476.8281,944.2782 C476.8281,942.5751 478.0469,941.372 479.75,941.372 C480.3281,941.372 480.9063,941.5126 481.375,941.7626 C481.8438,942.0282 482.0156,942.2157 482.0781,942.5751 C482.2031,943.247 482.4531,943.497 482.9844,943.497 C483.2656,943.497 483.5469,943.3563 483.7344,943.1376 C483.8594,942.9657 483.9063,942.7938 483.9063,942.3563 L483.9063,940.997 C483.9063,940.5751 483.8906,940.4345 483.7656,940.2626 C483.5938,940.0126 483.3125,939.8563 482.9844,939.8563 C482.6719,939.8563 482.4688,939.9657 482.25,940.2313 C481.0781,939.7313 480.6406,939.622 479.6875,939.622 C477.0156,939.622 475,941.6376 475,944.2626 L475,945.3563 Z " fill="#000000"/><text fill="#000000" font-family="sans-serif" font-size="14" lengthAdjust="spacing" textLength="114" x="497" y="946.206">RequestVisualizer</text><rect fill="#E2E2F0" height="36" rx="2.5" ry="2.5" style="stroke:#181818;stroke-width:0.5;" width="305" x="632.5" y="82.5999"/><ellipse cx="650.5" cy="100.5999" fill="#D3D3D3" rx="11" ry="11" style="stroke:#181818;stroke-width:1.0;"/><path d="M645.5,101.7561 C645.5,104.2561 647.6406,106.0686 650.5625,106.0686 C651.7969,106.0686 652.9688,105.7717 653.7188,105.2561 C654.3281,104.8342 654.6563,104.4124 654.6563,104.0061 C654.6563,103.5374 654.2344,103.1311 653.7344,103.1311 C653.5,103.1311 653.2813,103.2092 653.0781,103.4124 C652.6406,103.8499 652.6406,103.8499 652.4688,103.9436 C652.0156,104.178 651.375,104.3186 650.6094,104.3186 C648.6094,104.3186 647.3281,103.303 647.3281,101.7249 L647.3281,100.678 C647.3281,98.9749 648.5469,97.7717 650.25,97.7717 C650.8281,97.7717 651.4063,97.9124 651.875,98.1624 C652.3438,98.428 652.5156,98.6155 652.5781,98.9749 C652.7031,99.6467 652.9531,99.8967 653.4844,99.8967 C653.7656,99.8967 654.0469,99.7561 654.2344,99.5374 C654.3594,99.3655 654.4063,99.1936 654.4063,98.7561 L654.4063,97.3967 C654.4063,96.9749 654.3906,96.8342 654.2656,96.6624 C654.0938,96.4124 653.8125,96.2561 653.4844,96.2561 C653.1719,96.2561 652.9688,96.3655 652.75,96.6311 C651.5781,96.1311 651.1406,96.0217 650.1875,96.0217 C647.5156,96.0217 645.5,98.0374 645.5,100.6624 L645.5,101.7561 Z " fill="#000000"/><text fill="#000000" font-family="sans-serif" font-size="14" lengthAdjust="spacing" textLength="263" x="667.5" y="102.6058">AdminFunctionality (in RequestVisualizer)</text><rect fill="#E2E2F0" height="36" rx="2.5" ry="2.5" style="stroke:#181818;stroke-width:0.5;" width="305" x="632.5" y="926.2001"/><ellipse cx="650.5" cy="944.2001" fill="#D3D3D3" rx="11" ry="11" style="stroke:#181818;stroke-width:1.0;"/><path d="M645.5,945.3563 C645.5,947.8563 647.6406,949.6688 650.5625,949.6688 C651.7969,949.6688 652.9688,949.372 653.7188,948.8563 C654.3281,948.4345 654.6563,948.0126 654.6563,947.6063 C654.6563,947.1376 654.2344,946.7313 653.7344,946.7313 C653.5,946.7313 653.2813,946.8095 653.0781,947.0126 C652.6406,947.4501 652.6406,947.4501 652.4688,947.5438 C652.0156,947.7782 651.375,947.9188 650.6094,947.9188 C648.6094,947.9188 647.3281,946.9032 647.3281,945.3251 L647.3281,944.2782 C647.3281,942.5751 648.5469,941.372 650.25,941.372 C650.8281,941.372 651.4063,941.5126 651.875,941.7626 C652.3438,942.0282 652.5156,942.2157 652.5781,942.5751 C652.7031,943.247 652.9531,943.497 653.4844,943.497 C653.7656,943.497 654.0469,943.3563 654.2344,943.1376 C654.3594,942.9657 654.4063,942.7938 654.4063,942.3563 L654.4063,940.997 C654.4063,940.5751 654.3906,940.4345 654.2656,940.2626 C654.0938,940.0126 653.8125,939.8563 653.4844,939.8563 C653.1719,939.8563 652.9688,939.9657 652.75,940.2313 C651.5781,939.7313 651.1406,939.622 650.1875,939.622 C647.5156,939.622 645.5,941.6376 645.5,944.2626 L645.5,945.3563 Z " fill="#000000"/><text fill="#000000" font-family="sans-serif" font-size="14" lengthAdjust="spacing" textLength="263" x="667.5" y="946.206">AdminFunctionality (in RequestVisualizer)</text><rect fill="#E2E2F0" height="47.5999" rx="2.5" ry="2.5" style="stroke:#181818;stroke-width:0.5;" width="167" x="947.5" y="71"/><ellipse cx="965.5" cy="89" fill="#FFFF00" rx="11" ry="11" style="stroke:#181818;stroke-width:1.0;"/><path d="M964.3594,90.0625 L965.6719,90.0625 L965.6719,90.1094 C965.6719,90.5 965.7031,90.6875 965.7969,90.8438 C965.9688,91.0938 966.2656,91.2656 966.5781,91.2656 C966.8594,91.2656 967.1406,91.125 967.3281,90.9063 C967.4531,90.7188 967.5,90.5625 967.5,90.1094 L967.5,88.2813 C967.5,87.8594 967.4844,87.7344 967.3594,87.5625 C967.2031,87.2969 966.9063,87.125 966.5781,87.125 C966.2813,87.125 966.0156,87.2656 965.8438,87.4844 C965.7031,87.6719 965.6719,87.8438 965.6719,88.2813 L965.6719,88.3281 L964.3594,88.3281 L964.3594,86.1563 L968.5781,86.1563 L968.5781,86.9219 C968.5781,87.3125 968.6094,87.4844 968.7188,87.6406 C968.8906,87.9063 969.1719,88.0625 969.5,88.0625 C969.7813,88.0625 970.0625,87.9375 970.25,87.7031 C970.3906,87.5156 970.4219,87.375 970.4219,86.9219 L970.4219,84.4063 L962.3438,84.4063 C961.9063,84.4063 961.7656,84.4219 961.5938,84.5313 C961.3281,84.7031 961.1563,84.9844 961.1563,85.2813 C961.1563,85.5625 961.3125,85.8438 961.5313,86 C961.7188,86.125 961.9063,86.1563 962.3438,86.1563 L962.5313,86.1563 L962.5313,92.25 L962.3438,92.25 C961.9219,92.25 961.7656,92.2813 961.5938,92.375 C961.3281,92.5313 961.1563,92.8281 961.1563,93.1094 C961.1563,93.6875 961.5625,94 962.3438,94 L966,94 C966.7813,94 967.1875,93.7188 967.1875,93.1094 C967.1875,92.8438 967.0469,92.5938 966.8125,92.4219 C966.625,92.2813 966.4531,92.25 966,92.25 L964.3594,92.25 L964.3594,90.0625 Z " fill="#000000"/><text fill="#000000" font-family="sans-serif" font-size="14" lengthAdjust="spacing" textLength="125" x="982.5" y="91.0059">request_backend.ts</text><text fill="#000000" font-family="sans-serif" font-size="14" lengthAdjust="spacing" textLength="121" x="984.5" y="107.8059">completeRequest()</text><rect fill="#E2E2F0" height="47.5999" rx="2.5" ry="2.5" style="stroke:#181818;stroke-width:0.5;" width="167" x="947.5" y="926.2001"/><ellipse cx="965.5" cy="944.2001" fill="#FFFF00" rx="11" ry="11" style="stroke:#181818;stroke-width:1.0;"/><path d="M964.3594,945.2626 L965.6719,945.2626 L965.6719,945.3095 C965.6719,945.7001 965.7031,945.8876 965.7969,946.0438 C965.9688,946.2938 966.2656,946.4657 966.5781,946.4657 C966.8594,946.4657 967.1406,946.3251 967.3281,946.1063 C967.4531,945.9188 967.5,945.7626 967.5,945.3095 L967.5,943.4813 C967.5,943.0595 967.4844,942.9345 967.3594,942.7626 C967.2031,942.497 966.9063,942.3251 966.5781,942.3251 C966.2813,942.3251 966.0156,942.4657 965.8438,942.6845 C965.7031,942.872 965.6719,943.0438 965.6719,943.4813 L965.6719,943.5282 L964.3594,943.5282 L964.3594,941.3563 L968.5781,941.3563 L968.5781,942.122 C968.5781,942.5126 968.6094,942.6845 968.7188,942.8407 C968.8906,943.1063 969.1719,943.2626 969.5,943.2626 C969.7813,943.2626 970.0625,943.1376 970.25,942.9032 C970.3906,942.7157 970.4219,942.5751 970.4219,942.122 L970.4219,939.6063 L962.3438,939.6063 C961.9063,939.6063 961.7656,939.622 961.5938,939.7313 C961.3281,939.9032 961.1563,940.1845 961.1563,940.4813 C961.1563,940.7626 961.3125,941.0438 961.5313,941.2001 C961.7188,941.3251 961.9063,941.3563 962.3438,941.3563 L962.5313,941.3563 L962.5313,947.4501 L962.3438,947.4501 C961.9219,947.4501 961.7656,947.4813 961.5938,947.5751 C961.3281,947.7313 961.1563,948.0282 961.1563,948.3095 C961.1563,948.8876 961.5625,949.2001 962.3438,949.2001 L966,949.2001 C966.7813,949.2001 967.1875,948.9188 967.1875,948.3095 C967.1875,948.0438 967.0469,947.7938 966.8125,947.622 C966.625,947.4813 966.4531,947.4501 966,947.4501 L964.3594,947.4501 L964.3594,945.2626 Z " fill="#000000"/><text fill="#000000" font-family="sans-serif" font-size="14" lengthAdjust="spacing" textLength="125" x="982.5" y="946.206">request_backend.ts</text><text fill="#000000" font-family="sans-serif" font-size="14" lengthAdjust="spacing" textLength="121" x="984.5" y="963.006">completeRequest()</text><rect fill="#E2E2F0" height="36" rx="2.5" ry="2.5" style="stroke:#181818;stroke-width:0.5;" width="128" x="1124.5" y="82.5999"/><ellipse cx="1142.5" cy="100.5999" fill="#ADD8E6" rx="11" ry="11" style="stroke:#181818;stroke-width:1.0;"/><path d="M1146.3594,96.9124 C1146.3594,96.4749 1146.3438,96.3499 1146.2344,96.178 C1146.0781,95.928 1145.7813,95.7717 1145.4531,95.7717 C1145.1094,95.7717 1144.9219,95.9124 1144.7656,96.2874 C1144.2031,95.9592 1143.4375,95.7717 1142.5625,95.7717 C1140.4219,95.7717 1138.8281,97.0374 1138.8281,98.6936 C1138.8281,99.6467 1139.375,100.5374 1140.25,101.0061 C1140.8125,101.3186 1141.3438,101.4749 1142.4844,101.6624 C1143.6094,101.8655 1143.875,101.928 1144.25,102.0999 C1144.5938,102.2717 1144.8125,102.5686 1144.8125,102.8811 C1144.8125,103.5374 1143.8594,104.053 1142.6406,104.053 C1141.5469,104.053 1140.4844,103.5999 1140.3281,103.053 C1140.1875,102.6155 1140.1875,102.6155 1140.0625,102.4749 C1139.8906,102.3186 1139.6563,102.2405 1139.4063,102.2405 C1139.1094,102.2405 1138.8438,102.3655 1138.6563,102.5842 C1138.5313,102.7561 1138.4844,102.9436 1138.4844,103.3655 L1138.4844,104.4436 C1138.4844,105.2092 1138.7969,105.5842 1139.4063,105.5842 C1139.6875,105.5842 1139.8438,105.4905 1140.125,105.2092 C1140.9844,105.6311 1141.8281,105.8186 1142.75,105.8186 C1145.1094,105.8186 1146.7188,104.6467 1146.7188,102.9124 C1146.7188,102.053 1146.375,101.3655 1145.6875,100.8342 C1145.1563,100.428 1144.4844,100.1936 1142.9844,99.9436 C1141.7031,99.6936 1141.6406,99.678 1141.3125,99.5061 C1140.9688,99.3655 1140.7344,99.0061 1140.7344,98.678 C1140.7344,98.0374 1141.5469,97.5217 1142.5781,97.5217 C1143.625,97.5217 1144.3906,97.9436 1144.5313,98.5686 C1144.6563,99.0999 1144.6563,99.0999 1144.7969,99.2405 C1144.9531,99.3967 1145.2031,99.4905 1145.4531,99.4905 C1145.75,99.4905 1146,99.3655 1146.1875,99.1467 C1146.3281,98.9592 1146.3594,98.8186 1146.3594,98.3655 L1146.3594,96.9124 Z " fill="#000000"/><text fill="#000000" font-family="sans-serif" font-size="14" lengthAdjust="spacing" textLength="86" x="1159.5" y="102.6058">AuthManager</text><rect fill="#E2E2F0" height="36" rx="2.5" ry="2.5" style="stroke:#181818;stroke-width:0.5;" width="128" x="1124.5" y="926.2001"/><ellipse cx="1142.5" cy="944.2001" fill="#ADD8E6" rx="11" ry="11" style="stroke:#181818;stroke-width:1.0;"/><path d="M1146.3594,940.5126 C1146.3594,940.0751 1146.3438,939.9501 1146.2344,939.7782 C1146.0781,939.5282 1145.7813,939.372 1145.4531,939.372 C1145.1094,939.372 1144.9219,939.5126 1144.7656,939.8876 C1144.2031,939.5595 1143.4375,939.372 1142.5625,939.372 C1140.4219,939.372 1138.8281,940.6376 1138.8281,942.2938 C1138.8281,943.247 1139.375,944.1376 1140.25,944.6063 C1140.8125,944.9188 1141.3438,945.0751 1142.4844,945.2626 C1143.6094,945.4657 1143.875,945.5282 1144.25,945.7001 C1144.5938,945.872 1144.8125,946.1688 1144.8125,946.4813 C1144.8125,947.1376 1143.8594,947.6532 1142.6406,947.6532 C1141.5469,947.6532 1140.4844,947.2001 1140.3281,946.6532 C1140.1875,946.2157 1140.1875,946.2157 1140.0625,946.0751 C1139.8906,945.9188 1139.6563,945.8407 1139.4063,945.8407 C1139.1094,945.8407 1138.8438,945.9657 1138.6563,946.1845 C1138.5313,946.3563 1138.4844,946.5438 1138.4844,946.9657 L1138.4844,948.0438 C1138.4844,948.8095 1138.7969,949.1845 1139.4063,949.1845 C1139.6875,949.1845 1139.8438,949.0907 1140.125,948.8095 C1140.9844,949.2313 1141.8281,949.4188 1142.75,949.4188 C1145.1094,949.4188 1146.7188,948.247 1146.7188,946.5126 C1146.7188,945.6532 1146.375,944.9657 1145.6875,944.4345 C1145.1563,944.0282 1144.4844,943.7938 1142.9844,943.5438 C1141.7031,943.2938 1141.6406,943.2782 1141.3125,943.1063 C1140.9688,942.9657 1140.7344,942.6063 1140.7344,942.2782 C1140.7344,941.6376 1141.5469,941.122 1142.5781,941.122 C1143.625,941.122 1144.3906,941.5438 1144.5313,942.1688 C1144.6563,942.7001 1144.6563,942.7001 1144.7969,942.8407 C1144.9531,942.997 1145.2031,943.0907 1145.4531,943.0907 C1145.75,943.0907 1146,942.9657 1146.1875,942.747 C1146.3281,942.5595 1146.3594,942.4188 1146.3594,941.9657 L1146.3594,940.5126 Z " fill="#000000"/><text fill="#000000" font-family="sans-serif" font-size="14" lengthAdjust="spacing" textLength="86" x="1159.5" y="946.206">AuthManager</text><rect fill="#E2E2F0" height="47.5999" rx="2.5" ry="2.5" style="stroke:#181818;stroke-width:0.5;" width="113" x="1289.5" y="71"/><ellipse cx="1307.5" cy="89" fill="#FFA500" rx="11" ry="11" style="stroke:#181818;stroke-width:1.0;"/><path d="M1306.3594,90.0625 L1307.6719,90.0625 L1307.6719,90.1094 C1307.6719,90.5 1307.7031,90.6875 1307.7969,90.8438 C1307.9688,91.0938 1308.2656,91.2656 1308.5781,91.2656 C1308.8594,91.2656 1309.1406,91.125 1309.3281,90.9063 C1309.4531,90.7188 1309.5,90.5625 1309.5,90.1094 L1309.5,88.2813 C1309.5,87.8594 1309.4844,87.7344 1309.3594,87.5625 C1309.2031,87.2969 1308.9063,87.125 1308.5781,87.125 C1308.2813,87.125 1308.0156,87.2656 1307.8438,87.4844 C1307.7031,87.6719 1307.6719,87.8438 1307.6719,88.2813 L1307.6719,88.3281 L1306.3594,88.3281 L1306.3594,86.1563 L1310.5781,86.1563 L1310.5781,86.9219 C1310.5781,87.3125 1310.6094,87.4844 1310.7188,87.6406 C1310.8906,87.9063 1311.1719,88.0625 1311.5,88.0625 C1311.7813,88.0625 1312.0625,87.9375 1312.25,87.7031 C1312.3906,87.5156 1312.4219,87.375 1312.4219,86.9219 L1312.4219,84.4063 L1304.3438,84.4063 C1303.9063,84.4063 1303.7656,84.4219 1303.5938,84.5313 C1303.3281,84.7031 1303.1563,84.9844 1303.1563,85.2813 C1303.1563,85.5625 1303.3125,85.8438 1303.5313,86 C1303.7188,86.125 1303.9063,86.1563 1304.3438,86.1563 L1304.5313,86.1563 L1304.5313,92.25 L1304.3438,92.25 C1303.9219,92.25 1303.7656,92.2813 1303.5938,92.375 C1303.3281,92.5313 1303.1563,92.8281 1303.1563,93.1094 C1303.1563,93.6875 1303.5625,94 1304.3438,94 L1308,94 C1308.7813,94 1309.1875,93.7188 1309.1875,93.1094 C1309.1875,92.8438 1309.0469,92.5938 1308.8125,92.4219 C1308.625,92.2813 1308.4531,92.25 1308,92.25 L1306.3594,92.25 L1306.3594,90.0625 Z " fill="#000000"/><text fill="#000000" font-family="sans-serif" font-size="14" lengthAdjust="spacing" textLength="40" x="1340" y="91.0059">utils.ts</text><text fill="#000000" font-family="sans-serif" font-size="14" lengthAdjust="spacing" textLength="71" x="1324.5" y="107.8059">fetchJson()</text><rect fill="#E2E2F0" height="47.5999" rx="2.5" ry="2.5" style="stroke:#181818;stroke-width:0.5;" width="113" x="1289.5" y="926.2001"/><ellipse cx="1307.5" cy="944.2001" fill="#FFA500" rx="11" ry="11" style="stroke:#181818;stroke-width:1.0;"/><path d="M1306.3594,945.2626 L1307.6719,945.2626 L1307.6719,945.3095 C1307.6719,945.7001 1307.7031,945.8876 1307.7969,946.0438 C1307.9688,946.2938 1308.2656,946.4657 1308.5781,946.4657 C1308.8594,946.4657 1309.1406,946.3251 1309.3281,946.1063 C1309.4531,945.9188 1309.5,945.7626 1309.5,945.3095 L1309.5,943.4813 C1309.5,943.0595 1309.4844,942.9345 1309.3594,942.7626 C1309.2031,942.497 1308.9063,942.3251 1308.5781,942.3251 C1308.2813,942.3251 1308.0156,942.4657 1307.8438,942.6845 C1307.7031,942.872 1307.6719,943.0438 1307.6719,943.4813 L1307.6719,943.5282 L1306.3594,943.5282 L1306.3594,941.3563 L1310.5781,941.3563 L1310.5781,942.122 C1310.5781,942.5126 1310.6094,942.6845 1310.7188,942.8407 C1310.8906,943.1063 1311.1719,943.2626 1311.5,943.2626 C1311.7813,943.2626 1312.0625,943.1376 1312.25,942.9032 C1312.3906,942.7157 1312.4219,942.5751 1312.4219,942.122 L1312.4219,939.6063 L1304.3438,939.6063 C1303.9063,939.6063 1303.7656,939.622 1303.5938,939.7313 C1303.3281,939.9032 1303.1563,940.1845 1303.1563,940.4813 C1303.1563,940.7626 1303.3125,941.0438 1303.5313,941.2001 C1303.7188,941.3251 1303.9063,941.3563 1304.3438,941.3563 L1304.5313,941.3563 L1304.5313,947.4501 L1304.3438,947.4501 C1303.9219,947.4501 1303.7656,947.4813 1303.5938,947.5751 C1303.3281,947.7313 1303.1563,948.0282 1303.1563,948.3095 C1303.1563,948.8876 1303.5625,949.2001 1304.3438,949.2001 L1308,949.2001 C1308.7813,949.2001 1309.1875,948.9188 1309.1875,948.3095 C1309.1875,948.0438 1309.0469,947.7938 1308.8125,947.622 C1308.625,947.4813 1308.4531,947.4501 1308,947.4501 L1306.3594,947.4501 L1306.3594,945.2626 Z " fill="#000000"/><text fill="#000000" font-family="sans-serif" font-size="14" lengthAdjust="spacing" textLength="40" x="1340" y="946.206">utils.ts</text><text fill="#000000" font-family="sans-serif" font-size="14" lengthAdjust="spacing" textLength="71" x="1324.5" y="963.006">fetchJson()</text><rect fill="#E2E2F0" height="36" rx="2.5" ry="2.5" style="stroke:#181818;stroke-width:0.5;" width="119" x="1514.5" y="82.5999"/><ellipse cx="1532.5" cy="100.5999" fill="#FF6347" rx="11" ry="11" style="stroke:#181818;stroke-width:1.0;"/><path d="M1536.3594,96.9124 C1536.3594,96.4749 1536.3438,96.3499 1536.2344,96.178 C1536.0781,95.928 1535.7813,95.7717 1535.4531,95.7717 C1535.1094,95.7717 1534.9219,95.9124 1534.7656,96.2874 C1534.2031,95.9592 1533.4375,95.7717 1532.5625,95.7717 C1530.4219,95.7717 1528.8281,97.0374 1528.8281,98.6936 C1528.8281,99.6467 1529.375,100.5374 1530.25,101.0061 C1530.8125,101.3186 1531.3438,101.4749 1532.4844,101.6624 C1533.6094,101.8655 1533.875,101.928 1534.25,102.0999 C1534.5938,102.2717 1534.8125,102.5686 1534.8125,102.8811 C1534.8125,103.5374 1533.8594,104.053 1532.6406,104.053 C1531.5469,104.053 1530.4844,103.5999 1530.3281,103.053 C1530.1875,102.6155 1530.1875,102.6155 1530.0625,102.4749 C1529.8906,102.3186 1529.6563,102.2405 1529.4063,102.2405 C1529.1094,102.2405 1528.8438,102.3655 1528.6563,102.5842 C1528.5313,102.7561 1528.4844,102.9436 1528.4844,103.3655 L1528.4844,104.4436 C1528.4844,105.2092 1528.7969,105.5842 1529.4063,105.5842 C1529.6875,105.5842 1529.8438,105.4905 1530.125,105.2092 C1530.9844,105.6311 1531.8281,105.8186 1532.75,105.8186 C1535.1094,105.8186 1536.7188,104.6467 1536.7188,102.9124 C1536.7188,102.053 1536.375,101.3655 1535.6875,100.8342 C1535.1563,100.428 1534.4844,100.1936 1532.9844,99.9436 C1531.7031,99.6936 1531.6406,99.678 1531.3125,99.5061 C1530.9688,99.3655 1530.7344,99.0061 1530.7344,98.678 C1530.7344,98.0374 1531.5469,97.5217 1532.5781,97.5217 C1533.625,97.5217 1534.3906,97.9436 1534.5313,98.5686 C1534.6563,99.0999 1534.6563,99.0999 1534.7969,99.2405 C1534.9531,99.3967 1535.2031,99.4905 1535.4531,99.4905 C1535.75,99.4905 1536,99.3655 1536.1875,99.1467 C1536.3281,98.9592 1536.3594,98.8186 1536.3594,98.3655 L1536.3594,96.9124 Z " fill="#000000"/><text fill="#000000" font-family="sans-serif" font-size="14" lengthAdjust="spacing" textLength="77" x="1549.5" y="102.6058">BackendAPI</text><rect fill="#E2E2F0" height="36" rx="2.5" ry="2.5" style="stroke:#181818;stroke-width:0.5;" width="119" x="1514.5" y="926.2001"/><ellipse cx="1532.5" cy="944.2001" fill="#FF6347" rx="11" ry="11" style="stroke:#181818;stroke-width:1.0;"/><path d="M1536.3594,940.5126 C1536.3594,940.0751 1536.3438,939.9501 1536.2344,939.7782 C1536.0781,939.5282 1535.7813,939.372 1535.4531,939.372 C1535.1094,939.372 1534.9219,939.5126 1534.7656,939.8876 C1534.2031,939.5595 1533.4375,939.372 1532.5625,939.372 C1530.4219,939.372 1528.8281,940.6376 1528.8281,942.2938 C1528.8281,943.247 1529.375,944.1376 1530.25,944.6063 C1530.8125,944.9188 1531.3438,945.0751 1532.4844,945.2626 C1533.6094,945.4657 1533.875,945.5282 1534.25,945.7001 C1534.5938,945.872 1534.8125,946.1688 1534.8125,946.4813 C1534.8125,947.1376 1533.8594,947.6532 1532.6406,947.6532 C1531.5469,947.6532 1530.4844,947.2001 1530.3281,946.6532 C1530.1875,946.2157 1530.1875,946.2157 1530.0625,946.0751 C1529.8906,945.9188 1529.6563,945.8407 1529.4063,945.8407 C1529.1094,945.8407 1528.8438,945.9657 1528.6563,946.1845 C1528.5313,946.3563 1528.4844,946.5438 1528.4844,946.9657 L1528.4844,948.0438 C1528.4844,948.8095 1528.7969,949.1845 1529.4063,949.1845 C1529.6875,949.1845 1529.8438,949.0907 1530.125,948.8095 C1530.9844,949.2313 1531.8281,949.4188 1532.75,949.4188 C1535.1094,949.4188 1536.7188,948.247 1536.7188,946.5126 C1536.7188,945.6532 1536.375,944.9657 1535.6875,944.4345 C1535.1563,944.0282 1534.4844,943.7938 1532.9844,943.5438 C1531.7031,943.2938 1531.6406,943.2782 1531.3125,943.1063 C1530.9688,942.9657 1530.7344,942.6063 1530.7344,942.2782 C1530.7344,941.6376 1531.5469,941.122 1532.5781,941.122 C1533.625,941.122 1534.3906,941.5438 1534.5313,942.1688 C1534.6563,942.7001 1534.6563,942.7001 1534.7969,942.8407 C1534.9531,942.997 1535.2031,943.0907 1535.4531,943.0907 C1535.75,943.0907 1536,942.9657 1536.1875,942.747 C1536.3281,942.5595 1536.3594,942.4188 1536.3594,941.9657 L1536.3594,940.5126 Z " fill="#000000"/><text fill="#000000" font-family="sans-serif" font-size="14" lengthAdjust="spacing" textLength="77" x="1549.5" y="946.206">BackendAPI</text><rect fill="#E2E2F0" height="36" rx="2.5" ry="2.5" style="stroke:#181818;stroke-width:0.5;" width="117" x="1643.5" y="82.5999"/><ellipse cx="1661.5" cy="100.5999" fill="#808080" rx="11" ry="11" style="stroke:#181818;stroke-width:1.0;"/><path d="M1665.3594,96.9124 C1665.3594,96.4749 1665.3438,96.3499 1665.2344,96.178 C1665.0781,95.928 1664.7813,95.7717 1664.4531,95.7717 C1664.1094,95.7717 1663.9219,95.9124 1663.7656,96.2874 C1663.2031,95.9592 1662.4375,95.7717 1661.5625,95.7717 C1659.4219,95.7717 1657.8281,97.0374 1657.8281,98.6936 C1657.8281,99.6467 1658.375,100.5374 1659.25,101.0061 C1659.8125,101.3186 1660.3438,101.4749 1661.4844,101.6624 C1662.6094,101.8655 1662.875,101.928 1663.25,102.0999 C1663.5938,102.2717 1663.8125,102.5686 1663.8125,102.8811 C1663.8125,103.5374 1662.8594,104.053 1661.6406,104.053 C1660.5469,104.053 1659.4844,103.5999 1659.3281,103.053 C1659.1875,102.6155 1659.1875,102.6155 1659.0625,102.4749 C1658.8906,102.3186 1658.6563,102.2405 1658.4063,102.2405 C1658.1094,102.2405 1657.8438,102.3655 1657.6563,102.5842 C1657.5313,102.7561 1657.4844,102.9436 1657.4844,103.3655 L1657.4844,104.4436 C1657.4844,105.2092 1657.7969,105.5842 1658.4063,105.5842 C1658.6875,105.5842 1658.8438,105.4905 1659.125,105.2092 C1659.9844,105.6311 1660.8281,105.8186 1661.75,105.8186 C1664.1094,105.8186 1665.7188,104.6467 1665.7188,102.9124 C1665.7188,102.053 1665.375,101.3655 1664.6875,100.8342 C1664.1563,100.428 1663.4844,100.1936 1661.9844,99.9436 C1660.7031,99.6936 1660.6406,99.678 1660.3125,99.5061 C1659.9688,99.3655 1659.7344,99.0061 1659.7344,98.678 C1659.7344,98.0374 1660.5469,97.5217 1661.5781,97.5217 C1662.625,97.5217 1663.3906,97.9436 1663.5313,98.5686 C1663.6563,99.0999 1663.6563,99.0999 1663.7969,99.2405 C1663.9531,99.3967 1664.2031,99.4905 1664.4531,99.4905 C1664.75,99.4905 1665,99.3655 1665.1875,99.1467 C1665.3281,98.9592 1665.3594,98.8186 1665.3594,98.3655 L1665.3594,96.9124 Z " fill="#000000"/><text fill="#000000" font-family="sans-serif" font-size="14" lengthAdjust="spacing" textLength="75" x="1678.5" y="102.6058">QueryClient</text><rect fill="#E2E2F0" height="36" rx="2.5" ry="2.5" style="stroke:#181818;stroke-width:0.5;" width="117" x="1643.5" y="926.2001"/><ellipse cx="1661.5" cy="944.2001" fill="#808080" rx="11" ry="11" style="stroke:#181818;stroke-width:1.0;"/><path d="M1665.3594,940.5126 C1665.3594,940.0751 1665.3438,939.9501 1665.2344,939.7782 C1665.0781,939.5282 1664.7813,939.372 1664.4531,939.372 C1664.1094,939.372 1663.9219,939.5126 1663.7656,939.8876 C1663.2031,939.5595 1662.4375,939.372 1661.5625,939.372 C1659.4219,939.372 1657.8281,940.6376 1657.8281,942.2938 C1657.8281,943.247 1658.375,944.1376 1659.25,944.6063 C1659.8125,944.9188 1660.3438,945.0751 1661.4844,945.2626 C1662.6094,945.4657 1662.875,945.5282 1663.25,945.7001 C1663.5938,945.872 1663.8125,946.1688 1663.8125,946.4813 C1663.8125,947.1376 1662.8594,947.6532 1661.6406,947.6532 C1660.5469,947.6532 1659.4844,947.2001 1659.3281,946.6532 C1659.1875,946.2157 1659.1875,946.2157 1659.0625,946.0751 C1658.8906,945.9188 1658.6563,945.8407 1658.4063,945.8407 C1658.1094,945.8407 1657.8438,945.9657 1657.6563,946.1845 C1657.5313,946.3563 1657.4844,946.5438 1657.4844,946.9657 L1657.4844,948.0438 C1657.4844,948.8095 1657.7969,949.1845 1658.4063,949.1845 C1658.6875,949.1845 1658.8438,949.0907 1659.125,948.8095 C1659.9844,949.2313 1660.8281,949.4188 1661.75,949.4188 C1664.1094,949.4188 1665.7188,948.247 1665.7188,946.5126 C1665.7188,945.6532 1665.375,944.9657 1664.6875,944.4345 C1664.1563,944.0282 1663.4844,943.7938 1661.9844,943.5438 C1660.7031,943.2938 1660.6406,943.2782 1660.3125,943.1063 C1659.9688,942.9657 1659.7344,942.6063 1659.7344,942.2782 C1659.7344,941.6376 1660.5469,941.122 1661.5781,941.122 C1662.625,941.122 1663.3906,941.5438 1663.5313,942.1688 C1663.6563,942.7001 1663.6563,942.7001 1663.7969,942.8407 C1663.9531,942.997 1664.2031,943.0907 1664.4531,943.0907 C1664.75,943.0907 1665,942.9657 1665.1875,942.747 C1665.3281,942.5595 1665.3594,942.4188 1665.3594,941.9657 L1665.3594,940.5126 Z " fill="#000000"/><text fill="#000000" font-family="sans-serif" font-size="14" lengthAdjust="spacing" textLength="75" x="1678.5" y="946.206">QueryClient</text><rect fill="#E2E2F0" height="36" rx="2.5" ry="2.5" style="stroke:#181818;stroke-width:0.5;" width="91" x="1770.5" y="82.5999"/><ellipse cx="1788.5" cy="100.5999" fill="#FFC0CB" rx="11" ry="11" style="stroke:#181818;stroke-width:1.0;"/><path d="M1783.5,101.7561 C1783.5,104.2561 1785.6406,106.0686 1788.5625,106.0686 C1789.7969,106.0686 1790.9688,105.7717 1791.7188,105.2561 C1792.3281,104.8342 1792.6563,104.4124 1792.6563,104.0061 C1792.6563,103.5374 1792.2344,103.1311 1791.7344,103.1311 C1791.5,103.1311 1791.2813,103.2092 1791.0781,103.4124 C1790.6406,103.8499 1790.6406,103.8499 1790.4688,103.9436 C1790.0156,104.178 1789.375,104.3186 1788.6094,104.3186 C1786.6094,104.3186 1785.3281,103.303 1785.3281,101.7249 L1785.3281,100.678 C1785.3281,98.9749 1786.5469,97.7717 1788.25,97.7717 C1788.8281,97.7717 1789.4063,97.9124 1789.875,98.1624 C1790.3438,98.428 1790.5156,98.6155 1790.5781,98.9749 C1790.7031,99.6467 1790.9531,99.8967 1791.4844,99.8967 C1791.7656,99.8967 1792.0469,99.7561 1792.2344,99.5374 C1792.3594,99.3655 1792.4063,99.1936 1792.4063,98.7561 L1792.4063,97.3967 C1792.4063,96.9749 1792.3906,96.8342 1792.2656,96.6624 C1792.0938,96.4124 1791.8125,96.2561 1791.4844,96.2561 C1791.1719,96.2561 1790.9688,96.3655 1790.75,96.6311 C1789.5781,96.1311 1789.1406,96.0217 1788.1875,96.0217 C1785.5156,96.0217 1783.5,98.0374 1783.5,100.6624 L1783.5,101.7561 Z " fill="#000000"/><text fill="#000000" font-family="sans-serif" font-size="14" lengthAdjust="spacing" textLength="49" x="1805.5" y="102.6058">Toaster</text><rect fill="#E2E2F0" height="36" rx="2.5" ry="2.5" style="stroke:#181818;stroke-width:0.5;" width="91" x="1770.5" y="926.2001"/><ellipse cx="1788.5" cy="944.2001" fill="#FFC0CB" rx="11" ry="11" style="stroke:#181818;stroke-width:1.0;"/><path d="M1783.5,945.3563 C1783.5,947.8563 1785.6406,949.6688 1788.5625,949.6688 C1789.7969,949.6688 1790.9688,949.372 1791.7188,948.8563 C1792.3281,948.4345 1792.6563,948.0126 1792.6563,947.6063 C1792.6563,947.1376 1792.2344,946.7313 1791.7344,946.7313 C1791.5,946.7313 1791.2813,946.8095 1791.0781,947.0126 C1790.6406,947.4501 1790.6406,947.4501 1790.4688,947.5438 C1790.0156,947.7782 1789.375,947.9188 1788.6094,947.9188 C1786.6094,947.9188 1785.3281,946.9032 1785.3281,945.3251 L1785.3281,944.2782 C1785.3281,942.5751 1786.5469,941.372 1788.25,941.372 C1788.8281,941.372 1789.4063,941.5126 1789.875,941.7626 C1790.3438,942.0282 1790.5156,942.2157 1790.5781,942.5751 C1790.7031,943.247 1790.9531,943.497 1791.4844,943.497 C1791.7656,943.497 1792.0469,943.3563 1792.2344,943.1376 C1792.3594,942.9657 1792.4063,942.7938 1792.4063,942.3563 L1792.4063,940.997 C1792.4063,940.5751 1792.3906,940.4345 1792.2656,940.2626 C1792.0938,940.0126 1791.8125,939.8563 1791.4844,939.8563 C1791.1719,939.8563 1790.9688,939.9657 1790.75,940.2313 C1789.5781,939.7313 1789.1406,939.622 1788.1875,939.622 C1785.5156,939.622 1783.5,941.6376 1783.5,944.2626 L1783.5,945.3563 Z " fill="#000000"/><text fill="#000000" font-family="sans-serif" font-size="14" lengthAdjust="spacing" textLength="49" x="1805.5" y="946.206">Toaster</text><rect fill="#FFFFFF" height="766.0002" style="stroke:#181818;stroke-width:1.0;" width="10" x="284" y="151.1999"/><rect fill="#FFFFFF" height="618.0001" style="stroke:#181818;stroke-width:1.0;" width="10" x="535" y="299.1999"/><rect fill="#FFFFFF" height="588.4001" style="stroke:#181818;stroke-width:1.0;" width="10" x="780" y="328.7999"/><rect fill="#FFFFFF" height="29.6" style="stroke:#181818;stroke-width:1.0;" width="10" x="1026" y="210.3999"/><rect fill="#FFFFFF" height="529.2001" style="stroke:#181818;stroke-width:1.0;" width="10" x="1026" y="388"/><rect fill="#FFFFFF" height="29.6" style="stroke:#181818;stroke-width:1.0;" width="10" x="1183.5" y="447.2"/><rect fill="#FFFFFF" height="499.6001" style="stroke:#181818;stroke-width:1.0;" width="10" x="1341" y="417.6"/><rect fill="#FFFFFF" height="410.8001" style="stroke:#181818;stroke-width:1.0;" width="10" x="1569" y="506.4"/><rect fill="#FFFFFF" height="88.8" style="stroke:#181818;stroke-width:1.0;" width="10" x="1697" y="180.7999"/><rect fill="#FFFFFF" height="29.6" style="stroke:#181818;stroke-width:1.0;" width="10" x="1697" y="649.4001"/><rect fill="#FFFFFF" height="30" style="stroke:#181818;stroke-width:1.0;" width="10" x="1811" y="708.6001"/><rect fill="#FFFFFF" height="30" style="stroke:#181818;stroke-width:1.0;" width="10" x="1811" y="872.2001"/><polygon fill="#181818" points="272,147.1999,282,151.1999,272,155.1999,276,151.1999" style="stroke:#181818;stroke-width:1.0;"/><line style="stroke:#181818;stroke-width:1.0;" x1="28" x2="278" y1="151.1999" y2="151.1999"/><text fill="#000000" font-family="sans-serif" font-size="13" lengthAdjust="spacing" textLength="237" x="35" y="145.6769">Navigates to /dashboard_admin/requests</text><polygon fill="#181818" points="1685,176.7999,1695,180.7999,1685,184.7999,1689,180.7999" style="stroke:#181818;stroke-width:1.0;"/><line style="stroke:#181818;stroke-width:1.0;" x1="294" x2="1691" y1="180.7999" y2="180.7999"/><text fill="#000000" font-family="sans-serif" font-size="13" lengthAdjust="spacing" textLength="126" x="301" y="175.2769">useQuery(['requests'])</text><polygon fill="#181818" points="1047,206.3999,1037,210.3999,1047,214.3999,1043,210.3999" style="stroke:#181818;stroke-width:1.0;"/><line style="stroke:#181818;stroke-width:1.0;" x1="1041" x2="1696" y1="210.3999" y2="210.3999"/><text fill="#000000" font-family="sans-serif" font-size="13" lengthAdjust="spacing" textLength="80" x="1053" y="204.8769">listRequests()</text><polygon fill="#181818" points="1685,235.9999,1695,239.9999,1685,243.9999,1689,239.9999" style="stroke:#181818;stroke-width:1.0;"/><line style="stroke:#181818;stroke-width:1.0;stroke-dasharray:2.0,2.0;" x1="1031" x2="1691" y1="239.9999" y2="239.9999"/><text fill="#000000" font-family="sans-serif" font-size="13" lengthAdjust="spacing" textLength="56" x="1038" y="234.4769">Request[]</text><polygon fill="#181818" points="305,265.5999,295,269.5999,305,273.5999,301,269.5999" style="stroke:#181818;stroke-width:1.0;"/><line style="stroke:#181818;stroke-width:1.0;stroke-dasharray:2.0,2.0;" x1="299" x2="1701" y1="269.5999" y2="269.5999"/><text fill="#000000" font-family="sans-serif" font-size="13" lengthAdjust="spacing" textLength="56" x="311" y="264.0769">Request[]</text><polygon fill="#181818" points="523,295.1999,533,299.1999,523,303.1999,527,299.1999" style="stroke:#181818;stroke-width:1.0;"/><line style="stroke:#181818;stroke-width:1.0;" x1="294" x2="529" y1="299.1999" y2="299.1999"/><text fill="#000000" font-family="sans-serif" font-size="13" lengthAdjust="spacing" textLength="222" x="301" y="293.6769">Renders request card for each request</text><polygon fill="#181818" points="768,324.7999,778,328.7999,768,332.7999,772,328.7999" style="stroke:#181818;stroke-width:1.0;"/><line style="stroke:#181818;stroke-width:1.0;" x1="545" x2="774" y1="328.7999" y2="328.7999"/><text fill="#000000" font-family="sans-serif" font-size="13" lengthAdjust="spacing" textLength="216" x="552" y="323.2769">Renders "Approve" / "Reject" buttons</text><polygon fill="#181818" points="768,354.4,778,358.4,768,362.4,772,358.4" style="stroke:#181818;stroke-width:1.0;"/><line style="stroke:#181818;stroke-width:1.0;" x1="28" x2="774" y1="358.4" y2="358.4"/><text fill="#000000" font-family="sans-serif" font-size="13" lengthAdjust="spacing" textLength="175" x="35" y="352.877">Clicks "Approve" for a request</text><polygon fill="#181818" points="1014,384,1024,388,1014,392,1018,388" style="stroke:#181818;stroke-width:1.0;"/><line style="stroke:#181818;stroke-width:1.0;" x1="790" x2="1020" y1="388" y2="388"/><text fill="#000000" font-family="sans-serif" font-size="13" lengthAdjust="spacing" textLength="193" x="797" y="382.477">completeRequest(requestId, true)</text><polygon fill="#181818" points="1329,413.6,1339,417.6,1329,421.6,1333,417.6" style="stroke:#181818;stroke-width:1.0;"/><line style="stroke:#181818;stroke-width:1.0;" x1="1036" x2="1335" y1="417.6" y2="417.6"/><text fill="#000000" font-family="sans-serif" font-size="13" lengthAdjust="spacing" textLength="286" x="1043" y="412.077">fetchJson("/requests/{id}/complete/true", {POST})</text><polygon fill="#181818" points="1204.5,443.2,1194.5,447.2,1204.5,451.2,1200.5,447.2" style="stroke:#181818;stroke-width:1.0;"/><line style="stroke:#181818;stroke-width:1.0;" x1="1198.5" x2="1340" y1="447.2" y2="447.2"/><text fill="#000000" font-family="sans-serif" font-size="13" lengthAdjust="spacing" textLength="62" x="1210.5" y="441.677">getToken()</text><polygon fill="#181818" points="1329,472.8,1339,476.8,1329,480.8,1333,476.8" style="stroke:#181818;stroke-width:1.0;"/><line style="stroke:#181818;stroke-width:1.0;stroke-dasharray:2.0,2.0;" x1="1188.5" x2="1335" y1="476.8" y2="476.8"/><text fill="#000000" font-family="sans-serif" font-size="13" lengthAdjust="spacing" textLength="112" x="1195.5" y="471.277">"admin_token_xyz"</text><polygon fill="#181818" points="1557,502.4,1567,506.4,1557,510.4,1561,506.4" style="stroke:#181818;stroke-width:1.0;"/><line style="stroke:#181818;stroke-width:1.0;" x1="1351" x2="1563" y1="506.4" y2="506.4"/><text fill="#000000" font-family="sans-serif" font-size="13" lengthAdjust="spacing" textLength="199" x="1358" y="500.877">POST /requests/{id}/complete/true</text><path d="M191.5,521.4 L251.5,521.4 L251.5,529 L241.5,539 L191.5,539 L191.5,521.4 " fill="#EEEEEE" style="stroke:#000000;stroke-width:1.5;"/><rect fill="none" height="388.8001" style="stroke:#000000;stroke-width:1.5;" width="1680" x="191.5" y="521.4"/><text fill="#000000" font-family="sans-serif" font-size="13" font-weight="bold" lengthAdjust="spacing" textLength="15" x="206.5" y="534.477">alt</text><text fill="#000000" font-family="sans-serif" font-size="11" font-weight="bold" lengthAdjust="spacing" textLength="180" x="266.5" y="533.619">[Request completed successfully]</text><polygon fill="#181818" points="1362,556.6001,1352,560.6001,1362,564.6001,1358,560.6001" style="stroke:#181818;stroke-width:1.0;"/><line style="stroke:#181818;stroke-width:1.0;stroke-dasharray:2.0,2.0;" x1="1356" x2="1568" y1="560.6001" y2="560.6001"/><text fill="#000000" font-family="sans-serif" font-size="13" lengthAdjust="spacing" textLength="190" x="1368" y="555.0771">HTTP 200 OK (message or void)</text><polygon fill="#181818" points="1047,586.2001,1037,590.2001,1047,594.2001,1043,590.2001" style="stroke:#181818;stroke-width:1.0;"/><line style="stroke:#181818;stroke-width:1.0;stroke-dasharray:2.0,2.0;" x1="1041" x2="1340" y1="590.2001" y2="590.2001"/><text fill="#000000" font-family="sans-serif" font-size="13" lengthAdjust="spacing" textLength="157" x="1053" y="584.6771">(void or success message)</text><polygon fill="#181818" points="801,615.8001,791,619.8001,801,623.8001,797,619.8001" style="stroke:#181818;stroke-width:1.0;"/><line style="stroke:#181818;stroke-width:1.0;stroke-dasharray:2.0,2.0;" x1="795" x2="1025" y1="619.8001" y2="619.8001"/><text fill="#000000" font-family="sans-serif" font-size="13" lengthAdjust="spacing" textLength="157" x="807" y="614.2771">(void or success message)</text><polygon fill="#181818" points="1685,645.4001,1695,649.4001,1685,653.4001,1689,649.4001" style="stroke:#181818;stroke-width:1.0;"/><line style="stroke:#181818;stroke-width:1.0;" x1="790" x2="1691" y1="649.4001" y2="649.4001"/><text fill="#000000" font-family="sans-serif" font-size="13" lengthAdjust="spacing" textLength="241" x="797" y="643.8771">invalidateQueries({queryKey: ['requests']})</text><polygon fill="#181818" points="305,675.0001,295,679.0001,305,683.0001,301,679.0001" style="stroke:#181818;stroke-width:1.0;"/><line style="stroke:#181818;stroke-width:1.0;" x1="299" x2="1701" y1="679.0001" y2="679.0001"/><text fill="#000000" font-family="sans-serif" font-size="13" lengthAdjust="spacing" textLength="181" x="311" y="673.4771">Triggers refetch of requests list</text><polygon fill="#181818" points="1799,704.6001,1809,708.6001,1799,712.6001,1803,708.6001" style="stroke:#181818;stroke-width:1.0;"/><line style="stroke:#181818;stroke-width:1.0;" x1="790" x2="1805" y1="708.6001" y2="708.6001"/><text fill="#000000" font-family="sans-serif" font-size="13" lengthAdjust="spacing" textLength="205" x="797" y="703.0771">toast.success("Request approved")</text><line style="stroke:#000000;stroke-width:1.0;stroke-dasharray:2.0,2.0;" x1="191.5" x2="1871.5" y1="747.6001" y2="747.6001"/><text fill="#000000" font-family="sans-serif" font-size="11" font-weight="bold" lengthAdjust="spacing" textLength="140" x="196.5" y="757.8191">[Error completing request]</text><polygon fill="#181818" points="1362,779.4,1352,783.4,1362,787.4,1358,783.4" style="stroke:#181818;stroke-width:1.0;"/><line style="stroke:#181818;stroke-width:1.0;stroke-dasharray:2.0,2.0;" x1="1356" x2="1568" y1="783.4" y2="783.4"/><text fill="#000000" font-family="sans-serif" font-size="13" lengthAdjust="spacing" textLength="66" x="1368" y="777.877">HTTP Error</text><polygon fill="#181818" points="1047,809.0001,1037,813.0001,1047,817.0001,1043,813.0001" style="stroke:#181818;stroke-width:1.0;"/><line style="stroke:#181818;stroke-width:1.0;" x1="1041" x2="1340" y1="813.0001" y2="813.0001"/><text fill="#000000" font-family="sans-serif" font-size="13" lengthAdjust="spacing" textLength="70" x="1053" y="807.4771">throws Error</text><polygon fill="#181818" points="801,838.6001,791,842.6001,801,846.6001,797,842.6001" style="stroke:#181818;stroke-width:1.0;"/><line style="stroke:#181818;stroke-width:1.0;stroke-dasharray:2.0,2.0;" x1="795" x2="1025" y1="842.6001" y2="842.6001"/><text fill="#000000" font-family="sans-serif" font-size="13" lengthAdjust="spacing" textLength="70" x="807" y="837.0771">throws Error</text><polygon fill="#181818" points="1799,868.2001,1809,872.2001,1799,876.2001,1803,872.2001" style="stroke:#181818;stroke-width:1.0;"/><line style="stroke:#181818;stroke-width:1.0;" x1="790" x2="1805" y1="872.2001" y2="872.2001"/><text fill="#000000" font-family="sans-serif" font-size="13" lengthAdjust="spacing" textLength="150" x="797" y="866.6771">toast.error(error.message)</text><!--SRC=[ZLLTRzem57tFhxZA2q6YKEqngf0OMpTMRMM5xgMha4bCy6fYQZjqjEf_d-quYVF1sXT4d7FE_V2vDv98Yk5sklg2XIGiHNp1A8c8p68i9l6Ef11Czfoj4OVoJJ-41NxCS1fX-4HGmj7Eyr0a6GVVS7n00io_Mu6vjqTSAkOUfT82RZHTI3572JPWzm0kBeAR0UFHbiJzyRXEjy1VH6I8acVCNVeKyLYpfmDAagrCE3ws14pyoooDJBcKo2C4gigMRjyLDgI9eOYt0l2SibgZw06dyL2Atsd4TdkA9RPoGKtyOmxKkfU38wQKFRMppkJsEqfLT_A2pNF2DMUHvxAc6MxHCaceC1bii8ostmHBRUnB_NohNkTX6KTfqkRRr2RpMHvrFiiZIhP3ahNWFpFCZrDAS2eDtddEUPqDMp8afAtB_izxl2VfWqPxNkabE1lNlHB23tGW2P9OW6GmYf7OhfdomGffpiZUXj3-90S5gz6zcfRITZCE8HFO70HtlKAdTz-lf1oqvpAh98kx3O4I8OjeGR-LZWLwFHWEXr3UbfRINLUb9LW2eXIAJ0omvpK2dRMAi82xUo_6fwBMac-tk5F2BRxLHtSWDJ-DCHT5wX3fuurQ5qfjMvosMgB9dYjKwTRciTBt9tkrgmvgfOpqflY38-N3TIQbWhNaNOrkXpMYg5gZ1pU8hW2LwNUHkepGt0MMFui78BcQuPFMQDxqs1dYiB9Cu9Uc7xsG-7LK11nfUNy0B_FhnVBLYLFAU9MWzftTCQ6stfAfeAvlxLklG9qryl7D_Asavgt-7fzzrpi5kHvF-Jm4dHpyhm8dXVdCGrGMVIex6uF8eWWBiSaeFNfWb9lvVLqkv_3X_1okho3OAR1shhhG0rDV7SLnKkkwnK3ZDDw60YkXgHqZsUseqoALIjDFzU4cwK5zhcBL3NrEi0XU7ZNW2Xz3SBVMgqwiStO1kbTNCVnBJf8adrxZCM2RQWVfhQOKJgo5aqKKQpvKYqtz6zhwW-Bp3YYViTYlfMrfzO358QO2msVELJkj4KYQbDFv7nCOJlt6EovSRZbx4YNutNVSpNkh8LZ30_CxT9prpawePU4EcneJvx6QzjFVW_QRshPilpQxkdriFFGF]--></g></svg>