<?xml version="1.0" encoding="us-ascii" standalone="no"?><svg xmlns="http://www.w3.org/2000/svg" xmlns:xlink="http://www.w3.org/1999/xlink" contentStyleType="text/css" height="1174px" preserveAspectRatio="none" style="width:1838px;height:1174px;background:#FFFFFF;" version="1.1" viewBox="0 0 1838 1174" width="1838px" zoomAndPan="magnify"><defs/><g><text fill="#000000" font-family="sans-serif" font-size="14" font-weight="bold" lengthAdjust="spacing" textLength="477" x="681.75" y="28.0059">UC_GestionarSolicitudesUsuario (Crear Solicitud): Sequence Diagram</text><rect fill="#FFFFFF" height="932.0002" style="stroke:#181818;stroke-width:1.0;" width="10" x="278.5" y="151.1999"/><rect fill="#FFFFFF" height="902.4001" style="stroke:#181818;stroke-width:1.0;" width="10" x="511.5" y="180.7999"/><rect fill="#FFFFFF" height="88.8" style="stroke:#181818;stroke-width:1.0;" width="10" x="760.5" y="210.3999"/><rect fill="#FFFFFF" height="30" style="stroke:#181818;stroke-width:1.0;" width="10" x="760.5" y="792.8002"/><rect fill="#FFFFFF" height="588.8001" style="stroke:#181818;stroke-width:1.0;" width="10" x="958.5" y="412.6"/><rect fill="#FFFFFF" height="29.6" style="stroke:#181818;stroke-width:1.0;" width="10" x="1116" y="328.7999"/><rect fill="#FFFFFF" height="29.6" style="stroke:#181818;stroke-width:1.0;" width="10" x="1116" y="471.8"/><rect fill="#FFFFFF" height="559.2001" style="stroke:#181818;stroke-width:1.0;" width="10" x="1252" y="442.2"/><rect fill="#FFFFFF" height="470.4001" style="stroke:#181818;stroke-width:1.0;" width="10" x="1519" y="531"/><rect fill="#FFFFFF" height="29.6" style="stroke:#181818;stroke-width:1.0;" width="10" x="1647" y="733.6001"/><rect fill="#FFFFFF" height="30" style="stroke:#181818;stroke-width:1.0;" width="10" x="1761" y="674.0001"/><rect fill="#FFFFFF" height="30" style="stroke:#181818;stroke-width:1.0;" width="10" x="1761" y="956.4001"/><rect fill="#FFFFFF" height="30" style="stroke:#181818;stroke-width:1.0;" width="10" x="1761" y="1038.2"/><rect fill="none" height="702.8001" style="stroke:#000000;stroke-width:1.5;" width="1687.5" x="144" y="373.4"/><rect fill="none" height="448.4001" style="stroke:#000000;stroke-width:1.5;" width="1667.5" x="154" y="546"/><line style="stroke:#181818;stroke-width:0.5;stroke-dasharray:5.0,5.0;" x1="32" x2="32" y1="119.5999" y2="1093.2"/><line style="stroke:#181818;stroke-width:0.5;stroke-dasharray:5.0,5.0;" x1="283" x2="283" y1="119.5999" y2="1093.2"/><line style="stroke:#181818;stroke-width:0.5;stroke-dasharray:5.0,5.0;" x1="516" x2="516" y1="119.5999" y2="1093.2"/><line style="stroke:#181818;stroke-width:0.5;stroke-dasharray:5.0,5.0;" x1="765" x2="765" y1="119.5999" y2="1093.2"/><line style="stroke:#181818;stroke-width:0.5;stroke-dasharray:5.0,5.0;" x1="963" x2="963" y1="119.5999" y2="1093.2"/><line style="stroke:#181818;stroke-width:0.5;stroke-dasharray:5.0,5.0;" x1="1121" x2="1121" y1="119.5999" y2="1093.2"/><line style="stroke:#181818;stroke-width:0.5;stroke-dasharray:5.0,5.0;" x1="1256.5" x2="1256.5" y1="119.5999" y2="1093.2"/><line style="stroke:#181818;stroke-width:0.5;stroke-dasharray:5.0,5.0;" x1="1523.5" x2="1523.5" y1="119.5999" y2="1093.2"/><line style="stroke:#181818;stroke-width:0.5;stroke-dasharray:5.0,5.0;" x1="1651.5" x2="1651.5" y1="119.5999" y2="1093.2"/><line style="stroke:#181818;stroke-width:0.5;stroke-dasharray:5.0,5.0;" x1="1765.5" x2="1765.5" y1="119.5999" y2="1093.2"/><text fill="#000000" font-family="sans-serif" font-size="14" lengthAdjust="spacing" textLength="49" x="5" y="115.8059">Usuario</text><ellipse cx="32.5" cy="51.2999" fill="#E2E2F0" rx="8" ry="8" style="stroke:#181818;stroke-width:0.5;"/><path d="M32.5,59.2999 L32.5,86.2999 M19.5,67.2999 L45.5,67.2999 M32.5,86.2999 L19.5,101.2999 M32.5,86.2999 L45.5,101.2999 " fill="none" style="stroke:#181818;stroke-width:0.5;"/><text fill="#000000" font-family="sans-serif" font-size="14" lengthAdjust="spacing" textLength="49" x="5" y="1105.206">Usuario</text><ellipse cx="32.5" cy="1117.5" fill="#E2E2F0" rx="8" ry="8" style="stroke:#181818;stroke-width:0.5;"/><path d="M32.5,1125.5 L32.5,1152.5 M19.5,1133.5 L45.5,1133.5 M32.5,1152.5 L19.5,1167.5 M32.5,1152.5 L45.5,1167.5 " fill="none" style="stroke:#181818;stroke-width:0.5;"/><rect fill="#E2E2F0" height="36" rx="2.5" ry="2.5" style="stroke:#181818;stroke-width:0.5;" width="239" x="164" y="82.5999"/><ellipse cx="182" cy="100.5999" fill="#DA70D6" rx="11" ry="11" style="stroke:#181818;stroke-width:1.0;"/><path d="M179.8594,101.9905 L181.4375,101.9905 C182.1094,102.2405 183.5938,103.9124 184.4688,105.4905 L184.5313,105.5999 L185.9063,105.5999 C186.2344,105.5999 186.5156,105.553 186.6563,105.4749 C186.9219,105.3186 187.0938,105.0217 187.0938,104.7092 C187.0938,104.4436 186.9375,104.1624 186.7188,104.0061 C186.5313,103.8655 186.3594,103.8342 185.9063,103.8342 L185.7188,103.8342 C185.0625,102.8499 184.3906,102.053 183.6563,101.4124 C184.8594,100.7874 185.4375,99.9905 185.4375,98.9592 C185.4375,97.2249 183.8906,96.0061 181.6406,96.0061 L177.8438,96.0061 C177.3906,96.0061 177.2656,96.0217 177.0938,96.1311 C176.8281,96.303 176.6563,96.5842 176.6563,96.8811 C176.6563,97.1624 176.8125,97.4436 177.0313,97.5999 C177.2188,97.7249 177.4063,97.7561 177.8438,97.7561 L178.0313,97.7561 L178.0313,103.8342 L177.8438,103.8342 C177.4219,103.8342 177.2656,103.8655 177.0938,103.9749 C176.8281,104.1155 176.6563,104.4124 176.6563,104.7092 C176.6563,105.2874 177.0625,105.5999 177.8438,105.5999 L180.3906,105.5999 C180.75,105.5999 181,105.553 181.1406,105.4749 C181.4063,105.3186 181.5781,105.0217 181.5781,104.7092 C181.5781,104.4436 181.4531,104.178 181.2031,104.0061 C181.0156,103.8655 180.875,103.8342 180.3906,103.8342 L179.8594,103.8342 L179.8594,101.9905 Z M179.8594,100.2405 L179.8594,97.7561 L181.7031,97.7561 C182.7344,97.7561 183.5,98.2405 183.5,98.8967 C183.5,99.678 182.4844,100.2405 181.0938,100.2405 L179.8594,100.2405 Z " fill="#000000"/><text fill="#000000" font-family="sans-serif" font-size="14" lengthAdjust="spacing" textLength="197" x="199" y="102.6058">UserRequestsPageComponent</text><rect fill="#E2E2F0" height="36" rx="2.5" ry="2.5" style="stroke:#181818;stroke-width:0.5;" width="239" x="164" y="1092.2"/><ellipse cx="182" cy="1110.2" fill="#DA70D6" rx="11" ry="11" style="stroke:#181818;stroke-width:1.0;"/><path d="M179.8594,1111.5907 L181.4375,1111.5907 C182.1094,1111.8407 183.5938,1113.5125 184.4688,1115.0907 L184.5313,1115.2 L185.9063,1115.2 C186.2344,1115.2 186.5156,1115.1532 186.6563,1115.075 C186.9219,1114.9188 187.0938,1114.6219 187.0938,1114.3094 C187.0938,1114.0438 186.9375,1113.7625 186.7188,1113.6063 C186.5313,1113.4657 186.3594,1113.4344 185.9063,1113.4344 L185.7188,1113.4344 C185.0625,1112.45 184.3906,1111.6532 183.6563,1111.0125 C184.8594,1110.3875 185.4375,1109.5907 185.4375,1108.5594 C185.4375,1106.825 183.8906,1105.6063 181.6406,1105.6063 L177.8438,1105.6063 C177.3906,1105.6063 177.2656,1105.6219 177.0938,1105.7313 C176.8281,1105.9032 176.6563,1106.1844 176.6563,1106.4813 C176.6563,1106.7625 176.8125,1107.0438 177.0313,1107.2 C177.2188,1107.325 177.4063,1107.3563 177.8438,1107.3563 L178.0313,1107.3563 L178.0313,1113.4344 L177.8438,1113.4344 C177.4219,1113.4344 177.2656,1113.4657 177.0938,1113.575 C176.8281,1113.7157 176.6563,1114.0125 176.6563,1114.3094 C176.6563,1114.8875 177.0625,1115.2 177.8438,1115.2 L180.3906,1115.2 C180.75,1115.2 181,1115.1532 181.1406,1115.075 C181.4063,1114.9188 181.5781,1114.6219 181.5781,1114.3094 C181.5781,1114.0438 181.4531,1113.7782 181.2031,1113.6063 C181.0156,1113.4657 180.875,1113.4344 180.3906,1113.4344 L179.8594,1113.4344 L179.8594,1111.5907 Z M179.8594,1109.8407 L179.8594,1107.3563 L181.7031,1107.3563 C182.7344,1107.3563 183.5,1107.8407 183.5,1108.4969 C183.5,1109.2782 182.4844,1109.8407 181.0938,1109.8407 L179.8594,1109.8407 Z " fill="#000000"/><text fill="#000000" font-family="sans-serif" font-size="14" lengthAdjust="spacing" textLength="197" x="199" y="1112.206">UserRequestsPageComponent</text><rect fill="#E2E2F0" height="36" rx="2.5" ry="2.5" style="stroke:#181818;stroke-width:0.5;" width="143" x="445" y="82.5999"/><ellipse cx="463" cy="100.5999" fill="#D3D3D3" rx="11" ry="11" style="stroke:#181818;stroke-width:1.0;"/><path d="M458,101.7561 C458,104.2561 460.1406,106.0686 463.0625,106.0686 C464.2969,106.0686 465.4688,105.7717 466.2188,105.2561 C466.8281,104.8342 467.1563,104.4124 467.1563,104.0061 C467.1563,103.5374 466.7344,103.1311 466.2344,103.1311 C466,103.1311 465.7813,103.2092 465.5781,103.4124 C465.1406,103.8499 465.1406,103.8499 464.9688,103.9436 C464.5156,104.178 463.875,104.3186 463.1094,104.3186 C461.1094,104.3186 459.8281,103.303 459.8281,101.7249 L459.8281,100.678 C459.8281,98.9749 461.0469,97.7717 462.75,97.7717 C463.3281,97.7717 463.9063,97.9124 464.375,98.1624 C464.8438,98.428 465.0156,98.6155 465.0781,98.9749 C465.2031,99.6467 465.4531,99.8967 465.9844,99.8967 C466.2656,99.8967 466.5469,99.7561 466.7344,99.5374 C466.8594,99.3655 466.9063,99.1936 466.9063,98.7561 L466.9063,97.3967 C466.9063,96.9749 466.8906,96.8342 466.7656,96.6624 C466.5938,96.4124 466.3125,96.2561 465.9844,96.2561 C465.6719,96.2561 465.4688,96.3655 465.25,96.6311 C464.0781,96.1311 463.6406,96.0217 462.6875,96.0217 C460.0156,96.0217 458,98.0374 458,100.6624 L458,101.7561 Z " fill="#000000"/><text fill="#000000" font-family="sans-serif" font-size="14" lengthAdjust="spacing" textLength="101" x="480" y="102.6058">RequestCreator</text><rect fill="#E2E2F0" height="36" rx="2.5" ry="2.5" style="stroke:#181818;stroke-width:0.5;" width="143" x="445" y="1092.2"/><ellipse cx="463" cy="1110.2" fill="#D3D3D3" rx="11" ry="11" style="stroke:#181818;stroke-width:1.0;"/><path d="M458,1111.3563 C458,1113.8563 460.1406,1115.6688 463.0625,1115.6688 C464.2969,1115.6688 465.4688,1115.3719 466.2188,1114.8563 C466.8281,1114.4344 467.1563,1114.0125 467.1563,1113.6063 C467.1563,1113.1375 466.7344,1112.7313 466.2344,1112.7313 C466,1112.7313 465.7813,1112.8094 465.5781,1113.0125 C465.1406,1113.45 465.1406,1113.45 464.9688,1113.5438 C464.5156,1113.7782 463.875,1113.9188 463.1094,1113.9188 C461.1094,1113.9188 459.8281,1112.9032 459.8281,1111.325 L459.8281,1110.2782 C459.8281,1108.575 461.0469,1107.3719 462.75,1107.3719 C463.3281,1107.3719 463.9063,1107.5125 464.375,1107.7625 C464.8438,1108.0282 465.0156,1108.2157 465.0781,1108.575 C465.2031,1109.2469 465.4531,1109.4969 465.9844,1109.4969 C466.2656,1109.4969 466.5469,1109.3563 466.7344,1109.1375 C466.8594,1108.9657 466.9063,1108.7938 466.9063,1108.3563 L466.9063,1106.9969 C466.9063,1106.575 466.8906,1106.4344 466.7656,1106.2625 C466.5938,1106.0125 466.3125,1105.8563 465.9844,1105.8563 C465.6719,1105.8563 465.4688,1105.9657 465.25,1106.2313 C464.0781,1105.7313 463.6406,1105.6219 462.6875,1105.6219 C460.0156,1105.6219 458,1107.6375 458,1110.2625 L458,1111.3563 Z " fill="#000000"/><text fill="#000000" font-family="sans-serif" font-size="14" lengthAdjust="spacing" textLength="101" x="480" y="1112.206">RequestCreator</text><rect fill="#E2E2F0" height="36" rx="2.5" ry="2.5" style="stroke:#181818;stroke-width:0.5;" width="203" x="664" y="82.5999"/><ellipse cx="682" cy="100.5999" fill="#D3D3D3" rx="11" ry="11" style="stroke:#181818;stroke-width:1.0;"/><path d="M677,101.7561 C677,104.2561 679.1406,106.0686 682.0625,106.0686 C683.2969,106.0686 684.4688,105.7717 685.2188,105.2561 C685.8281,104.8342 686.1563,104.4124 686.1563,104.0061 C686.1563,103.5374 685.7344,103.1311 685.2344,103.1311 C685,103.1311 684.7813,103.2092 684.5781,103.4124 C684.1406,103.8499 684.1406,103.8499 683.9688,103.9436 C683.5156,104.178 682.875,104.3186 682.1094,104.3186 C680.1094,104.3186 678.8281,103.303 678.8281,101.7249 L678.8281,100.678 C678.8281,98.9749 680.0469,97.7717 681.75,97.7717 C682.3281,97.7717 682.9063,97.9124 683.375,98.1624 C683.8438,98.428 684.0156,98.6155 684.0781,98.9749 C684.2031,99.6467 684.4531,99.8967 684.9844,99.8967 C685.2656,99.8967 685.5469,99.7561 685.7344,99.5374 C685.8594,99.3655 685.9063,99.1936 685.9063,98.7561 L685.9063,97.3967 C685.9063,96.9749 685.8906,96.8342 685.7656,96.6624 C685.5938,96.4124 685.3125,96.2561 684.9844,96.2561 C684.6719,96.2561 684.4688,96.3655 684.25,96.6311 C683.0781,96.1311 682.6406,96.0217 681.6875,96.0217 C679.0156,96.0217 677,98.0374 677,100.6624 L677,101.7561 Z " fill="#000000"/><text fill="#000000" font-family="sans-serif" font-size="14" lengthAdjust="spacing" textLength="161" x="699" y="102.6058">ReusableForm (Request)</text><rect fill="#E2E2F0" height="36" rx="2.5" ry="2.5" style="stroke:#181818;stroke-width:0.5;" width="203" x="664" y="1092.2"/><ellipse cx="682" cy="1110.2" fill="#D3D3D3" rx="11" ry="11" style="stroke:#181818;stroke-width:1.0;"/><path d="M677,1111.3563 C677,1113.8563 679.1406,1115.6688 682.0625,1115.6688 C683.2969,1115.6688 684.4688,1115.3719 685.2188,1114.8563 C685.8281,1114.4344 686.1563,1114.0125 686.1563,1113.6063 C686.1563,1113.1375 685.7344,1112.7313 685.2344,1112.7313 C685,1112.7313 684.7813,1112.8094 684.5781,1113.0125 C684.1406,1113.45 684.1406,1113.45 683.9688,1113.5438 C683.5156,1113.7782 682.875,1113.9188 682.1094,1113.9188 C680.1094,1113.9188 678.8281,1112.9032 678.8281,1111.325 L678.8281,1110.2782 C678.8281,1108.575 680.0469,1107.3719 681.75,1107.3719 C682.3281,1107.3719 682.9063,1107.5125 683.375,1107.7625 C683.8438,1108.0282 684.0156,1108.2157 684.0781,1108.575 C684.2031,1109.2469 684.4531,1109.4969 684.9844,1109.4969 C685.2656,1109.4969 685.5469,1109.3563 685.7344,1109.1375 C685.8594,1108.9657 685.9063,1108.7938 685.9063,1108.3563 L685.9063,1106.9969 C685.9063,1106.575 685.8906,1106.4344 685.7656,1106.2625 C685.5938,1106.0125 685.3125,1105.8563 684.9844,1105.8563 C684.6719,1105.8563 684.4688,1105.9657 684.25,1106.2313 C683.0781,1105.7313 682.6406,1105.6219 681.6875,1105.6219 C679.0156,1105.6219 677,1107.6375 677,1110.2625 L677,1111.3563 Z " fill="#000000"/><text fill="#000000" font-family="sans-serif" font-size="14" lengthAdjust="spacing" textLength="161" x="699" y="1112.206">ReusableForm (Request)</text><rect fill="#E2E2F0" height="47.5999" rx="2.5" ry="2.5" style="stroke:#181818;stroke-width:0.5;" width="167" x="880" y="71"/><ellipse cx="898" cy="89" fill="#FFFF00" rx="11" ry="11" style="stroke:#181818;stroke-width:1.0;"/><path d="M896.8594,90.0625 L898.1719,90.0625 L898.1719,90.1094 C898.1719,90.5 898.2031,90.6875 898.2969,90.8438 C898.4688,91.0938 898.7656,91.2656 899.0781,91.2656 C899.3594,91.2656 899.6406,91.125 899.8281,90.9063 C899.9531,90.7188 900,90.5625 900,90.1094 L900,88.2813 C900,87.8594 899.9844,87.7344 899.8594,87.5625 C899.7031,87.2969 899.4063,87.125 899.0781,87.125 C898.7813,87.125 898.5156,87.2656 898.3438,87.4844 C898.2031,87.6719 898.1719,87.8438 898.1719,88.2813 L898.1719,88.3281 L896.8594,88.3281 L896.8594,86.1563 L901.0781,86.1563 L901.0781,86.9219 C901.0781,87.3125 901.1094,87.4844 901.2188,87.6406 C901.3906,87.9063 901.6719,88.0625 902,88.0625 C902.2813,88.0625 902.5625,87.9375 902.75,87.7031 C902.8906,87.5156 902.9219,87.375 902.9219,86.9219 L902.9219,84.4063 L894.8438,84.4063 C894.4063,84.4063 894.2656,84.4219 894.0938,84.5313 C893.8281,84.7031 893.6563,84.9844 893.6563,85.2813 C893.6563,85.5625 893.8125,85.8438 894.0313,86 C894.2188,86.125 894.4063,86.1563 894.8438,86.1563 L895.0313,86.1563 L895.0313,92.25 L894.8438,92.25 C894.4219,92.25 894.2656,92.2813 894.0938,92.375 C893.8281,92.5313 893.6563,92.8281 893.6563,93.1094 C893.6563,93.6875 894.0625,94 894.8438,94 L898.5,94 C899.2813,94 899.6875,93.7188 899.6875,93.1094 C899.6875,92.8438 899.5469,92.5938 899.3125,92.4219 C899.125,92.2813 898.9531,92.25 898.5,92.25 L896.8594,92.25 L896.8594,90.0625 Z " fill="#000000"/><text fill="#000000" font-family="sans-serif" font-size="14" lengthAdjust="spacing" textLength="125" x="915" y="91.0059">request_backend.ts</text><text fill="#000000" font-family="sans-serif" font-size="14" lengthAdjust="spacing" textLength="103" x="926" y="107.8059">createRequest()</text><rect fill="#E2E2F0" height="47.5999" rx="2.5" ry="2.5" style="stroke:#181818;stroke-width:0.5;" width="167" x="880" y="1092.2"/><ellipse cx="898" cy="1110.2" fill="#FFFF00" rx="11" ry="11" style="stroke:#181818;stroke-width:1.0;"/><path d="M896.8594,1111.2625 L898.1719,1111.2625 L898.1719,1111.3094 C898.1719,1111.7 898.2031,1111.8875 898.2969,1112.0438 C898.4688,1112.2938 898.7656,1112.4657 899.0781,1112.4657 C899.3594,1112.4657 899.6406,1112.325 899.8281,1112.1063 C899.9531,1111.9188 900,1111.7625 900,1111.3094 L900,1109.4813 C900,1109.0594 899.9844,1108.9344 899.8594,1108.7625 C899.7031,1108.4969 899.4063,1108.325 899.0781,1108.325 C898.7813,1108.325 898.5156,1108.4657 898.3438,1108.6844 C898.2031,1108.8719 898.1719,1109.0438 898.1719,1109.4813 L898.1719,1109.5282 L896.8594,1109.5282 L896.8594,1107.3563 L901.0781,1107.3563 L901.0781,1108.1219 C901.0781,1108.5125 901.1094,1108.6844 901.2188,1108.8407 C901.3906,1109.1063 901.6719,1109.2625 902,1109.2625 C902.2813,1109.2625 902.5625,1109.1375 902.75,1108.9032 C902.8906,1108.7157 902.9219,1108.575 902.9219,1108.1219 L902.9219,1105.6063 L894.8438,1105.6063 C894.4063,1105.6063 894.2656,1105.6219 894.0938,1105.7313 C893.8281,1105.9032 893.6563,1106.1844 893.6563,1106.4813 C893.6563,1106.7625 893.8125,1107.0438 894.0313,1107.2 C894.2188,1107.325 894.4063,1107.3563 894.8438,1107.3563 L895.0313,1107.3563 L895.0313,1113.45 L894.8438,1113.45 C894.4219,1113.45 894.2656,1113.4813 894.0938,1113.575 C893.8281,1113.7313 893.6563,1114.0282 893.6563,1114.3094 C893.6563,1114.8875 894.0625,1115.2 894.8438,1115.2 L898.5,1115.2 C899.2813,1115.2 899.6875,1114.9188 899.6875,1114.3094 C899.6875,1114.0438 899.5469,1113.7938 899.3125,1113.6219 C899.125,1113.4813 898.9531,1113.45 898.5,1113.45 L896.8594,1113.45 L896.8594,1111.2625 Z " fill="#000000"/><text fill="#000000" font-family="sans-serif" font-size="14" lengthAdjust="spacing" textLength="125" x="915" y="1112.206">request_backend.ts</text><text fill="#000000" font-family="sans-serif" font-size="14" lengthAdjust="spacing" textLength="103" x="926" y="1129.0059">createRequest()</text><rect fill="#E2E2F0" height="36" rx="2.5" ry="2.5" style="stroke:#181818;stroke-width:0.5;" width="128" x="1057" y="82.5999"/><ellipse cx="1075" cy="100.5999" fill="#ADD8E6" rx="11" ry="11" style="stroke:#181818;stroke-width:1.0;"/><path d="M1078.8594,96.9124 C1078.8594,96.4749 1078.8438,96.3499 1078.7344,96.178 C1078.5781,95.928 1078.2813,95.7717 1077.9531,95.7717 C1077.6094,95.7717 1077.4219,95.9124 1077.2656,96.2874 C1076.7031,95.9592 1075.9375,95.7717 1075.0625,95.7717 C1072.9219,95.7717 1071.3281,97.0374 1071.3281,98.6936 C1071.3281,99.6467 1071.875,100.5374 1072.75,101.0061 C1073.3125,101.3186 1073.8438,101.4749 1074.9844,101.6624 C1076.1094,101.8655 1076.375,101.928 1076.75,102.0999 C1077.0938,102.2717 1077.3125,102.5686 1077.3125,102.8811 C1077.3125,103.5374 1076.3594,104.053 1075.1406,104.053 C1074.0469,104.053 1072.9844,103.5999 1072.8281,103.053 C1072.6875,102.6155 1072.6875,102.6155 1072.5625,102.4749 C1072.3906,102.3186 1072.1563,102.2405 1071.9063,102.2405 C1071.6094,102.2405 1071.3438,102.3655 1071.1563,102.5842 C1071.0313,102.7561 1070.9844,102.9436 1070.9844,103.3655 L1070.9844,104.4436 C1070.9844,105.2092 1071.2969,105.5842 1071.9063,105.5842 C1072.1875,105.5842 1072.3438,105.4905 1072.625,105.2092 C1073.4844,105.6311 1074.3281,105.8186 1075.25,105.8186 C1077.6094,105.8186 1079.2188,104.6467 1079.2188,102.9124 C1079.2188,102.053 1078.875,101.3655 1078.1875,100.8342 C1077.6563,100.428 1076.9844,100.1936 1075.4844,99.9436 C1074.2031,99.6936 1074.1406,99.678 1073.8125,99.5061 C1073.4688,99.3655 1073.2344,99.0061 1073.2344,98.678 C1073.2344,98.0374 1074.0469,97.5217 1075.0781,97.5217 C1076.125,97.5217 1076.8906,97.9436 1077.0313,98.5686 C1077.1563,99.0999 1077.1563,99.0999 1077.2969,99.2405 C1077.4531,99.3967 1077.7031,99.4905 1077.9531,99.4905 C1078.25,99.4905 1078.5,99.3655 1078.6875,99.1467 C1078.8281,98.9592 1078.8594,98.8186 1078.8594,98.3655 L1078.8594,96.9124 Z " fill="#000000"/><text fill="#000000" font-family="sans-serif" font-size="14" lengthAdjust="spacing" textLength="86" x="1092" y="102.6058">AuthManager</text><rect fill="#E2E2F0" height="36" rx="2.5" ry="2.5" style="stroke:#181818;stroke-width:0.5;" width="128" x="1057" y="1092.2"/><ellipse cx="1075" cy="1110.2" fill="#ADD8E6" rx="11" ry="11" style="stroke:#181818;stroke-width:1.0;"/><path d="M1078.8594,1106.5125 C1078.8594,1106.075 1078.8438,1105.95 1078.7344,1105.7782 C1078.5781,1105.5282 1078.2813,1105.3719 1077.9531,1105.3719 C1077.6094,1105.3719 1077.4219,1105.5125 1077.2656,1105.8875 C1076.7031,1105.5594 1075.9375,1105.3719 1075.0625,1105.3719 C1072.9219,1105.3719 1071.3281,1106.6375 1071.3281,1108.2938 C1071.3281,1109.2469 1071.875,1110.1375 1072.75,1110.6063 C1073.3125,1110.9188 1073.8438,1111.075 1074.9844,1111.2625 C1076.1094,1111.4657 1076.375,1111.5282 1076.75,1111.7 C1077.0938,1111.8719 1077.3125,1112.1688 1077.3125,1112.4813 C1077.3125,1113.1375 1076.3594,1113.6532 1075.1406,1113.6532 C1074.0469,1113.6532 1072.9844,1113.2 1072.8281,1112.6532 C1072.6875,1112.2157 1072.6875,1112.2157 1072.5625,1112.075 C1072.3906,1111.9188 1072.1563,1111.8407 1071.9063,1111.8407 C1071.6094,1111.8407 1071.3438,1111.9657 1071.1563,1112.1844 C1071.0313,1112.3563 1070.9844,1112.5438 1070.9844,1112.9657 L1070.9844,1114.0438 C1070.9844,1114.8094 1071.2969,1115.1844 1071.9063,1115.1844 C1072.1875,1115.1844 1072.3438,1115.0907 1072.625,1114.8094 C1073.4844,1115.2313 1074.3281,1115.4188 1075.25,1115.4188 C1077.6094,1115.4188 1079.2188,1114.2469 1079.2188,1112.5125 C1079.2188,1111.6532 1078.875,1110.9657 1078.1875,1110.4344 C1077.6563,1110.0282 1076.9844,1109.7938 1075.4844,1109.5438 C1074.2031,1109.2938 1074.1406,1109.2782 1073.8125,1109.1063 C1073.4688,1108.9657 1073.2344,1108.6063 1073.2344,1108.2782 C1073.2344,1107.6375 1074.0469,1107.1219 1075.0781,1107.1219 C1076.125,1107.1219 1076.8906,1107.5438 1077.0313,1108.1688 C1077.1563,1108.7 1077.1563,1108.7 1077.2969,1108.8407 C1077.4531,1108.9969 1077.7031,1109.0907 1077.9531,1109.0907 C1078.25,1109.0907 1078.5,1108.9657 1078.6875,1108.7469 C1078.8281,1108.5594 1078.8594,1108.4188 1078.8594,1107.9657 L1078.8594,1106.5125 Z " fill="#000000"/><text fill="#000000" font-family="sans-serif" font-size="14" lengthAdjust="spacing" textLength="86" x="1092" y="1112.206">AuthManager</text><rect fill="#E2E2F0" height="47.5999" rx="2.5" ry="2.5" style="stroke:#181818;stroke-width:0.5;" width="113" x="1200.5" y="71"/><ellipse cx="1218.5" cy="89" fill="#FFA500" rx="11" ry="11" style="stroke:#181818;stroke-width:1.0;"/><path d="M1217.3594,90.0625 L1218.6719,90.0625 L1218.6719,90.1094 C1218.6719,90.5 1218.7031,90.6875 1218.7969,90.8438 C1218.9688,91.0938 1219.2656,91.2656 1219.5781,91.2656 C1219.8594,91.2656 1220.1406,91.125 1220.3281,90.9063 C1220.4531,90.7188 1220.5,90.5625 1220.5,90.1094 L1220.5,88.2813 C1220.5,87.8594 1220.4844,87.7344 1220.3594,87.5625 C1220.2031,87.2969 1219.9063,87.125 1219.5781,87.125 C1219.2813,87.125 1219.0156,87.2656 1218.8438,87.4844 C1218.7031,87.6719 1218.6719,87.8438 1218.6719,88.2813 L1218.6719,88.3281 L1217.3594,88.3281 L1217.3594,86.1563 L1221.5781,86.1563 L1221.5781,86.9219 C1221.5781,87.3125 1221.6094,87.4844 1221.7188,87.6406 C1221.8906,87.9063 1222.1719,88.0625 1222.5,88.0625 C1222.7813,88.0625 1223.0625,87.9375 1223.25,87.7031 C1223.3906,87.5156 1223.4219,87.375 1223.4219,86.9219 L1223.4219,84.4063 L1215.3438,84.4063 C1214.9063,84.4063 1214.7656,84.4219 1214.5938,84.5313 C1214.3281,84.7031 1214.1563,84.9844 1214.1563,85.2813 C1214.1563,85.5625 1214.3125,85.8438 1214.5313,86 C1214.7188,86.125 1214.9063,86.1563 1215.3438,86.1563 L1215.5313,86.1563 L1215.5313,92.25 L1215.3438,92.25 C1214.9219,92.25 1214.7656,92.2813 1214.5938,92.375 C1214.3281,92.5313 1214.1563,92.8281 1214.1563,93.1094 C1214.1563,93.6875 1214.5625,94 1215.3438,94 L1219,94 C1219.7813,94 1220.1875,93.7188 1220.1875,93.1094 C1220.1875,92.8438 1220.0469,92.5938 1219.8125,92.4219 C1219.625,92.2813 1219.4531,92.25 1219,92.25 L1217.3594,92.25 L1217.3594,90.0625 Z " fill="#000000"/><text fill="#000000" font-family="sans-serif" font-size="14" lengthAdjust="spacing" textLength="40" x="1251" y="91.0059">utils.ts</text><text fill="#000000" font-family="sans-serif" font-size="14" lengthAdjust="spacing" textLength="71" x="1235.5" y="107.8059">fetchJson()</text><rect fill="#E2E2F0" height="47.5999" rx="2.5" ry="2.5" style="stroke:#181818;stroke-width:0.5;" width="113" x="1200.5" y="1092.2"/><ellipse cx="1218.5" cy="1110.2" fill="#FFA500" rx="11" ry="11" style="stroke:#181818;stroke-width:1.0;"/><path d="M1217.3594,1111.2625 L1218.6719,1111.2625 L1218.6719,1111.3094 C1218.6719,1111.7 1218.7031,1111.8875 1218.7969,1112.0438 C1218.9688,1112.2938 1219.2656,1112.4657 1219.5781,1112.4657 C1219.8594,1112.4657 1220.1406,1112.325 1220.3281,1112.1063 C1220.4531,1111.9188 1220.5,1111.7625 1220.5,1111.3094 L1220.5,1109.4813 C1220.5,1109.0594 1220.4844,1108.9344 1220.3594,1108.7625 C1220.2031,1108.4969 1219.9063,1108.325 1219.5781,1108.325 C1219.2813,1108.325 1219.0156,1108.4657 1218.8438,1108.6844 C1218.7031,1108.8719 1218.6719,1109.0438 1218.6719,1109.4813 L1218.6719,1109.5282 L1217.3594,1109.5282 L1217.3594,1107.3563 L1221.5781,1107.3563 L1221.5781,1108.1219 C1221.5781,1108.5125 1221.6094,1108.6844 1221.7188,1108.8407 C1221.8906,1109.1063 1222.1719,1109.2625 1222.5,1109.2625 C1222.7813,1109.2625 1223.0625,1109.1375 1223.25,1108.9032 C1223.3906,1108.7157 1223.4219,1108.575 1223.4219,1108.1219 L1223.4219,1105.6063 L1215.3438,1105.6063 C1214.9063,1105.6063 1214.7656,1105.6219 1214.5938,1105.7313 C1214.3281,1105.9032 1214.1563,1106.1844 1214.1563,1106.4813 C1214.1563,1106.7625 1214.3125,1107.0438 1214.5313,1107.2 C1214.7188,1107.325 1214.9063,1107.3563 1215.3438,1107.3563 L1215.5313,1107.3563 L1215.5313,1113.45 L1215.3438,1113.45 C1214.9219,1113.45 1214.7656,1113.4813 1214.5938,1113.575 C1214.3281,1113.7313 1214.1563,1114.0282 1214.1563,1114.3094 C1214.1563,1114.8875 1214.5625,1115.2 1215.3438,1115.2 L1219,1115.2 C1219.7813,1115.2 1220.1875,1114.9188 1220.1875,1114.3094 C1220.1875,1114.0438 1220.0469,1113.7938 1219.8125,1113.6219 C1219.625,1113.4813 1219.4531,1113.45 1219,1113.45 L1217.3594,1113.45 L1217.3594,1111.2625 Z " fill="#000000"/><text fill="#000000" font-family="sans-serif" font-size="14" lengthAdjust="spacing" textLength="40" x="1251" y="1112.206">utils.ts</text><text fill="#000000" font-family="sans-serif" font-size="14" lengthAdjust="spacing" textLength="71" x="1235.5" y="1129.0059">fetchJson()</text><rect fill="#E2E2F0" height="36" rx="2.5" ry="2.5" style="stroke:#181818;stroke-width:0.5;" width="119" x="1464.5" y="82.5999"/><ellipse cx="1482.5" cy="100.5999" fill="#FF6347" rx="11" ry="11" style="stroke:#181818;stroke-width:1.0;"/><path d="M1486.3594,96.9124 C1486.3594,96.4749 1486.3438,96.3499 1486.2344,96.178 C1486.0781,95.928 1485.7813,95.7717 1485.4531,95.7717 C1485.1094,95.7717 1484.9219,95.9124 1484.7656,96.2874 C1484.2031,95.9592 1483.4375,95.7717 1482.5625,95.7717 C1480.4219,95.7717 1478.8281,97.0374 1478.8281,98.6936 C1478.8281,99.6467 1479.375,100.5374 1480.25,101.0061 C1480.8125,101.3186 1481.3438,101.4749 1482.4844,101.6624 C1483.6094,101.8655 1483.875,101.928 1484.25,102.0999 C1484.5938,102.2717 1484.8125,102.5686 1484.8125,102.8811 C1484.8125,103.5374 1483.8594,104.053 1482.6406,104.053 C1481.5469,104.053 1480.4844,103.5999 1480.3281,103.053 C1480.1875,102.6155 1480.1875,102.6155 1480.0625,102.4749 C1479.8906,102.3186 1479.6563,102.2405 1479.4063,102.2405 C1479.1094,102.2405 1478.8438,102.3655 1478.6563,102.5842 C1478.5313,102.7561 1478.4844,102.9436 1478.4844,103.3655 L1478.4844,104.4436 C1478.4844,105.2092 1478.7969,105.5842 1479.4063,105.5842 C1479.6875,105.5842 1479.8438,105.4905 1480.125,105.2092 C1480.9844,105.6311 1481.8281,105.8186 1482.75,105.8186 C1485.1094,105.8186 1486.7188,104.6467 1486.7188,102.9124 C1486.7188,102.053 1486.375,101.3655 1485.6875,100.8342 C1485.1563,100.428 1484.4844,100.1936 1482.9844,99.9436 C1481.7031,99.6936 1481.6406,99.678 1481.3125,99.5061 C1480.9688,99.3655 1480.7344,99.0061 1480.7344,98.678 C1480.7344,98.0374 1481.5469,97.5217 1482.5781,97.5217 C1483.625,97.5217 1484.3906,97.9436 1484.5313,98.5686 C1484.6563,99.0999 1484.6563,99.0999 1484.7969,99.2405 C1484.9531,99.3967 1485.2031,99.4905 1485.4531,99.4905 C1485.75,99.4905 1486,99.3655 1486.1875,99.1467 C1486.3281,98.9592 1486.3594,98.8186 1486.3594,98.3655 L1486.3594,96.9124 Z " fill="#000000"/><text fill="#000000" font-family="sans-serif" font-size="14" lengthAdjust="spacing" textLength="77" x="1499.5" y="102.6058">BackendAPI</text><rect fill="#E2E2F0" height="36" rx="2.5" ry="2.5" style="stroke:#181818;stroke-width:0.5;" width="119" x="1464.5" y="1092.2"/><ellipse cx="1482.5" cy="1110.2" fill="#FF6347" rx="11" ry="11" style="stroke:#181818;stroke-width:1.0;"/><path d="M1486.3594,1106.5125 C1486.3594,1106.075 1486.3438,1105.95 1486.2344,1105.7782 C1486.0781,1105.5282 1485.7813,1105.3719 1485.4531,1105.3719 C1485.1094,1105.3719 1484.9219,1105.5125 1484.7656,1105.8875 C1484.2031,1105.5594 1483.4375,1105.3719 1482.5625,1105.3719 C1480.4219,1105.3719 1478.8281,1106.6375 1478.8281,1108.2938 C1478.8281,1109.2469 1479.375,1110.1375 1480.25,1110.6063 C1480.8125,1110.9188 1481.3438,1111.075 1482.4844,1111.2625 C1483.6094,1111.4657 1483.875,1111.5282 1484.25,1111.7 C1484.5938,1111.8719 1484.8125,1112.1688 1484.8125,1112.4813 C1484.8125,1113.1375 1483.8594,1113.6532 1482.6406,1113.6532 C1481.5469,1113.6532 1480.4844,1113.2 1480.3281,1112.6532 C1480.1875,1112.2157 1480.1875,1112.2157 1480.0625,1112.075 C1479.8906,1111.9188 1479.6563,1111.8407 1479.4063,1111.8407 C1479.1094,1111.8407 1478.8438,1111.9657 1478.6563,1112.1844 C1478.5313,1112.3563 1478.4844,1112.5438 1478.4844,1112.9657 L1478.4844,1114.0438 C1478.4844,1114.8094 1478.7969,1115.1844 1479.4063,1115.1844 C1479.6875,1115.1844 1479.8438,1115.0907 1480.125,1114.8094 C1480.9844,1115.2313 1481.8281,1115.4188 1482.75,1115.4188 C1485.1094,1115.4188 1486.7188,1114.2469 1486.7188,1112.5125 C1486.7188,1111.6532 1486.375,1110.9657 1485.6875,1110.4344 C1485.1563,1110.0282 1484.4844,1109.7938 1482.9844,1109.5438 C1481.7031,1109.2938 1481.6406,1109.2782 1481.3125,1109.1063 C1480.9688,1108.9657 1480.7344,1108.6063 1480.7344,1108.2782 C1480.7344,1107.6375 1481.5469,1107.1219 1482.5781,1107.1219 C1483.625,1107.1219 1484.3906,1107.5438 1484.5313,1108.1688 C1484.6563,1108.7 1484.6563,1108.7 1484.7969,1108.8407 C1484.9531,1108.9969 1485.2031,1109.0907 1485.4531,1109.0907 C1485.75,1109.0907 1486,1108.9657 1486.1875,1108.7469 C1486.3281,1108.5594 1486.3594,1108.4188 1486.3594,1107.9657 L1486.3594,1106.5125 Z " fill="#000000"/><text fill="#000000" font-family="sans-serif" font-size="14" lengthAdjust="spacing" textLength="77" x="1499.5" y="1112.206">BackendAPI</text><rect fill="#E2E2F0" height="36" rx="2.5" ry="2.5" style="stroke:#181818;stroke-width:0.5;" width="117" x="1593.5" y="82.5999"/><ellipse cx="1611.5" cy="100.5999" fill="#808080" rx="11" ry="11" style="stroke:#181818;stroke-width:1.0;"/><path d="M1615.3594,96.9124 C1615.3594,96.4749 1615.3438,96.3499 1615.2344,96.178 C1615.0781,95.928 1614.7813,95.7717 1614.4531,95.7717 C1614.1094,95.7717 1613.9219,95.9124 1613.7656,96.2874 C1613.2031,95.9592 1612.4375,95.7717 1611.5625,95.7717 C1609.4219,95.7717 1607.8281,97.0374 1607.8281,98.6936 C1607.8281,99.6467 1608.375,100.5374 1609.25,101.0061 C1609.8125,101.3186 1610.3438,101.4749 1611.4844,101.6624 C1612.6094,101.8655 1612.875,101.928 1613.25,102.0999 C1613.5938,102.2717 1613.8125,102.5686 1613.8125,102.8811 C1613.8125,103.5374 1612.8594,104.053 1611.6406,104.053 C1610.5469,104.053 1609.4844,103.5999 1609.3281,103.053 C1609.1875,102.6155 1609.1875,102.6155 1609.0625,102.4749 C1608.8906,102.3186 1608.6563,102.2405 1608.4063,102.2405 C1608.1094,102.2405 1607.8438,102.3655 1607.6563,102.5842 C1607.5313,102.7561 1607.4844,102.9436 1607.4844,103.3655 L1607.4844,104.4436 C1607.4844,105.2092 1607.7969,105.5842 1608.4063,105.5842 C1608.6875,105.5842 1608.8438,105.4905 1609.125,105.2092 C1609.9844,105.6311 1610.8281,105.8186 1611.75,105.8186 C1614.1094,105.8186 1615.7188,104.6467 1615.7188,102.9124 C1615.7188,102.053 1615.375,101.3655 1614.6875,100.8342 C1614.1563,100.428 1613.4844,100.1936 1611.9844,99.9436 C1610.7031,99.6936 1610.6406,99.678 1610.3125,99.5061 C1609.9688,99.3655 1609.7344,99.0061 1609.7344,98.678 C1609.7344,98.0374 1610.5469,97.5217 1611.5781,97.5217 C1612.625,97.5217 1613.3906,97.9436 1613.5313,98.5686 C1613.6563,99.0999 1613.6563,99.0999 1613.7969,99.2405 C1613.9531,99.3967 1614.2031,99.4905 1614.4531,99.4905 C1614.75,99.4905 1615,99.3655 1615.1875,99.1467 C1615.3281,98.9592 1615.3594,98.8186 1615.3594,98.3655 L1615.3594,96.9124 Z " fill="#000000"/><text fill="#000000" font-family="sans-serif" font-size="14" lengthAdjust="spacing" textLength="75" x="1628.5" y="102.6058">QueryClient</text><rect fill="#E2E2F0" height="36" rx="2.5" ry="2.5" style="stroke:#181818;stroke-width:0.5;" width="117" x="1593.5" y="1092.2"/><ellipse cx="1611.5" cy="1110.2" fill="#808080" rx="11" ry="11" style="stroke:#181818;stroke-width:1.0;"/><path d="M1615.3594,1106.5125 C1615.3594,1106.075 1615.3438,1105.95 1615.2344,1105.7782 C1615.0781,1105.5282 1614.7813,1105.3719 1614.4531,1105.3719 C1614.1094,1105.3719 1613.9219,1105.5125 1613.7656,1105.8875 C1613.2031,1105.5594 1612.4375,1105.3719 1611.5625,1105.3719 C1609.4219,1105.3719 1607.8281,1106.6375 1607.8281,1108.2938 C1607.8281,1109.2469 1608.375,1110.1375 1609.25,1110.6063 C1609.8125,1110.9188 1610.3438,1111.075 1611.4844,1111.2625 C1612.6094,1111.4657 1612.875,1111.5282 1613.25,1111.7 C1613.5938,1111.8719 1613.8125,1112.1688 1613.8125,1112.4813 C1613.8125,1113.1375 1612.8594,1113.6532 1611.6406,1113.6532 C1610.5469,1113.6532 1609.4844,1113.2 1609.3281,1112.6532 C1609.1875,1112.2157 1609.1875,1112.2157 1609.0625,1112.075 C1608.8906,1111.9188 1608.6563,1111.8407 1608.4063,1111.8407 C1608.1094,1111.8407 1607.8438,1111.9657 1607.6563,1112.1844 C1607.5313,1112.3563 1607.4844,1112.5438 1607.4844,1112.9657 L1607.4844,1114.0438 C1607.4844,1114.8094 1607.7969,1115.1844 1608.4063,1115.1844 C1608.6875,1115.1844 1608.8438,1115.0907 1609.125,1114.8094 C1609.9844,1115.2313 1610.8281,1115.4188 1611.75,1115.4188 C1614.1094,1115.4188 1615.7188,1114.2469 1615.7188,1112.5125 C1615.7188,1111.6532 1615.375,1110.9657 1614.6875,1110.4344 C1614.1563,1110.0282 1613.4844,1109.7938 1611.9844,1109.5438 C1610.7031,1109.2938 1610.6406,1109.2782 1610.3125,1109.1063 C1609.9688,1108.9657 1609.7344,1108.6063 1609.7344,1108.2782 C1609.7344,1107.6375 1610.5469,1107.1219 1611.5781,1107.1219 C1612.625,1107.1219 1613.3906,1107.5438 1613.5313,1108.1688 C1613.6563,1108.7 1613.6563,1108.7 1613.7969,1108.8407 C1613.9531,1108.9969 1614.2031,1109.0907 1614.4531,1109.0907 C1614.75,1109.0907 1615,1108.9657 1615.1875,1108.7469 C1615.3281,1108.5594 1615.3594,1108.4188 1615.3594,1107.9657 L1615.3594,1106.5125 Z " fill="#000000"/><text fill="#000000" font-family="sans-serif" font-size="14" lengthAdjust="spacing" textLength="75" x="1628.5" y="1112.206">QueryClient</text><rect fill="#E2E2F0" height="36" rx="2.5" ry="2.5" style="stroke:#181818;stroke-width:0.5;" width="91" x="1720.5" y="82.5999"/><ellipse cx="1738.5" cy="100.5999" fill="#FFC0CB" rx="11" ry="11" style="stroke:#181818;stroke-width:1.0;"/><path d="M1733.5,101.7561 C1733.5,104.2561 1735.6406,106.0686 1738.5625,106.0686 C1739.7969,106.0686 1740.9688,105.7717 1741.7188,105.2561 C1742.3281,104.8342 1742.6563,104.4124 1742.6563,104.0061 C1742.6563,103.5374 1742.2344,103.1311 1741.7344,103.1311 C1741.5,103.1311 1741.2813,103.2092 1741.0781,103.4124 C1740.6406,103.8499 1740.6406,103.8499 1740.4688,103.9436 C1740.0156,104.178 1739.375,104.3186 1738.6094,104.3186 C1736.6094,104.3186 1735.3281,103.303 1735.3281,101.7249 L1735.3281,100.678 C1735.3281,98.9749 1736.5469,97.7717 1738.25,97.7717 C1738.8281,97.7717 1739.4063,97.9124 1739.875,98.1624 C1740.3438,98.428 1740.5156,98.6155 1740.5781,98.9749 C1740.7031,99.6467 1740.9531,99.8967 1741.4844,99.8967 C1741.7656,99.8967 1742.0469,99.7561 1742.2344,99.5374 C1742.3594,99.3655 1742.4063,99.1936 1742.4063,98.7561 L1742.4063,97.3967 C1742.4063,96.9749 1742.3906,96.8342 1742.2656,96.6624 C1742.0938,96.4124 1741.8125,96.2561 1741.4844,96.2561 C1741.1719,96.2561 1740.9688,96.3655 1740.75,96.6311 C1739.5781,96.1311 1739.1406,96.0217 1738.1875,96.0217 C1735.5156,96.0217 1733.5,98.0374 1733.5,100.6624 L1733.5,101.7561 Z " fill="#000000"/><text fill="#000000" font-family="sans-serif" font-size="14" lengthAdjust="spacing" textLength="49" x="1755.5" y="102.6058">Toaster</text><rect fill="#E2E2F0" height="36" rx="2.5" ry="2.5" style="stroke:#181818;stroke-width:0.5;" width="91" x="1720.5" y="1092.2"/><ellipse cx="1738.5" cy="1110.2" fill="#FFC0CB" rx="11" ry="11" style="stroke:#181818;stroke-width:1.0;"/><path d="M1733.5,1111.3563 C1733.5,1113.8563 1735.6406,1115.6688 1738.5625,1115.6688 C1739.7969,1115.6688 1740.9688,1115.3719 1741.7188,1114.8563 C1742.3281,1114.4344 1742.6563,1114.0125 1742.6563,1113.6063 C1742.6563,1113.1375 1742.2344,1112.7313 1741.7344,1112.7313 C1741.5,1112.7313 1741.2813,1112.8094 1741.0781,1113.0125 C1740.6406,1113.45 1740.6406,1113.45 1740.4688,1113.5438 C1740.0156,1113.7782 1739.375,1113.9188 1738.6094,1113.9188 C1736.6094,1113.9188 1735.3281,1112.9032 1735.3281,1111.325 L1735.3281,1110.2782 C1735.3281,1108.575 1736.5469,1107.3719 1738.25,1107.3719 C1738.8281,1107.3719 1739.4063,1107.5125 1739.875,1107.7625 C1740.3438,1108.0282 1740.5156,1108.2157 1740.5781,1108.575 C1740.7031,1109.2469 1740.9531,1109.4969 1741.4844,1109.4969 C1741.7656,1109.4969 1742.0469,1109.3563 1742.2344,1109.1375 C1742.3594,1108.9657 1742.4063,1108.7938 1742.4063,1108.3563 L1742.4063,1106.9969 C1742.4063,1106.575 1742.3906,1106.4344 1742.2656,1106.2625 C1742.0938,1106.0125 1741.8125,1105.8563 1741.4844,1105.8563 C1741.1719,1105.8563 1740.9688,1105.9657 1740.75,1106.2313 C1739.5781,1105.7313 1739.1406,1105.6219 1738.1875,1105.6219 C1735.5156,1105.6219 1733.5,1107.6375 1733.5,1110.2625 L1733.5,1111.3563 Z " fill="#000000"/><text fill="#000000" font-family="sans-serif" font-size="14" lengthAdjust="spacing" textLength="49" x="1755.5" y="1112.206">Toaster</text><rect fill="#FFFFFF" height="932.0002" style="stroke:#181818;stroke-width:1.0;" width="10" x="278.5" y="151.1999"/><rect fill="#FFFFFF" height="902.4001" style="stroke:#181818;stroke-width:1.0;" width="10" x="511.5" y="180.7999"/><rect fill="#FFFFFF" height="88.8" style="stroke:#181818;stroke-width:1.0;" width="10" x="760.5" y="210.3999"/><rect fill="#FFFFFF" height="30" style="stroke:#181818;stroke-width:1.0;" width="10" x="760.5" y="792.8002"/><rect fill="#FFFFFF" height="588.8001" style="stroke:#181818;stroke-width:1.0;" width="10" x="958.5" y="412.6"/><rect fill="#FFFFFF" height="29.6" style="stroke:#181818;stroke-width:1.0;" width="10" x="1116" y="328.7999"/><rect fill="#FFFFFF" height="29.6" style="stroke:#181818;stroke-width:1.0;" width="10" x="1116" y="471.8"/><rect fill="#FFFFFF" height="559.2001" style="stroke:#181818;stroke-width:1.0;" width="10" x="1252" y="442.2"/><rect fill="#FFFFFF" height="470.4001" style="stroke:#181818;stroke-width:1.0;" width="10" x="1519" y="531"/><rect fill="#FFFFFF" height="29.6" style="stroke:#181818;stroke-width:1.0;" width="10" x="1647" y="733.6001"/><rect fill="#FFFFFF" height="30" style="stroke:#181818;stroke-width:1.0;" width="10" x="1761" y="674.0001"/><rect fill="#FFFFFF" height="30" style="stroke:#181818;stroke-width:1.0;" width="10" x="1761" y="956.4001"/><rect fill="#FFFFFF" height="30" style="stroke:#181818;stroke-width:1.0;" width="10" x="1761" y="1038.2"/><polygon fill="#181818" points="266.5,147.1999,276.5,151.1999,266.5,155.1999,270.5,151.1999" style="stroke:#181818;stroke-width:1.0;"/><line style="stroke:#181818;stroke-width:1.0;" x1="32.5" x2="272.5" y1="151.1999" y2="151.1999"/><text fill="#000000" font-family="sans-serif" font-size="13" lengthAdjust="spacing" textLength="227" x="39.5" y="145.6769">Navigates to /dashboard_user/requests</text><polygon fill="#181818" points="499.5,176.7999,509.5,180.7999,499.5,184.7999,503.5,180.7999" style="stroke:#181818;stroke-width:1.0;"/><line style="stroke:#181818;stroke-width:1.0;" x1="288.5" x2="505.5" y1="180.7999" y2="180.7999"/><text fill="#000000" font-family="sans-serif" font-size="13" lengthAdjust="spacing" textLength="204" x="295.5" y="175.2769">Renders request creation form area</text><polygon fill="#181818" points="748.5,206.3999,758.5,210.3999,748.5,214.3999,752.5,210.3999" style="stroke:#181818;stroke-width:1.0;"/><line style="stroke:#181818;stroke-width:1.0;" x1="521.5" x2="754.5" y1="210.3999" y2="210.3999"/><text fill="#000000" font-family="sans-serif" font-size="13" lengthAdjust="spacing" textLength="220" x="528.5" y="204.8769">Renders form fields (title, justification)</text><polygon fill="#181818" points="748.5,235.9999,758.5,239.9999,748.5,243.9999,752.5,239.9999" style="stroke:#181818;stroke-width:1.0;"/><line style="stroke:#181818;stroke-width:1.0;" x1="32.5" x2="754.5" y1="239.9999" y2="239.9999"/><text fill="#000000" font-family="sans-serif" font-size="13" lengthAdjust="spacing" textLength="282" x="39.5" y="234.4769">Enters "Request title" and "Request justification"</text><polygon fill="#181818" points="748.5,265.5999,758.5,269.5999,748.5,273.5999,752.5,269.5999" style="stroke:#181818;stroke-width:1.0;"/><line style="stroke:#181818;stroke-width:1.0;" x1="32.5" x2="754.5" y1="269.5999" y2="269.5999"/><text fill="#000000" font-family="sans-serif" font-size="13" lengthAdjust="spacing" textLength="193" x="39.5" y="264.0769">Clicks "Submit" (Create Request)</text><polygon fill="#181818" points="532.5,295.1999,522.5,299.1999,532.5,303.1999,528.5,299.1999" style="stroke:#181818;stroke-width:1.0;"/><line style="stroke:#181818;stroke-width:1.0;" x1="526.5" x2="764.5" y1="299.1999" y2="299.1999"/><text fill="#000000" font-family="sans-serif" font-size="13" lengthAdjust="spacing" textLength="101" x="538.5" y="293.6769">onSubmit(values)</text><polygon fill="#181818" points="1104,324.7999,1114,328.7999,1104,332.7999,1108,328.7999" style="stroke:#181818;stroke-width:1.0;"/><line style="stroke:#181818;stroke-width:1.0;" x1="521.5" x2="1110" y1="328.7999" y2="328.7999"/><text fill="#000000" font-family="sans-serif" font-size="13" lengthAdjust="spacing" textLength="64" x="528.5" y="323.2769">getUserId()</text><polygon fill="#181818" points="532.5,354.4,522.5,358.4,532.5,362.4,528.5,358.4" style="stroke:#181818;stroke-width:1.0;"/><line style="stroke:#181818;stroke-width:1.0;stroke-dasharray:2.0,2.0;" x1="526.5" x2="1120" y1="358.4" y2="358.4"/><text fill="#000000" font-family="sans-serif" font-size="13" lengthAdjust="spacing" textLength="36" x="538.5" y="352.877">userId</text><path d="M144,373.4 L204,373.4 L204,381 L194,391 L144,391 L144,373.4 " fill="#EEEEEE" style="stroke:#000000;stroke-width:1.5;"/><rect fill="none" height="702.8001" style="stroke:#000000;stroke-width:1.5;" width="1687.5" x="144" y="373.4"/><text fill="#000000" font-family="sans-serif" font-size="13" font-weight="bold" lengthAdjust="spacing" textLength="15" x="159" y="386.477">alt</text><text fill="#000000" font-family="sans-serif" font-size="11" font-weight="bold" lengthAdjust="spacing" textLength="81" x="219" y="385.6189">[User ID found]</text><polygon fill="#181818" points="946.5,408.6,956.5,412.6,946.5,416.6,950.5,412.6" style="stroke:#181818;stroke-width:1.0;"/><line style="stroke:#181818;stroke-width:1.0;" x1="521.5" x2="952.5" y1="412.6" y2="412.6"/><text fill="#000000" font-family="sans-serif" font-size="13" lengthAdjust="spacing" textLength="418" x="528.5" y="407.077">createRequest({requested_command, justification, requester_id: userId})</text><polygon fill="#181818" points="1240,438.2,1250,442.2,1240,446.2,1244,442.2" style="stroke:#181818;stroke-width:1.0;"/><line style="stroke:#181818;stroke-width:1.0;" x1="968.5" x2="1246" y1="442.2" y2="442.2"/><text fill="#000000" font-family="sans-serif" font-size="13" lengthAdjust="spacing" textLength="217" x="975.5" y="436.677">fetchJson("/requests", {POST, body})</text><polygon fill="#181818" points="1137,467.8,1127,471.8,1137,475.8,1133,471.8" style="stroke:#181818;stroke-width:1.0;"/><line style="stroke:#181818;stroke-width:1.0;" x1="1131" x2="1251" y1="471.8" y2="471.8"/><text fill="#000000" font-family="sans-serif" font-size="13" lengthAdjust="spacing" textLength="62" x="1143" y="466.277">getToken()</text><polygon fill="#181818" points="1240,497.4,1250,501.4,1240,505.4,1244,501.4" style="stroke:#181818;stroke-width:1.0;"/><line style="stroke:#181818;stroke-width:1.0;stroke-dasharray:2.0,2.0;" x1="1121" x2="1246" y1="501.4" y2="501.4"/><text fill="#000000" font-family="sans-serif" font-size="13" lengthAdjust="spacing" textLength="102" x="1128" y="495.877">"user_token_abc"</text><polygon fill="#181818" points="1507,527,1517,531,1507,535,1511,531" style="stroke:#181818;stroke-width:1.0;"/><line style="stroke:#181818;stroke-width:1.0;" x1="1262" x2="1513" y1="531" y2="531"/><text fill="#000000" font-family="sans-serif" font-size="13" lengthAdjust="spacing" textLength="176" x="1269" y="525.477">POST /requests (requestData)</text><path d="M154,546 L214,546 L214,553.6001 L204,563.6001 L154,563.6001 L154,546 " fill="#EEEEEE" style="stroke:#000000;stroke-width:1.5;"/><rect fill="none" height="448.4001" style="stroke:#000000;stroke-width:1.5;" width="1667.5" x="154" y="546"/><text fill="#000000" font-family="sans-serif" font-size="13" font-weight="bold" lengthAdjust="spacing" textLength="15" x="169" y="559.0771">alt</text><text fill="#000000" font-family="sans-serif" font-size="11" font-weight="bold" lengthAdjust="spacing" textLength="163" x="229" y="558.219">[Request created successfully]</text><polygon fill="#181818" points="1273,581.2001,1263,585.2001,1273,589.2001,1269,585.2001" style="stroke:#181818;stroke-width:1.0;"/><line style="stroke:#181818;stroke-width:1.0;stroke-dasharray:2.0,2.0;" x1="1267" x2="1518" y1="585.2001" y2="585.2001"/><text fill="#000000" font-family="sans-serif" font-size="13" lengthAdjust="spacing" textLength="233" x="1279" y="579.6771">HTTP 201 CREATED (message or void)</text><polygon fill="#181818" points="979.5,610.8001,969.5,614.8001,979.5,618.8001,975.5,614.8001" style="stroke:#181818;stroke-width:1.0;"/><line style="stroke:#181818;stroke-width:1.0;stroke-dasharray:2.0,2.0;" x1="973.5" x2="1251" y1="614.8001" y2="614.8001"/><text fill="#000000" font-family="sans-serif" font-size="13" lengthAdjust="spacing" textLength="157" x="985.5" y="609.2771">(void or success message)</text><polygon fill="#181818" points="532.5,640.4001,522.5,644.4001,532.5,648.4001,528.5,644.4001" style="stroke:#181818;stroke-width:1.0;"/><line style="stroke:#181818;stroke-width:1.0;stroke-dasharray:2.0,2.0;" x1="526.5" x2="957.5" y1="644.4001" y2="644.4001"/><text fill="#000000" font-family="sans-serif" font-size="13" lengthAdjust="spacing" textLength="157" x="538.5" y="638.8771">(void or success message)</text><polygon fill="#181818" points="1749,670.0001,1759,674.0001,1749,678.0001,1753,674.0001" style="stroke:#181818;stroke-width:1.0;"/><line style="stroke:#181818;stroke-width:1.0;" x1="521.5" x2="1755" y1="674.0001" y2="674.0001"/><text fill="#000000" font-family="sans-serif" font-size="13" lengthAdjust="spacing" textLength="254" x="528.5" y="668.4771">toast.success("Request sent successfully")</text><polygon fill="#181818" points="1635,729.6001,1645,733.6001,1635,737.6001,1639,733.6001" style="stroke:#181818;stroke-width:1.0;"/><line style="stroke:#181818;stroke-width:1.0;" x1="521.5" x2="1641" y1="733.6001" y2="733.6001"/><text fill="#000000" font-family="sans-serif" font-size="13" lengthAdjust="spacing" textLength="285" x="528.5" y="728.0771">invalidateQueries({queryKey: ['requests', userId]})</text><polygon fill="#181818" points="299.5,759.2001,289.5,763.2001,299.5,767.2001,295.5,763.2001" style="stroke:#181818;stroke-width:1.0;"/><line style="stroke:#181818;stroke-width:1.0;" x1="293.5" x2="1651" y1="763.2001" y2="763.2001"/><text fill="#000000" font-family="sans-serif" font-size="13" lengthAdjust="spacing" textLength="219" x="305.5" y="757.6771">Triggers refetch of user's requests list</text><polygon fill="#181818" points="748.5,788.8002,758.5,792.8002,748.5,796.8002,752.5,792.8002" style="stroke:#181818;stroke-width:1.0;"/><line style="stroke:#181818;stroke-width:1.0;" x1="521.5" x2="754.5" y1="792.8002" y2="792.8002"/><text fill="#000000" font-family="sans-serif" font-size="13" lengthAdjust="spacing" textLength="152" x="528.5" y="787.2772">Resets form (if applicable)</text><line style="stroke:#000000;stroke-width:1.0;stroke-dasharray:2.0,2.0;" x1="154" x2="1821.5" y1="831.8002" y2="831.8002"/><text fill="#000000" font-family="sans-serif" font-size="11" font-weight="bold" lengthAdjust="spacing" textLength="123" x="159" y="842.0191">[Error creating request]</text><polygon fill="#181818" points="1273,863.6001,1263,867.6001,1273,871.6001,1269,867.6001" style="stroke:#181818;stroke-width:1.0;"/><line style="stroke:#181818;stroke-width:1.0;stroke-dasharray:2.0,2.0;" x1="1267" x2="1518" y1="867.6001" y2="867.6001"/><text fill="#000000" font-family="sans-serif" font-size="13" lengthAdjust="spacing" textLength="66" x="1279" y="862.0771">HTTP Error</text><polygon fill="#181818" points="979.5,893.2001,969.5,897.2001,979.5,901.2001,975.5,897.2001" style="stroke:#181818;stroke-width:1.0;"/><line style="stroke:#181818;stroke-width:1.0;" x1="973.5" x2="1251" y1="897.2001" y2="897.2001"/><text fill="#000000" font-family="sans-serif" font-size="13" lengthAdjust="spacing" textLength="70" x="985.5" y="891.6771">throws Error</text><polygon fill="#181818" points="532.5,922.8001,522.5,926.8001,532.5,930.8001,528.5,926.8001" style="stroke:#181818;stroke-width:1.0;"/><line style="stroke:#181818;stroke-width:1.0;stroke-dasharray:2.0,2.0;" x1="526.5" x2="957.5" y1="926.8001" y2="926.8001"/><text fill="#000000" font-family="sans-serif" font-size="13" lengthAdjust="spacing" textLength="70" x="538.5" y="921.2771">throws Error</text><polygon fill="#181818" points="1749,952.4001,1759,956.4001,1749,960.4001,1753,956.4001" style="stroke:#181818;stroke-width:1.0;"/><line style="stroke:#181818;stroke-width:1.0;" x1="521.5" x2="1755" y1="956.4001" y2="956.4001"/><text fill="#000000" font-family="sans-serif" font-size="13" lengthAdjust="spacing" textLength="213" x="528.5" y="950.8771">toast.error("Error sending request...")</text><line style="stroke:#000000;stroke-width:1.0;stroke-dasharray:2.0,2.0;" x1="144" x2="1831.5" y1="1002.4001" y2="1002.4001"/><text fill="#000000" font-family="sans-serif" font-size="11" font-weight="bold" lengthAdjust="spacing" textLength="102" x="149" y="1012.619">[User ID not found]</text><polygon fill="#181818" points="1749,1034.2,1759,1038.2,1749,1042.2,1753,1038.2" style="stroke:#181818;stroke-width:1.0;"/><line style="stroke:#181818;stroke-width:1.0;" x1="521.5" x2="1755" y1="1038.2" y2="1038.2"/><text fill="#000000" font-family="sans-serif" font-size="13" lengthAdjust="spacing" textLength="191" x="528.5" y="1032.677">toast.error("User ID not found...")</text><!--SRC=[bLPDRziu4BthLmnqYGouxhP7eGYGEickMxHrO_kqNHYqHCjiPD8bgHH6qF- -GugKg0zdkpU9dFVcwyr8ckcImcQ-_PCgpGGdSYLAbZ5TvLHjL4Ka4v3C9IKIcfj92Ylwew8yet3BI279COf8feM4s65Y80esYiheHAH6s8bmRMwfV31GfTMI57GkZYV1ATVMFho1T- -IXwcGsO7ba-lhBeqpD66Xqn3hZZOBWvzFIrOST27fUOIYKcHNqdiXZv0uz2IaiZV_mI9hq-sEP8-KvpEjll7CX40TITAXV5-R6TRxwPcMfVWveBofzE4JuLY2EZ7xNaY3MTMHxCgA3c2LPgMo_lTKPuSFId3d-zwyR_2wTYiauSKGxqAxMIvghyj5xL6B8nPqOFwrel8yBvblNV1UuqRBjHP4QPUNUwuhV6ByqLX7HY3mwhehXHG-aoTMO5KLQ06lSw8EEq5algtG_BLhWZ8IP4zerK577QgMkbLAYaSyfrA1OmBRGfm6s1iD47mRS3VmQC3N-h0IQkajsvxHCbUGQ3DvK_XUuTpjMMRzJGPk3CEWAexsZcl3wgS1B2FM5WNMd7Neumj4sBVi4ObMrUx8i9zstjiO9b5eFbv1mMjmyaHGdMeIvNGybR5gUOcdK51jGbpaIL0ATnrvirVZ8LGM63hsm8YKsYuZMDnY4ogUHm0ljCsFQGhTMNvs-g3vDXF78nQwrx-fLn2LMvRxa7vDq5s_6iv76uXtYc6q4vj2Eyrn8_Hu2i_BBwlr57OYFtVf6omUjZpz8gy5-aewG5yiWB3EOIYnIMUh3NHBTbcCfYF5xhjTcjwOQA697nBtT4iqwGQnN9XNRDT3E8eq1rLb6LLgNvNb6Kt04lSZ_6kzNiBRFzx0_E7kPdrt2yaHCMRkyTFq9F1BOg51W6DDJuobGJYVu4XgSBzTusAyp16ITCJd5sAAEmwVPWwPDBEip78Dwn3N4JNLSmpsCEYCFxxeELpUAJ2ECynoH9fpHbNo_CCOVAJd5Fw-yasycZfv__Eh5qP0Poz2-k5gNqjM5FNojLe7iRV4LyqwLb0ofVjPzRtypXfMLBijdB0zaDC95v_v2UWb42widjVk5IqLXJifiS_r9uCNFkYNDMenVIsEI54VfFYf0lFVKzybs8jweyOwYUjqK6jvaCriDlkVOiFYsEqMRWWxtC51kAk6DVORqXRPRsykz8iR_49I0xXFQ2JkaMHC6CC0sr-0uPrLzxy0]--></g></svg>