<?xml version="1.0" encoding="us-ascii" standalone="no"?><svg xmlns="http://www.w3.org/2000/svg" xmlns:xlink="http://www.w3.org/1999/xlink" contentStyleType="text/css" height="684px" preserveAspectRatio="none" style="width:1042px;height:684px;background:#FFFFFF;" version="1.1" viewBox="0 0 1042 684" width="1042px" zoomAndPan="magnify"><defs/><g><text fill="#000000" font-family="sans-serif" font-size="14" font-weight="bold" lengthAdjust="spacing" textLength="452" x="293.5" y="33.0059">UC_GestionarMatriculaUsuario (Pagar Matr&#237;cula): Activity Diagram</text><ellipse cx="507.25" cy="57.7999" fill="#222222" rx="10" ry="10" style="stroke:#222222;stroke-width:1.0;"/><rect fill="#F1F1F1" height="34.4001" rx="12.5" ry="12.5" style="stroke:#181818;stroke-width:0.5;" width="241" x="386.75" y="87.7999"/><text fill="#000000" font-family="sans-serif" font-size="12" lengthAdjust="spacing" textLength="221" x="396.75" y="108.948">Usuario navega a la p&#225;gina de Matr&#237;cula</text><rect fill="#F1F1F1" height="34.4001" rx="12.5" ry="12.5" style="stroke:#181818;stroke-width:0.5;" width="317" x="348.75" y="142.2"/><text fill="#000000" font-family="sans-serif" font-size="12" lengthAdjust="spacing" textLength="297" x="358.75" y="163.3481">Sistema verifica si el usuario tiene una matr&#237;cula activa</text><polygon fill="#F1F1F1" points="465.25,196.6001,549.25,196.6001,561.25,208.6001,549.25,220.6001,465.25,220.6001,453.25,208.6001,465.25,196.6001" style="stroke:#181818;stroke-width:0.5;"/><text fill="#000000" font-family="sans-serif" font-size="11" lengthAdjust="spacing" textLength="84" x="465.25" y="212.2191">Matr&#237;cula Activa?</text><text fill="#000000" font-family="sans-serif" font-size="11" lengthAdjust="spacing" textLength="9" x="444.25" y="205.6192">s&#237;</text><text fill="#000000" font-family="sans-serif" font-size="11" lengthAdjust="spacing" textLength="12" x="561.25" y="205.6192">no</text><rect fill="#F1F1F1" height="34.4001" rx="12.5" ry="12.5" style="stroke:#181818;stroke-width:0.5;" width="435" x="11" y="230.6001"/><text fill="#000000" font-family="sans-serif" font-size="12" lengthAdjust="spacing" textLength="415" x="21" y="251.7482">Sistema muestra detalles de la matr&#237;cula activa (fecha pago, expiraci&#243;n, etc.)</text><rect fill="#F1F1F1" height="34.4001" rx="12.5" ry="12.5" style="stroke:#181818;stroke-width:0.5;" width="269" x="651.5" y="230.6001"/><text fill="#000000" font-family="sans-serif" font-size="12" lengthAdjust="spacing" textLength="249" x="661.5" y="251.7482">Sistema muestra opciones de planes de pago</text><rect fill="#F1F1F1" height="34.4001" rx="12.5" ry="12.5" style="stroke:#181818;stroke-width:0.5;" width="219" x="676.5" y="285.0002"/><text fill="#000000" font-family="sans-serif" font-size="12" lengthAdjust="spacing" textLength="199" x="686.5" y="306.1483">Usuario selecciona un Plan de Pago</text><rect fill="#F1F1F1" height="34.4001" rx="12.5" ry="12.5" style="stroke:#181818;stroke-width:0.5;" width="490" x="541" y="339.4003"/><text fill="#000000" font-family="sans-serif" font-size="12" lengthAdjust="spacing" textLength="470" x="551" y="360.5484">Sistema env&#237;a solicitud de pago al Backend API (monto, ID Usuario impl&#237;cito por token)</text><polygon fill="#F1F1F1" points="720.5,393.8004,851.5,393.8004,863.5,405.8004,851.5,417.8004,720.5,417.8004,708.5,405.8004,720.5,393.8004" style="stroke:#181818;stroke-width:0.5;"/><text fill="#000000" font-family="sans-serif" font-size="11" lengthAdjust="spacing" textLength="131" x="720.5" y="409.4194">Pago Exitoso en Backend?</text><text fill="#000000" font-family="sans-serif" font-size="11" lengthAdjust="spacing" textLength="9" x="699.5" y="402.8195">s&#237;</text><text fill="#000000" font-family="sans-serif" font-size="11" lengthAdjust="spacing" textLength="88" x="863.5" y="402.8195">no - error en pago</text><rect fill="#F1F1F1" height="34.4001" rx="12.5" ry="12.5" style="stroke:#181818;stroke-width:0.5;" width="334" x="476" y="427.8004"/><text fill="#000000" font-family="sans-serif" font-size="12" lengthAdjust="spacing" textLength="314" x="486" y="448.9485">Backend API confirma el pago y crea registro de matr&#237;cula</text><rect fill="#F1F1F1" height="34.4001" rx="12.5" ry="12.5" style="stroke:#181818;stroke-width:0.5;" width="198" x="544" y="482.2005"/><text fill="#000000" font-family="sans-serif" font-size="12" lengthAdjust="spacing" textLength="178" x="554" y="503.3486">Mostrar mensaje de &#233;xito (Toast)</text><rect fill="#F1F1F1" height="34.4001" rx="12.5" ry="12.5" style="stroke:#181818;stroke-width:0.5;" width="299" x="493.5" y="536.6006"/><text fill="#000000" font-family="sans-serif" font-size="12" lengthAdjust="spacing" textLength="279" x="503.5" y="557.7487">Actualizar UI para mostrar la nueva matr&#237;cula activa</text><rect fill="#F1F1F1" height="34.4001" rx="12.5" ry="12.5" style="stroke:#181818;stroke-width:0.5;" width="161" x="848.5" y="427.8004"/><text fill="#000000" font-family="sans-serif" font-size="12" lengthAdjust="spacing" textLength="141" x="858.5" y="448.9485">Backend API retorna error</text><rect fill="#F1F1F1" height="34.4001" rx="12.5" ry="12.5" style="stroke:#181818;stroke-width:0.5;" width="198" x="830" y="482.2005"/><text fill="#000000" font-family="sans-serif" font-size="12" lengthAdjust="spacing" textLength="178" x="840" y="503.3486">Mostrar mensaje de error (Toast)</text><polygon fill="#F1F1F1" points="786,577.0007,798,589.0007,786,601.0007,774,589.0007,786,577.0007" style="stroke:#181818;stroke-width:0.5;"/><polygon fill="#F1F1F1" points="507.25,607.0007,519.25,619.0007,507.25,631.0007,495.25,619.0007,507.25,607.0007" style="stroke:#181818;stroke-width:0.5;"/><ellipse cx="507.25" cy="662.0007" fill="none" rx="11" ry="11" style="stroke:#222222;stroke-width:1.0;"/><ellipse cx="507.25" cy="662.0007" fill="#222222" rx="6" ry="6" style="stroke:#222222;stroke-width:1.0;"/><line style="stroke:#181818;stroke-width:1.0;" x1="507.25" x2="507.25" y1="67.7999" y2="87.7999"/><polygon fill="#181818" points="503.25,77.7999,507.25,87.7999,511.25,77.7999,507.25,81.7999" style="stroke:#181818;stroke-width:1.0;"/><line style="stroke:#181818;stroke-width:1.0;" x1="507.25" x2="507.25" y1="122.2" y2="142.2"/><polygon fill="#181818" points="503.25,132.2,507.25,142.2,511.25,132.2,507.25,136.2" style="stroke:#181818;stroke-width:1.0;"/><line style="stroke:#181818;stroke-width:1.0;" x1="786" x2="786" y1="265.0002" y2="285.0002"/><polygon fill="#181818" points="782,275.0002,786,285.0002,790,275.0002,786,279.0002" style="stroke:#181818;stroke-width:1.0;"/><line style="stroke:#181818;stroke-width:1.0;" x1="786" x2="786" y1="319.4003" y2="339.4003"/><polygon fill="#181818" points="782,329.4003,786,339.4003,790,329.4003,786,333.4003" style="stroke:#181818;stroke-width:1.0;"/><line style="stroke:#181818;stroke-width:1.0;" x1="643" x2="643" y1="462.2005" y2="482.2005"/><polygon fill="#181818" points="639,472.2005,643,482.2005,647,472.2005,643,476.2005" style="stroke:#181818;stroke-width:1.0;"/><line style="stroke:#181818;stroke-width:1.0;" x1="643" x2="643" y1="516.6006" y2="536.6006"/><polygon fill="#181818" points="639,526.6006,643,536.6006,647,526.6006,643,530.6006" style="stroke:#181818;stroke-width:1.0;"/><line style="stroke:#181818;stroke-width:1.0;" x1="929" x2="929" y1="462.2005" y2="482.2005"/><polygon fill="#181818" points="925,472.2005,929,482.2005,933,472.2005,929,476.2005" style="stroke:#181818;stroke-width:1.0;"/><line style="stroke:#181818;stroke-width:1.0;" x1="708.5" x2="643" y1="405.8004" y2="405.8004"/><line style="stroke:#181818;stroke-width:1.0;" x1="643" x2="643" y1="405.8004" y2="427.8004"/><polygon fill="#181818" points="639,417.8004,643,427.8004,647,417.8004,643,421.8004" style="stroke:#181818;stroke-width:1.0;"/><line style="stroke:#181818;stroke-width:1.0;" x1="863.5" x2="929" y1="405.8004" y2="405.8004"/><line style="stroke:#181818;stroke-width:1.0;" x1="929" x2="929" y1="405.8004" y2="427.8004"/><polygon fill="#181818" points="925,417.8004,929,427.8004,933,417.8004,929,421.8004" style="stroke:#181818;stroke-width:1.0;"/><line style="stroke:#181818;stroke-width:1.0;" x1="643" x2="643" y1="571.0007" y2="589.0007"/><line style="stroke:#181818;stroke-width:1.0;" x1="643" x2="774" y1="589.0007" y2="589.0007"/><polygon fill="#181818" points="764,585.0007,774,589.0007,764,593.0007,768,589.0007" style="stroke:#181818;stroke-width:1.0;"/><line style="stroke:#181818;stroke-width:1.0;" x1="929" x2="929" y1="516.6006" y2="589.0007"/><line style="stroke:#181818;stroke-width:1.0;" x1="929" x2="798" y1="589.0007" y2="589.0007"/><polygon fill="#181818" points="808,585.0007,798,589.0007,808,593.0007,804,589.0007" style="stroke:#181818;stroke-width:1.0;"/><line style="stroke:#181818;stroke-width:1.0;" x1="786" x2="786" y1="373.8004" y2="393.8004"/><polygon fill="#181818" points="782,383.8004,786,393.8004,790,383.8004,786,387.8004" style="stroke:#181818;stroke-width:1.0;"/><line style="stroke:#181818;stroke-width:1.0;" x1="453.25" x2="228.5" y1="208.6001" y2="208.6001"/><line style="stroke:#181818;stroke-width:1.0;" x1="228.5" x2="228.5" y1="208.6001" y2="230.6001"/><polygon fill="#181818" points="224.5,220.6001,228.5,230.6001,232.5,220.6001,228.5,224.6001" style="stroke:#181818;stroke-width:1.0;"/><line style="stroke:#181818;stroke-width:1.0;" x1="561.25" x2="786" y1="208.6001" y2="208.6001"/><line style="stroke:#181818;stroke-width:1.0;" x1="786" x2="786" y1="208.6001" y2="230.6001"/><polygon fill="#181818" points="782,220.6001,786,230.6001,790,220.6001,786,224.6001" style="stroke:#181818;stroke-width:1.0;"/><line style="stroke:#181818;stroke-width:1.0;" x1="228.5" x2="228.5" y1="265.0002" y2="619.0007"/><line style="stroke:#181818;stroke-width:1.0;" x1="228.5" x2="495.25" y1="619.0007" y2="619.0007"/><polygon fill="#181818" points="485.25,615.0007,495.25,619.0007,485.25,623.0007,489.25,619.0007" style="stroke:#181818;stroke-width:1.0;"/><line style="stroke:#181818;stroke-width:1.0;" x1="786" x2="786" y1="601.0007" y2="619.0007"/><line style="stroke:#181818;stroke-width:1.0;" x1="786" x2="519.25" y1="619.0007" y2="619.0007"/><polygon fill="#181818" points="529.25,615.0007,519.25,619.0007,529.25,623.0007,525.25,619.0007" style="stroke:#181818;stroke-width:1.0;"/><line style="stroke:#181818;stroke-width:1.0;" x1="507.25" x2="507.25" y1="176.6001" y2="196.6001"/><polygon fill="#181818" points="503.25,186.6001,507.25,196.6001,511.25,186.6001,507.25,190.6001" style="stroke:#181818;stroke-width:1.0;"/><line style="stroke:#181818;stroke-width:1.0;" x1="507.25" x2="507.25" y1="631.0007" y2="651.0007"/><polygon fill="#181818" points="503.25,641.0007,507.25,651.0007,511.25,641.0007,507.25,645.0007" style="stroke:#181818;stroke-width:1.0;"/><!--SRC=[TP91Rjj034NtEiLVIa3R0zYB86sAmei01Xgl2s9CAMn7Cy8C9IIzJPTTUDKZw6BbH5Pg5Cv6a6O-7py_fQAUSVZqxGjdbHWetPCcSQEdGnufIKIzfuuIolbyAXVD1hTEPH9znfrGbwYlggoKjDgiHO4cxWW4JnZcNvq4mf4l8DjgyrMoSa-OE4ahZf05x36U4IeS6ACLzgzLeDBOYgL5_G-s-A6R1lh80NMUJqq5l7ReHvik5GTAtdCkLlmLBkgMtQCvfYw-0pyDaiZ9_2VOXxeFpRPYdnbrY5VnSN0MuO8VFArl1jiM-PfDPi-kACccmzw4HRPVPIkLmpIVB9JenOcEnvK5ylX8xWU78sxtEzHz36fsTtTOEqW_U1jCD6A82HfDt1HuYQqqmkSdkypHcgoi_yCp9vTTN0ojf6BBBowUuH8J4dVcDyNYhh_OxWlWFfPS4deEcRvpqSo_IsVK3v6oDcUThMyaBpzDUjWPthBipwMscp3oTFKd0DPru3qu9HlL1YZkhWoGM6Eoo5zqR_jRC1Vsh5xQQdbcZSDV]--></g></svg>