<?xml version="1.0" encoding="us-ascii" standalone="no"?><svg xmlns="http://www.w3.org/2000/svg" xmlns:xlink="http://www.w3.org/1999/xlink" contentStyleType="text/css" height="1051px" preserveAspectRatio="none" style="width:2527px;height:1051px;background:#FFFFFF;" version="1.1" viewBox="0 0 2527 1051" width="2527px" zoomAndPan="magnify"><defs/><g><text fill="#000000" font-family="sans-serif" font-size="14" font-weight="bold" lengthAdjust="spacing" textLength="488" x="1020.5" y="28.0059">UC_GestionarAsistenciaEntrenamientosEntrenador: Sequence Diagram</text><rect fill="#FFFFFF" height="808.6002" style="stroke:#181818;stroke-width:1.0;" width="10" x="299.5" y="151.1999"/><rect fill="#FFFFFF" height="719.8002" style="stroke:#181818;stroke-width:1.0;" width="10" x="767" y="239.9999"/><rect fill="#FFFFFF" height="558.8001" style="stroke:#181818;stroke-width:1.0;" width="10" x="1461.5" y="401"/><rect fill="#FFFFFF" height="529.2001" style="stroke:#181818;stroke-width:1.0;" width="10" x="1831.5" y="430.6"/><rect fill="#FFFFFF" height="29.6" style="stroke:#181818;stroke-width:1.0;" width="10" x="1978.5" y="460.2"/><rect fill="#FFFFFF" height="440.4001" style="stroke:#181818;stroke-width:1.0;" width="10" x="2217.5" y="519.4"/><rect fill="#FFFFFF" height="29.6" style="stroke:#181818;stroke-width:1.0;" width="10" x="2345.5" y="722.0001"/><rect fill="#FFFFFF" height="30" style="stroke:#181818;stroke-width:1.0;" width="10" x="2459.5" y="662.4001"/><rect fill="#FFFFFF" height="30" style="stroke:#181818;stroke-width:1.0;" width="10" x="2459.5" y="885.2001"/><rect fill="none" height="418.4001" style="stroke:#000000;stroke-width:1.5;" width="1867" x="653" y="534.4"/><line style="stroke:#181818;stroke-width:0.5;stroke-dasharray:5.0,5.0;" x1="43" x2="43" y1="119.5999" y2="969.8001"/><line style="stroke:#181818;stroke-width:0.5;stroke-dasharray:5.0,5.0;" x1="304" x2="304" y1="119.5999" y2="969.8001"/><line style="stroke:#181818;stroke-width:0.5;stroke-dasharray:5.0,5.0;" x1="567" x2="567" y1="119.5999" y2="969.8001"/><line style="stroke:#181818;stroke-width:0.5;stroke-dasharray:5.0,5.0;" x1="772" x2="772" y1="119.5999" y2="969.8001"/><line style="stroke:#181818;stroke-width:0.5;stroke-dasharray:5.0,5.0;" x1="1267.5" x2="1267.5" y1="119.5999" y2="969.8001"/><line style="stroke:#181818;stroke-width:0.5;stroke-dasharray:5.0,5.0;" x1="1466.5" x2="1466.5" y1="119.5999" y2="969.8001"/><line style="stroke:#181818;stroke-width:0.5;stroke-dasharray:5.0,5.0;" x1="1836" x2="1836" y1="119.5999" y2="969.8001"/><line style="stroke:#181818;stroke-width:0.5;stroke-dasharray:5.0,5.0;" x1="1983.5" x2="1983.5" y1="119.5999" y2="969.8001"/><line style="stroke:#181818;stroke-width:0.5;stroke-dasharray:5.0,5.0;" x1="2222" x2="2222" y1="119.5999" y2="969.8001"/><line style="stroke:#181818;stroke-width:0.5;stroke-dasharray:5.0,5.0;" x1="2350" x2="2350" y1="119.5999" y2="969.8001"/><line style="stroke:#181818;stroke-width:0.5;stroke-dasharray:5.0,5.0;" x1="2464" x2="2464" y1="119.5999" y2="969.8001"/><text fill="#000000" font-family="sans-serif" font-size="14" lengthAdjust="spacing" textLength="71" x="5" y="115.8059">Entrenador</text><ellipse cx="43.5" cy="51.2999" fill="#E2E2F0" rx="8" ry="8" style="stroke:#181818;stroke-width:0.5;"/><path d="M43.5,59.2999 L43.5,86.2999 M30.5,67.2999 L56.5,67.2999 M43.5,86.2999 L30.5,101.2999 M43.5,86.2999 L56.5,101.2999 " fill="none" style="stroke:#181818;stroke-width:0.5;"/><text fill="#000000" font-family="sans-serif" font-size="14" lengthAdjust="spacing" textLength="71" x="5" y="981.806">Entrenador</text><ellipse cx="43.5" cy="994.1" fill="#E2E2F0" rx="8" ry="8" style="stroke:#181818;stroke-width:0.5;"/><path d="M43.5,1002.1 L43.5,1029.1 M30.5,1010.1 L56.5,1010.1 M43.5,1029.1 L30.5,1044.1 M43.5,1029.1 L56.5,1044.1 " fill="none" style="stroke:#181818;stroke-width:0.5;"/><rect fill="#E2E2F0" height="36" rx="2.5" ry="2.5" style="stroke:#181818;stroke-width:0.5;" width="247" x="181" y="82.5999"/><ellipse cx="199" cy="100.5999" fill="#DA70D6" rx="11" ry="11" style="stroke:#181818;stroke-width:1.0;"/><path d="M196.8594,101.9905 L198.4375,101.9905 C199.1094,102.2405 200.5938,103.9124 201.4688,105.4905 L201.5313,105.5999 L202.9063,105.5999 C203.2344,105.5999 203.5156,105.553 203.6563,105.4749 C203.9219,105.3186 204.0938,105.0217 204.0938,104.7092 C204.0938,104.4436 203.9375,104.1624 203.7188,104.0061 C203.5313,103.8655 203.3594,103.8342 202.9063,103.8342 L202.7188,103.8342 C202.0625,102.8499 201.3906,102.053 200.6563,101.4124 C201.8594,100.7874 202.4375,99.9905 202.4375,98.9592 C202.4375,97.2249 200.8906,96.0061 198.6406,96.0061 L194.8438,96.0061 C194.3906,96.0061 194.2656,96.0217 194.0938,96.1311 C193.8281,96.303 193.6563,96.5842 193.6563,96.8811 C193.6563,97.1624 193.8125,97.4436 194.0313,97.5999 C194.2188,97.7249 194.4063,97.7561 194.8438,97.7561 L195.0313,97.7561 L195.0313,103.8342 L194.8438,103.8342 C194.4219,103.8342 194.2656,103.8655 194.0938,103.9749 C193.8281,104.1155 193.6563,104.4124 193.6563,104.7092 C193.6563,105.2874 194.0625,105.5999 194.8438,105.5999 L197.3906,105.5999 C197.75,105.5999 198,105.553 198.1406,105.4749 C198.4063,105.3186 198.5781,105.0217 198.5781,104.7092 C198.5781,104.4436 198.4531,104.178 198.2031,104.0061 C198.0156,103.8655 197.875,103.8342 197.3906,103.8342 L196.8594,103.8342 L196.8594,101.9905 Z M196.8594,100.2405 L196.8594,97.7561 L198.7031,97.7561 C199.7344,97.7561 200.5,98.2405 200.5,98.8967 C200.5,99.678 199.4844,100.2405 198.0938,100.2405 L196.8594,100.2405 Z " fill="#000000"/><text fill="#000000" font-family="sans-serif" font-size="14" lengthAdjust="spacing" textLength="205" x="216" y="102.6058">TrainerTrainingPageComponent</text><rect fill="#E2E2F0" height="36" rx="2.5" ry="2.5" style="stroke:#181818;stroke-width:0.5;" width="247" x="181" y="968.8001"/><ellipse cx="199" cy="986.8001" fill="#DA70D6" rx="11" ry="11" style="stroke:#181818;stroke-width:1.0;"/><path d="M196.8594,988.1907 L198.4375,988.1907 C199.1094,988.4407 200.5938,990.1126 201.4688,991.6907 L201.5313,991.8001 L202.9063,991.8001 C203.2344,991.8001 203.5156,991.7532 203.6563,991.6751 C203.9219,991.5188 204.0938,991.222 204.0938,990.9095 C204.0938,990.6438 203.9375,990.3626 203.7188,990.2063 C203.5313,990.0657 203.3594,990.0345 202.9063,990.0345 L202.7188,990.0345 C202.0625,989.0501 201.3906,988.2532 200.6563,987.6126 C201.8594,986.9876 202.4375,986.1907 202.4375,985.1595 C202.4375,983.4251 200.8906,982.2063 198.6406,982.2063 L194.8438,982.2063 C194.3906,982.2063 194.2656,982.222 194.0938,982.3313 C193.8281,982.5032 193.6563,982.7845 193.6563,983.0813 C193.6563,983.3626 193.8125,983.6438 194.0313,983.8001 C194.2188,983.9251 194.4063,983.9563 194.8438,983.9563 L195.0313,983.9563 L195.0313,990.0345 L194.8438,990.0345 C194.4219,990.0345 194.2656,990.0657 194.0938,990.1751 C193.8281,990.3157 193.6563,990.6126 193.6563,990.9095 C193.6563,991.4876 194.0625,991.8001 194.8438,991.8001 L197.3906,991.8001 C197.75,991.8001 198,991.7532 198.1406,991.6751 C198.4063,991.5188 198.5781,991.222 198.5781,990.9095 C198.5781,990.6438 198.4531,990.3782 198.2031,990.2063 C198.0156,990.0657 197.875,990.0345 197.3906,990.0345 L196.8594,990.0345 L196.8594,988.1907 Z M196.8594,986.4407 L196.8594,983.9563 L198.7031,983.9563 C199.7344,983.9563 200.5,984.4407 200.5,985.097 C200.5,985.8782 199.4844,986.4407 198.0938,986.4407 L196.8594,986.4407 Z " fill="#000000"/><text fill="#000000" font-family="sans-serif" font-size="14" lengthAdjust="spacing" textLength="205" x="216" y="988.806">TrainerTrainingPageComponent</text><rect fill="#E2E2F0" height="36" rx="2.5" ry="2.5" style="stroke:#181818;stroke-width:0.5;" width="171" x="482" y="82.5999"/><ellipse cx="500" cy="100.5999" fill="#D3D3D3" rx="11" ry="11" style="stroke:#181818;stroke-width:1.0;"/><path d="M495,101.7561 C495,104.2561 497.1406,106.0686 500.0625,106.0686 C501.2969,106.0686 502.4688,105.7717 503.2188,105.2561 C503.8281,104.8342 504.1563,104.4124 504.1563,104.0061 C504.1563,103.5374 503.7344,103.1311 503.2344,103.1311 C503,103.1311 502.7813,103.2092 502.5781,103.4124 C502.1406,103.8499 502.1406,103.8499 501.9688,103.9436 C501.5156,104.178 500.875,104.3186 500.1094,104.3186 C498.1094,104.3186 496.8281,103.303 496.8281,101.7249 L496.8281,100.678 C496.8281,98.9749 498.0469,97.7717 499.75,97.7717 C500.3281,97.7717 500.9063,97.9124 501.375,98.1624 C501.8438,98.428 502.0156,98.6155 502.0781,98.9749 C502.2031,99.6467 502.4531,99.8967 502.9844,99.8967 C503.2656,99.8967 503.5469,99.7561 503.7344,99.5374 C503.8594,99.3655 503.9063,99.1936 503.9063,98.7561 L503.9063,97.3967 C503.9063,96.9749 503.8906,96.8342 503.7656,96.6624 C503.5938,96.4124 503.3125,96.2561 502.9844,96.2561 C502.6719,96.2561 502.4688,96.3655 502.25,96.6311 C501.0781,96.1311 500.6406,96.0217 499.6875,96.0217 C497.0156,96.0217 495,98.0374 495,100.6624 L495,101.7561 Z " fill="#000000"/><text fill="#000000" font-family="sans-serif" font-size="14" lengthAdjust="spacing" textLength="129" x="517" y="102.6058">TrainerTrainingCard</text><rect fill="#E2E2F0" height="36" rx="2.5" ry="2.5" style="stroke:#181818;stroke-width:0.5;" width="171" x="482" y="968.8001"/><ellipse cx="500" cy="986.8001" fill="#D3D3D3" rx="11" ry="11" style="stroke:#181818;stroke-width:1.0;"/><path d="M495,987.9563 C495,990.4563 497.1406,992.2688 500.0625,992.2688 C501.2969,992.2688 502.4688,991.972 503.2188,991.4563 C503.8281,991.0345 504.1563,990.6126 504.1563,990.2063 C504.1563,989.7376 503.7344,989.3313 503.2344,989.3313 C503,989.3313 502.7813,989.4095 502.5781,989.6126 C502.1406,990.0501 502.1406,990.0501 501.9688,990.1438 C501.5156,990.3782 500.875,990.5188 500.1094,990.5188 C498.1094,990.5188 496.8281,989.5032 496.8281,987.9251 L496.8281,986.8782 C496.8281,985.1751 498.0469,983.972 499.75,983.972 C500.3281,983.972 500.9063,984.1126 501.375,984.3626 C501.8438,984.6282 502.0156,984.8157 502.0781,985.1751 C502.2031,985.847 502.4531,986.097 502.9844,986.097 C503.2656,986.097 503.5469,985.9563 503.7344,985.7376 C503.8594,985.5657 503.9063,985.3938 503.9063,984.9563 L503.9063,983.597 C503.9063,983.1751 503.8906,983.0345 503.7656,982.8626 C503.5938,982.6126 503.3125,982.4563 502.9844,982.4563 C502.6719,982.4563 502.4688,982.5657 502.25,982.8313 C501.0781,982.3313 500.6406,982.222 499.6875,982.222 C497.0156,982.222 495,984.2376 495,986.8626 L495,987.9563 Z " fill="#000000"/><text fill="#000000" font-family="sans-serif" font-size="14" lengthAdjust="spacing" textLength="129" x="517" y="988.806">TrainerTrainingCard</text><rect fill="#E2E2F0" height="36" rx="2.5" ry="2.5" style="stroke:#181818;stroke-width:0.5;" width="218" x="663" y="82.5999"/><ellipse cx="681" cy="100.5999" fill="#D3D3D3" rx="11" ry="11" style="stroke:#181818;stroke-width:1.0;"/><path d="M676,101.7561 C676,104.2561 678.1406,106.0686 681.0625,106.0686 C682.2969,106.0686 683.4688,105.7717 684.2188,105.2561 C684.8281,104.8342 685.1563,104.4124 685.1563,104.0061 C685.1563,103.5374 684.7344,103.1311 684.2344,103.1311 C684,103.1311 683.7813,103.2092 683.5781,103.4124 C683.1406,103.8499 683.1406,103.8499 682.9688,103.9436 C682.5156,104.178 681.875,104.3186 681.1094,104.3186 C679.1094,104.3186 677.8281,103.303 677.8281,101.7249 L677.8281,100.678 C677.8281,98.9749 679.0469,97.7717 680.75,97.7717 C681.3281,97.7717 681.9063,97.9124 682.375,98.1624 C682.8438,98.428 683.0156,98.6155 683.0781,98.9749 C683.2031,99.6467 683.4531,99.8967 683.9844,99.8967 C684.2656,99.8967 684.5469,99.7561 684.7344,99.5374 C684.8594,99.3655 684.9063,99.1936 684.9063,98.7561 L684.9063,97.3967 C684.9063,96.9749 684.8906,96.8342 684.7656,96.6624 C684.5938,96.4124 684.3125,96.2561 683.9844,96.2561 C683.6719,96.2561 683.4688,96.3655 683.25,96.6311 C682.0781,96.1311 681.6406,96.0217 680.6875,96.0217 C678.0156,96.0217 676,98.0374 676,100.6624 L676,101.7561 Z " fill="#000000"/><text fill="#000000" font-family="sans-serif" font-size="14" lengthAdjust="spacing" textLength="176" x="698" y="102.6058">TrainingManagementDialog</text><rect fill="#E2E2F0" height="36" rx="2.5" ry="2.5" style="stroke:#181818;stroke-width:0.5;" width="218" x="663" y="968.8001"/><ellipse cx="681" cy="986.8001" fill="#D3D3D3" rx="11" ry="11" style="stroke:#181818;stroke-width:1.0;"/><path d="M676,987.9563 C676,990.4563 678.1406,992.2688 681.0625,992.2688 C682.2969,992.2688 683.4688,991.972 684.2188,991.4563 C684.8281,991.0345 685.1563,990.6126 685.1563,990.2063 C685.1563,989.7376 684.7344,989.3313 684.2344,989.3313 C684,989.3313 683.7813,989.4095 683.5781,989.6126 C683.1406,990.0501 683.1406,990.0501 682.9688,990.1438 C682.5156,990.3782 681.875,990.5188 681.1094,990.5188 C679.1094,990.5188 677.8281,989.5032 677.8281,987.9251 L677.8281,986.8782 C677.8281,985.1751 679.0469,983.972 680.75,983.972 C681.3281,983.972 681.9063,984.1126 682.375,984.3626 C682.8438,984.6282 683.0156,984.8157 683.0781,985.1751 C683.2031,985.847 683.4531,986.097 683.9844,986.097 C684.2656,986.097 684.5469,985.9563 684.7344,985.7376 C684.8594,985.5657 684.9063,985.3938 684.9063,984.9563 L684.9063,983.597 C684.9063,983.1751 684.8906,983.0345 684.7656,982.8626 C684.5938,982.6126 684.3125,982.4563 683.9844,982.4563 C683.6719,982.4563 683.4688,982.5657 683.25,982.8313 C682.0781,982.3313 681.6406,982.222 680.6875,982.222 C678.0156,982.222 676,984.2376 676,986.8626 L676,987.9563 Z " fill="#000000"/><text fill="#000000" font-family="sans-serif" font-size="14" lengthAdjust="spacing" textLength="176" x="698" y="988.806">TrainingManagementDialog</text><rect fill="#E2E2F0" height="36" rx="2.5" ry="2.5" style="stroke:#181818;stroke-width:0.5;" width="169" x="1183.5" y="82.5999"/><ellipse cx="1201.5" cy="100.5999" fill="#D3D3D3" rx="11" ry="11" style="stroke:#181818;stroke-width:1.0;"/><path d="M1196.5,101.7561 C1196.5,104.2561 1198.6406,106.0686 1201.5625,106.0686 C1202.7969,106.0686 1203.9688,105.7717 1204.7188,105.2561 C1205.3281,104.8342 1205.6563,104.4124 1205.6563,104.0061 C1205.6563,103.5374 1205.2344,103.1311 1204.7344,103.1311 C1204.5,103.1311 1204.2813,103.2092 1204.0781,103.4124 C1203.6406,103.8499 1203.6406,103.8499 1203.4688,103.9436 C1203.0156,104.178 1202.375,104.3186 1201.6094,104.3186 C1199.6094,104.3186 1198.3281,103.303 1198.3281,101.7249 L1198.3281,100.678 C1198.3281,98.9749 1199.5469,97.7717 1201.25,97.7717 C1201.8281,97.7717 1202.4063,97.9124 1202.875,98.1624 C1203.3438,98.428 1203.5156,98.6155 1203.5781,98.9749 C1203.7031,99.6467 1203.9531,99.8967 1204.4844,99.8967 C1204.7656,99.8967 1205.0469,99.7561 1205.2344,99.5374 C1205.3594,99.3655 1205.4063,99.1936 1205.4063,98.7561 L1205.4063,97.3967 C1205.4063,96.9749 1205.3906,96.8342 1205.2656,96.6624 C1205.0938,96.4124 1204.8125,96.2561 1204.4844,96.2561 C1204.1719,96.2561 1203.9688,96.3655 1203.75,96.6311 C1202.5781,96.1311 1202.1406,96.0217 1201.1875,96.0217 C1198.5156,96.0217 1196.5,98.0374 1196.5,100.6624 L1196.5,101.7561 Z " fill="#000000"/><text fill="#000000" font-family="sans-serif" font-size="14" lengthAdjust="spacing" textLength="127" x="1218.5" y="102.6058">Switch (Attendance)</text><rect fill="#E2E2F0" height="36" rx="2.5" ry="2.5" style="stroke:#181818;stroke-width:0.5;" width="169" x="1183.5" y="968.8001"/><ellipse cx="1201.5" cy="986.8001" fill="#D3D3D3" rx="11" ry="11" style="stroke:#181818;stroke-width:1.0;"/><path d="M1196.5,987.9563 C1196.5,990.4563 1198.6406,992.2688 1201.5625,992.2688 C1202.7969,992.2688 1203.9688,991.972 1204.7188,991.4563 C1205.3281,991.0345 1205.6563,990.6126 1205.6563,990.2063 C1205.6563,989.7376 1205.2344,989.3313 1204.7344,989.3313 C1204.5,989.3313 1204.2813,989.4095 1204.0781,989.6126 C1203.6406,990.0501 1203.6406,990.0501 1203.4688,990.1438 C1203.0156,990.3782 1202.375,990.5188 1201.6094,990.5188 C1199.6094,990.5188 1198.3281,989.5032 1198.3281,987.9251 L1198.3281,986.8782 C1198.3281,985.1751 1199.5469,983.972 1201.25,983.972 C1201.8281,983.972 1202.4063,984.1126 1202.875,984.3626 C1203.3438,984.6282 1203.5156,984.8157 1203.5781,985.1751 C1203.7031,985.847 1203.9531,986.097 1204.4844,986.097 C1204.7656,986.097 1205.0469,985.9563 1205.2344,985.7376 C1205.3594,985.5657 1205.4063,985.3938 1205.4063,984.9563 L1205.4063,983.597 C1205.4063,983.1751 1205.3906,983.0345 1205.2656,982.8626 C1205.0938,982.6126 1204.8125,982.4563 1204.4844,982.4563 C1204.1719,982.4563 1203.9688,982.5657 1203.75,982.8313 C1202.5781,982.3313 1202.1406,982.222 1201.1875,982.222 C1198.5156,982.222 1196.5,984.2376 1196.5,986.8626 L1196.5,987.9563 Z " fill="#000000"/><text fill="#000000" font-family="sans-serif" font-size="14" lengthAdjust="spacing" textLength="127" x="1218.5" y="988.806">Switch (Attendance)</text><rect fill="#E2E2F0" height="47.5999" rx="2.5" ry="2.5" style="stroke:#181818;stroke-width:0.5;" width="208" x="1362.5" y="71"/><ellipse cx="1380.5" cy="89" fill="#FFFF00" rx="11" ry="11" style="stroke:#181818;stroke-width:1.0;"/><path d="M1379.3594,90.0625 L1380.6719,90.0625 L1380.6719,90.1094 C1380.6719,90.5 1380.7031,90.6875 1380.7969,90.8438 C1380.9688,91.0938 1381.2656,91.2656 1381.5781,91.2656 C1381.8594,91.2656 1382.1406,91.125 1382.3281,90.9063 C1382.4531,90.7188 1382.5,90.5625 1382.5,90.1094 L1382.5,88.2813 C1382.5,87.8594 1382.4844,87.7344 1382.3594,87.5625 C1382.2031,87.2969 1381.9063,87.125 1381.5781,87.125 C1381.2813,87.125 1381.0156,87.2656 1380.8438,87.4844 C1380.7031,87.6719 1380.6719,87.8438 1380.6719,88.2813 L1380.6719,88.3281 L1379.3594,88.3281 L1379.3594,86.1563 L1383.5781,86.1563 L1383.5781,86.9219 C1383.5781,87.3125 1383.6094,87.4844 1383.7188,87.6406 C1383.8906,87.9063 1384.1719,88.0625 1384.5,88.0625 C1384.7813,88.0625 1385.0625,87.9375 1385.25,87.7031 C1385.3906,87.5156 1385.4219,87.375 1385.4219,86.9219 L1385.4219,84.4063 L1377.3438,84.4063 C1376.9063,84.4063 1376.7656,84.4219 1376.5938,84.5313 C1376.3281,84.7031 1376.1563,84.9844 1376.1563,85.2813 C1376.1563,85.5625 1376.3125,85.8438 1376.5313,86 C1376.7188,86.125 1376.9063,86.1563 1377.3438,86.1563 L1377.5313,86.1563 L1377.5313,92.25 L1377.3438,92.25 C1376.9219,92.25 1376.7656,92.2813 1376.5938,92.375 C1376.3281,92.5313 1376.1563,92.8281 1376.1563,93.1094 C1376.1563,93.6875 1376.5625,94 1377.3438,94 L1381,94 C1381.7813,94 1382.1875,93.7188 1382.1875,93.1094 C1382.1875,92.8438 1382.0469,92.5938 1381.8125,92.4219 C1381.625,92.2813 1381.4531,92.25 1381,92.25 L1379.3594,92.25 L1379.3594,90.0625 Z " fill="#000000"/><text fill="#000000" font-family="sans-serif" font-size="14" lengthAdjust="spacing" textLength="124" x="1418.5" y="91.0059">training_backend.ts</text><text fill="#000000" font-family="sans-serif" font-size="14" lengthAdjust="spacing" textLength="166" x="1397.5" y="107.8059">markTrainingAttendance()</text><rect fill="#E2E2F0" height="47.5999" rx="2.5" ry="2.5" style="stroke:#181818;stroke-width:0.5;" width="208" x="1362.5" y="968.8001"/><ellipse cx="1380.5" cy="986.8001" fill="#FFFF00" rx="11" ry="11" style="stroke:#181818;stroke-width:1.0;"/><path d="M1379.3594,987.8626 L1380.6719,987.8626 L1380.6719,987.9095 C1380.6719,988.3001 1380.7031,988.4876 1380.7969,988.6438 C1380.9688,988.8938 1381.2656,989.0657 1381.5781,989.0657 C1381.8594,989.0657 1382.1406,988.9251 1382.3281,988.7063 C1382.4531,988.5188 1382.5,988.3626 1382.5,987.9095 L1382.5,986.0813 C1382.5,985.6595 1382.4844,985.5345 1382.3594,985.3626 C1382.2031,985.097 1381.9063,984.9251 1381.5781,984.9251 C1381.2813,984.9251 1381.0156,985.0657 1380.8438,985.2845 C1380.7031,985.472 1380.6719,985.6438 1380.6719,986.0813 L1380.6719,986.1282 L1379.3594,986.1282 L1379.3594,983.9563 L1383.5781,983.9563 L1383.5781,984.722 C1383.5781,985.1126 1383.6094,985.2845 1383.7188,985.4407 C1383.8906,985.7063 1384.1719,985.8626 1384.5,985.8626 C1384.7813,985.8626 1385.0625,985.7376 1385.25,985.5032 C1385.3906,985.3157 1385.4219,985.1751 1385.4219,984.722 L1385.4219,982.2063 L1377.3438,982.2063 C1376.9063,982.2063 1376.7656,982.222 1376.5938,982.3313 C1376.3281,982.5032 1376.1563,982.7845 1376.1563,983.0813 C1376.1563,983.3626 1376.3125,983.6438 1376.5313,983.8001 C1376.7188,983.9251 1376.9063,983.9563 1377.3438,983.9563 L1377.5313,983.9563 L1377.5313,990.0501 L1377.3438,990.0501 C1376.9219,990.0501 1376.7656,990.0813 1376.5938,990.1751 C1376.3281,990.3313 1376.1563,990.6282 1376.1563,990.9095 C1376.1563,991.4876 1376.5625,991.8001 1377.3438,991.8001 L1381,991.8001 C1381.7813,991.8001 1382.1875,991.5188 1382.1875,990.9095 C1382.1875,990.6438 1382.0469,990.3938 1381.8125,990.222 C1381.625,990.0813 1381.4531,990.0501 1381,990.0501 L1379.3594,990.0501 L1379.3594,987.8626 Z " fill="#000000"/><text fill="#000000" font-family="sans-serif" font-size="14" lengthAdjust="spacing" textLength="124" x="1418.5" y="988.806">training_backend.ts</text><text fill="#000000" font-family="sans-serif" font-size="14" lengthAdjust="spacing" textLength="166" x="1397.5" y="1005.606">markTrainingAttendance()</text><rect fill="#E2E2F0" height="47.5999" rx="2.5" ry="2.5" style="stroke:#181818;stroke-width:0.5;" width="113" x="1780" y="71"/><ellipse cx="1798" cy="89" fill="#FFA500" rx="11" ry="11" style="stroke:#181818;stroke-width:1.0;"/><path d="M1796.8594,90.0625 L1798.1719,90.0625 L1798.1719,90.1094 C1798.1719,90.5 1798.2031,90.6875 1798.2969,90.8438 C1798.4688,91.0938 1798.7656,91.2656 1799.0781,91.2656 C1799.3594,91.2656 1799.6406,91.125 1799.8281,90.9063 C1799.9531,90.7188 1800,90.5625 1800,90.1094 L1800,88.2813 C1800,87.8594 1799.9844,87.7344 1799.8594,87.5625 C1799.7031,87.2969 1799.4063,87.125 1799.0781,87.125 C1798.7813,87.125 1798.5156,87.2656 1798.3438,87.4844 C1798.2031,87.6719 1798.1719,87.8438 1798.1719,88.2813 L1798.1719,88.3281 L1796.8594,88.3281 L1796.8594,86.1563 L1801.0781,86.1563 L1801.0781,86.9219 C1801.0781,87.3125 1801.1094,87.4844 1801.2188,87.6406 C1801.3906,87.9063 1801.6719,88.0625 1802,88.0625 C1802.2813,88.0625 1802.5625,87.9375 1802.75,87.7031 C1802.8906,87.5156 1802.9219,87.375 1802.9219,86.9219 L1802.9219,84.4063 L1794.8438,84.4063 C1794.4063,84.4063 1794.2656,84.4219 1794.0938,84.5313 C1793.8281,84.7031 1793.6563,84.9844 1793.6563,85.2813 C1793.6563,85.5625 1793.8125,85.8438 1794.0313,86 C1794.2188,86.125 1794.4063,86.1563 1794.8438,86.1563 L1795.0313,86.1563 L1795.0313,92.25 L1794.8438,92.25 C1794.4219,92.25 1794.2656,92.2813 1794.0938,92.375 C1793.8281,92.5313 1793.6563,92.8281 1793.6563,93.1094 C1793.6563,93.6875 1794.0625,94 1794.8438,94 L1798.5,94 C1799.2813,94 1799.6875,93.7188 1799.6875,93.1094 C1799.6875,92.8438 1799.5469,92.5938 1799.3125,92.4219 C1799.125,92.2813 1798.9531,92.25 1798.5,92.25 L1796.8594,92.25 L1796.8594,90.0625 Z " fill="#000000"/><text fill="#000000" font-family="sans-serif" font-size="14" lengthAdjust="spacing" textLength="40" x="1830.5" y="91.0059">utils.ts</text><text fill="#000000" font-family="sans-serif" font-size="14" lengthAdjust="spacing" textLength="71" x="1815" y="107.8059">fetchJson()</text><rect fill="#E2E2F0" height="47.5999" rx="2.5" ry="2.5" style="stroke:#181818;stroke-width:0.5;" width="113" x="1780" y="968.8001"/><ellipse cx="1798" cy="986.8001" fill="#FFA500" rx="11" ry="11" style="stroke:#181818;stroke-width:1.0;"/><path d="M1796.8594,987.8626 L1798.1719,987.8626 L1798.1719,987.9095 C1798.1719,988.3001 1798.2031,988.4876 1798.2969,988.6438 C1798.4688,988.8938 1798.7656,989.0657 1799.0781,989.0657 C1799.3594,989.0657 1799.6406,988.9251 1799.8281,988.7063 C1799.9531,988.5188 1800,988.3626 1800,987.9095 L1800,986.0813 C1800,985.6595 1799.9844,985.5345 1799.8594,985.3626 C1799.7031,985.097 1799.4063,984.9251 1799.0781,984.9251 C1798.7813,984.9251 1798.5156,985.0657 1798.3438,985.2845 C1798.2031,985.472 1798.1719,985.6438 1798.1719,986.0813 L1798.1719,986.1282 L1796.8594,986.1282 L1796.8594,983.9563 L1801.0781,983.9563 L1801.0781,984.722 C1801.0781,985.1126 1801.1094,985.2845 1801.2188,985.4407 C1801.3906,985.7063 1801.6719,985.8626 1802,985.8626 C1802.2813,985.8626 1802.5625,985.7376 1802.75,985.5032 C1802.8906,985.3157 1802.9219,985.1751 1802.9219,984.722 L1802.9219,982.2063 L1794.8438,982.2063 C1794.4063,982.2063 1794.2656,982.222 1794.0938,982.3313 C1793.8281,982.5032 1793.6563,982.7845 1793.6563,983.0813 C1793.6563,983.3626 1793.8125,983.6438 1794.0313,983.8001 C1794.2188,983.9251 1794.4063,983.9563 1794.8438,983.9563 L1795.0313,983.9563 L1795.0313,990.0501 L1794.8438,990.0501 C1794.4219,990.0501 1794.2656,990.0813 1794.0938,990.1751 C1793.8281,990.3313 1793.6563,990.6282 1793.6563,990.9095 C1793.6563,991.4876 1794.0625,991.8001 1794.8438,991.8001 L1798.5,991.8001 C1799.2813,991.8001 1799.6875,991.5188 1799.6875,990.9095 C1799.6875,990.6438 1799.5469,990.3938 1799.3125,990.222 C1799.125,990.0813 1798.9531,990.0501 1798.5,990.0501 L1796.8594,990.0501 L1796.8594,987.8626 Z " fill="#000000"/><text fill="#000000" font-family="sans-serif" font-size="14" lengthAdjust="spacing" textLength="40" x="1830.5" y="988.806">utils.ts</text><text fill="#000000" font-family="sans-serif" font-size="14" lengthAdjust="spacing" textLength="71" x="1815" y="1005.606">fetchJson()</text><rect fill="#E2E2F0" height="36" rx="2.5" ry="2.5" style="stroke:#181818;stroke-width:0.5;" width="128" x="1919.5" y="82.5999"/><ellipse cx="1937.5" cy="100.5999" fill="#ADD8E6" rx="11" ry="11" style="stroke:#181818;stroke-width:1.0;"/><path d="M1941.3594,96.9124 C1941.3594,96.4749 1941.3438,96.3499 1941.2344,96.178 C1941.0781,95.928 1940.7813,95.7717 1940.4531,95.7717 C1940.1094,95.7717 1939.9219,95.9124 1939.7656,96.2874 C1939.2031,95.9592 1938.4375,95.7717 1937.5625,95.7717 C1935.4219,95.7717 1933.8281,97.0374 1933.8281,98.6936 C1933.8281,99.6467 1934.375,100.5374 1935.25,101.0061 C1935.8125,101.3186 1936.3438,101.4749 1937.4844,101.6624 C1938.6094,101.8655 1938.875,101.928 1939.25,102.0999 C1939.5938,102.2717 1939.8125,102.5686 1939.8125,102.8811 C1939.8125,103.5374 1938.8594,104.053 1937.6406,104.053 C1936.5469,104.053 1935.4844,103.5999 1935.3281,103.053 C1935.1875,102.6155 1935.1875,102.6155 1935.0625,102.4749 C1934.8906,102.3186 1934.6563,102.2405 1934.4063,102.2405 C1934.1094,102.2405 1933.8438,102.3655 1933.6563,102.5842 C1933.5313,102.7561 1933.4844,102.9436 1933.4844,103.3655 L1933.4844,104.4436 C1933.4844,105.2092 1933.7969,105.5842 1934.4063,105.5842 C1934.6875,105.5842 1934.8438,105.4905 1935.125,105.2092 C1935.9844,105.6311 1936.8281,105.8186 1937.75,105.8186 C1940.1094,105.8186 1941.7188,104.6467 1941.7188,102.9124 C1941.7188,102.053 1941.375,101.3655 1940.6875,100.8342 C1940.1563,100.428 1939.4844,100.1936 1937.9844,99.9436 C1936.7031,99.6936 1936.6406,99.678 1936.3125,99.5061 C1935.9688,99.3655 1935.7344,99.0061 1935.7344,98.678 C1935.7344,98.0374 1936.5469,97.5217 1937.5781,97.5217 C1938.625,97.5217 1939.3906,97.9436 1939.5313,98.5686 C1939.6563,99.0999 1939.6563,99.0999 1939.7969,99.2405 C1939.9531,99.3967 1940.2031,99.4905 1940.4531,99.4905 C1940.75,99.4905 1941,99.3655 1941.1875,99.1467 C1941.3281,98.9592 1941.3594,98.8186 1941.3594,98.3655 L1941.3594,96.9124 Z " fill="#000000"/><text fill="#000000" font-family="sans-serif" font-size="14" lengthAdjust="spacing" textLength="86" x="1954.5" y="102.6058">AuthManager</text><rect fill="#E2E2F0" height="36" rx="2.5" ry="2.5" style="stroke:#181818;stroke-width:0.5;" width="128" x="1919.5" y="968.8001"/><ellipse cx="1937.5" cy="986.8001" fill="#ADD8E6" rx="11" ry="11" style="stroke:#181818;stroke-width:1.0;"/><path d="M1941.3594,983.1126 C1941.3594,982.6751 1941.3438,982.5501 1941.2344,982.3782 C1941.0781,982.1282 1940.7813,981.972 1940.4531,981.972 C1940.1094,981.972 1939.9219,982.1126 1939.7656,982.4876 C1939.2031,982.1595 1938.4375,981.972 1937.5625,981.972 C1935.4219,981.972 1933.8281,983.2376 1933.8281,984.8938 C1933.8281,985.847 1934.375,986.7376 1935.25,987.2063 C1935.8125,987.5188 1936.3438,987.6751 1937.4844,987.8626 C1938.6094,988.0657 1938.875,988.1282 1939.25,988.3001 C1939.5938,988.472 1939.8125,988.7688 1939.8125,989.0813 C1939.8125,989.7376 1938.8594,990.2532 1937.6406,990.2532 C1936.5469,990.2532 1935.4844,989.8001 1935.3281,989.2532 C1935.1875,988.8157 1935.1875,988.8157 1935.0625,988.6751 C1934.8906,988.5188 1934.6563,988.4407 1934.4063,988.4407 C1934.1094,988.4407 1933.8438,988.5657 1933.6563,988.7845 C1933.5313,988.9563 1933.4844,989.1438 1933.4844,989.5657 L1933.4844,990.6438 C1933.4844,991.4095 1933.7969,991.7845 1934.4063,991.7845 C1934.6875,991.7845 1934.8438,991.6907 1935.125,991.4095 C1935.9844,991.8313 1936.8281,992.0188 1937.75,992.0188 C1940.1094,992.0188 1941.7188,990.847 1941.7188,989.1126 C1941.7188,988.2532 1941.375,987.5657 1940.6875,987.0345 C1940.1563,986.6282 1939.4844,986.3938 1937.9844,986.1438 C1936.7031,985.8938 1936.6406,985.8782 1936.3125,985.7063 C1935.9688,985.5657 1935.7344,985.2063 1935.7344,984.8782 C1935.7344,984.2376 1936.5469,983.722 1937.5781,983.722 C1938.625,983.722 1939.3906,984.1438 1939.5313,984.7688 C1939.6563,985.3001 1939.6563,985.3001 1939.7969,985.4407 C1939.9531,985.597 1940.2031,985.6907 1940.4531,985.6907 C1940.75,985.6907 1941,985.5657 1941.1875,985.347 C1941.3281,985.1595 1941.3594,985.0188 1941.3594,984.5657 L1941.3594,983.1126 Z " fill="#000000"/><text fill="#000000" font-family="sans-serif" font-size="14" lengthAdjust="spacing" textLength="86" x="1954.5" y="988.806">AuthManager</text><rect fill="#E2E2F0" height="36" rx="2.5" ry="2.5" style="stroke:#181818;stroke-width:0.5;" width="119" x="2163" y="82.5999"/><ellipse cx="2181" cy="100.5999" fill="#FF6347" rx="11" ry="11" style="stroke:#181818;stroke-width:1.0;"/><path d="M2184.8594,96.9124 C2184.8594,96.4749 2184.8438,96.3499 2184.7344,96.178 C2184.5781,95.928 2184.2813,95.7717 2183.9531,95.7717 C2183.6094,95.7717 2183.4219,95.9124 2183.2656,96.2874 C2182.7031,95.9592 2181.9375,95.7717 2181.0625,95.7717 C2178.9219,95.7717 2177.3281,97.0374 2177.3281,98.6936 C2177.3281,99.6467 2177.875,100.5374 2178.75,101.0061 C2179.3125,101.3186 2179.8438,101.4749 2180.9844,101.6624 C2182.1094,101.8655 2182.375,101.928 2182.75,102.0999 C2183.0938,102.2717 2183.3125,102.5686 2183.3125,102.8811 C2183.3125,103.5374 2182.3594,104.053 2181.1406,104.053 C2180.0469,104.053 2178.9844,103.5999 2178.8281,103.053 C2178.6875,102.6155 2178.6875,102.6155 2178.5625,102.4749 C2178.3906,102.3186 2178.1563,102.2405 2177.9063,102.2405 C2177.6094,102.2405 2177.3438,102.3655 2177.1563,102.5842 C2177.0313,102.7561 2176.9844,102.9436 2176.9844,103.3655 L2176.9844,104.4436 C2176.9844,105.2092 2177.2969,105.5842 2177.9063,105.5842 C2178.1875,105.5842 2178.3438,105.4905 2178.625,105.2092 C2179.4844,105.6311 2180.3281,105.8186 2181.25,105.8186 C2183.6094,105.8186 2185.2188,104.6467 2185.2188,102.9124 C2185.2188,102.053 2184.875,101.3655 2184.1875,100.8342 C2183.6563,100.428 2182.9844,100.1936 2181.4844,99.9436 C2180.2031,99.6936 2180.1406,99.678 2179.8125,99.5061 C2179.4688,99.3655 2179.2344,99.0061 2179.2344,98.678 C2179.2344,98.0374 2180.0469,97.5217 2181.0781,97.5217 C2182.125,97.5217 2182.8906,97.9436 2183.0313,98.5686 C2183.1563,99.0999 2183.1563,99.0999 2183.2969,99.2405 C2183.4531,99.3967 2183.7031,99.4905 2183.9531,99.4905 C2184.25,99.4905 2184.5,99.3655 2184.6875,99.1467 C2184.8281,98.9592 2184.8594,98.8186 2184.8594,98.3655 L2184.8594,96.9124 Z " fill="#000000"/><text fill="#000000" font-family="sans-serif" font-size="14" lengthAdjust="spacing" textLength="77" x="2198" y="102.6058">BackendAPI</text><rect fill="#E2E2F0" height="36" rx="2.5" ry="2.5" style="stroke:#181818;stroke-width:0.5;" width="119" x="2163" y="968.8001"/><ellipse cx="2181" cy="986.8001" fill="#FF6347" rx="11" ry="11" style="stroke:#181818;stroke-width:1.0;"/><path d="M2184.8594,983.1126 C2184.8594,982.6751 2184.8438,982.5501 2184.7344,982.3782 C2184.5781,982.1282 2184.2813,981.972 2183.9531,981.972 C2183.6094,981.972 2183.4219,982.1126 2183.2656,982.4876 C2182.7031,982.1595 2181.9375,981.972 2181.0625,981.972 C2178.9219,981.972 2177.3281,983.2376 2177.3281,984.8938 C2177.3281,985.847 2177.875,986.7376 2178.75,987.2063 C2179.3125,987.5188 2179.8438,987.6751 2180.9844,987.8626 C2182.1094,988.0657 2182.375,988.1282 2182.75,988.3001 C2183.0938,988.472 2183.3125,988.7688 2183.3125,989.0813 C2183.3125,989.7376 2182.3594,990.2532 2181.1406,990.2532 C2180.0469,990.2532 2178.9844,989.8001 2178.8281,989.2532 C2178.6875,988.8157 2178.6875,988.8157 2178.5625,988.6751 C2178.3906,988.5188 2178.1563,988.4407 2177.9063,988.4407 C2177.6094,988.4407 2177.3438,988.5657 2177.1563,988.7845 C2177.0313,988.9563 2176.9844,989.1438 2176.9844,989.5657 L2176.9844,990.6438 C2176.9844,991.4095 2177.2969,991.7845 2177.9063,991.7845 C2178.1875,991.7845 2178.3438,991.6907 2178.625,991.4095 C2179.4844,991.8313 2180.3281,992.0188 2181.25,992.0188 C2183.6094,992.0188 2185.2188,990.847 2185.2188,989.1126 C2185.2188,988.2532 2184.875,987.5657 2184.1875,987.0345 C2183.6563,986.6282 2182.9844,986.3938 2181.4844,986.1438 C2180.2031,985.8938 2180.1406,985.8782 2179.8125,985.7063 C2179.4688,985.5657 2179.2344,985.2063 2179.2344,984.8782 C2179.2344,984.2376 2180.0469,983.722 2181.0781,983.722 C2182.125,983.722 2182.8906,984.1438 2183.0313,984.7688 C2183.1563,985.3001 2183.1563,985.3001 2183.2969,985.4407 C2183.4531,985.597 2183.7031,985.6907 2183.9531,985.6907 C2184.25,985.6907 2184.5,985.5657 2184.6875,985.347 C2184.8281,985.1595 2184.8594,985.0188 2184.8594,984.5657 L2184.8594,983.1126 Z " fill="#000000"/><text fill="#000000" font-family="sans-serif" font-size="14" lengthAdjust="spacing" textLength="77" x="2198" y="988.806">BackendAPI</text><rect fill="#E2E2F0" height="36" rx="2.5" ry="2.5" style="stroke:#181818;stroke-width:0.5;" width="117" x="2292" y="82.5999"/><ellipse cx="2310" cy="100.5999" fill="#808080" rx="11" ry="11" style="stroke:#181818;stroke-width:1.0;"/><path d="M2313.8594,96.9124 C2313.8594,96.4749 2313.8438,96.3499 2313.7344,96.178 C2313.5781,95.928 2313.2813,95.7717 2312.9531,95.7717 C2312.6094,95.7717 2312.4219,95.9124 2312.2656,96.2874 C2311.7031,95.9592 2310.9375,95.7717 2310.0625,95.7717 C2307.9219,95.7717 2306.3281,97.0374 2306.3281,98.6936 C2306.3281,99.6467 2306.875,100.5374 2307.75,101.0061 C2308.3125,101.3186 2308.8438,101.4749 2309.9844,101.6624 C2311.1094,101.8655 2311.375,101.928 2311.75,102.0999 C2312.0938,102.2717 2312.3125,102.5686 2312.3125,102.8811 C2312.3125,103.5374 2311.3594,104.053 2310.1406,104.053 C2309.0469,104.053 2307.9844,103.5999 2307.8281,103.053 C2307.6875,102.6155 2307.6875,102.6155 2307.5625,102.4749 C2307.3906,102.3186 2307.1563,102.2405 2306.9063,102.2405 C2306.6094,102.2405 2306.3438,102.3655 2306.1563,102.5842 C2306.0313,102.7561 2305.9844,102.9436 2305.9844,103.3655 L2305.9844,104.4436 C2305.9844,105.2092 2306.2969,105.5842 2306.9063,105.5842 C2307.1875,105.5842 2307.3438,105.4905 2307.625,105.2092 C2308.4844,105.6311 2309.3281,105.8186 2310.25,105.8186 C2312.6094,105.8186 2314.2188,104.6467 2314.2188,102.9124 C2314.2188,102.053 2313.875,101.3655 2313.1875,100.8342 C2312.6563,100.428 2311.9844,100.1936 2310.4844,99.9436 C2309.2031,99.6936 2309.1406,99.678 2308.8125,99.5061 C2308.4688,99.3655 2308.2344,99.0061 2308.2344,98.678 C2308.2344,98.0374 2309.0469,97.5217 2310.0781,97.5217 C2311.125,97.5217 2311.8906,97.9436 2312.0313,98.5686 C2312.1563,99.0999 2312.1563,99.0999 2312.2969,99.2405 C2312.4531,99.3967 2312.7031,99.4905 2312.9531,99.4905 C2313.25,99.4905 2313.5,99.3655 2313.6875,99.1467 C2313.8281,98.9592 2313.8594,98.8186 2313.8594,98.3655 L2313.8594,96.9124 Z " fill="#000000"/><text fill="#000000" font-family="sans-serif" font-size="14" lengthAdjust="spacing" textLength="75" x="2327" y="102.6058">QueryClient</text><rect fill="#E2E2F0" height="36" rx="2.5" ry="2.5" style="stroke:#181818;stroke-width:0.5;" width="117" x="2292" y="968.8001"/><ellipse cx="2310" cy="986.8001" fill="#808080" rx="11" ry="11" style="stroke:#181818;stroke-width:1.0;"/><path d="M2313.8594,983.1126 C2313.8594,982.6751 2313.8438,982.5501 2313.7344,982.3782 C2313.5781,982.1282 2313.2813,981.972 2312.9531,981.972 C2312.6094,981.972 2312.4219,982.1126 2312.2656,982.4876 C2311.7031,982.1595 2310.9375,981.972 2310.0625,981.972 C2307.9219,981.972 2306.3281,983.2376 2306.3281,984.8938 C2306.3281,985.847 2306.875,986.7376 2307.75,987.2063 C2308.3125,987.5188 2308.8438,987.6751 2309.9844,987.8626 C2311.1094,988.0657 2311.375,988.1282 2311.75,988.3001 C2312.0938,988.472 2312.3125,988.7688 2312.3125,989.0813 C2312.3125,989.7376 2311.3594,990.2532 2310.1406,990.2532 C2309.0469,990.2532 2307.9844,989.8001 2307.8281,989.2532 C2307.6875,988.8157 2307.6875,988.8157 2307.5625,988.6751 C2307.3906,988.5188 2307.1563,988.4407 2306.9063,988.4407 C2306.6094,988.4407 2306.3438,988.5657 2306.1563,988.7845 C2306.0313,988.9563 2305.9844,989.1438 2305.9844,989.5657 L2305.9844,990.6438 C2305.9844,991.4095 2306.2969,991.7845 2306.9063,991.7845 C2307.1875,991.7845 2307.3438,991.6907 2307.625,991.4095 C2308.4844,991.8313 2309.3281,992.0188 2310.25,992.0188 C2312.6094,992.0188 2314.2188,990.847 2314.2188,989.1126 C2314.2188,988.2532 2313.875,987.5657 2313.1875,987.0345 C2312.6563,986.6282 2311.9844,986.3938 2310.4844,986.1438 C2309.2031,985.8938 2309.1406,985.8782 2308.8125,985.7063 C2308.4688,985.5657 2308.2344,985.2063 2308.2344,984.8782 C2308.2344,984.2376 2309.0469,983.722 2310.0781,983.722 C2311.125,983.722 2311.8906,984.1438 2312.0313,984.7688 C2312.1563,985.3001 2312.1563,985.3001 2312.2969,985.4407 C2312.4531,985.597 2312.7031,985.6907 2312.9531,985.6907 C2313.25,985.6907 2313.5,985.5657 2313.6875,985.347 C2313.8281,985.1595 2313.8594,985.0188 2313.8594,984.5657 L2313.8594,983.1126 Z " fill="#000000"/><text fill="#000000" font-family="sans-serif" font-size="14" lengthAdjust="spacing" textLength="75" x="2327" y="988.806">QueryClient</text><rect fill="#E2E2F0" height="36" rx="2.5" ry="2.5" style="stroke:#181818;stroke-width:0.5;" width="91" x="2419" y="82.5999"/><ellipse cx="2437" cy="100.5999" fill="#FFC0CB" rx="11" ry="11" style="stroke:#181818;stroke-width:1.0;"/><path d="M2432,101.7561 C2432,104.2561 2434.1406,106.0686 2437.0625,106.0686 C2438.2969,106.0686 2439.4688,105.7717 2440.2188,105.2561 C2440.8281,104.8342 2441.1563,104.4124 2441.1563,104.0061 C2441.1563,103.5374 2440.7344,103.1311 2440.2344,103.1311 C2440,103.1311 2439.7813,103.2092 2439.5781,103.4124 C2439.1406,103.8499 2439.1406,103.8499 2438.9688,103.9436 C2438.5156,104.178 2437.875,104.3186 2437.1094,104.3186 C2435.1094,104.3186 2433.8281,103.303 2433.8281,101.7249 L2433.8281,100.678 C2433.8281,98.9749 2435.0469,97.7717 2436.75,97.7717 C2437.3281,97.7717 2437.9063,97.9124 2438.375,98.1624 C2438.8438,98.428 2439.0156,98.6155 2439.0781,98.9749 C2439.2031,99.6467 2439.4531,99.8967 2439.9844,99.8967 C2440.2656,99.8967 2440.5469,99.7561 2440.7344,99.5374 C2440.8594,99.3655 2440.9063,99.1936 2440.9063,98.7561 L2440.9063,97.3967 C2440.9063,96.9749 2440.8906,96.8342 2440.7656,96.6624 C2440.5938,96.4124 2440.3125,96.2561 2439.9844,96.2561 C2439.6719,96.2561 2439.4688,96.3655 2439.25,96.6311 C2438.0781,96.1311 2437.6406,96.0217 2436.6875,96.0217 C2434.0156,96.0217 2432,98.0374 2432,100.6624 L2432,101.7561 Z " fill="#000000"/><text fill="#000000" font-family="sans-serif" font-size="14" lengthAdjust="spacing" textLength="49" x="2454" y="102.6058">Toaster</text><rect fill="#E2E2F0" height="36" rx="2.5" ry="2.5" style="stroke:#181818;stroke-width:0.5;" width="91" x="2419" y="968.8001"/><ellipse cx="2437" cy="986.8001" fill="#FFC0CB" rx="11" ry="11" style="stroke:#181818;stroke-width:1.0;"/><path d="M2432,987.9563 C2432,990.4563 2434.1406,992.2688 2437.0625,992.2688 C2438.2969,992.2688 2439.4688,991.972 2440.2188,991.4563 C2440.8281,991.0345 2441.1563,990.6126 2441.1563,990.2063 C2441.1563,989.7376 2440.7344,989.3313 2440.2344,989.3313 C2440,989.3313 2439.7813,989.4095 2439.5781,989.6126 C2439.1406,990.0501 2439.1406,990.0501 2438.9688,990.1438 C2438.5156,990.3782 2437.875,990.5188 2437.1094,990.5188 C2435.1094,990.5188 2433.8281,989.5032 2433.8281,987.9251 L2433.8281,986.8782 C2433.8281,985.1751 2435.0469,983.972 2436.75,983.972 C2437.3281,983.972 2437.9063,984.1126 2438.375,984.3626 C2438.8438,984.6282 2439.0156,984.8157 2439.0781,985.1751 C2439.2031,985.847 2439.4531,986.097 2439.9844,986.097 C2440.2656,986.097 2440.5469,985.9563 2440.7344,985.7376 C2440.8594,985.5657 2440.9063,985.3938 2440.9063,984.9563 L2440.9063,983.597 C2440.9063,983.1751 2440.8906,983.0345 2440.7656,982.8626 C2440.5938,982.6126 2440.3125,982.4563 2439.9844,982.4563 C2439.6719,982.4563 2439.4688,982.5657 2439.25,982.8313 C2438.0781,982.3313 2437.6406,982.222 2436.6875,982.222 C2434.0156,982.222 2432,984.2376 2432,986.8626 L2432,987.9563 Z " fill="#000000"/><text fill="#000000" font-family="sans-serif" font-size="14" lengthAdjust="spacing" textLength="49" x="2454" y="988.806">Toaster</text><rect fill="#FFFFFF" height="808.6002" style="stroke:#181818;stroke-width:1.0;" width="10" x="299.5" y="151.1999"/><rect fill="#FFFFFF" height="719.8002" style="stroke:#181818;stroke-width:1.0;" width="10" x="767" y="239.9999"/><rect fill="#FFFFFF" height="558.8001" style="stroke:#181818;stroke-width:1.0;" width="10" x="1461.5" y="401"/><rect fill="#FFFFFF" height="529.2001" style="stroke:#181818;stroke-width:1.0;" width="10" x="1831.5" y="430.6"/><rect fill="#FFFFFF" height="29.6" style="stroke:#181818;stroke-width:1.0;" width="10" x="1978.5" y="460.2"/><rect fill="#FFFFFF" height="440.4001" style="stroke:#181818;stroke-width:1.0;" width="10" x="2217.5" y="519.4"/><rect fill="#FFFFFF" height="29.6" style="stroke:#181818;stroke-width:1.0;" width="10" x="2345.5" y="722.0001"/><rect fill="#FFFFFF" height="30" style="stroke:#181818;stroke-width:1.0;" width="10" x="2459.5" y="662.4001"/><rect fill="#FFFFFF" height="30" style="stroke:#181818;stroke-width:1.0;" width="10" x="2459.5" y="885.2001"/><polygon fill="#181818" points="287.5,147.1999,297.5,151.1999,287.5,155.1999,291.5,151.1999" style="stroke:#181818;stroke-width:1.0;"/><line style="stroke:#181818;stroke-width:1.0;" x1="43.5" x2="293.5" y1="151.1999" y2="151.1999"/><text fill="#000000" font-family="sans-serif" font-size="13" lengthAdjust="spacing" textLength="237" x="50.5" y="145.6769">Navigates to /dashboard_trainer/trainings</text><polygon fill="#181818" points="555.5,176.7999,565.5,180.7999,555.5,184.7999,559.5,180.7999" style="stroke:#181818;stroke-width:1.0;"/><line style="stroke:#181818;stroke-width:1.0;" x1="43.5" x2="561.5" y1="180.7999" y2="180.7999"/><text fill="#000000" font-family="sans-serif" font-size="13" lengthAdjust="spacing" textLength="252" x="50.5" y="175.2769">Clicks "Manage Registrations" for a training</text><polygon fill="#181818" points="320.5,206.3999,310.5,210.3999,320.5,214.3999,316.5,210.3999" style="stroke:#181818;stroke-width:1.0;"/><line style="stroke:#181818;stroke-width:1.0;" x1="314.5" x2="566.5" y1="210.3999" y2="210.3999"/><text fill="#000000" font-family="sans-serif" font-size="13" lengthAdjust="spacing" textLength="234" x="326.5" y="204.8769">onManageClick(trainingId, trainingName)</text><polygon fill="#181818" points="755,235.9999,765,239.9999,755,243.9999,759,239.9999" style="stroke:#181818;stroke-width:1.0;"/><line style="stroke:#181818;stroke-width:1.0;" x1="309.5" x2="761" y1="239.9999" y2="239.9999"/><text fill="#000000" font-family="sans-serif" font-size="13" lengthAdjust="spacing" textLength="220" x="316.5" y="234.4769">Opens dialog (isOpen=true, trainingId)</text><polygon fill="#181818" points="2338.5,265.5999,2348.5,269.5999,2338.5,273.5999,2342.5,269.5999" style="stroke:#181818;stroke-width:1.0;"/><line style="stroke:#181818;stroke-width:1.0;" x1="777" x2="2344.5" y1="269.5999" y2="269.5999"/><text fill="#000000" font-family="sans-serif" font-size="13" lengthAdjust="spacing" textLength="255" x="784" y="264.0769">useQuery(['trainingRegistrations', trainingId])</text><line style="stroke:#181818;stroke-width:1.0;" x1="777" x2="819" y1="299.1999" y2="299.1999"/><line style="stroke:#181818;stroke-width:1.0;" x1="819" x2="819" y1="299.1999" y2="312.1999"/><line style="stroke:#181818;stroke-width:1.0;" x1="778" x2="819" y1="312.1999" y2="312.1999"/><polygon fill="#181818" points="788,308.1999,778,312.1999,788,316.1999,784,312.1999" style="stroke:#181818;stroke-width:1.0;"/><text fill="#000000" font-family="sans-serif" font-size="13" lengthAdjust="spacing" textLength="342" x="784" y="293.6769">Renders table of registered users with attendance switches</text><polygon fill="#181818" points="1256,337.7999,1266,341.7999,1256,345.7999,1260,341.7999" style="stroke:#181818;stroke-width:1.0;"/><line style="stroke:#181818;stroke-width:1.0;" x1="43.5" x2="1262" y1="341.7999" y2="341.7999"/><text fill="#000000" font-family="sans-serif" font-size="13" lengthAdjust="spacing" textLength="392" x="50.5" y="336.2769">Toggles attendance for a user (e.g., from Not Attended to Attended)</text><polygon fill="#181818" points="788,367.4,778,371.4,788,375.4,784,371.4" style="stroke:#181818;stroke-width:1.0;"/><line style="stroke:#181818;stroke-width:1.0;" x1="782" x2="1267" y1="371.4" y2="371.4"/><text fill="#000000" font-family="sans-serif" font-size="13" lengthAdjust="spacing" textLength="467" x="794" y="365.877">onCheckedChange() -&gt; handleAttendanceChange(userId, currentAttendedStatus)</text><polygon fill="#181818" points="1449.5,397,1459.5,401,1449.5,405,1453.5,401" style="stroke:#181818;stroke-width:1.0;"/><line style="stroke:#181818;stroke-width:1.0;" x1="777" x2="1455.5" y1="401" y2="401"/><text fill="#000000" font-family="sans-serif" font-size="13" lengthAdjust="spacing" textLength="381" x="784" y="395.477">markTrainingAttendance(trainingId, userId, {attended: newStatus})</text><polygon fill="#181818" points="1819.5,426.6,1829.5,430.6,1819.5,434.6,1823.5,430.6" style="stroke:#181818;stroke-width:1.0;"/><line style="stroke:#181818;stroke-width:1.0;" x1="1471.5" x2="1825.5" y1="430.6" y2="430.6"/><text fill="#000000" font-family="sans-serif" font-size="13" lengthAdjust="spacing" textLength="341" x="1478.5" y="425.077">fetchJson("/trainings/{tId}/attendance/{uId}", {POST, body})</text><polygon fill="#181818" points="1966.5,456.2,1976.5,460.2,1966.5,464.2,1970.5,460.2" style="stroke:#181818;stroke-width:1.0;"/><line style="stroke:#181818;stroke-width:1.0;" x1="1841.5" x2="1972.5" y1="460.2" y2="460.2"/><text fill="#000000" font-family="sans-serif" font-size="13" lengthAdjust="spacing" textLength="62" x="1848.5" y="454.677">getToken()</text><polygon fill="#181818" points="1852.5,485.8,1842.5,489.8,1852.5,493.8,1848.5,489.8" style="stroke:#181818;stroke-width:1.0;"/><line style="stroke:#181818;stroke-width:1.0;stroke-dasharray:2.0,2.0;" x1="1846.5" x2="1982.5" y1="489.8" y2="489.8"/><text fill="#000000" font-family="sans-serif" font-size="13" lengthAdjust="spacing" textLength="113" x="1858.5" y="484.277">"trainer_token_123"</text><polygon fill="#181818" points="2205.5,515.4,2215.5,519.4,2205.5,523.4,2209.5,519.4" style="stroke:#181818;stroke-width:1.0;"/><line style="stroke:#181818;stroke-width:1.0;" x1="1841.5" x2="2211.5" y1="519.4" y2="519.4"/><text fill="#000000" font-family="sans-serif" font-size="13" lengthAdjust="spacing" textLength="357" x="1848.5" y="513.877">POST /trainings/{tId}/attendance/{uId} ({attended: newStatus})</text><path d="M653,534.4 L713,534.4 L713,542 L703,552 L653,552 L653,534.4 " fill="#EEEEEE" style="stroke:#000000;stroke-width:1.5;"/><rect fill="none" height="418.4001" style="stroke:#000000;stroke-width:1.5;" width="1867" x="653" y="534.4"/><text fill="#000000" font-family="sans-serif" font-size="13" font-weight="bold" lengthAdjust="spacing" textLength="15" x="668" y="547.477">alt</text><text fill="#000000" font-family="sans-serif" font-size="11" font-weight="bold" lengthAdjust="spacing" textLength="180" x="728" y="546.619">[Attendance marked successfully]</text><polygon fill="#181818" points="1852.5,569.6001,1842.5,573.6001,1852.5,577.6001,1848.5,573.6001" style="stroke:#181818;stroke-width:1.0;"/><line style="stroke:#181818;stroke-width:1.0;stroke-dasharray:2.0,2.0;" x1="1846.5" x2="2216.5" y1="573.6001" y2="573.6001"/><text fill="#000000" font-family="sans-serif" font-size="13" lengthAdjust="spacing" textLength="226" x="1858.5" y="568.0771">HTTP 200 OK (message string or void)</text><polygon fill="#181818" points="1482.5,599.2001,1472.5,603.2001,1482.5,607.2001,1478.5,603.2001" style="stroke:#181818;stroke-width:1.0;"/><line style="stroke:#181818;stroke-width:1.0;stroke-dasharray:2.0,2.0;" x1="1476.5" x2="1830.5" y1="603.2001" y2="603.2001"/><text fill="#000000" font-family="sans-serif" font-size="13" lengthAdjust="spacing" textLength="157" x="1488.5" y="597.6771">(void or success message)</text><polygon fill="#181818" points="788,628.8001,778,632.8001,788,636.8001,784,632.8001" style="stroke:#181818;stroke-width:1.0;"/><line style="stroke:#181818;stroke-width:1.0;stroke-dasharray:2.0,2.0;" x1="782" x2="1460.5" y1="632.8001" y2="632.8001"/><text fill="#000000" font-family="sans-serif" font-size="13" lengthAdjust="spacing" textLength="157" x="794" y="627.2771">(void or success message)</text><polygon fill="#181818" points="2447.5,658.4001,2457.5,662.4001,2447.5,666.4001,2451.5,662.4001" style="stroke:#181818;stroke-width:1.0;"/><line style="stroke:#181818;stroke-width:1.0;" x1="777" x2="2453.5" y1="662.4001" y2="662.4001"/><text fill="#000000" font-family="sans-serif" font-size="13" lengthAdjust="spacing" textLength="228" x="784" y="656.8771">toast.success("Attendance updated...")</text><polygon fill="#181818" points="2333.5,718.0001,2343.5,722.0001,2333.5,726.0001,2337.5,722.0001" style="stroke:#181818;stroke-width:1.0;"/><line style="stroke:#181818;stroke-width:1.0;" x1="777" x2="2339.5" y1="722.0001" y2="722.0001"/><text fill="#000000" font-family="sans-serif" font-size="13" lengthAdjust="spacing" textLength="370" x="784" y="716.4771">invalidateQueries({queryKey: ['trainingRegistrations', trainingId]})</text><polygon fill="#181818" points="788,747.6001,778,751.6001,788,755.6001,784,751.6001" style="stroke:#181818;stroke-width:1.0;"/><line style="stroke:#181818;stroke-width:1.0;" x1="782" x2="2349.5" y1="751.6001" y2="751.6001"/><text fill="#000000" font-family="sans-serif" font-size="13" lengthAdjust="spacing" textLength="162" x="794" y="746.0771">Triggers refetch, UI updates</text><line style="stroke:#000000;stroke-width:1.0;stroke-dasharray:2.0,2.0;" x1="653" x2="2520" y1="760.6001" y2="760.6001"/><text fill="#000000" font-family="sans-serif" font-size="11" font-weight="bold" lengthAdjust="spacing" textLength="142" x="658" y="770.8191">[Error marking attendance]</text><polygon fill="#181818" points="1852.5,792.4,1842.5,796.4,1852.5,800.4,1848.5,796.4" style="stroke:#181818;stroke-width:1.0;"/><line style="stroke:#181818;stroke-width:1.0;stroke-dasharray:2.0,2.0;" x1="1846.5" x2="2216.5" y1="796.4" y2="796.4"/><text fill="#000000" font-family="sans-serif" font-size="13" lengthAdjust="spacing" textLength="66" x="1858.5" y="790.877">HTTP Error</text><polygon fill="#181818" points="1482.5,822.0001,1472.5,826.0001,1482.5,830.0001,1478.5,826.0001" style="stroke:#181818;stroke-width:1.0;"/><line style="stroke:#181818;stroke-width:1.0;" x1="1476.5" x2="1830.5" y1="826.0001" y2="826.0001"/><text fill="#000000" font-family="sans-serif" font-size="13" lengthAdjust="spacing" textLength="70" x="1488.5" y="820.4771">throws Error</text><polygon fill="#181818" points="788,851.6001,778,855.6001,788,859.6001,784,855.6001" style="stroke:#181818;stroke-width:1.0;"/><line style="stroke:#181818;stroke-width:1.0;stroke-dasharray:2.0,2.0;" x1="782" x2="1460.5" y1="855.6001" y2="855.6001"/><text fill="#000000" font-family="sans-serif" font-size="13" lengthAdjust="spacing" textLength="70" x="794" y="850.0771">throws Error</text><polygon fill="#181818" points="2447.5,881.2001,2457.5,885.2001,2447.5,889.2001,2451.5,885.2001" style="stroke:#181818;stroke-width:1.0;"/><line style="stroke:#181818;stroke-width:1.0;" x1="777" x2="2453.5" y1="885.2001" y2="885.2001"/><text fill="#000000" font-family="sans-serif" font-size="13" lengthAdjust="spacing" textLength="250" x="784" y="879.6771">toast.error("Failed to update attendance...")</text><polygon fill="#181818" points="1256,940.8001,1266,944.8001,1256,948.8001,1260,944.8001" style="stroke:#181818;stroke-width:1.0;"/><line style="stroke:#181818;stroke-width:1.0;" x1="777" x2="1262" y1="944.8001" y2="944.8001"/><text fill="#000000" font-family="sans-serif" font-size="13" lengthAdjust="spacing" textLength="236" x="784" y="939.2771">Reverts switch to original state (optional)</text><!--SRC=[hLPDR-Cs4BthLmnqYGHuxUts9km6IBsRrbqqSMFdj2qCMg9b8ZJf9Qa4Hf3_tg58MRIan3dqP96Qz-RhpSY66KxXVhhwdMh3f23gIZDjgCWP-IQCeeBi61L6QdygfCfWGNzMQ4BXAoEb8hie8hcH2kBMA0QYOQa84rH5Uw8CozcU20Enlwn_c2ZdfAHJkTjBWMv2L6W0dpydToEfyYqhqilBDmcdH1L3FFRUyan7d9LRKofw6AP2sx-8GAyxZ0WpvBAi-QuCrgKWcBUxF4UsU68ctqBIuj8EZxSumsDyKAiroHyGEJRw7x4Zwg69jYLCqZPpVF6R0rW7rwC3vLm-zTWhmxYkAJSKW_bJI-5Phktv7byxl5H4bBI7lwhCrfNBzRm-byfY5YwfDQ_wC1_QrNpcKFEPGnYv8qRspF-kg3fCEMiq4fmTRhYTag2MlHRTiolsdea7QnrvZS27oq7PPN137bb93DLW94mAehThYK9Q6MSzQPgZxGYmHxGS8eekO3mUmqmmWz81Baa1SWD7SFtsugrmQlLcW2dd3nfYLt6ueoLEgo9sT7KC6vn1ScIDXYXUJLGAnrbxI1gEMJ4wyjsG7KsZ8JIIzeOZWziz5HeATqoOjkSlHbMqfPmLQLktBaKKzKZHKTZv32fDwulanqN3ULAJYz3NlwdlmrTY2DHon_kwQasK7A6sCweceOeMreNIgU_GK4G3gT_X1QB0a3Mkrm4-mCdV0ZaYGTUhWEeJ3VGsHOOoBakEQWoWhkkM5X8wBiSZs2YvWnjfF04wHV4spsdKenrEGehfbkAK5jEjdVmajNRuM73QMljtrhlLIbuf_02OnjV245FfTBYJtIsLmIjBBHHZu-YPU1SP2Fha_BoadI5ioQEkC_JVxhSCsjqNjoCzUJQpucNIbdhoNE55ZDxdjulb2DQoE8HEZunHosrhwrTY1YKrIud-ar3sxctKM7teX1RxLRCo5hdwvTElSLJG7lpK8wxJ36oGS3OTICxL4jaYmasWaRfJA2jTvJdLUbDnVeYWTjiD_u_bSWwVFdw4s- -GxD3OBWoSJpjvADn7YLzqX0RX3qeZiOOMu5s2fxBONc-7zVmwXGrzIA3-av7X-E3JsEEIE2X4jI-mH0LkXzY6qkhFOV4gw5LxUNwpCV58EBFazfvHdJp_j0RVwI63TssxbvE00dQy3dqDLskfM5dQJQLeFHmZk9_vRFLfLY4pvPh2DwMmobOYjicjtjvII8qvrS6G3CnMoITzj7vdvpkez_IQMjialYQCk_NfKW-o-JzQFh3Wx-WZLKRx3uBrBB4JJE3V1cqiOoBtzJzrdaPsiOMh0ESqEBRRA8odinT3UFVxsuMTVlN_0m00]--></g></svg>