<?xml version="1.0" encoding="us-ascii" standalone="no"?><svg xmlns="http://www.w3.org/2000/svg" xmlns:xlink="http://www.w3.org/1999/xlink" contentStyleType="text/css" height="847px" preserveAspectRatio="none" style="width:824px;height:847px;background:#FFFFFF;" version="1.1" viewBox="0 0 824 847" width="824px" zoomAndPan="magnify"><defs/><g><text fill="#000000" font-family="sans-serif" font-size="14" font-weight="bold" lengthAdjust="spacing" textLength="412" x="204.5" y="33.0059">UC_GestionarAsignacionCategoriasAdmin: Activity Diagram</text><ellipse cx="508.5" cy="57.7999" fill="#222222" rx="10" ry="10" style="stroke:#222222;stroke-width:1.0;"/><rect fill="#F1F1F1" height="34.4001" rx="12.5" ry="12.5" style="stroke:#181818;stroke-width:0.5;" width="351" x="333" y="87.7999"/><text fill="#000000" font-family="sans-serif" font-size="12" lengthAdjust="spacing" textLength="331" x="343" y="108.948">Admin navega a "Gesti&#243;n de Categor&#237;as de Usuario (Admin)"</text><rect fill="#F1F1F1" height="34.4001" rx="12.5" ry="12.5" style="stroke:#181818;stroke-width:0.5;" width="336" x="340.5" y="142.2"/><text fill="#000000" font-family="sans-serif" font-size="12" lengthAdjust="spacing" textLength="316" x="350.5" y="163.3481">Sistema carga lista de todos los usuarios (para b&#250;squeda)</text><rect fill="#F1F1F1" height="34.4001" rx="12.5" ry="12.5" style="stroke:#181818;stroke-width:0.5;" width="357" x="330" y="196.6001"/><text fill="#000000" font-family="sans-serif" font-size="12" lengthAdjust="spacing" textLength="337" x="340" y="217.7482">Admin ingresa un email (o parte de &#233;l) para buscar un usuario</text><rect fill="#F1F1F1" height="34.4001" rx="12.5" ry="12.5" style="stroke:#181818;stroke-width:0.5;" width="287" x="365" y="251.0002"/><text fill="#000000" font-family="sans-serif" font-size="12" lengthAdjust="spacing" textLength="267" x="375" y="272.1483">Sistema filtra y muestra los usuarios coincidentes</text><rect fill="#F1F1F1" height="34.4001" rx="12.5" ry="12.5" style="stroke:#181818;stroke-width:0.5;" width="609" x="204" y="305.4003"/><text fill="#000000" font-family="sans-serif" font-size="12" lengthAdjust="spacing" textLength="589" x="214" y="326.5484">Para un usuario encontrado, sistema muestra las categor&#237;as a las que est&#225; asignado, con opci&#243;n de eliminar</text><rect fill="#F1F1F1" height="34.4001" rx="12.5" ry="12.5" style="stroke:#181818;stroke-width:0.5;" width="392" x="312.5" y="359.8004"/><text fill="#000000" font-family="sans-serif" font-size="12" lengthAdjust="spacing" textLength="372" x="322.5" y="380.9485">Admin selecciona una categor&#237;a y hace clic en "Eliminar Asignaci&#243;n"</text><rect fill="#F1F1F1" height="34.4001" rx="12.5" ry="12.5" style="stroke:#181818;stroke-width:0.5;" width="250" x="383.5" y="414.2005"/><text fill="#000000" font-family="sans-serif" font-size="12" lengthAdjust="spacing" textLength="230" x="393.5" y="435.3486">Sistema muestra Di&#225;logo de Confirmaci&#243;n</text><polygon fill="#F1F1F1" points="440,468.6006,577,468.6006,589,480.6006,577,492.6006,440,492.6006,428,480.6006,440,468.6006" style="stroke:#181818;stroke-width:0.5;"/><text fill="#000000" font-family="sans-serif" font-size="11" lengthAdjust="spacing" textLength="137" x="440" y="484.2196">Admin confirma eliminaci&#243;n?</text><text fill="#000000" font-family="sans-serif" font-size="11" lengthAdjust="spacing" textLength="9" x="419" y="477.6197">s&#237;</text><text fill="#000000" font-family="sans-serif" font-size="11" lengthAdjust="spacing" textLength="12" x="589" y="477.6197">no</text><rect fill="#F1F1F1" height="34.4001" rx="12.5" ry="12.5" style="stroke:#181818;stroke-width:0.5;" width="523" x="72.25" y="502.6006"/><text fill="#000000" font-family="sans-serif" font-size="12" lengthAdjust="spacing" textLength="503" x="82.25" y="523.7487">Sistema env&#237;a solicitud al Backend API para eliminar la asignaci&#243;n del usuario a la categor&#237;a</text><polygon fill="#F1F1F1" points="253.75,557.0007,413.75,557.0007,425.75,569.0007,413.75,581.0007,253.75,581.0007,241.75,569.0007,253.75,557.0007" style="stroke:#181818;stroke-width:0.5;"/><text fill="#000000" font-family="sans-serif" font-size="11" lengthAdjust="spacing" textLength="160" x="253.75" y="572.6197">Eliminaci&#243;n Exitosa en Backend?</text><text fill="#000000" font-family="sans-serif" font-size="11" lengthAdjust="spacing" textLength="9" x="232.75" y="566.0198">s&#237;</text><text fill="#000000" font-family="sans-serif" font-size="11" lengthAdjust="spacing" textLength="106" x="425.75" y="566.0198">no - error en backend</text><rect fill="#F1F1F1" height="34.4001" rx="12.5" ry="12.5" style="stroke:#181818;stroke-width:0.5;" width="292" x="40.5" y="591.0007"/><text fill="#000000" font-family="sans-serif" font-size="12" lengthAdjust="spacing" textLength="272" x="50.5" y="612.1488">Backend API elimina la relaci&#243;n usuario-categor&#237;a</text><rect fill="#F1F1F1" height="34.4001" rx="12.5" ry="12.5" style="stroke:#181818;stroke-width:0.5;" width="198" x="87.5" y="645.4008"/><text fill="#000000" font-family="sans-serif" font-size="12" lengthAdjust="spacing" textLength="178" x="97.5" y="666.5489">Mostrar mensaje de &#233;xito (Toast)</text><rect fill="#F1F1F1" height="34.4001" rx="12.5" ry="12.5" style="stroke:#181818;stroke-width:0.5;" width="351" x="11" y="699.8009"/><text fill="#000000" font-family="sans-serif" font-size="12" lengthAdjust="spacing" textLength="331" x="21" y="720.949">Actualizar UI para remover la categor&#237;a de la lista del usuario</text><rect fill="#F1F1F1" height="34.4001" rx="12.5" ry="12.5" style="stroke:#181818;stroke-width:0.5;" width="161" x="400.5" y="591.0007"/><text fill="#000000" font-family="sans-serif" font-size="12" lengthAdjust="spacing" textLength="141" x="410.5" y="612.1488">Backend API retorna error</text><rect fill="#F1F1F1" height="34.4001" rx="12.5" ry="12.5" style="stroke:#181818;stroke-width:0.5;" width="198" x="382" y="645.4008"/><text fill="#000000" font-family="sans-serif" font-size="12" lengthAdjust="spacing" textLength="178" x="392" y="666.5489">Mostrar mensaje de error (Toast)</text><polygon fill="#F1F1F1" points="333.75,740.201,345.75,752.201,333.75,764.201,321.75,752.201,333.75,740.201" style="stroke:#181818;stroke-width:0.5;"/><rect fill="#F1F1F1" height="34.4001" rx="12.5" ry="12.5" style="stroke:#181818;stroke-width:0.5;" width="136" x="615.25" y="502.6006"/><text fill="#000000" font-family="sans-serif" font-size="12" lengthAdjust="spacing" textLength="116" x="625.25" y="523.7487">Cancelar eliminaci&#243;n</text><polygon fill="#F1F1F1" points="508.5,770.201,520.5,782.201,508.5,794.201,496.5,782.201,508.5,770.201" style="stroke:#181818;stroke-width:0.5;"/><ellipse cx="508.5" cy="825.201" fill="none" rx="11" ry="11" style="stroke:#222222;stroke-width:1.0;"/><ellipse cx="508.5" cy="825.201" fill="#222222" rx="6" ry="6" style="stroke:#222222;stroke-width:1.0;"/><line style="stroke:#181818;stroke-width:1.0;" x1="508.5" x2="508.5" y1="67.7999" y2="87.7999"/><polygon fill="#181818" points="504.5,77.7999,508.5,87.7999,512.5,77.7999,508.5,81.7999" style="stroke:#181818;stroke-width:1.0;"/><line style="stroke:#181818;stroke-width:1.0;" x1="508.5" x2="508.5" y1="122.2" y2="142.2"/><polygon fill="#181818" points="504.5,132.2,508.5,142.2,512.5,132.2,508.5,136.2" style="stroke:#181818;stroke-width:1.0;"/><line style="stroke:#181818;stroke-width:1.0;" x1="508.5" x2="508.5" y1="176.6001" y2="196.6001"/><polygon fill="#181818" points="504.5,186.6001,508.5,196.6001,512.5,186.6001,508.5,190.6001" style="stroke:#181818;stroke-width:1.0;"/><line style="stroke:#181818;stroke-width:1.0;" x1="508.5" x2="508.5" y1="231.0002" y2="251.0002"/><polygon fill="#181818" points="504.5,241.0002,508.5,251.0002,512.5,241.0002,508.5,245.0002" style="stroke:#181818;stroke-width:1.0;"/><line style="stroke:#181818;stroke-width:1.0;" x1="508.5" x2="508.5" y1="285.4003" y2="305.4003"/><polygon fill="#181818" points="504.5,295.4003,508.5,305.4003,512.5,295.4003,508.5,299.4003" style="stroke:#181818;stroke-width:1.0;"/><line style="stroke:#181818;stroke-width:1.0;" x1="508.5" x2="508.5" y1="339.8004" y2="359.8004"/><polygon fill="#181818" points="504.5,349.8004,508.5,359.8004,512.5,349.8004,508.5,353.8004" style="stroke:#181818;stroke-width:1.0;"/><line style="stroke:#181818;stroke-width:1.0;" x1="508.5" x2="508.5" y1="394.2005" y2="414.2005"/><polygon fill="#181818" points="504.5,404.2005,508.5,414.2005,512.5,404.2005,508.5,408.2005" style="stroke:#181818;stroke-width:1.0;"/><line style="stroke:#181818;stroke-width:1.0;" x1="186.5" x2="186.5" y1="625.4008" y2="645.4008"/><polygon fill="#181818" points="182.5,635.4008,186.5,645.4008,190.5,635.4008,186.5,639.4008" style="stroke:#181818;stroke-width:1.0;"/><line style="stroke:#181818;stroke-width:1.0;" x1="186.5" x2="186.5" y1="679.8009" y2="699.8009"/><polygon fill="#181818" points="182.5,689.8009,186.5,699.8009,190.5,689.8009,186.5,693.8009" style="stroke:#181818;stroke-width:1.0;"/><line style="stroke:#181818;stroke-width:1.0;" x1="481" x2="481" y1="625.4008" y2="645.4008"/><polygon fill="#181818" points="477,635.4008,481,645.4008,485,635.4008,481,639.4008" style="stroke:#181818;stroke-width:1.0;"/><line style="stroke:#181818;stroke-width:1.0;" x1="241.75" x2="186.5" y1="569.0007" y2="569.0007"/><line style="stroke:#181818;stroke-width:1.0;" x1="186.5" x2="186.5" y1="569.0007" y2="591.0007"/><polygon fill="#181818" points="182.5,581.0007,186.5,591.0007,190.5,581.0007,186.5,585.0007" style="stroke:#181818;stroke-width:1.0;"/><line style="stroke:#181818;stroke-width:1.0;" x1="425.75" x2="481" y1="569.0007" y2="569.0007"/><line style="stroke:#181818;stroke-width:1.0;" x1="481" x2="481" y1="569.0007" y2="591.0007"/><polygon fill="#181818" points="477,581.0007,481,591.0007,485,581.0007,481,585.0007" style="stroke:#181818;stroke-width:1.0;"/><line style="stroke:#181818;stroke-width:1.0;" x1="186.5" x2="186.5" y1="734.201" y2="752.201"/><line style="stroke:#181818;stroke-width:1.0;" x1="186.5" x2="321.75" y1="752.201" y2="752.201"/><polygon fill="#181818" points="311.75,748.201,321.75,752.201,311.75,756.201,315.75,752.201" style="stroke:#181818;stroke-width:1.0;"/><line style="stroke:#181818;stroke-width:1.0;" x1="481" x2="481" y1="679.8009" y2="752.201"/><line style="stroke:#181818;stroke-width:1.0;" x1="481" x2="345.75" y1="752.201" y2="752.201"/><polygon fill="#181818" points="355.75,748.201,345.75,752.201,355.75,756.201,351.75,752.201" style="stroke:#181818;stroke-width:1.0;"/><line style="stroke:#181818;stroke-width:1.0;" x1="333.75" x2="333.75" y1="537.0007" y2="557.0007"/><polygon fill="#181818" points="329.75,547.0007,333.75,557.0007,337.75,547.0007,333.75,551.0007" style="stroke:#181818;stroke-width:1.0;"/><line style="stroke:#181818;stroke-width:1.0;" x1="428" x2="333.75" y1="480.6006" y2="480.6006"/><line style="stroke:#181818;stroke-width:1.0;" x1="333.75" x2="333.75" y1="480.6006" y2="502.6006"/><polygon fill="#181818" points="329.75,492.6006,333.75,502.6006,337.75,492.6006,333.75,496.6006" style="stroke:#181818;stroke-width:1.0;"/><line style="stroke:#181818;stroke-width:1.0;" x1="589" x2="683.25" y1="480.6006" y2="480.6006"/><line style="stroke:#181818;stroke-width:1.0;" x1="683.25" x2="683.25" y1="480.6006" y2="502.6006"/><polygon fill="#181818" points="679.25,492.6006,683.25,502.6006,687.25,492.6006,683.25,496.6006" style="stroke:#181818;stroke-width:1.0;"/><line style="stroke:#181818;stroke-width:1.0;" x1="333.75" x2="333.75" y1="764.201" y2="782.201"/><line style="stroke:#181818;stroke-width:1.0;" x1="333.75" x2="496.5" y1="782.201" y2="782.201"/><polygon fill="#181818" points="486.5,778.201,496.5,782.201,486.5,786.201,490.5,782.201" style="stroke:#181818;stroke-width:1.0;"/><line style="stroke:#181818;stroke-width:1.0;" x1="683.25" x2="683.25" y1="537.0007" y2="782.201"/><line style="stroke:#181818;stroke-width:1.0;" x1="683.25" x2="520.5" y1="782.201" y2="782.201"/><polygon fill="#181818" points="530.5,778.201,520.5,782.201,530.5,786.201,526.5,782.201" style="stroke:#181818;stroke-width:1.0;"/><line style="stroke:#181818;stroke-width:1.0;" x1="508.5" x2="508.5" y1="448.6006" y2="468.6006"/><polygon fill="#181818" points="504.5,458.6006,508.5,468.6006,512.5,458.6006,508.5,462.6006" style="stroke:#181818;stroke-width:1.0;"/><line style="stroke:#181818;stroke-width:1.0;" x1="508.5" x2="508.5" y1="794.201" y2="814.201"/><polygon fill="#181818" points="504.5,804.201,508.5,814.201,512.5,804.201,508.5,808.201" style="stroke:#181818;stroke-width:1.0;"/><!--SRC=[TLEzRjim4Dxr50TF4j2yW3KKhcCK7G84Q3qN5-giN4gH3eyochvDnWwPkdNLY_KeKRPSj8C1IVn-x-Z8qHBijry_aaJs3iD6k7Lez7cBaLeV66NJTEpMi36HJnnVu9Qn3TWLXKGCiLYFv-3mH2q2mceK6tuvQ0Yool26abxtqcDW3-N8gLPriVxC4gb3C1YKRlKD4pBwnWjO_VKJHw0yOa1u67xBSqyDLlLipQuD90Yz0rLY2wK7nKPAGiDFMy74x4LD4YfBBjmFRAD2Ng3hDRq-NJaRpyvmGowIAEa-gLraW9pnJacDVmUI1SywMjmiXZ1zqGAWvyChu3Zmn5GDy4SpJuuiQpSCvvP2bapQJFB6XQYcVaH3O2mRpGAhNQR2l4sLN8vwpdRBmwlrhHyNvTs1GpU1wu8FUKSfrdWm1ne1xok8ZsfLol1M5G1dQNAdb4YyPk7ODu0MFg3vHgw1pVsdQH5pDHr5xZ-tjkUPfZajEjPgaZBj5Y5WzvsZbsGwU_oTIvCjtRDnaWvaiqfslBasK-QTJrCAq94JVCgNALb2-SMZn2hZz8_He-KV2jtdXe4wVw9mtI49sCiLjvTh29fC24hduGOe11zIfuSf-Jzw18e-Q8yH-l-qaz8YhFBvKCnUu-Asw8oE8bojjoucf4H__0C0]--></g></svg>