<?xml version="1.0" encoding="us-ascii" standalone="no"?><svg xmlns="http://www.w3.org/2000/svg" xmlns:xlink="http://www.w3.org/1999/xlink" contentStyleType="text/css" height="1204px" preserveAspectRatio="none" style="width:1737px;height:1204px;background:#FFFFFF;" version="1.1" viewBox="0 0 1737 1204" width="1737px" zoomAndPan="magnify"><defs/><g><text fill="#000000" font-family="sans-serif" font-size="14" font-weight="bold" lengthAdjust="spacing" textLength="455" x="642.25" y="28.0059">UC_VerInscribirseTorneosUsuario (Inscribirse): Sequence Diagram</text><rect fill="#FFFFFF" height="961.6002" style="stroke:#181818;stroke-width:1.0;" width="10" x="293.5" y="151.1999"/><rect fill="#FFFFFF" height="59.2" style="stroke:#181818;stroke-width:1.0;" width="10" x="523.5" y="299.1999"/><rect fill="#FFFFFF" height="29.6" style="stroke:#181818;stroke-width:1.0;" width="10" x="739" y="210.3999"/><rect fill="#FFFFFF" height="559.2001" style="stroke:#181818;stroke-width:1.0;" width="10" x="739" y="471.8"/><rect fill="#FFFFFF" height="29.6" style="stroke:#181818;stroke-width:1.0;" width="10" x="928" y="388"/><rect fill="#FFFFFF" height="29.6" style="stroke:#181818;stroke-width:1.0;" width="10" x="928" y="531"/><rect fill="#FFFFFF" height="529.6001" style="stroke:#181818;stroke-width:1.0;" width="10" x="1142" y="501.4"/><rect fill="#FFFFFF" height="440.8001" style="stroke:#181818;stroke-width:1.0;" width="10" x="1418" y="590.2001"/><rect fill="#FFFFFF" height="88.8" style="stroke:#181818;stroke-width:1.0;" width="10" x="1546" y="180.7999"/><rect fill="#FFFFFF" height="30" style="stroke:#181818;stroke-width:1.0;" width="10" x="1546" y="822.4002"/><rect fill="#FFFFFF" height="30" style="stroke:#181818;stroke-width:1.0;" width="10" x="1660" y="733.2001"/><rect fill="#FFFFFF" height="30" style="stroke:#181818;stroke-width:1.0;" width="10" x="1660" y="986.0001"/><rect fill="#FFFFFF" height="30" style="stroke:#181818;stroke-width:1.0;" width="10" x="1660" y="1067.8"/><rect fill="none" height="673.2001" style="stroke:#000000;stroke-width:1.5;" width="1565.5" x="165" y="432.6"/><rect fill="none" height="418.8001" style="stroke:#000000;stroke-width:1.5;" width="1545.5" x="175" y="605.2001"/><line style="stroke:#181818;stroke-width:0.5;stroke-dasharray:5.0,5.0;" x1="32" x2="32" y1="119.5999" y2="1122.8"/><line style="stroke:#181818;stroke-width:0.5;stroke-dasharray:5.0,5.0;" x1="298" x2="298" y1="119.5999" y2="1122.8"/><line style="stroke:#181818;stroke-width:0.5;stroke-dasharray:5.0,5.0;" x1="528" x2="528" y1="119.5999" y2="1122.8"/><line style="stroke:#181818;stroke-width:0.5;stroke-dasharray:5.0,5.0;" x1="744" x2="744" y1="119.5999" y2="1122.8"/><line style="stroke:#181818;stroke-width:0.5;stroke-dasharray:5.0,5.0;" x1="933" x2="933" y1="119.5999" y2="1122.8"/><line style="stroke:#181818;stroke-width:0.5;stroke-dasharray:5.0,5.0;" x1="1146.5" x2="1146.5" y1="119.5999" y2="1122.8"/><line style="stroke:#181818;stroke-width:0.5;stroke-dasharray:5.0,5.0;" x1="1422.5" x2="1422.5" y1="119.5999" y2="1122.8"/><line style="stroke:#181818;stroke-width:0.5;stroke-dasharray:5.0,5.0;" x1="1550.5" x2="1550.5" y1="119.5999" y2="1122.8"/><line style="stroke:#181818;stroke-width:0.5;stroke-dasharray:5.0,5.0;" x1="1664.5" x2="1664.5" y1="119.5999" y2="1122.8"/><text fill="#000000" font-family="sans-serif" font-size="14" lengthAdjust="spacing" textLength="49" x="5" y="115.8059">Usuario</text><ellipse cx="32.5" cy="51.2999" fill="#E2E2F0" rx="8" ry="8" style="stroke:#181818;stroke-width:0.5;"/><path d="M32.5,59.2999 L32.5,86.2999 M19.5,67.2999 L45.5,67.2999 M32.5,86.2999 L19.5,101.2999 M32.5,86.2999 L45.5,101.2999 " fill="none" style="stroke:#181818;stroke-width:0.5;"/><text fill="#000000" font-family="sans-serif" font-size="14" lengthAdjust="spacing" textLength="49" x="5" y="1134.806">Usuario</text><ellipse cx="32.5" cy="1147.1" fill="#E2E2F0" rx="8" ry="8" style="stroke:#181818;stroke-width:0.5;"/><path d="M32.5,1155.1 L32.5,1182.1 M19.5,1163.1 L45.5,1163.1 M32.5,1182.1 L19.5,1197.1 M32.5,1182.1 L45.5,1197.1 " fill="none" style="stroke:#181818;stroke-width:0.5;"/><rect fill="#E2E2F0" height="36" rx="2.5" ry="2.5" style="stroke:#181818;stroke-width:0.5;" width="227" x="185" y="82.5999"/><ellipse cx="203" cy="100.5999" fill="#DA70D6" rx="11" ry="11" style="stroke:#181818;stroke-width:1.0;"/><path d="M200.8594,101.9905 L202.4375,101.9905 C203.1094,102.2405 204.5938,103.9124 205.4688,105.4905 L205.5313,105.5999 L206.9063,105.5999 C207.2344,105.5999 207.5156,105.553 207.6563,105.4749 C207.9219,105.3186 208.0938,105.0217 208.0938,104.7092 C208.0938,104.4436 207.9375,104.1624 207.7188,104.0061 C207.5313,103.8655 207.3594,103.8342 206.9063,103.8342 L206.7188,103.8342 C206.0625,102.8499 205.3906,102.053 204.6563,101.4124 C205.8594,100.7874 206.4375,99.9905 206.4375,98.9592 C206.4375,97.2249 204.8906,96.0061 202.6406,96.0061 L198.8438,96.0061 C198.3906,96.0061 198.2656,96.0217 198.0938,96.1311 C197.8281,96.303 197.6563,96.5842 197.6563,96.8811 C197.6563,97.1624 197.8125,97.4436 198.0313,97.5999 C198.2188,97.7249 198.4063,97.7561 198.8438,97.7561 L199.0313,97.7561 L199.0313,103.8342 L198.8438,103.8342 C198.4219,103.8342 198.2656,103.8655 198.0938,103.9749 C197.8281,104.1155 197.6563,104.4124 197.6563,104.7092 C197.6563,105.2874 198.0625,105.5999 198.8438,105.5999 L201.3906,105.5999 C201.75,105.5999 202,105.553 202.1406,105.4749 C202.4063,105.3186 202.5781,105.0217 202.5781,104.7092 C202.5781,104.4436 202.4531,104.178 202.2031,104.0061 C202.0156,103.8655 201.875,103.8342 201.3906,103.8342 L200.8594,103.8342 L200.8594,101.9905 Z M200.8594,100.2405 L200.8594,97.7561 L202.7031,97.7561 C203.7344,97.7561 204.5,98.2405 204.5,98.8967 C204.5,99.678 203.4844,100.2405 202.0938,100.2405 L200.8594,100.2405 Z " fill="#000000"/><text fill="#000000" font-family="sans-serif" font-size="14" lengthAdjust="spacing" textLength="185" x="220" y="102.6058">TournamentPageComponent</text><rect fill="#E2E2F0" height="36" rx="2.5" ry="2.5" style="stroke:#181818;stroke-width:0.5;" width="227" x="185" y="1121.8"/><ellipse cx="203" cy="1139.8" fill="#DA70D6" rx="11" ry="11" style="stroke:#181818;stroke-width:1.0;"/><path d="M200.8594,1141.1907 L202.4375,1141.1907 C203.1094,1141.4407 204.5938,1143.1125 205.4688,1144.6907 L205.5313,1144.8 L206.9063,1144.8 C207.2344,1144.8 207.5156,1144.7532 207.6563,1144.675 C207.9219,1144.5188 208.0938,1144.2219 208.0938,1143.9094 C208.0938,1143.6438 207.9375,1143.3625 207.7188,1143.2063 C207.5313,1143.0657 207.3594,1143.0344 206.9063,1143.0344 L206.7188,1143.0344 C206.0625,1142.05 205.3906,1141.2532 204.6563,1140.6125 C205.8594,1139.9875 206.4375,1139.1907 206.4375,1138.1594 C206.4375,1136.425 204.8906,1135.2063 202.6406,1135.2063 L198.8438,1135.2063 C198.3906,1135.2063 198.2656,1135.2219 198.0938,1135.3313 C197.8281,1135.5032 197.6563,1135.7844 197.6563,1136.0813 C197.6563,1136.3625 197.8125,1136.6438 198.0313,1136.8 C198.2188,1136.925 198.4063,1136.9563 198.8438,1136.9563 L199.0313,1136.9563 L199.0313,1143.0344 L198.8438,1143.0344 C198.4219,1143.0344 198.2656,1143.0657 198.0938,1143.175 C197.8281,1143.3157 197.6563,1143.6125 197.6563,1143.9094 C197.6563,1144.4875 198.0625,1144.8 198.8438,1144.8 L201.3906,1144.8 C201.75,1144.8 202,1144.7532 202.1406,1144.675 C202.4063,1144.5188 202.5781,1144.2219 202.5781,1143.9094 C202.5781,1143.6438 202.4531,1143.3782 202.2031,1143.2063 C202.0156,1143.0657 201.875,1143.0344 201.3906,1143.0344 L200.8594,1143.0344 L200.8594,1141.1907 Z M200.8594,1139.4407 L200.8594,1136.9563 L202.7031,1136.9563 C203.7344,1136.9563 204.5,1137.4407 204.5,1138.0969 C204.5,1138.8782 203.4844,1139.4407 202.0938,1139.4407 L200.8594,1139.4407 Z " fill="#000000"/><text fill="#000000" font-family="sans-serif" font-size="14" lengthAdjust="spacing" textLength="185" x="220" y="1141.806">TournamentPageComponent</text><rect fill="#E2E2F0" height="36" rx="2.5" ry="2.5" style="stroke:#181818;stroke-width:0.5;" width="181" x="438" y="82.5999"/><ellipse cx="456" cy="100.5999" fill="#D3D3D3" rx="11" ry="11" style="stroke:#181818;stroke-width:1.0;"/><path d="M451,101.7561 C451,104.2561 453.1406,106.0686 456.0625,106.0686 C457.2969,106.0686 458.4688,105.7717 459.2188,105.2561 C459.8281,104.8342 460.1563,104.4124 460.1563,104.0061 C460.1563,103.5374 459.7344,103.1311 459.2344,103.1311 C459,103.1311 458.7813,103.2092 458.5781,103.4124 C458.1406,103.8499 458.1406,103.8499 457.9688,103.9436 C457.5156,104.178 456.875,104.3186 456.1094,104.3186 C454.1094,104.3186 452.8281,103.303 452.8281,101.7249 L452.8281,100.678 C452.8281,98.9749 454.0469,97.7717 455.75,97.7717 C456.3281,97.7717 456.9063,97.9124 457.375,98.1624 C457.8438,98.428 458.0156,98.6155 458.0781,98.9749 C458.2031,99.6467 458.4531,99.8967 458.9844,99.8967 C459.2656,99.8967 459.5469,99.7561 459.7344,99.5374 C459.8594,99.3655 459.9063,99.1936 459.9063,98.7561 L459.9063,97.3967 C459.9063,96.9749 459.8906,96.8342 459.7656,96.6624 C459.5938,96.4124 459.3125,96.2561 458.9844,96.2561 C458.6719,96.2561 458.4688,96.3655 458.25,96.6311 C457.0781,96.1311 456.6406,96.0217 455.6875,96.0217 C453.0156,96.0217 451,98.0374 451,100.6624 L451,101.7561 Z " fill="#000000"/><text fill="#000000" font-family="sans-serif" font-size="14" lengthAdjust="spacing" textLength="139" x="473" y="102.6058">UserTournamentCard</text><rect fill="#E2E2F0" height="36" rx="2.5" ry="2.5" style="stroke:#181818;stroke-width:0.5;" width="181" x="438" y="1121.8"/><ellipse cx="456" cy="1139.8" fill="#D3D3D3" rx="11" ry="11" style="stroke:#181818;stroke-width:1.0;"/><path d="M451,1140.9563 C451,1143.4563 453.1406,1145.2688 456.0625,1145.2688 C457.2969,1145.2688 458.4688,1144.9719 459.2188,1144.4563 C459.8281,1144.0344 460.1563,1143.6125 460.1563,1143.2063 C460.1563,1142.7375 459.7344,1142.3313 459.2344,1142.3313 C459,1142.3313 458.7813,1142.4094 458.5781,1142.6125 C458.1406,1143.05 458.1406,1143.05 457.9688,1143.1438 C457.5156,1143.3782 456.875,1143.5188 456.1094,1143.5188 C454.1094,1143.5188 452.8281,1142.5032 452.8281,1140.925 L452.8281,1139.8782 C452.8281,1138.175 454.0469,1136.9719 455.75,1136.9719 C456.3281,1136.9719 456.9063,1137.1125 457.375,1137.3625 C457.8438,1137.6282 458.0156,1137.8157 458.0781,1138.175 C458.2031,1138.8469 458.4531,1139.0969 458.9844,1139.0969 C459.2656,1139.0969 459.5469,1138.9563 459.7344,1138.7375 C459.8594,1138.5657 459.9063,1138.3938 459.9063,1137.9563 L459.9063,1136.5969 C459.9063,1136.175 459.8906,1136.0344 459.7656,1135.8625 C459.5938,1135.6125 459.3125,1135.4563 458.9844,1135.4563 C458.6719,1135.4563 458.4688,1135.5657 458.25,1135.8313 C457.0781,1135.3313 456.6406,1135.2219 455.6875,1135.2219 C453.0156,1135.2219 451,1137.2375 451,1139.8625 L451,1140.9563 Z " fill="#000000"/><text fill="#000000" font-family="sans-serif" font-size="14" lengthAdjust="spacing" textLength="139" x="473" y="1141.806">UserTournamentCard</text><rect fill="#E2E2F0" height="47.5999" rx="2.5" ry="2.5" style="stroke:#181818;stroke-width:0.5;" width="230" x="629" y="71"/><ellipse cx="647" cy="89" fill="#FFFF00" rx="11" ry="11" style="stroke:#181818;stroke-width:1.0;"/><path d="M645.8594,90.0625 L647.1719,90.0625 L647.1719,90.1094 C647.1719,90.5 647.2031,90.6875 647.2969,90.8438 C647.4688,91.0938 647.7656,91.2656 648.0781,91.2656 C648.3594,91.2656 648.6406,91.125 648.8281,90.9063 C648.9531,90.7188 649,90.5625 649,90.1094 L649,88.2813 C649,87.8594 648.9844,87.7344 648.8594,87.5625 C648.7031,87.2969 648.4063,87.125 648.0781,87.125 C647.7813,87.125 647.5156,87.2656 647.3438,87.4844 C647.2031,87.6719 647.1719,87.8438 647.1719,88.2813 L647.1719,88.3281 L645.8594,88.3281 L645.8594,86.1563 L650.0781,86.1563 L650.0781,86.9219 C650.0781,87.3125 650.1094,87.4844 650.2188,87.6406 C650.3906,87.9063 650.6719,88.0625 651,88.0625 C651.2813,88.0625 651.5625,87.9375 651.75,87.7031 C651.8906,87.5156 651.9219,87.375 651.9219,86.9219 L651.9219,84.4063 L643.8438,84.4063 C643.4063,84.4063 643.2656,84.4219 643.0938,84.5313 C642.8281,84.7031 642.6563,84.9844 642.6563,85.2813 C642.6563,85.5625 642.8125,85.8438 643.0313,86 C643.2188,86.125 643.4063,86.1563 643.8438,86.1563 L644.0313,86.1563 L644.0313,92.25 L643.8438,92.25 C643.4219,92.25 643.2656,92.2813 643.0938,92.375 C642.8281,92.5313 642.6563,92.8281 642.6563,93.1094 C642.6563,93.6875 643.0625,94 643.8438,94 L647.5,94 C648.2813,94 648.6875,93.7188 648.6875,93.1094 C648.6875,92.8438 648.5469,92.5938 648.3125,92.4219 C648.125,92.2813 647.9531,92.25 647.5,92.25 L645.8594,92.25 L645.8594,90.0625 Z " fill="#000000"/><text fill="#000000" font-family="sans-serif" font-size="14" lengthAdjust="spacing" textLength="150" x="683" y="91.0059">tournament_backend.ts</text><text fill="#000000" font-family="sans-serif" font-size="14" lengthAdjust="spacing" textLength="188" x="664" y="107.8059">registerUserForTournament()</text><rect fill="#E2E2F0" height="47.5999" rx="2.5" ry="2.5" style="stroke:#181818;stroke-width:0.5;" width="230" x="629" y="1121.8"/><ellipse cx="647" cy="1139.8" fill="#FFFF00" rx="11" ry="11" style="stroke:#181818;stroke-width:1.0;"/><path d="M645.8594,1140.8625 L647.1719,1140.8625 L647.1719,1140.9094 C647.1719,1141.3 647.2031,1141.4875 647.2969,1141.6438 C647.4688,1141.8938 647.7656,1142.0657 648.0781,1142.0657 C648.3594,1142.0657 648.6406,1141.925 648.8281,1141.7063 C648.9531,1141.5188 649,1141.3625 649,1140.9094 L649,1139.0813 C649,1138.6594 648.9844,1138.5344 648.8594,1138.3625 C648.7031,1138.0969 648.4063,1137.925 648.0781,1137.925 C647.7813,1137.925 647.5156,1138.0657 647.3438,1138.2844 C647.2031,1138.4719 647.1719,1138.6438 647.1719,1139.0813 L647.1719,1139.1282 L645.8594,1139.1282 L645.8594,1136.9563 L650.0781,1136.9563 L650.0781,1137.7219 C650.0781,1138.1125 650.1094,1138.2844 650.2188,1138.4407 C650.3906,1138.7063 650.6719,1138.8625 651,1138.8625 C651.2813,1138.8625 651.5625,1138.7375 651.75,1138.5032 C651.8906,1138.3157 651.9219,1138.175 651.9219,1137.7219 L651.9219,1135.2063 L643.8438,1135.2063 C643.4063,1135.2063 643.2656,1135.2219 643.0938,1135.3313 C642.8281,1135.5032 642.6563,1135.7844 642.6563,1136.0813 C642.6563,1136.3625 642.8125,1136.6438 643.0313,1136.8 C643.2188,1136.925 643.4063,1136.9563 643.8438,1136.9563 L644.0313,1136.9563 L644.0313,1143.05 L643.8438,1143.05 C643.4219,1143.05 643.2656,1143.0813 643.0938,1143.175 C642.8281,1143.3313 642.6563,1143.6282 642.6563,1143.9094 C642.6563,1144.4875 643.0625,1144.8 643.8438,1144.8 L647.5,1144.8 C648.2813,1144.8 648.6875,1144.5188 648.6875,1143.9094 C648.6875,1143.6438 648.5469,1143.3938 648.3125,1143.2219 C648.125,1143.0813 647.9531,1143.05 647.5,1143.05 L645.8594,1143.05 L645.8594,1140.8625 Z " fill="#000000"/><text fill="#000000" font-family="sans-serif" font-size="14" lengthAdjust="spacing" textLength="150" x="683" y="1141.806">tournament_backend.ts</text><text fill="#000000" font-family="sans-serif" font-size="14" lengthAdjust="spacing" textLength="188" x="664" y="1158.6059">registerUserForTournament()</text><rect fill="#E2E2F0" height="36" rx="2.5" ry="2.5" style="stroke:#181818;stroke-width:0.5;" width="128" x="869" y="82.5999"/><ellipse cx="887" cy="100.5999" fill="#ADD8E6" rx="11" ry="11" style="stroke:#181818;stroke-width:1.0;"/><path d="M890.8594,96.9124 C890.8594,96.4749 890.8438,96.3499 890.7344,96.178 C890.5781,95.928 890.2813,95.7717 889.9531,95.7717 C889.6094,95.7717 889.4219,95.9124 889.2656,96.2874 C888.7031,95.9592 887.9375,95.7717 887.0625,95.7717 C884.9219,95.7717 883.3281,97.0374 883.3281,98.6936 C883.3281,99.6467 883.875,100.5374 884.75,101.0061 C885.3125,101.3186 885.8438,101.4749 886.9844,101.6624 C888.1094,101.8655 888.375,101.928 888.75,102.0999 C889.0938,102.2717 889.3125,102.5686 889.3125,102.8811 C889.3125,103.5374 888.3594,104.053 887.1406,104.053 C886.0469,104.053 884.9844,103.5999 884.8281,103.053 C884.6875,102.6155 884.6875,102.6155 884.5625,102.4749 C884.3906,102.3186 884.1563,102.2405 883.9063,102.2405 C883.6094,102.2405 883.3438,102.3655 883.1563,102.5842 C883.0313,102.7561 882.9844,102.9436 882.9844,103.3655 L882.9844,104.4436 C882.9844,105.2092 883.2969,105.5842 883.9063,105.5842 C884.1875,105.5842 884.3438,105.4905 884.625,105.2092 C885.4844,105.6311 886.3281,105.8186 887.25,105.8186 C889.6094,105.8186 891.2188,104.6467 891.2188,102.9124 C891.2188,102.053 890.875,101.3655 890.1875,100.8342 C889.6563,100.428 888.9844,100.1936 887.4844,99.9436 C886.2031,99.6936 886.1406,99.678 885.8125,99.5061 C885.4688,99.3655 885.2344,99.0061 885.2344,98.678 C885.2344,98.0374 886.0469,97.5217 887.0781,97.5217 C888.125,97.5217 888.8906,97.9436 889.0313,98.5686 C889.1563,99.0999 889.1563,99.0999 889.2969,99.2405 C889.4531,99.3967 889.7031,99.4905 889.9531,99.4905 C890.25,99.4905 890.5,99.3655 890.6875,99.1467 C890.8281,98.9592 890.8594,98.8186 890.8594,98.3655 L890.8594,96.9124 Z " fill="#000000"/><text fill="#000000" font-family="sans-serif" font-size="14" lengthAdjust="spacing" textLength="86" x="904" y="102.6058">AuthManager</text><rect fill="#E2E2F0" height="36" rx="2.5" ry="2.5" style="stroke:#181818;stroke-width:0.5;" width="128" x="869" y="1121.8"/><ellipse cx="887" cy="1139.8" fill="#ADD8E6" rx="11" ry="11" style="stroke:#181818;stroke-width:1.0;"/><path d="M890.8594,1136.1125 C890.8594,1135.675 890.8438,1135.55 890.7344,1135.3782 C890.5781,1135.1282 890.2813,1134.9719 889.9531,1134.9719 C889.6094,1134.9719 889.4219,1135.1125 889.2656,1135.4875 C888.7031,1135.1594 887.9375,1134.9719 887.0625,1134.9719 C884.9219,1134.9719 883.3281,1136.2375 883.3281,1137.8938 C883.3281,1138.8469 883.875,1139.7375 884.75,1140.2063 C885.3125,1140.5188 885.8438,1140.675 886.9844,1140.8625 C888.1094,1141.0657 888.375,1141.1282 888.75,1141.3 C889.0938,1141.4719 889.3125,1141.7688 889.3125,1142.0813 C889.3125,1142.7375 888.3594,1143.2532 887.1406,1143.2532 C886.0469,1143.2532 884.9844,1142.8 884.8281,1142.2532 C884.6875,1141.8157 884.6875,1141.8157 884.5625,1141.675 C884.3906,1141.5188 884.1563,1141.4407 883.9063,1141.4407 C883.6094,1141.4407 883.3438,1141.5657 883.1563,1141.7844 C883.0313,1141.9563 882.9844,1142.1438 882.9844,1142.5657 L882.9844,1143.6438 C882.9844,1144.4094 883.2969,1144.7844 883.9063,1144.7844 C884.1875,1144.7844 884.3438,1144.6907 884.625,1144.4094 C885.4844,1144.8313 886.3281,1145.0188 887.25,1145.0188 C889.6094,1145.0188 891.2188,1143.8469 891.2188,1142.1125 C891.2188,1141.2532 890.875,1140.5657 890.1875,1140.0344 C889.6563,1139.6282 888.9844,1139.3938 887.4844,1139.1438 C886.2031,1138.8938 886.1406,1138.8782 885.8125,1138.7063 C885.4688,1138.5657 885.2344,1138.2063 885.2344,1137.8782 C885.2344,1137.2375 886.0469,1136.7219 887.0781,1136.7219 C888.125,1136.7219 888.8906,1137.1438 889.0313,1137.7688 C889.1563,1138.3 889.1563,1138.3 889.2969,1138.4407 C889.4531,1138.5969 889.7031,1138.6907 889.9531,1138.6907 C890.25,1138.6907 890.5,1138.5657 890.6875,1138.3469 C890.8281,1138.1594 890.8594,1138.0188 890.8594,1137.5657 L890.8594,1136.1125 Z " fill="#000000"/><text fill="#000000" font-family="sans-serif" font-size="14" lengthAdjust="spacing" textLength="86" x="904" y="1141.806">AuthManager</text><rect fill="#E2E2F0" height="47.5999" rx="2.5" ry="2.5" style="stroke:#181818;stroke-width:0.5;" width="113" x="1090.5" y="71"/><ellipse cx="1108.5" cy="89" fill="#FFA500" rx="11" ry="11" style="stroke:#181818;stroke-width:1.0;"/><path d="M1107.3594,90.0625 L1108.6719,90.0625 L1108.6719,90.1094 C1108.6719,90.5 1108.7031,90.6875 1108.7969,90.8438 C1108.9688,91.0938 1109.2656,91.2656 1109.5781,91.2656 C1109.8594,91.2656 1110.1406,91.125 1110.3281,90.9063 C1110.4531,90.7188 1110.5,90.5625 1110.5,90.1094 L1110.5,88.2813 C1110.5,87.8594 1110.4844,87.7344 1110.3594,87.5625 C1110.2031,87.2969 1109.9063,87.125 1109.5781,87.125 C1109.2813,87.125 1109.0156,87.2656 1108.8438,87.4844 C1108.7031,87.6719 1108.6719,87.8438 1108.6719,88.2813 L1108.6719,88.3281 L1107.3594,88.3281 L1107.3594,86.1563 L1111.5781,86.1563 L1111.5781,86.9219 C1111.5781,87.3125 1111.6094,87.4844 1111.7188,87.6406 C1111.8906,87.9063 1112.1719,88.0625 1112.5,88.0625 C1112.7813,88.0625 1113.0625,87.9375 1113.25,87.7031 C1113.3906,87.5156 1113.4219,87.375 1113.4219,86.9219 L1113.4219,84.4063 L1105.3438,84.4063 C1104.9063,84.4063 1104.7656,84.4219 1104.5938,84.5313 C1104.3281,84.7031 1104.1563,84.9844 1104.1563,85.2813 C1104.1563,85.5625 1104.3125,85.8438 1104.5313,86 C1104.7188,86.125 1104.9063,86.1563 1105.3438,86.1563 L1105.5313,86.1563 L1105.5313,92.25 L1105.3438,92.25 C1104.9219,92.25 1104.7656,92.2813 1104.5938,92.375 C1104.3281,92.5313 1104.1563,92.8281 1104.1563,93.1094 C1104.1563,93.6875 1104.5625,94 1105.3438,94 L1109,94 C1109.7813,94 1110.1875,93.7188 1110.1875,93.1094 C1110.1875,92.8438 1110.0469,92.5938 1109.8125,92.4219 C1109.625,92.2813 1109.4531,92.25 1109,92.25 L1107.3594,92.25 L1107.3594,90.0625 Z " fill="#000000"/><text fill="#000000" font-family="sans-serif" font-size="14" lengthAdjust="spacing" textLength="40" x="1141" y="91.0059">utils.ts</text><text fill="#000000" font-family="sans-serif" font-size="14" lengthAdjust="spacing" textLength="71" x="1125.5" y="107.8059">fetchJson()</text><rect fill="#E2E2F0" height="47.5999" rx="2.5" ry="2.5" style="stroke:#181818;stroke-width:0.5;" width="113" x="1090.5" y="1121.8"/><ellipse cx="1108.5" cy="1139.8" fill="#FFA500" rx="11" ry="11" style="stroke:#181818;stroke-width:1.0;"/><path d="M1107.3594,1140.8625 L1108.6719,1140.8625 L1108.6719,1140.9094 C1108.6719,1141.3 1108.7031,1141.4875 1108.7969,1141.6438 C1108.9688,1141.8938 1109.2656,1142.0657 1109.5781,1142.0657 C1109.8594,1142.0657 1110.1406,1141.925 1110.3281,1141.7063 C1110.4531,1141.5188 1110.5,1141.3625 1110.5,1140.9094 L1110.5,1139.0813 C1110.5,1138.6594 1110.4844,1138.5344 1110.3594,1138.3625 C1110.2031,1138.0969 1109.9063,1137.925 1109.5781,1137.925 C1109.2813,1137.925 1109.0156,1138.0657 1108.8438,1138.2844 C1108.7031,1138.4719 1108.6719,1138.6438 1108.6719,1139.0813 L1108.6719,1139.1282 L1107.3594,1139.1282 L1107.3594,1136.9563 L1111.5781,1136.9563 L1111.5781,1137.7219 C1111.5781,1138.1125 1111.6094,1138.2844 1111.7188,1138.4407 C1111.8906,1138.7063 1112.1719,1138.8625 1112.5,1138.8625 C1112.7813,1138.8625 1113.0625,1138.7375 1113.25,1138.5032 C1113.3906,1138.3157 1113.4219,1138.175 1113.4219,1137.7219 L1113.4219,1135.2063 L1105.3438,1135.2063 C1104.9063,1135.2063 1104.7656,1135.2219 1104.5938,1135.3313 C1104.3281,1135.5032 1104.1563,1135.7844 1104.1563,1136.0813 C1104.1563,1136.3625 1104.3125,1136.6438 1104.5313,1136.8 C1104.7188,1136.925 1104.9063,1136.9563 1105.3438,1136.9563 L1105.5313,1136.9563 L1105.5313,1143.05 L1105.3438,1143.05 C1104.9219,1143.05 1104.7656,1143.0813 1104.5938,1143.175 C1104.3281,1143.3313 1104.1563,1143.6282 1104.1563,1143.9094 C1104.1563,1144.4875 1104.5625,1144.8 1105.3438,1144.8 L1109,1144.8 C1109.7813,1144.8 1110.1875,1144.5188 1110.1875,1143.9094 C1110.1875,1143.6438 1110.0469,1143.3938 1109.8125,1143.2219 C1109.625,1143.0813 1109.4531,1143.05 1109,1143.05 L1107.3594,1143.05 L1107.3594,1140.8625 Z " fill="#000000"/><text fill="#000000" font-family="sans-serif" font-size="14" lengthAdjust="spacing" textLength="40" x="1141" y="1141.806">utils.ts</text><text fill="#000000" font-family="sans-serif" font-size="14" lengthAdjust="spacing" textLength="71" x="1125.5" y="1158.6059">fetchJson()</text><rect fill="#E2E2F0" height="36" rx="2.5" ry="2.5" style="stroke:#181818;stroke-width:0.5;" width="119" x="1363.5" y="82.5999"/><ellipse cx="1381.5" cy="100.5999" fill="#FF6347" rx="11" ry="11" style="stroke:#181818;stroke-width:1.0;"/><path d="M1385.3594,96.9124 C1385.3594,96.4749 1385.3438,96.3499 1385.2344,96.178 C1385.0781,95.928 1384.7813,95.7717 1384.4531,95.7717 C1384.1094,95.7717 1383.9219,95.9124 1383.7656,96.2874 C1383.2031,95.9592 1382.4375,95.7717 1381.5625,95.7717 C1379.4219,95.7717 1377.8281,97.0374 1377.8281,98.6936 C1377.8281,99.6467 1378.375,100.5374 1379.25,101.0061 C1379.8125,101.3186 1380.3438,101.4749 1381.4844,101.6624 C1382.6094,101.8655 1382.875,101.928 1383.25,102.0999 C1383.5938,102.2717 1383.8125,102.5686 1383.8125,102.8811 C1383.8125,103.5374 1382.8594,104.053 1381.6406,104.053 C1380.5469,104.053 1379.4844,103.5999 1379.3281,103.053 C1379.1875,102.6155 1379.1875,102.6155 1379.0625,102.4749 C1378.8906,102.3186 1378.6563,102.2405 1378.4063,102.2405 C1378.1094,102.2405 1377.8438,102.3655 1377.6563,102.5842 C1377.5313,102.7561 1377.4844,102.9436 1377.4844,103.3655 L1377.4844,104.4436 C1377.4844,105.2092 1377.7969,105.5842 1378.4063,105.5842 C1378.6875,105.5842 1378.8438,105.4905 1379.125,105.2092 C1379.9844,105.6311 1380.8281,105.8186 1381.75,105.8186 C1384.1094,105.8186 1385.7188,104.6467 1385.7188,102.9124 C1385.7188,102.053 1385.375,101.3655 1384.6875,100.8342 C1384.1563,100.428 1383.4844,100.1936 1381.9844,99.9436 C1380.7031,99.6936 1380.6406,99.678 1380.3125,99.5061 C1379.9688,99.3655 1379.7344,99.0061 1379.7344,98.678 C1379.7344,98.0374 1380.5469,97.5217 1381.5781,97.5217 C1382.625,97.5217 1383.3906,97.9436 1383.5313,98.5686 C1383.6563,99.0999 1383.6563,99.0999 1383.7969,99.2405 C1383.9531,99.3967 1384.2031,99.4905 1384.4531,99.4905 C1384.75,99.4905 1385,99.3655 1385.1875,99.1467 C1385.3281,98.9592 1385.3594,98.8186 1385.3594,98.3655 L1385.3594,96.9124 Z " fill="#000000"/><text fill="#000000" font-family="sans-serif" font-size="14" lengthAdjust="spacing" textLength="77" x="1398.5" y="102.6058">BackendAPI</text><rect fill="#E2E2F0" height="36" rx="2.5" ry="2.5" style="stroke:#181818;stroke-width:0.5;" width="119" x="1363.5" y="1121.8"/><ellipse cx="1381.5" cy="1139.8" fill="#FF6347" rx="11" ry="11" style="stroke:#181818;stroke-width:1.0;"/><path d="M1385.3594,1136.1125 C1385.3594,1135.675 1385.3438,1135.55 1385.2344,1135.3782 C1385.0781,1135.1282 1384.7813,1134.9719 1384.4531,1134.9719 C1384.1094,1134.9719 1383.9219,1135.1125 1383.7656,1135.4875 C1383.2031,1135.1594 1382.4375,1134.9719 1381.5625,1134.9719 C1379.4219,1134.9719 1377.8281,1136.2375 1377.8281,1137.8938 C1377.8281,1138.8469 1378.375,1139.7375 1379.25,1140.2063 C1379.8125,1140.5188 1380.3438,1140.675 1381.4844,1140.8625 C1382.6094,1141.0657 1382.875,1141.1282 1383.25,1141.3 C1383.5938,1141.4719 1383.8125,1141.7688 1383.8125,1142.0813 C1383.8125,1142.7375 1382.8594,1143.2532 1381.6406,1143.2532 C1380.5469,1143.2532 1379.4844,1142.8 1379.3281,1142.2532 C1379.1875,1141.8157 1379.1875,1141.8157 1379.0625,1141.675 C1378.8906,1141.5188 1378.6563,1141.4407 1378.4063,1141.4407 C1378.1094,1141.4407 1377.8438,1141.5657 1377.6563,1141.7844 C1377.5313,1141.9563 1377.4844,1142.1438 1377.4844,1142.5657 L1377.4844,1143.6438 C1377.4844,1144.4094 1377.7969,1144.7844 1378.4063,1144.7844 C1378.6875,1144.7844 1378.8438,1144.6907 1379.125,1144.4094 C1379.9844,1144.8313 1380.8281,1145.0188 1381.75,1145.0188 C1384.1094,1145.0188 1385.7188,1143.8469 1385.7188,1142.1125 C1385.7188,1141.2532 1385.375,1140.5657 1384.6875,1140.0344 C1384.1563,1139.6282 1383.4844,1139.3938 1381.9844,1139.1438 C1380.7031,1138.8938 1380.6406,1138.8782 1380.3125,1138.7063 C1379.9688,1138.5657 1379.7344,1138.2063 1379.7344,1137.8782 C1379.7344,1137.2375 1380.5469,1136.7219 1381.5781,1136.7219 C1382.625,1136.7219 1383.3906,1137.1438 1383.5313,1137.7688 C1383.6563,1138.3 1383.6563,1138.3 1383.7969,1138.4407 C1383.9531,1138.5969 1384.2031,1138.6907 1384.4531,1138.6907 C1384.75,1138.6907 1385,1138.5657 1385.1875,1138.3469 C1385.3281,1138.1594 1385.3594,1138.0188 1385.3594,1137.5657 L1385.3594,1136.1125 Z " fill="#000000"/><text fill="#000000" font-family="sans-serif" font-size="14" lengthAdjust="spacing" textLength="77" x="1398.5" y="1141.806">BackendAPI</text><rect fill="#E2E2F0" height="36" rx="2.5" ry="2.5" style="stroke:#181818;stroke-width:0.5;" width="117" x="1492.5" y="82.5999"/><ellipse cx="1510.5" cy="100.5999" fill="#808080" rx="11" ry="11" style="stroke:#181818;stroke-width:1.0;"/><path d="M1514.3594,96.9124 C1514.3594,96.4749 1514.3438,96.3499 1514.2344,96.178 C1514.0781,95.928 1513.7813,95.7717 1513.4531,95.7717 C1513.1094,95.7717 1512.9219,95.9124 1512.7656,96.2874 C1512.2031,95.9592 1511.4375,95.7717 1510.5625,95.7717 C1508.4219,95.7717 1506.8281,97.0374 1506.8281,98.6936 C1506.8281,99.6467 1507.375,100.5374 1508.25,101.0061 C1508.8125,101.3186 1509.3438,101.4749 1510.4844,101.6624 C1511.6094,101.8655 1511.875,101.928 1512.25,102.0999 C1512.5938,102.2717 1512.8125,102.5686 1512.8125,102.8811 C1512.8125,103.5374 1511.8594,104.053 1510.6406,104.053 C1509.5469,104.053 1508.4844,103.5999 1508.3281,103.053 C1508.1875,102.6155 1508.1875,102.6155 1508.0625,102.4749 C1507.8906,102.3186 1507.6563,102.2405 1507.4063,102.2405 C1507.1094,102.2405 1506.8438,102.3655 1506.6563,102.5842 C1506.5313,102.7561 1506.4844,102.9436 1506.4844,103.3655 L1506.4844,104.4436 C1506.4844,105.2092 1506.7969,105.5842 1507.4063,105.5842 C1507.6875,105.5842 1507.8438,105.4905 1508.125,105.2092 C1508.9844,105.6311 1509.8281,105.8186 1510.75,105.8186 C1513.1094,105.8186 1514.7188,104.6467 1514.7188,102.9124 C1514.7188,102.053 1514.375,101.3655 1513.6875,100.8342 C1513.1563,100.428 1512.4844,100.1936 1510.9844,99.9436 C1509.7031,99.6936 1509.6406,99.678 1509.3125,99.5061 C1508.9688,99.3655 1508.7344,99.0061 1508.7344,98.678 C1508.7344,98.0374 1509.5469,97.5217 1510.5781,97.5217 C1511.625,97.5217 1512.3906,97.9436 1512.5313,98.5686 C1512.6563,99.0999 1512.6563,99.0999 1512.7969,99.2405 C1512.9531,99.3967 1513.2031,99.4905 1513.4531,99.4905 C1513.75,99.4905 1514,99.3655 1514.1875,99.1467 C1514.3281,98.9592 1514.3594,98.8186 1514.3594,98.3655 L1514.3594,96.9124 Z " fill="#000000"/><text fill="#000000" font-family="sans-serif" font-size="14" lengthAdjust="spacing" textLength="75" x="1527.5" y="102.6058">QueryClient</text><rect fill="#E2E2F0" height="36" rx="2.5" ry="2.5" style="stroke:#181818;stroke-width:0.5;" width="117" x="1492.5" y="1121.8"/><ellipse cx="1510.5" cy="1139.8" fill="#808080" rx="11" ry="11" style="stroke:#181818;stroke-width:1.0;"/><path d="M1514.3594,1136.1125 C1514.3594,1135.675 1514.3438,1135.55 1514.2344,1135.3782 C1514.0781,1135.1282 1513.7813,1134.9719 1513.4531,1134.9719 C1513.1094,1134.9719 1512.9219,1135.1125 1512.7656,1135.4875 C1512.2031,1135.1594 1511.4375,1134.9719 1510.5625,1134.9719 C1508.4219,1134.9719 1506.8281,1136.2375 1506.8281,1137.8938 C1506.8281,1138.8469 1507.375,1139.7375 1508.25,1140.2063 C1508.8125,1140.5188 1509.3438,1140.675 1510.4844,1140.8625 C1511.6094,1141.0657 1511.875,1141.1282 1512.25,1141.3 C1512.5938,1141.4719 1512.8125,1141.7688 1512.8125,1142.0813 C1512.8125,1142.7375 1511.8594,1143.2532 1510.6406,1143.2532 C1509.5469,1143.2532 1508.4844,1142.8 1508.3281,1142.2532 C1508.1875,1141.8157 1508.1875,1141.8157 1508.0625,1141.675 C1507.8906,1141.5188 1507.6563,1141.4407 1507.4063,1141.4407 C1507.1094,1141.4407 1506.8438,1141.5657 1506.6563,1141.7844 C1506.5313,1141.9563 1506.4844,1142.1438 1506.4844,1142.5657 L1506.4844,1143.6438 C1506.4844,1144.4094 1506.7969,1144.7844 1507.4063,1144.7844 C1507.6875,1144.7844 1507.8438,1144.6907 1508.125,1144.4094 C1508.9844,1144.8313 1509.8281,1145.0188 1510.75,1145.0188 C1513.1094,1145.0188 1514.7188,1143.8469 1514.7188,1142.1125 C1514.7188,1141.2532 1514.375,1140.5657 1513.6875,1140.0344 C1513.1563,1139.6282 1512.4844,1139.3938 1510.9844,1139.1438 C1509.7031,1138.8938 1509.6406,1138.8782 1509.3125,1138.7063 C1508.9688,1138.5657 1508.7344,1138.2063 1508.7344,1137.8782 C1508.7344,1137.2375 1509.5469,1136.7219 1510.5781,1136.7219 C1511.625,1136.7219 1512.3906,1137.1438 1512.5313,1137.7688 C1512.6563,1138.3 1512.6563,1138.3 1512.7969,1138.4407 C1512.9531,1138.5969 1513.2031,1138.6907 1513.4531,1138.6907 C1513.75,1138.6907 1514,1138.5657 1514.1875,1138.3469 C1514.3281,1138.1594 1514.3594,1138.0188 1514.3594,1137.5657 L1514.3594,1136.1125 Z " fill="#000000"/><text fill="#000000" font-family="sans-serif" font-size="14" lengthAdjust="spacing" textLength="75" x="1527.5" y="1141.806">QueryClient</text><rect fill="#E2E2F0" height="36" rx="2.5" ry="2.5" style="stroke:#181818;stroke-width:0.5;" width="91" x="1619.5" y="82.5999"/><ellipse cx="1637.5" cy="100.5999" fill="#FFC0CB" rx="11" ry="11" style="stroke:#181818;stroke-width:1.0;"/><path d="M1632.5,101.7561 C1632.5,104.2561 1634.6406,106.0686 1637.5625,106.0686 C1638.7969,106.0686 1639.9688,105.7717 1640.7188,105.2561 C1641.3281,104.8342 1641.6563,104.4124 1641.6563,104.0061 C1641.6563,103.5374 1641.2344,103.1311 1640.7344,103.1311 C1640.5,103.1311 1640.2813,103.2092 1640.0781,103.4124 C1639.6406,103.8499 1639.6406,103.8499 1639.4688,103.9436 C1639.0156,104.178 1638.375,104.3186 1637.6094,104.3186 C1635.6094,104.3186 1634.3281,103.303 1634.3281,101.7249 L1634.3281,100.678 C1634.3281,98.9749 1635.5469,97.7717 1637.25,97.7717 C1637.8281,97.7717 1638.4063,97.9124 1638.875,98.1624 C1639.3438,98.428 1639.5156,98.6155 1639.5781,98.9749 C1639.7031,99.6467 1639.9531,99.8967 1640.4844,99.8967 C1640.7656,99.8967 1641.0469,99.7561 1641.2344,99.5374 C1641.3594,99.3655 1641.4063,99.1936 1641.4063,98.7561 L1641.4063,97.3967 C1641.4063,96.9749 1641.3906,96.8342 1641.2656,96.6624 C1641.0938,96.4124 1640.8125,96.2561 1640.4844,96.2561 C1640.1719,96.2561 1639.9688,96.3655 1639.75,96.6311 C1638.5781,96.1311 1638.1406,96.0217 1637.1875,96.0217 C1634.5156,96.0217 1632.5,98.0374 1632.5,100.6624 L1632.5,101.7561 Z " fill="#000000"/><text fill="#000000" font-family="sans-serif" font-size="14" lengthAdjust="spacing" textLength="49" x="1654.5" y="102.6058">Toaster</text><rect fill="#E2E2F0" height="36" rx="2.5" ry="2.5" style="stroke:#181818;stroke-width:0.5;" width="91" x="1619.5" y="1121.8"/><ellipse cx="1637.5" cy="1139.8" fill="#FFC0CB" rx="11" ry="11" style="stroke:#181818;stroke-width:1.0;"/><path d="M1632.5,1140.9563 C1632.5,1143.4563 1634.6406,1145.2688 1637.5625,1145.2688 C1638.7969,1145.2688 1639.9688,1144.9719 1640.7188,1144.4563 C1641.3281,1144.0344 1641.6563,1143.6125 1641.6563,1143.2063 C1641.6563,1142.7375 1641.2344,1142.3313 1640.7344,1142.3313 C1640.5,1142.3313 1640.2813,1142.4094 1640.0781,1142.6125 C1639.6406,1143.05 1639.6406,1143.05 1639.4688,1143.1438 C1639.0156,1143.3782 1638.375,1143.5188 1637.6094,1143.5188 C1635.6094,1143.5188 1634.3281,1142.5032 1634.3281,1140.925 L1634.3281,1139.8782 C1634.3281,1138.175 1635.5469,1136.9719 1637.25,1136.9719 C1637.8281,1136.9719 1638.4063,1137.1125 1638.875,1137.3625 C1639.3438,1137.6282 1639.5156,1137.8157 1639.5781,1138.175 C1639.7031,1138.8469 1639.9531,1139.0969 1640.4844,1139.0969 C1640.7656,1139.0969 1641.0469,1138.9563 1641.2344,1138.7375 C1641.3594,1138.5657 1641.4063,1138.3938 1641.4063,1137.9563 L1641.4063,1136.5969 C1641.4063,1136.175 1641.3906,1136.0344 1641.2656,1135.8625 C1641.0938,1135.6125 1640.8125,1135.4563 1640.4844,1135.4563 C1640.1719,1135.4563 1639.9688,1135.5657 1639.75,1135.8313 C1638.5781,1135.3313 1638.1406,1135.2219 1637.1875,1135.2219 C1634.5156,1135.2219 1632.5,1137.2375 1632.5,1139.8625 L1632.5,1140.9563 Z " fill="#000000"/><text fill="#000000" font-family="sans-serif" font-size="14" lengthAdjust="spacing" textLength="49" x="1654.5" y="1141.806">Toaster</text><rect fill="#FFFFFF" height="961.6002" style="stroke:#181818;stroke-width:1.0;" width="10" x="293.5" y="151.1999"/><rect fill="#FFFFFF" height="59.2" style="stroke:#181818;stroke-width:1.0;" width="10" x="523.5" y="299.1999"/><rect fill="#FFFFFF" height="29.6" style="stroke:#181818;stroke-width:1.0;" width="10" x="739" y="210.3999"/><rect fill="#FFFFFF" height="559.2001" style="stroke:#181818;stroke-width:1.0;" width="10" x="739" y="471.8"/><rect fill="#FFFFFF" height="29.6" style="stroke:#181818;stroke-width:1.0;" width="10" x="928" y="388"/><rect fill="#FFFFFF" height="29.6" style="stroke:#181818;stroke-width:1.0;" width="10" x="928" y="531"/><rect fill="#FFFFFF" height="529.6001" style="stroke:#181818;stroke-width:1.0;" width="10" x="1142" y="501.4"/><rect fill="#FFFFFF" height="440.8001" style="stroke:#181818;stroke-width:1.0;" width="10" x="1418" y="590.2001"/><rect fill="#FFFFFF" height="88.8" style="stroke:#181818;stroke-width:1.0;" width="10" x="1546" y="180.7999"/><rect fill="#FFFFFF" height="30" style="stroke:#181818;stroke-width:1.0;" width="10" x="1546" y="822.4002"/><rect fill="#FFFFFF" height="30" style="stroke:#181818;stroke-width:1.0;" width="10" x="1660" y="733.2001"/><rect fill="#FFFFFF" height="30" style="stroke:#181818;stroke-width:1.0;" width="10" x="1660" y="986.0001"/><rect fill="#FFFFFF" height="30" style="stroke:#181818;stroke-width:1.0;" width="10" x="1660" y="1067.8"/><polygon fill="#181818" points="281.5,147.1999,291.5,151.1999,281.5,155.1999,285.5,151.1999" style="stroke:#181818;stroke-width:1.0;"/><line style="stroke:#181818;stroke-width:1.0;" x1="32.5" x2="287.5" y1="151.1999" y2="151.1999"/><text fill="#000000" font-family="sans-serif" font-size="13" lengthAdjust="spacing" textLength="242" x="39.5" y="145.6769">Navigates to /dashboard_user/tournament</text><polygon fill="#181818" points="1534,176.7999,1544,180.7999,1534,184.7999,1538,180.7999" style="stroke:#181818;stroke-width:1.0;"/><line style="stroke:#181818;stroke-width:1.0;" x1="303.5" x2="1540" y1="180.7999" y2="180.7999"/><text fill="#000000" font-family="sans-serif" font-size="13" lengthAdjust="spacing" textLength="236" x="310.5" y="175.2769">useQuery(['eligibleTournaments', userId])</text><polygon fill="#181818" points="760,206.3999,750,210.3999,760,214.3999,756,210.3999" style="stroke:#181818;stroke-width:1.0;"/><line style="stroke:#181818;stroke-width:1.0;" x1="754" x2="1545" y1="210.3999" y2="210.3999"/><text fill="#000000" font-family="sans-serif" font-size="13" lengthAdjust="spacing" textLength="226" x="766" y="204.8769">getEligibleTournamentsForUser(userId)</text><polygon fill="#181818" points="1534,235.9999,1544,239.9999,1534,243.9999,1538,239.9999" style="stroke:#181818;stroke-width:1.0;"/><line style="stroke:#181818;stroke-width:1.0;stroke-dasharray:2.0,2.0;" x1="744" x2="1540" y1="239.9999" y2="239.9999"/><text fill="#000000" font-family="sans-serif" font-size="13" lengthAdjust="spacing" textLength="126" x="751" y="234.4769">EligibleTournaments[]</text><polygon fill="#181818" points="314.5,265.5999,304.5,269.5999,314.5,273.5999,310.5,269.5999" style="stroke:#181818;stroke-width:1.0;"/><line style="stroke:#181818;stroke-width:1.0;stroke-dasharray:2.0,2.0;" x1="308.5" x2="1550" y1="269.5999" y2="269.5999"/><text fill="#000000" font-family="sans-serif" font-size="13" lengthAdjust="spacing" textLength="126" x="320.5" y="264.0769">EligibleTournaments[]</text><polygon fill="#181818" points="511.5,295.1999,521.5,299.1999,511.5,303.1999,515.5,299.1999" style="stroke:#181818;stroke-width:1.0;"/><line style="stroke:#181818;stroke-width:1.0;" x1="303.5" x2="517.5" y1="299.1999" y2="299.1999"/><text fill="#000000" font-family="sans-serif" font-size="13" lengthAdjust="spacing" textLength="201" x="310.5" y="293.6769">Renders available tournament card</text><polygon fill="#181818" points="511.5,324.7999,521.5,328.7999,511.5,332.7999,515.5,328.7999" style="stroke:#181818;stroke-width:1.0;"/><line style="stroke:#181818;stroke-width:1.0;" x1="32.5" x2="517.5" y1="328.7999" y2="328.7999"/><text fill="#000000" font-family="sans-serif" font-size="13" lengthAdjust="spacing" textLength="197" x="39.5" y="323.2769">Clicks "Register" for a tournament</text><polygon fill="#181818" points="314.5,354.4,304.5,358.4,314.5,362.4,310.5,358.4" style="stroke:#181818;stroke-width:1.0;"/><line style="stroke:#181818;stroke-width:1.0;" x1="308.5" x2="527.5" y1="358.4" y2="358.4"/><text fill="#000000" font-family="sans-serif" font-size="13" lengthAdjust="spacing" textLength="146" x="320.5" y="352.877">onRegister(tournamentId)</text><polygon fill="#181818" points="916,384,926,388,916,392,920,388" style="stroke:#181818;stroke-width:1.0;"/><line style="stroke:#181818;stroke-width:1.0;" x1="303.5" x2="922" y1="388" y2="388"/><text fill="#000000" font-family="sans-serif" font-size="13" lengthAdjust="spacing" textLength="64" x="310.5" y="382.477">getUserId()</text><polygon fill="#181818" points="314.5,413.6,304.5,417.6,314.5,421.6,310.5,417.6" style="stroke:#181818;stroke-width:1.0;"/><line style="stroke:#181818;stroke-width:1.0;stroke-dasharray:2.0,2.0;" x1="308.5" x2="932" y1="417.6" y2="417.6"/><text fill="#000000" font-family="sans-serif" font-size="13" lengthAdjust="spacing" textLength="36" x="320.5" y="412.077">userId</text><path d="M165,432.6 L225,432.6 L225,440.2 L215,450.2 L165,450.2 L165,432.6 " fill="#EEEEEE" style="stroke:#000000;stroke-width:1.5;"/><rect fill="none" height="673.2001" style="stroke:#000000;stroke-width:1.5;" width="1565.5" x="165" y="432.6"/><text fill="#000000" font-family="sans-serif" font-size="13" font-weight="bold" lengthAdjust="spacing" textLength="15" x="180" y="445.677">alt</text><text fill="#000000" font-family="sans-serif" font-size="11" font-weight="bold" lengthAdjust="spacing" textLength="81" x="240" y="444.8189">[User ID found]</text><polygon fill="#181818" points="727,467.8,737,471.8,727,475.8,731,471.8" style="stroke:#181818;stroke-width:1.0;"/><line style="stroke:#181818;stroke-width:1.0;" x1="303.5" x2="733" y1="471.8" y2="471.8"/><text fill="#000000" font-family="sans-serif" font-size="13" lengthAdjust="spacing" textLength="344" x="310.5" y="466.277">registerUserForTournament(tournamentId, {id_user: userId})</text><polygon fill="#181818" points="1130,497.4,1140,501.4,1130,505.4,1134,501.4" style="stroke:#181818;stroke-width:1.0;"/><line style="stroke:#181818;stroke-width:1.0;" x1="749" x2="1136" y1="501.4" y2="501.4"/><text fill="#000000" font-family="sans-serif" font-size="13" lengthAdjust="spacing" textLength="374" x="756" y="495.877">fetchJson("/tournaments/{tournamentId}/register", {POST, body})</text><polygon fill="#181818" points="949,527,939,531,949,535,945,531" style="stroke:#181818;stroke-width:1.0;"/><line style="stroke:#181818;stroke-width:1.0;" x1="943" x2="1141" y1="531" y2="531"/><text fill="#000000" font-family="sans-serif" font-size="13" lengthAdjust="spacing" textLength="62" x="955" y="525.477">getToken()</text><polygon fill="#181818" points="1130,556.6001,1140,560.6001,1130,564.6001,1134,560.6001" style="stroke:#181818;stroke-width:1.0;"/><line style="stroke:#181818;stroke-width:1.0;stroke-dasharray:2.0,2.0;" x1="933" x2="1136" y1="560.6001" y2="560.6001"/><text fill="#000000" font-family="sans-serif" font-size="13" lengthAdjust="spacing" textLength="102" x="940" y="555.0771">"user_token_abc"</text><polygon fill="#181818" points="1406,586.2001,1416,590.2001,1406,594.2001,1410,590.2001" style="stroke:#181818;stroke-width:1.0;"/><line style="stroke:#181818;stroke-width:1.0;" x1="1152" x2="1412" y1="590.2001" y2="590.2001"/><text fill="#000000" font-family="sans-serif" font-size="13" lengthAdjust="spacing" textLength="247" x="1159" y="584.6771">POST /tournaments/{id}/register ({id_user})</text><path d="M175,605.2001 L235,605.2001 L235,612.8001 L225,622.8001 L175,622.8001 L175,605.2001 " fill="#EEEEEE" style="stroke:#000000;stroke-width:1.5;"/><rect fill="none" height="418.8001" style="stroke:#000000;stroke-width:1.5;" width="1545.5" x="175" y="605.2001"/><text fill="#000000" font-family="sans-serif" font-size="13" font-weight="bold" lengthAdjust="spacing" textLength="15" x="190" y="618.2771">alt</text><text fill="#000000" font-family="sans-serif" font-size="11" font-weight="bold" lengthAdjust="spacing" textLength="133" x="250" y="617.419">[Registration successful]</text><polygon fill="#181818" points="1163,640.4001,1153,644.4001,1163,648.4001,1159,644.4001" style="stroke:#181818;stroke-width:1.0;"/><line style="stroke:#181818;stroke-width:1.0;stroke-dasharray:2.0,2.0;" x1="1157" x2="1417" y1="644.4001" y2="644.4001"/><text fill="#000000" font-family="sans-serif" font-size="13" lengthAdjust="spacing" textLength="232" x="1169" y="638.8771">HTTP 200 OK (TournamentRegistration)</text><polygon fill="#181818" points="760,670.0001,750,674.0001,760,678.0001,756,674.0001" style="stroke:#181818;stroke-width:1.0;"/><line style="stroke:#181818;stroke-width:1.0;stroke-dasharray:2.0,2.0;" x1="754" x2="1141" y1="674.0001" y2="674.0001"/><text fill="#000000" font-family="sans-serif" font-size="13" lengthAdjust="spacing" textLength="138" x="766" y="668.4771">TournamentRegistration</text><polygon fill="#181818" points="314.5,699.6001,304.5,703.6001,314.5,707.6001,310.5,703.6001" style="stroke:#181818;stroke-width:1.0;"/><line style="stroke:#181818;stroke-width:1.0;stroke-dasharray:2.0,2.0;" x1="308.5" x2="738" y1="703.6001" y2="703.6001"/><text fill="#000000" font-family="sans-serif" font-size="13" lengthAdjust="spacing" textLength="138" x="320.5" y="698.0771">TournamentRegistration</text><polygon fill="#181818" points="1648,729.2001,1658,733.2001,1648,737.2001,1652,733.2001" style="stroke:#181818;stroke-width:1.0;"/><line style="stroke:#181818;stroke-width:1.0;" x1="303.5" x2="1654" y1="733.2001" y2="733.2001"/><text fill="#000000" font-family="sans-serif" font-size="13" lengthAdjust="spacing" textLength="248" x="310.5" y="727.6771">toast.success("Successfully registered...")</text><polygon fill="#181818" points="1539,788.8002,1549,792.8002,1539,796.8002,1543,792.8002" style="stroke:#181818;stroke-width:1.0;"/><line style="stroke:#181818;stroke-width:1.0;" x1="303.5" x2="1545" y1="792.8002" y2="792.8002"/><text fill="#000000" font-family="sans-serif" font-size="13" lengthAdjust="spacing" textLength="280" x="310.5" y="787.2772">invalidateQueries(['eligibleTournaments', userId])</text><polygon fill="#181818" points="1534,818.4002,1544,822.4002,1534,826.4002,1538,822.4002" style="stroke:#181818;stroke-width:1.0;"/><line style="stroke:#181818;stroke-width:1.0;" x1="303.5" x2="1540" y1="822.4002" y2="822.4002"/><text fill="#000000" font-family="sans-serif" font-size="13" lengthAdjust="spacing" textLength="334" x="310.5" y="816.8772">invalidateQueries(['userTournamentRegistrations', userId])</text><line style="stroke:#000000;stroke-width:1.0;stroke-dasharray:2.0,2.0;" x1="175" x2="1720.5" y1="861.4002" y2="861.4002"/><text fill="#000000" font-family="sans-serif" font-size="11" font-weight="bold" lengthAdjust="spacing" textLength="300" x="180" y="871.6191">[Registration failed (e.g., not eligible, already registered)]</text><polygon fill="#181818" points="1163,893.2001,1153,897.2001,1163,901.2001,1159,897.2001" style="stroke:#181818;stroke-width:1.0;"/><line style="stroke:#181818;stroke-width:1.0;stroke-dasharray:2.0,2.0;" x1="1157" x2="1417" y1="897.2001" y2="897.2001"/><text fill="#000000" font-family="sans-serif" font-size="13" lengthAdjust="spacing" textLength="158" x="1169" y="891.6771">HTTP Error (e.g., 400, 409)</text><polygon fill="#181818" points="760,922.8001,750,926.8001,760,930.8001,756,926.8001" style="stroke:#181818;stroke-width:1.0;"/><line style="stroke:#181818;stroke-width:1.0;" x1="754" x2="1141" y1="926.8001" y2="926.8001"/><text fill="#000000" font-family="sans-serif" font-size="13" lengthAdjust="spacing" textLength="70" x="766" y="921.2771">throws Error</text><polygon fill="#181818" points="314.5,952.4001,304.5,956.4001,314.5,960.4001,310.5,956.4001" style="stroke:#181818;stroke-width:1.0;"/><line style="stroke:#181818;stroke-width:1.0;stroke-dasharray:2.0,2.0;" x1="308.5" x2="738" y1="956.4001" y2="956.4001"/><text fill="#000000" font-family="sans-serif" font-size="13" lengthAdjust="spacing" textLength="70" x="320.5" y="950.8771">throws Error</text><polygon fill="#181818" points="1648,982.0001,1658,986.0001,1648,990.0001,1652,986.0001" style="stroke:#181818;stroke-width:1.0;"/><line style="stroke:#181818;stroke-width:1.0;" x1="303.5" x2="1654" y1="986.0001" y2="986.0001"/><text fill="#000000" font-family="sans-serif" font-size="13" lengthAdjust="spacing" textLength="193" x="310.5" y="980.4771">toast.error("Registration failed...")</text><line style="stroke:#000000;stroke-width:1.0;stroke-dasharray:2.0,2.0;" x1="165" x2="1730.5" y1="1032.0001" y2="1032.0001"/><text fill="#000000" font-family="sans-serif" font-size="11" font-weight="bold" lengthAdjust="spacing" textLength="287" x="170" y="1042.219">[User ID not found (should not happen due to loader)]</text><polygon fill="#181818" points="1648,1063.8,1658,1067.8,1648,1071.8,1652,1067.8" style="stroke:#181818;stroke-width:1.0;"/><line style="stroke:#181818;stroke-width:1.0;" x1="303.5" x2="1654" y1="1067.8" y2="1067.8"/><text fill="#000000" font-family="sans-serif" font-size="13" lengthAdjust="spacing" textLength="194" x="310.5" y="1062.277">toast.error("User not identified...")</text><!--SRC=[dLR1Rjiu4BthAmQwH09S9rZqiaOHeEisM6-nMpUnU-aM1YsDPI8AwIMf54RHV- -GaYnAebraBu55pRmtR-Pn5CDDYR2URpwZMWYTARxbIkDAAe5IhtN559UGUA_I6JpWVnMA3E4TPuLYJr74CYCLn4ry34p3MgEA3amPdl434mRYbQoKO4yep98LE9TF1odemKNtty6RDydzHAfip_FqzhOFOu6xy3bJ-G317bc4-QJanTuK2eyZ47EAtcnPzeWYdnhzhr1OS6rGMOuxwT4awO3aZphByjnDZbYMyjk8v6rbzdypGOAKotRFXR8v3tLjsxB2KLfbUAbTEJiqsVulBKL3VsUVr_IwffMAYMAStvJsThceMPUBcj789sRaAFnJXUeuBtax2k-vpWisS2MPRLJJ5VUxxlc1YqSR7TaUmglRuMXdy0zxvWKpgC58kCwPtcybZMnJKS9rDnXhAlvCSGE4Q01857x9Co0STv1ykKBgCj-MsANeguaDK8lyQzenU02H3zOhlntv30eqxyV8P1YhEQdXqr3z3KHq1TFf54xZjJnsJFRmAXeplXff3D1_-HhbU86pfoiqbrzY-bqAJ65m0sTmJxIeDB1dnaj6oD1D5pAA2RN8veRCqs0IVVQe8RvlRceCEzeyp4EE1ZaXgLAq-KcNQ6SMx61TqbXmUv-T8TPkweatzkPrr8O5crwRnUTjqo9M6hT5OV6EH5OqGe1BNU_yUNwD-Medy9tNjwujuqTA51Si104sAg5RIxFEqqditMLz_Trd_d7TLXXJ4SkF3wi9R6L-xFEVOEcmenZsVIMfZAINs7OGm6-zNsLizMwCJTsmRHPJQ602GrgweJEmrK9V6lS4GT8sjI-6akqZZRHsdcA6qyNNLPQXrhlAYWH7CQprpzLg2R_TtC373v1q_VTXKfVi5Nl65-5ibnnUEYExda4OG7JUh3yCCxgUz6lQg4tYXvFiydXoA-Qq_-9QYsT21-4EUvUpFZv3t5-MN3opakUKPyyvwbz_6VulRDNxvyJlqGW-k5O7ClkliDJOjy-E5YlcaE2qc4v0I0EjhWbvJI7B_VQcbptsNYbQfGtMwviR- -VtaRN2pZ9x9R_f6k8bVhgGTyv4Q6EJED27bzk7UkhMcd_vtKNr3lmrTF43wyRJBcmx2xUq8T5xMPMvEzcpmm45v9Nz548f6NqVq-W5gXsyHU8v1VCTxrG7n0KKsqA3AYpnJm00]--></g></svg>